<svg xmlns="http://www.w3.org/2000/svg" width="40" height="40" xml:space="preserve"><path style="stroke:none;stroke-width:10;stroke-dasharray:none;stroke-linecap:butt;stroke-dashoffset:0;stroke-linejoin:miter;stroke-miterlimit:4;fill:#000;fill-rule:nonzero;opacity:1" vector-effect="non-scaling-stroke" transform="rotate(180 17.325 17.5)" d="M10.034 8.513a5.314 5.314 0 0 0-.461-1.47h10.034c-.216.444-.37.934-.462 1.47zm8.82 1.299.804 1.299c-1.687.581-3.379.86-5.077.838-1.687.023-3.38-.257-5.077-.838l.82-1.3a12.86 12.86 0 0 0 4.257.685 13.008 13.008 0 0 0 4.273-.684zM11.146 5.76H7.47c.798 1.39 1.225 2.758 1.282 4.103-1.368 1.402-2.336 2.724-2.906 3.966-.57 1.242-.598 2.57-.086 3.983.388 1.128 1.086 2.248 2.094 3.359 1.009 1.111 2.858 2.578 5.548 4.402a6.76 6.76 0 0 0-.82.632c-.343.296-.514.77-.514 1.419 0 .684.248 1.25.744 1.7.496.451 1.085.676 1.77.676.683 0 1.273-.225 1.768-.675.496-.45.744-1.017.744-1.701 0-.65-.171-1.123-.513-1.419a8.018 8.018 0 0 0-.803-.632c2.678-1.824 4.521-3.291 5.53-4.402 1.008-1.111 1.706-2.231 2.094-3.36.501-1.412.47-2.74-.094-3.982s-1.525-2.564-2.88-3.966c.045-1.333.467-2.7 1.264-4.103h-3.658c.091-.16.148-.25.171-.273.388-.627.8-.983 1.24-1.068a8.4 8.4 0 0 1 1.58-.128h4.462c.9 0 1.741-.37 2.522-1.112.78-.74 1.17-1.8 1.17-3.179h-8.82c-1.459 0-2.786.504-3.983 1.513s-1.795 2.185-1.795 3.53c0-1.345-.598-2.521-1.794-3.53C11.59.505 10.268 0 8.82 0H0c0 1.379.385 2.439 1.154 3.18.769.74 1.615 1.11 2.538 1.11h4.445a8.4 8.4 0 0 1 1.58.129c.44.085.859.441 1.257 1.068.023.034.049.077.077.128.029.052.06.1.094.145zm2.598 12.497h-1.692v-1.59h1.692v-2.94h1.693v2.94h1.692v1.59h-1.692v1.863h-1.693z"/></svg>