<svg xmlns="http://www.w3.org/2000/svg" width="40" height="40" xml:space="preserve"><path style="stroke:none;stroke-width:10;stroke-dasharray:none;stroke-linecap:butt;stroke-dashoffset:0;stroke-linejoin:miter;stroke-miterlimit:4;fill:#000;fill-rule:nonzero;opacity:1" vector-effect="non-scaling-stroke" transform="rotate(180 17.695 17.5)" d="M15.388 1.353h8.94l-.227 1.353H6.675l-.229-1.353zm0 16.861a10.41 10.41 0 0 1-1.142 2.038c.398.574.779.966 1.142 1.177.34-.188.72-.58 1.142-1.177a9.341 9.341 0 0 1-1.142-2.037zm-1.774-8.307a23.174 23.174 0 0 1-5.551-1.072C6.552 10.158 5.33 11.461 4.4 12.744c-.931 1.282-1.397 2.514-1.397 3.697 0 1.089.448 2.058 1.344 2.907.896.85 1.8 1.273 2.714 1.273.82 0 1.64-.38 2.46-1.141.82-.761 1.44-1.558 1.861-2.39.387-.667.852-1.735 1.397-3.205.544-1.47.822-2.795.834-3.978zm-6.412-3.97-.474-2.845 2.652 1.51zm8.186 16.598c-.41 0-.808-.207-1.195-.623-.386-.416-.82-.946-1.3-1.59-.292.351-.597.685-.913 1.001 1.136 1.698 2.272 2.547 3.408 2.547 1.147 0 2.283-.849 3.408-2.547-.316-.316-.621-.65-.914-1a21.832 21.832 0 0 1-1.317 1.589c-.387.416-.78.623-1.177.623zm0-14.192c-.012 1.534-.267 3.165-.764 4.892-.498 1.727-1.01 3.112-1.537 4.154-.106.176-.196.34-.273.492-.076.152-.149.293-.22.421-.303.48-.596.902-.877 1.265A8.303 8.303 0 0 1 9.52 21.49c-.843.51-1.657.764-2.442.764-1.253 0-2.52-.567-3.803-1.703-1.282-1.136-1.923-2.535-1.923-4.198 0-1.464.603-3.015 1.809-4.654 1.206-1.64 2.723-3.226 4.55-4.76a21.292 21.292 0 0 0 7.676 1.405zm0-8.342H4.848l1.124 6.674C3.935 8.42 2.43 10.129 1.458 11.804.486 13.478 0 15.035 0 16.475c-.012 1.933.75 3.604 2.284 5.015 1.534 1.411 3.162 2.116 4.883 2.116.949 0 1.915-.286 2.899-.86a10.167 10.167 0 0 0 2.617-2.196 11.64 11.64 0 0 0 1.792-2.986c.456-1.1.76-2.02.913-2.757.14.737.44 1.657.896 2.757.457 1.101 1.06 2.096 1.81 2.986a9.898 9.898 0 0 0 2.599 2.196c.983.573 1.956.86 2.916.86 1.698 0 3.317-.705 4.857-2.116s2.31-3.082 2.31-5.014c-.024-3.115-2.015-6.382-5.973-9.801L25.928 0zm1.774 9.906c0 1.182.272 2.509.817 3.978.544 1.47 1.01 2.538 1.396 3.206.422.83 1.04 1.627 1.853 2.388.814.762 1.643 1.142 2.486 1.142.902 0 1.8-.424 2.696-1.273.896-.85 1.35-1.818 1.361-2.907 0-1.183-.468-2.415-1.405-3.698-.937-1.282-2.155-2.585-3.654-3.908-1.85.586-3.7.943-5.55 1.071zm6.411-3.97-2.178-1.335 2.653-1.51zm-8.185 2.406c2.658 0 5.217-.468 7.676-1.405 1.815 1.534 3.329 3.12 4.541 4.76 1.212 1.64 1.818 3.19 1.818 4.654-.011 1.663-.659 3.063-1.94 4.198-1.283 1.136-2.545 1.704-3.786 1.704-.808 0-1.634-.255-2.477-.764a8.05 8.05 0 0 1-2.178-1.923 12.51 12.51 0 0 1-1.353-2.178c-.527-1.043-1.042-2.427-1.546-4.154-.503-1.728-.755-3.358-.755-4.892zM12.84 5.428l2.547-1.563 2.547 1.528-2.547 1.58zm1.686 22.85V30h1.721V28.28h1.95V26.54h-1.95v-2.81c-.585.21-1.159.21-1.721 0v2.81h-1.95v1.739z"/></svg>