<svg xmlns="http://www.w3.org/2000/svg" width="40" height="40" xml:space="preserve"><path style="stroke:none;stroke-width:10;stroke-dasharray:none;stroke-linecap:butt;stroke-dashoffset:0;stroke-linejoin:miter;stroke-miterlimit:4;fill:#000;fill-rule:nonzero;opacity:1" vector-effect="non-scaling-stroke" transform="matrix(1 0 0 -1 6.63 35)" d="m3.562 17.568-.933-.035-.484-1.14 1.262-.381.83 1.003zm9.649 3.354c.415-.011.32.395-.285 1.22-.606.823-1.081 1.074-1.427.751L9.407 20.94zm-6.087 1.764c.07.473.764 1.121 2.084 1.945 1.32.824 2.642 1.686 3.968 2.585L15.251 30l1.73-3.925c4.115-2.064 6.714-4.568 7.797-7.513 1.084-2.945 1.366-6.568.848-10.867-.208-1.545-.18-2.966.086-4.263.265-1.296.61-2.435 1.037-3.415L4.375 0c-.116 2.132.115 3.942.691 5.43.577 1.486 1.677 2.916 3.303 4.287.6.116 1.095.346 1.487.692.392.346.709.697.95 1.055 0 .011.378.023 1.133.034.755.012 1.585.185 2.49.519.905.334 1.738.916 2.499 1.746.76.83 1.158 2.075 1.193 3.735 0 .196-.05.395-.147.597a1.93 1.93 0 0 0-.182.666c-.76-2.732-1.735-4.461-2.922-5.187-1.187-.727-2.328-1.078-3.423-1.055-1.418.242-2.545.227-3.38-.044-.836-.27-1.47-.619-1.903-1.046-.432-.426-.712-.835-.839-1.227a15.955 15.955 0 0 1-.172-.606l-3.908 2.18 2.075 1.486-.917.882-2.195-1.539L0 17.965zM24.796 1.228c-1.222 1.556-1.732 3.406-1.53 5.55.201 2.145.363 4.32.484 6.528.12 2.207-.179 4.317-.9 6.328-.72 2.012-2.613 3.669-5.68 4.971 2.64-1.971 4.156-4.026 4.548-6.164.392-2.138.49-4.242.294-6.311a49.837 49.837 0 0 1-.224-5.922c.046-1.88 1.049-3.54 3.008-4.98z"/></svg>