<svg xmlns="http://www.w3.org/2000/svg" width="40" height="40" xml:space="preserve"><path style="stroke:none;stroke-width:10;stroke-dasharray:none;stroke-linecap:butt;stroke-dashoffset:0;stroke-linejoin:miter;stroke-miterlimit:4;fill:#000;fill-rule:nonzero;opacity:1" vector-effect="non-scaling-stroke" transform="rotate(180 15.87 17.5)" d="M11.739 0H.009v1.497c-.065 1.089.211 2.016.828 2.78.617.765 1.465 1.497 2.543 2.197 1.585 1.219 2.75 2.68 3.497 4.384a22.478 22.478 0 0 1 1.588 5.415H2.64l5.767 4.842c-1.169 1.01-1.754 2.288-1.754 3.83 0 1.387.497 2.576 1.491 3.567.994.992 2.192 1.488 3.595 1.488 1.39 0 2.582-.496 3.575-1.488.994-.991 1.49-2.18 1.49-3.567 0-1.556-.577-2.832-1.733-3.83l5.747-4.842h-5.806c.299-1.905.819-3.71 1.559-5.415.74-1.704 1.91-3.166 3.507-4.384 1.065-.7 1.906-1.432 2.523-2.197.617-.765.906-1.691.867-2.78V0z"/></svg>