<svg xmlns="http://www.w3.org/2000/svg" width="40" height="40" xml:space="preserve"><path style="stroke:none;stroke-width:10;stroke-dasharray:none;stroke-linecap:butt;stroke-dashoffset:0;stroke-linejoin:miter;stroke-miterlimit:4;fill:#000;fill-rule:nonzero;opacity:1" vector-effect="non-scaling-stroke" transform="rotate(180 18.435 17.5)" d="M8.543 6.244c.049-.899-.05-1.909-.296-3.03L10.83 4.84zM16.883 0h-11.2C7.134 2.956 7.497 5.884 6.77 8.785c-.726 2.9-2.023 5.785-3.893 8.655a1.292 1.292 0 0 0-.369-.037 2.42 2.42 0 0 0-1.78.73A2.427 2.427 0 0 0 0 19.916c0 .69.243 1.28.729 1.773.486.493 1.08.739 1.78.739.69 0 1.283-.246 1.78-.739a2.406 2.406 0 0 0 .748-1.773c0-.26-.037-.5-.11-.721a2.394 2.394 0 0 0-.314-.647l3.782-2.66 1.937 9.33c-.836.406-1.297 1.071-1.383 1.995-.062.554.122 1.136.553 1.746.43.61.99.951 1.68 1.025a2.4 2.4 0 0 0 1.844-.554c.541-.443.849-1.01.923-1.7.086-.899-.21-1.625-.886-2.18l3.82-7.925 3.8 7.925c-.689.555-.984 1.281-.886 2.18a2.47 2.47 0 0 0 .914 1.7 2.4 2.4 0 0 0 1.854.554c.676-.074 1.233-.415 1.67-1.025.436-.61.624-1.192.563-1.746-.099-.924-.56-1.589-1.384-1.995l1.937-9.33 3.783 2.66c-.16.222-.265.438-.314.647-.074.296-.11.536-.11.72 0 .69.245 1.281.737 1.774a2.435 2.435 0 0 0 1.79.739c.689 0 1.28-.246 1.771-.739a2.42 2.42 0 0 0 .738-1.773c0-.702-.246-1.297-.738-1.783a2.43 2.43 0 0 0-1.771-.73c-.172 0-.295.012-.369.037-1.882-2.87-3.186-5.755-3.912-8.655-.725-2.9-.356-5.83 1.107-8.785zm0 8.665c1.402 0 2.822-.185 4.261-.555 1.44-.37 2.805-.8 4.096-1.293.025.505.093 1.078.203 1.718-1.377.53-2.795.964-4.253 1.303a18.99 18.99 0 0 1-4.308.508c-1.44 0-2.887-.17-4.345-.508a31.256 31.256 0 0 1-4.235-1.303c.099-.64.166-1.213.203-1.718 1.28.493 2.642.924 4.087 1.293 1.445.37 2.875.555 4.29.555zm0-7.242h9.188c-.173.369-.332.843-.48 1.422H8.155a12.143 12.143 0 0 0-.461-1.422zm8.32 4.821L22.934 4.84 25.5 3.215a11.929 11.929 0 0 0-.296 3.03zm-11.015-.923 2.694-1.644 2.675 1.607-2.675 1.644z"/></svg>