<svg width="40" height="40" fill="none" xmlns="http://www.w3.org/2000/svg"><path d="M20.009 8.521c-.787 0-1.168-.393-1.146-1.18-.01-.66.37-.99 1.146-.99.797 0 1.174.33 1.128.99.057.787-.32 1.18-1.128 1.18zm0 21.436c0 1.345.598 2.522 1.795 3.53C23 34.496 24.322 35 25.77 35h8.82c0-1.379-.385-2.439-1.154-3.18-.769-.74-1.615-1.11-2.538-1.11h-4.445a8.396 8.396 0 0 1-1.58-.129c-.44-.085-.858-.441-1.257-1.068a1.892 1.892 0 0 1-.077-.128c-.029-.052-.06-.1-.094-.146h-1.368c.057.171.08.245.069.223.535 1.242 1.182 1.98 1.94 2.213.758.234 1.621.35 2.59.35h4.29c.616 0 1.123.237 1.522.71.398.473.598.79.598.949h-7.539c-.786 0-1.729-.39-2.829-1.171-1.1-.78-1.655-1.872-1.666-3.274h6.068c-.798-1.39-1.225-2.758-1.282-4.102 1.367-1.402 2.336-2.724 2.906-3.966.57-1.242.598-2.57.085-3.983-.387-1.128-1.085-2.248-2.094-3.359-1.008-1.111-2.857-2.578-5.547-4.402.206-.125.479-.336.82-.632.343-.296.514-.77.514-1.419 0-.684-.248-1.25-.744-1.7A2.543 2.543 0 0 0 20.008 5c-.683 0-1.273.225-1.768.675-.496.45-.744 1.017-.744 1.701 0 .65.171 1.122.513 1.419.342.296.61.507.803.632-2.678 1.824-4.521 3.29-5.53 4.402-1.008 1.111-1.706 2.23-2.094 3.359-.501 1.413-.47 2.74.094 3.983.565 1.242 1.525 2.564 2.88 3.966-.045 1.333-.467 2.7-1.264 4.102h6.051c0 1.402-.55 2.493-1.65 3.274-1.1.78-2.042 1.17-2.829 1.17H6.915c0-.159.202-.475.606-.948.405-.473.915-.71 1.53-.71h4.274c.991 0 1.863-.116 2.615-.35.752-.233 1.396-.971 1.932-2.213l.051-.223h-1.367c-.091.16-.148.251-.171.274-.388.627-.8.983-1.24 1.068a8.396 8.396 0 0 1-1.58.128H9.102c-.9 0-1.74.37-2.522 1.111-.78.741-1.17 1.801-1.17 3.18h8.82c1.459 0 2.786-.504 3.983-1.513 1.197-1.008 1.795-2.185 1.795-3.53zm0-6.786c-1.926-.011-3.618.24-5.077.752-2.245-2.154-3.088-4.21-2.53-6.17.695-2.269 3.23-4.821 7.607-7.659 4.376 2.838 6.906 5.39 7.59 7.658.58 1.972-.263 4.029-2.53 6.171-1.448-.513-3.134-.763-5.06-.752z" fill="#000"/><path d="M20.009 8.521c-.787 0-1.168-.393-1.146-1.18-.01-.66.37-.99 1.146-.99.797 0 1.174.33 1.128.99.057.787-.32 1.18-1.128 1.18zm0 21.436c0 1.345.598 2.522 1.795 3.53C23 34.496 24.322 35 25.77 35h8.82c0-1.379-.385-2.439-1.154-3.18-.769-.74-1.615-1.11-2.538-1.11h-4.445a8.396 8.396 0 0 1-1.58-.129c-.44-.085-.858-.441-1.257-1.068a1.892 1.892 0 0 1-.077-.128c-.029-.052-.06-.1-.094-.146h-1.368c.057.171.08.245.069.223.535 1.242 1.182 1.98 1.94 2.213.758.234 1.621.35 2.59.35h4.29c.616 0 1.123.237 1.522.71.398.473.598.79.598.949h-7.539c-.786 0-1.729-.39-2.829-1.171-1.1-.78-1.655-1.872-1.666-3.274h6.068c-.798-1.39-1.225-2.758-1.282-4.102 1.367-1.402 2.336-2.724 2.906-3.966.57-1.242.598-2.57.085-3.983-.387-1.128-1.085-2.248-2.094-3.359-1.008-1.111-2.857-2.578-5.547-4.402.206-.125.479-.336.82-.632.343-.296.514-.77.514-1.419 0-.684-.248-1.25-.744-1.7A2.543 2.543 0 0 0 20.008 5c-.683 0-1.273.225-1.768.675-.496.45-.744 1.017-.744 1.701 0 .65.171 1.122.513 1.419.342.296.61.507.803.632-2.678 1.824-4.521 3.29-5.53 4.402-1.008 1.111-1.706 2.23-2.094 3.359-.501 1.413-.47 2.74.094 3.983.565 1.242 1.525 2.564 2.88 3.966-.045 1.333-.467 2.7-1.264 4.102h6.051c0 1.402-.55 2.493-1.65 3.274-1.1.78-2.042 1.17-2.829 1.17H6.915c0-.159.202-.475.606-.948.405-.473.915-.71 1.53-.71h4.274c.991 0 1.863-.116 2.615-.35.752-.233 1.396-.971 1.932-2.213l.051-.223h-1.367c-.091.16-.148.251-.171.274-.388.627-.8.983-1.24 1.068a8.396 8.396 0 0 1-1.58.128H9.102c-.9 0-1.74.37-2.522 1.111-.78.741-1.17 1.801-1.17 3.18h8.82c1.459 0 2.786-.504 3.983-1.513 1.197-1.008 1.795-2.185 1.795-3.53zm0-6.786c-1.926-.011-3.618.24-5.077.752-2.245-2.154-3.088-4.21-2.53-6.17.695-2.269 3.23-4.821 7.607-7.659 4.376 2.838 6.906 5.39 7.59 7.658.58 1.972-.263 4.029-2.53 6.171-1.448-.513-3.134-.763-5.06-.752z" fill="#000" fill-opacity=".2"/><path d="M18.863 7.342c-.022.786.36 1.18 1.146 1.18.809 0 1.185-.394 1.128-1.18.046-.661-.33-.992-1.128-.992-.775 0-1.157.33-1.146.992zM14.932 23.923c1.459-.513 3.15-.763 5.077-.752 1.926-.011 3.612.24 5.06.752 2.267-2.142 3.11-4.2 2.53-6.17-.684-2.269-3.214-4.821-7.59-7.659-4.376 2.838-6.912 5.39-7.607 7.658-.558 1.96.285 4.017 2.53 6.171z" fill="#fff"/><path d="M20.846 14.88v1.864h1.693v1.59h-1.693v2.94h-1.692v-2.94h-1.692v-1.59h1.692V14.88h1.692z" fill="#000"/><path d="M20.846 14.88v1.864h1.693v1.59h-1.693v2.94h-1.692v-2.94h-1.692v-1.59h1.692V14.88h1.692z" fill="#000" fill-opacity=".2"/><path d="M14.966 27.923H25.034c-.33-1.048-.495-1.96-.495-2.735-1.39-.467-2.9-.695-4.53-.684-1.618-.011-3.128.217-4.53.684 0 .798-.171 1.71-.513 2.735zM22.146 29.462c.011.022-.012-.052-.069-.223h-1.025c.011 1.402.567 2.493 1.666 3.274 1.1.78 2.043 1.17 2.83 1.17h7.538c0-.159-.2-.475-.598-.948a1.904 1.904 0 0 0-1.522-.71h-4.29c-.969 0-1.832-.116-2.59-.35-.758-.233-1.405-.971-1.94-2.213zM17.3 32.513c1.1-.78 1.649-1.872 1.649-3.274h-1.026l-.051.223c-.536 1.242-1.18 1.98-1.932 2.213-.752.234-1.624.35-2.615.35H9.05c-.615 0-1.125.237-1.53.71-.404.473-.606.79-.606.949h7.555c.787 0 1.73-.39 2.83-1.171z" fill="#fff"/></svg>