<svg width="40" height="40" fill="none" xmlns="http://www.w3.org/2000/svg"><path d="M20.863 6.721V5H19.14v1.721h-1.95v1.74h1.95v2.81c.586-.211 1.16-.211 1.722 0V8.46h1.95V6.72h-1.95zm-.861 5.744c.41 0 .808.208 1.194.623.387.416.82.946 1.3 1.59.293-.351.598-.685.914-1.001-1.136-1.698-2.272-2.547-3.408-2.547-1.148 0-2.284.85-3.408 2.547.316.316.621.65.914 1.001.491-.644.93-1.174 1.317-1.59.386-.415.779-.623 1.177-.623zm.667 12.84c.024-1.792.249-3.467.677-5.024.427-1.557.922-2.74 1.484-3.548.538-1.066 1.335-1.997 2.389-2.793 1.054-.796 2.084-1.194 3.091-1.194 1.253 0 2.521.568 3.804 1.703 1.282 1.136 1.923 2.535 1.923 4.198 0 1.324-.53 2.764-1.59 4.321a19.385 19.385 0 0 1-3.697 4.075 22.359 22.359 0 0 0-8.08-1.739zM20.002 35h10.54l-1.124-6.674c2.037-1.745 3.542-3.455 4.514-5.13.972-1.674 1.458-3.231 1.458-4.671.012-1.932-.75-3.604-2.284-5.015-1.534-1.41-3.162-2.116-4.883-2.116-.949 0-1.915.286-2.898.86a10.167 10.167 0 0 0-2.618 2.196 11.628 11.628 0 0 0-1.791 2.986c-.457 1.1-.762 2.02-.914 2.758-.14-.738-.439-1.657-.896-2.758a11.36 11.36 0 0 0-1.809-2.986 9.908 9.908 0 0 0-2.6-2.196c-.983-.574-1.955-.86-2.916-.86-1.698 0-3.317.705-4.857 2.116s-2.31 3.083-2.31 5.015c.024 3.115 2.014 6.381 5.973 9.8L9.463 35h10.539zm0-1.352H11.061l.913-5.463c2.635-1.019 5.311-1.528 8.028-1.528 2.728 0 5.41.51 8.045 1.528l.457 2.731.456 2.732h-8.958zm-.668-8.344a22.424 22.424 0 0 0-8.062 1.74 19.581 19.581 0 0 1-3.707-4.076c-1.065-1.557-1.598-2.997-1.598-4.32.011-1.664.659-3.063 1.94-4.199 1.283-1.135 2.545-1.703 3.786-1.703 1.02 0 2.056.398 3.11 1.194 1.054.796 1.844 1.727 2.371 2.793.562.808 1.063 1.99 1.502 3.548.44 1.557.659 3.232.659 5.023z" fill="#000"/><path d="M21.196 13.088c-.386-.415-.784-.623-1.194-.623-.398 0-.79.207-1.177.623-.386.416-.826.946-1.317 1.59.76 1.05 1.119 1.653 1.598 2.758.457 1.1.756 2.02.896 2.758.152-.738.457-1.657.914-2.758.513-1.136.836-1.754 1.58-2.758a19.437 19.437 0 0 0-1.3-1.59zM11.272 27.043a22.424 22.424 0 0 1 8.062-1.739c0-1.791-.219-3.466-.658-5.023-.44-1.558-.94-2.74-1.502-3.548-.527-1.066-1.317-1.997-2.371-2.793s-2.09-1.194-3.11-1.194c-1.24 0-2.503.568-3.785 1.703-1.282 1.136-1.93 2.535-1.941 4.198 0 1.324.533 2.764 1.598 4.321a19.581 19.581 0 0 0 3.707 4.075zM21.346 20.28c-.428 1.558-.653 3.233-.677 5.024 2.823.082 5.516.662 8.08 1.74a19.385 19.385 0 0 0 3.698-4.076c1.06-1.557 1.59-2.997 1.59-4.32 0-1.664-.641-3.063-1.923-4.199-1.283-1.135-2.55-1.703-3.804-1.703-1.006 0-2.037.398-3.091 1.194-1.054.796-1.85 1.727-2.39 2.793-.561.808-1.056 1.99-1.483 3.548z" fill="#fff"/><path d="M20.863 6.721V5H19.14v1.721h-1.95v1.74h1.95v2.81c.586-.211 1.16-.211 1.722 0V8.46h1.95V6.72h-1.95zm-.861 5.744c.41 0 .808.208 1.194.623.387.416.82.946 1.3 1.59.293-.351.598-.685.914-1.001-1.136-1.698-2.272-2.547-3.408-2.547-1.148 0-2.284.85-3.408 2.547.316.316.621.65.914 1.001.491-.644.93-1.174 1.317-1.59.386-.415.779-.623 1.177-.623zm.667 12.84c.024-1.792.249-3.467.677-5.024.427-1.557.922-2.74 1.484-3.548.538-1.066 1.335-1.997 2.389-2.793 1.054-.796 2.084-1.194 3.091-1.194 1.253 0 2.521.568 3.804 1.703 1.282 1.136 1.923 2.535 1.923 4.198 0 1.324-.53 2.764-1.59 4.321a19.385 19.385 0 0 1-3.697 4.075 22.359 22.359 0 0 0-8.08-1.739zM20.002 35h10.54l-1.124-6.674c2.037-1.745 3.542-3.455 4.514-5.13.972-1.674 1.458-3.231 1.458-4.671.012-1.932-.75-3.604-2.284-5.015-1.534-1.41-3.162-2.116-4.883-2.116-.949 0-1.915.286-2.898.86a10.167 10.167 0 0 0-2.618 2.196 11.628 11.628 0 0 0-1.791 2.986c-.457 1.1-.762 2.02-.914 2.758-.14-.738-.439-1.657-.896-2.758a11.36 11.36 0 0 0-1.809-2.986 9.908 9.908 0 0 0-2.6-2.196c-.983-.574-1.955-.86-2.916-.86-1.698 0-3.317.705-4.857 2.116s-2.31 3.083-2.31 5.015c.024 3.115 2.014 6.381 5.973 9.8L9.463 35h10.539zm0-1.352H11.061l.913-5.463c2.635-1.019 5.311-1.528 8.028-1.528 2.728 0 5.41.51 8.045 1.528l.457 2.731.456 2.732h-8.958zm-.668-8.344a22.424 22.424 0 0 0-8.062 1.74 19.581 19.581 0 0 1-3.707-4.076c-1.065-1.557-1.598-2.997-1.598-4.32.011-1.664.659-3.063 1.94-4.199 1.283-1.135 2.545-1.703 3.786-1.703 1.02 0 2.056.398 3.11 1.194 1.054.796 1.844 1.727 2.371 2.793.562.808 1.063 1.99 1.502 3.548.44 1.557.659 3.232.659 5.023z" fill="#000"/><path d="M11.272 27.043a22.424 22.424 0 0 1 8.062-1.739c0-1.791-.219-3.466-.658-5.023-.44-1.558-.94-2.74-1.502-3.548-.527-1.066-1.317-1.997-2.371-2.793s-2.09-1.194-3.11-1.194c-1.24 0-2.503.568-3.785 1.703-1.282 1.136-1.93 2.535-1.941 4.198 0 1.324.533 2.764 1.598 4.321a19.581 19.581 0 0 0 3.707 4.075zM21.346 20.28c-.428 1.558-.653 3.233-.677 5.024 2.823.082 5.516.662 8.08 1.74a19.385 19.385 0 0 0 3.698-4.076c1.06-1.557 1.59-2.997 1.59-4.32 0-1.664-.641-3.063-1.923-4.199-1.283-1.135-2.55-1.703-3.804-1.703-1.006 0-2.037.398-3.091 1.194-1.054.796-1.85 1.727-2.39 2.793-.561.808-1.056 1.99-1.483 3.548zM11.974 28.185l-.913 5.463h17.9l-.457-2.732-.457-2.73c-2.635-1.02-5.317-1.529-8.045-1.529-2.717 0-5.393.51-8.028 1.528z" fill="#fff"/><path d="m19.967 28.027 2.582 1.546-2.512 1.563-2.582-1.528 2.512-1.58zM13.994 30.398l-2.178-1.335-.474 2.846 2.652-1.51zM28.662 31.909l-.474-2.846-2.178 1.335 2.652 1.51z" fill="#000"/></svg>