<svg width="40" height="40" fill="none" xmlns="http://www.w3.org/2000/svg"><path fill-rule="evenodd" clip-rule="evenodd" d="M20.565 20.968c-.291.029-.59.175-.933.47l-.01.008c-.74-.452-1.57-.64-2.49-.564-1.337.11-2.328.274-2.974.493-.841.346-1.492.79-1.954 1.331l-.691.813-.847-.502 1.4-1.193-2.49-2.593-1.14.743-.07-2.248 6.588-4.34c.265-.61 1.055-1.33 2.369-2.16 1.314-.83 2.559-1.615 3.735-2.353l.881-1.262 1.055 2.404c2.156.957 3.732 2.086 4.73 3.389a18.668 18.668 0 0 1 2.429 4.201c.484 1.753.726 3.274.726 4.565 0 1.291-.058 2.522-.173 3.692a48.204 48.204 0 0 0-.216 3.588c-.029 1.222.164 2.628.58 4.219H12.688c-.058-1.522.236-2.865.882-4.029.645-1.164 1.521-2.225 2.628-3.182 1.406-.391 2.32-1.005 2.74-1.841.421-.836.966-1.634 1.634-2.395.243-.173.465-.25.666-.234.202.018.406.009.614-.026.934-.138 1.703-.65 2.308-1.538a5.37 5.37 0 0 0 .943-2.974l-.346-1.194c-.595 2.522-1.534 4.015-2.818 4.48a2.62 2.62 0 0 1-.571.137 18.26 18.26 0 0 1-.75.09l-.054.005zm.006 1.25.002.004a5.089 5.089 0 0 0-.43-.404c.163.128.305.261.428.4zm-6.016-9.33-.128-.155-.303-.419c.07-.473.764-1.12 2.083-1.945a125.35 125.35 0 0 0 3.969-2.585L22.25 5l1.729 3.925c4.115 2.063 6.715 4.568 7.798 7.513 1.084 2.945 1.366 6.568.847 10.867-.207 1.534-.178 2.951.087 4.254.265 1.303.61 2.45 1.037 3.441H11.375c-.116-2.144.115-3.96.691-5.447.577-1.487 1.677-2.91 3.303-4.27.934-.197 1.625-.62 2.075-1.271.45-.652.784-1.162 1.003-1.53-1.418-.254-2.545-.243-3.38.034-.836.277-1.47.628-1.903 1.055-.432.426-.711.835-.838 1.227-.116.392-.173.594-.173.606l-3.908-2.18 2.075-1.486-.917-.9-2.196 1.54L7 17.035l7.124-4.72a6.258 6.258 0 0 0 .431.574zm1.851 1.017 3.804.017c.415.012.323-.369-.276-1.141-.6-.773-1.078-1.003-1.435-.692l-2.093 1.816zm-5.17 4.08-.674-.553-.605.087-.57 1.003 1.02.45.83-.987z" fill="#000"/><path fill-rule="evenodd" clip-rule="evenodd" d="M20.143 21.818c.163.128.305.261.428.4l.002.004c.243-.173.465-.25.666-.234.202.018.406.009.614-.026.934-.138 1.703-.65 2.308-1.538a5.37 5.37 0 0 0 .943-2.974l-.346-1.194c-.595 2.522-1.534 4.015-2.818 4.48a2.618 2.618 0 0 1-.571.137c-.227.033-.477.062-.75.09l-.054.005c-.291.029-.59.175-.933.47l-.01.008c-.74-.451-1.57-.64-2.49-.564-1.337.11-2.328.274-2.974.493-.841.346-1.492.79-1.954 1.331l-.691.813-.847-.502 1.4-1.193-2.49-2.593-1.14.743-.07-2.248 6.588-4.34c.265-.61 1.055-1.33 2.369-2.16 1.314-.83 2.559-1.615 3.735-2.352l.881-1.263 1.055 2.404c2.156.957 3.732 2.086 4.73 3.389a18.668 18.668 0 0 1 2.429 4.201c.484 1.753.726 3.274.726 4.565 0 1.291-.058 2.522-.173 3.692a48.204 48.204 0 0 0-.216 3.588c-.029 1.222.164 2.628.58 4.219H12.688c-.058-1.522.236-2.865.882-4.029.645-1.164 1.521-2.225 2.628-3.182 1.406-.391 2.32-1.005 2.74-1.841.421-.836.966-1.634 1.634-2.395a5.089 5.089 0 0 0-.43-.404zm-3.737-7.913 3.804.017c.415.012.323-.369-.276-1.141-.6-.773-1.078-1.003-1.435-.692l-2.093 1.816zm-5.17 4.08-.674-.553-.605.087-.57 1.003 1.02.45.83-.987z" fill="#000"/><path fill-rule="evenodd" clip-rule="evenodd" d="M20.143 21.818c.163.128.305.261.428.4l.002.004c.243-.173.465-.25.666-.234.202.018.406.009.614-.026.934-.138 1.703-.65 2.308-1.538a5.37 5.37 0 0 0 .943-2.974l-.346-1.194c-.595 2.522-1.534 4.015-2.818 4.48a2.618 2.618 0 0 1-.571.137c-.227.033-.477.062-.75.09l-.054.005c-.291.029-.59.175-.933.47l-.01.008c-.74-.451-1.57-.64-2.49-.564-1.337.11-2.328.274-2.974.493-.841.346-1.492.79-1.954 1.331l-.691.813-.847-.502 1.4-1.193-2.49-2.593-1.14.743-.07-2.248 6.588-4.34c.265-.61 1.055-1.33 2.369-2.16 1.314-.83 2.559-1.615 3.735-2.352l.881-1.263 1.055 2.404c2.156.957 3.732 2.086 4.73 3.389a18.668 18.668 0 0 1 2.429 4.201c.484 1.753.726 3.274.726 4.565 0 1.291-.058 2.522-.173 3.692a48.204 48.204 0 0 0-.216 3.588c-.029 1.222.164 2.628.58 4.219H12.688c-.058-1.522.236-2.865.882-4.029.645-1.164 1.521-2.225 2.628-3.182 1.406-.391 2.32-1.005 2.74-1.841.421-.836.966-1.634 1.634-2.395a5.089 5.089 0 0 0-.43-.404zm-3.737-7.913 3.804.017c.415.012.323-.369-.276-1.141-.6-.773-1.078-1.003-1.435-.692l-2.093 1.816zm-5.17 4.08-.674-.553-.605.087-.57 1.003 1.02.45.83-.987z" fill="#fff"/></svg>