<svg width="40" height="40" fill="none" xmlns="http://www.w3.org/2000/svg"><path d="M30.25 33.453H9.772c-.078-1.31.818-2.54 2.689-3.694 1.792-1.361 3.124-2.978 3.994-4.851.87-1.873 1.403-3.95 1.598-6.232h3.896c.208 2.282.75 4.359 1.627 6.232.877 1.873 2.206 3.49 3.985 4.85 1.884 1.154 2.78 2.386 2.689 3.695zM20 34.95h11.73v-1.497c.065-1.089-.211-2.016-.828-2.78-.617-.765-1.465-1.497-2.543-2.197-1.585-1.219-2.75-2.68-3.498-4.385a22.472 22.472 0 0 1-1.587-5.415H29.1l-5.767-4.84c1.169-1.012 1.753-2.289 1.753-3.83 0-1.388-.496-2.577-1.49-3.569C22.602 5.446 21.404 4.95 20 4.95c-1.39 0-2.582.496-3.575 1.487-.994.992-1.491 2.181-1.491 3.568 0 1.555.578 2.832 1.734 3.83l-5.748 4.841h5.807a22.14 22.14 0 0 1-1.56 5.415c-.74 1.705-1.909 3.166-3.506 4.385-1.066.7-1.907 1.432-2.524 2.197-.617.764-.906 1.691-.867 2.78v1.497h11.73zm5.436-17.596H14.565l2.29-1.934 2.289-1.935a3.622 3.622 0 0 1-1.949-1.225c-.52-.622-.779-1.373-.779-2.255 0-1.01.354-1.86 1.062-2.547.708-.687 1.549-1.03 2.523-1.03 1 0 1.848.343 2.543 1.03.695.687 1.042 1.536 1.042 2.547 0 1.88-.902 3.04-2.708 3.48l4.56 3.87z" fill="#000"/><path d="M14.565 17.354h10.872l-4.56-3.869c1.806-.44 2.71-1.6 2.71-3.48 0-1.01-.348-1.86-1.043-2.547S21 6.428 20 6.428c-.974 0-1.815.343-2.523 1.03-.708.687-1.062 1.536-1.062 2.547 0 .881.26 1.633.78 2.255a3.622 3.622 0 0 0 1.948 1.225l-2.29 1.935-2.289 1.934zM9.772 33.453H30.25c.09-1.31-.805-2.54-2.689-3.694-1.78-1.361-3.108-2.978-3.985-4.851-.876-1.873-1.419-3.95-1.627-6.232h-3.896c-.195 2.282-.728 4.359-1.598 6.232-.87 1.873-2.202 3.49-3.994 4.85-1.87 1.154-2.767 2.386-2.69 3.695z" fill="#fff"/></svg>