<svg width="40" height="40" fill="none" xmlns="http://www.w3.org/2000/svg"><path d="M10.8 33.577c.676-1.65.953-3.448.83-5.394a38.02 38.02 0 0 1 4.096-1.293c1.439-.37 2.86-.555 4.262-.555 1.415 0 2.844.185 4.29.555 1.445.37 2.807.8 4.087 1.293-.123 1.897.147 3.695.811 5.394H10.8zm9.188-8.664c-1.415 0-2.841.17-4.28.508-1.44.339-2.854.773-4.244 1.302-.406-2.537-1.47-5.265-3.192-8.184l4.225 2.993L14.86 9.967l5.129 10.678 5.148-10.678 2.343 11.565 4.244-2.993c-1.71 2.92-2.774 5.647-3.192 8.184a32.526 32.526 0 0 0-4.226-1.302 18.79 18.79 0 0 0-4.317-.508zM31.188 35c-1.452-2.956-1.815-5.884-1.09-8.785.726-2.9 2.024-5.785 3.894-8.655.074.025.197.037.369.037a2.42 2.42 0 0 0 1.78-.73c.486-.486.729-1.08.729-1.783 0-.69-.243-1.28-.729-1.773a2.405 2.405 0 0 0-1.78-.739c-.69 0-1.283.246-1.78.739a2.406 2.406 0 0 0-.748 1.774 2.395 2.395 0 0 0 .424 1.367l-3.782 2.66-1.937-9.33c.836-.406 1.297-1.071 1.384-1.995.061-.554-.123-1.136-.554-1.746-.43-.61-.99-.951-1.679-1.025a2.4 2.4 0 0 0-1.845.554 2.459 2.459 0 0 0-.922 1.7c-.087.899.209 1.625.885 2.18l-3.819 7.925-3.8-7.925c.688-.555.983-1.281.885-2.18a2.471 2.471 0 0 0-.913-1.7 2.4 2.4 0 0 0-1.855-.554c-.676.074-1.233.415-1.67 1.025-.436.61-.624 1.192-.562 1.746.098.924.56 1.589 1.383 1.995l-1.937 9.33-3.782-2.66c.16-.222.264-.438.314-.647a3.12 3.12 0 0 0 .11-.72c0-.69-.246-1.281-.738-1.774a2.436 2.436 0 0 0-1.79-.739c-.688 0-1.279.246-1.77.739a2.42 2.42 0 0 0-.739 1.774c0 .701.246 1.296.738 1.782a2.43 2.43 0 0 0 1.772.73c.172 0 .295-.012.369-.037 1.881 2.87 3.185 5.755 3.911 8.655.726 2.9.357 5.829-1.107 8.785h22.38zm3.173-21.116c.8 0 1.2.4 1.2 1.2 0 .789-.4 1.183-1.2 1.183-.8 0-1.2-.394-1.2-1.183 0-.8.4-1.2 1.2-1.2zm-8.949-7.575c.8 0 1.2.4 1.2 1.2 0 .79-.4 1.183-1.2 1.183-.787 0-1.18-.394-1.18-1.182 0-.8.393-1.201 1.18-1.201zM5.633 13.884c.8 0 1.2.4 1.2 1.2 0 .789-.4 1.183-1.2 1.183-.799 0-1.199-.394-1.199-1.183 0-.8.4-1.2 1.2-1.2zm8.93-7.575c.8 0 1.2.4 1.2 1.2 0 .79-.4 1.183-1.2 1.183-.787 0-1.18-.394-1.18-1.182 0-.8.393-1.201 1.18-1.201z" fill="#000"/><path d="M6.833 15.084c0-.8-.4-1.2-1.2-1.2-.799 0-1.199.4-1.199 1.2 0 .789.4 1.183 1.2 1.183.799 0 1.199-.394 1.199-1.183zM15.763 7.51c0-.8-.4-1.201-1.2-1.201-.787 0-1.18.4-1.18 1.2 0 .79.393 1.183 1.18 1.183.8 0 1.2-.394 1.2-1.182zM26.612 7.51c0-.8-.4-1.201-1.2-1.201-.787 0-1.18.4-1.18 1.2 0 .79.393 1.183 1.18 1.183.8 0 1.2-.394 1.2-1.182zM35.56 15.084c0-.8-.4-1.2-1.2-1.2-.799 0-1.199.4-1.199 1.2 0 .789.4 1.183 1.2 1.183.8 0 1.2-.394 1.2-1.183zM15.707 25.42a18.635 18.635 0 0 1 4.28-.507c1.44 0 2.88.17 4.318.508 1.44.339 2.848.773 4.226 1.302.418-2.537 1.482-5.265 3.192-8.184l-4.244 2.993-2.343-11.565-5.148 10.678-5.13-10.678-2.36 11.565-4.226-2.993c1.722 2.92 2.786 5.647 3.192 8.184 1.39-.53 2.804-.963 4.243-1.302z" fill="#fff"/><path d="M11.63 28.183c.123 1.946-.154 3.744-.83 5.394h18.376c-.664-1.7-.934-3.497-.811-5.394a36.593 36.593 0 0 0-4.087-1.293 17.273 17.273 0 0 0-4.29-.555c-1.402 0-2.823.185-4.262.555-1.44.37-2.805.8-4.096 1.293z" fill="#fff"/><path d="m19.988 28.072 2.694 1.607-2.694 1.645-2.675-1.608 2.675-1.644zM26.04 30.16l2.287-1.404c-.049.899.05 1.909.296 3.03L26.04 30.16zM11.372 31.785c.233-1.059.332-2.069.295-3.03l2.27 1.405-2.565 1.625z" fill="#000"/></svg>