<svg width="40" height="40" fill="none" xmlns="http://www.w3.org/2000/svg"><path d="M19.998 28.159h7.693l-.116-1.489H12.44l-.116 1.489h7.674zm0-13.319H26.7l-.11-1.488H13.424l-.11 1.488h6.683zm0 20.2H32.91l-.58-5.316-3.209-2.377-.985-13.26 2.976-2.165.348-6.882h-5.818v2.977h-2.764V5.04h-5.741v2.977h-2.784V5.04H8.554l.348 6.881 2.977 2.165-1.005 13.26-3.19 2.378-.599 5.316h12.913zm0-1.488H8.786l.31-2.997 3.228-2.396.55-7.404.551-7.403-3.073-2.204-.251-4.62h2.783v2.977h5.722V6.528h2.784v2.977h5.74V6.528h2.765l-.252 4.62-3.054 2.204.551 7.403.551 7.404 3.228 2.396.31 2.997H19.998z" fill="#000"/><path d="M19.998 13.352h6.591l3.055-2.204.25-4.62h-2.763v2.977H21.39V6.528h-2.784v2.977h-5.722V6.528h-2.783l.251 4.62 3.073 2.204h6.573zM27.575 26.67H12.44l.003-.041.872-11.789H26.7l.875 11.83zM27.691 28.159H12.324l-3.228 2.396-.31 2.997h22.442l-.309-2.997-3.228-2.396z" fill="#fff"/></svg>