<svg xmlns="http://www.w3.org/2000/svg" width="40" height="40" xml:space="preserve"><path style="stroke:none;stroke-width:10;stroke-dasharray:none;stroke-linecap:butt;stroke-dashoffset:0;stroke-linejoin:miter;stroke-miterlimit:4;fill:#000;fill-rule:nonzero;opacity:1" vector-effect="non-scaling-stroke" transform="matrix(1 0 0 -1 4.48 35)" d="M31.01.717c-.368 1.562-1 2.704-1.895 3.428-.895.723-2.112 1.085-3.65 1.085-.276 0-.678-.012-1.206-.035a29.446 29.446 0 0 1-1.516-.103 5.058 5.058 0 0 0-.55-.034c-.162 0-.3-.023-.414-.07.023.138.057.448.103.93.046.483.086.994.12 1.534.035.54.058 1.045.07 1.516.011.47.005.775-.018.913.207.298.43.729.672 1.292.241.562.46 1.165.654 1.808.196.643.356 1.286.483 1.93a8.91 8.91 0 0 1 .19 1.688c0 .436-.098 1.085-.294 1.946-.195.861-.482 1.78-.86 2.756-.38.976-.839 1.93-1.379 2.86-.54.93-1.165 1.705-1.877 2.325.23.184.414.413.551.69.138.275.207.562.207.86 0 .529-.195.988-.586 1.378-.39.39-.85.586-1.377.586-.528 0-.988-.195-1.378-.586-.39-.39-.586-.85-.586-1.378 0-.298.064-.585.19-.86.126-.277.304-.483.534-.621a9.576 9.576 0 0 1-.758-.775 7.976 7.976 0 0 1-.62-.81c-.299.299-.574.58-.827.844-.252.264-.505.511-.758.741.23.138.414.345.552.62.137.276.206.563.206.861 0 .529-.195.988-.585 1.378-.39.39-.873.586-1.447.586a1.83 1.83 0 0 1-1.36-.586 1.914 1.914 0 0 1-.569-1.378c0-.321.075-.625.224-.913a1.83 1.83 0 0 1 .568-.671c-.55-.597-1.119-1.361-1.705-2.291a27.604 27.604 0 0 1-1.601-2.929 25.312 25.312 0 0 1-1.189-2.963c-.31-.953-.465-1.74-.465-2.36 0-.642.046-1.2.138-1.67a6.817 6.817 0 0 1 .844-2.24c.172-.287.339-.557.5-.81.137-.229.263-.436.378-.62.115-.183.195-.367.241-.55 0-.138.012-.454.035-.948.023-.494.051-1.016.086-1.568.034-.55.069-1.073.103-1.567.035-.494.075-.81.12-.948a1.525 1.525 0 0 1-.481.07c-.161 0-.345.01-.551.034-.483.046-.982.08-1.499.103a28.87 28.87 0 0 1-1.188.035c-1.539 0-2.756-.362-3.651-1.086C1.043 3.421.4 2.278.009.717-.035.395.08.177.355.062a.56.56 0 0 1 .43-.034c.15.046.26.126.328.24.092.116.316.202.672.26.356.057.77.097 1.24.12a30.852 30.852 0 0 0 2.945 0h1.205c1.195 0 2.188.051 2.98.155.792.103 1.458.241 1.998.413s.97.35 1.291.534c.322.184.609.368.861.551.253.138.454.242.603.31.15.07.35.127.603.173.253-.046.465-.104.637-.173.172-.068.362-.172.569-.31.23-.183.51-.367.843-.55a7.598 7.598 0 0 1 1.292-.535c.528-.172 1.194-.31 1.998-.413.804-.104 1.814-.155 3.031-.155h1.24c.413.023.873.034 1.378.034.528 0 1.033-.011 1.515-.034.483-.023.902-.063 1.258-.12.356-.058.58-.144.671-.26.253-.252.494-.32.724-.206a.55.55 0 0 1 .31.241c.069.115.08.253.034.414zM15.475 10.26c.46 0 .867-.08 1.223-.241.356-.161.534-.356.534-.586 0-.253-.178-.465-.534-.637a2.773 2.773 0 0 0-1.223-.259c-.505 0-.924.086-1.257.259-.333.172-.5.384-.5.637 0 .23.167.425.5.586.333.16.752.24 1.257.24zm0 1.481c-1.263-.046-2.325-.132-3.186-.258a6.617 6.617 0 0 1-2.325-.775l-.551 1.033c.964.528 1.952.85 2.962.965a33.99 33.99 0 0 0 3.1.207c1.034 0 2.061-.064 3.083-.19a8.28 8.28 0 0 0 2.98-.982l-.551-1.033a7.16 7.16 0 0 1-2.343.81c-.872.148-1.929.223-3.169.223zm0-5.58c-1.263 0-2.342-.081-3.237-.242-.896-.16-1.47-.322-1.723-.482l-.24 1.068c.344.206.774.367 1.29.482.517.115 1.034.2 1.55.258.517.058.994.092 1.43.104.437.011.747.017.93.017.184 0 .488-.006.913-.017.425-.012.896-.046 1.412-.104a15.34 15.34 0 0 0 1.568-.258c.528-.115.964-.276 1.308-.482l-.24-1.068c-.3.16-.885.321-1.757.482-.873.16-1.94.241-3.204.241zm-5.304 1.894-.07 1.723c.345.068.661.074.948.017.287-.058.465-.167.534-.328.069-.252-.029-.516-.293-.792-.264-.276-.626-.482-1.085-.62zm10.781 1.722V8.055h-.069c-.482.138-.85.344-1.102.62-.253.276-.345.54-.276.792.161.345.643.448 1.447.31zm1.516 3.928H21.09c-.16.78-.402 1.63-.724 2.55a34.495 34.495 0 0 1-1.119 2.79c-.425.941-.907 1.86-1.447 2.756a24.558 24.558 0 0 1-1.67 2.446l.93.861c1.515-1.86 2.72-3.795 3.617-5.805.895-2.01 1.492-3.876 1.79-5.598z"/></svg>