<svg xmlns="http://www.w3.org/2000/svg" width="40" height="40" xml:space="preserve"><path style="stroke:none;stroke-width:10;stroke-dasharray:none;stroke-linecap:butt;stroke-dashoffset:0;stroke-linejoin:miter;stroke-miterlimit:4;fill:#000;fill-rule:nonzero;opacity:1" vector-effect="non-scaling-stroke" transform="rotate(180 17.875 17.5)" d="M31.507 19.27c0 1.053-.215 1.944-.646 2.674a5.733 5.733 0 0 1-1.597 1.776 6.47 6.47 0 0 1-2.045.987c-.73.203-1.394.305-1.992.305-.909 0-1.794-.203-2.655-.61a9.37 9.37 0 0 1-2.405-1.65V30H11.34v-7.249a9.37 9.37 0 0 1-2.405 1.65 6.154 6.154 0 0 1-2.655.61c-.598 0-1.262-.1-1.992-.304a6.47 6.47 0 0 1-2.045-.987 5.734 5.734 0 0 1-1.597-1.776C.216 21.214 0 20.323 0 19.27c0-.86.143-1.728.43-2.601.288-.874.67-1.699 1.149-2.476a14.515 14.515 0 0 1 1.633-2.172c.61-.67 1.238-1.232 1.884-1.686a108.237 108.237 0 0 0 .359-2.566 69.65 69.65 0 0 0 .25-2.243l.36-2.655c.023-.55.394-1.011 1.112-1.382C7.895 1.12 8.75.825 9.743.61c.993-.215 2.04-.37 3.14-.467C13.983.048 14.94 0 15.753 0c.838 0 1.807.048 2.907.143 1.1.096 2.147.252 3.14.467.993.215 1.836.508 2.53.88.694.37 1.065.83 1.113 1.38h.035l.323 2.656c0 .024.03.263.09.718.06.454.126.963.198 1.525.071.562.143 1.095.215 1.597.072.502.131.825.18.969a12.496 12.496 0 0 1 1.847 1.686c.61.67 1.149 1.394 1.615 2.172.467.777.843 1.602 1.13 2.476.288.873.431 1.74.431 2.601zM18.66 21.065a19.387 19.387 0 0 1-1.686-2.53 18.615 18.615 0 0 1-1.22-2.602 21.341 21.341 0 0 1-1.185 2.602c-.478.897-1.04 1.74-1.686 2.53zm.43 7.14-2.296-2.332 2.297-2.296-1.077-1.041-2.26 2.26-2.261-2.26-1.005 1.04 2.225 2.297-2.225 2.333 1.005 1.005 2.26-2.261 2.261 2.26zm-3.336-20.74c-.67 0-1.233.113-1.687.34-.455.227-.682.508-.682.843 0 .311.227.58.682.808.454.227 1.017.34 1.687.34.645 0 1.202-.113 1.668-.34.467-.228.7-.497.7-.808 0-.335-.233-.616-.7-.843-.466-.227-1.022-.34-1.668-.34zm6.961.107c.096.287.347.484.754.592.407.108.897.102 1.471-.018L24.69 5.85c-.622.192-1.13.449-1.525.772s-.544.64-.449.95zm-13.887 0c.072-.311-.078-.628-.449-.951-.37-.323-.867-.58-1.489-.772l-.251 2.297c.55.12 1.034.126 1.453.018.419-.108.664-.305.736-.592zm6.926-3.338c-1.053 0-2.052-.047-2.997-.143a29.692 29.692 0 0 1-2.548-.359 14.896 14.896 0 0 1-1.884-.466c-.502-.168-.825-.323-.969-.467l-.215 1.615c.287.215.712.419 1.274.61s1.22.353 1.974.484c.753.132 1.585.24 2.494.323.909.084 1.866.126 2.87.126 2.034 0 3.828-.15 5.383-.449 1.555-.299 2.644-.664 3.266-1.094l-.251-1.615c-.144.144-.46.299-.951.467-.49.167-1.113.323-1.866.466-.754.143-1.61.263-2.566.359-.957.096-1.962.143-3.014.143zm12.093 16.364c.24-.263.448-.61.628-1.04.18-.431.245-.993.197-1.687-.072-1.172-.508-2.333-1.31-3.481-.8-1.148-1.836-2.105-3.104-2.87.192-.025.353-.067.485-.126a5.55 5.55 0 0 0 .448-.234l-.323-1.722c-.382.191-.807.377-1.273.556-.467.18-.963.353-1.49.52h-.036v.036c-1.028.335-2.087.61-3.175.826a16.182 16.182 0 0 1-3.14.323c-.981 0-2.016-.108-3.104-.323a25.66 25.66 0 0 1-3.14-.826l-.072-.036h-.036c-.981-.31-1.902-.67-2.763-1.076l-.323 1.722c.167.096.323.174.466.233.144.06.3.102.467.126-1.268.766-2.291 1.723-3.069 2.87-.777 1.15-1.226 2.31-1.345 3.482-.048.694.024 1.256.215 1.686.191.431.407.778.646 1.041.24.263.508.473.807.628a4.297 4.297 0 0 0 1.58.485c.227.023.388.035.484.035a5.03 5.03 0 0 0 2.1-.43 6.106 6.106 0 0 0 1.704-1.148 7.93 7.93 0 0 0 1.31-1.633c.37-.61.675-1.226.914-1.848.24-.622.425-1.232.557-1.83.131-.599.209-1.125.233-1.58.407.048.807.084 1.202.108a19.297 19.297 0 0 0 3.535-.107c.024.454.102.98.233 1.579.132.598.317 1.208.556 1.83.24.622.545 1.238.916 1.848.37.61.807 1.154 1.31 1.633a6.196 6.196 0 0 0 1.686 1.148c.622.287 1.328.43 2.117.43.24 0 .658-.06 1.256-.179.598-.12 1.148-.443 1.65-.969zM9.33 12.452A8.767 8.767 0 0 0 5.885 15a7.384 7.384 0 0 0-.969 1.525c-.239.515-.37 1-.394 1.454-.024.334 0 .61.071.825.072.215.192.419.36.61.215.24.472.395.77.466.3.072.58.108.844.108.885 0 1.65-.275 2.297-.825a6.77 6.77 0 0 0 1.579-1.956c.406-.754.711-1.531.915-2.332.203-.802.305-1.454.305-1.956-.36-.072-.718-.15-1.077-.233l-1.148-.27zm12.883 0-.144-.036c-.359.096-.717.186-1.076.27-.36.083-.742.161-1.149.233 0 .502.102 1.154.305 1.955.204.802.509 1.58.916 2.333a6.768 6.768 0 0 0 1.578 1.956c.646.55 1.412.825 2.297.825.263 0 .544-.036.843-.108.3-.071.557-.227.772-.466.191-.192.317-.395.377-.61.06-.215.078-.49.054-.825-.024-.455-.15-.94-.377-1.454A6.812 6.812 0 0 0 25.658 15a8.46 8.46 0 0 0-1.49-1.417 9.491 9.491 0 0 0-1.955-1.13z"/></svg>