<svg xmlns="http://www.w3.org/2000/svg" width="40" height="40" xml:space="preserve"><path style="stroke:none;stroke-width:10;stroke-dasharray:none;stroke-linecap:butt;stroke-dashoffset:0;stroke-linejoin:miter;stroke-miterlimit:4;fill:#000;fill-rule:nonzero;opacity:1" vector-effect="non-scaling-stroke" transform="matrix(1 0 0 -1 6.07 35.08)" d="M3.764 7.78v-.47l.18-.144c.87 0 1.593.114 2.172.343.579.23 1.061.525 1.447.887.386.362.706.76.96 1.194.253.434.5.857.741 1.267.217.024.386.066.507.126.12.06.223.121.307.181.085.06.175.127.272.2.096.072.23.132.398.18l1.773.688c.386.193.724.41 1.014.651.289.242.566.628.832 1.158a7.791 7.791 0 0 0-.2-2.57A8.384 8.384 0 0 0 13.3 9.32a8.016 8.016 0 0 0-1.32-1.701 10.651 10.651 0 0 0-1.52-1.249c-.893-.555-1.605-1.115-2.136-1.683-.53-.566-.856-1.019-.977-1.357-.265-.651-.331-1.212-.199-1.682.133-.47.477-.984 1.032-1.538L8.324 0h18.854l.108.434c.072.435.145 1.007.217 1.72.073.71.139 1.423.2 2.134a49.732 49.732 0 0 1 .162 2.696c0 2.968-.422 5.58-1.266 7.835a22.073 22.073 0 0 1-3.438 6.098c-.724.892-1.587 1.7-2.588 2.424a20.2 20.2 0 0 1-3.13 1.864 18.776 18.776 0 0 1-3.257 1.212c-1.086.29-2.063.435-2.931.435a5.948 5.948 0 0 1-.38.705c-.157.254-.332.513-.525.778a9.415 9.415 0 0 1-.597.742c-.205.23-.404.428-.597.597L8.903 30l-.326-.724c-.12-.555-.217-.989-.29-1.303a10.13 10.13 0 0 1-.18-1.085l-.634.633-.742.452-.724.435-.217-.833c-.12-.289-.156-.717-.108-1.284a4.654 4.654 0 0 1 .362-1.502l.506-1.086c.097-.12.115-.271.055-.452-.06-.18-.091-.308-.091-.38 0-.12-.115-.235-.344-.344-.229-.108-.44-.307-.633-.597a3.501 3.501 0 0 1-.398-.706c-.12-.277-.253-.62-.398-1.031a35.04 35.04 0 0 1-.47-1.448 36.729 36.729 0 0 0-.652-1.918 5.444 5.444 0 0 0-.742-1.447 18.06 18.06 0 0 0-.959-1.194 15.676 15.676 0 0 1-1.32-1.665C.198 11.942 0 11.171 0 10.205c0-.627.253-1.2.76-1.719.507-.519 1.17-.874 1.99-1.067.338.265.591.597.76.995.17.398.374.947.616 1.646.24.531.434.875.579 1.032.144.157.458.235.94.235.314 0 .531-.157.652-.47.12-.314.18-.555.18-.724a.734.734 0 0 0-.144-.398A2.873 2.873 0 0 0 5.97 9.3a5.271 5.271 0 0 0-.47-.416 66.242 66.242 0 0 1-.435-.344 2.255 2.255 0 0 0-.832-.416c-.314-.084-.47-.199-.47-.344zm0 5.212c.217-.17.295-.447.235-.833-.06-.386-.223-.796-.489-1.23-.313-.41-.633-.724-.959-.94-.325-.218-.609-.254-.85-.11-.193.121-.26.38-.199.779.06.398.235.802.525 1.212.265.458.573.79.922.995.35.205.622.247.815.127zm3.22 6.296c.29 0 .598-.036.923-.108.326-.072.627-.181.905-.326.277-.145.513-.326.706-.543.193-.217.325-.458.398-.723a.669.669 0 0 0 0-.435.44.44 0 0 0-.254-.29.466.466 0 0 0-.416.055c-.133.084-.21.187-.235.308a.73.73 0 0 1-.199.29 4.234 4.234 0 0 0-.235.216v-.253a1.19 1.19 0 0 0-.326-.85 1.055 1.055 0 0 0-.796-.344c-.314 0-.585.114-.814.344-.23.229-.344.512-.344.85 0 .338.12.615.362.832a.554.554 0 0 0-.253.47c0 .121.054.236.162.345a.564.564 0 0 0 .417.162zm1.81 7.057c.29 0 .458-.145.506-.434.049-.555.133-.899.254-1.032a.567.567 0 0 1 .434-.199c.314 0 .47-.156.47-.47a.674.674 0 0 0-.144-.434c-.097-.12-.206-.181-.326-.181-.386 0-.688.09-.905.271a1.72 1.72 0 0 0-.488.652 2.53 2.53 0 0 0-.2.76 6.696 6.696 0 0 0-.035.597c-.025.12.012.229.108.325a.45.45 0 0 0 .326.145zm17.37-24.789h-1.81c.387 1.858.568 3.637.544 5.338-.024 1.7-.211 3.3-.561 4.795a19.495 19.495 0 0 1-1.466 4.162 19.307 19.307 0 0 1-2.135 3.437c-2.123 2.558-4.258 3.885-6.405 3.981-.193 0-.344.109-.453.326-.108.217-.163.41-.163.579 0 .41.242.615.724.615 1.303-.048 2.624-.488 3.963-1.32 1.339-.833 2.575-1.961 3.71-3.384a20.549 20.549 0 0 0 2.297-3.438c.688-1.279 1.23-2.69 1.629-4.234.398-1.544.62-3.221.67-5.03.047-1.81-.134-3.752-.544-5.827z"/></svg>