<svg xmlns="http://www.w3.org/2000/svg" width="40" height="40" xml:space="preserve"><path style="stroke:none;stroke-width:10;stroke-dasharray:none;stroke-linecap:butt;stroke-dashoffset:0;stroke-linejoin:miter;stroke-miterlimit:4;fill:#000;fill-rule:nonzero;opacity:1" vector-effect="non-scaling-stroke" transform="rotate(180 15.355 17.52)" d="M14.506 5.354a3.705 3.705 0 0 0-.057.437 7.21 7.21 0 0 0-.02.55c0 .305.051.608.153.912l.304.418c.126.202.259.437.398.702.14.266.21.652.21 1.159 0 .784-.083 1.417-.248 1.898a13.4 13.4 0 0 1-.55 1.367 5.379 5.379 0 0 0-.418.76 7.543 7.543 0 0 0-.36 1.006c-.115.393-.21.855-.286 1.386a18.304 18.304 0 0 0-.151 1.937h6.265c.38 0 .57.215.57.646 0 .506-.146 1.025-.437 1.557a7.246 7.246 0 0 1-1.101 1.5 7.055 7.055 0 0 1-1.481 1.196c-.544.329-1.07.544-1.576.645a4.267 4.267 0 0 0-1.386.532 5.33 5.33 0 0 0-1.006.76c.43.632.645 1.303.645 2.012 0 .456-.082.88-.247 1.272a3.024 3.024 0 0 1-.702 1.026 3.616 3.616 0 0 1-1.063.702A3.186 3.186 0 0 1 10.67 30c-.456 0-.887-.089-1.292-.266a3.368 3.368 0 0 1-1.044-.702 3.163 3.163 0 0 1-.683-1.026 3.255 3.255 0 0 1-.247-1.272c0-.709.215-1.38.645-2.012a7.712 7.712 0 0 0-1.006-.76 3.853 3.853 0 0 0-1.348-.532c-.506-.1-1.032-.316-1.576-.645a7.505 7.505 0 0 1-1.5-1.196 7.457 7.457 0 0 1-1.14-1.5c-.303-.532-.455-1.051-.455-1.557 0-.43.215-.646.646-.646h6.228a18.277 18.277 0 0 0-.152-1.937c-.076-.531-.171-.993-.285-1.386a7.529 7.529 0 0 0-.36-1.006 10.651 10.651 0 0 0-.38-.76 9.463 9.463 0 0 1-.59-1.367c-.164-.48-.246-1.114-.246-1.898 0-.507.07-.893.209-1.159.14-.265.272-.5.399-.702l.341-.418c.051-.177.089-.342.114-.493.026-.152.038-.292.038-.418 0-.203-.012-.386-.038-.55a1.994 1.994 0 0 0-.114-.437c-.405-.026-.987-.114-1.746-.266a10.624 10.624 0 0 1-2.279-.74A6.109 6.109 0 0 1 .835 2.942C.278 2.348 0 1.583 0 .646 0 .468.063.316.19.19A.622.622 0 0 1 .646 0h20.05c.203 0 .374.063.513.19.14.127.209.278.209.456 0 .936-.285 1.702-.855 2.297a6.33 6.33 0 0 1-1.993 1.405c-.76.342-1.526.589-2.298.74-.772.153-1.36.241-1.766.267z"/></svg>