<svg xmlns="http://www.w3.org/2000/svg" width="40" height="40" xml:space="preserve"><path style="stroke:none;stroke-width:10;stroke-dasharray:none;stroke-linecap:butt;stroke-dashoffset:0;stroke-linejoin:miter;stroke-miterlimit:4;fill:#000;fill-rule:nonzero;opacity:1" vector-effect="non-scaling-stroke" transform="rotate(180 18.175 17.515)" d="M30.622 22.683a2.065 2.065 0 0 1-1.463-.586 1.926 1.926 0 0 1-.622-1.463c0-.44.134-.817.402-1.134a32.86 32.86 0 0 1-2.323-1.518 15.555 15.555 0 0 1-1.957-1.628c-.122.756-.281 1.554-.476 2.396a36.2 36.2 0 0 1-.677 2.506c-.256.83-.536 1.64-.841 2.433a21.493 21.493 0 0 1-.97 2.177c.366.195.665.463.896.805.232.341.348.719.348 1.134a2.06 2.06 0 0 1-.677 1.555c-.451.426-.957.64-1.518.64-.61 0-1.128-.214-1.555-.64a2.117 2.117 0 0 1-.64-1.555c0-.366.091-.708.274-1.025.183-.317.42-.573.714-.768a14.3 14.3 0 0 1-.86-1.244c-.305-.488-.598-1-.878-1.537a34.35 34.35 0 0 1-.805-1.646 22.306 22.306 0 0 1-.64-1.537c-.195.464-.421.976-.677 1.537-.256.561-.524 1.11-.805 1.646-.28.537-.567 1.05-.86 1.537-.292.488-.573.902-.841 1.244.292.195.53.451.713.768.183.317.275.659.275 1.025 0 .61-.214 1.128-.64 1.555-.427.426-.946.64-1.556.64-.61 0-1.128-.214-1.554-.64a2.117 2.117 0 0 1-.64-1.555c0-.415.115-.793.347-1.134.232-.342.53-.61.896-.805a21.493 21.493 0 0 1-.97-2.177 38.064 38.064 0 0 1-.84-2.433 36.2 36.2 0 0 1-.678-2.506 36.036 36.036 0 0 1-.475-2.396 19.02 19.02 0 0 1-1.976 1.628A29.98 29.98 0 0 1 3.768 19.5c.122.146.214.323.275.53.06.208.091.409.091.604 0 .585-.201 1.073-.603 1.463-.403.39-.885.586-1.446.586a2.065 2.065 0 0 1-1.463-.586A1.926 1.926 0 0 1 0 20.634c0-.561.207-1.043.622-1.445a2.033 2.033 0 0 1 1.463-.604h.257c.39-.854.737-1.634 1.042-2.341.305-.708.58-1.372.823-1.994.244-.622.464-1.214.659-1.775.195-.56.378-1.11.549-1.646a44 44 0 0 0 .146-1.043c.073-.548.152-1.128.238-1.737.085-.61.158-1.159.22-1.647.06-.487.09-.744.09-.768l.367-2.707c.024-.561.402-1.03 1.134-1.409.732-.378 1.604-.677 2.616-.896 1.012-.22 2.079-.378 3.2-.476A34.362 34.362 0 0 1 16.355 0c.829 0 1.805.049 2.927.146 1.122.098 2.189.256 3.2.476 1.013.22 1.879.518 2.598.896.72.378 1.104.848 1.153 1.409l.366 2.707c0 .024.03.28.091.768s.134 1.037.22 1.647c.085.61.164 1.189.237 1.737.074.55.122.897.147 1.043.17.537.353 1.085.549 1.646.195.561.414 1.153.658 1.775.244.622.518 1.286.823 1.994.305.707.653 1.488 1.043 2.341h.256c.561 0 1.049.201 1.463.604.415.402.622.884.622 1.445 0 .585-.207 1.073-.622 1.463-.414.39-.902.586-1.463.586zM16.354 7.829c-.683 0-1.256.116-1.72.348-.463.231-.695.518-.695.86 0 .317.232.597.695.841.464.244 1.037.366 1.72.366.658 0 1.225-.122 1.701-.366s.713-.524.713-.841c0-.342-.237-.629-.713-.86-.476-.232-1.043-.348-1.701-.348zm7.097.11c.098.293.354.5.769.622.414.122.914.122 1.5 0l-.256-2.342c-.635.195-1.153.452-1.555.769-.403.317-.555.634-.458.95zm-14.158 0c.073-.317-.08-.634-.457-.951-.378-.318-.885-.574-1.519-.769l-.256 2.342c.561.122 1.055.122 1.482 0 .427-.122.677-.33.75-.622zm7.06 4.17c-.78 0-1.59-.066-2.432-.2a28.082 28.082 0 0 1-2.488-.513 23.14 23.14 0 0 1-2.36-.732 20.346 20.346 0 0 1-2.012-.86l-.33 1.793c.635.293 1.33.58 2.086.86.756.28 1.555.53 2.397.75.841.22 1.695.39 2.56.512.866.122 1.726.183 2.58.183.854 0 1.713-.06 2.58-.183.865-.122 1.719-.292 2.56-.512.842-.22 1.64-.47 2.396-.75.757-.28 1.452-.567 2.086-.86l-.33-1.792c-.585.292-1.256.579-2.012.86-.756.28-1.548.524-2.378.731-.829.207-1.664.378-2.506.512a15.25 15.25 0 0 1-2.396.202zm0-7.61c-1.072 0-2.097-.048-3.072-.146a36.398 36.398 0 0 1-2.616-.347c-.769-.134-1.403-.287-1.903-.457-.5-.171-.823-.33-.97-.476l-.219 1.61c.293.22.726.427 1.3.622.572.195 1.243.366 2.011.512.769.146 1.616.256 2.543.33.927.072 1.902.11 2.927.11 1.024 0 2-.038 2.927-.11a23.548 23.548 0 0 0 2.542-.33 15.017 15.017 0 0 0 2.013-.512c.573-.195 1.006-.403 1.298-.622l-.22-1.61c-.145.146-.475.305-.987.476-.512.17-1.152.323-1.92.457-.769.134-1.64.25-2.617.347a30.51 30.51 0 0 1-3.036.147z"/></svg>