<svg xmlns="http://www.w3.org/2000/svg" width="40" height="40" xml:space="preserve"><path style="stroke:none;stroke-width:10;stroke-dasharray:none;stroke-linecap:butt;stroke-dashoffset:0;stroke-linejoin:miter;stroke-miterlimit:4;fill:#000;fill-rule:nonzero;opacity:1" vector-effect="non-scaling-stroke" transform="rotate(180 16.175 17.535)" d="M20.38 9.656v11.425c.075.098.265.313.572.645l.958 1.032c.332.356.627.676.885.958l.387.424V30h-4.127v-2.543H15.11V30H9.656v-2.543H5.713V30H1.585v-5.86l.387-.424.884-.958c.59-.639.91-.983.959-1.032.049-.049.24-.264.57-.645V9.656c-.048-.05-.233-.301-.552-.756a4518.813 4518.813 0 0 1-3.39-4.828C.171 3.692.024 3.49 0 3.464V0h24.693v3.464a12.25 12.25 0 0 0-.424.608c-.258.381-.602.879-1.032 1.493l-1.253 1.788c-.405.577-.762 1.093-1.069 1.547-.307.455-.485.707-.534.756zM5.603 22.518h13.563v-1.99H5.602zm0-12.162h13.563v-1.99H5.602z"/></svg>