<svg width="40" height="40" fill="none" xmlns="http://www.w3.org/2000/svg"><path d="M35.509 34.34c-.368-1.585-1.005-2.74-1.913-3.464-.908-.724-2.143-1.085-3.705-1.085-.275 0-.672.011-1.189.034-.517.023-1.005.046-1.465.069-.23.046-.436.069-.62.069-.16 0-.299.011-.414.034.138-.528.242-1.114.31-1.758l.035-1.55v-.725c0-.299-.011-.574-.034-.827.206-.299.43-.73.672-1.293.24-.563.46-1.166.654-1.81.196-.643.357-1.292.483-1.947s.19-1.224.19-1.706c0-.437-.098-1.08-.294-1.93a19.325 19.325 0 0 0-.861-2.724 21.745 21.745 0 0 0-1.379-2.861c-.54-.942-1.165-1.724-1.878-2.344.506-.391.758-.908.758-1.552 0-.551-.19-1.01-.568-1.378-.38-.368-.856-.552-1.43-.552-.552 0-1.012.184-1.38.552-.367.367-.55.827-.55 1.378 0 .322.068.61.206.862.138.253.322.471.552.655-.276.253-.529.5-.759.741-.23.242-.436.523-.62.845a51.14 51.14 0 0 0-1.585-1.586c.46-.345.69-.85.69-1.517 0-.551-.196-1.01-.587-1.379a1.946 1.946 0 0 0-1.378-.551c-.552 0-1.011.184-1.379.551-.367.368-.551.828-.551 1.38 0 .344.075.654.224.93.15.276.339.506.568.69-.551.574-1.12 1.327-1.706 2.257-.585.931-1.12 1.908-1.602 2.93a25.326 25.326 0 0 0-1.19 2.965c-.31.954-.464 1.74-.464 2.361 0 .644.046 1.207.138 1.69.091.482.206.907.344 1.275.138.367.293.695.465.982.173.288.34.558.5.81.345.414.563.805.655 1.172-.023.3-.034.586-.034.862v.793l.034 1.551c.046.62.15 1.207.31 1.758a2.955 2.955 0 0 0-.482-.034c-.161 0-.345-.023-.552-.07l-1.499-.068a28.773 28.773 0 0 0-1.189-.034c-1.562 0-2.791.361-3.688 1.085-.896.724-1.516 1.88-1.86 3.465a.664.664 0 0 0 .034.362c.046.126.15.212.31.258.115.092.247.104.396.035a.717.717 0 0 0 .328-.276c.092-.092.316-.167.672-.224a9.41 9.41 0 0 1 1.258-.104c.482-.011.976-.017 1.482-.017H11.59c1.195 0 2.2-.051 3.015-.155.816-.103 1.488-.235 2.016-.396.529-.161.954-.34 1.276-.535.321-.195.608-.373.861-.534.253-.184.454-.31.603-.38a2.6 2.6 0 0 1 .638-.172c.253.046.454.104.603.173.15.069.339.195.569.38.252.16.545.338.878.533.334.196.764.374 1.293.535.528.16 1.195.293 1.999.396.804.104 1.815.155 3.033.155H30.994c.528 0 1.028.006 1.499.017.47.012.884.046 1.24.104.357.057.57.132.638.224a.716.716 0 0 0 .328.276c.149.069.304.057.465-.035a.544.544 0 0 0 .276-.258.53.53 0 0 0 .069-.362zm-10.34-5.066c-.344-.207-.775-.368-1.292-.483a14.565 14.565 0 0 0-1.55-.259 17.134 17.134 0 0 0-1.414-.103c-.425-.011-.729-.017-.913-.017-.184 0-.488.006-.913.017-.425.012-.896.046-1.413.103-.517.058-1.034.144-1.55.259-.518.115-.949.276-1.293.483a6.021 6.021 0 0 1-.104-.604 8.179 8.179 0 0 0-.103-.637h.069c.437-.184.787-.414 1.051-.69.264-.276.339-.517.224-.724-.046-.184-.201-.31-.465-.379s-.569-.057-.914.034c0-.16.006-.321.018-.482.011-.161.017-.322.017-.483a6.696 6.696 0 0 1 2.257-.74c.839-.127 1.879-.19 3.12-.19 1.171-.023 2.176.028 3.015.155a6.6 6.6 0 0 1 2.292.775c.046.161.069.322.069.483v.482c-.345-.091-.65-.103-.914-.034-.264.069-.42.195-.465.38-.115.206-.04.447.224.723.264.276.626.506 1.086.69 0 .23-.018.442-.052.637a9.652 9.652 0 0 0-.086.604zM22.86 6.212c.253 0 .454.075.604.224a.73.73 0 0 1 .224.534.85.85 0 0 1-.224.57.757.757 0 0 1-.604.258.685.685 0 0 1-.534-.259.85.85 0 0 1-.224-.569.73.73 0 0 1 .224-.534.73.73 0 0 1 .534-.224zm0 2.896c.667.436 1.276 1.086 1.827 1.947a17.307 17.307 0 0 1 1.413 2.706c.39.943.695 1.845.913 2.706.219.862.328 1.5.328 1.914 0 .505-.075 1.08-.224 1.723-.15.644-.34 1.287-.569 1.93a15.122 15.122 0 0 0-.74-2.74 26.977 26.977 0 0 0-1.276-2.93 29.757 29.757 0 0 0-1.654-2.861 34.518 34.518 0 0 0-1.844-2.568c.276-.345.575-.69.896-1.034.322-.345.632-.61.93-.793zm-5.41-2.896c.253 0 .454.075.603.224a.73.73 0 0 1 .224.534.85.85 0 0 1-.224.57.757.757 0 0 1-.603.258.685.685 0 0 1-.534-.259.85.85 0 0 1-.224-.569.73.73 0 0 1 .224-.534.73.73 0 0 1 .534-.224zm-4.928 12.892c0-.551.166-1.304.5-2.258.332-.953.752-1.936 1.257-2.947a29.178 29.178 0 0 1 1.62-2.844c.575-.884 1.103-1.534 1.585-1.947.552.367 1.132.884 1.74 1.551a22.796 22.796 0 0 1 1.81 2.275c.597.85 1.172 1.752 1.723 2.706a27.889 27.889 0 0 1 1.448 2.861c.413.954.74 1.873.982 2.758.241.885.362 1.66.362 2.327 0 .092-.006.178-.017.258-.012.08-.018.167-.018.259a7.422 7.422 0 0 0-2.464-.759c-.884-.114-1.901-.16-3.05-.138-1.057 0-2.056.052-2.998.156a7.782 7.782 0 0 0-2.654.775c-.16-.299-.356-.62-.586-.965a13.572 13.572 0 0 1-.827-1.551c-.275-.598-.413-1.436-.413-2.517zm2.274 12.169c.368.23.816.402 1.344.517.529.115 1.057.207 1.585.276a9.97 9.97 0 0 1-.775.379c-.31.138-.7.264-1.172.38-.47.114-1.045.206-1.723.275-.678.069-1.499.103-2.464.103h-1.206a62.804 62.804 0 0 0-2.499-.017c-.724.012-1.35.063-1.878.155.39-.827.896-1.425 1.516-1.792.62-.368 1.46-.552 2.516-.552.253 0 .609.012 1.069.035l1.378.069 1.258.086c.839.057 1.074.086.707.086h.344zm10.718 0c.092-.023.328-.052.707-.086.379-.035.798-.063 1.258-.086l1.378-.07s.345-.01 1.034-.034c1.08 0 1.93.184 2.55.552.62.367 1.115.965 1.482 1.792-.482-.092-1.097-.143-1.843-.155a64.463 64.463 0 0 0-2.534.017h-1.171c-.965 0-1.787-.034-2.465-.103a12.924 12.924 0 0 1-1.723-.276 6.482 6.482 0 0 1-1.154-.379 11.59 11.59 0 0 1-.758-.38c.528-.068 1.05-.16 1.568-.275.517-.115.959-.287 1.326-.517h.345z" fill="#000"/><path d="M18.053 6.436c-.15-.15-.35-.224-.603-.224a.73.73 0 0 0-.534.224.73.73 0 0 0-.224.534.85.85 0 0 0 .224.57c.149.172.327.258.534.258a.757.757 0 0 0 .603-.259.85.85 0 0 0 .224-.569.73.73 0 0 0-.224-.534zM23.464 6.436c-.15-.15-.35-.224-.604-.224a.73.73 0 0 0-.534.224.73.73 0 0 0-.224.534.85.85 0 0 0 .224.57c.15.172.328.258.534.258a.757.757 0 0 0 .604-.259.85.85 0 0 0 .224-.569.73.73 0 0 0-.224-.534zM24.687 11.055c-.551-.861-1.16-1.51-1.827-1.947a4.631 4.631 0 0 0-.93.793c-.322.344-.62.69-.896 1.034.62.781 1.235 1.637 1.844 2.568.609.93 1.16 1.884 1.654 2.861.494.977.919 1.953 1.275 2.93.356.977.603 1.89.741 2.74.23-.643.42-1.286.569-1.93.15-.643.224-1.218.224-1.723 0-.414-.11-1.052-.328-1.914a19.77 19.77 0 0 0-.913-2.706 17.307 17.307 0 0 0-1.413-2.706zM13.021 16.846c-.333.954-.5 1.707-.5 2.258 0 1.08.139 1.92.414 2.517.276.597.552 1.114.827 1.551.23.345.425.666.586.965a7.782 7.782 0 0 1 2.654-.775A27.518 27.518 0 0 1 20 23.207c1.149-.023 2.166.023 3.05.137a7.422 7.422 0 0 1 2.464.759c0-.092.006-.178.018-.259.011-.08.017-.166.017-.258 0-.667-.12-1.442-.362-2.327a20.539 20.539 0 0 0-.982-2.758 27.889 27.889 0 0 0-1.448-2.86 36.406 36.406 0 0 0-1.723-2.707c-.597-.85-1.2-1.609-1.81-2.275-.608-.667-1.188-1.184-1.74-1.551-.482.413-1.01 1.063-1.585 1.947a29.178 29.178 0 0 0-1.62 2.844 25.169 25.169 0 0 0-1.258 2.947zM23.877 28.791c.517.115.948.276 1.293.483.023-.207.051-.408.086-.604.034-.195.052-.408.052-.638-.46-.183-.822-.413-1.086-.689-.264-.276-.339-.517-.224-.724.046-.184.201-.31.465-.379s.569-.057.913.034v-.482c0-.161-.023-.322-.068-.483a6.6 6.6 0 0 0-2.292-.775c-.839-.127-1.844-.178-3.016-.155-1.24 0-2.28.063-3.119.19a6.696 6.696 0 0 0-2.257.74c0 .161-.006.322-.017.483-.012.16-.018.322-.018.482.345-.091.65-.103.914-.034.264.069.42.195.465.38.115.206.04.447-.224.723-.264.276-.614.506-1.051.69h-.069c.046.23.08.442.103.637.023.196.058.397.104.604.344-.207.775-.368 1.292-.483a14.565 14.565 0 0 1 1.551-.259c.517-.057.988-.091 1.413-.103.425-.011.73-.017.913-.017.184 0 .488.006.913.017.425.012.896.046 1.413.103.517.058 1.034.144 1.551.259z" fill="#fff"/><path d="M18.69 26.033c.345-.184.747-.276 1.207-.276.505 0 .936.092 1.292.276.356.184.534.39.534.62 0 .253-.178.466-.534.638-.356.173-.787.259-1.292.259-.46 0-.862-.086-1.206-.259-.345-.172-.517-.384-.517-.637 0-.23.172-.437.517-.62z" fill="#000"/><path d="M16.933 30.756c.781.16 1.803.241 3.067.241 1.264 0 2.275-.08 3.033-.241.758-.161 1.286-.31 1.585-.448-.298-.161-.827-.316-1.585-.466-.758-.149-1.77-.224-3.033-.224-1.264 0-2.286.075-3.067.224-.781.15-1.321.305-1.62.466.299.138.839.287 1.62.448zM26.22 31.187c-.378.034-.614.063-.706.086h-.345c-.367.23-.81.402-1.326.517-.517.115-1.04.207-1.568.276.206.115.459.241.758.379.298.138.683.264 1.154.38.471.114 1.046.206 1.723.275.678.069 1.5.103 2.465.103h1.171a64.463 64.463 0 0 1 2.534-.017c.746.012 1.36.063 1.843.155-.367-.827-.861-1.425-1.482-1.792-.62-.368-1.47-.552-2.55-.552l-1.034.035-1.378.069c-.46.023-.88.051-1.258.086zM16.14 31.79c-.528-.115-.976-.287-1.344-.517h-.345c.368 0 .133-.029-.706-.086l-1.258-.086-1.379-.07a22.97 22.97 0 0 0-1.068-.034c-1.057 0-1.895.184-2.516.552-.62.367-1.125.965-1.516 1.792a12.258 12.258 0 0 1 1.878-.155 62.804 62.804 0 0 1 2.499.017h1.206c.965 0 1.786-.034 2.464-.103.678-.07 1.252-.16 1.723-.276a7.035 7.035 0 0 0 1.172-.379 9.97 9.97 0 0 0 .776-.38 19.094 19.094 0 0 1-1.586-.275z" fill="#fff"/></svg>