<svg width="40" height="40" fill="none" xmlns="http://www.w3.org/2000/svg"><path d="M4.207 15.72c0-1.032.216-1.913.648-2.645a5.75 5.75 0 0 1 1.6-1.78 6.802 6.802 0 0 1 2.05-1.007c.732-.216 1.398-.324 1.997-.324.911 0 1.799.21 2.662.63.863.42 1.667.953 2.41 1.6V5h8.849v7.194a10.94 10.94 0 0 1 2.41-1.6c.863-.42 1.75-.63 2.662-.63.6 0 1.265.108 1.996.324a6.803 6.803 0 0 1 2.05 1.007 5.747 5.747 0 0 1 1.602 1.78c.431.732.647 1.613.647 2.644 0 .888-.144 1.769-.432 2.644a12.388 12.388 0 0 1-2.752 4.622 11.846 11.846 0 0 1-1.852 1.62 41.53 41.53 0 0 1-.18 1.132c-.072.42-.228 1.553-.468 3.4 0 .168-.012.311-.036.431l-.323 2.662c-.048.552-.426 1.007-1.133 1.367-.708.36-1.56.642-2.554.845-.995.204-2.045.348-3.148.432A38.968 38.968 0 0 1 20 35c-.816 0-1.77-.042-2.86-.126a25.222 25.222 0 0 1-3.13-.432c-.995-.203-1.852-.485-2.572-.845-.719-.36-1.103-.815-1.15-1.367l-.36-2.662c-.216-2.134-.36-3.411-.432-3.83-.072-.42-.132-.798-.18-1.134a11.034 11.034 0 0 1-1.889-1.618 13.122 13.122 0 0 1-1.636-2.14 11.68 11.68 0 0 1-1.151-2.483 8.418 8.418 0 0 1-.432-2.644zm6.295-4.497c-.504 0-1.05.078-1.637.234a5.214 5.214 0 0 0-1.636.755c-.504.348-.924.81-1.26 1.385-.335.575-.503 1.283-.503 2.122 0 .768.132 1.535.396 2.303.264.767.605 1.498 1.025 2.194.42.695.893 1.337 1.42 1.924a9.451 9.451 0 0 0 1.62 1.457 59.248 59.248 0 0 1 5-1.51c1.534-.384 3.021-.6 4.46-.648-.072-.552-.24-1.187-.504-1.907a19.625 19.625 0 0 0-.989-2.23 15.729 15.729 0 0 0-1.403-2.23 13.702 13.702 0 0 0-1.762-1.943 8.758 8.758 0 0 0-2.015-1.384 4.955 4.955 0 0 0-2.212-.522zm8.67-1.763-2.375-2.302v4.676l2.374-2.374zm-1.476 3.202h4.677l-2.375-2.338-2.302 2.338zm2.302-4.065 2.374-2.374h-4.676l2.302 2.374zm.864.863 2.338 2.374V7.158L20.862 9.46zm-3.741 4.425c.647.84 1.21 1.708 1.69 2.608.48.899.876 1.78 1.187 2.644.312-.864.72-1.745 1.223-2.644.504-.9 1.067-1.769 1.691-2.608h-5.791zm17.41 1.834c0-.839-.168-1.546-.504-2.122a4.258 4.258 0 0 0-1.259-1.385 5.214 5.214 0 0 0-1.637-.755 6.408 6.408 0 0 0-1.636-.234c-.744 0-1.469.174-2.177.521a8.758 8.758 0 0 0-2.014 1.385 12.91 12.91 0 0 0-1.744 1.943c-.528.72-.996 1.463-1.403 2.23a16.13 16.13 0 0 0-.99 2.23c-.251.72-.413 1.355-.485 1.907 1.51.072 3.057.311 4.64.72 1.583.407 3.166.886 4.748 1.438a9.451 9.451 0 0 0 1.619-1.457 12.664 12.664 0 0 0 1.42-1.924 11.42 11.42 0 0 0 1.026-2.195 7.043 7.043 0 0 0 .396-2.302z" fill="#000"/><path d="m16.797 7.158 2.374 2.302-2.374 2.374V7.158zM22.373 12.662h-4.677l2.302-2.338 2.375 2.338zM22.372 6.223l-2.374 2.374-2.302-2.374h4.676zM23.2 11.834 20.862 9.46 23.2 7.158v4.676zM34.027 13.597c.336.575.504 1.283.504 2.122 0 .768-.132 1.535-.396 2.302a11.42 11.42 0 0 1-1.025 2.195c-.42.695-.893 1.337-1.421 1.924a9.451 9.451 0 0 1-1.619 1.457 59.645 59.645 0 0 0-4.748-1.439 22.968 22.968 0 0 0-4.64-.72c.072-.55.234-1.186.485-1.906.252-.72.582-1.463.99-2.23.407-.767.875-1.51 1.402-2.23a12.91 12.91 0 0 1 1.745-1.943 8.758 8.758 0 0 1 2.015-1.384 4.882 4.882 0 0 1 2.176-.522c.503 0 1.049.078 1.636.234a5.214 5.214 0 0 1 1.637.755c.504.348.923.81 1.26 1.385zM8.865 11.457a6.408 6.408 0 0 1 1.637-.234c.768 0 1.505.174 2.212.521.708.348 1.38.81 2.015 1.385a13.702 13.702 0 0 1 1.762 1.943c.54.72 1.008 1.463 1.403 2.23.396.767.726 1.51.99 2.23.263.72.431 1.355.503 1.907a21.313 21.313 0 0 0-4.46.647 59.248 59.248 0 0 0-5 1.511 9.451 9.451 0 0 1-1.62-1.457 12.674 12.674 0 0 1-1.42-1.924 11.418 11.418 0 0 1-1.025-2.195 7.043 7.043 0 0 1-.396-2.302c0-.839.168-1.546.504-2.122a4.258 4.258 0 0 1 1.259-1.385c.503-.348 1.049-.6 1.636-.755zM12.319 26.69c-.42-.12-.906-.12-1.457 0-.048-.36-.102-.707-.162-1.043a82.45 82.45 0 0 1-.162-.935 68.992 68.992 0 0 1 5.036-1.51 17.939 17.939 0 0 1 4.424-.576c1.511 0 3.07.21 4.677.63 1.606.419 3.201.904 4.784 1.456-.048.288-.102.6-.162.935-.06.336-.114.684-.162 1.044-.551-.12-1.037-.12-1.457 0-.42.12-.665.323-.737.611-.072.312.09.63.486.953.395.324.905.57 1.528.738-.048.072-.072.204-.072.395l-.215 1.295c-.48-.288-1.085-.533-1.817-.737a19.05 19.05 0 0 0-2.302-.486 27.384 27.384 0 0 0-2.41-.252 36.403 36.403 0 0 0-2.14-.071c-.624 0-1.337.023-2.14.072-.804.047-1.608.131-2.41.251-.804.12-1.566.282-2.285.486-.72.204-1.331.45-1.835.737l-.18-1.295a1.31 1.31 0 0 0-.017-.216 1.13 1.13 0 0 1-.018-.18c.623-.167 1.133-.413 1.528-.737.396-.323.534-.641.414-.953-.072-.288-.318-.492-.737-.611z" fill="#fff"/><path d="M21.797 27.068c.456-.228.683-.497.683-.81 0-.359-.227-.647-.683-.862-.456-.216-1.02-.324-1.69-.324-.648 0-1.206.108-1.673.324-.468.215-.702.503-.702.863 0 .312.234.581.702.81.467.227 1.025.341 1.672.341.672 0 1.235-.114 1.691-.342z" fill="#000"/><path d="M23.74 33.58c-1.056.131-2.303.197-3.742.197-1.438 0-2.685-.066-3.74-.198-1.056-.132-1.931-.288-2.626-.468-.696-.18-1.217-.365-1.565-.557-.348-.192-.534-.336-.558-.432.024-.12.21-.282.558-.485.348-.204.87-.402 1.565-.594.695-.192 1.57-.354 2.625-.485 1.056-.132 2.303-.198 3.741-.198 1.44 0 2.686.066 3.741.198 1.056.131 1.93.293 2.626.485s1.223.39 1.583.594c.36.203.552.365.575.485-.023.096-.215.24-.575.432s-.887.378-1.583.557c-.695.18-1.57.336-2.626.468z" fill="#fff"/></svg>