<svg width="40" height="40" fill="none" xmlns="http://www.w3.org/2000/svg"><path d="M34.82 27.249v-.61l-.072-.646a29.43 29.43 0 0 0-.288-2.979c-.048-.239-.102-.478-.162-.717a132.566 132.566 0 0 0-.521-2.153c-.12-.479-.275-.957-.467-1.436a5.594 5.594 0 0 1-.305-.735 7.89 7.89 0 0 0-.305-.772 20.59 20.59 0 0 0-.611-1.13c-.216-.371-.443-.76-.683-1.167-.263-.358-.55-.753-.862-1.184a1.294 1.294 0 0 0-.162-.197 1.288 1.288 0 0 1-.161-.198 7.532 7.532 0 0 0-.701-.807 19.444 19.444 0 0 0-.737-.7 15.3 15.3 0 0 0-5.012-3.068c-1.88-.706-3.922-1.082-6.126-1.13-.263-.431-.575-.874-.934-1.328a4.822 4.822 0 0 0-1.15-1.077L14.986 5l-.251.466c-.48.718-.767 1.424-.862 2.118a5.405 5.405 0 0 0-1.402-.61l-.503-.18-.215.574c-.12.287-.222.688-.306 1.203-.083.514-.03.998.162 1.453l.61 1.077c.049.143.115.287.199.43.083.144.125.24.125.287a.55.55 0 0 1-.143.377 8.16 8.16 0 0 0-.431.556c-.336.407-.761 1.005-1.276 1.795-.515.789-1.048 1.937-1.599 3.445a4.047 4.047 0 0 1-.808 1.273c-.348.371-.7.736-1.06 1.095a26.91 26.91 0 0 0-.845.807 4.41 4.41 0 0 0-.718.951 3.887 3.887 0 0 0-.431 1.184c-.084.431-.066.91.054 1.436.143.622.365 1.106.664 1.453.3.347.647.616 1.042.808.396.191.82.31 1.276.358.455.048.922.072 1.401.072.91 0 1.67-.131 2.282-.394.61-.264 1.113-.586 1.509-.97.395-.382.712-.8.952-1.255.24-.455.431-.861.575-1.22.407.047.808.065 1.203.053.396-.012.797-.03 1.204-.053h.683c.311 0 .646-.012 1.006-.036.36-.024.706-.108 1.042-.252-.24.407-.527.82-.863 1.239-.335.418-.7.843-1.095 1.273-.396.431-.797.856-1.204 1.274-.407.419-.79.82-1.15 1.203a76.37 76.37 0 0 0-1.886 1.937c-.467.503-.784.921-.952 1.256-.264.694-.324 1.292-.18 1.795.144.502.515 1.028 1.114 1.578l.215.144h20.013l.036-.502c.144-.67.258-1.316.341-1.938.084-.622.15-1.244.198-1.866.048-.479.078-.957.09-1.436.012-.478.018-.956.018-1.435v-.574zm-1.761 6.53H14.591c-.407-.406-.61-.765-.61-1.076 0-.263.06-.502.179-.718.12-.263.42-.657.898-1.184a34.14 34.14 0 0 1 1.617-1.65 253.39 253.39 0 0 0 1.76-1.777c.6-.61 1.138-1.22 1.617-1.83.48-.61.893-1.202 1.24-1.776.347-.574.557-1.137.629-1.687v-.036c.12-.12.167-.269.143-.448a.89.89 0 0 0-.18-.449 1.33 1.33 0 0 0-.323-.09.657.657 0 0 0-.323.054.598.598 0 0 0-.503.467c-.36.359-.767.574-1.222.646a9.72 9.72 0 0 1-1.509.107h-.718c-.24.024-.521.042-.845.054a9.129 9.129 0 0 1-.988-.018 4.798 4.798 0 0 1-.952-.161c-.3-.084-.533-.21-.7-.377-.216-.287-.492-.287-.827 0-.12.072-.186.197-.198.377a.553.553 0 0 0 .162.448c.12.12.258.222.413.305.156.084.306.174.45.27-.12.31-.264.622-.432.933a4.05 4.05 0 0 1-.646.879 3.48 3.48 0 0 1-.97.7c-.384.19-.839.322-1.366.394.144-.191.288-.377.431-.556.144-.18.252-.365.324-.556a.746.746 0 0 0-.018-.485.487.487 0 0 0-.341-.305.666.666 0 0 0-.503-.018.487.487 0 0 0-.324.341c-.12.264-.335.539-.647.826-.311.287-.574.466-.79.538a.318.318 0 0 1-.144.09.161.161 0 0 0-.108.09c-.55-.096-.952-.27-1.203-.52-.252-.252-.437-.617-.557-1.095a3.973 3.973 0 0 1-.054-.341 2.757 2.757 0 0 1-.018-.305c0-.479.15-.915.45-1.31.299-.395.688-.831 1.167-1.31.407-.359.82-.765 1.24-1.22a4.93 4.93 0 0 0 .988-1.65c.479-1.364.958-2.399 1.437-3.105.479-.705.886-1.274 1.221-1.704.24-.287.437-.562.593-.826.156-.263.234-.562.234-.897 0-.215-.048-.424-.144-.628a60.69 60.69 0 0 1-.323-.7l-.503-.86a1.376 1.376 0 0 1-.09-.306 2.196 2.196 0 0 1-.018-.305v-.323l.036-.287c.599.263.982.586 1.15.97.143.693.467 1.387.97 2.08.12.168.257.264.413.287.156.024.305 0 .449-.071.168-.12.252-.311.252-.575 0-.071-.036-.167-.108-.287a7.466 7.466 0 0 1-.467-.79c-.12-.238-.204-.49-.252-.753a.297.297 0 0 0-.018-.09.397.397 0 0 1-.018-.125c-.024-.12-.048-.233-.072-.34a1.41 1.41 0 0 1-.036-.306c0-.335.048-.634.144-.897.096-.263.204-.526.323-.79.24.264.474.545.701.844.228.299.425.616.593.95l.144.36h.359c4.312 0 7.869 1.256 10.671 3.768a.89.89 0 0 0-.09.269 1.9 1.9 0 0 0-.018.269c0 .406.132.753.396 1.04.263.288.598.431 1.006.431.072 0 .143-.006.215-.018.072-.012.156-.018.252-.018.12.12.233.263.341.43.108.168.21.348.305.54-.12.19-.18.442-.18.753 0 .407.139.76.414 1.058.275.3.617.449 1.024.449.096.191.192.389.287.592.096.203.18.425.252.664-.407.359-.61.777-.61 1.256 0 .407.143.754.43 1.04a1.52 1.52 0 0 0 1.006.467c.048.24.09.467.126.682.036.215.078.419.126.61a1.29 1.29 0 0 0-.61.574 1.7 1.7 0 0 0-.217.826c0 .382.108.711.324.986.215.276.491.473.826.593.024.19.036.382.036.574v.61c-.742.263-1.113.825-1.113 1.686 0 .335.083.646.251.933.168.287.42.503.755.646l-.144 1.561a14.706 14.706 0 0 1-.252 1.633z" fill="#000"/><path d="M14.591 33.78H33.06c.12-.574.204-1.118.252-1.633l.144-1.56a1.548 1.548 0 0 1-.755-.647 1.818 1.818 0 0 1-.252-.933c0-.86.372-1.423 1.114-1.686v-.61a4.63 4.63 0 0 0-.036-.574 1.793 1.793 0 0 1-.826-.593 1.552 1.552 0 0 1-.324-.986 1.7 1.7 0 0 1 .216-.826 1.29 1.29 0 0 1 .61-.574 7.834 7.834 0 0 1-.125-.61 21.725 21.725 0 0 0-.126-.682 1.52 1.52 0 0 1-1.006-.466 1.417 1.417 0 0 1-.43-1.041c0-.479.203-.897.61-1.256a4.764 4.764 0 0 0-.252-.664c-.095-.203-.191-.4-.287-.592-.407 0-.749-.15-1.024-.449a1.511 1.511 0 0 1-.413-1.058c0-.311.06-.562.18-.754a5.723 5.723 0 0 0-.306-.538 2.572 2.572 0 0 0-.341-.43c-.096 0-.18.005-.252.017a1.318 1.318 0 0 1-.215.018c-.408 0-.743-.143-1.006-.43a1.485 1.485 0 0 1-.396-1.041 1.9 1.9 0 0 1 .018-.27.89.89 0 0 1 .09-.268c-2.802-2.512-6.36-3.768-10.671-3.768h-.36l-.143-.36a6.004 6.004 0 0 0-.593-.95c-.227-.3-.461-.58-.7-.843-.12.263-.228.526-.324.789a2.611 2.611 0 0 0-.144.897c0 .096.012.197.036.305.024.108.048.221.072.341 0 .048.006.09.018.126a.297.297 0 0 1 .018.09c.048.262.132.514.252.753.12.24.275.502.467.79.072.119.107.215.107.287 0 .263-.083.454-.251.574a.733.733 0 0 1-.45.071c-.155-.023-.293-.12-.412-.287-.503-.693-.827-1.387-.97-2.08-.168-.384-.551-.707-1.15-.97l-.036.287v.323c0 .12.006.222.018.305.012.084.042.186.09.305l.503.862c.12.263.227.496.323.7.096.203.144.412.144.627 0 .335-.078.634-.234.897a6.354 6.354 0 0 1-.593.826c-.335.43-.742.999-1.221 1.704-.48.706-.958 1.74-1.438 3.104A4.93 4.93 0 0 1 9.292 20c-.419.455-.832.861-1.239 1.22-.48.479-.868.915-1.168 1.31-.3.395-.449.831-.449 1.31 0 .096.006.197.018.305.012.107.03.221.054.34.12.48.305.844.557 1.095.251.251.653.425 1.203.52a.161.161 0 0 1 .108-.09.318.318 0 0 0 .144-.089c.216-.072.479-.251.79-.538.312-.287.527-.562.647-.826a.487.487 0 0 1 .324-.34.666.666 0 0 1 .503.017c.167.048.281.15.34.305.06.156.067.317.019.485-.072.191-.18.377-.324.556-.143.18-.287.365-.43.556.526-.072.981-.203 1.364-.395a3.48 3.48 0 0 0 .97-.7 4.05 4.05 0 0 0 .647-.878c.168-.311.312-.622.431-.933a5.573 5.573 0 0 0-.449-.27 1.76 1.76 0 0 1-.413-.305.553.553 0 0 1-.162-.448c.012-.18.078-.305.198-.377.335-.287.61-.287.826 0 .168.168.402.293.701.377.3.084.617.137.952.161.336.024.665.03.988.018.324-.012.605-.03.845-.054h.718a9.72 9.72 0 0 0 1.51-.107c.454-.072.862-.287 1.22-.646a.598.598 0 0 1 .504-.467.657.657 0 0 1 .323-.053c.096.011.204.041.324.09a.89.89 0 0 1 .18.448.505.505 0 0 1-.144.448v.036c-.072.55-.282 1.113-.63 1.687-.346.574-.76 1.166-1.239 1.776-.479.61-1.018 1.22-1.616 1.83a253.39 253.39 0 0 1-1.761 1.777 34.14 34.14 0 0 0-1.617 1.65c-.479.527-.778.921-.898 1.184-.12.216-.18.455-.18.718 0 .311.204.67.611 1.077z" fill="#fff"/><path d="M13.783 14.94a.574.574 0 0 1 .449-.18c.599 0 1.204.15 1.814.45.611.298 1 .711 1.168 1.237.048.192.036.353-.036.485a.556.556 0 0 1-.323.269c-.384.12-.659 0-.827-.359 0-.048-.024-.096-.072-.143 0 .334-.113.615-.34.843-.229.227-.51.34-.845.34-.312 0-.581-.119-.809-.358a1.163 1.163 0 0 1-.341-.826c0-.143.018-.287.054-.43a.847.847 0 0 1 .233-.395c-.12-.024-.197-.078-.233-.161a.773.773 0 0 1-.054-.305.67.67 0 0 1 .162-.467zM8.034 23.409c.108-.287.305-.574.593-.861.263-.287.539-.479.826-.574.288-.096.491-.096.611 0 .12.167.132.394.036.681-.096.287-.275.563-.539.826-.287.31-.569.514-.844.61-.276.095-.497.071-.665-.072-.12-.12-.126-.323-.018-.61z" fill="#000"/></svg>