<svg width="40" height="40" fill="none" xmlns="http://www.w3.org/2000/svg"><path d="M16.128 29.645a3 3 0 0 0 .114-.455c.025-.152.038-.33.038-.532 0-.304-.076-.607-.228-.911l-.266-.456a10.69 10.69 0 0 1-.398-.702c-.14-.266-.21-.64-.21-1.12 0-.81.077-1.45.229-1.918a6.77 6.77 0 0 1 .607-1.348c.127-.254.253-.52.38-.798.127-.279.247-.608.36-.987.115-.38.203-.836.266-1.367.064-.532.108-1.178.133-1.937h-6.19c-.202 0-.36-.063-.474-.19a.71.71 0 0 1-.171-.494c0-.48.152-.993.456-1.538a6.807 6.807 0 0 1 1.139-1.5 7.884 7.884 0 0 1 1.5-1.177c.544-.329 1.07-.544 1.576-.646a4.196 4.196 0 0 0 1.348-.588c.392-.266.728-.5 1.006-.703-.43-.633-.645-1.303-.645-2.012 0-.456.082-.88.246-1.272.165-.393.393-.735.684-1.026.29-.29.639-.525 1.044-.702A3.186 3.186 0 0 1 19.963 5c.456 0 .886.088 1.291.266.405.177.76.411 1.064.702.303.291.538.633.702 1.026.165.392.247.816.247 1.272 0 .709-.215 1.38-.646 2.012.254.203.589.437 1.007.703.417.266.88.462 1.386.588.506.102 1.031.317 1.576.646.544.33 1.038.722 1.48 1.177.444.456.81.956 1.102 1.5.291.545.437 1.057.437 1.538a.843.843 0 0 1-.133.494c-.089.127-.235.19-.437.19h-6.266c.026.76.076 1.405.152 1.937.076.531.171.987.285 1.367.114.38.234.709.36.987.127.278.267.544.418.797.203.43.387.88.551 1.349.165.468.247 1.107.247 1.917 0 .481-.076.855-.228 1.12-.152.266-.291.5-.418.703l-.265.456a2.022 2.022 0 0 0-.228.911c0 .203.019.38.057.532.038.152.07.304.095.455.405.026.993.108 1.765.247.773.14 1.538.38 2.298.722.76.342 1.424.816 1.994 1.424.57.608.854 1.38.854 2.316a.58.58 0 0 1-.209.475.783.783 0 0 1-.513.171H9.938c-.43 0-.646-.215-.646-.646 0-.936.279-1.709.835-2.316a5.978 5.978 0 0 1 1.975-1.424 9.89 9.89 0 0 1 2.279-.722c.76-.139 1.342-.221 1.747-.247zm8.62-16.822c-.886-.203-1.62-.526-2.202-.969-.582-.443-1.025-.829-1.33-1.158a.564.564 0 0 1-.151-.418c0-.202.063-.367.19-.493.48-.38.721-.886.721-1.52 0-.556-.196-1.025-.588-1.404a1.973 1.973 0 0 0-1.424-.57c-.557 0-1.02.19-1.386.57-.367.38-.551.848-.551 1.405 0 .278.05.55.152.816.101.266.266.5.494.703.1.076.19.24.265.493a.476.476 0 0 1-.227.418c-.304.33-.747.715-1.33 1.158-.582.443-1.29.766-2.126.969-.33.076-.677.209-1.044.398-.367.19-.71.425-1.026.703a7.43 7.43 0 0 0-.873.911c-.266.33-.462.646-.589.95h16.481a4.284 4.284 0 0 0-.57-.95 6.46 6.46 0 0 0-.854-.911 5.334 5.334 0 0 0-1.006-.703 4.167 4.167 0 0 0-1.026-.398zm4.557 20.886c-.202-.633-.626-1.133-1.272-1.5a9.22 9.22 0 0 0-2.032-.855 12.017 12.017 0 0 0-1.88-.398 34.72 34.72 0 0 0-.854-.095.522.522 0 0 1-.265-.095.574.574 0 0 1-.228-.285c-.026-.025-.102-.209-.228-.55-.127-.342-.19-.766-.19-1.273 0-.455.101-.95.304-1.48l.456-.646c.126-.152.221-.298.284-.437.064-.14.095-.348.095-.627 0-.658-.07-1.164-.209-1.519a10.52 10.52 0 0 0-.512-1.1c-.127-.28-.26-.577-.399-.893a8.994 8.994 0 0 1-.399-1.14 12.34 12.34 0 0 1-.322-1.556 18.676 18.676 0 0 1-.171-2.146h-3.038a18.68 18.68 0 0 1-.171 2.145 15.5 15.5 0 0 1-.304 1.558c-.114.442-.24.822-.38 1.139-.139.316-.285.614-.436.892a6.72 6.72 0 0 0-.475 1.101c-.114.355-.171.861-.171 1.52 0 .278.032.487.095.626.063.14.133.285.209.437l.455.645c.203.532.304 1.026.304 1.481 0 .507-.063.93-.19 1.272-.126.342-.19.526-.19.551-.126.253-.303.38-.531.38-.026 0-.31.031-.855.095-.544.063-1.164.196-1.86.398a8.932 8.932 0 0 0-1.994.855c-.633.367-1.05.867-1.253 1.5h18.607z" fill="#000"/><path d="M22.546 11.854c.582.443 1.316.766 2.202.969.33.076.672.208 1.026.398.354.19.69.424 1.006.703.317.278.601.582.855.911.253.33.443.646.57.95H11.722c.127-.304.323-.62.589-.95a7.43 7.43 0 0 1 .873-.911 5.084 5.084 0 0 1 1.026-.703c.367-.19.715-.322 1.044-.398.835-.203 1.544-.526 2.126-.969.583-.443 1.026-.829 1.33-1.158a.476.476 0 0 0 .227-.418c-.075-.253-.164-.417-.265-.493a1.781 1.781 0 0 1-.494-.703 2.275 2.275 0 0 1-.152-.816c0-.557.183-1.026.55-1.405.368-.38.83-.57 1.387-.57s1.031.19 1.424.57c.392.38.588.848.588 1.405 0 .633-.24 1.139-.721 1.519a.668.668 0 0 0-.19.493c0 .178.05.317.152.418.304.33.747.715 1.329 1.158zM28.033 32.209c.646.367 1.07.867 1.272 1.5H10.698c.202-.633.62-1.133 1.253-1.5a8.932 8.932 0 0 1 1.994-.855 11.539 11.539 0 0 1 1.86-.398c.545-.064.83-.095.855-.095.228 0 .405-.127.531-.38 0-.025.064-.209.19-.55.127-.342.19-.766.19-1.273 0-.455-.101-.95-.304-1.48l-.455-.646a13.063 13.063 0 0 1-.21-.437c-.063-.14-.094-.348-.094-.627 0-.658.057-1.164.17-1.519a6.72 6.72 0 0 1 .476-1.1c.151-.28.297-.577.436-.893.14-.317.266-.697.38-1.14a15.5 15.5 0 0 0 .304-1.556c.088-.596.145-1.31.17-2.146h3.039c.025.835.082 1.55.17 2.145.09.596.197 1.114.323 1.558.127.442.26.822.399 1.139.14.316.272.614.399.892.202.38.373.747.512 1.101.14.355.21.861.21 1.52 0 .278-.032.487-.096.626-.063.14-.158.285-.284.437l-.456.645c-.203.532-.304 1.026-.304 1.481 0 .507.063.93.19 1.272.127.342.203.526.228.551.05.127.126.222.228.285.1.063.19.095.265.095.026 0 .31.031.855.095.544.063 1.17.196 1.88.398a9.22 9.22 0 0 1 2.031.855z" fill="#fff"/></svg>