<svg width="40" height="40" fill="none" xmlns="http://www.w3.org/2000/svg"><path d="M5.647 12.311c.586 0 1.075.202 1.466.605.392.404.587.887.587 1.45 0 .415-.098.818-.293 1.21.758.44 1.51.929 2.255 1.466.746.538 1.4 1.088 1.962 1.65.147-.757.324-1.552.532-2.383.208-.831.44-1.669.697-2.512.257-.844.538-1.663.844-2.457.305-.795.63-1.535.972-2.22a1.992 1.992 0 0 1-.917-.788 2.15 2.15 0 0 1-.33-1.155c0-.611.207-1.119.623-1.522a2.08 2.08 0 0 1 1.504-.605c.61 0 1.124.202 1.54.605.416.403.623.91.623 1.522 0 .367-.091.715-.275 1.045a2.23 2.23 0 0 1-.715.789c.27.342.556.752.862 1.228.306.477.6.99.88 1.54.282.55.55 1.1.807 1.651.257.55.483 1.07.679 1.559a23.12 23.12 0 0 1 .696-1.559c.27-.55.544-1.1.826-1.65.28-.55.574-1.064.88-1.54.305-.478.593-.887.862-1.23a2.266 2.266 0 0 1-.77-.788 2.019 2.019 0 0 1-.294-1.045c0-.611.226-1.119.679-1.522.452-.403.96-.605 1.522-.605.61 0 1.13.202 1.558.605.428.403.642.91.642 1.522 0 .416-.122.8-.367 1.155a2.342 2.342 0 0 1-.88.789c.343.684.66 1.424.954 2.219.293.794.568 1.613.825 2.457.257.843.489 1.68.697 2.512.207.831.385 1.626.531 2.384a29.635 29.635 0 0 1 1.944-1.614 19.24 19.24 0 0 1 2.274-1.504 7.492 7.492 0 0 1-.257-.568 1.722 1.722 0 0 1-.11-.642c0-.562.208-1.045.624-1.449.416-.403.929-.605 1.54-.605.563 0 1.045.202 1.449.605.403.404.605.887.605 1.45 0 .562-.202 1.05-.605 1.466a1.948 1.948 0 0 1-1.449.624.851.851 0 0 1-.165-.019.851.851 0 0 0-.165-.018c-.367.88-.703 1.675-1.008 2.384a65.28 65.28 0 0 0-.826 1.999 48.832 48.832 0 0 0-.66 1.779l-.586 1.686c-.05.318-.11.703-.184 1.156-.073.452-.134.96-.183 1.522l-.33 2.494-.367 2.75c-.024.392-.208.728-.55 1.009-.343.281-.789.526-1.339.733-.55.208-1.167.386-1.852.532-.684.147-1.393.263-2.127.349a36.218 36.218 0 0 1-4.034.238c-.832 0-1.81-.043-2.934-.128a23.585 23.585 0 0 1-3.21-.459c-1.014-.22-1.882-.513-2.603-.88-.721-.367-1.107-.831-1.155-1.394l-.294-2.75-.367-2.494a20.85 20.85 0 0 0-.183-1.522c-.073-.452-.134-.837-.183-1.155a30.306 30.306 0 0 0-.569-1.687 96.538 96.538 0 0 0-.678-1.78c-.245-.623-.52-1.289-.826-1.998-.305-.709-.641-1.504-1.008-2.384a.604.604 0 0 0-.147.018.604.604 0 0 1-.147.019 1.89 1.89 0 0 1-1.43-.624 2.07 2.07 0 0 1-.587-1.467c0-.562.196-1.045.587-1.448a1.917 1.917 0 0 1 1.43-.606zm9.902-6.014c-.27 0-.483.08-.642.238-.159.159-.239.373-.239.642s.08.483.239.642c.159.159.373.238.642.238a.95.95 0 0 0 .642-.238c.183-.16.275-.373.275-.642s-.092-.483-.276-.642a.95.95 0 0 0-.641-.238zm8.802 0c-.27 0-.49.08-.66.238-.171.159-.257.373-.257.642s.085.483.257.642c.17.159.39.238.66.238a1 1 0 0 0 .678-.238c.184-.16.275-.373.275-.642s-.091-.483-.275-.642a1 1 0 0 0-.678-.238zm10.745 8.068a.76.76 0 0 0-.238-.587.766.766 0 0 0-.532-.22.926.926 0 0 0-.623.22.734.734 0 0 0-.257.587c0 .318.122.563.367.734a.81.81 0 0 1 .256.036.28.28 0 0 1 .11.037.326.326 0 0 0 .147.037c.196 0 .373-.08.532-.239a.82.82 0 0 0 .238-.605zm-5.5 10.16a58.691 58.691 0 0 0-4.878-1.468c-1.639-.415-3.228-.623-4.768-.623-1.492 0-3.063.207-4.713.623-1.65.416-3.282.905-4.896 1.467.049.269.098.575.147.917.049.342.098.697.146 1.064.563-.098 1.058-.086 1.486.036.428.122.69.318.788.587.074.294-.073.617-.44.972-.367.354-.868.617-1.504.788 0 .172.013.306.037.404l.11 1.32c.49-.293 1.106-.538 1.852-.733a22.13 22.13 0 0 1 2.347-.477c.82-.122 1.638-.208 2.458-.257a37.06 37.06 0 0 1 2.182-.073c.636 0 1.363.024 2.182.073.82.05 1.644.135 2.476.257.83.122 1.62.281 2.365.477.746.195 1.363.44 1.852.733l.147-1.32c0-.073.012-.14.037-.202a.54.54 0 0 0 .036-.201c-.636-.172-1.143-.434-1.522-.789-.379-.355-.544-.678-.495-.972.098-.269.367-.464.807-.587.44-.122.941-.134 1.504-.036.049-.367.091-.722.128-1.064.037-.342.08-.648.128-.917zm-9.646 9.278c1.467 0 2.738-.067 3.814-.202 1.076-.134 1.974-.293 2.695-.477.722-.183 1.26-.373 1.614-.568.355-.196.532-.355.532-.477s-.177-.281-.532-.477c-.354-.195-.892-.385-1.614-.568-.72-.184-1.62-.342-2.695-.477-1.076-.134-2.347-.202-3.814-.202-1.443 0-2.702.067-3.778.202s-1.974.293-2.695.477c-.722.183-1.266.373-1.632.568-.367.196-.563.355-.587.477.024.122.22.281.587.477.366.196.91.385 1.632.568.72.184 1.62.343 2.695.477 1.076.135 2.335.202 3.778.202zm-9.94-10.49a71.879 71.879 0 0 1 5.062-1.484c1.687-.428 3.313-.642 4.878-.642 1.613 0 3.264.214 4.95.642a67.39 67.39 0 0 1 5.025 1.485c.293-.93.63-1.864 1.009-2.806.379-.941.85-2.047 1.412-3.319a25.66 25.66 0 0 0-2.42 1.742c-.734.6-1.26 1.107-1.578 1.522a.397.397 0 0 1-.256.202.542.542 0 0 1-.367-.018c-.27-.05-.428-.22-.477-.514a35.288 35.288 0 0 0-.495-2.787 39.966 39.966 0 0 0-1.577-5.373c-.306-.819-.63-1.559-.972-2.219-.318.392-.685.948-1.1 1.669a32.28 32.28 0 0 0-1.174 2.237c-.367.77-.678 1.473-.935 2.109-.257.636-.385 1.064-.385 1.284 0 .195-.061.348-.184.458a.686.686 0 0 1-.476.165.658.658 0 0 1-.422-.165.56.56 0 0 1-.202-.458c0-.22-.128-.648-.385-1.284a38.432 38.432 0 0 0-.935-2.109 32.193 32.193 0 0 0-1.174-2.237c-.415-.721-.77-1.277-1.063-1.669-.318.66-.636 1.4-.954 2.22-.318.818-.611 1.68-.88 2.585a46.418 46.418 0 0 0-.734 2.787c-.22.954-.39 1.883-.513 2.787-.098.294-.257.465-.477.514-.244.098-.477.036-.697-.184-.268-.415-.764-.923-1.485-1.522A21.959 21.959 0 0 0 7.59 17.19a109.245 109.245 0 0 1 1.412 3.32c.38.94.715 1.876 1.009 2.805zM5.647 15.21a.325.325 0 0 0 .147-.037.327.327 0 0 1 .147-.037c.024-.024.086-.036.183-.036.22-.171.33-.416.33-.734 0-.538-.268-.807-.806-.807a.746.746 0 0 0-.55.22c-.147.147-.22.343-.22.587 0 .245.073.446.22.605.146.16.33.239.55.239z" fill="#000"/><path d="M5.793 15.172a.325.325 0 0 1-.147.037.717.717 0 0 1-.55-.239.857.857 0 0 1-.22-.605c0-.244.074-.44.22-.587a.746.746 0 0 1 .55-.22c.539 0 .807.27.807.807 0 .318-.11.563-.33.734-.097 0-.159.012-.183.036a.327.327 0 0 0-.147.037zM14.907 6.535c.159-.159.373-.238.642-.238a.95.95 0 0 1 .642.238c.183.159.275.373.275.642s-.092.483-.276.642a.95.95 0 0 1-.641.238c-.27 0-.483-.08-.642-.238-.159-.16-.239-.373-.239-.642s.08-.483.239-.642zM23.69 6.535c.172-.159.392-.238.66-.238a1 1 0 0 1 .68.238c.183.159.274.373.274.642s-.091.483-.275.642a1 1 0 0 1-.678.238c-.27 0-.49-.08-.66-.238-.171-.16-.257-.373-.257-.642s.085-.483.257-.642zM34.858 13.778a.76.76 0 0 1 .238.587.82.82 0 0 1-.238.605.736.736 0 0 1-.532.239.326.326 0 0 1-.147-.037.28.28 0 0 0-.11-.037.81.81 0 0 0-.256-.036c-.245-.171-.367-.416-.367-.734 0-.244.086-.44.257-.587a.926.926 0 0 1 .623-.22c.196 0 .373.074.532.22zM15.072 21.829a71.879 71.879 0 0 0-5.061 1.485c-.294-.93-.63-1.864-1.009-2.806-.379-.941-.85-2.047-1.412-3.319a21.959 21.959 0 0 1 2.44 1.742c.72.6 1.216 1.107 1.484 1.522.22.22.453.282.697.184.22-.05.38-.22.477-.514.122-.904.293-1.834.513-2.787.22-.954.465-1.883.734-2.787.269-.905.562-1.767.88-2.586.318-.819.636-1.559.954-2.219.293.392.648.948 1.063 1.669.416.721.807 1.467 1.174 2.237.366.77.678 1.473.935 2.109.257.636.385 1.064.385 1.284a.56.56 0 0 0 .202.458c.134.11.275.165.422.165a.686.686 0 0 0 .476-.165c.123-.11.184-.263.184-.458 0-.22.128-.648.385-1.284s.568-1.339.935-2.109a32.28 32.28 0 0 1 1.174-2.237c.415-.721.782-1.277 1.1-1.669.342.66.666 1.4.972 2.22a39.966 39.966 0 0 1 1.577 5.372c.208.954.373 1.883.495 2.787.049.294.208.465.477.514a.542.542 0 0 0 .366.018.397.397 0 0 0 .257-.202c.318-.415.844-.923 1.577-1.522.734-.599 1.54-1.18 2.42-1.742a109.016 109.016 0 0 0-1.411 3.32 38.779 38.779 0 0 0-1.009 2.805 67.39 67.39 0 0 0-5.024-1.485 20.094 20.094 0 0 0-4.951-.642c-1.565 0-3.191.214-4.878.642z" fill="#fff"/><path d="M24.718 23.057c1.638.416 3.264.905 4.877 1.467-.049.27-.091.575-.128.917-.037.342-.08.697-.128 1.064-.563-.098-1.064-.086-1.504.036-.44.123-.71.318-.807.587-.049.294.116.617.495.972.38.354.887.617 1.522.788a.54.54 0 0 1-.037.202.537.537 0 0 0-.036.202l-.147 1.32c-.489-.293-1.106-.538-1.852-.733a21.848 21.848 0 0 0-2.365-.477 28.824 28.824 0 0 0-2.476-.257 37.06 37.06 0 0 0-2.182-.073c-.636 0-1.363.024-2.182.073-.82.05-1.639.135-2.458.257a22.13 22.13 0 0 0-2.347.477c-.745.195-1.363.44-1.852.733l-.11-1.32a1.738 1.738 0 0 1-.037-.404c.636-.17 1.137-.434 1.504-.788.367-.355.514-.678.44-.972-.098-.269-.36-.465-.788-.587-.428-.122-.923-.134-1.486-.036-.049-.367-.097-.722-.146-1.064a24.702 24.702 0 0 0-.147-.917 57.637 57.637 0 0 1 4.896-1.467c1.65-.416 3.221-.623 4.713-.623 1.54 0 3.13.207 4.768.623z" fill="#fff"/><path d="M18.354 26.908c.453.22 1.021.33 1.706.33.66 0 1.228-.11 1.705-.33.477-.22.715-.489.715-.807 0-.367-.238-.66-.715-.88-.477-.22-1.045-.33-1.705-.33-.685 0-1.253.11-1.706.33-.452.22-.678.514-.678.88 0 .318.226.587.678.807z" fill="#000"/><path d="M23.764 33.601c-1.076.135-2.347.202-3.814.202-1.443 0-2.702-.067-3.778-.202-1.076-.134-1.974-.293-2.695-.477-.722-.183-1.266-.373-1.632-.568-.367-.196-.563-.355-.587-.477.024-.122.22-.281.587-.477.366-.195.91-.385 1.632-.568.72-.184 1.62-.342 2.695-.477 1.076-.134 2.335-.202 3.778-.202 1.467 0 2.738.067 3.814.202s1.974.293 2.695.477c.722.183 1.26.373 1.614.568.355.196.532.355.532.477s-.177.281-.532.477c-.354.196-.892.385-1.614.568-.72.184-1.62.343-2.695.477z" fill="#fff"/></svg>