<svg width="40" height="40" fill="none" xmlns="http://www.w3.org/2000/svg"><path d="M11.99 25.294V13.897a14.717 14.717 0 0 1-.534-.607c-.282-.33-.588-.68-.919-1.047-.33-.368-.625-.693-.882-.975l-.386-.423V5h4.044v2.573h3.934V5h5.44v2.573h3.934V5h4.118v5.845l-.386.423-.882.975c-.588.65-.907.998-.956 1.047-.05.05-.24.252-.57.607v11.397c.049.05.233.3.552.754.318.453.686.968 1.102 1.544.417.576.834 1.17 1.25 1.783.417.613.76 1.11 1.03 1.489.27.38.416.582.441.607V35H7.688v-3.53c.024-.024.165-.226.422-.606.258-.38.601-.876 1.03-1.489l1.25-1.783c.404-.576.76-1.09 1.066-1.544.306-.454.484-.705.533-.754zm17.5-14.853V6.287h-1.582V8.86h-6.47V6.287h-2.942V8.86h-6.47V6.287h-1.508v4.154l.368.368.644.698c.428.466.667.742.716.828.05.085.258.312.625.68h14.192c.196-.172.416-.399.661-.68.245-.282.49-.558.736-.828.245-.27.465-.502.661-.698l.368-.368zM13.24 24.853h13.455V14.265H13.239v10.588zM8.937 33.75h22.095v-1.838a109.828 109.828 0 0 0-1.728-2.463c-.441-.613-.876-1.232-1.305-1.857-.429-.625-.766-1.11-1.01-1.452H12.944c-.245.343-.582.827-1.01 1.452-.43.625-.859 1.244-1.288 1.857a393.336 393.336 0 0 0-1.71 2.463v1.838z" fill="#000"/><path d="M29.49 6.287v4.154l-.369.368c-.196.196-.416.429-.661.698-.245.27-.49.546-.736.828a7.143 7.143 0 0 1-.662.68H12.872c-.367-.368-.576-.595-.625-.68-.049-.086-.288-.362-.716-.828l-.644-.698-.367-.368V6.287h1.507V8.86h6.47V6.287h2.942V8.86h6.47V6.287h1.581zM26.695 24.853H13.239V14.265h13.456v10.588zM31.033 33.75H8.938v-1.838a393.336 393.336 0 0 1 1.71-2.463c.428-.613.857-1.232 1.286-1.857.429-.625.766-1.11 1.011-1.452H26.99c.245.343.582.827 1.011 1.452.429.625.864 1.244 1.305 1.857a109.828 109.828 0 0 1 1.728 2.463v1.838z" fill="#fff"/></svg>