<svg width="84" height="84" viewBox="0 0 84 84" fill="none" xmlns="http://www.w3.org/2000/svg">
<g clip-path="url(#clip0_25357_238558)">
<rect width="84" height="84" rx="4"/>
<path d="M21.1489 75.4462L24.7674 62.2179L44.3334 62.2148V75.4462H21.1489Z" fill="#34C759"/>
<path d="M28.4424 48.2562L30.9887 38.4944L44.7575 38.4922V48.2562H28.4424Z" fill="#34C759"/>
<path d="M9.4151 34.0619L-20.4258 105.951C-20.6991 106.609 -20.2152 107.334 -19.5022 107.334H103.463C104.186 107.334 104.67 106.59 104.377 105.929L72.5202 34.0402C72.3599 33.6785 72.0015 33.4453 71.6059 33.4453H10.3387C9.9345 33.4453 9.57005 33.6886 9.4151 34.0619Z" stroke="#34C759"/>
<path d="M16.3884 38.7232L-7.19745 95.0565C-7.47332 95.7154 -6.98936 96.4427 -6.27504 96.4427H91.0132C91.7378 96.4427 92.2218 95.6961 91.9261 95.0346L66.7466 38.7013C66.5857 38.3412 66.2281 38.1094 65.8337 38.1094H17.3108C16.9078 38.1094 16.5441 38.3514 16.3884 38.7232Z" stroke="#6F6F6F"/>
<line x1="12.504" y1="48.4806" x2="70.8958" y2="48.4935" stroke="#6F6F6F" stroke-linecap="round"/>
<line x1="6.98245" y1="61.7188" x2="76.7602" y2="61.7232" stroke="#6F6F6F" stroke-linecap="round"/>
<line x1="1.27783" y1="75.7227" x2="60.9445" y2="75.7227" stroke="#6F6F6F" stroke-linecap="round"/>
<line x1="0.5" y1="-0.5" x2="53.2075" y2="-0.5" transform="matrix(-0.263591 0.964635 -0.964172 -0.265278 30.6372 37.7852)" stroke="#6F6F6F" stroke-linecap="round"/>
<line x1="44.8335" y1="38.6094" x2="44.8335" y2="84.276" stroke="#6F6F6F" stroke-linecap="round"/>
<line x1="0.5" y1="-0.5" x2="30.6111" y2="-0.5" transform="matrix(0.290249 0.956951 -0.956395 0.292077 55.9956 38.2539)" stroke="#6F6F6F" stroke-linecap="round"/>
<path d="M28.8032 70.0004C28.7863 69.7994 28.7778 69.4056 28.7778 68.8192C28.7778 66.7081 29.4378 65.1415 30.7576 64.1195C31.1468 63.8011 31.6206 63.5079 32.179 63.2399C31.5191 63.0388 31.0707 62.5445 30.8338 61.7571C30.7661 61.5057 30.7323 61.246 30.7323 60.9779C30.7323 59.8554 31.316 59.0595 32.4836 58.5904C32.179 58.0877 32.0267 57.6102 32.0267 57.1578C32.0267 56.4039 32.399 55.8426 33.1435 55.474C33.4819 55.3064 33.8458 55.2227 34.235 55.2227C35.081 55.2227 35.7071 55.5494 36.1132 56.2028C36.2994 56.4876 36.3924 56.806 36.3924 57.1578C36.3924 57.6437 36.2486 58.1212 35.9609 58.5904C36.587 58.8417 37.0354 59.1768 37.3062 59.5957C37.5769 60.0481 37.7123 60.5088 37.7123 60.9779C37.7123 61.8492 37.4077 62.511 36.7986 62.9634C36.6462 63.0974 36.477 63.1896 36.2909 63.2399C37.8477 64.0273 38.8545 65.0578 39.3114 66.3311C39.5483 67.0348 39.6667 67.8642 39.6667 68.8192C39.6667 69.4056 39.6582 69.7994 39.6413 70.0004H28.8032Z" fill="#6F6F6F"/>
</g>
<defs>
<clipPath id="clip0_25357_238558">
<rect width="84" height="84" fill="white"/>
</clipPath>
</defs>
</svg>
