<svg width="335" height="248" viewBox="0 0 335 248" fill="none" xmlns="http://www.w3.org/2000/svg">
<line x1="178.5" y1="171" x2="178.5" y2="56" stroke="#050505"/>
<path d="M224 144L224 37" stroke="#050505"/>
<path d="M133.5 170.5V88" stroke="#050505"/>
<path d="M259 79L154 79" stroke="#050505"/>
<line x1="247" y1="124.5" x2="123" y2="124.5" stroke="#050505"/>
<line x1="204" y1="170.5" x2="123" y2="170.5" stroke="#050505"/>
<ellipse cx="93.5022" cy="167.015" rx="3.52564" ry="4.0146" fill="#050505"/>
<rect x="90.6797" y="170.387" width="5.78205" height="2.56934" rx="1.28467" fill="#050505"/>
<rect x="88" y="182.43" width="11" height="2.56934" rx="1" fill="#050505"/>
<path d="M89.125 179.379H97.8686V179.912C97.8686 181.569 96.5254 182.912 94.8686 182.912H92.125C90.4681 182.912 89.125 181.569 89.125 179.912V179.379Z" fill="#050505"/>
<path d="M93.7812 179.381L93.6261 172.797H91.2992C91.2992 173.537 91.3429 175.463 90.7563 177.008C90.2909 178.232 89.5411 179.1 89.1274 179.381H93.7812Z" fill="#050505"/>
<path d="M93.2188 179.381L93.3739 172.797H95.7008C95.7008 173.537 95.6571 175.463 96.2438 177.008C96.7091 178.232 97.4589 179.1 97.8726 179.381H93.2188Z" fill="#050505"/>
<path d="M194.412 103.388C194.725 103.388 194.881 103.589 194.881 103.99C194.881 104.519 194.602 104.784 194.044 104.784C193.82 104.784 193.709 104.614 193.709 104.276C193.709 103.684 193.943 103.388 194.412 103.388ZM197.092 93.5527C197.181 93.8488 197.226 94.0497 197.226 94.1555C197.226 94.2189 197.193 94.3881 197.126 94.6631C197.483 94.6631 197.974 94.4939 198.6 94.1555C197.997 93.8594 197.494 93.6584 197.092 93.5527ZM211.866 110.875H197.829C197.918 109.416 198.499 108.02 199.571 106.687C200.398 105.63 200.889 104.985 201.045 104.752C201.358 104.287 201.548 103.726 201.615 103.07C200.163 103.663 199.035 104.509 198.231 105.609L197.762 106.338C197.427 106.846 197.215 107.131 197.126 107.195C196.992 107.301 196.846 107.353 196.69 107.353C195.998 107.353 195.529 107.131 195.283 106.687C195.238 106.624 195.216 106.55 195.216 106.465C194.993 106.571 194.769 106.624 194.546 106.624C193.474 106.624 192.625 105.989 192 104.72C192.179 103.79 193.117 101.643 194.814 98.2798C194.993 97.9626 195.127 97.7088 195.216 97.5184C195.886 96.1013 196.221 95.0332 196.221 94.3141C196.221 94.2083 196.154 93.6161 196.02 92.5374H196.288C197.494 92.5374 198.644 92.897 199.739 93.6161C200.342 92.622 200.844 92.125 201.246 92.125C201.961 92.4846 202.452 92.9922 202.72 93.6478L203.089 94.6948C203.312 94.6525 203.502 94.6313 203.658 94.6313C205.445 94.6313 207.209 95.71 208.951 97.8674C210.984 100.384 212 103.832 212 108.21C212 109.204 211.955 110.092 211.866 110.875Z" fill="white"/>
<path d="M196.592 99.5422C197.147 99.5422 197.735 99.2345 198.356 98.6191C198.689 98.3007 198.855 98.0248 198.855 97.7914C198.855 97.5155 198.589 97.3775 198.057 97.3775C197.435 97.3775 196.914 97.6428 196.493 98.1734C196.271 98.4281 196.16 98.6933 196.16 98.9692C196.16 99.3512 196.304 99.5422 196.592 99.5422ZM196.027 92.5707C196.071 92.5707 196.182 92.5601 196.359 92.5388C197.358 92.5388 198.423 92.8572 199.554 93.4938C199.687 93.5787 199.754 93.6212 199.754 93.6212C200.397 92.6237 200.885 92.125 201.218 92.125C201.928 92.507 202.394 92.9208 202.616 93.3665C202.727 93.5787 202.893 94.0244 203.115 94.7035C203.292 94.6611 203.47 94.6399 203.647 94.6399C205.511 94.6399 207.286 95.7328 208.972 97.9187C210.991 100.444 212 103.882 212 108.233C212 109.209 211.956 110.09 211.867 110.875H197.824C197.868 109.453 198.412 108.105 199.454 106.832C199.565 106.662 199.72 106.471 199.92 106.259C200.741 105.262 201.24 104.498 201.418 103.967C201.506 103.691 201.573 103.405 201.617 103.108C200.153 103.659 199.055 104.476 198.323 105.559C197.99 106.089 197.624 106.641 197.225 107.214C197.114 107.384 196.947 107.469 196.725 107.469C196.171 107.469 195.894 107.14 195.894 106.482C195.672 106.758 195.417 106.896 195.128 106.896C195.128 106.896 194.906 106.843 194.463 106.737C193.509 106.503 192.832 106.1 192.433 105.527C192.3 105.336 192.155 105.081 192 104.763C192.155 103.85 192.921 102.036 194.296 99.3194C195.295 97.3669 195.916 95.9663 196.16 95.1174C196.182 94.9264 196.193 94.6505 196.193 94.2897C196.193 93.9926 196.138 93.4196 196.027 92.5707ZM194.03 103.744C193.498 103.744 193.143 103.967 192.965 104.413C192.921 104.519 192.899 104.625 192.899 104.731C192.899 104.816 192.932 104.922 192.998 105.049C193.575 105.049 193.93 104.816 194.063 104.349C194.085 104.285 194.097 104.211 194.097 104.126C194.097 104.084 194.074 103.956 194.03 103.744ZM210.369 108.647V107.469C210.369 104.01 209.449 101.176 207.607 98.9692C206.01 97.0592 204.557 96.1042 203.248 96.1042C203.248 96.1042 203.115 96.083 202.849 96.0405C202.804 96.0618 202.771 96.083 202.749 96.1042C202.46 96.1042 202.316 96.2209 202.316 96.4544C202.316 96.5393 202.383 96.6454 202.516 96.7727C203.714 96.8788 205.023 97.6959 206.443 99.2239C208.24 101.219 209.138 104.105 209.138 107.883C209.138 107.883 209.138 107.946 209.138 108.074C209.138 109.007 209.349 109.474 209.77 109.474C210.125 109.474 210.325 109.198 210.369 108.647Z" fill="#050505"/>
<path d="M118.514 98.5737L114.508 85.4576L142.114 100.147L127.425 127.753L123.37 114.476C99.0262 123.964 82.8586 143.089 83.1039 161.415C81.5726 159.076 80.3662 156.538 79.5347 153.815C73.2563 133.26 90.451 109.51 118.514 98.5737Z" fill="#34C759"/>
<path d="M240.57 178.216L237.248 191.521L264.058 175.425L247.962 148.614L244.598 162.084C219.796 153.866 202.662 135.602 201.96 117.288C200.551 119.703 199.478 122.301 198.788 125.062C193.58 145.915 211.98 168.744 240.57 178.216Z" fill="#34C759"/>
</svg>
