<svg width="292" height="248" viewBox="0 0 292 248" fill="none" xmlns="http://www.w3.org/2000/svg">
<path d="M95.5 168.062L95.5 44.0625" stroke="#050505"/>
<path d="M142.5 132L142.5 25" stroke="#050505"/>
<path d="M48.5 172.062L48.5 94.0625" stroke="#050505"/>
<path d="M175.969 65.5625L70.9688 65.5625" stroke="#050505"/>
<line x1="164" y1="112.562" x2="40" y2="112.562" stroke="#050505"/>
<line x1="121" y1="159.562" x2="40" y2="159.562" stroke="#050505"/>
<path d="M118.579 32.9141C119.38 32.9141 119.936 33.2947 120.248 34.056L120.414 34.7481V34.8519C120.414 34.9903 120.325 35.2787 120.148 35.717C119.836 36.6628 119.68 37.4818 119.68 38.1739C119.68 39.3043 119.925 40.9768 120.414 43.1914C121.616 40.5615 122.216 38.5776 122.216 37.2396L122.016 35.7516C122.016 34.9442 122.361 34.3674 123.051 34.0214C123.295 33.883 123.562 33.8138 123.852 33.8138C124.652 33.8138 125.22 34.1829 125.553 34.9211C125.687 35.1979 125.754 35.4748 125.754 35.7516C125.754 36.3514 125.553 36.8243 125.153 37.1703C124.552 37.7932 124.241 38.8083 124.219 40.2155C124.219 40.8153 124.274 41.7842 124.385 43.1222C125.831 41.5766 126.554 40.3193 126.554 39.3504L126.388 38.0008C126.388 37.2396 126.721 36.6744 127.389 36.3053C127.656 36.1438 127.934 36.063 128.223 36.063C128.979 36.063 129.547 36.4206 129.925 37.1357L130.125 37.7932V38.0008C130.125 38.9467 129.613 39.6618 128.59 40.1463C128.545 41.1383 128.178 43.0876 127.489 45.9944C127.444 46.1328 127.411 46.2597 127.389 46.375C127.389 46.698 127.033 47.2516 126.321 48.036C125.364 49.028 124.886 49.8008 124.886 50.3545C124.886 50.6082 125.153 51.2888 125.687 52.3961C125.776 52.6037 125.82 52.9152 125.82 53.3304V53.5726C125.798 53.6418 125.787 53.7226 125.787 53.8149V53.8495L125.82 53.8841C125.82 54.7146 123.674 55.176 119.38 55.2682C119.091 55.2682 118.813 55.2682 118.546 55.2682L117.144 55.2336H117.111C115.02 55.1644 113.429 54.9799 112.339 54.68C111.649 54.4723 111.305 54.2071 111.305 53.8841C111.327 53.861 111.327 53.7226 111.305 53.4688C111.282 53.4227 111.282 53.3766 111.305 53.3304C111.305 52.7998 111.471 52.1885 111.805 51.4964C112.072 50.9427 112.206 50.5621 112.206 50.3545C112.206 49.9854 112.017 49.547 111.638 49.0395L110.003 47.1017C109.825 46.8479 109.736 46.6057 109.736 46.375C109.047 43.4452 108.657 41.542 108.568 40.6653C108.546 40.4808 108.535 40.3078 108.535 40.1463C107.512 39.6618 107 38.9467 107 38.0008C107 37.2396 107.334 36.6744 108.001 36.3053C108.29 36.1438 108.579 36.063 108.869 36.063C109.647 36.063 110.203 36.4321 110.537 37.1703C110.671 37.4241 110.737 37.7009 110.737 38.0008L110.571 39.3504C110.571 40.3655 111.282 41.6227 112.706 43.1222C112.817 42.1072 112.873 41.1383 112.873 40.2155C112.873 38.9467 112.728 38.1047 112.439 37.6894C112.328 37.5279 112.161 37.3434 111.939 37.1357C111.538 36.8589 111.338 36.3975 111.338 35.7516C111.338 34.9442 111.705 34.3559 112.439 33.9868C112.684 33.8714 112.951 33.8138 113.24 33.8138C114.019 33.8138 114.575 34.1829 114.909 34.9211C115.042 35.1749 115.109 35.4517 115.109 35.7516L114.909 37.205V37.2396C114.909 38.5545 115.509 40.5385 116.711 43.1914C117.178 41.0921 117.411 39.4196 117.411 38.1739C117.411 37.2511 117.244 36.3745 116.911 35.544C116.777 35.221 116.71 34.9903 116.711 34.8519C116.71 34.0445 117.066 33.4677 117.778 33.1217C118.023 32.9833 118.29 32.9141 118.579 32.9141Z" fill="white"/>
<path d="M117.812 47.4823H119.28C119.614 47.4823 120.014 47.4939 120.481 47.5169L123.785 47.7246H123.818C124.219 47.7246 124.419 47.6669 124.419 47.5515V47.4131C124.419 46.7211 122.939 46.2712 119.981 46.0636C119.447 46.0174 118.98 45.9944 118.579 45.9944C116.399 45.9944 114.719 46.2251 113.54 46.6865C113.006 46.8941 112.74 47.1363 112.74 47.4131V47.5515C112.74 47.6669 112.94 47.7246 113.34 47.7246L117.812 47.4823ZM123.985 49.0395C122.228 48.8088 120.426 48.6935 118.579 48.6935C116.644 48.6935 114.842 48.8088 113.173 49.0395C113.44 49.2702 113.574 49.7201 113.574 50.3891C113.574 50.8274 113.507 51.0927 113.374 51.185C114.708 50.9312 116.444 50.8043 118.579 50.8043C120.715 50.8043 122.45 50.9312 123.785 51.185C123.651 51.0927 123.585 50.8274 123.585 50.3891C123.585 49.7201 123.718 49.2702 123.985 49.0395ZM118.579 52.0155C117.445 52.0155 116.177 52.0731 114.775 52.1885C113.685 52.2808 113.14 52.5461 113.14 52.9844C113.14 53.5611 114.953 53.8495 118.579 53.8495C122.205 53.8495 124.018 53.5611 124.018 52.9844C124.018 52.7998 123.874 52.6268 123.585 52.4653C122.739 52.1654 121.071 52.0155 118.579 52.0155ZM118.579 33.9176C118.023 33.9176 117.745 34.1944 117.745 34.7481C117.745 35.3479 118.023 35.6478 118.579 35.6478C119.113 35.6478 119.38 35.3479 119.38 34.7481C119.38 34.1944 119.113 33.9176 118.579 33.9176ZM118.579 32.9141C119.38 32.9141 119.936 33.2947 120.248 34.056L120.414 34.7481V34.8519C120.414 34.9903 120.325 35.2787 120.148 35.717C119.836 36.6628 119.68 37.4818 119.68 38.1739C119.68 39.3043 119.925 40.9768 120.414 43.1914C121.616 40.5615 122.216 38.5776 122.216 37.2396L122.016 35.7516C122.016 34.9442 122.361 34.3674 123.051 34.0214C123.295 33.883 123.562 33.8138 123.852 33.8138C124.652 33.8138 125.22 34.1829 125.553 34.9211C125.687 35.1979 125.754 35.4748 125.754 35.7516C125.754 36.3514 125.553 36.8243 125.153 37.1703C124.552 37.7932 124.241 38.8083 124.219 40.2155C124.219 40.8153 124.274 41.7842 124.385 43.1222C125.831 41.5766 126.554 40.3193 126.554 39.3504L126.388 38.0008C126.388 37.2396 126.721 36.6744 127.389 36.3053C127.656 36.1438 127.934 36.063 128.223 36.063C128.979 36.063 129.547 36.4206 129.925 37.1357L130.125 37.7932V38.0008C130.125 38.9467 129.613 39.6618 128.59 40.1463C128.545 41.1383 128.178 43.0876 127.489 45.9944C127.444 46.1328 127.411 46.2597 127.389 46.375C127.389 46.698 127.033 47.2516 126.321 48.036C125.364 49.028 124.886 49.8008 124.886 50.3545C124.886 50.6082 125.153 51.2888 125.687 52.3961C125.776 52.6037 125.82 52.9152 125.82 53.3304V53.5726C125.798 53.6418 125.787 53.7226 125.787 53.8149V53.8495L125.82 53.8841C125.82 54.7146 123.674 55.176 119.38 55.2682C119.091 55.2682 118.813 55.2682 118.546 55.2682L117.144 55.2336H117.111C115.02 55.1644 113.429 54.9799 112.339 54.68C111.649 54.4723 111.305 54.2071 111.305 53.8841C111.327 53.861 111.327 53.7226 111.305 53.4688C111.282 53.4227 111.282 53.3766 111.305 53.3304C111.305 52.7998 111.471 52.1885 111.805 51.4964C112.072 50.9427 112.206 50.5621 112.206 50.3545C112.206 49.9854 112.017 49.547 111.638 49.0395L110.003 47.1017C109.825 46.8479 109.736 46.6057 109.736 46.375C109.047 43.4452 108.657 41.542 108.568 40.6653C108.546 40.4808 108.535 40.3078 108.535 40.1463C107.512 39.6618 107 38.9467 107 38.0008C107 37.2396 107.334 36.6744 108.001 36.3053C108.29 36.1438 108.579 36.063 108.869 36.063C109.647 36.063 110.203 36.4321 110.537 37.1703C110.671 37.4241 110.737 37.7009 110.737 38.0008L110.571 39.3504C110.571 40.3655 111.282 41.6227 112.706 43.1222C112.817 42.1072 112.873 41.1383 112.873 40.2155C112.873 38.9467 112.728 38.1047 112.439 37.6894C112.328 37.5279 112.161 37.3434 111.939 37.1357C111.538 36.8589 111.338 36.3975 111.338 35.7516C111.338 34.9442 111.705 34.3559 112.439 33.9868C112.684 33.8714 112.951 33.8138 113.24 33.8138C114.019 33.8138 114.575 34.1829 114.909 34.9211C115.042 35.1749 115.109 35.4517 115.109 35.7516L114.909 37.205V37.2396C114.909 38.5545 115.509 40.5385 116.711 43.1914C117.178 41.0921 117.411 39.4196 117.411 38.1739C117.411 37.2511 117.244 36.3745 116.911 35.544C116.777 35.221 116.71 34.9903 116.711 34.8519C116.71 34.0445 117.066 33.4677 117.778 33.1217C118.023 32.9833 118.29 32.9141 118.579 32.9141ZM128.223 37.1703C127.867 37.1703 127.611 37.3549 127.455 37.724C127.433 37.8163 127.422 37.9086 127.422 38.0008C127.422 38.4622 127.622 38.7506 128.023 38.8659C128.089 38.889 128.156 38.9005 128.223 38.9005C128.779 38.9005 129.057 38.6007 129.057 38.0008C129.057 37.4472 128.779 37.1703 128.223 37.1703ZM123.852 34.9557C123.473 34.9557 123.218 35.1518 123.084 35.544L123.051 35.8208C123.051 36.236 123.24 36.5129 123.618 36.6513C123.685 36.6744 123.763 36.6859 123.852 36.6859C124.43 36.6859 124.719 36.3975 124.719 35.8208C124.719 35.2441 124.43 34.9557 123.852 34.9557ZM113.24 34.9557C112.684 34.9557 112.406 35.2441 112.406 35.8208C112.406 36.3975 112.684 36.6859 113.24 36.6859C113.774 36.6859 114.041 36.3975 114.041 35.8208C114.041 35.2441 113.774 34.9557 113.24 34.9557ZM108.869 37.1703C108.313 37.1703 108.034 37.4472 108.034 38.0008C108.034 38.6007 108.313 38.9005 108.869 38.9005C109.403 38.9005 109.67 38.6007 109.67 38.0008C109.67 37.6087 109.48 37.3434 109.102 37.205C109.036 37.1819 108.958 37.1703 108.869 37.1703ZM118.579 39.385C118.268 41.4151 117.867 42.88 117.378 43.7797L116.877 44.6102V44.6448C116.811 44.5756 116.521 44.2296 116.01 43.6067C115.365 42.8223 114.686 41.3344 113.974 39.1428C114.019 39.4657 114.041 39.8003 114.041 40.1463C114.041 41.2306 113.852 42.9031 113.474 45.1639C112.272 44.4257 111.104 43.2491 109.97 41.6343C110.348 43.6182 110.637 44.9216 110.837 45.5445C110.971 46.0059 111.138 46.2712 111.338 46.3404C113.162 45.2562 115.576 44.714 118.579 44.714C121.605 44.714 124.018 45.2562 125.82 46.3404C126.221 46.202 126.666 44.6333 127.155 41.6343C125.998 43.2953 124.841 44.4718 123.685 45.1639C123.306 43.1568 123.117 41.5766 123.117 40.4231C123.117 40.1232 123.14 39.6964 123.184 39.1428C122.739 40.5269 122.228 41.7611 121.649 42.8454C121.338 43.3299 120.993 43.7912 120.615 44.2296C120.437 44.4141 120.325 44.5525 120.281 44.6448L119.547 43.2953C119.525 43.203 119.491 43.1107 119.447 43.0184C119.269 42.5109 118.98 41.2998 118.579 39.385Z" fill="#050505"/>
<path d="M113.064 142.783C113.064 143.152 113.32 143.337 113.831 143.337L116.13 143.164C116.13 143.164 116.796 143.129 118.129 143.06H118.629L122.528 143.268L123.327 143.337C123.838 143.337 124.094 143.152 124.094 142.783C124.094 142.114 122.605 141.745 119.629 141.676H118.596C116.086 141.676 114.408 141.872 113.564 142.264C113.231 142.403 113.064 142.576 113.064 142.783ZM108.899 128.319C108.477 128.319 108.211 128.538 108.1 128.976C108.077 129.045 108.066 129.115 108.066 129.184C108.066 129.622 108.277 129.899 108.699 130.014C108.766 130.037 108.833 130.049 108.899 130.049C109.432 130.049 109.699 129.761 109.699 129.184C109.699 128.607 109.432 128.319 108.899 128.319ZM113.264 126.139C112.687 126.139 112.398 126.427 112.398 127.004C112.398 127.581 112.687 127.869 113.264 127.869C113.798 127.869 114.064 127.581 114.064 127.004C114.064 126.427 113.798 126.139 113.264 126.139ZM123.894 126.139C123.516 126.139 123.261 126.335 123.128 126.727L123.094 127.004C123.094 127.581 123.361 127.869 123.894 127.869C124.449 127.869 124.727 127.581 124.727 127.004C124.727 126.427 124.449 126.139 123.894 126.139ZM128.226 128.319C127.693 128.319 127.426 128.607 127.426 129.184C127.426 129.761 127.693 130.049 128.226 130.049C128.781 130.049 129.059 129.761 129.059 129.184C129.059 128.746 128.848 128.469 128.426 128.353C128.359 128.33 128.292 128.319 128.226 128.319ZM125.827 144.859C125.827 145.505 124.682 145.955 122.394 146.209L119.162 146.417H118.562C115.852 146.417 113.786 146.174 112.365 145.69C111.676 145.482 111.332 145.206 111.332 144.859C111.332 144.19 111.509 143.429 111.865 142.576C112.109 142.068 112.231 141.711 112.231 141.503C112.231 141.065 111.721 140.211 110.699 138.942C110.143 138.273 109.821 137.812 109.732 137.558C109.732 137.42 109.666 137.108 109.532 136.624L109.099 134.894C108.81 133.763 108.622 132.564 108.533 131.295C107.511 130.856 107 130.153 107 129.184C107 128.353 107.367 127.765 108.1 127.419C108.344 127.304 108.611 127.246 108.899 127.246C109.632 127.246 110.177 127.592 110.532 128.284C110.688 128.584 110.765 128.884 110.765 129.184L110.599 130.499C110.599 131.537 111.31 132.806 112.731 134.305C112.842 133.359 112.898 132.367 112.898 131.329C112.898 129.784 112.631 128.803 112.098 128.388C112.054 128.342 112.009 128.307 111.965 128.284C111.565 128.03 111.365 127.581 111.365 126.935C111.365 126.081 111.743 125.493 112.498 125.17C112.742 125.054 112.998 124.997 113.264 124.997C114.042 124.997 114.597 125.366 114.93 126.104C115.064 126.358 115.13 126.635 115.13 126.935L114.897 128.423C114.897 129.714 115.508 131.687 116.73 134.34C117.196 132.171 117.43 130.51 117.43 129.357C117.43 128.388 117.263 127.5 116.93 126.692C116.796 126.393 116.73 126.162 116.73 126C116.73 125.147 117.096 124.558 117.829 124.236C118.074 124.12 118.329 124.062 118.596 124.062C119.373 124.062 119.918 124.443 120.229 125.204C120.34 125.458 120.395 125.723 120.395 126C120.395 126.046 120.206 126.658 119.829 127.834C119.74 128.134 119.695 128.642 119.695 129.357C119.695 130.51 119.929 132.171 120.395 134.34C121.595 131.71 122.194 129.738 122.195 128.423L121.995 126.969V126.935C121.995 126.081 122.372 125.493 123.128 125.17C123.372 125.054 123.627 124.997 123.894 124.997C124.671 124.997 125.227 125.366 125.56 126.104C125.693 126.358 125.76 126.635 125.76 126.935C125.76 127.581 125.56 128.042 125.16 128.319C124.538 128.734 124.227 129.749 124.227 131.364C124.227 132.379 124.283 133.359 124.394 134.305C125.815 132.806 126.526 131.537 126.526 130.499L126.36 129.184C126.36 128.376 126.715 127.8 127.426 127.454C127.67 127.315 127.937 127.246 128.226 127.246C129.025 127.246 129.592 127.615 129.925 128.353L130.125 129.011V129.184C130.125 130.107 129.614 130.81 128.592 131.295C128.459 132.887 128.081 134.836 127.459 137.143C127.415 137.327 127.393 137.466 127.393 137.558C127.393 137.72 127.226 137.985 126.893 138.354L126.493 138.873C125.427 140.142 124.894 141.018 124.894 141.503C124.894 141.641 125.16 142.356 125.693 143.648C125.782 144.11 125.827 144.513 125.827 144.859ZM118.596 125.066C118.174 125.066 117.907 125.285 117.796 125.723C117.774 125.793 117.763 125.862 117.763 125.931C117.763 126.369 117.974 126.646 118.396 126.762C118.463 126.785 118.529 126.796 118.596 126.796C119.129 126.796 119.396 126.508 119.396 125.931C119.396 125.516 119.207 125.239 118.829 125.101C118.762 125.078 118.685 125.066 118.596 125.066ZM124.594 138.562C124.594 137.823 122.594 137.454 118.596 137.454C114.575 137.454 112.565 137.835 112.565 138.596C112.565 138.919 112.853 139.081 113.431 139.081C114.097 139.081 114.93 139.023 115.93 138.908L118.096 138.838H118.629C119.251 138.838 120.428 138.896 122.161 139.011L123.794 139.081C124.327 139.081 124.594 138.908 124.594 138.562Z" fill="#050505"/>
<rect x="96" y="113.062" width="46" height="46" stroke="#34C759"/>
<rect x="49" y="66.0625" width="46" height="46" stroke="#34C759"/>
<rect y="194" width="292" height="32" rx="16" fill="white"/>
<path d="M14.832 212.08V210.22H13.068V209.296H14.832V207.436H15.768V209.296H17.544V210.22H15.768V212.08H14.832ZM20.6257 214V207.196H18.8977V206.488C19.2177 206.464 19.5017 206.428 19.7497 206.38C19.9977 206.324 20.2177 206.232 20.4097 206.104C20.6097 205.968 20.7857 205.772 20.9377 205.516H21.6697V214H20.6257ZM26.449 214.096C26.113 214.096 25.773 214.064 25.429 214C25.093 213.928 24.777 213.816 24.481 213.664C24.193 213.512 23.945 213.308 23.737 213.052C23.537 212.796 23.409 212.48 23.353 212.104H24.433C24.529 212.376 24.689 212.588 24.913 212.74C25.137 212.892 25.385 213 25.657 213.064C25.937 213.12 26.205 213.148 26.461 213.148C26.645 213.148 26.845 213.132 27.061 213.1C27.277 213.068 27.485 213 27.685 212.896C27.893 212.792 28.061 212.64 28.189 212.44C28.317 212.232 28.381 211.96 28.381 211.624C28.381 211.304 28.321 211.048 28.201 210.856C28.081 210.656 27.921 210.508 27.721 210.412C27.521 210.308 27.297 210.24 27.049 210.208C26.809 210.176 26.565 210.16 26.317 210.16H25.501V209.224H25.993C26.273 209.224 26.537 209.2 26.785 209.152C27.033 209.096 27.253 209.012 27.445 208.9C27.637 208.788 27.785 208.64 27.889 208.456C28.001 208.272 28.057 208.044 28.057 207.772C28.057 207.38 27.973 207.084 27.805 206.884C27.645 206.684 27.437 206.548 27.181 206.476C26.925 206.404 26.657 206.368 26.377 206.368C26.153 206.368 25.921 206.404 25.681 206.476C25.449 206.54 25.241 206.648 25.057 206.8C24.873 206.944 24.749 207.14 24.685 207.388H23.641C23.689 207.036 23.801 206.736 23.977 206.488C24.153 206.24 24.369 206.036 24.625 205.876C24.889 205.716 25.177 205.6 25.489 205.528C25.809 205.456 26.133 205.42 26.461 205.42C26.821 205.42 27.157 205.46 27.469 205.54C27.789 205.612 28.069 205.736 28.309 205.912C28.549 206.08 28.737 206.304 28.873 206.584C29.017 206.864 29.089 207.204 29.089 207.604C29.089 207.9 29.041 208.172 28.945 208.42C28.849 208.668 28.705 208.884 28.513 209.068C28.329 209.252 28.097 209.404 27.817 209.524C28.177 209.588 28.477 209.716 28.717 209.908C28.965 210.1 29.149 210.336 29.269 210.616C29.397 210.888 29.461 211.196 29.461 211.54C29.461 212.076 29.365 212.512 29.173 212.848C28.981 213.184 28.733 213.444 28.429 213.628C28.125 213.804 27.797 213.928 27.445 214C27.093 214.064 26.761 214.096 26.449 214.096ZM31.6646 214.096C31.4566 214.096 31.2846 214.028 31.1486 213.892C31.0126 213.756 30.9446 213.584 30.9446 213.376C30.9446 213.168 31.0126 212.996 31.1486 212.86C31.2846 212.724 31.4566 212.656 31.6646 212.656C31.8726 212.656 32.0446 212.724 32.1806 212.86C32.3166 212.996 32.3846 213.168 32.3846 213.376C32.3846 213.584 32.3166 213.756 32.1806 213.892C32.0446 214.028 31.8726 214.096 31.6646 214.096ZM36.6795 214.096C36.3435 214.096 36.0035 214.064 35.6595 214C35.3235 213.928 35.0075 213.816 34.7115 213.664C34.4235 213.512 34.1755 213.308 33.9675 213.052C33.7675 212.796 33.6395 212.48 33.5835 212.104H34.6635C34.7595 212.376 34.9195 212.588 35.1435 212.74C35.3675 212.892 35.6155 213 35.8875 213.064C36.1675 213.12 36.4355 213.148 36.6915 213.148C36.8755 213.148 37.0755 213.132 37.2915 213.1C37.5075 213.068 37.7155 213 37.9155 212.896C38.1235 212.792 38.2915 212.64 38.4195 212.44C38.5475 212.232 38.6115 211.96 38.6115 211.624C38.6115 211.304 38.5515 211.048 38.4315 210.856C38.3115 210.656 38.1515 210.508 37.9515 210.412C37.7515 210.308 37.5275 210.24 37.2795 210.208C37.0395 210.176 36.7955 210.16 36.5475 210.16H35.7315V209.224H36.2235C36.5035 209.224 36.7675 209.2 37.0155 209.152C37.2635 209.096 37.4835 209.012 37.6755 208.9C37.8675 208.788 38.0155 208.64 38.1195 208.456C38.2315 208.272 38.2875 208.044 38.2875 207.772C38.2875 207.38 38.2035 207.084 38.0355 206.884C37.8755 206.684 37.6675 206.548 37.4115 206.476C37.1555 206.404 36.8875 206.368 36.6075 206.368C36.3835 206.368 36.1515 206.404 35.9115 206.476C35.6795 206.54 35.4715 206.648 35.2875 206.8C35.1035 206.944 34.9795 207.14 34.9155 207.388H33.8715C33.9195 207.036 34.0315 206.736 34.2075 206.488C34.3835 206.24 34.5995 206.036 34.8555 205.876C35.1195 205.716 35.4075 205.6 35.7195 205.528C36.0395 205.456 36.3635 205.42 36.6915 205.42C37.0515 205.42 37.3875 205.46 37.6995 205.54C38.0195 205.612 38.2995 205.736 38.5395 205.912C38.7795 206.08 38.9675 206.304 39.1035 206.584C39.2475 206.864 39.3195 207.204 39.3195 207.604C39.3195 207.9 39.2715 208.172 39.1755 208.42C39.0795 208.668 38.9355 208.884 38.7435 209.068C38.5595 209.252 38.3275 209.404 38.0475 209.524C38.4075 209.588 38.7075 209.716 38.9475 209.908C39.1955 210.1 39.3795 210.336 39.4995 210.616C39.6275 210.888 39.6915 211.196 39.6915 211.54C39.6915 212.076 39.5955 212.512 39.4035 212.848C39.2115 213.184 38.9635 213.444 38.6595 213.628C38.3555 213.804 38.0275 213.928 37.6755 214C37.3235 214.064 36.9915 214.096 36.6795 214.096ZM44.3671 214.096C43.7751 214.096 43.2671 213.988 42.8431 213.772C42.4271 213.548 42.0871 213.24 41.8231 212.848C41.5591 212.448 41.3631 211.988 41.2351 211.468C41.1151 210.94 41.0551 210.372 41.0551 209.764C41.0551 209.156 41.1151 208.592 41.2351 208.072C41.3551 207.544 41.5471 207.084 41.8111 206.692C42.0751 206.292 42.4151 205.98 42.8311 205.756C43.2551 205.532 43.7671 205.42 44.3671 205.42C44.9991 205.42 45.5271 205.544 45.9511 205.792C46.3831 206.032 46.7231 206.36 46.9711 206.776C47.2271 207.192 47.4071 207.66 47.5111 208.18C47.6231 208.692 47.6791 209.22 47.6791 209.764C47.6791 210.308 47.6231 210.84 47.5111 211.36C47.4071 211.872 47.2271 212.336 46.9711 212.752C46.7231 213.16 46.3831 213.488 45.9511 213.736C45.5271 213.976 44.9991 214.096 44.3671 214.096ZM44.3671 213.148C44.8391 213.148 45.2191 213.048 45.5071 212.848C45.8031 212.64 46.0311 212.368 46.1911 212.032C46.3511 211.696 46.4591 211.332 46.5151 210.94C46.5711 210.54 46.5991 210.148 46.5991 209.764C46.5991 209.388 46.5711 209.004 46.5151 208.612C46.4591 208.212 46.3511 207.844 46.1911 207.508C46.0311 207.164 45.8031 206.888 45.5071 206.68C45.2191 206.472 44.8391 206.368 44.3671 206.368C43.8871 206.368 43.4991 206.472 43.2031 206.68C42.9071 206.888 42.6791 207.164 42.5191 207.508C42.3671 207.844 42.2631 208.212 42.2071 208.612C42.1511 209.004 42.1231 209.388 42.1231 209.764C42.1231 210.148 42.1511 210.54 42.2071 210.94C42.2631 211.332 42.3671 211.696 42.5191 212.032C42.6791 212.368 42.9071 212.64 43.2031 212.848C43.4991 213.048 43.8871 213.148 44.3671 213.148Z" fill="#34C759"/>
<path d="M60.112 214V212.308H55.504V211.528L59.656 205.516H61.156V211.36H62.152V212.308H61.156V214H60.112ZM56.764 211.36H60.112V206.464L56.764 211.36ZM64.3521 214.096C64.1441 214.096 63.9721 214.028 63.8361 213.892C63.7001 213.756 63.6321 213.584 63.6321 213.376C63.6321 213.168 63.7001 212.996 63.8361 212.86C63.9721 212.724 64.1441 212.656 64.3521 212.656C64.5601 212.656 64.7321 212.724 64.8681 212.86C65.0041 212.996 65.0721 213.168 65.0721 213.376C65.0721 213.584 65.0041 213.756 64.8681 213.892C64.7321 214.028 64.5601 214.096 64.3521 214.096Z" fill="#9B9B9B"/>
<path d="M71.416 214V208.576H70.384V207.676H71.416V207.004C71.416 206.532 71.48 206.148 71.608 205.852C71.744 205.548 71.956 205.324 72.244 205.18C72.54 205.036 72.928 204.964 73.408 204.964H74.128V205.864H73.516C73.228 205.864 73.004 205.912 72.844 206.008C72.692 206.104 72.584 206.248 72.52 206.44C72.464 206.624 72.436 206.852 72.436 207.124V207.676H74.128V208.576H72.436V214H71.416ZM77.8865 214.096C77.5505 214.096 77.2105 214.064 76.8665 214C76.5305 213.928 76.2145 213.816 75.9185 213.664C75.6305 213.512 75.3825 213.308 75.1745 213.052C74.9745 212.796 74.8465 212.48 74.7905 212.104H75.8705C75.9665 212.376 76.1265 212.588 76.3505 212.74C76.5745 212.892 76.8225 213 77.0945 213.064C77.3745 213.12 77.6425 213.148 77.8985 213.148C78.0825 213.148 78.2825 213.132 78.4985 213.1C78.7145 213.068 78.9225 213 79.1225 212.896C79.3305 212.792 79.4985 212.64 79.6265 212.44C79.7545 212.232 79.8185 211.96 79.8185 211.624C79.8185 211.304 79.7585 211.048 79.6385 210.856C79.5185 210.656 79.3585 210.508 79.1585 210.412C78.9585 210.308 78.7345 210.24 78.4865 210.208C78.2465 210.176 78.0025 210.16 77.7545 210.16H76.9385V209.224H77.4305C77.7105 209.224 77.9745 209.2 78.2225 209.152C78.4705 209.096 78.6905 209.012 78.8825 208.9C79.0745 208.788 79.2225 208.64 79.3265 208.456C79.4385 208.272 79.4945 208.044 79.4945 207.772C79.4945 207.38 79.4105 207.084 79.2425 206.884C79.0825 206.684 78.8745 206.548 78.6185 206.476C78.3625 206.404 78.0945 206.368 77.8145 206.368C77.5905 206.368 77.3585 206.404 77.1185 206.476C76.8865 206.54 76.6785 206.648 76.4945 206.8C76.3105 206.944 76.1865 207.14 76.1225 207.388H75.0785C75.1265 207.036 75.2385 206.736 75.4145 206.488C75.5905 206.24 75.8065 206.036 76.0625 205.876C76.3265 205.716 76.6145 205.6 76.9265 205.528C77.2465 205.456 77.5705 205.42 77.8985 205.42C78.2585 205.42 78.5945 205.46 78.9065 205.54C79.2265 205.612 79.5065 205.736 79.7465 205.912C79.9865 206.08 80.1745 206.304 80.3105 206.584C80.4545 206.864 80.5265 207.204 80.5265 207.604C80.5265 207.9 80.4785 208.172 80.3825 208.42C80.2865 208.668 80.1425 208.884 79.9505 209.068C79.7665 209.252 79.5345 209.404 79.2545 209.524C79.6145 209.588 79.9145 209.716 80.1545 209.908C80.4025 210.1 80.5865 210.336 80.7065 210.616C80.8345 210.888 80.8985 211.196 80.8985 211.54C80.8985 212.076 80.8025 212.512 80.6105 212.848C80.4185 213.184 80.1705 213.444 79.8665 213.628C79.5625 213.804 79.2345 213.928 78.8825 214C78.5305 214.064 78.1985 214.096 77.8865 214.096Z" fill="#050505"/>
<path d="M93.54 214.072C92.868 214.072 92.312 213.936 91.872 213.664C91.432 213.384 91.104 213 90.888 212.512C90.672 212.024 90.564 211.468 90.564 210.844C90.564 210.212 90.676 209.656 90.9 209.176C91.132 208.688 91.468 208.304 91.908 208.024C92.348 207.744 92.888 207.604 93.528 207.604C94.024 207.604 94.448 207.7 94.8 207.892C95.16 208.076 95.456 208.324 95.688 208.636C95.92 208.948 96.088 209.292 96.192 209.668C96.296 210.036 96.34 210.408 96.324 210.784C96.316 210.856 96.308 210.928 96.3 211C96.3 211.072 96.296 211.144 96.288 211.216H91.596C91.628 211.584 91.72 211.916 91.872 212.212C92.024 212.508 92.24 212.744 92.52 212.92C92.8 213.088 93.148 213.172 93.564 213.172C93.772 213.172 93.98 213.148 94.188 213.1C94.404 213.044 94.596 212.952 94.764 212.824C94.94 212.696 95.064 212.524 95.136 212.308H96.18C96.084 212.716 95.904 213.052 95.64 213.316C95.376 213.572 95.06 213.764 94.692 213.892C94.324 214.012 93.94 214.072 93.54 214.072ZM91.62 210.328H95.28C95.272 209.968 95.192 209.652 95.04 209.38C94.888 209.108 94.68 208.896 94.416 208.744C94.16 208.592 93.852 208.516 93.492 208.516C93.1 208.516 92.768 208.6 92.496 208.768C92.232 208.936 92.028 209.156 91.884 209.428C91.74 209.7 91.652 210 91.62 210.328ZM96.9297 214L99.1857 210.772L97.0377 207.676H98.2617L99.8697 210.076L101.43 207.676H102.618L100.482 210.808L102.774 214H101.562L99.8097 211.588L98.0817 214H96.9297ZM104.354 214V208.576H103.322V207.676H104.354V207.004C104.354 206.532 104.418 206.148 104.546 205.852C104.682 205.548 104.894 205.324 105.182 205.18C105.478 205.036 105.866 204.964 106.346 204.964H107.066V205.864H106.454C106.166 205.864 105.942 205.912 105.782 206.008C105.63 206.104 105.522 206.248 105.458 206.44C105.402 206.624 105.374 206.852 105.374 207.124V207.676H107.066V208.576H105.374V214H104.354ZM110.824 214.096C110.488 214.096 110.148 214.064 109.804 214C109.468 213.928 109.152 213.816 108.856 213.664C108.568 213.512 108.32 213.308 108.112 213.052C107.912 212.796 107.784 212.48 107.728 212.104H108.808C108.904 212.376 109.064 212.588 109.288 212.74C109.512 212.892 109.76 213 110.032 213.064C110.312 213.12 110.58 213.148 110.836 213.148C111.02 213.148 111.22 213.132 111.436 213.1C111.652 213.068 111.86 213 112.06 212.896C112.268 212.792 112.436 212.64 112.564 212.44C112.692 212.232 112.756 211.96 112.756 211.624C112.756 211.304 112.696 211.048 112.576 210.856C112.456 210.656 112.296 210.508 112.096 210.412C111.896 210.308 111.672 210.24 111.424 210.208C111.184 210.176 110.94 210.16 110.692 210.16H109.876V209.224H110.368C110.648 209.224 110.912 209.2 111.16 209.152C111.408 209.096 111.628 209.012 111.82 208.9C112.012 208.788 112.16 208.64 112.264 208.456C112.376 208.272 112.432 208.044 112.432 207.772C112.432 207.38 112.348 207.084 112.18 206.884C112.02 206.684 111.812 206.548 111.556 206.476C111.3 206.404 111.032 206.368 110.752 206.368C110.528 206.368 110.296 206.404 110.056 206.476C109.824 206.54 109.616 206.648 109.432 206.8C109.248 206.944 109.124 207.14 109.06 207.388H108.016C108.064 207.036 108.176 206.736 108.352 206.488C108.528 206.24 108.744 206.036 109 205.876C109.264 205.716 109.552 205.6 109.864 205.528C110.184 205.456 110.508 205.42 110.836 205.42C111.196 205.42 111.532 205.46 111.844 205.54C112.164 205.612 112.444 205.736 112.684 205.912C112.924 206.08 113.112 206.304 113.248 206.584C113.392 206.864 113.464 207.204 113.464 207.604C113.464 207.9 113.416 208.172 113.32 208.42C113.224 208.668 113.08 208.884 112.888 209.068C112.704 209.252 112.472 209.404 112.192 209.524C112.552 209.588 112.852 209.716 113.092 209.908C113.34 210.1 113.524 210.336 113.644 210.616C113.772 210.888 113.836 211.196 113.836 211.54C113.836 212.076 113.74 212.512 113.548 212.848C113.356 213.184 113.108 213.444 112.804 213.628C112.5 213.804 112.172 213.928 111.82 214C111.468 214.064 111.136 214.096 110.824 214.096Z" fill="#050505"/>
<path d="M124.696 214.108C124.344 214.108 124.004 214.068 123.676 213.988C123.356 213.908 123.064 213.788 122.8 213.628C122.536 213.46 122.312 213.248 122.128 212.992C121.944 212.736 121.816 212.432 121.744 212.08H122.8C122.888 212.304 123.028 212.496 123.22 212.656C123.412 212.816 123.628 212.94 123.868 213.028C124.116 213.108 124.36 213.148 124.6 213.148C124.992 213.148 125.34 213.084 125.644 212.956C125.956 212.828 126.204 212.632 126.388 212.368C126.572 212.096 126.664 211.748 126.664 211.324C126.664 210.74 126.488 210.292 126.136 209.98C125.784 209.668 125.328 209.512 124.768 209.512C124.432 209.512 124.12 209.572 123.832 209.692C123.552 209.812 123.296 209.976 123.064 210.184H121.984L122.368 205.516H127.444V206.476H123.304L123.064 209.14C123.28 208.964 123.544 208.824 123.856 208.72C124.168 208.608 124.552 208.552 125.008 208.552C125.552 208.552 126.028 208.664 126.436 208.888C126.852 209.112 127.172 209.428 127.396 209.836C127.628 210.236 127.744 210.712 127.744 211.264C127.744 211.856 127.608 212.364 127.336 212.788C127.072 213.212 126.708 213.54 126.244 213.772C125.788 213.996 125.272 214.108 124.696 214.108ZM129.919 214.096C129.711 214.096 129.539 214.028 129.403 213.892C129.267 213.756 129.199 213.584 129.199 213.376C129.199 213.168 129.267 212.996 129.403 212.86C129.539 212.724 129.711 212.656 129.919 212.656C130.127 212.656 130.299 212.724 130.435 212.86C130.571 212.996 130.639 213.168 130.639 213.376C130.639 213.584 130.571 213.756 130.435 213.892C130.299 214.028 130.127 214.096 129.919 214.096Z" fill="#9B9B9B"/>
<path d="M140.032 214C140.032 213.22 140.26 212.512 140.5 212.176C140.62 212.008 140.884 211.708 141.316 211.276C141.832 210.76 142.024 210.484 142.024 210.148C142.024 210.088 142.012 209.98 142 209.932H141.952C141.928 210.064 141.7 210.364 141.376 210.46C141.22 210.508 140.956 210.544 140.584 210.58C140.392 210.712 140.176 210.928 139.936 211.252C139.696 211.564 139.48 211.72 139.288 211.72C138.868 211.72 138.616 211.636 138.46 211.384L137.92 210.532C138.028 210.328 138.148 210.004 138.292 209.596C138.436 209.176 138.592 208.888 138.724 208.72C138.856 208.552 138.976 208.288 139.072 207.94C139.264 207.244 139.348 207.004 140.02 206.632C140.092 206.404 140.128 206.152 140.128 205.9C140.128 205.648 140.092 205.396 140.032 205.144H140.32C140.74 205.3 141.004 205.588 141.088 205.984H141.16C141.22 205.84 141.256 205.432 141.256 205.204C141.256 205.06 141.244 204.904 141.232 204.796H141.652C142.132 205.06 142.444 205.624 142.444 206.236C143.92 206.656 145.288 208.144 145.744 210.352C145.972 211.456 146.08 212.632 146.08 213.892V214H140.032ZM140.716 213.352H145.336V213.028C145.336 208.792 143.704 206.992 141.892 206.476C141.916 206.32 141.928 206.188 141.928 206.056C141.928 205.732 141.808 205.444 141.568 205.204C141.58 205.288 141.58 205.36 141.58 205.444C141.58 205.852 141.46 206.296 141.316 206.476H140.764V206.356C140.764 205.972 140.692 205.804 140.44 205.6C140.476 205.732 140.488 205.876 140.488 206.056C140.488 206.524 140.368 206.932 140.26 207.016C140.212 207.052 140.104 207.136 139.96 207.256C139.72 207.46 139.624 207.736 139.42 208.372C139.36 208.564 139.276 208.708 139.168 208.828C139.072 208.936 138.928 209.212 138.784 209.608C138.64 210.004 138.52 210.304 138.436 210.448L138.544 210.652C138.844 211.216 138.868 211.24 139.288 211.24C139.444 211.24 139.588 211.192 139.804 210.868C139.948 210.664 140.26 210.34 140.428 210.196C140.488 210.196 141.148 210.064 141.376 209.98C141.604 209.896 141.76 209.68 141.772 209.56H142.336L142.516 210.208C142.492 210.508 142.408 210.784 142.24 210.976L141.748 211.516C141.04 212.284 140.716 212.692 140.716 213.304V213.352ZM144.232 213.196C144.292 212.752 144.316 212.224 144.316 211.624C144.316 209.164 143.812 208.264 142.816 207.424L142.924 207.352C143.668 207.82 144.484 208.816 144.796 210.508C144.952 211.36 145.024 212.248 145.024 213.196H144.232ZM140.296 208.072C140.104 208.072 139.984 208.048 139.924 208L139.912 207.952V207.868C139.912 207.7 140.092 207.592 140.356 207.592C140.452 207.592 140.56 207.616 140.656 207.64L140.992 207.736V207.844L140.896 207.832C140.776 207.832 140.68 207.88 140.596 207.952C140.512 208.024 140.404 208.072 140.296 208.072ZM139.096 210.652C139 210.64 138.832 210.52 138.772 210.388C138.856 210.052 139.144 209.836 139.588 209.812L139.636 209.872C139.312 210.1 139.144 210.436 139.096 210.652ZM148.168 214L150.424 210.772L148.276 207.676H149.5L151.108 210.076L152.668 207.676H153.856L151.72 210.808L154.012 214H152.8L151.048 211.588L149.32 214H148.168ZM155.592 214V208.576H154.56V207.676H155.592V207.004C155.592 206.532 155.656 206.148 155.784 205.852C155.92 205.548 156.132 205.324 156.42 205.18C156.716 205.036 157.104 204.964 157.584 204.964H158.304V205.864H157.692C157.404 205.864 157.18 205.912 157.02 206.008C156.868 206.104 156.76 206.248 156.696 206.44C156.64 206.624 156.612 206.852 156.612 207.124V207.676H158.304V208.576H156.612V214H155.592ZM162.062 214.096C161.726 214.096 161.386 214.064 161.042 214C160.706 213.928 160.39 213.816 160.094 213.664C159.806 213.512 159.558 213.308 159.35 213.052C159.15 212.796 159.022 212.48 158.966 212.104H160.046C160.142 212.376 160.302 212.588 160.526 212.74C160.75 212.892 160.998 213 161.27 213.064C161.55 213.12 161.818 213.148 162.074 213.148C162.258 213.148 162.458 213.132 162.674 213.1C162.89 213.068 163.098 213 163.298 212.896C163.506 212.792 163.674 212.64 163.802 212.44C163.93 212.232 163.994 211.96 163.994 211.624C163.994 211.304 163.934 211.048 163.814 210.856C163.694 210.656 163.534 210.508 163.334 210.412C163.134 210.308 162.91 210.24 162.662 210.208C162.422 210.176 162.178 210.16 161.93 210.16H161.114V209.224H161.606C161.886 209.224 162.15 209.2 162.398 209.152C162.646 209.096 162.866 209.012 163.058 208.9C163.25 208.788 163.398 208.64 163.502 208.456C163.614 208.272 163.67 208.044 163.67 207.772C163.67 207.38 163.586 207.084 163.418 206.884C163.258 206.684 163.05 206.548 162.794 206.476C162.538 206.404 162.27 206.368 161.99 206.368C161.766 206.368 161.534 206.404 161.294 206.476C161.062 206.54 160.854 206.648 160.67 206.8C160.486 206.944 160.362 207.14 160.298 207.388H159.254C159.302 207.036 159.414 206.736 159.59 206.488C159.766 206.24 159.982 206.036 160.238 205.876C160.502 205.716 160.79 205.6 161.102 205.528C161.422 205.456 161.746 205.42 162.074 205.42C162.434 205.42 162.77 205.46 163.082 205.54C163.402 205.612 163.682 205.736 163.922 205.912C164.162 206.08 164.35 206.304 164.486 206.584C164.63 206.864 164.702 207.204 164.702 207.604C164.702 207.9 164.654 208.172 164.558 208.42C164.462 208.668 164.318 208.884 164.126 209.068C163.942 209.252 163.71 209.404 163.43 209.524C163.79 209.588 164.09 209.716 164.33 209.908C164.578 210.1 164.762 210.336 164.882 210.616C165.01 210.888 165.074 211.196 165.074 211.54C165.074 212.076 164.978 212.512 164.786 212.848C164.594 213.184 164.346 213.444 164.042 213.628C163.738 213.804 163.41 213.928 163.058 214C162.706 214.064 162.374 214.096 162.062 214.096Z" fill="#050505"/>
<path d="M177.336 214.072C176.704 214.072 176.184 213.932 175.776 213.652C175.368 213.364 175.064 212.98 174.864 212.5C174.664 212.012 174.564 211.464 174.564 210.856C174.564 210.248 174.664 209.7 174.864 209.212C175.064 208.716 175.372 208.324 175.788 208.036C176.204 207.748 176.736 207.604 177.384 207.604C177.632 207.604 177.88 207.636 178.128 207.7C178.384 207.756 178.624 207.848 178.848 207.976C179.072 208.096 179.264 208.26 179.424 208.468V205.516H180.444V214H179.472L179.424 213.052C179.28 213.292 179.096 213.488 178.872 213.64C178.656 213.784 178.416 213.892 178.152 213.964C177.888 214.036 177.616 214.072 177.336 214.072ZM177.48 213.172C177.904 213.172 178.26 213.064 178.548 212.848C178.836 212.632 179.056 212.344 179.208 211.984C179.36 211.624 179.436 211.232 179.436 210.808C179.436 210.368 179.36 209.976 179.208 209.632C179.064 209.288 178.848 209.016 178.56 208.816C178.272 208.616 177.908 208.516 177.468 208.516C177.012 208.516 176.644 208.62 176.364 208.828C176.092 209.036 175.892 209.32 175.764 209.68C175.644 210.032 175.584 210.428 175.584 210.868C175.584 211.188 175.616 211.488 175.68 211.768C175.752 212.04 175.86 212.284 176.004 212.5C176.156 212.708 176.352 212.872 176.592 212.992C176.832 213.112 177.128 213.172 177.48 213.172ZM184.938 214.108C184.586 214.108 184.246 214.068 183.918 213.988C183.598 213.908 183.306 213.788 183.042 213.628C182.778 213.46 182.554 213.248 182.37 212.992C182.186 212.736 182.058 212.432 181.986 212.08H183.042C183.13 212.304 183.27 212.496 183.462 212.656C183.654 212.816 183.87 212.94 184.11 213.028C184.358 213.108 184.602 213.148 184.842 213.148C185.234 213.148 185.582 213.084 185.886 212.956C186.198 212.828 186.446 212.632 186.63 212.368C186.814 212.096 186.906 211.748 186.906 211.324C186.906 210.74 186.73 210.292 186.378 209.98C186.026 209.668 185.57 209.512 185.01 209.512C184.674 209.512 184.362 209.572 184.074 209.692C183.794 209.812 183.538 209.976 183.306 210.184H182.226L182.61 205.516H187.686V206.476H183.546L183.306 209.14C183.522 208.964 183.786 208.824 184.098 208.72C184.41 208.608 184.794 208.552 185.25 208.552C185.794 208.552 186.27 208.664 186.678 208.888C187.094 209.112 187.414 209.428 187.638 209.836C187.87 210.236 187.986 210.712 187.986 211.264C187.986 211.856 187.85 212.364 187.578 212.788C187.314 213.212 186.95 213.54 186.486 213.772C186.03 213.996 185.514 214.108 184.938 214.108Z" fill="#050505"/>
<path d="M198.936 214.096C198.36 214.096 197.864 213.988 197.448 213.772C197.04 213.548 196.704 213.248 196.44 212.872C196.184 212.488 195.996 212.056 195.876 211.576C195.756 211.088 195.696 210.576 195.696 210.04C195.696 209.408 195.756 208.816 195.876 208.264C196.004 207.704 196.2 207.212 196.464 206.788C196.736 206.364 197.088 206.032 197.52 205.792C197.952 205.544 198.472 205.42 199.08 205.42C199.488 205.42 199.868 205.492 200.22 205.636C200.58 205.772 200.892 205.98 201.156 206.26C201.42 206.532 201.616 206.868 201.744 207.268H200.652C200.508 206.972 200.288 206.748 199.992 206.596C199.696 206.444 199.388 206.368 199.068 206.368C198.7 206.368 198.384 206.44 198.12 206.584C197.856 206.72 197.632 206.904 197.448 207.136C197.272 207.368 197.128 207.632 197.016 207.928C196.912 208.224 196.836 208.532 196.788 208.852C196.74 209.172 196.716 209.484 196.716 209.788C196.9 209.508 197.112 209.28 197.352 209.104C197.6 208.928 197.868 208.8 198.156 208.72C198.452 208.632 198.752 208.588 199.056 208.588C199.616 208.588 200.1 208.704 200.508 208.936C200.924 209.16 201.248 209.476 201.48 209.884C201.712 210.284 201.828 210.748 201.828 211.276C201.828 211.836 201.704 212.328 201.456 212.752C201.208 213.176 200.864 213.508 200.424 213.748C199.992 213.98 199.496 214.096 198.936 214.096ZM198.912 213.148C199.272 213.148 199.588 213.072 199.86 212.92C200.14 212.76 200.36 212.548 200.52 212.284C200.68 212.012 200.76 211.712 200.76 211.384C200.76 211.032 200.684 210.72 200.532 210.448C200.38 210.176 200.168 209.96 199.896 209.8C199.632 209.64 199.32 209.56 198.96 209.56C198.632 209.56 198.32 209.636 198.024 209.788C197.728 209.932 197.488 210.14 197.304 210.412C197.128 210.676 197.04 210.992 197.04 211.36C197.04 211.696 197.12 212 197.28 212.272C197.448 212.536 197.672 212.748 197.952 212.908C198.24 213.068 198.56 213.148 198.912 213.148ZM204.001 214.096C203.793 214.096 203.621 214.028 203.485 213.892C203.349 213.756 203.281 213.584 203.281 213.376C203.281 213.168 203.349 212.996 203.485 212.86C203.621 212.724 203.793 212.656 204.001 212.656C204.209 212.656 204.381 212.724 204.517 212.86C204.653 212.996 204.721 213.168 204.721 213.376C204.721 213.584 204.653 213.756 204.517 213.892C204.381 214.028 204.209 214.096 204.001 214.096Z" fill="#9B9B9B"/>
<path d="M213.54 214.072C212.868 214.072 212.312 213.936 211.872 213.664C211.432 213.384 211.104 213 210.888 212.512C210.672 212.024 210.564 211.468 210.564 210.844C210.564 210.212 210.676 209.656 210.9 209.176C211.132 208.688 211.468 208.304 211.908 208.024C212.348 207.744 212.888 207.604 213.528 207.604C214.024 207.604 214.448 207.7 214.8 207.892C215.16 208.076 215.456 208.324 215.688 208.636C215.92 208.948 216.088 209.292 216.192 209.668C216.296 210.036 216.34 210.408 216.324 210.784C216.316 210.856 216.308 210.928 216.3 211C216.3 211.072 216.296 211.144 216.288 211.216H211.596C211.628 211.584 211.72 211.916 211.872 212.212C212.024 212.508 212.24 212.744 212.52 212.92C212.8 213.088 213.148 213.172 213.564 213.172C213.772 213.172 213.98 213.148 214.188 213.1C214.404 213.044 214.596 212.952 214.764 212.824C214.94 212.696 215.064 212.524 215.136 212.308H216.18C216.084 212.716 215.904 213.052 215.64 213.316C215.376 213.572 215.06 213.764 214.692 213.892C214.324 214.012 213.94 214.072 213.54 214.072ZM211.62 210.328H215.28C215.272 209.968 215.192 209.652 215.04 209.38C214.888 209.108 214.68 208.896 214.416 208.744C214.16 208.592 213.852 208.516 213.492 208.516C213.1 208.516 212.768 208.6 212.496 208.768C212.232 208.936 212.028 209.156 211.884 209.428C211.74 209.7 211.652 210 211.62 210.328ZM220.575 214.108C220.223 214.108 219.883 214.068 219.555 213.988C219.235 213.908 218.943 213.788 218.679 213.628C218.415 213.46 218.191 213.248 218.007 212.992C217.823 212.736 217.695 212.432 217.623 212.08H218.679C218.767 212.304 218.907 212.496 219.099 212.656C219.291 212.816 219.507 212.94 219.747 213.028C219.995 213.108 220.239 213.148 220.479 213.148C220.871 213.148 221.219 213.084 221.523 212.956C221.835 212.828 222.083 212.632 222.267 212.368C222.451 212.096 222.543 211.748 222.543 211.324C222.543 210.74 222.367 210.292 222.015 209.98C221.663 209.668 221.207 209.512 220.647 209.512C220.311 209.512 219.999 209.572 219.711 209.692C219.431 209.812 219.175 209.976 218.943 210.184H217.863L218.247 205.516H223.323V206.476H219.183L218.943 209.14C219.159 208.964 219.423 208.824 219.735 208.72C220.047 208.608 220.431 208.552 220.887 208.552C221.431 208.552 221.907 208.664 222.315 208.888C222.731 209.112 223.051 209.428 223.275 209.836C223.507 210.236 223.623 210.712 223.623 211.264C223.623 211.856 223.487 212.364 223.215 212.788C222.951 213.212 222.587 213.54 222.123 213.772C221.667 213.996 221.151 214.108 220.575 214.108Z" fill="#050505"/>
<path d="M237.032 214C237.032 213.22 237.26 212.512 237.5 212.176C237.62 212.008 237.884 211.708 238.316 211.276C238.832 210.76 239.024 210.484 239.024 210.148C239.024 210.088 239.012 209.98 239 209.932H238.952C238.928 210.064 238.7 210.364 238.376 210.46C238.22 210.508 237.956 210.544 237.584 210.58C237.392 210.712 237.176 210.928 236.936 211.252C236.696 211.564 236.48 211.72 236.288 211.72C235.868 211.72 235.616 211.636 235.46 211.384L234.92 210.532C235.028 210.328 235.148 210.004 235.292 209.596C235.436 209.176 235.592 208.888 235.724 208.72C235.856 208.552 235.976 208.288 236.072 207.94C236.264 207.244 236.348 207.004 237.02 206.632C237.092 206.404 237.128 206.152 237.128 205.9C237.128 205.648 237.092 205.396 237.032 205.144H237.32C237.74 205.3 238.004 205.588 238.088 205.984H238.16C238.22 205.84 238.256 205.432 238.256 205.204C238.256 205.06 238.244 204.904 238.232 204.796H238.652C239.132 205.06 239.444 205.624 239.444 206.236C240.92 206.656 242.288 208.144 242.744 210.352C242.972 211.456 243.08 212.632 243.08 213.892V214H237.032ZM241.472 213.196H242.264C242.264 211.324 241.988 209.512 241.268 208.492C240.908 207.976 240.548 207.592 240.164 207.352L240.056 207.424C241.052 208.276 241.556 209.188 241.556 211.624C241.556 212.224 241.532 212.752 241.472 213.196ZM237.296 208.072C237.404 208.072 237.512 208.024 237.596 207.952C237.68 207.88 237.776 207.832 237.896 207.832L237.992 207.844V207.736L237.656 207.64C237.56 207.616 237.452 207.592 237.356 207.592C237.092 207.592 236.912 207.7 236.912 207.868V207.952L236.924 208C236.984 208.048 237.104 208.072 237.296 208.072ZM236.096 210.652C236.144 210.436 236.312 210.1 236.636 209.872L236.588 209.812C236.144 209.836 235.856 210.064 235.772 210.388C235.832 210.52 236 210.64 236.096 210.652ZM248.504 214.072C247.84 214.072 247.288 213.936 246.848 213.664C246.416 213.384 246.092 213 245.876 212.512C245.668 212.024 245.564 211.472 245.564 210.856C245.564 210.256 245.672 209.712 245.888 209.224C246.112 208.728 246.448 208.336 246.896 208.048C247.352 207.752 247.928 207.604 248.624 207.604C249.056 207.604 249.44 207.676 249.776 207.82C250.12 207.964 250.404 208.176 250.628 208.456C250.852 208.728 251.008 209.072 251.096 209.488H250.052C249.932 209.136 249.74 208.888 249.476 208.744C249.22 208.592 248.916 208.516 248.564 208.516C248.084 208.516 247.7 208.628 247.412 208.852C247.124 209.076 246.912 209.368 246.776 209.728C246.648 210.08 246.584 210.456 246.584 210.856C246.584 211.272 246.652 211.656 246.788 212.008C246.924 212.36 247.136 212.644 247.424 212.86C247.712 213.068 248.084 213.172 248.54 213.172C248.876 213.172 249.192 213.1 249.488 212.956C249.792 212.812 249.992 212.556 250.088 212.188H251.144C251.064 212.62 250.892 212.976 250.628 213.256C250.372 213.536 250.056 213.744 249.68 213.88C249.312 214.008 248.92 214.072 248.504 214.072ZM255.569 214.096C254.993 214.096 254.497 213.988 254.081 213.772C253.673 213.548 253.337 213.248 253.073 212.872C252.817 212.488 252.629 212.056 252.509 211.576C252.389 211.088 252.329 210.576 252.329 210.04C252.329 209.408 252.389 208.816 252.509 208.264C252.637 207.704 252.833 207.212 253.097 206.788C253.369 206.364 253.721 206.032 254.153 205.792C254.585 205.544 255.105 205.42 255.713 205.42C256.121 205.42 256.501 205.492 256.853 205.636C257.213 205.772 257.525 205.98 257.789 206.26C258.053 206.532 258.249 206.868 258.377 207.268H257.285C257.141 206.972 256.921 206.748 256.625 206.596C256.329 206.444 256.021 206.368 255.701 206.368C255.333 206.368 255.017 206.44 254.753 206.584C254.489 206.72 254.265 206.904 254.081 207.136C253.905 207.368 253.761 207.632 253.649 207.928C253.545 208.224 253.469 208.532 253.421 208.852C253.373 209.172 253.349 209.484 253.349 209.788C253.533 209.508 253.745 209.28 253.985 209.104C254.233 208.928 254.501 208.8 254.789 208.72C255.085 208.632 255.385 208.588 255.689 208.588C256.249 208.588 256.733 208.704 257.141 208.936C257.557 209.16 257.881 209.476 258.113 209.884C258.345 210.284 258.461 210.748 258.461 211.276C258.461 211.836 258.337 212.328 258.089 212.752C257.841 213.176 257.497 213.508 257.057 213.748C256.625 213.98 256.129 214.096 255.569 214.096ZM255.545 213.148C255.905 213.148 256.221 213.072 256.493 212.92C256.773 212.76 256.993 212.548 257.153 212.284C257.313 212.012 257.393 211.712 257.393 211.384C257.393 211.032 257.317 210.72 257.165 210.448C257.013 210.176 256.801 209.96 256.529 209.8C256.265 209.64 255.953 209.56 255.593 209.56C255.265 209.56 254.953 209.636 254.657 209.788C254.361 209.932 254.121 210.14 253.937 210.412C253.761 210.676 253.673 210.992 253.673 211.36C253.673 211.696 253.753 212 253.913 212.272C254.081 212.536 254.305 212.748 254.585 212.908C254.873 213.068 255.193 213.148 255.545 213.148Z" fill="#050505"/>
<path d="M271.524 214.096C271.316 214.096 271.144 214.028 271.008 213.892C270.872 213.756 270.804 213.584 270.804 213.376C270.804 213.168 270.872 212.996 271.008 212.86C271.144 212.724 271.316 212.656 271.524 212.656C271.732 212.656 271.904 212.724 272.04 212.86C272.176 212.996 272.244 213.168 272.244 213.376C272.244 213.584 272.176 213.756 272.04 213.892C271.904 214.028 271.732 214.096 271.524 214.096ZM274.571 214.096C274.363 214.096 274.191 214.028 274.055 213.892C273.919 213.756 273.851 213.584 273.851 213.376C273.851 213.168 273.919 212.996 274.055 212.86C274.191 212.724 274.363 212.656 274.571 212.656C274.779 212.656 274.951 212.724 275.087 212.86C275.223 212.996 275.291 213.168 275.291 213.376C275.291 213.584 275.223 213.756 275.087 213.892C274.951 214.028 274.779 214.096 274.571 214.096ZM277.618 214.096C277.41 214.096 277.238 214.028 277.102 213.892C276.966 213.756 276.898 213.584 276.898 213.376C276.898 213.168 276.966 212.996 277.102 212.86C277.238 212.724 277.41 212.656 277.618 212.656C277.826 212.656 277.998 212.724 278.134 212.86C278.27 212.996 278.338 213.168 278.338 213.376C278.338 213.584 278.27 213.756 278.134 213.892C277.998 214.028 277.826 214.096 277.618 214.096Z" fill="#050505"/>
</svg>
