<svg width="260" height="248" viewBox="0 0 260 248" fill="none" xmlns="http://www.w3.org/2000/svg">
    <path
        d="M170 10.5H80C71.4396 10.5 64.5 17.4396 64.5 26V222C64.5 230.56 71.4396 237.5 80 237.5H170C178.56 237.5 185.5 230.56 185.5 222V26C185.5 17.4396 178.56 10.5 170 10.5Z"
        stroke="#6F6F6F" />
    <path
        d="M112.5 63.3796C113.739 63.3796 114.744 62.3992 114.744 61.1898C114.744 59.9804 113.739 59 112.5 59C111.261 59 110.256 59.9804 110.256 61.1898C110.256 62.3992 111.261 63.3796 112.5 63.3796Z"
        fill="#4F4F4F" />
    <path
        d="M113.685 63.0254H111.407C111.02 63.0254 110.706 63.3391 110.706 63.7261V63.7261C110.706 64.1131 111.02 64.4268 111.407 64.4268H113.685C114.072 64.4268 114.385 64.1131 114.385 63.7261V63.7261C114.385 63.3391 114.072 63.0254 113.685 63.0254Z"
        fill="#4F4F4F" />
    <path
        d="M115.299 69.5967H109.701C109.314 69.5967 109 69.9104 109 70.2974C109 70.6844 109.314 70.9981 109.701 70.9981H115.299C115.686 70.9981 116 70.6844 116 70.2974C116 69.9104 115.686 69.5967 115.299 69.5967Z"
        fill="#4F4F4F" />
    <path
        d="M109.719 67.9326H115.283C115.283 68.9969 114.42 69.8596 113.356 69.8596H111.646C110.581 69.8596 109.719 68.9969 109.719 67.9326Z"
        fill="#4F4F4F" />
    <path
        d="M112.679 67.9351L112.581 64.3439H111.1C111.1 64.7475 111.128 65.7984 110.754 66.6406C110.458 67.3087 109.981 67.782 109.718 67.9351H112.679Z"
        fill="#4F4F4F" />
    <path
        d="M112.321 67.9351L112.42 64.3439H113.9C113.9 64.7475 113.872 65.7984 114.246 66.6406C114.542 67.3087 115.019 67.782 115.282 67.9351H112.321Z"
        fill="#4F4F4F" />
    <path
        d="M137.5 88.3796C138.739 88.3796 139.744 87.3992 139.744 86.1898C139.744 84.9804 138.739 84 137.5 84C136.261 84 135.256 84.9804 135.256 86.1898C135.256 87.3992 136.261 88.3796 137.5 88.3796Z"
        fill="#4F4F4F" />
    <path
        d="M138.685 88.0254H136.407C136.02 88.0254 135.706 88.3391 135.706 88.7261C135.706 89.1131 136.02 89.4268 136.407 89.4268H138.685C139.072 89.4268 139.385 89.1131 139.385 88.7261C139.385 88.3391 139.072 88.0254 138.685 88.0254Z"
        fill="#4F4F4F" />
    <path
        d="M140.299 94.5967H134.701C134.314 94.5967 134 94.9104 134 95.2974C134 95.6844 134.314 95.9981 134.701 95.9981H140.299C140.686 95.9981 141 95.6844 141 95.2974C141 94.9104 140.686 94.5967 140.299 94.5967Z"
        fill="#4F4F4F" />
    <path
        d="M134.719 92.9326H140.283C140.283 93.9969 139.42 94.8596 138.356 94.8596H136.646C135.581 94.8596 134.719 93.9969 134.719 92.9326Z"
        fill="#4F4F4F" />
    <path
        d="M137.679 92.9351L137.581 89.3439H136.1C136.1 89.7475 136.128 90.7984 135.754 91.6406C135.458 92.3087 134.981 92.782 134.718 92.9351H137.679Z"
        fill="#4F4F4F" />
    <path
        d="M137.321 92.9351L137.42 89.3439H138.9C138.9 89.7475 138.872 90.7984 139.246 91.6406C139.542 92.3087 140.019 92.782 140.282 92.9351H137.321Z"
        fill="#4F4F4F" />
    <path
        d="M100.5 55.2949V98.7051C100.5 100.249 101.751 101.5 103.295 101.5H146.705C148.249 101.5 149.5 100.249 149.5 98.7051V55.2949C149.5 53.7513 148.249 52.5 146.705 52.5H103.295C101.751 52.5 100.5 53.7513 100.5 55.2949Z"
        stroke="#6F6F6F" />
    <path d="M125.5 53V101" stroke="#4F4F4F" />
    <path d="M101 76.5H149" stroke="#4F4F4F" />
    <path d="M111 79L121 89L141 69" stroke="#34C759" stroke-width="2" />
    <path
        d="M112.5 170.38C113.739 170.38 114.744 169.399 114.744 168.19C114.744 166.981 113.739 166 112.5 166C111.261 166 110.256 166.981 110.256 168.19C110.256 169.399 111.261 170.38 112.5 170.38Z"
        fill="#4F4F4F" />
    <path
        d="M113.685 170.025H111.407C111.02 170.025 110.706 170.339 110.706 170.726V170.726C110.706 171.113 111.02 171.426 111.407 171.426H113.685C114.072 171.426 114.385 171.113 114.385 170.726V170.726C114.385 170.339 114.072 170.025 113.685 170.025Z"
        fill="#4F4F4F" />
    <path
        d="M115.299 176.597H109.701C109.314 176.597 109 176.911 109 177.298C109 177.685 109.314 177.999 109.701 177.999H115.299C115.686 177.999 116 177.685 116 177.298C116 176.911 115.686 176.597 115.299 176.597Z"
        fill="#4F4F4F" />
    <path
        d="M109.719 174.933H115.283C115.283 175.997 114.42 176.86 113.356 176.86H111.646C110.581 176.86 109.719 175.997 109.719 174.933Z"
        fill="#4F4F4F" />
    <path
        d="M112.679 174.935L112.581 171.344H111.1C111.1 171.748 111.128 172.798 110.754 173.641C110.458 174.309 109.981 174.782 109.718 174.935H112.679Z"
        fill="#4F4F4F" />
    <path
        d="M112.321 174.935L112.42 171.344H113.9C113.9 171.748 113.872 172.798 114.246 173.641C114.542 174.309 115.019 174.782 115.282 174.935H112.321Z"
        fill="#4F4F4F" />
    <path
        d="M100.5 137.295V180.705C100.5 182.249 101.751 183.5 103.295 183.5H146.705C148.249 183.5 149.5 182.249 149.5 180.705V137.295C149.5 135.751 148.249 134.5 146.705 134.5H103.295C101.751 134.5 100.5 135.751 100.5 137.295Z"
        stroke="#6F6F6F" />
    <path d="M125.5 135V183" stroke="#4F4F4F" />
    <path d="M101 158.5H149" stroke="#4F4F4F" />
    <path
        d="M132.67 148.898C132.751 149.223 132.968 149.46 133.32 149.609C133.455 149.663 133.584 149.69 133.706 149.69H133.746C133.773 149.69 133.922 149.609 134.193 149.447C134.274 149.393 134.342 149.365 134.396 149.365H134.477C134.545 149.365 134.579 149.406 134.579 149.487L134.457 149.873C134.457 149.995 134.552 150.056 134.741 150.056C134.768 150.056 134.937 149.819 135.249 149.345C135.844 148.425 136.69 147.728 137.787 147.254C137.895 146.523 138.166 145.88 138.599 145.325C138.707 145.176 138.816 145.102 138.924 145.102C139.046 145.102 139.107 145.19 139.107 145.365C139.107 145.406 138.985 145.792 138.741 146.523C138.646 146.834 138.599 147.064 138.599 147.213C138.599 147.254 138.613 147.342 138.64 147.477C138.64 148.438 138.233 149.447 137.421 150.503C136.88 151.234 136.582 151.816 136.528 152.249H139.878H143.228C143.283 151.626 143.31 151.166 143.31 150.868C143.31 148.08 142.437 145.853 140.69 144.188C140.162 143.701 139.736 143.457 139.411 143.457H138.193C138.085 143.403 137.976 143.132 137.868 142.645C137.787 142.252 137.685 142.008 137.563 141.914C137.401 142.401 136.9 142.78 136.061 143.051C135.614 143.186 135.303 143.321 135.127 143.457C134.978 143.931 134.538 144.892 133.807 146.34C133.09 147.775 132.711 148.628 132.67 148.898ZM144.041 153H135.533C135.587 152.066 135.939 151.173 136.589 150.32C137.09 149.643 137.387 149.23 137.482 149.081C137.672 148.783 137.787 148.425 137.827 148.005C136.948 148.384 136.264 148.926 135.777 149.629L135.492 150.096C135.289 150.421 135.161 150.604 135.107 150.645C135.025 150.712 134.937 150.746 134.843 150.746C134.423 150.746 134.139 150.604 133.99 150.32C133.963 150.279 133.949 150.232 133.949 150.178C133.814 150.245 133.679 150.279 133.543 150.279C132.893 150.279 132.379 149.873 132 149.061C132.108 148.465 132.677 147.091 133.706 144.939C133.814 144.736 133.895 144.574 133.949 144.452C134.355 143.545 134.558 142.861 134.558 142.401C134.558 142.333 134.518 141.954 134.437 141.264H134.599C135.33 141.264 136.027 141.494 136.69 141.954C137.056 141.318 137.36 141 137.604 141C138.037 141.23 138.335 141.555 138.497 141.975L138.721 142.645C138.856 142.618 138.971 142.604 139.066 142.604C140.149 142.604 141.218 143.294 142.274 144.675C143.506 146.286 144.122 148.492 144.122 151.294C144.122 151.931 144.095 152.499 144.041 153Z"
        fill="#4F4F4F" />
    <path fill-rule="evenodd" clip-rule="evenodd"
        d="M132.67 148.898C132.751 149.223 132.968 149.46 133.32 149.609C133.455 149.663 133.584 149.69 133.705 149.69H133.746C133.773 149.69 133.922 149.609 134.193 149.447C134.274 149.393 134.342 149.365 134.396 149.365H134.477C134.545 149.365 134.579 149.406 134.579 149.487L134.457 149.873C134.457 149.995 134.551 150.056 134.741 150.056C134.768 150.056 134.937 149.819 135.249 149.345C135.844 148.425 136.69 147.728 137.787 147.254C137.895 146.523 138.166 145.88 138.599 145.325C138.707 145.176 138.815 145.102 138.924 145.102C139.046 145.102 139.106 145.19 139.106 145.365C139.106 145.406 138.985 145.792 138.741 146.523C138.646 146.834 138.599 147.064 138.599 147.213C138.599 147.237 138.603 147.276 138.612 147.331C138.619 147.371 138.628 147.42 138.639 147.477C138.639 148.438 138.233 149.447 137.421 150.503C136.88 151.233 136.582 151.816 136.528 152.249H139.878H143.228C143.282 151.626 143.31 151.166 143.31 150.868C143.31 148.08 142.436 145.853 140.69 144.188C140.162 143.7 139.736 143.457 139.411 143.457H138.193C138.084 143.403 137.976 143.132 137.868 142.645C137.787 142.252 137.685 142.008 137.563 141.914C137.401 142.401 136.9 142.78 136.061 143.051C135.614 143.186 135.303 143.321 135.127 143.457C134.978 143.931 134.538 144.892 133.807 146.34C133.09 147.775 132.711 148.628 132.67 148.898ZM133.746 148.594C133.746 148.337 133.652 148.208 133.462 148.208C133.178 148.208 133.036 148.398 133.036 148.777C133.036 148.993 133.103 149.102 133.239 149.102C133.577 149.102 133.746 148.932 133.746 148.594ZM134.924 145.731C134.734 145.731 134.64 145.616 134.64 145.386C134.64 145.02 134.856 144.722 135.289 144.492C135.479 144.398 135.655 144.35 135.817 144.35C136.102 144.35 136.257 144.445 136.284 144.634C136.284 144.946 136.041 145.244 135.553 145.528C135.31 145.663 135.1 145.731 134.924 145.731Z"
        fill="#4F4F4F" />
    <path d="M111 161L121 171L141 151" stroke="#34C759" stroke-width="2" />
    <path
        d="M105 19C105.552 19 106 18.5523 106 18C106 17.4477 105.552 17 105 17C104.448 17 104 17.4477 104 18C104 18.5523 104.448 19 105 19Z"
        fill="#6F6F6F" />
    <path fill-rule="evenodd" clip-rule="evenodd"
        d="M112 18.5C112 18.2239 112.224 18 112.5 18H145.5C145.776 18 146 18.2239 146 18.5C146 18.7761 145.776 19 145.5 19H112.5C112.224 19 112 18.7761 112 18.5Z"
        fill="#6F6F6F" />
    <path
        d="M169 210H81C76.5817 210 73 213.582 73 218C73 222.418 76.5817 226 81 226H169C173.418 226 177 222.418 177 218C177 213.582 173.418 210 169 210Z"
        fill="#34C759" />
</svg>
