<svg width="40" height="40" viewBox="0 0 40 40" fill="none" xmlns="http://www.w3.org/2000/svg">
<path fill-rule="evenodd" clip-rule="evenodd" d="M2.44828 1C1.64841 1 1 1.64842 1 2.44828V8H3.13348V3.61624C3.13348 3.34962 3.34962 3.13348 3.61624 3.13348H8V1H2.44828Z" fill="#34C759"/>
<path fill-rule="evenodd" clip-rule="evenodd" d="M37.5517 1H32V3.13348H36.3838C36.6504 3.13348 36.8665 3.34962 36.8665 3.61624V7.99999H39V2.44827C39 1.64841 38.3516 1 37.5517 1Z" fill="#34C759"/>
<path fill-rule="evenodd" clip-rule="evenodd" d="M39 32H36.8665V36.3526C36.8665 36.6192 36.6504 36.8353 36.3838 36.8353H32V39H37.5517C38.3516 39 39 38.3516 39 37.5517V32Z" fill="#34C759"/>
<path fill-rule="evenodd" clip-rule="evenodd" d="M3.13348 32H1V37.5517C1 38.3516 1.64842 39 2.44828 39H8V36.8353H3.61624C3.34962 36.8353 3.13348 36.6192 3.13348 36.3526V32Z" fill="#34C759"/>
<path d="M7 24.5484V12C7 11.4477 7.44772 11 8 11H32C32.5523 11 33 11.4477 33 12V25.9211M7 24.5484V28C7 28.5523 7.44772 29 8 29H27.5263M7 24.5484L14.507 17.1159C14.8967 16.7301 15.5244 16.7301 15.9141 17.1159L18.6316 19.8065L22.0526 23.1935M27.5263 29H32C32.5523 29 33 28.5523 33 28V25.9211M27.5263 29L22.0526 23.1935M33 25.9211L26.8615 19.8275C26.4719 19.4408 25.8435 19.4403 25.4534 19.8265L22.0526 23.1935" stroke="#6F6F6F" stroke-width="2"/>
<circle cx="24.1936" cy="15.6128" r="1.25806" fill="#6F6F6F"/>
</svg>
