<svg width="261" height="248" viewBox="0 0 261 248" fill="none" xmlns="http://www.w3.org/2000/svg">
    <circle cx="105.5" cy="18" r="1" fill="#050505" />
    <path fill-rule="evenodd" clip-rule="evenodd"
        d="M112.5 18.5C112.5 18.2239 112.724 18 113 18H146C146.276 18 146.5 18.2239 146.5 18.5C146.5 18.7761 146.276 19 146 19H113C112.724 19 112.5 18.7761 112.5 18.5Z"
        fill="#050505" />
    <ellipse cx="165" cy="91.1898" rx="2.24359" ry="2.18978" fill="#2A2A2A" />
    <rect x="163.206" y="93.0234" width="3.67949" height="1.40146" rx="0.700729" fill="#2A2A2A" />
    <rect x="161.5" y="99.5938" width="7" height="1.40146" rx="0.700732" fill="#2A2A2A" />
    <path
        d="M162.219 97.9297L167.783 97.9297C167.783 98.9939 166.92 99.8567 165.856 99.8567L164.146 99.8567C163.082 99.8567 162.219 98.9939 162.219 97.9297Z"
        fill="#2A2A2A" />
    <path
        d="M165.179 97.935L165.08 94.3438L163.6 94.3438C163.6 94.7474 163.628 95.7982 163.254 96.6405C162.958 97.3086 162.481 97.7819 162.218 97.935L165.179 97.935Z"
        fill="#2A2A2A" />
    <path
        d="M164.821 97.935L164.92 94.3438L166.4 94.3437C166.4 94.7474 166.372 95.7982 166.746 96.6405C167.042 97.3086 167.519 97.7819 167.782 97.935L164.821 97.935Z"
        fill="#2A2A2A" />
    <ellipse cx="190" cy="116.19" rx="2.24359" ry="2.18978" fill="#2A2A2A" />
    <rect x="188.206" y="118.023" width="3.67949" height="1.40146" rx="0.700729" fill="#2A2A2A" />
    <rect x="186.5" y="124.594" width="7" height="1.40146" rx="0.700732" fill="#2A2A2A" />
    <path
        d="M187.219 122.93L192.783 122.93C192.783 123.994 191.92 124.857 190.856 124.857L189.146 124.857C188.082 124.857 187.219 123.994 187.219 122.93Z"
        fill="#2A2A2A" />
    <path
        d="M190.179 122.935L190.08 119.344L188.6 119.344C188.6 119.747 188.628 120.798 188.254 121.64C187.958 122.309 187.481 122.782 187.218 122.935L190.179 122.935Z"
        fill="#2A2A2A" />
    <path
        d="M189.821 122.935L189.92 119.344L191.4 119.344C191.4 119.747 191.372 120.798 191.746 121.64C192.042 122.309 192.519 122.782 192.782 122.935L189.821 122.935Z"
        fill="#2A2A2A" />
    <rect x="142" y="142.5" width="71" height="71" rx="2.7949" transform="rotate(-90 142 142.5)"
        stroke="#AEAEB2" />
    <rect x="153" y="131.5" width="49" height="49" rx="2.7949" transform="rotate(-90 153 131.5)"
        stroke="#2A2A2A" />
    <line x1="178" y1="83" x2="178" y2="131" stroke="#2A2A2A" />
    <line x1="153.5" y1="106.5" x2="201.5" y2="106.5" stroke="#2A2A2A" />
    <ellipse cx="60.9999" cy="156.19" rx="2.24359" ry="2.18978" fill="#2A2A2A" />
    <rect x="59.2061" y="158.023" width="3.67949" height="1.40146" rx="0.700729" fill="#2A2A2A" />
    <rect x="57.5" y="164.594" width="7" height="1.40146" rx="0.700732" fill="#2A2A2A" />
    <path
        d="M58.2188 162.93L63.7829 162.93C63.7829 163.994 62.9201 164.857 61.8558 164.857L60.1458 164.857C59.0815 164.857 58.2188 163.994 58.2188 162.93Z"
        fill="#2A2A2A" />
    <path
        d="M61.1792 162.935L61.0805 159.344H59.5997C59.5997 159.747 59.6275 160.798 59.2542 161.64C58.958 162.309 58.4809 162.782 58.2177 162.935L61.1792 162.935Z"
        fill="#2A2A2A" />
    <path
        d="M60.8208 162.935L60.9195 159.344H62.4003C62.4003 159.747 62.3725 160.798 62.7458 161.64C63.042 162.309 63.5191 162.782 63.7823 162.935L60.8208 162.935Z"
        fill="#2A2A2A" />
    <rect x="38" y="182.5" width="71" height="71" rx="2.7949" transform="rotate(-90 38 182.5)"
        stroke="#AEAEB2" />
    <rect x="49" y="171.5" width="49" height="49" rx="2.7949" transform="rotate(-90 49 171.5)"
        stroke="#2A2A2A" />
    <line x1="74" y1="123" x2="74" y2="171" stroke="#2A2A2A" />
    <line x1="49.5" y1="146.5" x2="97.5" y2="146.5" stroke="#2A2A2A" />
    <path
        d="M81.1701 136.898C81.2513 137.223 81.4678 137.46 81.8198 137.609C81.9552 137.663 82.0838 137.69 82.2056 137.69H82.2462C82.2733 137.69 82.4222 137.609 82.6929 137.447C82.7741 137.393 82.8418 137.365 82.8959 137.365H82.9772C83.0448 137.365 83.0787 137.406 83.0787 137.487L82.9569 137.873C82.9569 137.995 83.0516 138.056 83.2411 138.056C83.2682 138.056 83.4374 137.819 83.7487 137.345C84.3443 136.425 85.1904 135.728 86.2868 135.254C86.3951 134.523 86.6658 133.88 87.099 133.325C87.2073 133.176 87.3156 133.102 87.4239 133.102C87.5457 133.102 87.6066 133.19 87.6066 133.365C87.6066 133.406 87.4848 133.792 87.2411 134.523C87.1464 134.834 87.099 135.064 87.099 135.213C87.099 135.254 87.1125 135.342 87.1396 135.477C87.1396 136.438 86.7335 137.447 85.9213 138.503C85.3799 139.234 85.0821 139.816 85.0279 140.249H88.3782H91.7284C91.7826 139.626 91.8096 139.166 91.8096 138.868C91.8096 136.08 90.9366 133.853 89.1904 132.188C88.6624 131.701 88.236 131.457 87.9112 131.457H86.6929C86.5846 131.403 86.4763 131.132 86.368 130.645C86.2868 130.252 86.1853 130.008 86.0634 129.914C85.901 130.401 85.4002 130.78 84.5609 131.051C84.1142 131.186 83.8029 131.321 83.6269 131.457C83.478 131.931 83.0381 132.892 82.3071 134.34C81.5897 135.775 81.2107 136.628 81.1701 136.898ZM92.5406 141H84.033C84.0871 140.066 84.4391 139.173 85.0888 138.32C85.5897 137.643 85.8875 137.23 85.9822 137.081C86.1717 136.783 86.2868 136.425 86.3274 136.005C85.4476 136.384 84.764 136.926 84.2766 137.629L83.9924 138.096C83.7893 138.421 83.6607 138.604 83.6066 138.645C83.5254 138.712 83.4374 138.746 83.3426 138.746C82.923 138.746 82.6387 138.604 82.4898 138.32C82.4628 138.279 82.4492 138.232 82.4492 138.178C82.3139 138.245 82.1785 138.279 82.0431 138.279C81.3934 138.279 80.879 137.873 80.5 137.061C80.6083 136.465 81.1768 135.091 82.2056 132.939C82.3139 132.736 82.3951 132.574 82.4492 132.452C82.8553 131.545 83.0584 130.861 83.0584 130.401C83.0584 130.333 83.0178 129.954 82.9366 129.264H83.099C83.8299 129.264 84.5271 129.494 85.1904 129.954C85.5558 129.318 85.8604 129 86.1041 129C86.5372 129.23 86.835 129.555 86.9975 129.975L87.2208 130.645C87.3562 130.618 87.4712 130.604 87.566 130.604C88.6489 130.604 89.7183 131.294 90.7741 132.675C92.0059 134.286 92.6218 136.492 92.6218 139.294C92.6218 139.931 92.5948 140.499 92.5406 141Z"
        fill="#2A2A2A" />
    <path
        d="M81.1699 136.899C81.2511 137.224 81.4677 137.461 81.8197 137.609C81.955 137.664 82.0836 137.691 82.2054 137.691H82.2461C82.2731 137.691 82.422 137.609 82.6928 137.447C82.774 137.393 82.8417 137.366 82.8958 137.366H82.977C83.0447 137.366 83.0785 137.406 83.0785 137.488L82.9567 137.873C82.9567 137.995 83.0515 138.056 83.241 138.056C83.2681 138.056 83.4373 137.819 83.7486 137.346C84.3442 136.425 85.1902 135.728 86.2867 135.254C86.395 134.523 86.6657 133.88 87.0989 133.325C87.2071 133.176 87.3154 133.102 87.4237 133.102C87.5456 133.102 87.6065 133.19 87.6065 133.366C87.6065 133.406 87.4846 133.792 87.241 134.523C87.1462 134.835 87.0989 135.065 87.0989 135.214C87.0989 135.254 87.1124 135.342 87.1395 135.478C87.1395 136.439 86.7334 137.447 85.9212 138.503C85.3797 139.234 85.0819 139.816 85.0278 140.249H88.378H91.7283C91.7824 139.626 91.8095 139.166 91.8095 138.868C91.8095 136.08 90.9364 133.853 89.1902 132.188C88.6623 131.701 88.2359 131.457 87.911 131.457H86.6928C86.5845 131.403 86.4762 131.132 86.3679 130.645C86.2867 130.252 86.1851 130.009 86.0633 129.914C85.9009 130.401 85.4 130.78 84.5608 131.051C84.1141 131.186 83.8027 131.322 83.6268 131.457C83.4779 131.931 83.0379 132.892 82.307 134.34C81.5895 135.775 81.2105 136.628 81.1699 136.899Z"
        fill="#2A2A2A" />
    <path
        d="M82.2463 136.597C82.2463 136.34 82.1515 136.211 81.962 136.211C81.6778 136.211 81.5356 136.4 81.5356 136.779C81.5356 136.996 81.6033 137.104 81.7387 137.104C82.0771 137.104 82.2463 136.935 82.2463 136.597Z"
        fill="white" />
    <path
        d="M83.1396 133.387C83.1396 133.617 83.2344 133.732 83.4239 133.732C83.5999 133.732 83.8097 133.665 84.0534 133.529C84.5407 133.245 84.7843 132.947 84.7843 132.636C84.7573 132.446 84.6016 132.352 84.3173 132.352C84.1549 132.352 83.9789 132.399 83.7894 132.494C83.3562 132.724 83.1396 133.022 83.1396 133.387Z"
        fill="white" />
    <rect x="65" y="10.5" width="121" height="227" rx="15.5" stroke="#050505" />
    <rect x="73.5" y="210" width="104" height="16" rx="8" fill="#DFDFE0" />
</svg>
