<svg fill="none" height="108" viewBox="0 0 108 108" width="108" xmlns="http://www.w3.org/2000/svg">
    <path
        d="M66.2354 93.4977C62.4869 95.2435 58.3767 96.4219 54.0045 97.0142C33.9648 94.3083 20.5114 79.7125 14.0311 53.6259C9.88343 36.9415 10.083 20.6311 10.2452 15.9176C27.7402 20.6623 38.8796 16.7032 45.1852 12.4759C49.9192 9.30239 52.676 5.56772 54.0045 3.37929C55.333 5.56772 58.0897 9.29616 62.8237 12.4759C67.0898 15.3377 73.5702 18.0748 82.7387 18.0748C87.1171 18.0748 92.1067 17.4513 97.7638 15.9176C97.9384 20.999 98.1505 39.5975 92.8926 57.6349C92.7616 58.0838 92.9363 58.5452 93.2918 58.8071C93.3916 58.8819 93.5101 58.9442 93.6348 58.9816C94.2086 59.15 94.8136 58.8195 94.982 58.2397C101.219 36.8292 99.8844 14.6457 99.8719 14.4274C99.8532 14.097 99.6785 13.7977 99.4103 13.6044C99.1422 13.4174 98.7991 13.3613 98.481 13.4486C84.7158 17.4576 72.8404 16.5161 64.1335 10.7302C57.5596 6.35954 55.0211 0.710772 55.0024 0.654659C54.8278 0.255629 54.4348 0 54.0045 0C53.5741 0 53.1812 0.255629 53.0065 0.654659C52.9816 0.710772 50.5055 6.27849 43.969 10.6616C35.2496 16.5161 23.3368 17.4825 9.52168 13.4548C9.20359 13.3613 8.86055 13.4174 8.59235 13.6107C8.32416 13.7977 8.14952 14.1032 8.13081 14.4337C8.11834 14.6269 6.93953 34.0921 11.9042 54.106C14.8357 65.921 19.3014 75.6287 25.1767 82.9609C32.5801 92.1947 42.2289 97.6564 53.861 99.1964C53.9109 99.2026 53.9546 99.2026 54.0045 99.2026C54.0544 99.2026 54.098 99.1964 54.1479 99.1964C58.7883 98.5854 63.1667 97.3322 67.1585 95.4742C67.7011 95.2186 67.9381 94.5701 67.6886 94.0277C67.6075 93.8594 67.489 93.7222 67.3518 93.6162C67.0275 93.3855 66.6096 93.3232 66.2354 93.4977Z"
        fill="#050505" />
    <path
        d="M54.0045 27.9944C42.0793 27.9944 32.3806 37.6896 32.3806 49.6044C32.3806 61.5192 42.0793 71.2144 53.9983 71.2144C65.9174 71.2144 75.616 61.5192 75.616 49.6044C75.6222 37.6896 65.9236 27.9944 54.0045 27.9944ZM54.0045 69.0384C43.283 69.0384 34.5636 60.3221 34.5636 49.6044C34.5636 38.8867 43.283 30.1704 54.0045 30.1704C64.7261 30.1704 73.4455 38.8867 73.4455 49.6044C73.4455 60.3221 64.7198 69.0384 54.0045 69.0384Z"
        fill="#050505" />
    <path
        d="M64.5016 42.4031L48.9152 55.2033L44.8237 51.5247C44.3746 51.1257 43.6885 51.1569 43.2831 51.6058C42.8839 52.0547 42.9151 52.7405 43.3642 53.1458L48.1542 57.4478C48.3601 57.6349 48.622 57.7284 48.884 57.7284C49.1272 57.7284 49.3767 57.6473 49.5763 57.479L65.8862 44.0866C66.3478 43.7062 66.4164 43.0204 66.0359 42.5528C65.6555 42.0852 64.9694 42.0228 64.5016 42.4031Z"
        fill="#050505" />
    <path
        d="M75.1357 70.4537V76.8444C75.1357 77.443 75.6222 77.9355 76.2272 77.9355C76.826 77.9355 77.3187 77.4492 77.3187 76.8444V70.4537C77.3187 66.0145 80.93 62.4045 85.3708 62.4045C86.955 62.4045 88.4332 62.8659 89.6806 63.6577C91.9322 65.0855 93.4291 67.5982 93.4291 70.4537V76.8444C93.4291 77.443 93.9156 77.9355 94.5206 77.9355C95.1256 77.9355 95.612 77.4492 95.612 76.8444V70.4537C95.612 66.8812 93.7721 63.7388 90.9904 61.9058C89.375 60.8458 87.4477 60.2224 85.377 60.2224C79.7262 60.2224 75.1357 64.8112 75.1357 70.4537Z"
        fill="#34C759" />
    <path
        d="M98.6807 79.2075H78.0796H72.0546C71.4559 79.2075 70.9631 79.6938 70.9631 80.2986V88.7468V106.909C70.9631 107.507 71.4496 108 72.0546 108H98.6807C99.2794 108 99.7722 107.514 99.7722 106.909V80.2923C99.7722 79.7 99.2794 79.2075 98.6807 79.2075ZM97.5892 105.824H73.1461V81.3897H97.5892V105.824Z"
        fill="#34C759" />
    <path
        d="M84.2793 95.1687V99.8323C84.2793 100.431 84.7658 100.923 85.3708 100.923C85.9758 100.923 86.4623 100.437 86.4623 99.8323V95.1687C88.6765 94.6699 90.3355 92.6934 90.3355 90.3304C90.3355 87.5933 88.1089 85.3675 85.3708 85.3675C82.6328 85.3675 80.4061 87.5933 80.4061 90.3304C80.4061 92.6934 82.0652 94.6699 84.2793 95.1687ZM85.3708 87.5435C86.9051 87.5435 88.1588 88.7904 88.1588 90.3304C88.1588 91.8642 86.9114 93.1174 85.3708 93.1174C83.8303 93.1174 82.5829 91.8704 82.5829 90.3304C82.5829 88.7967 83.8365 87.5435 85.3708 87.5435Z"
        fill="#34C759" />
</svg>
