<svg width="108" height="108" viewBox="0 0 108 108" fill="none" xmlns="http://www.w3.org/2000/svg">
    <path
        d="M32.1113 79.8867V85.4423C32.1113 86.9157 32.6966 88.3288 33.7385 89.3706C34.7804 90.4125 36.1935 90.9978 37.6669 90.9978H71.0002C72.4736 90.9978 73.8867 90.4125 74.9286 89.3706C75.9705 88.3288 76.5558 86.9157 76.5558 85.4423V79.8867"
        stroke="#34C759" stroke-width="2" stroke-linecap="round" stroke-linejoin="round" />
    <path d="M68.2227 63.2205L54.3338 77.1094L40.4449 63.2205" stroke="#6F6F6F"
        stroke-linecap="round" stroke-linejoin="round" />
    <path d="M54.3335 77.1094L54.3335 43.776" stroke="#6F6F6F" stroke-linecap="round"
        stroke-linejoin="round" />
    <path
        d="M68.6644 52.4245H76.9168C77.4691 52.4245 77.9168 51.9768 77.9168 51.4245V48.0364C77.9168 47.7717 77.8118 47.5177 77.6249 47.3303L66.5406 36.2168C66.1502 35.8254 65.5163 35.825 65.1255 36.2159L59.2906 42.0507C58.9001 42.4412 58.9001 43.0744 59.2906 43.4649L67.9573 52.1316C68.1448 52.3191 68.3992 52.4245 68.6644 52.4245Z"
        fill="#34C759" stroke="#34C759" />
    <path
        d="M32 51.4258V45.59C32 45.3248 32.1054 45.0704 32.2929 44.8829L45.7929 31.3829C46.1834 30.9924 46.8166 30.9924 47.2071 31.3829L52.5417 36.7174L58.5833 42.7591L68.25 52.4258H33C32.4477 52.4258 32 51.9781 32 51.4258Z"
        fill="#34C759" stroke="#34C759" />
    <circle cx="62.2087" cy="29.4674" r="2.41667" fill="#34C759" />
    <path
        d="M76.9167 21H33C32.4477 21 32 21.4477 32 22V45.1667V51.4167C32 51.969 32.4477 52.4167 33 52.4167H68.25H76.9167C77.469 52.4167 77.9167 51.969 77.9167 51.4167V47.6152V22C77.9167 21.4477 77.469 21 76.9167 21Z"
        stroke="#6F6F6F" />
</svg>
