<svg width="64" height="64" viewBox="0 0 64 64" fill="none" xmlns="http://www.w3.org/2000/svg">
<path fill-rule="evenodd" clip-rule="evenodd" d="M50.6667 32C50.6667 42.3093 42.3093 50.6667 32 50.6667C21.6907 50.6667 13.3333 42.3093 13.3333 32C13.3333 21.6907 21.6907 13.3333 32 13.3333C42.3093 13.3333 50.6667 21.6907 50.6667 32ZM56 32C56 45.2548 45.2548 56 32 56C18.7452 56 8 45.2548 8 32C8 18.7452 18.7452 8 32 8C45.2548 8 56 18.7452 56 32ZM43.3137 39.5425L39.5425 43.3137L32 35.7712L24.4575 43.3137L20.6863 39.5425L28.2288 32L20.6863 24.4575L24.4575 20.6863L32 28.2288L39.5425 20.6863L43.3137 24.4575L35.7712 32L43.3137 39.5425Z" fill="#E33F45"/>
</svg>
