<svg width="16" height="13" viewBox="0 0 16 13" fill="none" xmlns="http://www.w3.org/2000/svg">
<path d="M8.57756 0.999991L14.9282 12C14.9867 12.1013 15.0175 12.2163 15.0175 12.3333C15.0175 12.4503 14.9867 12.5653 14.9282 12.6666C14.8697 12.768 14.7856 12.8522 14.6842 12.9107C14.5829 12.9692 14.4679 13 14.3509 13H1.64956C1.53254 13 1.41758 12.9692 1.31623 12.9107C1.21489 12.8522 1.13073 12.768 1.07222 12.6666C1.01371 12.5653 0.982909 12.4503 0.98291 12.3333C0.982911 12.2163 1.01372 12.1013 1.07223 12L7.42289 0.999991C7.48141 0.898653 7.56557 0.814502 7.66691 0.755995C7.76825 0.697488 7.88321 0.666687 8.00023 0.666687C8.11725 0.666687 8.2322 0.697488 8.33355 0.755995C8.43489 0.814502 8.51905 0.898653 8.57756 0.999991ZM2.80423 11.6667H13.1962L8.00023 2.66666L2.80423 11.6667ZM7.33356 9.66666H8.66689V11H7.33356V9.66666ZM7.33356 4.99999H8.66689V8.33332H7.33356V4.99999Z" fill="#E33F45"/>
</svg>
