<svg width="24" height="24" viewBox="0 0 24 24" fill="none" xmlns="http://www.w3.org/2000/svg">
<g clip-path="url(#clip0)">
<path d="M4.5 12.4287V11.5713C4.5 11.4576 4.54741 11.3486 4.6318 11.2682C4.71619 11.1878 4.83065 11.1426 4.95 11.1426H15.003L10.998 7.33574C10.9558 7.29589 10.9223 7.24847 10.8995 7.19623C10.8767 7.14399 10.8649 7.08796 10.8649 7.03137C10.8649 6.97477 10.8767 6.91874 10.8995 6.8665C10.9223 6.81426 10.9558 6.76684 10.998 6.72699L11.637 6.12681C11.6788 6.08663 11.7286 6.05473 11.7834 6.03297C11.8383 6.01121 11.8971 6 11.9565 6C12.0159 6 12.0747 6.01121 12.1296 6.03297C12.1844 6.05473 12.2342 6.08663 12.276 6.12681L17.802 11.3827C17.9286 11.5032 17.9998 11.6666 18 11.8371V12.1629C17.9979 12.333 17.927 12.4958 17.802 12.6173L12.276 17.8732C12.2342 17.9134 12.1844 17.9453 12.1296 17.967C12.0747 17.9888 12.0159 18 11.9565 18C11.8971 18 11.8383 17.9888 11.7834 17.967C11.7286 17.9453 11.6788 17.9134 11.637 17.8732L10.998 17.2644C10.9561 17.2253 10.9228 17.1786 10.9001 17.1271C10.8773 17.0756 10.8656 17.0202 10.8656 16.9643C10.8656 16.9085 10.8773 16.8531 10.9001 16.8016C10.9228 16.7501 10.9561 16.7034 10.998 16.6643L15.003 12.8574H4.95C4.83065 12.8574 4.71619 12.8122 4.6318 12.7318C4.54741 12.6514 4.5 12.5424 4.5 12.4287Z" fill="white"/>
</g>
<defs>
<clipPath id="clip0">
<rect width="24" height="24" fill="white"/>
</clipPath>
</defs>
</svg>
