<svg width="24" height="24" viewBox="0 0 24 24" fill="none" xmlns="http://www.w3.org/2000/svg">
<g clip-path="url(#clip0)">
<path d="M19.5 11.5713L19.5 12.4287C19.5 12.5424 19.4526 12.6514 19.3682 12.7318C19.2838 12.8122 19.1693 12.8574 19.05 12.8574L8.997 12.8574L13.002 16.6643C13.0442 16.7041 13.0777 16.7515 13.1005 16.8038C13.1233 16.856 13.1351 16.912 13.1351 16.9686C13.1351 17.0252 13.1233 17.0813 13.1005 17.1335C13.0777 17.1857 13.0442 17.2332 13.002 17.273L12.363 17.8732C12.3212 17.9134 12.2714 17.9453 12.2166 17.967C12.1617 17.9888 12.1029 18 12.0435 18C11.9841 18 11.9253 17.9888 11.8704 17.967C11.8156 17.9453 11.7658 17.9134 11.724 17.8732L6.198 12.6173C6.07137 12.4968 6.00016 12.3334 6 12.1629L6 11.8371C6.00207 11.667 6.073 11.5042 6.198 11.3827L11.724 6.12681C11.7658 6.08663 11.8156 6.05474 11.8704 6.03297C11.9253 6.01121 11.9841 6 12.0435 6C12.1029 6 12.1617 6.01121 12.2166 6.03297C12.2714 6.05474 12.3212 6.08663 12.363 6.12681L13.002 6.73556C13.0439 6.77468 13.0772 6.82137 13.0999 6.8729C13.1227 6.92443 13.1344 6.97976 13.1344 7.03565C13.1344 7.09155 13.1227 7.14688 13.0999 7.19841C13.0772 7.24994 13.0439 7.29663 13.002 7.33574L8.997 11.1426L19.05 11.1426C19.1693 11.1426 19.2838 11.1878 19.3682 11.2682C19.4526 11.3486 19.5 11.4576 19.5 11.5713Z" fill="white"/>
</g>
<defs>
<clipPath id="clip0">
<rect width="24" height="24" fill="white" transform="translate(24 24) rotate(-180)"/>
</clipPath>
</defs>
</svg>
