<svg width="33" height="32" viewBox="0 0 33 32" fill="none" xmlns="http://www.w3.org/2000/svg">
<path d="M10.6673 6.66645L17.6673 10.7079V8.0943C22.1904 8.74127 25.6673 12.6311 25.6673 17.3331C25.6673 22.4878 21.4886 26.6664 16.334 26.6664C11.1793 26.6664 7.00065 22.4878 7.00065 17.3331C7.00065 14.569 8.20052 12.0869 10.1121 10.376L8.33365 8.389C5.88079 10.5844 4.33398 13.779 4.33398 17.3331C4.33398 23.9605 9.70657 29.3331 16.334 29.3331C22.9614 29.3331 28.334 23.9605 28.334 17.3331C28.334 11.1564 23.6673 6.06961 17.6673 5.40635V2.625L10.6673 6.66645Z" fill="white"/>
<path d="M10.2108 13.7839V15.5234L12.258 15.0146V21.4164H14.1868V12.9793L10.2108 13.7839Z" fill="white"/>
<path fill-rule="evenodd" clip-rule="evenodd" d="M16.3262 14.9673C16.0422 15.6063 15.9002 16.3754 15.9002 17.2748C15.9002 18.1741 16.0422 18.9433 16.3262 19.5823C16.6181 20.2213 17.0243 20.7143 17.545 21.0614C18.0657 21.4007 18.6652 21.5703 19.3437 21.5703C20.0537 21.5703 20.6651 21.4007 21.1778 21.0614C21.6906 20.7143 22.0851 20.2213 22.3612 19.5823C22.6452 18.9433 22.7872 18.1741 22.7872 17.2748C22.7872 16.3754 22.6452 15.6063 22.3612 14.9673C22.0851 14.3283 21.6906 13.8392 21.1778 13.4999C20.6651 13.1528 20.0537 12.9793 19.3437 12.9793C18.6652 12.9793 18.0657 13.1528 17.545 13.4999C17.0243 13.8392 16.6181 14.3283 16.3262 14.9673ZM17.9355 18.3398C17.8645 18.0163 17.829 17.6613 17.829 17.2748C17.829 16.8882 17.8645 16.5372 17.9355 16.2216C18.0065 15.8982 18.1091 15.626 18.2432 15.4051C18.3773 15.1763 18.5351 15.0028 18.7165 14.8844C18.9058 14.7582 19.1149 14.6951 19.3437 14.6951C19.5725 14.6951 19.7776 14.7582 19.959 14.8844C20.1483 15.0028 20.3101 15.1763 20.4442 15.4051C20.5783 15.626 20.6808 15.8982 20.7518 16.2216C20.8228 16.5372 20.8583 16.8882 20.8583 17.2748C20.8583 17.6613 20.8228 18.0163 20.7518 18.3398C20.6808 18.6553 20.5783 18.9275 20.4442 19.1563C20.3101 19.3772 20.1483 19.5507 19.959 19.6769C19.7776 19.7953 19.5725 19.8544 19.3437 19.8544C19.1149 19.8544 18.9058 19.7953 18.7165 19.6769C18.5351 19.5507 18.3773 19.3772 18.2432 19.1563C18.1091 18.9275 18.0065 18.6553 17.9355 18.3398Z" fill="white"/>
</svg>
