<svg width="33" height="32" viewBox="0 0 33 32" fill="none" xmlns="http://www.w3.org/2000/svg">
<path d="M22.3327 6.66645L15.3327 10.7079V8.0943C10.8096 8.74127 7.33268 12.6311 7.33268 17.3331C7.33268 22.4878 11.5114 26.6664 16.666 26.6664C21.8207 26.6664 25.9993 22.4878 25.9993 17.3331C25.9993 14.569 24.7995 12.0869 22.8879 10.376L24.6663 8.389C27.1192 10.5844 28.666 13.779 28.666 17.3331C28.666 23.9605 23.2934 29.3331 16.666 29.3331C10.0386 29.3331 4.66602 23.9605 4.66602 17.3331C4.66602 11.1564 9.33275 6.06961 15.3327 5.40635V2.625L22.3327 6.66645Z" fill="white"/>
<path d="M10.5429 13.7839V15.5234L12.59 15.0146V21.4164H14.5189V12.9793L10.5429 13.7839Z" fill="white"/>
<path fill-rule="evenodd" clip-rule="evenodd" d="M16.6582 14.9673C16.3742 15.6063 16.2322 16.3754 16.2322 17.2748C16.2322 18.1741 16.3742 18.9433 16.6582 19.5823C16.9501 20.2213 17.3564 20.7143 17.877 21.0614C18.3977 21.4007 18.9973 21.5703 19.6757 21.5703C20.3857 21.5703 20.9971 21.4007 21.5099 21.0614C22.0226 20.7143 22.4171 20.2213 22.6932 19.5823C22.9772 18.9433 23.1192 18.1741 23.1192 17.2748C23.1192 16.3754 22.9772 15.6063 22.6932 14.9673C22.4171 14.3283 22.0226 13.8392 21.5099 13.4999C20.9971 13.1528 20.3857 12.9793 19.6757 12.9793C18.9973 12.9793 18.3977 13.1528 17.877 13.4999C17.3564 13.8392 16.9501 14.3283 16.6582 14.9673ZM18.2675 18.3398C18.1965 18.0163 18.161 17.6613 18.161 17.2748C18.161 16.8882 18.1965 16.5372 18.2675 16.2216C18.3385 15.8982 18.4411 15.626 18.5752 15.4051C18.7093 15.1763 18.8671 15.0028 19.0485 14.8844C19.2379 14.7582 19.4469 14.6951 19.6757 14.6951C19.9045 14.6951 20.1096 14.7582 20.291 14.8844C20.4804 15.0028 20.6421 15.1763 20.7762 15.4051C20.9103 15.626 21.0129 15.8982 21.0839 16.2216C21.1549 16.5372 21.1904 16.8882 21.1904 17.2748C21.1904 17.6613 21.1549 18.0163 21.0839 18.3398C21.0129 18.6553 20.9103 18.9275 20.7762 19.1563C20.6421 19.3772 20.4804 19.5507 20.291 19.6769C20.1096 19.7953 19.9045 19.8544 19.6757 19.8544C19.4469 19.8544 19.2379 19.7953 19.0485 19.6769C18.8671 19.5507 18.7093 19.3772 18.5752 19.1563C18.4411 18.9275 18.3385 18.6553 18.2675 18.3398Z" fill="white"/>
</svg>
