<svg width="34" height="38" viewBox="0 0 34 38" fill="none" xmlns="http://www.w3.org/2000/svg">
<g clip-path="url(#clip0_4526_36273)">
<path d="M8 23H8.01024" stroke="#E33F45" stroke-width="1.5" stroke-linecap="round" stroke-linejoin="round"/>
<path d="M12 23C12 21.9391 11.5786 20.9217 10.8284 20.1716C10.0783 19.4214 9.06087 19 8 19" stroke="#E33F45" stroke-width="1.5" stroke-linecap="round" stroke-linejoin="round"/>
<path d="M16 23C16 20.8783 15.1571 18.8434 13.6569 17.3431C12.1566 15.8429 10.1217 15 8 15" stroke="#E33F45" stroke-width="1.5" stroke-linecap="round" stroke-linejoin="round"/>
<path d="M20.0002 23H23.0002C23.7958 23 24.5589 22.6839 25.1215 22.1213C25.6841 21.5587 26.0002 20.7957 26.0002 20V12C26.0002 11.2044 25.6841 10.4413 25.1215 9.87868C24.5589 9.31607 23.7958 9 23.0002 9H11.0002C10.3847 9.00584 9.78585 9.20088 9.28496 9.55866C8.78406 9.91644 8.40535 10.4196 8.2002 11" stroke="#E33F45" stroke-width="1.5" stroke-linecap="round" stroke-linejoin="round"/>
<path d="M10.3463 28.4V34H13.7223V33H11.4903V28.4H10.3463ZM14.2335 28.896C14.2335 29.0613 14.2949 29.2 14.4175 29.312C14.5402 29.424 14.6869 29.48 14.8575 29.48C15.0282 29.48 15.1722 29.424 15.2895 29.312C15.4122 29.2 15.4735 29.0613 15.4735 28.896C15.4735 28.7253 15.4122 28.5867 15.2895 28.48C15.1722 28.368 15.0282 28.312 14.8575 28.312C14.6869 28.312 14.5402 28.368 14.4175 28.48C14.2949 28.5867 14.2335 28.7253 14.2335 28.896ZM14.3455 30.32V34H15.3535V30.32H14.3455ZM15.9254 30.32L17.9414 34.384L19.9574 30.32H18.8454L17.9414 32.536L17.0374 30.32H15.9254ZM22.0722 34.08C22.5149 34.08 22.8936 33.9947 23.2082 33.824C23.5282 33.648 23.7842 33.3867 23.9762 33.04L23.0722 32.76C22.9656 32.936 22.8296 33.0693 22.6642 33.16C22.5042 33.2453 22.3096 33.288 22.0802 33.288C21.8776 33.288 21.7042 33.2427 21.5602 33.152C21.4162 33.0613 21.3069 32.9307 21.2322 32.76C21.1629 32.5893 21.1282 32.3813 21.1282 32.136C21.1336 31.88 21.1709 31.6667 21.2402 31.496C21.3149 31.32 21.4189 31.1893 21.5522 31.104C21.6909 31.0133 21.8616 30.968 22.0642 30.968C22.2296 30.968 22.3736 31.0053 22.4962 31.08C22.6189 31.1547 22.7122 31.256 22.7762 31.384C22.8456 31.512 22.8802 31.6667 22.8802 31.848C22.8802 31.8853 22.8696 31.9333 22.8482 31.992C22.8322 32.0453 22.8136 32.088 22.7922 32.12L23.0722 31.752H20.6802V32.392H23.9762C23.9816 32.36 23.9842 32.3173 23.9842 32.264C23.9896 32.2107 23.9922 32.16 23.9922 32.112C23.9922 31.7173 23.9176 31.3813 23.7682 31.104C23.6189 30.8213 23.4002 30.608 23.1122 30.464C22.8296 30.3147 22.4856 30.24 22.0802 30.24C21.6749 30.24 21.3229 30.32 21.0242 30.48C20.7256 30.6347 20.4936 30.856 20.3282 31.144C20.1682 31.4267 20.0882 31.7653 20.0882 32.16C20.0882 32.5493 20.1682 32.888 20.3282 33.176C20.4936 33.4587 20.7256 33.68 21.0242 33.84C21.3229 34 21.6722 34.08 22.0722 34.08Z" fill="#E33F45"/>
</g>
<defs>
<clipPath id="clip0_4526_36273">
<rect width="24" height="30" fill="white" transform="translate(5 4)"/>
</clipPath>
</defs>
</svg>
