<svg fill="none" height="40" viewBox="0 0 40 40" width="40" xmlns="http://www.w3.org/2000/svg">
    <path clip-rule="evenodd"
        d="M2.44828 1C1.64841 1 1 1.64842 1 2.44828V8H3.13348V3.61624C3.13348 3.34962 3.34962 3.13348 3.61624 3.13348H8V1H2.44828Z"
        fill="#34C759" fill-rule="evenodd" />
    <path clip-rule="evenodd"
        d="M37.5517 1H32V3.13348H36.3838C36.6504 3.13348 36.8665 3.34962 36.8665 3.61624V7.99999H39V2.44827C39 1.64841 38.3516 1 37.5517 1Z"
        fill="#34C759" fill-rule="evenodd" />
    <path clip-rule="evenodd"
        d="M39 32H36.8665V36.3526C36.8665 36.6192 36.6504 36.8353 36.3838 36.8353H32V39H37.5517C38.3516 39 39 38.3516 39 37.5517V32Z"
        fill="#34C759" fill-rule="evenodd" />
    <path clip-rule="evenodd"
        d="M3.13348 32H1V37.5517C1 38.3516 1.64842 39 2.44828 39H8V36.8353H3.61624C3.34962 36.8353 3.13348 36.6192 3.13348 36.3526V32Z"
        fill="#34C759" fill-rule="evenodd" />
    <path
        d="M22.4263 15.7367C23.6665 14.8925 24.4878 13.42 24.4878 11.7445C24.4878 9.12421 22.4788 7 20.0006 7C17.5224 7 15.5134 9.12421 15.5134 11.7445C15.5134 13.4342 16.3488 14.9176 17.6067 15.7582C16.9243 15.8948 16.4095 16.51 16.4095 17.2482C16.4095 17.8303 16.7296 18.3359 17.1995 18.5906L17.1999 18.7477C17.2033 19.7212 17.2106 21.8369 16.5085 23.553C15.9162 25.0006 14.9619 26.026 14.4354 26.3578L14.4362 26.5932C14.4362 28.0217 15.1792 29.2727 16.2913 29.9635H14.2833C13.5746 29.9635 13 30.5515 13 31.2768V31.6867C13 32.412 13.5746 33 14.2833 33H25.7167C26.4254 33 27 32.412 27 31.6867V31.2768C27 30.5515 26.4254 29.9635 25.7167 29.9635H23.7094C24.8215 29.2727 25.5644 28.0217 25.5644 26.5932V26.3578C25.0379 26.026 24.0827 25.0006 23.4904 23.553C22.7882 21.8369 22.7956 19.7212 22.7989 18.7477C22.799 18.7219 22.7991 18.6969 22.7992 18.6727C23.365 18.4587 23.7685 17.9016 23.7685 17.2482C23.7685 16.4585 23.1793 15.8097 22.4263 15.7367Z"
        stroke="#6F6F6F" stroke-linejoin="round" stroke-width="2" />
</svg>
