<svg width="21" height="21" viewBox="0 0 21 21" fill="none" xmlns="http://www.w3.org/2000/svg">
<path fill-rule="evenodd" clip-rule="evenodd" d="M14.6249 0H1.62486V2.94145e-06H0.625L0.625006 16H2.62501L8.62486 16V14H8.62491L8.62491 13.5L8.62491 8L14.1171 8L14.1249 7.99999L14.1328 8H14.6249H16.6249V0H15.6249H14.6249ZM8.62491 8H2.625L2.625 2H8.62491L8.62491 8ZM14.3438 11.75C13.3358 11.75 12.5 12.5791 12.5 13.625C12.5 14.6709 13.3358 15.5 14.3438 15.5C15.3517 15.5 16.1875 14.6709 16.1875 13.625C16.1875 12.5791 15.3517 11.75 14.3438 11.75ZM10.5 13.625C10.5 11.4952 12.2106 9.75 14.3438 9.75C16.4769 9.75 18.1875 11.4952 18.1875 13.625C18.1875 14.3354 17.9972 15.0031 17.6643 15.5775L20.6396 18.5949L19.2354 20.019L16.2498 16.9912C15.689 17.3147 15.0388 17.5 14.3438 17.5C12.2106 17.5 10.5 15.7548 10.5 13.625Z" fill="white"/>
</svg>
