<svg width="109" height="108" viewBox="0 0 109 108" fill="none" xmlns="http://www.w3.org/2000/svg">
<circle cx="54.5" cy="54" r="54" fill="#AEAEB2" fill-opacity="0.1"/>
<path fill-rule="evenodd" clip-rule="evenodd" d="M38.5 25.5C38.7761 25.5 39 25.7239 39 26C39 29.037 40.2542 30.8869 41.7922 31.9942C43.3556 33.1199 45.2467 33.5 46.5 33.5C46.7761 33.5 47 33.7239 47 34C47 34.2761 46.7761 34.5 46.5 34.5C43.463 34.5 41.6131 35.7542 40.5058 37.2922C39.3801 38.8556 39 40.7467 39 42C39 42.2761 38.7761 42.5 38.5 42.5C38.2239 42.5 38 42.2761 38 42C38 38.963 36.7458 37.1131 35.2078 36.0058C33.6444 34.8801 31.7533 34.5 30.5 34.5C30.2239 34.5 30 34.2761 30 34C30 33.7239 30.2239 33.5 30.5 33.5C33.537 33.5 35.3869 32.2458 36.4942 30.7078C37.6199 29.1444 38 27.2533 38 26C38 25.7239 38.2239 25.5 38.5 25.5ZM38.4591 29.0533C38.1946 29.8095 37.8197 30.5784 37.3058 31.2922C36.4576 32.4702 35.2402 33.4834 33.5533 34.0409C34.3095 34.3054 35.0784 34.6803 35.7922 35.1942C36.9702 36.0424 37.9834 37.2598 38.5409 38.9467C38.8054 38.1905 39.1803 37.4216 39.6942 36.7078C40.5424 35.5298 41.7598 34.5166 43.4467 33.9591C42.6905 33.6946 41.9216 33.3197 41.2078 32.8058C40.0298 31.9576 39.0166 30.7402 38.4591 29.0533Z" fill="black"/>
<path fill-rule="evenodd" clip-rule="evenodd" d="M52 15C52.3038 15 52.55 15.2239 52.55 15.5C52.55 17.3581 53.3074 18.4605 54.1998 19.1096C55.1162 19.776 56.2256 20 56.95 20C57.2538 20 57.5 20.2239 57.5 20.5C57.5 20.7761 57.2538 21 56.95 21C55.1749 21 54.1031 21.7328 53.4516 22.6469C52.7808 23.588 52.55 24.7368 52.55 25.5C52.55 25.7761 52.3038 26 52 26C51.6962 26 51.45 25.7761 51.45 25.5C51.45 23.6419 50.6926 22.5395 49.8002 21.8904C48.8838 21.224 47.7744 21 47.05 21C46.7462 21 46.5 20.7761 46.5 20.5C46.5 20.2239 46.7462 20 47.05 20C48.8251 20 49.8969 19.2672 50.5484 18.3531C51.2192 17.412 51.45 16.2632 51.45 15.5C51.45 15.2239 51.6962 15 52 15ZM51.9722 18.0357C51.8351 18.3289 51.6696 18.6191 51.4716 18.8969C51.0004 19.5579 50.3471 20.1437 49.4734 20.5281C49.819 20.6813 50.162 20.873 50.4873 21.1096C51.1105 21.5628 51.655 22.1711 52.0278 22.9643C52.1649 22.6711 52.3304 22.3809 52.5284 22.1031C52.9996 21.4421 53.6529 20.8563 54.5266 20.4719C54.181 20.3187 53.838 20.127 53.5127 19.8904C52.8895 19.4372 52.345 18.8289 51.9722 18.0357Z" fill="black"/>
<path fill-rule="evenodd" clip-rule="evenodd" d="M73.24 32.4141L40.006 65.6482C39.6155 66.0387 38.9823 66.0387 38.5918 65.6482L25.8639 52.9202L20.9141 57.87L39.2989 76.2548L78.1898 37.3639L73.24 32.4141ZM26.2174 51.8596C26.0222 51.6643 25.7056 51.6643 25.5103 51.8596L19.8535 57.5164C19.6582 57.7117 19.6582 58.0283 19.8535 58.2235L38.9454 77.3154C39.1406 77.5107 39.4572 77.5107 39.6525 77.3154L79.2504 37.7174C79.4457 37.5222 79.4457 37.2056 79.2504 37.0103L73.5936 31.3535C73.3983 31.1582 73.0817 31.1582 72.8865 31.3535L39.2989 64.941L26.2174 51.8596Z" fill="#34C759"/>
<path d="M56.3072 76.1985L52.7716 72.663L52.0645 71.9559L51.3574 72.663L55.9536 77.2592C56.1489 77.4545 56.4655 77.4545 56.6607 77.2592L89.937 43.9829C90.1323 43.7877 90.1323 43.4711 89.937 43.2758L85.6944 39.0332C85.4991 38.8379 85.1825 38.8379 84.9873 39.0332L56.0847 67.9357L56.7918 68.6428L85.3408 40.0938L88.8764 43.6294L56.3072 76.1985Z" fill="black"/>
</svg>
