<svg width="36" height="26" viewBox="0 0 36 26" fill="none" xmlns="http://www.w3.org/2000/svg">
<path d="M23.0006 12.9987H23.0172M28.0006 9.66537H28.0172M15.4155 1.33203H20.5856C24.9604 1.33203 27.1478 1.33203 28.8648 2.16108C30.3765 2.89103 31.6325 4.06051 32.4683 5.51635C33.4175 7.16986 33.5734 9.35171 33.8851 13.7154L34.2951 19.4562C34.4962 22.2711 32.2668 24.6654 29.4448 24.6654C28.0016 24.6654 26.633 24.0243 25.7092 22.9157L25.0839 22.1654C24.512 21.4791 24.226 21.1359 23.9004 20.8586C23.2178 20.2773 22.3914 19.8903 21.5078 19.738C21.0864 19.6654 20.6397 19.6654 19.7463 19.6654H16.2548C15.3614 19.6654 14.9147 19.6654 14.4933 19.738C13.6097 19.8903 12.7833 20.2773 12.1007 20.8586C11.7751 21.1359 11.4891 21.479 10.9172 22.1654L10.2919 22.9157C9.36806 24.0244 7.99947 24.6654 6.55631 24.6654C3.73428 24.6654 1.50491 22.2711 1.70597 19.4562L2.11602 13.7154C2.42772 9.35171 2.58356 7.16986 3.53284 5.51635C4.36863 4.06051 5.62462 2.89103 7.13632 2.16108C8.85325 1.33203 11.0407 1.33203 15.4155 1.33203Z" stroke="black" stroke-width="2" stroke-linecap="round" stroke-linejoin="round"/>
</svg>
