<svg width="40" height="40" viewBox="0 0 40 40" fill="none" xmlns="http://www.w3.org/2000/svg">
<path d="M25.0006 19.9987H25.0172M30.0006 16.6654H30.0172M17.4155 8.33203H22.5856C26.9604 8.33203 29.1478 8.33203 30.8648 9.16108C32.3765 9.89103 33.6325 11.0605 34.4683 12.5164C35.4175 14.1699 35.5734 16.3517 35.8851 20.7154L36.2951 26.4562C36.4962 29.2711 34.2668 31.6654 31.4448 31.6654C30.0016 31.6654 28.633 31.0243 27.7092 29.9157L27.0839 29.1654C26.512 28.4791 26.226 28.1359 25.9004 27.8586C25.2178 27.2773 24.3914 26.8903 23.5078 26.738C23.0864 26.6654 22.6397 26.6654 21.7463 26.6654H18.2548C17.3614 26.6654 16.9147 26.6654 16.4933 26.738C15.6097 26.8903 14.7833 27.2773 14.1007 27.8586C13.7751 28.1359 13.4891 28.479 12.9172 29.1654L12.2919 29.9157C11.3681 31.0244 9.99947 31.6654 8.55631 31.6654C5.73428 31.6654 3.50491 29.2711 3.70597 26.4562L4.11602 20.7154C4.42772 16.3517 4.58356 14.1699 5.53284 12.5164C6.36863 11.0605 7.62462 9.89103 9.13632 9.16108C10.8533 8.33203 13.0407 8.33203 17.4155 8.33203Z" stroke="#6F6F6F" stroke-width="2" stroke-linecap="round" stroke-linejoin="round"/>
<path d="M9.80078 18.3008H16.8008M13.3008 14.8008V21.8008" stroke="#34C759" stroke-width="2" stroke-linecap="round" stroke-linejoin="round"/>
</svg>
