<svg width="21" height="20" viewBox="0 0 21 20" fill="none" xmlns="http://www.w3.org/2000/svg">
<path d="M9.125 0V3H11.125V0H9.125Z" fill="white"/>
<path fill-rule="evenodd" clip-rule="evenodd" d="M10.125 4C6.81721 4 4.125 6.6664 4.125 9.96875C4.125 11.7273 4.89176 13.371 6.125 14.4786V20H14.125V14.4786C15.3582 13.371 16.125 11.7273 16.125 9.96875C16.125 6.6664 13.4328 4 10.125 4ZM6.125 9.96875C6.125 7.78277 7.90994 6 10.125 6C12.3401 6 14.125 7.78277 14.125 9.96875C14.125 11.2775 13.4894 12.4867 12.5268 13.2052L12.125 13.5052V18H8.125V13.5052L7.72317 13.2052C6.7606 12.4867 6.125 11.2775 6.125 9.96875Z" fill="white"/>
<path d="M14.4179 4.29289L16.4179 2.29289L17.8321 3.7071L15.8321 5.7071L14.4179 4.29289Z" fill="white"/>
<path d="M2.41789 3.7071L4.41789 5.7071L5.8321 4.29289L3.8321 2.29289L2.41789 3.7071Z" fill="white"/>
<path d="M17.125 9H20.125V11H17.125V9Z" fill="white"/>
<path d="M0.125 11H3.125V9H0.125V11Z" fill="white"/>
</svg>
