<svg width="84" height="84" viewBox="0 0 84 84" fill="none" xmlns="http://www.w3.org/2000/svg">
<rect width="84" height="84" rx="4"/>
<path d="M55.8992 18.3008V20.4008H57.2992H63.5992V26.7008H65.6992C67.6322 26.7008 69.1992 28.2678 69.1992 30.2008C69.1992 32.1338 67.6322 33.7008 65.6992 33.7008H63.5992V36.0808V42.8008H56.8792H55.8992V40.3508C55.8992 38.6111 54.4889 37.2008 52.7492 37.2008C51.0095 37.2008 49.5992 38.6111 49.5992 40.3508V42.8008H47.9192H41.1992V36.0808V33.7008H43.2992C45.2322 33.7008 46.7992 32.1338 46.7992 30.2008C46.7992 28.2678 45.2322 26.7008 43.2992 26.7008H41.1992V20.4008H47.4992H48.8992V18.3008C48.8992 16.3678 50.4662 14.8008 52.3992 14.8008C54.3322 14.8008 55.8992 16.3678 55.8992 18.3008Z" stroke="#6F6F6F" stroke-width="2" stroke-linecap="round" stroke-linejoin="round"/>
<path d="M31.5008 42.6992V44.7992H32.9008H39.2008V51.0992H41.3008C43.2338 51.0992 44.8008 52.6662 44.8008 54.5992C44.8008 56.5322 43.2338 58.0992 41.3008 58.0992H39.2008V60.4792V67.1992H32.4808H31.5008V64.7492C31.5008 63.0095 30.0905 61.5992 28.3508 61.5992C26.6111 61.5992 25.2008 63.0095 25.2008 64.7492V67.1992H23.5208H16.8008V60.4792V58.0992H18.9008C20.8338 58.0992 22.4008 56.5322 22.4008 54.5992C22.4008 52.6662 20.8338 51.0992 18.9008 51.0992H16.8008V44.7992H23.1008H24.5008V42.6992C24.5008 40.7662 26.0678 39.1992 28.0008 39.1992C29.9338 39.1992 31.5008 40.7662 31.5008 42.6992Z" stroke="#34C759" stroke-width="2" stroke-linecap="round" stroke-linejoin="round"/>
</svg>
