<svg width="24" height="24" viewBox="0 0 24 24" fill="none" xmlns="http://www.w3.org/2000/svg">
<path fill-rule="evenodd" clip-rule="evenodd" d="M9.02706 2H14.9969L17.0067 4H22V14H20V6H16.1811L14.1714 4H9.84819L7.82307 6H4V18H14.0001V20H2V4H7.00194L9.02706 2Z" fill="#2A2A2A"/>
<path fill-rule="evenodd" clip-rule="evenodd" d="M18 22V16H20V22H18Z" fill="#2A2A2A"/>
<path fill-rule="evenodd" clip-rule="evenodd" d="M22 20H16.0001V18H22V20Z" fill="#2A2A2A"/>
<path fill-rule="evenodd" clip-rule="evenodd" d="M12.0001 9.5C10.6194 9.5 9.50012 10.6193 9.50012 12C9.50012 13.3807 10.6194 14.5 12.0001 14.5C13.3808 14.5 14.5001 13.3807 14.5001 12C14.5001 10.6193 13.3808 9.5 12.0001 9.5ZM7.50012 12C7.50012 9.51472 9.51484 7.5 12.0001 7.5C14.4854 7.5 16.5001 9.51472 16.5001 12C16.5001 14.4853 14.4854 16.5 12.0001 16.5C9.51484 16.5 7.50012 14.4853 7.50012 12Z" fill="#2A2A2A"/>
</svg>
