<svg width="24" height="24" viewBox="0 0 24 24" fill="none" xmlns="http://www.w3.org/2000/svg">
<path fill-rule="evenodd" clip-rule="evenodd" d="M2 2H8.99996V3.99999H3.99999V8.99996H2V2ZM2 14.9999H3.99999V19.9999H8.99996V21.9999H2V14.9999ZM21.9999 14.9999H19.9999V19.9999H14.9999V21.9999H21.9999V14.9999ZM19.9999 3.99999H14.9999V2H21.9999V8.99996H19.9999V3.99999ZM11.9999 9.99995C10.8954 9.99995 9.99995 10.8954 9.99995 11.9999C9.99995 13.1045 10.8954 13.9999 11.9999 13.9999C13.1045 13.9999 13.9999 13.1045 13.9999 11.9999C13.9999 10.8954 13.1045 9.99995 11.9999 9.99995Z" fill="#2A2A2A"/>
</svg>
