<svg width="24" height="24" viewBox="0 0 24 24" fill="none" xmlns="http://www.w3.org/2000/svg">
<path fill-rule="evenodd" clip-rule="evenodd" d="M2 2H22V22H2V2ZM4 4V20H20V4H4Z" fill="#2A2A2A"/>
<path fill-rule="evenodd" clip-rule="evenodd" d="M20 19.9998L8.00024 8.00011L4.00012 12.0002L4.00008 14.8287L8.00024 10.8285L17.1717 20L20 20V19.9998Z" fill="#2A2A2A"/>
<path fill-rule="evenodd" clip-rule="evenodd" d="M14.4145 14.4143L16.0003 12.8285L20.0003 16.8285V14.0001L16.0003 10.0001L13.0002 13.0001L14.4145 14.4143Z" fill="#2A2A2A"/>
<path d="M16 7C16 6.44772 16.4477 6 17 6C17.5523 6 18 6.44772 18 7C18 7.55228 17.5523 8 17 8C16.4477 8 16 7.55228 16 7Z" fill="#2A2A2A"/>
</svg>
