<svg fill="none" height="24" viewBox="0 0 24 24" width="24" xmlns="http://www.w3.org/2000/svg">
    <path clip-rule="evenodd"
        d="M10.8008 19.4641L10.8045 19.4663L9.90462 21L5.22853 18.3435L6.12844 16.8098L6.12915 16.8102L6.37335 16.394C5.9464 15.8665 5.59433 15.2778 5.33296 14.6434H4.79983H3.28295H3L3 9.3304H3.2812H4.79983L5.3303 9.3304C5.5875 8.70428 5.93302 8.12259 6.35167 7.60029L6.12826 7.21952L5.36982 5.92691L5.22834 5.68579L9.90443 3.02929L10.045 3.26891L10.8043 4.56302L11.0392 4.96321C11.3559 4.9213 11.6792 4.89966 12.0076 4.89966C12.348 4.89966 12.6829 4.92291 13.0108 4.96788L13.2655 4.53373L14.0239 3.24112L14.1654 3L18.8415 5.6565L18.7009 5.89612L17.9416 7.19024L17.6851 7.62732C18.0941 8.14263 18.4322 8.71506 18.6849 9.3304H19.2002H20.717H21V14.6434H20.7188H19.2002H18.6823C18.429 15.2582 18.0905 15.8301 17.6813 16.3448L17.9416 16.7884L18.7 18.081L18.8415 18.3221L14.1654 20.9787L14.0248 20.739L13.2655 19.4449L13.0046 19.0003C12.6788 19.0447 12.3459 19.0677 12.0076 19.0677C11.6893 19.0677 11.3758 19.0473 11.0685 19.0079L10.8008 19.4641ZM14.8708 5.34011L14.8243 5.41929L14.8242 5.41923L14.8039 5.45385L14.804 5.45389L13.8944 7.00407C13.3071 6.78849 12.6713 6.67066 12.0076 6.67066C11.3408 6.67066 10.7022 6.78961 10.1125 7.00711L9.17014 5.40099L7.61144 6.2865L8.55658 7.89732C7.58384 8.6936 6.89992 9.81982 6.68224 11.1014L4.8636 11.1014H4.79983H4.77857V12.8724H4.79983H4.86442L6.68335 12.8724C6.90633 14.1753 7.61124 15.3171 8.61145 16.1143L7.65603 17.7427L9.21473 18.6282L10.1792 16.9843C10.7502 17.1865 11.3659 17.2967 12.0076 17.2967C12.6692 17.2967 13.3029 17.1796 13.8887 16.9654L14.8462 18.5972L16.4049 17.7117L16.3827 17.674L16.3829 17.6739L16.3568 17.6294L16.3566 17.6295L15.4471 16.0794C16.4244 15.284 17.1121 14.1564 17.3319 12.8724L19.1508 12.8724H19.2002H19.2334V11.1014H19.2002H19.1516L17.333 11.1014C17.1148 9.81683 16.4282 8.68835 15.4518 7.89175L16.4295 6.22561L14.8708 5.34011ZM10.2078 11.9837C10.2078 12.9618 11.0136 13.7547 12.0076 13.7547C13.0016 13.7547 13.8074 12.9618 13.8074 11.9837C13.8074 11.0056 13.0016 10.2127 12.0076 10.2127C11.0136 10.2127 10.2078 11.0056 10.2078 11.9837ZM15.6073 11.9837C15.6073 10.0275 13.9957 8.44166 12.0076 8.44166C10.0196 8.44166 8.40797 10.0275 8.40797 11.9837C8.40797 13.9399 10.0196 15.5257 12.0076 15.5257C13.9957 15.5257 15.6073 13.9399 15.6073 11.9837Z"
        fill="#2A2A2A" fill-rule="evenodd" />
</svg>
