<svg width="40" height="40" fill="none" xmlns="http://www.w3.org/2000/svg"><path d="M26.134 27.717c1.874-1.827 3.298-4.641 3.298-7.164 0-2.389-2.262-5.526-4.574-8.108a52.34 52.34 0 0 0-2.256-2.359.764.764 0 0 0-.537-.221H17.98a.763.763 0 0 0-.547.232c-2.692 2.757-6.558 7.271-6.558 10.456 0 2.516.947 5.321 2.69 7.148.14.146.331.223.53.223h11.522a.737.737 0 0 0 .517-.207z" fill="#6A6A6A"/><path fill-rule="evenodd" clip-rule="evenodd" d="M25.394 13.054a41.824 41.824 0 0 0-1.072-1.2 54.076 54.076 0 0 0-1.72-1.768.764.764 0 0 0-.536-.221h-4.085a.763.763 0 0 0-.547.232c-2.692 2.757-6.558 7.271-6.558 10.456 0 2.516.947 5.321 2.69 7.149.14.146.331.222.53.222h11.522a.737.737 0 0 0 .517-.207c1.874-1.827 3.298-4.641 3.298-7.164 0-2.204-1.925-5.045-4.039-7.5zm5.607 7.499c0 3.076-1.686 6.292-3.791 8.344a2.276 2.276 0 0 1-1.592.649H14.096a2.27 2.27 0 0 1-1.646-.705c-2.076-2.176-3.141-5.414-3.141-8.288 0-2.15 1.247-4.444 2.565-6.336 1.375-1.976 3.083-3.866 4.457-5.273a2.304 2.304 0 0 1 1.65-.7h4.085c.598 0 1.178.235 1.617.667.72.71 1.525 1.537 2.326 2.432 1.19 1.328 2.404 2.84 3.331 4.365.899 1.479 1.66 3.182 1.66 4.845z" fill="#171717"/><path d="M19.972 5.81A2.918 2.918 0 0 0 17.17 7.96c-.12.43.242.8.675.8h4.254c.433 0 .795-.37.675-.8a2.918 2.918 0 0 0-2.802-2.148z" fill="#6A6A6A"/><path fill-rule="evenodd" clip-rule="evenodd" d="M18.004 7.948h3.938a2.128 2.128 0 0 0-1.97-1.326c-.896 0-1.653.555-1.968 1.326zm4.096 0c.002 0 .002 0 0 0zm-4.254 0c-.002 0-.002 0 0 0zm-1.429-.213C16.858 6.147 18.29 5 19.973 5s3.114 1.147 3.555 2.735c.143.513-.01 1-.305 1.333-.284.32-.696.502-1.123.502h-4.254c-.428 0-.839-.181-1.123-.502a1.422 1.422 0 0 1-.306-1.333z" fill="#171717"/><path d="M13.114 27.924h13.715c.433 0 .784.363.784.81v1.327c0 .448-.351.811-.784.811h2.547c.433 0 .784.363.784.811v1.695c0 .448-.35.811-.784.811h-18.81a.798.798 0 0 1-.783-.81v-1.696c0-.448.351-.81.784-.81h2.547a.798.798 0 0 1-.784-.812v-1.326c0-.448.351-.811.784-.811z" fill="#6A6A6A"/><path fill-rule="evenodd" clip-rule="evenodd" d="M11.547 28.735c0-.896.702-1.622 1.567-1.622H26.83c.865 0 1.567.726 1.567 1.622v1.326h.98c.866 0 1.567.727 1.567 1.622v1.695c0 .896-.701 1.622-1.567 1.622h-18.81C9.702 35 9 34.274 9 33.378v-1.695c0-.895.702-1.622 1.567-1.622h.98v-1.326zm-.98 2.948v1.695h18.81v-1.695h-18.81zm16.263-1.622H13.115v-1.326H26.83v1.326z" fill="#171717"/></svg>