<svg width="40" height="40" fill="none" xmlns="http://www.w3.org/2000/svg"><path d="M9.86 23.04c-.943-1-1.603-2.292-1.895-3.712a8.265 8.265 0 0 1 .25-4.27c.407-1.316 1.15-2.467 2.137-3.31.987-.844 2.174-1.342 3.412-1.432.18-.015.36-.022.54-.022 1.195 0 2.374.303 3.448.89a8.118 8.118 0 0 1 2.751 2.495 8.117 8.117 0 0 1 2.751-2.495 7.167 7.167 0 0 1 3.986-.87c1.238.09 2.425.588 3.412 1.432.987.843 1.73 1.995 2.137 3.31a8.267 8.267 0 0 1 .25 4.27c-.292 1.42-.952 2.712-1.895 3.713l-3.732 4.1h.939v3.369h2.793v3.369H9.861v-3.369h2.419v-3.369h1.313L9.86 23.04z" fill="#6A6A6A"/><path fill-rule="evenodd" clip-rule="evenodd" d="M21.302 5.814a.808.808 0 0 0-.8-.814c-.443 0-.801.365-.801.814V6.9h-1.973c-.442 0-.8.365-.8.815 0 .45.358.814.8.814h1.973v3.382a8.718 8.718 0 0 0-1.562-1.1l-.004-.003a7.97 7.97 0 0 0-4.346-.98h-.027l-.06.005c-1.41.107-2.749.67-3.86 1.617l-.007.006c-1.1.949-1.931 2.228-2.383 3.685l-.072.234v.01a8.992 8.992 0 0 0-.189 4.43c.32 1.563 1.05 2.991 2.097 4.1l.007.007 2.702 2.971a.804.804 0 0 0-.232.567v2.567h-1.588a.798.798 0 0 0-.794.802v3.369c0 .443.355.802.794.802H31.46c.439 0 .795-.36.795-.802v-3.37a.798.798 0 0 0-.795-.801h-2.036V27.46a.804.804 0 0 0-.339-.658l2.616-2.876.015-.016c1.043-1.113 1.772-2.538 2.093-4.093a8.984 8.984 0 0 0-.273-4.697l-.035-.103-.002-.005c-.458-1.397-1.262-2.634-2.34-3.553-1.107-.944-2.44-1.506-3.843-1.616a6.147 6.147 0 0 0-.593-.022h-.02c-1.326 0-2.64.341-3.82.986a8.473 8.473 0 0 0-1.581 1.112V8.53h1.973c.442 0 .8-.365.8-.814a.808.808 0 0 0-.8-.815h-1.973V5.814zm9.253 17.002-3.495 3.842H13.94l-3.495-3.843-.008-.008c-.833-.882-1.43-2.037-1.691-3.32a7.365 7.365 0 0 1 .222-3.85v-.017a6.363 6.363 0 0 1 1.898-2.943c.866-.739 1.89-1.164 2.955-1.244h.008c.159-.008.317-.016.476-.016 1.056 0 2.105.273 3.074.802a7.314 7.314 0 0 1 2.478 2.254c.15.209.389.337.65.337.263 0 .501-.12.652-.337a7.232 7.232 0 0 1 2.478-2.254 6.4 6.4 0 0 1 3.542-.778c1.065.08 2.089.505 2.955 1.243.865.739 1.524 1.757 1.89 2.936l.008.016a7.365 7.365 0 0 1 .222 3.85 6.893 6.893 0 0 1-1.691 3.322l-.008.008zm-17.201 7.21v-1.764h14.482v1.765H13.354zm-2.383 3.37V31.63h19.695v1.765H10.971z" fill="#171717"/></svg>