<svg width="40" height="40" fill="none" xmlns="http://www.w3.org/2000/svg"><path d="M13.124 27.61h.31c1.456-1.46 2.34-6.57 2.737-10.14a.801.801 0 0 1 .773-.723l6.367-.108a.802.802 0 0 1 .802.757c.262 3.68.977 8.982 2.453 10.215h.308c.434 0 .786.36.786.805v2.12h1.768c.434 0 .786.361.786.806v2.047a.796.796 0 0 1-.786.805H10.571a.796.796 0 0 1-.786-.805v-2.047c0-.445.352-.805.786-.805h1.768v-2.121c0-.445.351-.805.785-.805z" fill="#6A6A6A"/><path fill-rule="evenodd" clip-rule="evenodd" d="M23.298 15.834c.844-.015 1.539.653 1.6 1.503.129 1.822.37 4.028.756 5.92.193.946.418 1.791.675 2.46.197.517.392.87.563 1.088.86.01 1.554.727 1.554 1.611v1.315h.983c.867 0 1.571.721 1.571 1.611v2.047c0 .89-.704 1.61-1.571 1.61H10.57C9.704 35 9 34.28 9 33.39v-2.047c0-.89.704-1.61 1.571-1.61h.983v-1.316c0-.873.677-1.584 1.522-1.61.197-.27.406-.668.617-1.198.274-.69.523-1.536.744-2.467.442-1.862.758-3.995.954-5.762.089-.802.742-1.425 1.54-1.438l6.367-.107zm-8.405 10.971h10.181a8.615 8.615 0 0 1-.208-.498c-.3-.787-.548-1.728-.75-2.72-.406-1.989-.654-4.274-.786-6.133a.012.012 0 0 0-.005-.01l-6.367.108c-.002 0-.001 0 0 0l-.002.001a.013.013 0 0 0-.003.003v.005c-.2 1.804-.526 4.01-.989 5.961-.232.975-.502 1.904-.816 2.694-.08.201-.165.399-.255.59zm-1.768 2.926h13.75v-1.315h-13.75v1.315zm-2.554 1.611v2.047H29.43v-2.047H10.57z" fill="#171717"/><path d="M26.566 12.678c0 3.688-2.94 6.677-6.566 6.677-3.627 0-6.566-2.99-6.566-6.677C13.434 8.99 16.374 6 20 6s6.566 2.99 6.566 6.678z" fill="#6A6A6A"/><path fill-rule="evenodd" clip-rule="evenodd" d="M20 17.744c2.77 0 4.995-2.28 4.995-5.066S22.77 7.61 20 7.61c-2.77 0-4.995 2.28-4.995 5.067 0 2.785 2.224 5.066 4.995 5.066zm0 1.611c3.626 0 6.566-2.99 6.566-6.677C26.566 8.99 23.626 6 20 6c-3.627 0-6.566 2.99-6.566 6.678 0 3.688 2.94 6.677 6.566 6.677z" fill="#171717"/></svg>