<svg width="40" height="40" fill="none" xmlns="http://www.w3.org/2000/svg"><path d="M28.333 28.478v1.482c0 .445-.395.805-.882.805h2.743c.487 0 .882.361.882.806v1.818c0 .445-.395.805-.882.805H9.632c-.487 0-.882-.36-.882-.805V31.57c0-.445.395-.806.882-.806h2.5c-.487 0-.882-.36-.882-.805v-1.504c0-.408.362-.739.809-.739l-3.53-12.05 5.294 3.625v-6.445l3.089 4.833L20 9.625l2.647 8.055 3.97-4.833.442 6.445 4.853-3.625-4.412 12.05c.46 0 .833.34.833.761z" fill="#6A6A6A"/><path fill-rule="evenodd" clip-rule="evenodd" d="M20.02 8.82c.382.007.715.24.825.573l2.144 6.528 2.922-3.557a.93.93 0 0 1 .959-.289c.354.097.605.385.628.722l.334 4.876 3.52-2.63a.95.95 0 0 1 1.06-.04c.324.204.46.579.336.919l-4.155 11.35c.38.287.622.72.622 1.206v1.482h.978c.975 0 1.765.721 1.765 1.611v1.818c0 .89-.79 1.611-1.765 1.611H9.632c-.975 0-1.765-.721-1.765-1.611V31.57c0-.89.79-1.611 1.765-1.611h.735v-1.504c0-.49.25-.927.64-1.21l-3.33-11.371c-.098-.332.046-.684.358-.876a.951.951 0 0 1 1.023.023l3.883 2.658v-4.833c0-.364.267-.682.652-.777.385-.095.791.057.992.371l2.125 3.326 2.457-6.408c.126-.33.47-.547.852-.54zm-7.284 18.092h14.128l3.242-8.856-2.489 1.86a.95.95 0 0 1-.912.114.812.812 0 0 1-.527-.688l-.292-4.262-2.534 3.084a.925.925 0 0 1-.86.31.86.86 0 0 1-.69-.562l-1.867-5.68-2.19 5.715a.872.872 0 0 1-.75.535.909.909 0 0 1-.846-.396l-1.444-2.26v3.466a.802.802 0 0 1-.487.72.953.953 0 0 1-.924-.076l-3.254-2.228 2.696 9.204zM9.632 31.57v1.818h20.561V31.57H9.632zm2.5-3.048v1.437H27.45v-1.437H12.13z" fill="#171717"/><path d="M35 14.382c0 1.263-1.12 2.286-2.5 2.286S30 15.645 30 14.382c0-1.263 1.12-2.286 2.5-2.286s2.5 1.023 2.5 2.286z" fill="#6A6A6A"/><path fill-rule="evenodd" clip-rule="evenodd" d="M32.5 15.334a.737.737 0 0 0 .735-.738.737.737 0 0 0-.735-.738.737.737 0 0 0-.735.738c0 .41.332.738.735.738zm0 1.762a2.5 2.5 0 1 0 0-5 2.5 2.5 0 0 0 0 5z" fill="#171717"/><path d="M10 14.382c0 1.263-1.12 2.286-2.5 2.286S5 15.645 5 14.382c0-1.262 1.12-2.286 2.5-2.286S10 13.12 10 14.382z" fill="#6A6A6A"/><path fill-rule="evenodd" clip-rule="evenodd" d="M7.5 15.334a.737.737 0 0 0 .735-.738.737.737 0 0 0-.735-.738.737.737 0 0 0-.735.738c0 .41.332.738.735.738zm0 1.762a2.5 2.5 0 1 0 0-5 2.5 2.5 0 0 0 0 5z" fill="#171717"/><path d="M29.168 11.592a2.5 2.5 0 1 1-5 0 2.5 2.5 0 0 1 5 0z" fill="#6A6A6A"/><path fill-rule="evenodd" clip-rule="evenodd" d="M26.668 12.33a.737.737 0 0 0 .735-.738.737.737 0 0 0-.735-.739.737.737 0 0 0-.735.739c0 .41.332.738.735.738zm0 1.762a2.5 2.5 0 1 0 0-5 2.5 2.5 0 0 0 0 5z" fill="#171717"/><path d="M15.834 11.378c0 1.262-1.12 2.286-2.5 2.286s-2.5-1.024-2.5-2.286c0-1.263 1.12-2.286 2.5-2.286s2.5 1.023 2.5 2.286z" fill="#6A6A6A"/><path fill-rule="evenodd" clip-rule="evenodd" d="M13.334 12.33a.737.737 0 0 0 .735-.738.737.737 0 0 0-.735-.739.737.737 0 0 0-.735.739c0 .41.332.738.735.738zm0 1.762a2.5 2.5 0 1 0 0-5 2.5 2.5 0 0 0 0 5z" fill="#171717"/><path d="M22.5 8.286c0 1.263-1.12 2.286-2.5 2.286s-2.5-1.023-2.5-2.286C17.5 7.023 18.62 6 20 6s2.5 1.023 2.5 2.286z" fill="#6A6A6A"/><path fill-rule="evenodd" clip-rule="evenodd" d="M20 9.238a.737.737 0 0 0 .735-.738.737.737 0 0 0-.735-.738.737.737 0 0 0-.735.738c0 .41.332.738.735.738zM20 11a2.5 2.5 0 1 0 0-5 2.5 2.5 0 0 0 0 5z" fill="#171717"/></svg>