<svg width="40" height="40" fill="none" xmlns="http://www.w3.org/2000/svg"><path d="m10.8 12.714 9.6-3.452V5.811l7.6 8.437-2 8.437.8 4.218h.4c.443 0 .8.363.8.81v1.83c0 .448-.357.811-.8.811h3.2c.443 0 .8.363.8.811v2.213c0 .448-.357.811-.8.811H9.6a.805.805 0 0 1-.8-.81v-2.214c0-.448.359-.81.8-.81h2.8a.805.805 0 0 1-.8-.811v-1.83c0-.448.359-.811.8-.811h.8v-5.369l5.2-4.985-6.8.383-.8-4.218z" fill="#fff"/><path fill-rule="evenodd" clip-rule="evenodd" d="M20.11 5.055a.793.793 0 0 1 .88.21l7.6 8.436c.18.199.25.474.188.736l-1.96 8.266.647 3.411a1.616 1.616 0 0 1 1.335 1.6v1.83h1.6c.884 0 1.6.726 1.6 1.621v2.213A1.61 1.61 0 0 1 30.4 35H9.6A1.61 1.61 0 0 1 8 33.378v-2.213a1.61 1.61 0 0 1 1.6-1.621h1.2v-1.83c0-.896.716-1.622 1.6-1.622v-4.558c0-.223.09-.436.25-.589l3.613-3.464-4.619.26a.802.802 0 0 1-.83-.656l-.8-4.218a.812.812 0 0 1 .519-.918L19.6 8.69V5.812a.81.81 0 0 1 .51-.756zM14 26.092h3.6v-1.874c0-.147.04-.292.115-.419l1.6-2.684a.794.794 0 0 1 1.099-.275c.378.232.5.73.27 1.113L19.2 24.444v1.648h6.632l-.618-3.255a.822.822 0 0 1 .008-.342l1.901-8.018L21.2 7.9v1.361a.81.81 0 0 1-.532.764l-8.953 3.219.539 2.838 6.102-.344a.8.8 0 0 1 .779.489.819.819 0 0 1-.185.91L14 21.883v4.209zm-4.4 5.073v2.213h20.8v-2.213H9.6zm2.8-3.451v1.83h14.8v-1.83H12.4z" fill="#171717"/></svg>