<svg width="40" height="40" fill="none" xmlns="http://www.w3.org/2000/svg"><path d="M12.4 5.81h2c.443 0 .8.364.8.812v1.576c0 .447.359.81.8.81h1.2c.443 0 .8-.363.8-.81V6.622c0-.448.359-.811.8-.811h2.4c.443 0 .8.363.8.81v1.577c0 .447.359.81.8.81H24c.443 0 .8-.363.8-.81V6.622c0-.448.359-.811.8-.811h2c.443 0 .8.363.8.81v6.373c0 .448-.357.81-.8.81h-3.2c.134 3.731.88 11.592 2.8 13.19h.4c.443 0 .8.364.8.811v2.387h2c.443 0 .8.363.8.811v2.375c0 .448-.357.811-.8.811H9.6a.805.805 0 0 1-.8-.81v-2.376c0-.448.359-.81.8-.81h2v-2.388c0-.447.359-.81.8-.81h.4c1.92-1.919 2.934-9.593 3.2-13.19h-3.6a.805.805 0 0 1-.8-.811V6.622c0-.448.359-.811.8-.811z" fill="#fff"/><path fill-rule="evenodd" clip-rule="evenodd" d="M10.8 6.622A1.61 1.61 0 0 1 12.4 5h2c.884 0 1.6.726 1.6 1.622v1.576h1.2V6.622A1.61 1.61 0 0 1 18.8 5h2.4c.884 0 1.6.726 1.6 1.622v1.576H24V6.622A1.61 1.61 0 0 1 25.6 5h2c.884 0 1.6.726 1.6 1.622v6.372a1.61 1.61 0 0 1-1.6 1.622h-2.363c.094 1.805.308 4.227.682 6.447.218 1.294.487 2.497.81 3.46.27.807.55 1.351.8 1.66h.071c.884 0 1.6.727 1.6 1.622v1.576h1.2c.884 0 1.6.726 1.6 1.622v2.375A1.61 1.61 0 0 1 30.4 35H9.6A1.61 1.61 0 0 1 8 33.378v-2.375a1.61 1.61 0 0 1 1.6-1.622h1.2v-1.576a1.61 1.61 0 0 1 1.6-1.621h.037c.288-.386.59-.998.882-1.827.352-.996.658-2.206.917-3.49.44-2.178.734-4.511.894-6.252H12.4a1.61 1.61 0 0 1-1.6-1.621V6.622zm5.936 7.994c-.16 1.802-.466 4.266-.932 6.576-.268 1.324-.591 2.616-.978 3.711-.159.449-.334.883-.529 1.28h11.369c-.171-.357-.32-.744-.452-1.138-.361-1.077-.647-2.373-.873-3.71-.392-2.33-.612-4.857-.706-6.72h-6.899zM12.4 29.38h15.2v-1.576H12.4v1.576zm2-22.76h-2v6.373h15.2V6.622h-2v1.576A1.61 1.61 0 0 1 24 9.819h-1.2a1.61 1.61 0 0 1-1.6-1.621V6.622h-2.4v1.576a1.61 1.61 0 0 1-1.6 1.621H16a1.61 1.61 0 0 1-1.6-1.621V6.622zM9.6 31.004v2.375h20.8v-2.375H9.6z" fill="#171717"/></svg>