<svg width="24" height="24" viewBox="0 0 24 24" fill="none" xmlns="http://www.w3.org/2000/svg">
<g clip-path="url(#clip0_26297_38545)">
<path d="M15.8865 6.21556C16.5945 6.26356 18.6225 6.47956 19.9425 8.41156C19.8345 8.47156 17.5185 9.81556 17.5425 12.6236C17.5785 15.9836 20.4825 17.0996 20.5185 17.1116C20.4945 17.1956 20.0505 18.7076 18.9825 20.2676C18.0585 21.6236 17.0985 22.9676 15.5865 22.9916C14.0985 23.0276 13.6185 22.1156 11.9265 22.1156C10.2225 22.1156 9.6945 22.9676 8.2905 23.0276C6.8265 23.0756 5.7225 21.5636 4.7865 20.2196C2.8785 17.4596 1.4265 12.4436 3.3825 9.04756C4.3545 7.35556 6.0825 6.28756 7.9665 6.26356C9.3945 6.22756 10.7505 7.22356 11.6265 7.22356C12.4905 7.22356 14.0385 6.07156 15.8865 6.21556ZM14.7465 4.39156C13.9665 5.32756 12.6945 6.05956 11.4585 5.96356C11.2905 4.69156 11.9145 3.35956 12.6345 2.53156C13.4385 1.59556 14.7825 0.899563 15.8985 0.851562C16.0425 2.14756 15.5265 3.45556 14.7465 4.39156Z" fill="#2A2A2A"/>
</g>
<defs>
<clipPath id="clip0_26297_38545">
<rect width="24" height="24" fill="white"/>
</clipPath>
</defs>
</svg>
