<svg width="22" height="22" viewBox="0 0 22 22" fill="none" xmlns="http://www.w3.org/2000/svg">
<path d="M10.2952 21.2032C8.8446 21.0939 7.38864 20.6935 6.10872 20.0519C5.07723 19.5348 4.17321 18.8759 3.38073 18.0635C1.25385 15.8832 0.364232 12.8633 0.934292 9.75826C1.40367 7.20145 2.77035 5.07406 4.81239 3.72166C6.73731 2.44675 9.26319 1.84255 12.202 1.954L12.8549 1.97875L13.0693 1.84027C13.9204 1.29034 14.8036 1.01002 16.2913 0.817567C16.6953 0.765295 16.7513 0.76264 16.8099 0.792957C16.882 0.830217 16.9047 0.871179 16.9047 0.963549C16.9047 0.996957 16.7669 1.61563 16.5984 2.33839C16.2961 3.63538 16.2926 3.65353 16.3304 3.73288C16.3515 3.77709 16.4826 4.01976 16.6219 4.27213C16.7611 4.52451 16.9123 4.79956 16.9578 4.88335C17.0033 4.96714 17.4277 5.73706 17.9009 6.59428C18.3741 7.4515 19.0518 8.68021 19.4069 9.32476C20.378 11.0876 20.9054 12.0437 21.0345 12.2749C21.1869 12.5478 21.2244 12.7211 21.2228 13.1451C21.2217 13.4199 21.2117 13.5112 21.1608 13.707C20.9013 14.7054 19.9863 15.5539 18.5188 16.1571C18.1864 16.2938 17.8188 16.4146 17.7356 16.4146C17.6594 16.4146 17.6189 16.3684 17.3969 16.0279C16.9963 15.4136 16.2235 14.5283 15.4346 13.78C14.9833 13.3519 14.83 13.225 13.7406 12.3777C12.3564 11.301 11.8579 10.8774 11.1966 10.2163C9.99816 9.01812 9.43053 8.0334 9.34515 7.00455C9.31816 6.67941 9.40166 6.16512 9.4969 6.0699C9.62176 5.94504 9.84676 6.06547 9.8161 6.24076C9.80802 6.28702 9.79539 6.4368 9.78806 6.57361C9.77707 6.77846 9.78324 6.85599 9.82295 7.01305C10.0143 7.76956 10.7352 8.63455 12.0414 9.67459C12.6452 10.1553 13.0557 10.4502 14.3266 11.3161C15.8848 12.3777 16.0361 12.4974 16.7758 13.2533C17.4682 13.9609 17.824 14.4014 18.08 14.8678C18.1472 14.9903 18.2044 15.0937 18.2071 15.0977C18.219 15.115 18.5123 15.0242 18.6899 14.9482C19.4445 14.6252 19.9331 13.9784 20.0811 13.1061L20.1196 12.8796L19.423 11.7116C19.0399 11.0692 18.5342 10.2219 18.2992 9.82878C17.6615 8.76159 15.2218 4.67388 15.0562 4.39458C14.977 4.26109 14.9065 4.12925 14.8997 4.10161C14.8922 4.07111 15.0063 3.71041 15.1899 3.18415C15.5376 2.18791 15.5375 2.26441 15.1908 2.35276C14.6542 2.48951 14.1328 2.73859 13.0737 3.36394C12.8595 3.49042 12.698 3.57086 12.6582 3.57086C12.6224 3.57086 12.4637 3.54999 12.3055 3.52451C11.5633 3.40489 10.7868 3.35766 10.0374 3.38654C8.38054 3.4504 6.85618 3.94982 5.58418 4.84556C4.15558 5.85161 2.93431 7.50137 2.35888 9.20276C1.46158 11.8552 2.15445 14.9226 4.16788 17.2116C5.66518 18.9137 7.71628 19.9994 10.014 20.3061C10.4874 20.3692 11.3756 20.3925 11.8498 20.3542C13.9651 20.1835 15.8257 19.3564 17.3299 17.918C17.5674 17.691 17.6132 17.657 17.6821 17.657C17.8651 17.657 17.9324 17.8013 17.8305 17.9752C17.6016 18.3658 16.9592 19.067 16.4691 19.4612C15.2619 20.432 13.7433 21.0164 11.9919 21.1842C11.6591 21.2161 10.6199 21.2277 10.2952 21.2032Z" fill="black"/>
</svg>
