<svg width="16" height="16" viewBox="0 0 16 16" fill="none" xmlns="http://www.w3.org/2000/svg">
<path fill-rule="evenodd" clip-rule="evenodd" d="M7.99967 14.6673C11.6816 14.6673 14.6663 11.6825 14.6663 8.00065C14.6663 4.31875 11.6816 1.33398 7.99967 1.33398C4.31778 1.33398 1.33301 4.31875 1.33301 8.00065C1.33301 11.6825 4.31778 14.6673 7.99967 14.6673ZM5.4866 5.48758C5.74695 5.22723 6.16906 5.22723 6.42941 5.48758L7.99967 7.05784L9.56994 5.48758C9.83029 5.22723 10.2524 5.22723 10.5127 5.48758C10.7731 5.74793 10.7731 6.17004 10.5127 6.43039L8.94248 8.00065L10.5127 9.57091C10.7731 9.83126 10.7731 10.2534 10.5127 10.5137C10.2524 10.7741 9.83029 10.7741 9.56994 10.5137L7.99967 8.94346L6.42941 10.5137C6.16906 10.7741 5.74695 10.7741 5.4866 10.5137C5.22625 10.2534 5.22625 9.83126 5.4866 9.57091L7.05686 8.00065L5.4866 6.43039C5.22625 6.17004 5.22625 5.74793 5.4866 5.48758Z" fill="white" fill-opacity="0.5"/>
</svg>
