<svg width="40" height="40" viewBox="0 0 40 40" fill="none" xmlns="http://www.w3.org/2000/svg">
<circle cx="20" cy="20" r="20" fill="#F8F8F8"/>
<path d="M23.3333 30H13.3333C12.4493 30 11.6014 29.6488 10.9763 29.0237C10.3512 28.3986 10 27.5507 10 26.6667V25.5556H21.1111V27.7778C21.1111 28.3671 21.3452 28.9324 21.762 29.3491C22.1787 29.7659 22.744 30 23.3333 30ZM23.3333 30C23.9227 30 24.4879 29.7659 24.9047 29.3491C25.3214 28.9324 25.5556 28.3671 25.5556 27.7778V12.2222C25.5556 11.7827 25.6859 11.3531 25.9301 10.9876C26.1742 10.6222 26.5213 10.3374 26.9274 10.1692C27.3334 10.001 27.7802 9.95696 28.2113 10.0427C28.6424 10.1284 29.0383 10.3401 29.3491 10.6509C29.6599 10.9617 29.8716 11.3576 29.9573 11.7887C30.043 12.2198 29.999 12.6666 29.8308 13.0726C29.6626 13.4787 29.3778 13.8258 29.0124 14.0699C28.6469 14.3141 28.2173 14.4444 27.7778 14.4444H25.5556M27.7778 10H15.5556C14.6715 10 13.8237 10.3512 13.1985 10.9763C12.5734 11.6014 12.2222 12.4493 12.2222 13.3333V25.5556" stroke="#2C3E50" stroke-width="2" stroke-linecap="round" stroke-linejoin="round"/>
<path d="M16.6667 14.4444H21.1111" stroke="#2C3E50" stroke-width="2" stroke-linecap="round" stroke-linejoin="round"/>
<path d="M16.6667 18.889H21.1111" stroke="#2C3E50" stroke-width="2" stroke-linecap="round" stroke-linejoin="round"/>
</svg>
