<svg width="40" height="40" viewBox="0 0 40 40" fill="none" xmlns="http://www.w3.org/2000/svg">
<circle cx="20" cy="20" r="20" fill="#F8F8F8"/>
<path d="M22.3571 9V14.0286C22.3571 14.362 22.4896 14.6817 22.7253 14.9175C22.9611 15.1533 23.2808 15.2857 23.6143 15.2857H28.6428" stroke="#2C3E50" stroke-width="2" stroke-linecap="round" stroke-linejoin="round"/>
<path d="M26.1735 31H13.8265C13.1716 31 12.5435 30.7425 12.0804 30.284C11.6173 29.8256 11.3571 29.2039 11.3571 28.5556V11.4444C11.3571 10.7961 11.6173 10.1744 12.0804 9.71596C12.5435 9.25754 13.1716 9 13.8265 9H22.4694L25.5561 12.0556L28.6429 15.1111V28.5556C28.6429 29.2039 28.3827 29.8256 27.9196 30.284C27.4565 30.7425 26.8284 31 26.1735 31Z" stroke="#2C3E50" stroke-width="2" stroke-linecap="round" stroke-linejoin="round"/>
<path d="M16.0714 16.0714H17.6428" stroke="#2C3E50" stroke-width="2" stroke-linecap="round" stroke-linejoin="round"/>
<path d="M16.0714 20.7857H23.9285" stroke="#2C3E50" stroke-width="2" stroke-linecap="round" stroke-linejoin="round"/>
<path d="M16.0714 25.5H23.9285" stroke="#2C3E50" stroke-width="2" stroke-linecap="round" stroke-linejoin="round"/>
</svg>
