<svg width="24" height="24" viewBox="0 0 24 24" fill="none" xmlns="http://www.w3.org/2000/svg">
<path d="M12 13.25C12.6904 13.25 13.25 12.6904 13.25 12C13.25 11.3096 12.6904 10.75 12 10.75C11.3096 10.75 10.75 11.3096 10.75 12C10.75 12.6904 11.3096 13.25 12 13.25Z" stroke="white" stroke-linecap="round" stroke-linejoin="round"/>
<path d="M12 16.1666C14.3012 16.1666 16.1666 14.3012 16.1666 12C16.1666 9.69879 14.3012 7.83331 12 7.83331C9.69879 7.83331 7.83331 9.69879 7.83331 12C7.83331 14.3012 9.69879 16.1666 12 16.1666Z" stroke="white" stroke-linecap="round" stroke-linejoin="round"/>
<path d="M15.2499 18.7584V18.7667" stroke="white" stroke-linecap="round" stroke-linejoin="round"/>
<path d="M17.8667 16.675V16.6833" stroke="white" stroke-linecap="round" stroke-linejoin="round"/>
<path d="M19.3083 13.6667V13.675" stroke="white" stroke-linecap="round" stroke-linejoin="round"/>
<path d="M19.3083 10.3333V10.3416" stroke="white" stroke-linecap="round" stroke-linejoin="round"/>
<path d="M17.8667 7.32501V7.33335" stroke="white" stroke-linecap="round" stroke-linejoin="round"/>
<path d="M15.2499 5.24164V5.24997" stroke="white" stroke-linecap="round" stroke-linejoin="round"/>
<path d="M12 4.5V4.50833" stroke="white" stroke-linecap="round" stroke-linejoin="round"/>
<path d="M8.75006 5.24164V5.24997" stroke="white" stroke-linecap="round" stroke-linejoin="round"/>
<path d="M6.1333 7.32501V7.33335" stroke="white" stroke-linecap="round" stroke-linejoin="round"/>
<path d="M4.69165 10.3333V10.3416" stroke="white" stroke-linecap="round" stroke-linejoin="round"/>
<path d="M4.69165 13.6667V13.675" stroke="white" stroke-linecap="round" stroke-linejoin="round"/>
<path d="M6.1333 16.675V16.6833" stroke="white" stroke-linecap="round" stroke-linejoin="round"/>
<path d="M8.75006 18.7584V18.7667" stroke="white" stroke-linecap="round" stroke-linejoin="round"/>
<path d="M12 19.5V19.5083" stroke="white" stroke-linecap="round" stroke-linejoin="round"/>
</svg>
