<svg width="16" height="16" viewBox="0 0 16 16" fill="none" xmlns="http://www.w3.org/2000/svg">
    <defs>
        <linearGradient id="paint0_linear_11846_141249" x1="7.99963" y1="0" x2="7.99963"
            y2="15.9776" gradientUnits="userSpaceOnUse">
            <stop stop-color="#FF0000" />
            <stop offset="1" stop-color="#FFA800" />
        </linearGradient>
    </defs>
    <path fill-rule="evenodd" clip-rule="evenodd"
        d="M6.15994 15.0903C6.30594 15.2993 6.29294 15.5803 6.12894 15.7763C5.96494 15.9713 5.69094 16.0323 5.45994 15.9253C2.63294 14.4563 -0.0300591 11.6093 1.41994 7.6703C2.69994 4.1943 7.85294 2.8953 7.03394 0.602297C6.97094 0.454297 6.99494 0.284297 7.09594 0.159297C7.19694 0.0342972 7.35694 -0.0177028 7.51594 0.00529723C8.72194 0.178297 9.73794 1.1223 9.92994 2.4423C10.1349 3.8503 8.88894 5.1163 9.49194 7.2253C9.79894 8.2983 10.9989 8.5703 11.2639 8.3873C11.5239 8.2063 11.2049 7.9933 11.0069 7.3713C10.5629 5.9763 11.0729 4.9123 11.7689 4.1603C12.0309 3.8783 12.5699 3.9983 12.5389 4.5573C12.4929 5.3693 12.9819 5.9983 13.7629 6.9183C15.4389 8.8933 15.0249 11.5753 14.6579 12.5373C14.1499 13.8643 13.0969 14.9173 11.9549 15.6693C11.7319 15.8163 11.4379 15.7903 11.2429 15.6073C11.0479 15.4253 11.0039 15.1333 11.1359 14.9003C11.5279 14.3483 11.8189 13.7323 11.8529 13.0743C11.9019 12.1083 11.4399 11.3753 11.1769 10.9903C11.1099 10.8933 10.9959 10.8393 10.8789 10.8483C10.7609 10.8573 10.6469 10.9243 10.6069 11.0343C10.3169 11.8283 9.43594 12.9183 8.86194 12.9513C8.43594 12.9083 7.65194 12.3303 7.30094 11.2333C7.04994 10.4503 7.04394 9.3033 7.04994 8.6193C7.05194 8.5103 6.99294 8.4093 6.89794 8.3563C6.80294 8.3043 6.68594 8.3083 6.59494 8.3673C5.96294 8.8743 5.00194 10.0503 5.04694 12.2043C5.06994 13.3333 5.57094 14.3173 6.15994 15.0903V15.0903V15.0903Z"
        fill="url(#paint0_linear_11846_141249)" />
</svg>
