<svg width="16" height="16" viewBox="0 0 16 16" fill="none" xmlns="http://www.w3.org/2000/svg">
<path d="M5.49998 1.33331H2.16665C1.70641 1.33331 1.33331 1.70641 1.33331 2.16665V5.49998C1.33331 5.96022 1.70641 6.33331 2.16665 6.33331H5.49998C5.96022 6.33331 6.33331 5.96022 6.33331 5.49998V2.16665C6.33331 1.70641 5.96022 1.33331 5.49998 1.33331Z" stroke="white" stroke-width="1.5" stroke-linecap="round" stroke-linejoin="round"/>
<path d="M13.8334 1.33331H10.5C10.0398 1.33331 9.66669 1.70641 9.66669 2.16665V5.49998C9.66669 5.96022 10.0398 6.33331 10.5 6.33331H13.8334C14.2936 6.33331 14.6667 5.96022 14.6667 5.49998V2.16665C14.6667 1.70641 14.2936 1.33331 13.8334 1.33331Z" stroke="white" stroke-width="1.5" stroke-linecap="round" stroke-linejoin="round"/>
<path d="M5.49998 9.66669H2.16665C1.70641 9.66669 1.33331 10.0398 1.33331 10.5V13.8334C1.33331 14.2936 1.70641 14.6667 2.16665 14.6667H5.49998C5.96022 14.6667 6.33331 14.2936 6.33331 13.8334V10.5C6.33331 10.0398 5.96022 9.66669 5.49998 9.66669Z" stroke="white" stroke-width="1.5" stroke-linecap="round" stroke-linejoin="round"/>
<path d="M13.8334 9.66669H10.5C10.0398 9.66669 9.66669 10.0398 9.66669 10.5V13.8334C9.66669 14.2936 10.0398 14.6667 10.5 14.6667H13.8334C14.2936 14.6667 14.6667 14.2936 14.6667 13.8334V10.5C14.6667 10.0398 14.2936 9.66669 13.8334 9.66669Z" stroke="white" stroke-width="1.5" stroke-linecap="round" stroke-linejoin="round"/>
</svg>
