<svg width="25" height="24" viewBox="0 0 25 24" fill="none" xmlns="http://www.w3.org/2000/svg">
<path fill-rule="evenodd" clip-rule="evenodd" d="M2.01172 6H22.0117V17H2.01172V6ZM6.01172 11.5C6.01172 9.93706 7.41003 9 8.98044 9H11.0117V10H8.98044C7.73832 10 7.01172 10.6894 7.01172 11.5C7.01172 12.3269 7.85228 13.0312 8.82422 13.0312H10.0117V12H8.98045V11H11.0117V14.0312H8.82422C7.48366 14.0312 6.01172 13.0465 6.01172 11.5ZM14.0117 9H16.9805V10H15.0117V11.0001H16.9805V12.0001H15.0117V14.0002H14.0117V9ZM12.0117 9H13.0117V14.0002H12.0117V9Z" fill="#2A2A2A"/>
</svg>
