<svg width="24" height="24" viewBox="0 0 24 24" fill="none" xmlns="http://www.w3.org/2000/svg">
<path fill-rule="evenodd" clip-rule="evenodd" d="M15.9999 2H2.99986V2H2L2.00001 18H4.00001L9.99986 18V16H9.99991L9.99991 15.5L9.99991 10L15.4921 10L15.4999 9.99999L15.5078 10H15.9999H17.9999V2H16.9999H15.9999ZM9.99991 10H4L4 4H9.99991L9.99991 10ZM15.7188 13.75C14.7108 13.75 13.875 14.5791 13.875 15.625C13.875 16.6709 14.7108 17.5 15.7188 17.5C16.7267 17.5 17.5625 16.6709 17.5625 15.625C17.5625 14.5791 16.7267 13.75 15.7188 13.75ZM11.875 15.625C11.875 13.4952 13.5856 11.75 15.7188 11.75C17.8519 11.75 19.5625 13.4952 19.5625 15.625C19.5625 16.3354 19.3722 17.0031 19.0393 17.5775L22.0146 20.5949L20.6104 22.019L17.6248 18.9912C17.064 19.3147 16.4138 19.5 15.7188 19.5C13.5856 19.5 11.875 17.7548 11.875 15.625Z" fill="#2A2A2A"/>
</svg>
