<svg width="24" height="24" viewBox="0 0 24 24" fill="none" xmlns="http://www.w3.org/2000/svg">
<path fill-rule="evenodd" clip-rule="evenodd" d="M12 19C8.13401 19 5 15.866 5 12L3 12C3 10.5368 3.96875 7.93384 3.96875 7.93384L5.7037 8.93751C5.70369 8.93752 5.7037 8.93751 5.7037 8.93751C6.8397 6.60631 9.23227 5 12 5C15.866 5 19 8.13401 19 12C19 15.866 15.866 19 12 19ZM3 12C3.00001 16.9706 7.02944 21 12 21C16.9706 21 21 16.9706 21 12C21 7.02944 16.9706 3 12 3C8.49265 3 5.45388 5.0063 3.96875 7.93384C3.96875 7.93384 3 10.5368 3 12C3 12 3 12 3 12Z" fill="#AEAEB2"/>
<path fill-rule="evenodd" clip-rule="evenodd" d="M3 4H5V8H9V10H3V4Z" fill="#AEAEB2"/>
<path fill-rule="evenodd" clip-rule="evenodd" d="M11 8H13V11.5858L15.2071 13.7929L13.7929 15.2071L11 12.4142V8Z" fill="#AEAEB2"/>
</svg>
