<svg width="16" height="16" viewBox="0 0 16 16" fill="none" xmlns="http://www.w3.org/2000/svg">
<path fill-rule="evenodd" clip-rule="evenodd" d="M13.332 7.99992C13.332 10.9454 10.9442 13.3333 7.9987 13.3333C5.05318 13.3333 2.66536 10.9454 2.66536 7.99992C2.66536 5.0544 5.05318 2.66659 7.9987 2.66659C10.9442 2.66659 13.332 5.0544 13.332 7.99992ZM14.6654 7.99992C14.6654 11.6818 11.6806 14.6666 7.9987 14.6666C4.3168 14.6666 1.33203 11.6818 1.33203 7.99992C1.33203 4.31802 4.3168 1.33325 7.9987 1.33325C11.6806 1.33325 14.6654 4.31802 14.6654 7.99992ZM7.33203 8.66659V11.3333H8.66536V8.66659H11.332V7.33325H8.66536V4.66659H7.33203V7.33325H4.66536V8.66659H7.33203Z" fill="#2A2A2A"/>
</svg>
