<svg width="24" height="24" viewBox="0 0 24 24" fill="none" xmlns="http://www.w3.org/2000/svg">
<path fill-rule="evenodd" clip-rule="evenodd" d="M3 9.99996C3 6.13399 6.13399 3 9.99996 3H10.2121C13.9609 3 16.9999 6.03902 16.9999 9.78784V9.99996C16.9999 11.5723 16.4815 13.0235 15.6063 14.1921L20.5943 19.1801L19.1801 20.5943L14.1921 15.6063C13.0235 16.4815 11.5723 16.9999 9.99996 16.9999C6.13399 16.9999 3 13.8659 3 9.99996ZM4.99999 9.99996C4.99999 7.23855 7.23855 4.99999 9.99996 4.99999C12.7614 4.99999 14.9999 7.23855 14.9999 9.99996C14.9999 12.7614 12.7614 14.9999 9.99996 14.9999C7.23855 14.9999 4.99999 12.7614 4.99999 9.99996Z" fill="#AEAEB2"/>
</svg>
