<svg width="40" height="40" viewBox="0 0 40 40" fill="none" xmlns="http://www.w3.org/2000/svg">
<circle opacity="0.15" cx="20" cy="20" r="20" fill="#34C759"/>
<path fill-rule="evenodd" clip-rule="evenodd" d="M20 30C25.5228 30 30 25.5228 30 20C30 14.4772 25.5228 10 20 10C14.4772 10 10 14.4772 10 20C10 25.5228 14.4772 30 20 30ZM19.1667 15.5554C19.1667 15.0952 19.5398 14.7221 20 14.7221H20.0111C20.4713 14.7221 20.8444 15.0952 20.8444 15.5554C20.8444 16.0157 20.4713 16.3888 20.0111 16.3888H20C19.5398 16.3888 19.1667 16.0157 19.1667 15.5554ZM18.8888 19.1667C18.4285 19.1667 18.0554 19.5398 18.0554 20C18.0554 20.4602 18.4285 20.8333 18.8888 20.8333H19.1665V24.4444C19.1665 24.9047 19.5396 25.2778 19.9999 25.2778H21.111C21.5712 25.2778 21.9443 24.9047 21.9443 24.4444C21.9443 23.9842 21.5712 23.6111 21.111 23.6111H20.8332V20C20.8332 19.5398 20.4601 19.1667 19.9999 19.1667H18.8888Z" fill="#34C759"/>
</svg>
