<svg width="40" height="40" viewBox="0 0 40 40" fill="none" xmlns="http://www.w3.org/2000/svg">
<circle cx="20" cy="20" r="20" fill="#F8F8F8"/>
<path d="M17.75 12.1429C17.75 11.5745 17.9871 11.0295 18.409 10.6276C18.831 10.2258 19.4033 10 20 10C20.5967 10 21.169 10.2258 21.591 10.6276C22.0129 11.0295 22.25 11.5745 22.25 12.1429C23.542 12.7247 24.6433 13.6303 25.4361 14.7628C26.2288 15.8953 26.683 17.2119 26.75 18.5714V21.7857C26.8347 22.4518 27.0824 23.0897 27.4732 23.648C27.864 24.2063 28.3869 24.6694 29 25H11C11.6131 24.6694 12.136 24.2063 12.5268 23.648C12.9176 23.0897 13.1653 22.4518 13.25 21.7857V18.5714C13.317 17.2119 13.7712 15.8953 14.5639 14.7628C15.3567 13.6303 16.458 12.7247 17.75 12.1429" stroke="#2C3E50" stroke-width="2" stroke-linecap="round" stroke-linejoin="round"/>
<path d="M16 25V26.25C16 27.2446 16.4214 28.1984 17.1716 28.9017C17.9217 29.6049 18.9391 30 20 30C21.0609 30 22.0783 29.6049 22.8284 28.9017C23.5786 28.1984 24 27.2446 24 26.25V25" stroke="#2C3E50" stroke-width="2" stroke-linecap="round" stroke-linejoin="round"/>
</svg>
