<svg width="22" height="13" viewBox="0 0 22 13" fill="none" xmlns="http://www.w3.org/2000/svg">
<path d="M8.34178 12.7814L6.41078 12.2634L7.19778 9.32438C6.01975 8.8899 4.9249 8.25674 3.96078 7.45237L1.80778 9.60637L0.392781 8.19138L2.54678 6.03837C1.33086 4.58213 0.513869 2.83514 0.175781 0.968375L2.14378 0.609375C2.90278 4.81138 6.57878 7.99937 10.9998 7.99937C15.4198 7.99937 19.0968 4.81138 19.8558 0.609375L21.8238 0.967375C21.4861 2.83439 20.6695 4.58174 19.4538 6.03837L21.6068 8.19138L20.1918 9.60637L18.0388 7.45237C17.0747 8.25674 15.9798 8.8899 14.8018 9.32438L15.5888 12.2644L13.6578 12.7814L12.8698 9.84138C11.6321 10.0535 10.3674 10.0535 9.12978 9.84138L8.34178 12.7814Z" fill="white"/>
</svg>
