<svg width="24" height="24" viewBox="0 0 24 24" fill="none" xmlns="http://www.w3.org/2000/svg">
<path d="M7.62496 17.25C6.5332 17.25 5.48616 16.8351 4.71417 16.0967C3.94218 15.3583 3.50848 14.3568 3.50848 13.3125C3.50848 12.2682 3.94218 11.2667 4.71417 10.5283C5.48616 9.78983 6.5332 9.37499 7.62496 9.37499C7.88281 8.22627 8.63713 7.21679 9.72197 6.56861C10.2591 6.24767 10.8613 6.02509 11.494 5.91359C12.1268 5.80208 12.7777 5.80383 13.4097 5.91874C14.0417 6.03364 14.6423 6.25946 15.1773 6.58328C15.7124 6.90711 16.1713 7.3226 16.5279 7.80605C16.8845 8.28949 17.1318 8.83142 17.2557 9.40088C17.3796 9.97035 17.3776 10.5562 17.25 11.125H18.125C18.9372 11.125 19.7161 11.4476 20.2905 12.022C20.8648 12.5963 21.1875 13.3753 21.1875 14.1875C21.1875 14.9997 20.8648 15.7787 20.2905 16.353C19.7161 16.9273 18.9372 17.25 18.125 17.25H17.25" stroke="white" stroke-width="1.5" stroke-linecap="round" stroke-linejoin="round"/>
<path d="M9.375 14.625L12 12L14.625 14.625" stroke="white" stroke-width="1.5" stroke-linecap="round" stroke-linejoin="round"/>
<path d="M12 12V19.875" stroke="white" stroke-width="1.5" stroke-linecap="round" stroke-linejoin="round"/>
</svg>
