<svg xmlns="http://www.w3.org/2000/svg" width="40" height="40" xml:space="preserve"><path style="stroke:none;stroke-width:10;stroke-dasharray:none;stroke-linecap:butt;stroke-dashoffset:0;stroke-linejoin:miter;stroke-miterlimit:4;fill:#000;fill-rule:nonzero;opacity:1" vector-effect="non-scaling-stroke" transform="rotate(180 16.985 17.5)" d="M11.862 11.241c-1.471 0-2.207-.23-2.207-.69 0-.413.644-.655 1.931-.724h2.38c2.873 0 4.31.242 4.31.724 0 .46-.736.69-2.207.69zm0 2.69c-.735 0-1.287-.035-1.655-.104-.368-.069-.552-.264-.552-.586 0-.345.3-.54.897-.586.758-.069 1.896-.103 3.414-.103 1.517 0 2.666.034 3.448.103.575.046.862.241.862.586 0 .46-.736.69-2.207.69zm8-1.862c0-.23.138-.759.414-1.586.092-.253.184-.564.276-.931.092-.368.15-.633.172-.793 0-.989-1.023-1.587-3.069-1.794.943-.344 1.678-.563 2.207-.655.713-.115 1.38-.172 2-.172.253 0 .736.011 1.448.034.713.023 1.07.046 1.07.07.85 0 1.574-.265 2.172-.794.437-.39.896-1.046 1.379-1.965a57.636 57.636 0 0 1-1.276-1.966C26.172.782 25.598.276 24.931 0c-.115.483-.667.816-1.655 1-.23.046-.943.115-2.138.207-3.586.322-5.977 1.08-7.172 2.276-1.127-1.15-2.84-1.828-5.138-2.035a79.905 79.905 0 0 1-2.035-.241C5.69 1.115 4.99 1.046 4.69 1 3.655.793 3.092.46 3 0 2.264.322 1.563 1.046.897 2.172c-.3.506-.598.943-.897 1.31.483.943.943 1.598 1.38 1.966.574.529 1.298.793 2.172.793l1.034-.034a34.43 34.43 0 0 0 1.483-.07c1.356 0 2.747.277 4.172.828-2.023.207-3.034.805-3.034 1.794 0 .321.15.839.448 1.551.3.713.449 1.242.449 1.586-1.748 2.161-2.621 4.046-2.621 5.656 0 1.885.93 3.609 2.793 5.172 1.632 1.38 2.839 2.126 3.62 2.241-.62.736-.93 1.54-.93 2.414 0 .85.276 1.494.827 1.931.552.437 1.276.667 2.173.69.85 0 1.563-.23 2.138-.69.574-.46.862-1.103.862-1.93 0-.851-.31-1.656-.931-2.415.528-.138 1.344-.586 2.448-1.344 1.38-.966 2.425-2.046 3.138-3.242.552-.896.827-1.839.827-2.827 0-1.679-.862-3.506-2.586-5.483zm-5.103 4v2h1.482v1.62H14.76v1.863h-1.587v-1.863H11.69v-1.62h1.482v-2zm-.793 12.172a1.15 1.15 0 0 1-.794-.31c-.23-.207-.344-.448-.344-.724 0-.3.115-.552.344-.759.23-.207.495-.31.794-.31.712 0 1.069.356 1.069 1.069 0 .69-.357 1.034-1.07 1.034z"/></svg>