<svg xmlns="http://www.w3.org/2000/svg" width="40" height="40" xml:space="preserve"><path style="stroke:none;stroke-width:10;stroke-dasharray:none;stroke-linecap:butt;stroke-dashoffset:0;stroke-linejoin:miter;stroke-miterlimit:4;fill:#000;fill-rule:nonzero;opacity:1" vector-effect="non-scaling-stroke" transform="rotate(180 16.94 17.5)" d="M15.073 11.415c0-.537-.39-.805-1.17-.805-.854 0-1.281.268-1.281.805 0 2.585-.841 4.646-2.524 6.183-1.44 1.34-2.878 2.012-4.317 2.012-1.244 0-2.232-.33-2.964-.988-.732-.659-1.097-1.598-1.097-2.817 0-.854.536-2.061 1.61-3.622.829-1.22 1.597-2.122 2.304-2.707.464-.39 1.269-.586 2.415-.586 1.195 0 3.122.22 5.78.659 2.683-.44 4.622-.659 5.817-.659 1.171 0 1.976.195 2.415.586.83.731 1.646 1.695 2.451 2.89.976 1.439 1.464 2.585 1.464 3.439 0 1.22-.366 2.158-1.098 2.817-.732.658-1.72.988-2.963.988-1.39 0-2.83-.683-4.317-2.05-1.683-1.511-2.525-3.56-2.525-6.145zm9.915 4.427c0-.927-.537-2.037-1.61-3.33-.976-1.146-1.83-1.902-2.56-2.268-.61-.098-1.22-.146-1.83-.146-1.903 0-2.842.378-2.817 1.134.024 2.341.72 4.183 2.085 5.524 1.122 1.147 2.317 1.72 3.585 1.72.879 0 1.598-.22 2.159-.659.658-.463.988-1.122.988-1.975zM20.634 4.207c0 .464-.841.793-2.524.988-1.537.146-2.94.22-4.207.22a31.16 31.16 0 0 1-3.22-.147l-1.097-.11c-1.659-.219-2.488-.524-2.488-.914 0-.44.414-.659 1.244-.659.341 0 1.012.05 2.012.147 1.805.195 2.975.292 3.512.292.61 0 1.524-.073 2.744-.22 1.22-.145 2.134-.219 2.744-.219.854 0 1.28.208 1.28.622zm2.561-1.097C23.146 1.037 20.037 0 13.865 0 7.745 0 4.66 1.024 4.61 3.073c-.05 2.049-.354 3.793-.915 5.232-.317.83-.951 1.89-1.902 3.183C.598 13.073 0 14.5 0 15.768c0 1.537.561 2.83 1.683 3.878 1.122 1.05 2.451 1.574 3.988 1.574 1.585 0 3.097-.586 4.536-1.756 0 .707.037 1.39.11 2.048.025.22.122.5.293.842.244.634.951 1.341 2.122 2.122v1.06l-1.866 1.135v1.646h1.683L13.098 30h1.536l.622-1.683h1.646v-1.646l-1.865-1.134v-1.061c1.17-.854 1.878-1.561 2.122-2.122.146-.317.256-.756.329-1.317.024-.366.06-.89.11-1.573 1.414 1.17 2.902 1.756 4.463 1.756 1.512 0 2.841-.513 3.988-1.537 1.146-1.024 1.72-2.33 1.72-3.915 0-1.268-.598-2.707-1.793-4.317-.318-.439-.671-.939-1.061-1.5-.708-1.097-1.196-2.39-1.464-3.878-.146-.756-.232-1.744-.256-2.963zM2.744 15.842c0 .829.305 1.475.915 1.939.61.463 1.329.695 2.158.695 1.293 0 2.512-.586 3.659-1.756 1.317-1.318 2-3.147 2.048-5.488.025-.39-.22-.671-.731-.842-.513-.17-1.195-.268-2.05-.292-.633 0-1.255.048-1.865.146-.805.39-1.67 1.158-2.597 2.305-1.025 1.292-1.537 2.39-1.537 3.292z"/></svg>