<svg xmlns="http://www.w3.org/2000/svg" width="40" height="40" xml:space="preserve"><path style="stroke:none;stroke-width:10;stroke-dasharray:none;stroke-linecap:butt;stroke-dashoffset:0;stroke-linejoin:miter;stroke-miterlimit:4;fill:#000;fill-rule:nonzero;opacity:1" vector-effect="non-scaling-stroke" transform="matrix(1 0 0 -1 4.74 35)" d="M3.09 11.463c-.461 0-.854-.149-1.18-.447a1.612 1.612 0 0 1-.528-1.138c0-.163.054-.339.163-.528.433 0 .813.135 1.138.406.325.271.501.637.528 1.098 0 .135-.04.338-.122.61zm24.918-7.845.041 1.87c0 5.528-1.41 10.054-4.228 13.577-2.412 3.062-4.62 4.593-6.626 4.593-.135 0-.298-.027-.487-.08-.028 0-.055.013-.082.04h-.203c-.46 0-.691-.176-.691-.529 0-.162.108-.338.325-.528 1.816-.136 3.808-1.436 5.976-3.903 2.764-3.224 4.146-7.832 4.146-13.82 0-.055-.014-.163-.04-.326V3.455c.026-.352.135-.637.324-.854a.886.886 0 0 1 .692-.325c.216 0 .406.109.569.325.162.217.257.556.284 1.017zM6.748 18.21h.122c.054 0 .095-.013.122-.04h.04c.678 0 1.41.338 2.196 1.016.786.677 1.192 1.26 1.22 1.748a.65.65 0 0 1-.163.407 1.99 1.99 0 0 1-1.017.284c-.65 0-1.3-.257-1.95-.772-.651-.515-.976-1.111-.976-1.789 0-.38.135-.664.406-.854zM30.325 0 8.902.081c.055 1.6.353 2.927.895 3.984s1.3 2.182 2.276 3.374c.84 1.057 1.41 1.83 1.707 2.317.488.84.786 1.748.895 2.724-1.68-.678-3.008-1.545-3.984-2.602-.46-.515-.813-.962-1.057-1.341-.352-.624-.908-1.505-1.667-2.643-.216-.244-.46-.38-.731-.406-.867 0-1.301.528-1.301 1.585-.352-.433-.745-.65-1.179-.65-.054 0-.38.081-.976.244-1.056.27-1.829.61-2.317 1.016C.976 8.089.488 8.808 0 9.837c.19 1.247.827 3.009 1.91 5.285.57 1.247 1.328 2.832 2.277 4.756 1.03 2.06 1.748 3.835 2.154 5.325.055.461.082.908.082 1.342 0 .19-.095 1.097-.285 2.723h.203c.055 0 .095.014.122.041h.082c1.517 0 3.184-.501 5-1.504.19-.108.284-.176.284-.203C12.805 29.2 13.55 30 14.065 30c.84-.433 1.45-.921 1.83-1.463.298-.46.65-1.355 1.056-2.683.244.081.529.122.854.122 2.791 0 5.501-1.748 8.13-5.244 3.062-4.038 4.594-9.526 4.594-16.463 0-1.41-.068-2.832-.204-4.269z"/></svg>