<svg xmlns="http://www.w3.org/2000/svg" width="40" height="40" xml:space="preserve"><path style="stroke:none;stroke-width:10;stroke-dasharray:none;stroke-linecap:butt;stroke-dashoffset:0;stroke-linejoin:miter;stroke-miterlimit:4;fill:#000;fill-rule:nonzero;opacity:1" vector-effect="non-scaling-stroke" transform="rotate(180 15.48 17.5)" d="M.082 0A27.326 27.326 0 0 0 0 2.367c0 2.504.449 4.64 1.347 6.409.952 1.932 2.789 3.578 5.51 4.938-.898.272-1.619.871-2.163 1.796a5.429 5.429 0 0 0-.735 2.776c0 2.285 1.17 3.904 3.51 4.857-.598 1.007-.898 1.973-.898 2.898 0 1.17.463 2.136 1.388 2.898.844.707 1.85 1.061 3.02 1.061s2.191-.367 3.062-1.102c.87-.735 1.306-1.687 1.306-2.857 0-.925-.3-1.891-.898-2.898 1.251-.49 2.15-1.17 2.694-2.04.544-.872.816-1.81.816-2.817 0-.98-.259-1.919-.776-2.816-.517-.898-1.21-1.483-2.081-1.756 2.721-1.387 4.558-3.047 5.51-4.98.87-1.713 1.306-3.836 1.306-6.366 0-.98-.027-1.77-.081-2.368z"/></svg>