<svg xmlns="http://www.w3.org/2000/svg" width="40" height="40" xml:space="preserve"><path style="stroke:none;stroke-width:10;stroke-dasharray:none;stroke-linecap:butt;stroke-dashoffset:0;stroke-linejoin:miter;stroke-miterlimit:4;fill:#000;fill-rule:nonzero;opacity:1" vector-effect="non-scaling-stroke" transform="rotate(180 18.055 17.5)" d="M8.465 4.864c0-.47.347-.705 1.04-.705.396 0 .953.037 1.67.11.719.075 1.238.112 1.56.112l2.785.112c.272.024.507.037.705.037.693 0 1.597-.05 2.71-.149 1.337-.074 2.24-.124 2.711-.148.099 0 .272-.013.52-.037.247-.025.445-.037.594-.037.693 0 1.04.247 1.04.742s-.793.879-2.377 1.151c-.94.173-2.215.285-3.824.334h-1.448c-3.391 0-5.73-.272-7.017-.816-.446-.198-.669-.434-.669-.706zM2.636 24.282a1.11 1.11 0 0 1-.817-.334 1.111 1.111 0 0 1-.334-.817c0-.322.111-.594.334-.817.223-.222.495-.346.817-.37.743 0 1.114.395 1.114 1.187 0 .767-.371 1.151-1.114 1.151zm6.09 2.933c-.793 0-1.189-.383-1.189-1.15 0-.793.396-1.189 1.188-1.189.743 0 1.114.396 1.114 1.188 0 .768-.371 1.151-1.114 1.151zm14.814 0c-.297 0-.557-.111-.78-.334a1.111 1.111 0 0 1-.334-.817c0-.792.371-1.188 1.114-1.188.767 0 1.15.396 1.15 1.188 0 .768-.383 1.151-1.15 1.151zm6.052-2.933c-.743 0-1.114-.384-1.114-1.15 0-.793.371-1.189 1.114-1.189.767 0 1.15.396 1.15 1.188 0 .322-.11.594-.334.817a1.111 1.111 0 0 1-.816.334zm-3.38-22.166c0-.89-1.583-1.497-4.752-1.819a140.49 140.49 0 0 0-3.304-.26L16.93 0h-.817c-3.738 0-6.621.322-8.651.965-.94.297-1.411.681-1.411 1.151 0 .966.248 1.98.743 3.045.321.644.482 1.126.482 1.448 0 .668-.73 1.844-2.19 3.527-.842.99-1.263 1.572-1.263 1.745 0 .173-.099.594-.297 1.262l-.594 2.34c-.173.668-.31 1.262-.408 1.782a32.161 32.161 0 0 0-.371 3.007C.718 20.916 0 21.87 0 23.132c0 .717.26 1.323.78 1.818.52.495 1.138.755 1.856.78.693 0 1.3-.247 1.82-.742s.78-1.114.78-1.857c0-.124-.038-.371-.112-.742-.075-.495-.112-.842-.112-1.04 0-1.337.99-3.032 2.97-5.087.174 1.51.26 2.834.26 3.973 0 1.386-.136 2.389-.408 3.008-.198.47-.495.829-.891 1.076-.57.347-.854.953-.854 1.82 0 .717.248 1.324.743 1.819.495.495 1.126.755 1.893.78.693 0 1.3-.248 1.82-.743s.78-1.114.78-1.857c0-.173-.05-.482-.15-.928-.098-.445-.148-.804-.148-1.076 0-1.807.842-4.456 2.525-7.946.198.866.458 2.154.78 3.861.148 1.14.223 2.092.223 2.86 0 1.286-.236 2.475-.706 3.564-.198.42-.297.73-.297.928 0 .718.248 1.324.743 1.82.495.494 1.114.754 1.856.779a2.43 2.43 0 0 0 1.782-.743c.495-.495.743-1.114.743-1.856 0-.248-.111-.644-.334-1.188-.273-.668-.433-1.09-.483-1.263-.099-.495-.148-1.175-.148-2.042 0-1.361.173-2.908.52-4.64a54.61 54.61 0 0 1 .445-2.08c1.658 3.54 2.487 6.188 2.487 7.946 0 .247-.037.581-.111 1.002-.074.42-.124.755-.148 1.003 0 .742.247 1.361.742 1.856.495.495 1.126.743 1.894.743.718 0 1.324-.26 1.819-.78.495-.52.755-1.126.78-1.82 0-.866-.285-1.485-.854-1.856-.669-.445-1.065-1.2-1.188-2.265a12.531 12.531 0 0 1-.112-1.819c0-1.09.087-2.401.26-3.936 1.98 2.055 2.97 3.75 2.97 5.087 0 .148-.037.495-.111 1.04-.074.396-.111.643-.111.742 0 .718.26 1.324.78 1.82.52.494 1.126.754 1.819.78.717 0 1.336-.248 1.856-.743s.78-1.114.78-1.857c0-1.237-.718-2.19-2.154-2.859-.074-.94-.21-1.955-.408-3.044-.223-1.238-.607-2.835-1.151-4.79a2.303 2.303 0 0 1-.074-.557c0-.173-.248-.532-.743-1.077l-.557-.668c-1.46-1.733-2.19-2.908-2.19-3.527 0-.272.148-.743.445-1.41.346-.793.557-1.288.631-1.486.124-.446.186-.978.186-1.597zm-10.061 26.51a1.11 1.11 0 0 1-.817-.334 1.111 1.111 0 0 1-.334-.817c0-.297.111-.557.334-.78.223-.222.495-.346.817-.37.743 0 1.114.383 1.114 1.15 0 .322-.111.594-.334.817a1.069 1.069 0 0 1-.78.334zm8.354-18.081c0 .544-.854.94-2.562 1.188-1.46.198-3.391.297-5.792.297s-4.344-.112-5.83-.334c-1.707-.273-2.561-.669-2.561-1.189 0-.445.396-.668 1.188-.668.42 0 1.002.025 1.745.074.842.075 1.423.124 1.745.149l3.007.111h.78c1.064 0 2.698-.074 4.901-.222.396 0 .99-.025 1.782-.075.223-.025.384-.037.483-.037.743 0 1.114.235 1.114.706z"/></svg>