<svg xmlns="http://www.w3.org/2000/svg" width="40" height="40" xml:space="preserve"><g><path style="stroke:none;stroke-width:1;stroke-dasharray:none;stroke-linecap:butt;stroke-dashoffset:0;stroke-linejoin:miter;stroke-miterlimit:4;fill:#fff;fill-rule:nonzero;opacity:1" vector-effect="non-scaling-stroke" transform="translate(5.5 5)" d="M14.063 26.494c-1.133 1.125-2.845 1.818-5.138 2.077-.929.087-2.554.289-4.876.606-.61.116-.958.39-1.045.823-.551-.144-1.364-1.039-2.438-2.684-.261-.404-.45-.678-.566-.822.958-1.819 2.148-2.728 3.57-2.728l2.569.13c1.19 0 2.583-.274 4.18-.822-2.061-.26-3.092-.88-3.092-1.862l.87-3.29v-.087c-1.74-1.904-2.611-3.694-2.611-5.368 0-1.904.943-3.636 2.83-5.194 1.654-1.386 2.873-2.121 3.657-2.208-.639-.78-.958-1.587-.958-2.424 0-1.328.667-2.165 2.003-2.511.319-.087.667-.13 1.044-.13 1.423 0 2.351.534 2.787 1.602l.218.909v.13c0 .894-.305 1.702-.915 2.424.784.087 2.017.837 3.7 2.251 1.858 1.53 2.787 3.247 2.787 5.151 0 1.617-.87 3.406-2.612 5.368 0 .404.145.982.435 1.732.29.924.436 1.472.436 1.645 0 .981-1.03 1.602-3.091 1.862 1.567.548 2.96.822 4.18.822l2.568-.13c1.422 0 2.612.91 3.57 2.728l-1.48 2.25c-.494.636-1.002 1.054-1.524 1.256-.116-.577-.958-.938-2.525-1.082.203 0-.232-.043-1.306-.13-3.628-.346-6.037-1.111-7.227-2.294z"/><path style="stroke:none;stroke-width:1;stroke-dasharray:none;stroke-linecap:butt;stroke-dashoffset:0;stroke-linejoin:miter;stroke-miterlimit:4;fill:#050505;fill-rule:nonzero;opacity:1" vector-effect="non-scaling-stroke" transform="translate(5.5 5)" d="M14.063 17.273c-2.032 0-3.614-.087-4.746-.26.203.404.305.75.305 1.039 0 .433-.087.794-.262 1.082.842-.26 2.41-.39 4.703-.39 2.292 0 3.86.13 4.702.39-.175-.288-.262-.65-.262-1.082 0-.346.087-.693.262-1.039-1.365.173-2.932.26-4.703.26zm0-15.671c-.61 0-1.03.274-1.263.822a1.15 1.15 0 0 0-.087.433c0 .635.32 1.054.958 1.256.116.028.246.043.392.043.667 0 1.102-.303 1.306-.91.029-.115.043-.245.043-.389 0-.577-.29-.967-.87-1.169a1.533 1.533 0 0 0-.48-.086zm0 18.398c-1.104 0-2.526.101-4.267.303-.494.058-.784.332-.87.822 0 .347.797.563 2.394.65-.146-.029-.087-.043.174-.043h2.569c3.395 0 5.093-.202 5.093-.607 0-.663-.841-1.024-2.525-1.082H15.37c-.378 0-.697-.014-.958-.043h-.348zm-.044-3.983c3.25 0 5.239-.303 5.965-.909.493-.375.856-1.37 1.088-2.987-.145-1.443-1.088-2.828-2.83-4.156-1.625-1.27-3.048-1.977-4.267-2.12-1.132.143-2.51.85-4.136 2.12-1.712 1.328-2.64 2.713-2.786 4.156.203 1.5.522 2.453.958 2.857.116.116.247.217.392.303.725.491 2.597.736 5.616.736zm-.74-2.12V11.99h-1.48v-1.688h1.48V8.442h1.567v1.861h1.48v1.688h-1.48v1.905H13.28zm.696 8.83c-.26 0-1.03.505-2.307 1.515-.9.607-2.351.967-4.354 1.083-1.451 0-2.612.072-3.483.216-.929.202-1.393.592-1.393 1.169.087.577.392.866.914.866l2.308-.347c1.51 0 3.091-.202 4.745-.606 1.887-.49 3.106-1.27 3.658-2.337.783 1.53 2.815 2.453 6.095 2.77l1.132.173h1.132l2.35.347c.523 0 .828-.289.915-.866 0-.577-.465-.967-1.393-1.169l-4.659-.346c-1.48-.116-2.902-.693-4.266-1.732-.61-.49-1.074-.736-1.394-.736zm.088 3.767c-1.133 1.125-2.845 1.818-5.138 2.077-.929.087-2.554.289-4.876.606-.61.116-.958.39-1.045.823-.551-.144-1.364-1.039-2.438-2.684-.261-.404-.45-.678-.566-.822.958-1.819 2.148-2.728 3.57-2.728l2.569.13c1.19 0 2.583-.274 4.18-.822-2.061-.26-3.092-.88-3.092-1.862l.87-3.29v-.087c-1.74-1.904-2.611-3.694-2.611-5.368 0-1.904.943-3.636 2.83-5.194 1.654-1.386 2.873-2.121 3.657-2.208-.639-.78-.958-1.587-.958-2.424 0-1.328.667-2.165 2.003-2.511.319-.087.667-.13 1.044-.13 1.423 0 2.351.534 2.787 1.602l.218.909v.13c0 .894-.305 1.702-.915 2.424.784.087 2.017.837 3.7 2.251 1.858 1.53 2.787 3.247 2.787 5.151 0 1.617-.87 3.406-2.612 5.368 0 .404.145.982.435 1.732.29.924.436 1.472.436 1.645 0 .981-1.03 1.602-3.091 1.862 1.567.548 2.96.822 4.18.822l2.568-.13c1.422 0 2.612.91 3.57 2.728l-1.48 2.25c-.494.636-1.002 1.054-1.524 1.256-.116-.577-.958-.938-2.525-1.082.203 0-.232-.043-1.306-.13-3.628-.346-6.037-1.111-7.227-2.294z"/></g></svg>