<svg xmlns="http://www.w3.org/2000/svg" width="40" height="40" xml:space="preserve"><g><path style="stroke:none;stroke-width:1;stroke-dasharray:none;stroke-linecap:butt;stroke-dashoffset:0;stroke-linejoin:miter;stroke-miterlimit:4;fill:#fff;fill-rule:nonzero;opacity:1" vector-effect="non-scaling-stroke" transform="translate(5.5 5)" d="M14.063 30c-6.158 0-9.283-1.018-9.376-3.055-.154-2.796-.634-4.909-1.438-6.337-.34-.578-.82-1.277-1.439-2.097C.758 17.143.17 15.988.046 15.046A6.147 6.147 0 0 1 0 14.27c0-1.915.82-3.42 2.46-4.514.402-.243.82-.44 1.253-.593 1.64-.577 3.264-.486 4.873.274a9.284 9.284 0 0 1 1.764 1.094l.046.046c0-.639.031-1.323.093-2.052 0-.213.108-.502.325-.866.495-.79 1.083-1.414 1.763-1.87a2.44 2.44 0 0 0 .372-.228V4.468l-1.903-1.094V1.733h1.717L13.366 0h1.393l.603 1.733h1.717v1.64l-1.903 1.095v1.094c1.61 1.003 2.43 2.006 2.46 3.01.062.607.093 1.276.093 2.006l.046-.046c1.95-1.611 3.992-2.128 6.127-1.55.556.152 1.082.38 1.578.684 1.732 1.033 2.614 2.568 2.645 4.604 0 1.216-.619 2.66-1.856 4.332-1.021 1.398-1.656 2.416-1.903 3.055-.526 1.367-.836 3.13-.928 5.288C23.375 28.982 20.25 30 14.063 30z"/><path style="stroke:none;stroke-width:1;stroke-dasharray:none;stroke-linecap:butt;stroke-dashoffset:0;stroke-linejoin:miter;stroke-miterlimit:4;fill:#050505;fill-rule:nonzero;opacity:1" vector-effect="non-scaling-stroke" transform="translate(5.5 5)" d="M14.063 30c-6.158 0-9.283-1.018-9.376-3.055-.154-2.796-.634-4.909-1.438-6.337-.34-.578-.82-1.277-1.439-2.097C.758 17.143.17 15.988.046 15.046A6.147 6.147 0 0 1 0 14.27c0-1.915.82-3.42 2.46-4.514.402-.243.82-.44 1.253-.593 1.64-.577 3.264-.486 4.873.274a9.284 9.284 0 0 1 1.764 1.094l.046.046c0-.639.031-1.323.093-2.052 0-.213.108-.502.325-.866.495-.79 1.083-1.414 1.763-1.87a2.44 2.44 0 0 0 .372-.228V4.468l-1.903-1.094V1.733h1.717L13.366 0h1.393l.603 1.733h1.717v1.64l-1.903 1.095v1.094c1.61 1.003 2.43 2.006 2.46 3.01.062.607.093 1.276.093 2.006l.046-.046c1.95-1.611 3.992-2.128 6.127-1.55.556.152 1.082.38 1.578.684 1.732 1.033 2.614 2.568 2.645 4.604 0 1.216-.619 2.66-1.856 4.332-1.021 1.398-1.656 2.416-1.903 3.055-.526 1.367-.836 3.13-.928 5.288C23.375 28.982 20.25 30 14.063 30zm0-15.365 1.345-2.097c.217-.456.387-.882.51-1.277.063-.212.094-.653.094-1.322 0-1.793-.635-2.69-1.903-2.69-1.33 0-1.996.897-1.996 2.69 0 .669.031 1.11.093 1.322.248.821.774 1.794 1.578 2.918.186.213.278.365.278.456zm12.391-.09c0-1.369-.464-2.417-1.392-3.147-.774-.638-1.686-.957-2.738-.957-1.33 0-2.77.668-4.317 2.006-1.825 1.55-2.862 3.647-3.11 6.292 0 .212.573.456 1.718.73 1.33.242 3.59.364 6.776.364l2.089-2.736c.65-.972.974-1.823.974-2.553zm-12.392 6.154c-.773.334-3.124.623-7.054.866-.588.03-1.067.061-1.439.091.31 1.156.51 2.432.604 3.83 2.135-.668 4.764-1.003 7.89-1.003 3.186 0 5.816.335 7.89 1.003.092-1.52.293-2.796.603-3.83l-6.87-.547a8.43 8.43 0 0 1-1.623-.41zM1.671 14.544c0 .942.758 2.37 2.274 4.286.371.456.634.79.789 1.003h.835c3.187 0 5.508-.213 6.962-.638.464-.122.696-.274.696-.456-.247-2.645-1.284-4.742-3.11-6.292-1.516-1.338-2.954-2.006-4.316-2.006-.433 0-.897.09-1.392.273-1.238.304-2.073 1.11-2.506 2.417l-.232 1.23v.183zM14.063 28.36c2.908 0 4.92-.183 6.033-.547.278-.092.418-.198.418-.32 0-.79-2.135-1.185-6.405-1.185-1.64 0-3.233.106-4.78.32-1.145.181-1.718.47-1.718.865 0 .456 1.826.745 5.477.867h.975z"/></g></svg>