<svg width="40" height="40" xml:space="preserve" xmlns="http://www.w3.org/2000/svg"><g><path style="stroke:none;stroke-width:1;stroke-dasharray:none;stroke-linecap:butt;stroke-dashoffset:0;stroke-linejoin:miter;stroke-miterlimit:4;fill:#fff;fill-rule:nonzero;opacity:1" vector-effect="non-scaling-stroke" transform="translate(5 5)" d="M3.618 18.02c.47 0 .704.322.704.965 0 .846-.42 1.269-1.257 1.269-.335 0-.502-.27-.502-.812 0-.948.352-1.422 1.055-1.422zm4.02-15.736c.134.474.201.796.201.965 0 .101-.05.372-.15.812.535 0 1.272-.27 2.21-.812-.904-.474-1.658-.796-2.26-.965zM29.8 30H8.744c.134-2.335 1.005-4.569 2.613-6.7 1.24-1.693 1.976-2.725 2.21-3.097.47-.744.755-1.641.855-2.69-2.177.947-3.87 2.3-5.075 4.06l-.704 1.168c-.502.812-.82 1.27-.955 1.37a.995.995 0 0 1-.653.255c-1.038 0-1.742-.356-2.11-1.067a.63.63 0 0 1-.1-.355c-.336.17-.67.254-1.006.254-1.608 0-2.881-1.015-3.819-3.046.268-1.489 1.675-4.924 4.221-10.304.268-.508.47-.914.603-1.219C5.83 6.362 6.332 4.653 6.332 3.503c0-.17-.1-1.117-.302-2.843h.402c1.81 0 3.535.575 5.176 1.726C12.513.796 13.266 0 13.869 0c1.072.575 1.81 1.387 2.211 2.437l.553 1.675c.335-.068.62-.102.854-.102 2.68 0 5.327 1.726 7.94 5.178C28.476 13.215 30 18.73 30 25.736c0 1.59-.067 3.012-.201 4.264z"/><path style="stroke:none;stroke-width:1;stroke-dasharray:none;stroke-linecap:butt;stroke-dashoffset:0;stroke-linejoin:miter;stroke-miterlimit:4;fill:#050505;fill-rule:nonzero;opacity:1" vector-effect="non-scaling-stroke" transform="translate(5 5)" d="M3.618 18.02c.47 0 .704.322.704.965 0 .846-.42 1.269-1.257 1.269-.335 0-.502-.27-.502-.812 0-.948.352-1.422 1.055-1.422zm3.618-6.193c-.469 0-.703-.287-.703-.863 0-.913.536-1.658 1.608-2.233.469-.237.904-.355 1.306-.355.704 0 1.089.237 1.156.71 0 .779-.603 1.523-1.809 2.234-.603.338-1.122.507-1.558.507zm.402-9.543c.134.474.201.796.201.965 0 .101-.05.372-.15.812.535 0 1.272-.27 2.21-.812-.904-.474-1.658-.796-2.26-.965zm-5.98 17.462c.201.812.737 1.405 1.608 1.777.335.135.654.203.955.203h.1c.068 0 .436-.203 1.106-.61.201-.135.369-.202.503-.202h.2c.168 0 .252.101.252.304l-.302.965c0 .304.235.457.704.457.067 0 .486-.593 1.256-1.777 1.474-2.301 3.568-4.044 6.282-5.229.268-1.827.938-3.434 2.01-4.822.268-.372.536-.558.804-.558.301 0 .452.22.452.66 0 .101-.302 1.066-.905 2.893-.234.778-.351 1.354-.351 1.726 0 .101.033.322.1.66 0 2.403-1.005 4.924-3.015 7.563-1.34 1.828-2.077 3.283-2.211 4.366h16.583c.134-1.557.2-2.707.2-3.452 0-6.971-2.16-12.538-6.482-16.7-1.306-1.219-2.361-1.828-3.165-1.828h-3.015c-.268-.135-.536-.812-.804-2.03-.201-.982-.453-1.59-.754-1.828-.402 1.219-1.642 2.166-3.719 2.843-1.105.338-1.876.677-2.311 1.015C7.37 7.327 6.28 9.73 4.472 13.35c-1.775 3.587-2.713 5.72-2.814 6.396zM29.8 30H8.744c.134-2.335 1.005-4.569 2.613-6.7 1.24-1.693 1.976-2.725 2.21-3.097.47-.744.755-1.641.855-2.69-2.177.947-3.87 2.3-5.075 4.06l-.704 1.168c-.502.812-.82 1.27-.955 1.37a.995.995 0 0 1-.653.255c-1.038 0-1.742-.356-2.11-1.067a.63.63 0 0 1-.1-.355c-.336.17-.67.254-1.006.254-1.608 0-2.881-1.015-3.819-3.046.268-1.489 1.675-4.924 4.221-10.304.268-.508.47-.914.603-1.219C5.83 6.362 6.332 4.653 6.332 3.503c0-.17-.1-1.117-.302-2.843h.402c1.81 0 3.535.575 5.176 1.726C12.513.796 13.266 0 13.869 0c1.072.575 1.81 1.387 2.211 2.437l.553 1.675c.335-.068.62-.102.854-.102 2.68 0 5.327 1.726 7.94 5.178C28.476 13.215 30 18.73 30 25.736c0 1.59-.067 3.012-.201 4.264z"/></g><path style="fill:#fff;fill-rule:evenodd;stroke-width:.0539084" d="M12.785 8.774c.082-.416.028-1.166-.094-1.313-.12-.144.071-.126.528.05.61.237 1.579.688 1.579.735 0 .058-1.127.58-1.452.673a2.173 2.173 0 0 1-.45.084c-.155 0-.156-.002-.111-.23z"/><path style="fill:#fff;fill-rule:evenodd;stroke-width:.00390625" d="m12.693 9.052.004-.02a.216.216 0 0 0 .005-.026l.004-.018a2.513 2.513 0 0 0 .031-.14.963.963 0 0 0 .02-.09 2.387 2.387 0 0 0 .03-.15l.018-.088c.014-.078.016-.074.007.024a2.212 2.212 0 0 1-.035.26c-.026.143-.025.176.01.191A.636.636 0 0 0 12.96 9c.111-.012.296-.051.411-.087.308-.094 1.278-.539 1.411-.646.028-.023.024-.029-.053-.074-.142-.085-.62-.31-1.038-.49-.486-.208-.781-.315-.93-.336a.267.267 0 0 0-.091.002c-.005.002-.007-.002-.012-.018a.193.193 0 0 0-.007-.025.032.032 0 0 1-.003-.01.14.14 0 0 0-.003-.016c-.002-.007-.002-.01 0-.01a5.552 5.552 0 0 1 .206.06 2.638 2.638 0 0 0 .17.055.204.204 0 0 0 .066.023.426.426 0 0 0 .087.033 10.705 10.705 0 0 1 .698.286c.003 0 .005.002.005.003 0 .003.022.012.029.011a1.276 1.276 0 0 0 .143.067c0 .003.052.026.054.024a.241.241 0 0 0 .069.032c0-.001.002 0 .002.002 0 .003.002.004.004.003.002-.002.004-.001.004 0 0 .004.058.031.063.03.002 0 .003 0 .003.003 0 .002.002.003.004.002s.004 0 .004.001a.977.977 0 0 0 .128.062 4.227 4.227 0 0 0 .282.141c0 .003.002.004.004.003s.004 0 .004.001a1.155 1.155 0 0 0 .136.07c.001.002.02.013.043.025.035.019.039.021.033.026a.296.296 0 0 0-.014.01c-.004.004-.007.005-.007.004 0 0-.005.001-.011.005-.007.004-.012.008-.012.01 0 0-.002.002-.005.002a.719.719 0 0 0-.091.05l-.098.053a10.21 10.21 0 0 1-.436.228c-.002.002-.003.003-.003.001a.397.397 0 0 0-.076.035 2.337 2.337 0 0 0-.139.063.274.274 0 0 0-.06.028c-.005 0-.022.005-.022.008a2.183 2.183 0 0 0-.16.066 5.522 5.522 0 0 1-.445.148 2.78 2.78 0 0 1-.206.05 2.18 2.18 0 0 1-.345.043c-.06.003-.063.002-.063-.005z"/><path style="fill:#fff;fill-rule:evenodd;stroke-width:.00390625" d="M12.791 7.884a1.056 1.056 0 0 0-.018-.083 1.282 1.282 0 0 0-.027-.115 1.888 1.888 0 0 0-.03-.12.533.533 0 0 0-.011-.045c-.015-.053-.015-.06 0-.035.036.06.07.193.09.354.01.077.013.11.011.11l-.015-.066z"/></svg>