<svg xmlns="http://www.w3.org/2000/svg" width="40" height="40" xml:space="preserve"><g><path style="stroke:none;stroke-width:1;stroke-dasharray:none;stroke-linecap:butt;stroke-dashoffset:0;stroke-linejoin:miter;stroke-miterlimit:4;fill:#fff;fill-rule:nonzero;opacity:1" vector-effect="non-scaling-stroke" transform="translate(9 5)" d="M.051 30C.017 29.592 0 28.81 0 27.653c0-4.184 1.23-7.313 3.692-9.388.82-.68 1.864-1.343 3.129-1.99-1.3-.408-2.171-1.394-2.616-2.959a4.946 4.946 0 0 1-.256-1.581c0-2.28 1.162-3.912 3.487-4.898-.547-.987-.82-1.956-.82-2.908 0-1.565.769-2.722 2.307-3.47A4.87 4.87 0 0 1 11.026 0c1.743 0 3.025.663 3.846 1.99a3.48 3.48 0 0 1 .564 1.939c0 .918-.308 1.887-.923 2.908 2.359.952 3.538 2.585 3.538 4.898 0 1.802-.666 3.163-2 4.081a2.932 2.932 0 0 1-.923.46c3.077 1.564 5.077 3.554 6 5.969.581 1.496.872 3.3.872 5.408 0 1.123-.017 1.905-.051 2.347H.05z"/><path style="stroke:none;stroke-width:1;stroke-dasharray:none;stroke-linecap:butt;stroke-dashoffset:0;stroke-linejoin:miter;stroke-miterlimit:4;fill:#050505;fill-rule:nonzero;opacity:1" vector-effect="non-scaling-stroke" transform="translate(9 5)" d="M20.154 27.96c0-3.572-.974-6.242-2.923-8.011-.65-.612-1.453-1.19-2.41-1.735-1.334-.782-2-1.496-2-2.143 0-.34.341-.714 1.025-1.122 1.06-.578 1.692-1.258 1.898-2.04a5.25 5.25 0 0 0 .102-1.123c0-1.565-.803-2.79-2.41-3.674l-.923-.663c-.171-.17-.257-.357-.257-.561 0-.578.205-1.157.616-1.735.273-.374.41-.816.41-1.326 0-.885-.479-1.531-1.436-1.94a2.918 2.918 0 0 0-.923-.152c-.957 0-1.641.425-2.051 1.275a1.803 1.803 0 0 0-.205.817c0 .306.222.884.666 1.734.274.476.393.919.36 1.327 0 .408-.394.816-1.18 1.224-1.573.919-2.36 2.143-2.36 3.674 0 1.326.667 2.38 2 3.163.65.442.975.816.975 1.122 0 .647-.667 1.361-2 2.143-2.461 1.497-4.034 3.317-4.718 5.46-.376 1.19-.564 2.619-.564 4.285h18.308zM.05 30C.017 29.592 0 28.81 0 27.653c0-4.184 1.23-7.313 3.692-9.388.82-.68 1.864-1.343 3.129-1.99-1.3-.408-2.171-1.394-2.616-2.959a4.946 4.946 0 0 1-.256-1.581c0-2.28 1.162-3.912 3.487-4.898-.547-.987-.82-1.956-.82-2.908 0-1.565.769-2.722 2.307-3.47A4.87 4.87 0 0 1 11.026 0c1.743 0 3.025.663 3.846 1.99a3.48 3.48 0 0 1 .564 1.939c0 .918-.308 1.887-.923 2.908 2.359.952 3.538 2.585 3.538 4.898 0 1.802-.666 3.163-2 4.081a2.932 2.932 0 0 1-.923.46c3.077 1.564 5.077 3.554 6 5.969.581 1.496.872 3.3.872 5.408 0 1.123-.017 1.905-.051 2.347H.05z"/></g></svg>