<svg xmlns="http://www.w3.org/2000/svg" width="40" height="40" xml:space="preserve"><g><path style="stroke:none;stroke-width:1;stroke-dasharray:none;stroke-linecap:butt;stroke-dashoffset:0;stroke-linejoin:miter;stroke-miterlimit:4;fill:#fff;fill-rule:nonzero;opacity:1" vector-effect="non-scaling-stroke" transform="matrix(1.03 0 0 1.03 4.55 5.065)" d="M15.022 0c1.039 0 1.76.494 2.164 1.481l.217.898v.135c0 .18-.116.554-.347 1.122-.404 1.227-.606 2.29-.606 3.188 0 1.466.318 3.636.953 6.509C18.96 9.92 19.74 7.347 19.74 5.61l-.26-1.93c0-1.047.448-1.796 1.343-2.244.317-.18.663-.27 1.038-.27 1.04 0 1.775.479 2.208 1.437.173.359.26.718.26 1.077 0 .778-.26 1.392-.78 1.84-.779.809-1.183 2.126-1.211 3.951 0 .778.072 2.035.216 3.771 1.876-2.005 2.814-3.636 2.814-4.893l-.216-1.75c0-.989.432-1.722 1.298-2.2.347-.21.707-.315 1.082-.315.982 0 1.718.464 2.208 1.392l.26.853v.27c0 1.226-.664 2.154-1.991 2.782-.058 1.287-.534 3.816-1.429 7.587-.058.18-.101.344-.13.494 0 .419-.462 1.137-1.385 2.155-1.241 1.287-1.862 2.29-1.862 3.007 0 .33.347 1.212 1.04 2.649.115.27.173.673.173 1.212v.314c-.03.09-.044.195-.044.314v.045l.044.045c0 1.078-2.785 1.676-8.355 1.796h-1.083l-1.818-.045h-.043c-2.713-.09-4.776-.33-6.19-.718-.895-.27-1.343-.614-1.343-1.033.03-.03.03-.21 0-.538a.197.197 0 0 1 0-.18c0-.688.217-1.481.65-2.38.346-.718.52-1.211.52-1.48 0-.48-.246-1.048-.737-1.707l-2.12-2.513c-.232-.33-.347-.644-.347-.943-.895-3.801-1.4-6.27-1.515-7.407a5.643 5.643 0 0 1-.044-.674C.664 8.754 0 7.826 0 6.6c0-.988.433-1.72 1.299-2.2a2.29 2.29 0 0 1 1.125-.314c1.01 0 1.732.479 2.165 1.437.173.329.26.688.26 1.077l-.217 1.75c0 1.318.924 2.949 2.77 4.894.145-1.317.217-2.574.217-3.77 0-1.647-.188-2.74-.563-3.278a4.63 4.63 0 0 0-.65-.718c-.519-.36-.778-.958-.778-1.796 0-1.047.476-1.81 1.428-2.29.318-.149.664-.224 1.04-.224 1.01 0 1.73.479 2.164 1.437.173.329.26.688.26 1.077l-.26 1.886v.044c0 1.706.779 4.28 2.337 7.722.606-2.724.91-4.893.91-6.51a9.065 9.065 0 0 0-.65-3.411c-.173-.42-.26-.719-.26-.898 0-1.048.462-1.796 1.386-2.245C14.3.09 14.646 0 15.022 0z"/><path style="stroke:none;stroke-width:1;stroke-dasharray:none;stroke-linecap:butt;stroke-dashoffset:0;stroke-linejoin:miter;stroke-miterlimit:4;fill:#050505;fill-rule:nonzero;opacity:1" vector-effect="non-scaling-stroke" transform="matrix(1.03 0 0 1.03 4.55 5.065)" d="M14.026 18.9h1.905c.433 0 .952.014 1.558.044l4.286.27h.043c.52 0 .78-.075.78-.225v-.18c0-.897-1.92-1.48-5.758-1.75-.693-.06-1.299-.09-1.818-.09-2.829 0-5.008.3-6.537.898-.693.27-1.04.584-1.04.943v.18c0 .149.26.224.78.224l5.801-.315zm8.009 2.02c-2.28-.3-4.618-.45-7.013-.45-2.511 0-4.849.15-7.013.45.346.299.52.882.52 1.75 0 .569-.087.913-.26 1.033 1.731-.33 3.982-.494 6.753-.494 2.77 0 5.021.165 6.753.494-.173-.12-.26-.464-.26-1.033 0-.868.173-1.451.52-1.75zm-7.013 3.86c-1.472 0-3.117.075-4.935.225-1.415.12-2.122.463-2.122 1.032 0 .748 2.353 1.122 7.057 1.122 4.704 0 7.056-.374 7.056-1.122 0-.24-.188-.464-.563-.673-1.097-.39-3.261-.584-6.493-.584zm0-23.478c-.722 0-1.083.359-1.083 1.077 0 .778.361 1.167 1.083 1.167.692 0 1.039-.389 1.039-1.167 0-.718-.347-1.077-1.04-1.077zm0-1.302c1.039 0 1.76.494 2.164 1.481l.217.898v.135c0 .18-.116.554-.347 1.122-.404 1.227-.606 2.29-.606 3.188 0 1.466.318 3.636.953 6.509C18.96 9.92 19.74 7.347 19.74 5.61l-.26-1.93c0-1.047.448-1.796 1.343-2.244.317-.18.663-.27 1.038-.27 1.04 0 1.775.479 2.208 1.437.173.359.26.718.26 1.077 0 .778-.26 1.392-.78 1.84-.779.809-1.183 2.126-1.211 3.951 0 .778.072 2.035.216 3.771 1.876-2.005 2.814-3.636 2.814-4.893l-.216-1.75c0-.989.432-1.722 1.298-2.2.347-.21.707-.315 1.082-.315.982 0 1.718.464 2.208 1.392l.26.853v.27c0 1.226-.664 2.154-1.991 2.782-.058 1.287-.534 3.816-1.429 7.587-.058.18-.101.344-.13.494 0 .419-.462 1.137-1.385 2.155-1.241 1.287-1.862 2.29-1.862 3.007 0 .33.347 1.212 1.04 2.649.115.27.173.673.173 1.212v.314c-.03.09-.044.195-.044.314v.045l.044.045c0 1.078-2.785 1.676-8.355 1.796h-1.083l-1.818-.045h-.043c-2.713-.09-4.776-.33-6.19-.718-.895-.27-1.343-.614-1.343-1.033.03-.03.03-.21 0-.538a.197.197 0 0 1 0-.18c0-.688.217-1.481.65-2.38.346-.718.52-1.211.52-1.48 0-.48-.246-1.048-.737-1.707l-2.12-2.513c-.232-.33-.347-.644-.347-.943-.895-3.801-1.4-6.27-1.515-7.407a5.643 5.643 0 0 1-.044-.674C.664 8.754 0 7.826 0 6.6c0-.988.433-1.72 1.299-2.2a2.29 2.29 0 0 1 1.125-.314c1.01 0 1.732.479 2.165 1.437.173.329.26.688.26 1.077l-.217 1.75c0 1.318.924 2.949 2.77 4.894.145-1.317.217-2.574.217-3.77 0-1.647-.188-2.74-.563-3.278a4.63 4.63 0 0 0-.65-.718c-.519-.36-.778-.958-.778-1.796 0-1.047.476-1.81 1.428-2.29.318-.149.664-.224 1.04-.224 1.01 0 1.73.479 2.164 1.437.173.329.26.688.26 1.077l-.26 1.886v.044c0 1.706.779 4.28 2.337 7.722.606-2.724.91-4.893.91-6.51a9.065 9.065 0 0 0-.65-3.411c-.173-.42-.26-.719-.26-.898 0-1.048.462-1.796 1.386-2.245C14.3.09 14.646 0 15.022 0zm12.51 5.522c-.461 0-.793.24-.995.718-.03.12-.043.24-.043.36 0 .598.26.972.779 1.121.086.03.173.045.26.045.72 0 1.082-.389 1.082-1.167 0-.718-.361-1.077-1.082-1.077zm-5.67-2.873c-.491 0-.823.254-.996.763l-.043.359c0 .539.245.898.735 1.077.087.03.188.045.303.045.75 0 1.126-.374 1.126-1.122 0-.748-.375-1.122-1.125-1.122zm-13.767 0c-.721 0-1.082.374-1.082 1.122 0 .748.36 1.122 1.082 1.122.693 0 1.04-.374 1.04-1.122 0-.748-.347-1.122-1.04-1.122zm-5.67 2.873c-.722 0-1.083.359-1.083 1.077 0 .778.36 1.167 1.082 1.167.693 0 1.04-.389 1.04-1.167 0-.509-.246-.853-.737-1.032a.928.928 0 0 0-.303-.045zm12.597 2.873c-.404 2.633-.924 4.534-1.559 5.701l-.65 1.077v.045c-.086-.09-.46-.538-1.125-1.347-.837-1.017-1.717-2.947-2.64-5.79.057.418.086.852.086 1.301 0 1.407-.245 3.577-.736 6.51-1.558-.958-3.073-2.484-4.545-4.58.49 2.575.866 4.265 1.125 5.073.174.599.39.943.65 1.033 2.366-1.407 5.498-2.11 9.394-2.11 3.925 0 7.056.703 9.394 2.11.519-.18 1.096-2.215 1.731-6.105-1.5 2.154-3.001 3.68-4.502 4.579-.49-2.604-.736-4.654-.736-6.15 0-.39.029-.943.087-1.662-.578 1.796-1.241 3.397-1.992 4.804a15.948 15.948 0 0 1-1.342 1.796c-.23.239-.375.419-.433.538l-.952-1.75a1.8 1.8 0 0 0-.13-.36c-.23-.658-.606-2.23-1.125-4.713z"/></g></svg>