<svg xmlns="http://www.w3.org/2000/svg" width="40" height="40" xml:space="preserve"><g><path style="stroke:none;stroke-width:1;stroke-dasharray:none;stroke-linecap:butt;stroke-dashoffset:0;stroke-linejoin:miter;stroke-miterlimit:4;fill:#fff;fill-rule:nonzero;opacity:1" vector-effect="non-scaling-stroke" transform="translate(6.5 5)" d="M1.018 30 0 29.029v-3.526l5.465-5.265V10.017L.75 6.082V1.43L2.304 0h4.822l.91.869v1.329h1.555V.868L10.5 0h5.894l.91.869v1.329h1.501V.868L19.771 0h4.822l1.553 1.431v4.65l-4.715 3.936v10.221l5.466 5.265v3.526L25.879 30H1.017z"/><path style="stroke:none;stroke-width:1;stroke-dasharray:none;stroke-linecap:butt;stroke-dashoffset:0;stroke-linejoin:miter;stroke-miterlimit:4;fill:#050505;fill-rule:nonzero;opacity:1" vector-effect="non-scaling-stroke" transform="translate(6.5 5)" d="M7.34 10.17v9.046h12.216V10.17H7.34zM1.018 30 0 29.029v-3.526l5.465-5.265V10.017L.75 6.082V1.43L2.304 0h4.822l.91.869v1.329h1.555V.868L10.5 0h5.894l.91.869v1.329h1.501V.868L19.771 0h4.822l1.553 1.431v4.65l-4.715 3.936v10.221l5.466 5.265v3.526L25.879 30H1.017zm.857-4.038v1.994h23.146v-1.994H1.875zm5.251-5.06L3.59 24.175h19.717l-3.536-3.271H7.126zm4.286-18.756v1.33l-.803.715H7.126l-.804-.716v-1.43h-3l-.697.715v2.862l3.644 2.81h14.359l3.643-2.81V2.76l-.696-.716h-3v1.431l-.804.716h-3.483l-.804-.716V2.146h-4.072z"/></g></svg>