<svg xmlns="http://www.w3.org/2000/svg" width="40" height="40" xml:space="preserve"><path style="stroke:none;stroke-width:10;stroke-dasharray:none;stroke-linecap:butt;stroke-dashoffset:0;stroke-linejoin:miter;stroke-miterlimit:4;fill:#000;fill-rule:nonzero;opacity:1" vector-effect="non-scaling-stroke" transform="matrix(1 0 0 -1 5.23 35)" d="M25.231 18.961c-.136-.842-.045-1.696.273-2.562a6.35 6.35 0 0 1 .477-1.085c.193-.347.404-.515.631-.504-.227.501-.347.911-.358 1.23-.011.32-.028.65-.051.991-.057.888.057 1.475.34 1.76.274.273.32.523.137.751-.261.319-.625.336-1.09.051-.183-.102-.302-.313-.359-.632zm-2.574 4.664c.102-.638.483-1.247 1.142-1.828.614-.558 1.228-.888 1.841-.99-.523.295-.966.745-1.33 1.349-.443.66-.562 1.252-.357 1.776.147.33.096.587-.154.769-.34.205-.67.108-.989-.29-.147-.206-.199-.467-.153-.786zm-3.887 2.34c.42-.513 1.04-.843 1.858-.99.693-.138 1.239-.098 1.637.119-.273-.023-.756.142-1.45.495-.704.342-1.124.814-1.26 1.418-.08.398-.262.598-.546.598-.375 0-.563-.28-.563-.837 0-.285.108-.553.324-.803zm-4.995 1.281c.352-.25.989-.421 1.91-.512.556-.057 1.079.096 1.568.46-.432-.102-.904-.079-1.415.07-.773.193-1.262.54-1.466 1.041-.16.342-.37.49-.631.444-.375-.068-.512-.347-.41-.837.023-.273.171-.495.444-.666zm-4.603-.154c.602-.296 1.284-.376 2.046-.239.363.068.6.162.707.282.108.12.253.27.435.453-.284-.126-.67-.16-1.16-.103-.784.08-1.323.336-1.619.769-.205.307-.438.415-.699.324-.352-.125-.443-.427-.273-.905.08-.24.267-.433.563-.58zm12.718-15.51.494 1.059.904-.461a8.628 8.628 0 0 1 .988 4.014c0 2.642-1.082 4.908-3.247 6.799-2.165 1.89-4.765 2.835-7.8 2.835-1.193 0-2.38-.17-3.563-.512l.802-1.76-1.04-.512-.853 1.879a12.496 12.496 0 0 1-1.16-.547A2.894 2.894 0 0 0 6.002 24c-.807 0-1.495.282-2.063.846a2.79 2.79 0 0 0-.852 2.058c0 .797.284 1.484.852 2.059a2.793 2.793 0 0 0 2.063.862c.66 0 1.256-.21 1.79-.632a4.874 4.874 0 0 0 1.807.7c1.068.171 1.983.052 2.745-.358.704.376 1.528.524 2.472.444 1.136-.114 2.017-.484 2.642-1.11.739.16 1.54.085 2.404-.222 1.102-.422 1.875-1.048 2.319-1.88.83-.079 1.636-.495 2.42-1.246.728-.752 1.16-1.56 1.296-2.426.818-.433 1.42-1.19 1.807-2.272.398-1.104.415-2.1.051-2.99.341-2.197.046-4.36-.886-6.49.182.023.307.034.375.034.636 0 1.179-.225 1.628-.675.449-.45.673-.993.673-1.631a2.32 2.32 0 0 0-.068-.564c-.216-.956-.636-1.742-1.261-2.357-.626-.615-1.336-.922-2.131-.922-.967 0-1.79.427-2.472 1.28-.682.855-1.023 1.885-1.023 3.092 0 .547.074 1.06.221 1.538zm5.353-1.708c-.762 0-1.142-.382-1.142-1.145 0-.774.38-1.161 1.142-1.161.773 0 1.16.387 1.16 1.161 0 .763-.387 1.145-1.16 1.145zM5.54 28.51c-1.023-.57-1.24-1.36-.648-2.374.59-1.037 1.392-1.253 2.404-.65.272.16.477.365.613.616-.84-.092-1.494.045-1.96.41-.591.66-.728 1.326-.41 1.998zm19.912-17.44c.238.683.153 1.11-.256 1.28-.386.126-.722-.136-1.006-.785a.88.88 0 0 1-.068-.17.88.88 0 0 0-.068-.172 4.252 4.252 0 0 1-.307-1.623c0-.888.23-1.645.69-2.271.46-.627 1.02-.94 1.68-.94.375 0 .744.125 1.108.376a2.21 2.21 0 0 0-1.611.666c-.45.444-.674.99-.674 1.64 0 .102.017.216.051.342.035.273.086.546.154.82.068.307.17.586.307.837zm-21.14 3.484 1.466 1.64-.733.82-2.199-2.46 2.182-2.443.75.82zm3.325-6.013 2.506 2.973a3.145 3.145 0 0 1 1.568-.393c.955 0 1.776.339 2.463 1.016a3.336 3.336 0 0 1 1.032 2.468c0 .957-.344 1.777-1.032 2.46-.687.683-1.508 1.025-2.463 1.025a3.55 3.55 0 0 1-1.739-.461l-2.915 3.45a9.305 9.305 0 0 0 2.387 1.93c2.216 1.276 4.537 1.63 6.964 1.06 2.426-.57 4.242-1.896 5.447-3.98 1.193-2.084 1.432-4.328.716-6.73-.716-2.403-2.183-4.237-4.399-5.5l-.17-.103c-.625-.501-.938-1.054-.938-1.657 0-.98.75-1.788 2.25-2.426 1.25-.49 2.143-1.179 2.677-2.067a8.484 8.484 0 0 0-1.091-.41 1.528 1.528 0 0 0-.324-.085c-2.307-.627-4.24-.467-5.796.478A14.66 14.66 0 0 0 11.95.564C10.53.177 9.16-.01 7.842 0 6.524.012 5.364.018 4.364.018c.637.854 1.518 1.611 2.643 2.271.557.33 1.159.604 1.807.82 1.318.593 1.977 1.356 1.977 2.29 0 .865-.568 1.588-1.704 2.169-.5.262-.984.586-1.45.973zm-2.012-.58L0 14.469l5.643 6.576 4.143-4.868c.488.615 1.13.922 1.926.922.682 0 1.267-.244 1.756-.734.489-.49.733-1.076.733-1.76 0-.683-.244-1.27-.733-1.759a2.393 2.393 0 0 0-1.756-.735c-.693 0-1.296.268-1.807.803zm6.086 7.96c-.875 0-1.313-.439-1.313-1.316 0-.876.438-1.315 1.313-1.315s1.313.439 1.313 1.315c0 .877-.438 1.316-1.313 1.316z"/></svg>