<svg xmlns="http://www.w3.org/2000/svg" width="40" height="40" xml:space="preserve"><path style="stroke:none;stroke-width:10;stroke-dasharray:none;stroke-linecap:butt;stroke-dashoffset:0;stroke-linejoin:miter;stroke-miterlimit:4;fill:#000;fill-rule:nonzero;opacity:1" vector-effect="non-scaling-stroke" transform="rotate(180 17.415 17.5)" d="M20.156 5.672c.627 0 .94.305.94.914 0 .62-.313.931-.94.931-.626 0-.939-.31-.939-.93 0-.61.313-.915.94-.915zm-5.34 2.293L12.59 6.948l2.227-1.034 2.226 1.034zm0 15.139c-.66 0-.99-.328-.99-.983 0-.644.33-.966.99-.966.65 0 .975.322.975.966 0 .655-.325.983-.974.983zm.035-4.207c-.904 0-1.675.313-2.313.94a3.082 3.082 0 0 0-.957 2.284c0 .885.32 1.646.957 2.284a3.151 3.151 0 0 0 2.313.957c.893 0 1.659-.319 2.296-.957.638-.638.957-1.4.957-2.284 0-.897-.319-1.658-.957-2.285a3.16 3.16 0 0 0-2.296-.94zm12.002-9.242a2.296 2.296 0 0 0 .713-1.69c0-.7-.244-1.27-.73-1.706a1.62 1.62 0 0 0 .052-.397c0-.678-.232-1.253-.696-1.724.046-.161.07-.34.07-.535 0-1.23-.575-1.994-1.723-2.293C21.687.437 18.446 0 14.817 0c-3.641 0-6.882.437-9.723 1.31-1.148.3-1.722 1.064-1.722 2.293 0 .184.023.363.07.535a2.345 2.345 0 0 0-.696 1.707c0 .138.017.276.052.414-.487.436-.73 1.005-.73 1.707 0 .69.243 1.258.73 1.706a5.114 5.114 0 0 0-.609.794c-.986 1.39-1.64 2.81-1.965 4.258-.325 1.449-.296 2.69.086 3.724.58 1.46 1.485 2.535 2.714 3.225 1.182.678 2.504.928 3.965.75 1.461-.179 2.888-.716 4.28-1.613 1.344-.908 2.533-2.178 3.565-3.81 1.02 1.632 2.209 2.902 3.565 3.81 1.392.897 2.815 1.434 4.27 1.613 1.456.178 2.78-.072 3.975-.75 1.217-.69 2.122-1.765 2.713-3.225.371-1.034.395-2.276.07-3.724-.325-1.448-.974-2.868-1.948-4.258-.22-.31-.43-.58-.626-.81zM15.72 25.293a3.033 3.033 0 0 1-.887.138c-.278 0-.591-.052-.94-.155l.383 2.103-1.6-.534v2.103l1.6-.517L13.721 30h2.14l-.523-1.569 1.618.517v-2.103l-1.618.534zm7.862-23.19 1.409.88c-3.015.793-6.407 1.19-10.175 1.19-3.734 0-7.126-.397-10.175-1.19l1.391-.88c2.563.518 5.49.776 8.784.776 3.246 0 6.168-.258 8.766-.776zm-1.461 8.931c.104.31.084.676-.061 1.095-.145.42-.113.762.096 1.026.139.173.313.066.521-.319.21-.385.418-.52.627-.405.243.127.411.368.504.724.093.356.07.655-.07.897-.116.184-.345.166-.687-.052-.342-.218-.565-.23-.67-.035-.115.184.004.368.357.552.354.184.479.374.374.57-.417.654-.968.798-1.652.43-.197-.115-.183-.339.043-.672.226-.334.247-.558.061-.673-.197-.103-.388.023-.574.38-.185.356-.37.482-.556.379-.244-.15-.415-.4-.513-.75-.099-.35-.079-.647.06-.888.105-.195.348-.178.731.052.383.23.591.241.626.034.058-.402-.122-.761-.539-1.077-.417-.316-.58-.664-.487-1.043-1.728.206-3.566.31-5.514.31a47.49 47.49 0 0 1-5.6-.31c.08.379-.09.73-.513 1.051-.424.322-.6.684-.53 1.086.034.207.24.196.617-.034.376-.23.623-.247.739-.052.139.242.16.538.06.888-.098.35-.269.595-.512.733-.198.103-.389-.02-.574-.37-.186-.351-.371-.47-.557-.354-.197.103-.183.322.043.655.227.333.247.557.061.672-.255.138-.56.158-.913.06-.353-.097-.6-.266-.739-.508-.116-.184.003-.368.357-.552.353-.183.478-.367.374-.551-.116-.196-.345-.184-.687.034-.342.219-.566.23-.67.035-.14-.242-.162-.538-.07-.888.093-.35.261-.595.505-.733.197-.115.403.023.617.414.215.39.392.5.53.327.21-.264.244-.606.105-1.025-.139-.42-.15-.785-.035-1.095l-1.148-.233c-.37-.075-.73-.152-1.078-.233-.591-.16-.84-.442-.748-.844.104-.38.446-.495 1.026-.345 2.772.62 5.92.93 9.445.93 3.432 0 6.528-.304 9.288-.913.545-.172.875-.063.991.328.081.39-.162.672-.73.844-.812.173-1.589.322-2.33.449zm-8.123 1.414c-.058.449-.139.874-.243 1.276-.279.966-.653 1.736-1.122 2.31-.47.575-.966 1.138-1.487 1.69-.951.84-1.957 1.474-3.018 1.905-1.061.431-2.026.474-2.896.13A5.67 5.67 0 0 1 3.893 19c-.405-.31-.759-.81-1.06-1.5-.314-.655-.38-1.546-.2-2.672.18-1.127.67-2.322 1.47-3.587.185.035.379.08.582.138.203.058.414.104.635.138-1.148 3.403-.922 5.466.678 6.19.963.448 1.986.221 3.07-.681 1.084-.902 1.974-1.905 2.67-3.009.14-.218.31-.543.513-.974.203-.43.31-.646.322-.646.232 0 .467.005.704.017l.722.034zm1.6 0c.476 0 .957-.017 1.444-.051l.304.655.513.965c.696 1.104 1.586 2.107 2.67 3.009 1.084.902 2.114 1.135 3.088.698 1.565-.735 1.785-2.799.66-6.19.325-.068.731-.166 1.218-.293.8 1.265 1.29 2.463 1.47 3.595.18 1.132.113 2.026-.2 2.681-.313.69-.673 1.187-1.079 1.492a5.978 5.978 0 0 1-1.322.75c-.88.345-1.852.304-2.913-.121-1.06-.425-2.061-1.058-3-1.897a36.473 36.473 0 0 1-1.487-1.706c-.47-.575-.844-1.345-1.122-2.31a6.573 6.573 0 0 1-.244-1.277zM4.172 5.052l.94-.173L6.99 6.45l-2.418.43-.557-.448a1.11 1.11 0 0 1-.156-.586c0-.31.104-.575.313-.793zm21.29 0c.208.218.312.488.312.81 0 .196-.04.368-.121.517l-.592.5-2.417-.413 1.878-1.587zm-15.985.62c.614 0 .922.305.922.914 0 .62-.308.931-.922.931-.626 0-.94-.31-.94-.93 0-.61.314-.915.94-.915z"/></svg>