<svg xmlns="http://www.w3.org/2000/svg" width="40" height="40" xml:space="preserve"><path style="stroke:none;stroke-width:10;stroke-dasharray:none;stroke-linecap:butt;stroke-dashoffset:0;stroke-linejoin:miter;stroke-miterlimit:4;fill:#000;fill-rule:nonzero;opacity:1" vector-effect="non-scaling-stroke" transform="matrix(1 0 0 -1 3.11 35)" d="M8.31 20.182c.072.206.243.425.51.655.183-.327.457-.491.822-.491.621 0 .932.31.932.929 0 .145-.043.279-.128.4.304.085.584.091.84.019a.55.55 0 0 1 .091.327c-.049.668-.657.784-1.826.347-1.193-.425-1.765-.978-1.717-1.658 0-.255.159-.431.475-.528zm16.946-.237c.791-.79 1.534-1.397 2.228-1.822.694-.425 1.132-.546 1.315-.364.182.182.06.616-.366 1.302s-1.034 1.43-1.826 2.232c-.475.473-.937.88-1.388 1.22-.51-.267-1.235-.34-2.173-.218a24.529 24.529 0 0 0 2.21-2.35zm3.652-6.485c.438-.874.877-1.573 1.315-2.095.438-.522.767-.728.986-.62.231.11.265.56.1 1.349-.164.79-.483 1.694-.958 2.714a22.424 22.424 0 0 1-.986 1.858c-.524-.207-1.236-.085-2.137.364a28.246 28.246 0 0 0 1.68-3.57zm1.461-6.303c.183-1.59.475-2.386.877-2.386.219 0 .41.282.575.847.164.565.27 1.284.32 2.159-.293 1.178-.61 1.76-.95 1.748-.402.061-.834.286-1.297.674.232-1.08.39-2.095.475-3.042zm2.027-4.936c.134.607.195 1.42.183 2.44-.39-.752-.834-1.129-1.333-1.129-.268 0-.542.122-.822.365-.024-.267-.055-.626-.091-1.075.718-.17 1.406-.37 2.063-.601zM17.221 25.865c.426-.146.876-.322 1.351-.528 1.704.012 2.581.23 2.63.655.012.255-.353.486-1.096.693-.743.206-1.747.267-3.013.182.085-.328.128-.662.128-1.002zm3.25-1.476c1.023-.485 1.936-.813 2.74-.983.803-.17 1.26-.134 1.37.11.17.412-.573 1.092-2.229 2.04-.268-.523-.895-.912-1.88-1.167zM2.977 10.6c-.621.024-1.327.413-2.119 1.166-.815 1.117-1.05 2.064-.703 2.842.347.777 1.27 1.821 2.767 3.133.292.255.651.516 1.077.783.329.182.688.468 1.078.856A5.833 5.833 0 0 1 6.3 21.147c.633 1.542 1.826 2.817 3.58 3.825a.802.802 0 0 0 .164.092 6.88 6.88 0 0 0 .091 1.821c.122.79.36 1.482.712 2.077a7.238 7.238 0 0 0 1.881-1.13c.183-.145.36-.303.53-.473.28.473.56.874.84 1.202A6.73 6.73 0 0 0 15.742 30a7.92 7.92 0 0 0 1.077-1.93c0-.037.012-.08.037-.128.06 0 .121.003.182.009.061.006.128.009.201.009.78.036 1.54.006 2.283-.091.742-.097 1.351-.28 1.826-.547a.593.593 0 0 1 .21-.063c.067-.007.155-.028.265-.064 1.132-.462 2.054-1.048 2.766-1.758.713-.71 1.105-1.333 1.178-1.867.524-.34 1.096-.808 1.717-1.403 1.68-1.712 2.514-3.194 2.502-4.444.523-.62 1.022-1.415 1.497-2.387 1.047-2.295 1.303-4.02.767-5.173.828-.996 1.327-2.49 1.498-4.481.048-.729.048-1.421 0-2.077a32.806 32.806 0 0 0-.22-3.151c-2.179.96-4.553 1.554-7.121 1.785-2.679.23-5.26.024-7.743-.62C15.523.382 12.205-.146 8.71.036c-.438.024-.755.049-.95.073 1.924 3.546 4.42 6.23 7.488 8.051.694.668 1.156 1.634 1.388 2.897.158.959.115 1.857-.128 2.695-.402-.255-.719-.43-.95-.528-1.254-.57-2.502-.777-3.743-.62a7.667 7.667 0 0 0-2.868-1.93 10.48 10.48 0 0 0-.693-.237c-.804-.668-1.623-1.099-2.457-1.293-.834-.194-1.543-.085-2.127.328-.378.255-.609.631-.694 1.13zm14.92 4.226c.645.765 1.07 1.597 1.278 2.496.085.631-.073.983-.475 1.056-.426.085-.694-.194-.804-.838a5.276 5.276 0 0 0-.967-1.821c-.475-.498-.56-.887-.256-1.166.292-.304.7-.213 1.223.273zM4.73 11.092c.548.267 1.296.722 2.246 1.366.499.304.657.632.475.984-.232.352-.597.376-1.096.073-1.071-.765-1.857-1.245-2.356-1.44-.523-.364-.663-.704-.42-1.02.22-.315.603-.303 1.15.037zM2.977 14.99c-.67 0-1.005-.212-1.005-.637 0-.426.335-.638 1.005-.638.657 0 .986.212.986.638 0 .425-.329.637-.986.637zm13.294 9.345c-.292-.182-.502-.289-.63-.319-.128-.03-.246-.058-.356-.082a1.875 1.875 0 0 0-.64-.036.911.911 0 0 0-.401.109c-.34.182-.67.461-.986.838-.11-.911.17-1.5.84-1.767.024-.012.06-.027.11-.046.048-.018.115-.039.2-.063.244 0 .402.012.475.036.621.243 1.084.686 1.388 1.33z"/></svg>