<svg xmlns="http://www.w3.org/2000/svg" width="40" height="40" xml:space="preserve"><path style="stroke:none;stroke-width:10;stroke-dasharray:none;stroke-linecap:butt;stroke-dashoffset:0;stroke-linejoin:miter;stroke-miterlimit:4;fill:#000;fill-rule:nonzero;opacity:1" vector-effect="non-scaling-stroke" transform="rotate(180 13.715 17.5)" d="M10.49 4.643c1.822-.688 3.28-1.802 4.376-3.344V0H0v1.3a8.893 8.893 0 0 0 4.395 3.343 6.383 6.383 0 0 0-2.532 2.341C1.22 8.01.898 9.146.898 10.394c0 2.09.822 3.79 2.465 5.103 1.083 1.019 1.624 2.26 1.624 3.726H.267v1.318a9.373 9.373 0 0 0 2.962 2.427c.867.471 1.56 1.166 2.083 2.083a2.895 2.895 0 0 0-.802 2.045c0 .802.283 1.487.85 2.054.567.567 1.258.85 2.073.85.803 0 1.488-.283 2.054-.85.567-.567.85-1.252.85-2.054 0-.765-.26-1.446-.783-2.045a4.95 4.95 0 0 1 2.102-2.083c1.172-.624 2.153-1.42 2.943-2.388v-1.357h-4.72c-.025-1.465.522-2.72 1.643-3.764 1.618-1.287 2.427-2.975 2.427-5.064a6.163 6.163 0 0 0-.974-3.382c-.65-1.02-1.478-1.81-2.484-2.37z"/></svg>