<svg xmlns="http://www.w3.org/2000/svg" width="40" height="40" xml:space="preserve"><path style="stroke:none;stroke-width:10;stroke-dasharray:none;stroke-linecap:butt;stroke-dashoffset:0;stroke-linejoin:miter;stroke-miterlimit:4;fill:#000;fill-rule:nonzero;opacity:1" vector-effect="non-scaling-stroke" transform="rotate(180 18.795 17.5)" d="M27.414 9.095c.563-.159.899-.049 1.009.33.086.38-.14.648-.678.807-2.996.832-6.382 1.247-10.16 1.247-3.826 0-7.188-.415-10.085-1.247-.562-.159-.795-.428-.697-.807.098-.366.428-.483.99-.348 2.8.77 6.088 1.155 9.866 1.155 3.74 0 6.993-.379 9.755-1.137zM22.83 7.958c-.917.147-1.424-.06-1.522-.623-.11-.562.3-.93 1.229-1.1.904-.171 1.406.036 1.503.623.11.55-.293.917-1.21 1.1zm4.07-2.97c.759 0 1.138.415 1.138 1.247 0 .415-.147.745-.44.99l-2.402-.88zm-18.63 0 1.706 1.338-2.403.899a1.256 1.256 0 0 1-.44-.99c0-.832.38-1.247 1.137-1.247zm16.724-2.073c.758.172 1.528.386 2.31.642-1.357.367-2.86.691-4.51.972-1.651.281-3.387.422-5.208.422-1.822 0-3.555-.14-5.199-.422a48.928 48.928 0 0 1-4.502-.972 20.638 20.638 0 0 1 2.31-.641c1.076.207 2.238.39 3.485.55 1.247.159 2.549.238 3.906.238 1.344 0 2.646-.082 3.906-.248a71.796 71.796 0 0 0 3.502-.54zm3.08 8.62.752 3.208-2.347-2.769a21.524 21.524 0 0 0 1.596-.44zm-3.447.66-.587 3.869-1.76-3.558c.917-.098 1.7-.202 2.347-.312zm-5.061.66-1.98 5.409-1.98-5.391c.44.024 1.1.036 1.98.036.66 0 1.32-.018 1.98-.055zm-6.675-.349-1.76 3.558-.587-3.851c.685.11 1.467.207 2.347.293zm-4.18-.532-2.366 2.77.77-3.192c.367.11.899.251 1.595.422zm8.875 13.643c-.612 0-1.131.214-1.56.642a2.122 2.122 0 0 0-.64 1.559c0 .587.213 1.097.64 1.531.429.434.948.651 1.56.651.599 0 1.112-.217 1.54-.651.428-.434.642-.944.642-1.531 0-.611-.214-1.131-.642-1.559a2.1 2.1 0 0 0-1.54-.642zM29.413 9.83c.22-.428.33-.874.33-1.339 0-.721-.232-1.332-.696-1.834.036-.134.055-.275.055-.421 0-.734-.227-1.345-.679-1.834.049-.171.073-.36.073-.569 0-1.308-.544-2.12-1.632-2.438C24.09.464 20.996 0 17.586 0c-3.423 0-6.516.464-9.28 1.394-1.087.317-1.631 1.13-1.631 2.438 0 .208.024.398.073.569-.452.489-.678 1.1-.678 1.834 0 .146.018.287.055.421-.465.477-.697 1.082-.697 1.816 0 .428.086.825.257 1.192L3.099 21.253l5.795-6.73 1.192 8.637 3.722-7.977L17.586 25.6l3.777-10.416 3.704 7.977 1.192-8.637 5.813 6.748zm-3.942 13.533c-.612 0-1.131.214-1.56.642a2.122 2.122 0 0 0-.64 1.558c0 .587.213 1.098.64 1.531.429.434.948.651 1.56.651.599 0 1.112-.216 1.54-.65.428-.435.642-.945.642-1.532 0-.61-.214-1.13-.642-1.558a2.1 2.1 0 0 0-1.54-.642zm-15.77 0c-.612 0-1.131.214-1.56.642a2.122 2.122 0 0 0-.641 1.558c0 .587.214 1.098.642 1.531.428.434.947.651 1.559.651.599 0 1.112-.216 1.54-.65.428-.435.642-.945.642-1.532 0-.61-.214-1.13-.642-1.558a2.1 2.1 0 0 0-1.54-.642zm23.27-2.256a2.1 2.1 0 0 0-1.54.642 2.122 2.122 0 0 0-.642 1.559 2.1 2.1 0 0 0 .641 1.54 2.1 2.1 0 0 0 1.54.642c.6 0 1.116-.214 1.55-.642.434-.428.651-.941.651-1.54 0-.611-.217-1.131-.65-1.559a2.131 2.131 0 0 0-1.55-.642zm-30.789 0c-.611 0-1.128.214-1.55.642A2.138 2.138 0 0 0 0 23.307c0 1.455.727 2.182 2.182 2.182.6 0 1.116-.214 1.55-.642.434-.428.65-.941.65-1.54 0-.611-.216-1.13-.65-1.559a2.131 2.131 0 0 0-1.55-.642zM17.586 8.728l-2.182-1.265 2.182-1.247 2.182 1.247zm-5.19-.77c-.941-.159-1.35-.525-1.228-1.1.11-.587.617-.788 1.522-.605.916.147 1.32.507 1.21 1.082-.098.562-.6.77-1.504.623z"/></svg>