<svg xmlns="http://www.w3.org/2000/svg" width="40" height="40" xml:space="preserve"><path style="stroke:none;stroke-width:10;stroke-dasharray:none;stroke-linecap:butt;stroke-dashoffset:0;stroke-linejoin:miter;stroke-miterlimit:4;fill:#000;fill-rule:nonzero;opacity:1" vector-effect="non-scaling-stroke" transform="rotate(180 15.01 17.5)" d="M6.896 15.951h6.238V13.61H6.896zM18.713 3.86c-.207 1.11-.927 1.664-2.158 1.664H3.494c-1.244 0-1.964-.554-2.159-1.664zm-1.72 8.506.202-2.378c.597 0 1.113-.213 1.546-.64.433-.427.65-.94.65-1.537 0-.646-.245-1.189-.733-1.628.915-.72 1.372-1.64 1.372-2.762V0H0v3.42c0 1.135.463 2.05 1.39 2.745C.903 6.59.66 7.14.66 7.81c0 .598.213 1.11.64 1.537.427.426.939.64 1.537.64l.237 2.378h6.33v-2.342h1.243v2.342zm-.127 1.244h-2.488v2.341h2.268zm-.33 3.585h-5.89v2.342h5.671zm-.347 3.585-1.811.019v2.323h-1.244v-2.323H6.896v2.323H5.671v-2.323H3.896l.201 2.323-3.11 1.848V30H4.72v-1.866h3.128V30h4.354v-1.866h3.128V30h3.768v-5.03l-3.128-1.848zM3.53 17.195l.238 2.342h5.634v-2.342zm-.329-3.567.22 2.305 2.25.018V13.61zm14.616 12.037H2.213l2.177-1.317h11.25zM10.024 8.653H2.835c-.622 0-.933-.281-.933-.842 0-.573.311-.86.933-.86h14.36c.634 0 .951.287.951.86 0 .561-.317.841-.951.841z"/></svg>