<svg width="40" height="40" fill="none" xmlns="http://www.w3.org/2000/svg"><path d="M24.018 32.351c.398.148.745.319 1.04.512-2.273.502-3.927.251-4.962-.75-1.08.511-2.165.916-3.256 1.212-1.649.444-3.132.655-4.45.632.068-.057.193-.142.375-.256.466-.25.886-.45 1.261-.598 2.07-.809 3.104-1.976 3.104-3.502 0-1.275-.773-2.334-2.32-3.177-.454-.25-.869-.53-1.244-.837l2.421-2.836a2.394 2.394 0 0 0 2.694-.53c.489-.49.733-1.076.733-1.759 0-.683-.244-1.27-.733-1.76a2.394 2.394 0 0 0-1.756-.734c-.364 0-.705.08-1.023.24l-2.882-3.4a8.273 8.273 0 0 1 2.183-1.81c1.944-1.128 3.976-1.447 6.096-.957 2.12.49 3.702 1.64 4.748 3.45 1.023 1.8 1.222 3.735.597 5.808s-1.893 3.673-3.802 4.8c-1.16.809-1.74 1.742-1.74 2.802 0 1.468.972 2.619 2.916 3.45z" fill="#fff"/><path d="M9.602 35c.66-.888 1.535-1.651 2.626-2.29a10.51 10.51 0 0 1 1.824-.819c1.308-.592 1.961-1.355 1.961-2.289 0-.877-.568-1.6-1.705-2.17a8.097 8.097 0 0 1-1.432-.973l-1.296 1.486-6.36-7.414 6.36-7.43.716.82c.625-.73 1.415-1.373 2.37-1.93 2.217-1.276 4.541-1.63 6.974-1.06 2.432.57 4.251 1.896 5.456 3.98 1.193 2.085 1.43 4.328.707 6.73-.721 2.404-2.19 4.237-4.407 5.501l-.17.103c-.626.524-.938 1.076-.938 1.657 0 .98.75 1.788 2.25 2.425 1.285.524 2.177 1.213 2.677 2.067-.34.16-.699.296-1.074.41-.17.057-.284.086-.34.086-2.331.626-4.258.467-5.781-.479a15.71 15.71 0 0 1-2.83 1.025c-1.421.376-2.794.564-4.118.564h-3.47zm15.5-2.135a5.212 5.212 0 0 0-1.04-.513c-1.945-.831-2.917-1.981-2.917-3.45 0-1.06.58-1.993 1.74-2.802 1.91-1.127 3.177-2.727 3.802-4.8.625-2.072.426-4.008-.597-5.808-1.046-1.81-2.628-2.96-4.748-3.45-2.12-.49-4.152-.171-6.096.956a8.271 8.271 0 0 0-2.183 1.811l2.882 3.4c.318-.16.66-.24 1.023-.24.682 0 1.267.245 1.756.735.49.49.733 1.076.733 1.76 0 .683-.244 1.269-.733 1.759a2.394 2.394 0 0 1-2.694.53l-2.42 2.835c.374.307.79.586 1.244.837 1.546.843 2.319 1.902 2.319 3.177 0 1.526-1.035 2.693-3.103 3.502-.376.148-.796.347-1.262.598-.182.114-.307.2-.375.256 1.318.023 2.802-.188 4.45-.632 1.091-.296 2.177-.7 3.257-1.213 1.034 1.002 2.688 1.253 4.961.752zm2.011-9.447.495-1.059.904.461a8.41 8.41 0 0 0 1.005-3.997c0-2.653-1.085-4.925-3.256-6.816-2.171-1.89-4.774-2.835-7.81-2.835-1.193 0-2.38.17-3.563.512l.801 1.76-1.023.512-.87-1.862a8.54 8.54 0 0 0-1.142.53c-.454.25-.932.376-1.432.376a2.793 2.793 0 0 1-2.055-.846c-.562-.564-.844-1.25-.844-2.058 0-.798.282-1.484.844-2.059a2.766 2.766 0 0 1 2.055-.862c.67 0 1.273.21 1.808.632a5.036 5.036 0 0 1 1.807-.7c1.068-.172 1.983-.052 2.745.358.728-.376 1.552-.524 2.473-.444 1.136.114 2.012.49 2.625 1.127.74-.17 1.54-.102 2.404.205 1.126.433 1.899 1.06 2.32 1.88.852.079 1.659.495 2.42 1.246.75.763 1.183 1.572 1.296 2.426.796.433 1.404 1.19 1.825 2.272.375 1.104.392 2.1.051 2.99.33 2.243.028 4.406-.904 6.49.182-.022.313-.034.392-.034.626 0 1.166.228 1.62.684.455.455.682.996.682 1.622 0 .148-.028.336-.085.564-.205.957-.62 1.742-1.245 2.357-.625.615-1.341.923-2.148.923-.966 0-1.79-.427-2.473-1.281-.681-.854-1.023-1.885-1.023-3.092 0-.547.074-1.06.222-1.538l-.92-.444zm5.371 1.367c-.773 0-1.16.381-1.16 1.144 0 .775.387 1.162 1.16 1.162.762 0 1.143-.387 1.143-1.162 0-.763-.381-1.144-1.143-1.144zM13.95 8.762c1.421-.49 2.922-.735 4.502-.735 3.353 0 6.226 1.056 8.619 3.169 2.392 2.112 3.589 4.655 3.589 7.627 0 1.731-.455 3.382-1.364 4.954a4.218 4.218 0 0 0-.324 1.623c0 .888.23 1.645.69 2.272.46.626 1.02.94 1.68.94.386 0 .761-.126 1.125-.377a2.202 2.202 0 0 1-1.62-.666c-.443-.444-.665-.99-.665-1.64 0-.148.012-.262.035-.341.034-.274.085-.547.153-.82.08-.32.199-.638.358-.957 1.137-2.152 1.518-4.419 1.142-6.799.341-.649.336-1.463-.017-2.442-.227-.593-.528-1.065-.903-1.418s-.733-.473-1.075-.359c.205-.228.222-.584.052-1.068-.17-.484-.478-.96-.921-1.426-.455-.444-.926-.752-1.415-.922-.489-.171-.853-.154-1.091.051.102-.342-.026-.7-.384-1.076-.358-.376-.833-.678-1.424-.906-1.182-.432-2.012-.398-2.49.103 0-.308-.215-.598-.647-.871-.432-.274-.966-.444-1.603-.513-1.398-.114-2.2.171-2.404.854-.068-.319-.347-.552-.835-.7-.49-.148-1.046-.17-1.671-.068-.637.114-1.163.321-1.578.623-.415.302-.588.6-.52.897-.182-.957-.756-1.435-1.722-1.435-1.17 0-1.756.586-1.756 1.76 0 1.172.586 1.759 1.756 1.759.307 0 .586-.08.836-.24-.682-.204-1.16-.552-1.432-1.041-.103-.25-.103-.399 0-.444.08-.046.198.045.358.273.42.535 1.216.695 2.387.478.284-.045.477-.085.58-.12zm1.143 13.324a2.427 2.427 0 0 1-.597-1.623c0-.626.199-1.167.597-1.623l-3.462-4.065L6.79 20.48l4.825 5.671 3.479-4.065zm1.875-2.938c-.864 0-1.296.438-1.296 1.315 0 .866.432 1.298 1.296 1.298.875 0 1.313-.432 1.313-1.298 0-.877-.438-1.315-1.313-1.315z" fill="#000"/><path d="M13.95 8.762c1.421-.49 2.922-.735 4.502-.735 3.353 0 6.226 1.056 8.619 3.169 2.392 2.112 3.589 4.655 3.589 7.627 0 1.731-.455 3.382-1.364 4.954a4.218 4.218 0 0 0-.324 1.623c0 .888.23 1.645.69 2.272.46.626 1.02.94 1.68.94.386 0 .761-.126 1.125-.377a2.202 2.202 0 0 1-1.62-.666c-.443-.444-.665-.99-.665-1.64 0-.148.012-.262.035-.341.034-.274.085-.547.153-.82.08-.32.199-.638.358-.957 1.137-2.152 1.518-4.419 1.142-6.799.341-.649.336-1.463-.017-2.442-.227-.593-.528-1.065-.903-1.418s-.733-.473-1.075-.359c.205-.228.222-.584.052-1.068-.17-.484-.478-.96-.921-1.426-.455-.444-.926-.752-1.415-.922-.489-.171-.853-.154-1.091.051.102-.342-.026-.7-.384-1.076-.358-.376-.833-.678-1.424-.906-1.182-.432-2.012-.398-2.49.103 0-.308-.215-.598-.647-.871-.432-.274-.966-.444-1.603-.513-1.398-.114-2.2.171-2.404.854-.068-.319-.347-.552-.835-.7-.49-.148-1.046-.17-1.671-.068-.637.114-1.163.321-1.578.623-.397.29-.573.576-.527.86-.19-.932-.76-1.398-1.715-1.398-1.17 0-1.756.586-1.756 1.76 0 1.172.586 1.759 1.756 1.759.307 0 .586-.08.836-.24-.682-.204-1.16-.552-1.432-1.041-.103-.25-.103-.399 0-.444.08-.046.198.045.358.273.42.535 1.216.695 2.387.478.284-.045.477-.085.58-.12z" fill="#fff"/><path d="M31.325 25.93c0-.764.386-1.145 1.16-1.145.76 0 1.142.381 1.142 1.144 0 .775-.381 1.162-1.143 1.162-.773 0-1.16-.387-1.16-1.162zM14.496 20.463c0 .615.199 1.156.597 1.623l-3.479 4.065-4.825-5.67 4.842-5.706 3.462 4.065a2.385 2.385 0 0 0-.597 1.623zM15.672 20.463c0-.877.432-1.315 1.296-1.315.875 0 1.313.438 1.313 1.315 0 .866-.438 1.298-1.313 1.298-.864 0-1.296-.432-1.296-1.298z" fill="#fff"/></svg>