<svg width="40" height="40" fill="none" xmlns="http://www.w3.org/2000/svg"><path d="M19.984 16.103c.858 0 1.588-.313 2.19-.94.604-.626.905-1.387.905-2.284 0-.885-.302-1.643-.904-2.276-.603-.632-1.333-.948-2.191-.948-.847 0-1.574.316-2.183.948a3.165 3.165 0 0 0-.912 2.276c0 .897.304 1.658.912 2.285.609.626 1.337.94 2.183.94zM8.577 25.345a2.355 2.355 0 0 0-.678 1.69c0 .678.231 1.252.695 1.724a1.488 1.488 0 0 0-.052.396c0 .678.226 1.247.678 1.707-.046.173-.07.356-.07.552 0 1.218.545 1.983 1.635 2.293 2.701.862 5.773 1.293 9.216 1.293 3.443 0 6.527-.431 9.251-1.293 1.078-.322 1.617-1.086 1.617-2.293 0-.196-.023-.374-.07-.535a2.436 2.436 0 0 0 .679-1.724c0-.138-.018-.27-.052-.396.452-.46.678-1.035.678-1.724 0-.667-.226-1.236-.678-1.707.127-.161.318-.426.574-.793.938-1.38 1.559-2.797 1.86-4.25.301-1.454.278-2.699-.07-3.733-.556-1.437-1.414-2.512-2.573-3.224-1.124-.679-2.382-.929-3.773-.75-1.392.178-2.748.715-4.07 1.612-1.31.93-2.434 2.207-3.373 3.827-.95-1.62-2.08-2.896-3.39-3.827-1.322-.897-2.676-1.434-4.06-1.612-1.386-.179-2.647.071-3.783.75-1.16.712-2.011 1.787-2.556 3.224-.348 1.034-.374 2.278-.078 3.733.295 1.453.913 2.87 1.851 4.25.256.367.453.637.592.81zm11.407-10.431c-.534 0-.992-.198-1.374-.595a1.998 1.998 0 0 1-.574-1.44c0-.551.191-1.028.574-1.43.383-.403.84-.604 1.374-.604.545 0 1.005.201 1.382.603.377.403.565.88.565 1.431 0 .564-.188 1.043-.565 1.44a1.834 1.834 0 0 1-1.382.595zm-.835-5.207c.243-.08.522-.12.835-.12.313 0 .614.045.904.137l-.365-2.086 1.53.517V6.052l-1.53.534L21.044 5H19.01l.504 1.586-1.53-.534v2.103l1.53-.517-.365 2.069z" fill="#050505"/><path d="M18.61 14.319c.383.396.84.595 1.374.595.545 0 1.005-.198 1.382-.595.377-.397.565-.877.565-1.44 0-.551-.188-1.028-.565-1.43a1.822 1.822 0 0 0-1.382-.604c-.534 0-.992.201-1.374.603-.383.403-.574.88-.574 1.431 0 .564.191 1.043.574 1.44z" fill="#fff"/><path d="M8.907 23.862c.186.288.412.592.678.914.302-.069.58-.144.835-.224-1.403-4.414-1.119-7.104.852-8.07 1.206-.585 2.475-.298 3.808.863a16.104 16.104 0 0 1 3.287 3.896l.66 1.337.4.922 1.148.017.4-.896.643-1.31c.87-1.449 1.98-2.762 3.33-3.94 1.351-1.178 2.623-1.474 3.817-.888 1.96.965 2.232 3.666.817 8.103.198.035.47.098.818.19.266-.299.498-.604.695-.914.858-1.264 1.43-2.537 1.713-3.819.284-1.281.252-2.336-.096-3.164-.44-1.138-1.13-1.983-2.069-2.534-.927-.552-1.965-.756-3.112-.612-1.148.143-2.284.583-3.409 1.319-1.24.85-2.312 2.086-3.216 3.707-.267.47-.569 1.114-.905 1.93l-.921-1.93c-.905-1.644-1.977-2.88-3.217-3.707-1.113-.736-2.243-1.176-3.391-1.32-1.148-.143-2.191.061-3.13.613-.928.551-1.617 1.396-2.07 2.534-.336.828-.362 1.883-.078 3.164.284 1.282.855 2.555 1.713 3.82z" fill="#fff"/><path d="M24.705 19.19c-1.177 1.034-2.153 2.494-2.93 4.379 1.032.023 2.04.092 3.025.207-.07-.38.096-.73.496-1.052.4-.322.565-.678.496-1.069-.024-.218-.215-.212-.574.017-.36.23-.597.248-.713.052-.36-.678-.22-1.218.417-1.62.197-.104.383.023.556.379.174.356.348.477.522.362.197-.104.189-.325-.026-.664-.214-.339-.235-.566-.06-.68.243-.139.532-.159.869-.061.336.098.568.267.695.508.116.196.003.383-.339.56-.342.179-.46.36-.356.544.104.207.319.201.643-.017.325-.219.54-.236.644-.052.405.69.266 1.23-.418 1.62-.174.115-.362-.022-.565-.413-.203-.391-.374-.5-.513-.328-.208.276-.243.62-.104 1.035.139.414.156.776.052 1.086.719.103 1.362.213 1.93.328.556-1.483.78-2.782.67-3.897-.11-1.115-.548-1.845-1.313-2.19-.893-.39-1.928-.069-3.104.966zM10.872 20.362c-.104 1.115.122 2.425.678 3.931.313-.046.632-.098.956-.155.325-.058.655-.11.992-.155-.093-.3-.07-.658.07-1.078.138-.42.104-.761-.105-1.026-.14-.172-.307-.066-.504.32-.197.384-.395.52-.592.404-.22-.126-.376-.367-.47-.724-.092-.356-.074-.655.053-.896.116-.184.333-.167.652.052.319.218.53.23.635.034.116-.184.003-.368-.34-.552-.341-.184-.46-.373-.356-.569.394-.666.922-.81 1.583-.43.174.114.156.338-.052.672-.209.333-.226.557-.052.672.185.104.365-.023.539-.38.173-.355.353-.482.539-.378.672.425.811.97.417 1.637-.104.207-.336.193-.696-.043-.359-.235-.556-.25-.59-.043-.059.402.112.762.512 1.078.4.316.554.664.46 1.043a55.92 55.92 0 0 1 3.044-.241c-.788-1.897-1.77-3.366-2.948-4.406-1.176-1.04-2.216-1.359-3.12-.957-.766.345-1.2 1.075-1.305 2.19zM10.56 30.414c.022.046.005.103-.053.172a1.273 1.273 0 0 0-.296.828c0 .207.047.408.14.603 2.816-.724 6.033-1.086 9.65-1.086s6.84.362 9.668 1.086c.105-.218.157-.42.157-.603 0-.276-.099-.546-.296-.81-.058-.07-.08-.127-.07-.173 0-.092.088-.15.261-.172.464-.196.696-.564.696-1.104 0-.367-.139-.684-.417-.948.707 0 1.06-.39 1.06-1.172 0-.564-.255-.937-.765-1.121-1.333-.38-2.889-.681-4.669-.905a45.641 45.641 0 0 0-5.694-.337c-3.953 0-7.362.409-10.225 1.225-.498.207-.748.586-.748 1.138 0 .781.354 1.172 1.061 1.172-.278.264-.417.58-.417.948 0 .586.249.954.747 1.104.14.023.21.074.21.155zM20.001 32.086c-3.037 0-5.814.236-8.33.707 2.516.655 5.293.983 8.33.983 3.014 0 5.796-.322 8.347-.966-2.54-.482-5.321-.724-8.347-.724z" fill="#fff"/></svg>