<svg width="40" height="40" fill="none" xmlns="http://www.w3.org/2000/svg"><path d="M6.078 24.402c-.621-.024-1.328-.413-2.12-1.166-.815-1.117-1.05-2.064-.703-2.842.347-.777 1.27-1.821 2.768-3.133a8.561 8.561 0 0 1 1.078-.784c.329-.182.688-.467 1.078-.856a5.834 5.834 0 0 0 1.224-1.767c.645-1.555 1.839-2.83 3.58-3.826l.073-.036a.878.878 0 0 0 .092-.055 8.615 8.615 0 0 1 .09-1.822c.123-.716.36-1.409.713-2.077.682.28 1.31.656 1.882 1.13.195.17.371.334.53.492.243-.438.524-.838.84-1.203A6.176 6.176 0 0 1 18.847 5c.45.595.81 1.239 1.078 1.931 0 .036.012.08.037.128.06 0 .121-.003.182-.01.061-.006.128-.009.201-.009.78-.036 1.54-.006 2.284.091.742.098 1.351.286 1.826.565.293.073.451.11.475.11 1.133.473 2.056 1.062 2.768 1.767.712.704 1.105 1.324 1.178 1.858.548.365 1.12.838 1.717 1.421 1.681 1.688 2.515 3.17 2.503 4.445.536.632 1.036 1.421 1.498 2.369 1.048 2.295 1.303 4.02.768 5.174.828.996 1.327 2.496 1.498 4.5a14.77 14.77 0 0 1 0 2.076c0 .948-.074 1.992-.22 3.134a22.559 22.559 0 0 0-7.106-1.785c-2.691-.231-5.28-.025-7.764.619-3.094 1.227-6.412 1.755-9.956 1.585a15.634 15.634 0 0 1-.95-.073c1.924-3.546 4.42-6.23 7.49-8.052.718-.693 1.181-1.658 1.388-2.897.159-.972.116-1.864-.128-2.678a9.4 9.4 0 0 1-.95.51c-1.23.57-2.478.783-3.745.638a7.979 7.979 0 0 1-2.868 1.912 4.29 4.29 0 0 1-.694.237c-.804.668-1.623 1.1-2.457 1.294-.834.194-1.544.091-2.128-.31-.378-.267-.609-.65-.694-1.148z" fill="#000"/><path d="M7.284 24.184c.596-.231 1.528-.778 2.795-1.64.511-.291.67-.62.475-.983-.232-.353-.597-.377-1.097-.073-1.315.947-2.237 1.47-2.767 1.566-.53.098-1.124-.127-1.781-.674-.475-.765-.588-1.375-.338-1.83.25-.456 1.007-1.249 2.274-2.378.146-.146.308-.28.484-.401.177-.122.344-.243.503-.364.487-.353.889-.687 1.205-1.002a6.632 6.632 0 0 0 1.48-2.132c.572-1.287 1.608-2.356 3.106-3.206a7.58 7.58 0 0 1 1.99-.82c-.024 1.166.33 2.046 1.06 2.641.208.195.445.334.713.42.28 0 .548-.05.804-.146 1.084-.377 1.772-1.312 2.064-2.806 2.216.838 4.287 2.29 6.211 4.354 1.925 2.065 3.416 4.543 4.476 7.433 1.194 3.316 1.62 6.57 1.279 9.765a21.489 21.489 0 0 0-2.594-.364c-2.875-.243-5.627-.012-8.258.692-2.594 1.044-5.395 1.555-8.403 1.53 1.717-2.562 3.733-4.53 6.047-5.902 1.023-.9 1.674-2.132 1.954-3.699.232-1.384.104-2.617-.383-3.698.84-.777 1.388-1.676 1.644-2.696.06-.571-.091-.893-.457-.966-.414-.06-.67.195-.767.765-.414 1.349-1.382 2.38-2.905 3.098-1.303.607-2.533.74-3.69.4-.609.9-1.559 1.61-2.85 2.132-.146.06-.469.164-.968.31-1.29 1.19-2.338 1.536-3.142 1.038-.11-.073-.164-.194-.164-.364z" fill="#fff"/><path d="M11.467 14.6c.012.232.158.395.438.493.05-.183.201-.383.457-.602.183.292.439.438.767.438.56 0 .84-.28.84-.838a.799.799 0 0 0-.109-.383c.28-.049.536-.049.767 0a.502.502 0 0 0 .055-.292c-.024-.619-.572-.728-1.644-.327-1.072.4-1.595.904-1.571 1.512zM7.357 20.65c0-.39-.305-.584-.914-.584-.596 0-.895.195-.895.583 0 .401.298.601.895.601.61 0 .914-.2.914-.6z" fill="#000"/><path d="M35.69 30.36c.013 1.008-.048 1.815-.182 2.423a30.516 30.516 0 0 0-2.064-.602l.11-1.074c.255.242.523.364.803.364.487 0 .932-.37 1.334-1.111zM34.357 30.232c-.402 0-.694-.796-.877-2.387a30.568 30.568 0 0 0-.475-3.042c.463.389.896.613 1.297.674.342-.012.664.57.969 1.749-.061.875-.174 1.594-.338 2.159-.165.565-.356.847-.576.847zM33.334 23.637c-.438-.522-.877-1.22-1.315-2.095a25.02 25.02 0 0 0-1.68-3.553c.9.45 1.613.565 2.137.346.353.596.682 1.215.986 1.859.475 1.02.795 1.925.96 2.714.164.79.13 1.239-.101 1.348-.22.11-.548-.097-.987-.62zM30.594 16.878c-.694-.425-1.431-1.032-2.21-1.822a30.882 30.882 0 0 0-2.23-2.35c.939.122 1.663.049 2.175-.218.45.352.913.758 1.388 1.22.792.802 1.4 1.546 1.827 2.232.426.686.548 1.12.365 1.302-.182.183-.62.061-1.315-.364zM26.32 11.595c-.805-.17-1.712-.498-2.723-.984.974-.267 1.596-.65 1.864-1.148 1.668.923 2.411 1.597 2.228 2.022-.11.243-.566.28-1.37.11zM21.68 9.664a18.076 18.076 0 0 0-1.353-.529c0-.34-.043-.674-.128-1.002 1.267-.085 2.272-.024 3.015.182.742.207 1.108.438 1.096.693-.049.425-.926.644-2.63.656zM17.806 11.995a.454.454 0 0 1-.2.055l-.11-.073c-.524-.437-.72-1.114-.585-2.031.134-.917.566-1.8 1.297-2.65.183-.207.298-.335.347-.383.037.072.07.145.1.218.031.073.065.146.101.219.366 1.056.454 2.031.265 2.924-.189.893-.594 1.466-1.215 1.722zM15.03 8.115c.304.255.566.522.785.802-.61.17-1.066.321-1.37.455 0-.304.03-.65.091-1.038.061-.28.104-.444.128-.492.17.121.292.212.366.273z" fill="#fff"/></svg>