<svg width="40" height="40" fill="none" xmlns="http://www.w3.org/2000/svg"><path d="M16.94 30.316c-1.848.688-3.306 1.802-4.376 3.344v1.28H27.43v-1.28c-1.134-1.605-2.599-2.72-4.395-3.344a6.317 6.317 0 0 0 2.522-2.341c.637-1.026.956-2.169.956-3.43 0-2.076-.822-3.77-2.465-5.083-1.083-1.019-1.624-2.267-1.624-3.745h4.72v-1.3a8.999 8.999 0 0 0-2.962-2.445 5.317 5.317 0 0 1-2.083-2.064 2.895 2.895 0 0 0 .802-2.044 2.83 2.83 0 0 0-.85-2.064 2.783 2.783 0 0 0-2.054-.86c-.803 0-1.49.286-2.064.86a2.815 2.815 0 0 0-.86 2.064c0 .777.268 1.458.803 2.044-.51.917-1.21 1.605-2.102 2.064-1.185.637-2.172 1.44-2.962 2.407v1.338h4.739c0 1.503-.548 2.758-1.644 3.764-1.63 1.3-2.446 2.988-2.446 5.064a6.21 6.21 0 0 0 .975 3.392c.65 1.025 1.485 1.818 2.504 2.379z" fill="#000"/><path d="M21.621 7.864c0-1.083-.541-1.625-1.624-1.625-1.096 0-1.643.542-1.643 1.625 0 1.082.547 1.624 1.643 1.624 1.083 0 1.624-.542 1.624-1.624zM19.997 10.787c-.344 0-.688-.064-1.032-.19-.624 1.107-1.484 1.948-2.58 2.521a8.223 8.223 0 0 0-1.815 1.3h10.815a6.876 6.876 0 0 0-1.796-1.3c-1.083-.573-1.942-1.407-2.58-2.503a3.58 3.58 0 0 1-1.012.172zM21.124 15.717H18.85c0 1.873-.694 3.446-2.082 4.72-1.338 1.057-2.007 2.427-2.007 4.108 0 1.452.513 2.688 1.538 3.707 1.026 1.02 2.258 1.529 3.698 1.529s2.669-.51 3.688-1.529c1.019-1.019 1.529-2.255 1.529-3.707 0-1.681-.67-3.05-2.007-4.108-1.388-1.274-2.083-2.847-2.083-4.72zM19.997 31.061c-2.344 0-4.28.866-5.81 2.599h11.6c-1.516-1.733-3.446-2.599-5.79-2.599z" fill="#fff"/></svg>