<svg width="40" height="40" fill="none" xmlns="http://www.w3.org/2000/svg"><path d="M34.518 13.894c1.381 0 2.072-.728 2.072-2.183 0-.599-.202-1.115-.605-1.55-.404-.433-.892-.65-1.467-.65-.562 0-1.048.217-1.458.65a2.18 2.18 0 0 0-.614 1.55c0 1.455.69 2.183 2.072 2.183zm-29.028 0c1.381 0 2.072-.728 2.072-2.183 0-.599-.202-1.115-.605-1.55-.404-.433-.893-.65-1.467-.65-.563 0-1.049.217-1.458.65a2.18 2.18 0 0 0-.614 1.55c0 1.455.69 2.183 2.072 2.183zm21.95-2.238c.574 0 1.063-.213 1.467-.641.403-.428.605-.948.605-1.559 0-.599-.202-1.115-.605-1.55-.404-.433-.893-.65-1.467-.65-.563 0-1.049.216-1.458.65a2.18 2.18 0 0 0-.614 1.55c0 .611.204 1.13.614 1.559.41.428.895.641 1.458.641zm-14.872 0c.575 0 1.064-.213 1.467-.641.403-.428.605-.948.605-1.559 0-.599-.202-1.115-.605-1.55-.403-.433-.892-.65-1.467-.65-.562 0-1.045.216-1.449.65-.403.435-.605.951-.605 1.55 0 .611.202 1.13.605 1.559.404.428.887.641 1.449.641zm-.458 20.997a80.627 80.627 0 0 1 3.704-.66 27.117 27.117 0 0 1 4.18-.312c1.468 0 2.873.107 4.218.32 1.345.215 2.574.438 3.686.67-2.42.685-5.055 1.027-7.903 1.027-2.873 0-5.502-.348-7.886-1.045zM8.846 25.19c-.196.44-.294.886-.294 1.338 0 .746.214 1.357.642 1.834a1.708 1.708 0 0 0-.037.422c0 .72.208 1.326.624 1.815a3.382 3.382 0 0 0-.055.587c0 1.283.513 2.096 1.54 2.439 2.567.917 5.477 1.375 8.729 1.375 3.264 0 6.18-.458 8.747-1.375 1.026-.343 1.54-1.156 1.54-2.44a2.89 2.89 0 0 0-.055-.568c.415-.513.623-1.124.623-1.833 0-.196-.012-.337-.036-.422.428-.501.642-1.113.642-1.834 0-.403-.08-.794-.239-1.173l2.439-11.608-5.465 6.73-1.136-8.619-3.485 7.959-3.575-10.398-3.558 10.398-3.484-7.959-1.137 8.619-5.464-6.748 2.494 11.46zM19.995 9.4c.586 0 1.078-.214 1.476-.642.397-.428.596-.947.596-1.559 0-.599-.199-1.115-.596-1.549A1.921 1.921 0 0 0 19.995 5c-.55 0-1.03.217-1.44.651a2.18 2.18 0 0 0-.614 1.55c0 .61.205 1.13.614 1.558.41.428.89.642 1.44.642zM9.744 24.254 8.35 18.02l2.55 3.172c.268.269.568.403.898.403.684 0 1.076-.354 1.173-1.063l.587-4.31 1.944 4.365c.269.33.587.495.954.495.415 0 .745-.177.99-.532l2.549-7.463 2.567 7.427c.244.378.58.568 1.008.568.367 0 .673-.153.917-.458l1.962-4.401.587 4.309c.135.709.532 1.064 1.192 1.064.33 0 .617-.135.862-.404l2.567-3.172-1.412 6.234c-2.885-.978-6.302-1.467-10.25-1.467-3.912 0-7.33.49-10.251 1.467z" fill="#000"/><path d="M19.114 7.2c0 .636.294.954.88.954.6 0 .9-.318.9-.954 0-.635-.3-.953-.9-.953-.586 0-.88.318-.88.953zM11.67 9.456c0 .636.3.954.898.954.6 0 .899-.318.899-.954 0-.636-.3-.954-.899-.954s-.898.318-.898.954zM4.591 11.711c0 .636.3.954.899.954s.898-.318.898-.954c0-.635-.3-.953-.898-.953-.6 0-.899.318-.899.954zM26.541 9.456c0 .636.3.954.899.954s.898-.318.898-.954c0-.636-.3-.954-.898-.954-.6 0-.899.318-.899.954zM33.62 11.711c0 .636.299.954.898.954s.898-.318.898-.954c0-.635-.3-.953-.898-.953-.6 0-.899.318-.899.954zM8.35 18.02l1.394 6.234c2.922-.978 6.339-1.467 10.25-1.467 3.95 0 7.366.49 10.251 1.467l1.412-6.234-2.567 3.172c-.244.269-.532.404-.862.404-.66 0-1.057-.355-1.192-1.064l-.587-4.31-1.962 4.402c-.244.305-.55.458-.917.458-.428 0-.764-.19-1.008-.569l-2.567-7.426-2.55 7.463c-.244.355-.574.532-.99.532-.366 0-.684-.165-.953-.495l-1.944-4.364-.587 4.309c-.097.709-.489 1.063-1.173 1.063-.33 0-.63-.134-.899-.403L8.35 18.02z" fill="#fff"/><path d="M10.716 31.186c0 .22.049.434.147.642a42.961 42.961 0 0 1 4.235-.973 27.443 27.443 0 0 1 4.896-.421c1.724 0 3.36.14 4.906.421 1.546.282 2.961.606 4.245.972.098-.207.147-.421.147-.641 0-.563-.227-.96-.679-1.192.098.024.184.036.257.036.66 0 .99-.415.99-1.247 0-.403-.134-.74-.403-1.008.672 0 1.008-.416 1.008-1.247 0-.599-.244-.996-.733-1.192-2.75-.88-6.021-1.32-9.81-1.32-3.73 0-6.957.434-9.683 1.302-.464.22-.697.623-.697 1.21 0 .831.336 1.247 1.009 1.247a1.369 1.369 0 0 0-.404 1.009c0 .819.337 1.228 1.009 1.228.11 0 .183-.006.22-.018-.44.232-.66.63-.66 1.192z" fill="#fff"/><path d="M15.814 31.993a80.627 80.627 0 0 0-3.704.66c2.383.697 5.012 1.045 7.885 1.045 2.848 0 5.482-.342 7.903-1.027a78.326 78.326 0 0 0-3.686-.67 26.828 26.828 0 0 0-4.217-.32c-1.455 0-2.849.104-4.181.312z" fill="#fff"/></svg>