<svg width="40" height="40" fill="none" xmlns="http://www.w3.org/2000/svg"><path d="M11.289 31.58c0-.598.216-1.114.649-1.546.433-.433.942-.65 1.527-.65h13.061c.61 0 1.125.216 1.546.65.421.432.631.948.631 1.545v2.195H11.29V31.58zm2.762-19.684-1.226 13.116c-.598 0-1.11.217-1.537.65-.426.432-.64.948-.64 1.545 0 .634.238 1.177.713 1.628-.914.695-1.371 1.61-1.371 2.744V35h20.03v-3.42c0-1.123-.463-2.031-1.39-2.726.488-.44.731-.988.731-1.647 0-.597-.213-1.113-.64-1.546a2.081 2.081 0 0 0-1.537-.649l-1.262-13.116 3.11-1.866V5H25.3v1.866h-3.128V5H17.82v1.865H14.69V5h-3.75v5.03l3.11 1.866zm5.945-1.244H14.38l-2.177-1.298v-3.11h1.226v1.902h5.634V6.244h1.884v1.902h5.616V6.244h1.244v3.11l-2.177 1.298h-5.634zm-4.665 1.244h9.384l1.464 14.36h1.006c.622 0 .933.317.933.951 0 .634-.311.951-.933.951h-14.36c-.634 0-.951-.317-.951-.95 0-.635.317-.952.951-.952l.988.018 1.518-14.378z" fill="#000"/><path d="M14.38 10.652h11.25l2.177-1.299v-3.11h-1.244v1.903h-5.616V6.244h-1.884v1.902h-5.634V6.244h-1.226v3.11l2.177 1.298zM24.715 11.896h-9.384l-1.518 14.378-.988-.018c-.634 0-.951.317-.951.951 0 .634.317.951.951.951h14.36c.622 0 .933-.317.933-.95 0-.635-.311-.952-.933-.952h-1.006l-1.464-14.36zM11.938 30.034c-.433.432-.65.948-.65 1.545v2.195h17.415V31.58c0-.597-.21-1.113-.63-1.546a2.072 2.072 0 0 0-1.547-.649h-13.06c-.586 0-1.095.217-1.528.65z" fill="#fff"/></svg>