<svg width="36" height="36" viewBox="0 0 36 36" fill="none" xmlns="http://www.w3.org/2000/svg">
<g clip-path="url(#clip0_4767_2229)">
<mask id="mask0_4767_2229" style="mask-type:luminance" maskUnits="userSpaceOnUse" x="0" y="0" width="36" height="36">
<path d="M0 0H36V36H0V0Z" fill="white"/>
</mask>
<g mask="url(#mask0_4767_2229)">
<path d="M18 36C27.9411 36 36 27.9411 36 18C36 8.05887 27.9411 0 18 0C8.05887 0 0 8.05887 0 18C0 27.9411 8.05887 36 18 36Z" fill="#191919"/>
<path fill-rule="evenodd" clip-rule="evenodd" d="M17.9993 6.74927C11.7861 6.74927 6.74927 11.7861 6.74927 17.9993C6.74927 24.2124 11.7861 29.2493 17.9993 29.2493C24.2124 29.2493 29.2493 24.2124 29.2493 17.9993C29.2493 11.7861 24.2124 6.74927 17.9993 6.74927Z" fill="url(#paint0_linear_4767_2229)"/>
<path fill-rule="evenodd" clip-rule="evenodd" d="M18 0C13.2255 0 8.64765 1.8963 5.2722 5.2722C1.89675 8.6481 0 13.2255 0 18C0 22.7745 1.8963 27.3523 5.2722 30.7278C8.6481 34.1032 13.2255 36 18 36C22.7745 36 27.3523 34.1037 30.7278 30.7278C34.1032 27.3519 36 22.7745 36 18C36 13.2255 34.1037 8.64765 30.7278 5.2722C27.3519 1.89675 22.7745 0 18 0ZM18 2.25C26.6985 2.25 33.75 9.3015 33.75 18C33.75 26.6985 26.6985 33.75 18 33.75C9.3015 33.75 2.25 26.6985 2.25 18C2.25 9.3015 9.3015 2.25 18 2.25Z" fill="url(#paint1_linear_4767_2229)"/>
<path fill-rule="evenodd" clip-rule="evenodd" d="M17.9995 2.24951C9.30101 2.24951 2.24951 9.30101 2.24951 17.9995C2.24951 26.698 9.30101 33.7495 17.9995 33.7495C26.698 33.7495 33.7495 26.698 33.7495 17.9995C33.7495 9.30101 26.698 2.24951 17.9995 2.24951ZM17.9995 6.74951C20.983 6.74951 23.845 7.93481 25.9546 10.0444C28.0642 12.154 29.2495 15.016 29.2495 17.9995C29.2495 20.983 28.0642 23.845 25.9546 25.9546C23.845 28.0642 20.983 29.2495 17.9995 29.2495C15.016 29.2495 12.154 28.0642 10.0444 25.9546C7.93481 23.845 6.74951 20.983 6.74951 17.9995C6.74951 15.016 7.93481 12.154 10.0444 10.0444C12.154 7.93481 15.016 6.74951 17.9995 6.74951Z" fill="url(#paint2_linear_4767_2229)"/>
<path fill-rule="evenodd" clip-rule="evenodd" d="M12.8233 17.9789L13.5433 22.2494C13.6108 22.9244 14.2183 23.3969 14.8258 23.3969H21.1033C21.7783 23.3969 22.3183 22.9244 22.4533 22.2494L23.1733 17.9789C23.2462 17.9911 23.3218 17.9969 23.3983 17.9969C23.5756 17.9969 23.7511 17.962 23.9149 17.8942C24.0787 17.8263 24.2275 17.7269 24.3529 17.6015C24.4782 17.4762 24.5777 17.3273 24.6455 17.1635C24.7134 16.9998 24.7483 16.8242 24.7483 16.6469C24.7483 16.4696 24.7134 16.2941 24.6455 16.1303C24.5777 15.9665 24.4782 15.8177 24.3529 15.6923C24.2275 15.567 24.0787 15.4675 23.9149 15.3997C23.7511 15.3318 23.5756 15.2969 23.3983 15.2969C23.0402 15.2969 22.6969 15.4392 22.4437 15.6923C22.1905 15.9455 22.0483 16.2889 22.0483 16.6469C22.0483 16.8242 22.0825 16.9934 22.1446 17.1482L20.0233 17.9969L18.6022 15.1547C18.8744 15.0188 19.0927 14.7949 19.2217 14.5194C19.3507 14.2439 19.3829 13.9328 19.313 13.6367C19.2431 13.3406 19.0752 13.0768 18.8366 12.8881C18.5979 12.6993 18.3025 12.5967 17.9983 12.5969C17.694 12.5967 17.3987 12.6993 17.16 12.8881C16.9214 13.0768 16.7535 13.3406 16.6836 13.6367C16.6137 13.9328 16.6459 14.2439 16.7749 14.5194C16.9039 14.7949 17.1222 15.0188 17.3944 15.1547L15.9733 17.9969L13.852 17.1482C13.9141 16.9934 13.9483 16.8242 13.9483 16.6469C13.9483 16.2889 13.8061 15.9455 13.5529 15.6923C13.2997 15.4392 12.9563 15.2969 12.5983 15.2969C12.2402 15.2969 11.8969 15.4392 11.6437 15.6923C11.3905 15.9455 11.2483 16.2889 11.2483 16.6469C11.2483 17.005 11.3905 17.3483 11.6437 17.6015C11.8969 17.8547 12.2402 17.9969 12.5983 17.9969C12.6748 17.9969 12.7499 17.9906 12.8233 17.9789Z" fill="#E6E6E6"/>
</g>
</g>
<defs>
<linearGradient id="paint0_linear_4767_2229" x1="17.9993" y1="6.74927" x2="17.9993" y2="29.2146" gradientUnits="userSpaceOnUse">
<stop stop-color="white" stop-opacity="0.2"/>
<stop offset="1" stop-opacity="0.098"/>
</linearGradient>
<linearGradient id="paint1_linear_4767_2229" x1="18" y1="0" x2="17.8808" y2="36" gradientUnits="userSpaceOnUse">
<stop stop-color="white" stop-opacity="0.2"/>
<stop offset="1" stop-opacity="0.098"/>
</linearGradient>
<linearGradient id="paint2_linear_4767_2229" x1="17.9995" y1="33.646" x2="17.9995" y2="2.24951" gradientUnits="userSpaceOnUse">
<stop stop-color="white" stop-opacity="0.2"/>
<stop offset="1" stop-opacity="0.098"/>
</linearGradient>
<clipPath id="clip0_4767_2229">
<rect width="36" height="36" fill="white"/>
</clipPath>
</defs>
</svg>
