<svg width="37" height="36" viewBox="0 0 37 36" fill="none" xmlns="http://www.w3.org/2000/svg">
<g clip-path="url(#clip0_4767_2230)">
<mask id="mask0_4767_2230" style="mask-type:luminance" maskUnits="userSpaceOnUse" x="0" y="0" width="37" height="36">
<path d="M0.878906 0H36.8789V36H0.878906V0Z" fill="white"/>
</mask>
<g mask="url(#mask0_4767_2230)">
<path d="M19 36C28.9411 36 37 27.9411 37 18C37 8.05887 28.9411 0 19 0C9.05887 0 1 8.05887 1 18C1 27.9411 9.05887 36 19 36Z" fill="#191919"/>
<path fill-rule="evenodd" clip-rule="evenodd" d="M18.9993 6.74927C12.7861 6.74927 7.74927 11.7861 7.74927 17.9993C7.74927 24.2124 12.7861 29.2493 18.9993 29.2493C25.2124 29.2493 30.2493 24.2124 30.2493 17.9993C30.2493 11.7861 25.2124 6.74927 18.9993 6.74927ZM18.9993 8.99927C23.97 8.99927 27.9993 13.0286 27.9993 17.9993C27.9993 22.97 23.97 26.9993 18.9993 26.9993C14.0286 26.9993 9.99927 22.97 9.99927 17.9993C9.99927 13.0286 14.0286 8.99927 18.9993 8.99927Z" fill="url(#paint0_linear_4767_2230)"/>
<path fill-rule="evenodd" clip-rule="evenodd" d="M18.9988 8.99878C14.0281 8.99878 9.99878 13.0281 9.99878 17.9988C9.99878 22.9695 14.0281 26.9988 18.9988 26.9988C23.9695 26.9988 27.9988 22.9695 27.9988 17.9988C27.9988 13.0281 23.9695 8.99878 18.9988 8.99878ZM18.9988 11.2488C22.7266 11.2488 25.7488 14.271 25.7488 17.9988C25.7488 21.7266 22.7266 24.7488 18.9988 24.7488C15.271 24.7488 12.2488 21.7266 12.2488 17.9988C12.2488 14.271 15.271 11.2488 18.9988 11.2488Z" fill="url(#paint1_linear_4767_2230)"/>
<path fill-rule="evenodd" clip-rule="evenodd" d="M18.998 13.498C17.8046 13.498 16.66 13.9722 15.8161 14.8161C14.9722 15.66 14.498 16.8046 14.498 17.998C14.498 19.1915 14.9722 20.3361 15.8161 21.18C16.66 22.0239 17.8046 22.498 18.998 22.498C20.1915 22.498 21.3361 22.0239 22.18 21.18C23.0239 20.3361 23.498 19.1915 23.498 17.998C23.498 16.8046 23.0239 15.66 22.18 14.8161C21.3361 13.9722 20.1915 13.498 18.998 13.498ZM18.998 15.748C19.5948 15.748 20.1671 15.9851 20.589 16.4071C21.011 16.829 21.248 17.4013 21.248 17.998C21.248 18.5948 21.011 19.1671 20.589 19.589C20.1671 20.011 19.5948 20.248 18.998 20.248C18.4013 20.248 17.829 20.011 17.4071 19.589C16.9851 19.1671 16.748 18.5948 16.748 17.998C16.748 17.4013 16.9851 16.829 17.4071 16.4071C17.829 15.9851 18.4013 15.748 18.998 15.748Z" fill="url(#paint2_linear_4767_2230)"/>
<path fill-rule="evenodd" clip-rule="evenodd" d="M19 0C14.2255 0 9.64765 1.8963 6.2722 5.2722C2.89675 8.6481 1 13.2255 1 18C1 22.7745 2.8963 27.3523 6.2722 30.7278C9.6481 34.1032 14.2255 36 19 36C23.7745 36 28.3523 34.1037 31.7278 30.7278C35.1032 27.3519 37 22.7745 37 18C37 13.2255 35.1037 8.64765 31.7278 5.2722C28.3519 1.89675 23.7745 0 19 0ZM19 2.25C27.6985 2.25 34.75 9.3015 34.75 18C34.75 26.6985 27.6985 33.75 19 33.75C10.3015 33.75 3.25 26.6985 3.25 18C3.25 9.3015 10.3015 2.25 19 2.25Z" fill="url(#paint3_linear_4767_2230)"/>
<path fill-rule="evenodd" clip-rule="evenodd" d="M18.9998 2.24951C10.3013 2.24951 3.24976 9.30101 3.24976 17.9995C3.24976 26.698 10.3013 33.7495 18.9998 33.7495C27.6983 33.7495 34.7498 26.698 34.7498 17.9995C34.7498 9.30101 27.6983 2.24951 18.9998 2.24951ZM18.9998 6.74951C21.9833 6.74951 24.8453 7.93481 26.9549 10.0444C29.0645 12.154 30.2498 15.016 30.2498 17.9995C30.2498 20.983 29.0645 23.845 26.9549 25.9546C24.8453 28.0642 21.9833 29.2495 18.9998 29.2495C16.0163 29.2495 13.1543 28.0642 11.0447 25.9546C8.93505 23.845 7.74976 20.983 7.74976 17.9995C7.74976 15.016 8.93505 12.154 11.0447 10.0444C13.1543 7.93481 16.0163 6.74951 18.9998 6.74951Z" fill="url(#paint4_linear_4767_2230)"/>
<path d="M18.998 20.248C20.2407 20.248 21.248 19.2407 21.248 17.998C21.248 16.7554 20.2407 15.748 18.998 15.748C17.7554 15.748 16.748 16.7554 16.748 17.998C16.748 19.2407 17.7554 20.248 18.998 20.248Z" fill="url(#paint5_linear_4767_2230)"/>
<path fill-rule="evenodd" clip-rule="evenodd" d="M18.9985 11.2485C17.2083 11.2485 15.4914 11.9597 14.2256 13.2256C12.9597 14.4914 12.2485 16.2083 12.2485 17.9985C12.2485 19.7887 12.9597 21.5056 14.2256 22.7715C15.4914 24.0374 17.2083 24.7485 18.9985 24.7485C20.7887 24.7485 22.5056 24.0374 23.7715 22.7715C25.0374 21.5056 25.7485 19.7887 25.7485 17.9985C25.7485 16.2083 25.0374 14.4914 23.7715 13.2256C22.5056 11.9597 20.7887 11.2485 18.9985 11.2485ZM18.9985 13.4985C20.192 13.4985 21.3366 13.9726 22.1805 14.8166C23.0244 15.6605 23.4985 16.8051 23.4985 17.9985C23.4985 19.192 23.0244 20.3366 22.1805 21.1805C21.3366 22.0244 20.192 22.4985 18.9985 22.4985C17.8051 22.4985 16.6605 22.0244 15.8166 21.1805C14.9726 20.3366 14.4985 19.192 14.4985 17.9985C14.4985 16.8051 14.9726 15.6605 15.8166 14.8166C16.6605 13.9726 17.8051 13.4985 18.9985 13.4985Z" fill="url(#paint6_linear_4767_2230)"/>
</g>
</g>
<defs>
<linearGradient id="paint0_linear_4767_2230" x1="18.9993" y1="6.74927" x2="18.9993" y2="29.2146" gradientUnits="userSpaceOnUse">
<stop stop-color="white" stop-opacity="0.2"/>
<stop offset="1" stop-opacity="0.098"/>
</linearGradient>
<linearGradient id="paint1_linear_4767_2230" x1="18.9988" y1="27.0339" x2="18.9988" y2="8.99878" gradientUnits="userSpaceOnUse">
<stop stop-color="white" stop-opacity="0.2"/>
<stop offset="1" stop-opacity="0.098"/>
</linearGradient>
<linearGradient id="paint2_linear_4767_2230" x1="18.998" y1="22.6344" x2="18.998" y2="13.498" gradientUnits="userSpaceOnUse">
<stop stop-color="white" stop-opacity="0.2"/>
<stop offset="1" stop-opacity="0.098"/>
</linearGradient>
<linearGradient id="paint3_linear_4767_2230" x1="19" y1="0" x2="18.8808" y2="36" gradientUnits="userSpaceOnUse">
<stop stop-color="white" stop-opacity="0.2"/>
<stop offset="1" stop-opacity="0.098"/>
</linearGradient>
<linearGradient id="paint4_linear_4767_2230" x1="18.9998" y1="33.646" x2="18.9998" y2="2.24951" gradientUnits="userSpaceOnUse">
<stop stop-color="white" stop-opacity="0.2"/>
<stop offset="1" stop-opacity="0.098"/>
</linearGradient>
<linearGradient id="paint5_linear_4767_2230" x1="18.998" y1="15.7179" x2="18.998" y2="19.6873" gradientUnits="userSpaceOnUse">
<stop stop-color="white" stop-opacity="0.2"/>
<stop offset="1" stop-opacity="0.098"/>
</linearGradient>
<linearGradient id="paint6_linear_4767_2230" x1="18.9985" y1="11.2485" x2="18.9985" y2="24.5658" gradientUnits="userSpaceOnUse">
<stop stop-color="white" stop-opacity="0.2"/>
<stop offset="1" stop-opacity="0.098"/>
</linearGradient>
<clipPath id="clip0_4767_2230">
<rect width="36" height="36" fill="white" transform="translate(0.878906)"/>
</clipPath>
</defs>
</svg>
