<svg width="36" height="37" viewBox="0 0 36 37" fill="none" xmlns="http://www.w3.org/2000/svg">
<g clip-path="url(#clip0_4767_2231)">
<mask id="mask0_4767_2231" style="mask-type:luminance" maskUnits="userSpaceOnUse" x="0" y="0" width="36" height="37">
<path d="M0 0.878906H36V36.8789H0V0.878906Z" fill="white"/>
</mask>
<g mask="url(#mask0_4767_2231)">
<path d="M18 37C27.9411 37 36 28.9411 36 19C36 9.05887 27.9411 1 18 1C8.05887 1 0 9.05887 0 19C0 28.9411 8.05887 37 18 37Z" fill="white"/>
<path fill-rule="evenodd" clip-rule="evenodd" d="M17.999 7.74902C11.7859 7.74902 6.74902 12.7859 6.74902 18.999C6.74902 25.2122 11.7859 30.249 17.999 30.249C24.2122 30.249 29.249 25.2122 29.249 18.999C29.249 12.7859 24.2122 7.74902 17.999 7.74902Z" fill="url(#paint0_linear_4767_2231)"/>
<path fill-rule="evenodd" clip-rule="evenodd" d="M18 1C13.2255 1 8.64765 2.8963 5.2722 6.2722C1.89675 9.6481 0 14.2255 0 19C0 23.7745 1.8963 28.3523 5.2722 31.7278C8.6481 35.1032 13.2255 37 18 37C22.7745 37 27.3523 35.1037 30.7278 31.7278C34.1032 28.3519 36 23.7745 36 19C36 14.2255 34.1037 9.64765 30.7278 6.2722C27.3519 2.89675 22.7745 1 18 1ZM18 3.25C26.6985 3.25 33.75 10.3015 33.75 19C33.75 27.6985 26.6985 34.75 18 34.75C9.3015 34.75 2.25 27.6985 2.25 19C2.25 10.3015 9.3015 3.25 18 3.25Z" fill="url(#paint1_linear_4767_2231)"/>
<path fill-rule="evenodd" clip-rule="evenodd" d="M17.9998 3.24976C9.30126 3.24976 2.24976 10.3013 2.24976 18.9998C2.24976 27.6983 9.30126 34.7498 17.9998 34.7498C26.6983 34.7498 33.7498 27.6983 33.7498 18.9998C33.7498 10.3013 26.6983 3.24976 17.9998 3.24976ZM17.9998 7.74976C20.9833 7.74976 23.8453 8.93505 25.9549 11.0447C28.0645 13.1543 29.2498 16.0163 29.2498 18.9998C29.2498 21.9833 28.0645 24.8453 25.9549 26.9549C23.8453 29.0645 20.9833 30.2498 17.9998 30.2498C15.0163 30.2498 12.1543 29.0645 10.0447 26.9549C7.93505 24.8453 6.74976 21.9833 6.74976 18.9998C6.74976 16.0163 7.93505 13.1543 10.0447 11.0447C12.1543 8.93505 15.0163 7.74976 17.9998 7.74976Z" fill="url(#paint2_linear_4767_2231)"/>
<path fill-rule="evenodd" clip-rule="evenodd" d="M12.8235 18.9794L13.5435 23.2499C13.611 23.9249 14.2185 24.3974 14.826 24.3974H21.1035C21.7785 24.3974 22.3185 23.9249 22.4535 23.2499L23.1735 18.9794C23.2464 18.9916 23.322 18.9974 23.3985 18.9974C23.5758 18.9974 23.7514 18.9625 23.9152 18.8946C24.0789 18.8268 24.2278 18.7274 24.3531 18.602C24.4785 18.4766 24.5779 18.3278 24.6458 18.164C24.7136 18.0002 24.7485 17.8247 24.7485 17.6474C24.7485 17.4701 24.7136 17.2946 24.6458 17.1308C24.5779 16.967 24.4785 16.8182 24.3531 16.6928C24.2278 16.5675 24.0789 16.468 23.9152 16.4002C23.7514 16.3323 23.5758 16.2974 23.3985 16.2974C23.0405 16.2974 22.6971 16.4396 22.4439 16.6928C22.1908 16.946 22.0485 17.2894 22.0485 17.6474C22.0485 17.8247 22.0827 17.9939 22.1448 18.1487L20.0235 18.9974L18.6024 16.1552C18.8746 16.0193 19.0929 15.7954 19.222 15.5199C19.351 15.2443 19.3831 14.9333 19.3132 14.6372C19.2433 14.3411 19.0754 14.0773 18.8368 13.8886C18.5982 13.6998 18.3028 13.5972 17.9985 13.5974C17.6943 13.5972 17.3989 13.6998 17.1603 13.8886C16.9216 14.0773 16.7538 14.3411 16.6838 14.6372C16.6139 14.9333 16.6461 15.2443 16.7751 15.5199C16.9041 15.7954 17.1224 16.0193 17.3946 16.1552L15.9735 18.9974L13.8522 18.1487C13.9143 17.9939 13.9485 17.8247 13.9485 17.6474C13.9485 17.2894 13.8063 16.946 13.5531 16.6928C13.3 16.4396 12.9566 16.2974 12.5985 16.2974C12.2405 16.2974 11.8971 16.4396 11.6439 16.6928C11.3908 16.946 11.2485 17.2894 11.2485 17.6474C11.2485 18.0055 11.3908 18.3488 11.6439 18.602C11.8971 18.8552 12.2405 18.9974 12.5985 18.9974C12.675 18.9974 12.7502 18.9911 12.8235 18.9794Z" fill="#323232"/>
</g>
</g>
<defs>
<linearGradient id="paint0_linear_4767_2231" x1="17.999" y1="7.74902" x2="17.999" y2="30.2144" gradientUnits="userSpaceOnUse">
<stop stop-color="white" stop-opacity="0.1"/>
<stop offset="1" stop-opacity="0.098"/>
</linearGradient>
<linearGradient id="paint1_linear_4767_2231" x1="18" y1="1" x2="17.8808" y2="37" gradientUnits="userSpaceOnUse">
<stop stop-color="white" stop-opacity="0.1"/>
<stop offset="1" stop-opacity="0.098"/>
</linearGradient>
<linearGradient id="paint2_linear_4767_2231" x1="17.9998" y1="34.6463" x2="17.9998" y2="3.24976" gradientUnits="userSpaceOnUse">
<stop stop-color="white" stop-opacity="0.1"/>
<stop offset="1" stop-opacity="0.098"/>
</linearGradient>
<clipPath id="clip0_4767_2231">
<rect width="36" height="36" fill="white" transform="translate(0 0.878906)"/>
</clipPath>
</defs>
</svg>
