<svg width="37" height="37" viewBox="0 0 37 37" fill="none" xmlns="http://www.w3.org/2000/svg">
<g clip-path="url(#clip0_4767_2232)">
<mask id="mask0_4767_2232" style="mask-type:luminance" maskUnits="userSpaceOnUse" x="0" y="0" width="37" height="37">
<path d="M0.878906 0.878906H36.8789V36.8789H0.878906V0.878906Z" fill="white"/>
</mask>
<g mask="url(#mask0_4767_2232)">
<path d="M19 37C28.9411 37 37 28.9411 37 19C37 9.05887 28.9411 1 19 1C9.05887 1 1 9.05887 1 19C1 28.9411 9.05887 37 19 37Z" fill="white"/>
<path fill-rule="evenodd" clip-rule="evenodd" d="M18.999 7.74902C12.7859 7.74902 7.74902 12.7859 7.74902 18.999C7.74902 25.2122 12.7859 30.249 18.999 30.249C25.2122 30.249 30.249 25.2122 30.249 18.999C30.249 12.7859 25.2122 7.74902 18.999 7.74902ZM18.999 9.99902C23.9697 9.99902 27.999 14.0283 27.999 18.999C27.999 23.9697 23.9697 27.999 18.999 27.999C14.0283 27.999 9.99902 23.9697 9.99902 18.999C9.99902 14.0283 14.0283 9.99902 18.999 9.99902Z" fill="url(#paint0_linear_4767_2232)"/>
<path fill-rule="evenodd" clip-rule="evenodd" d="M18.9988 9.99878C14.0281 9.99878 9.99878 14.0281 9.99878 18.9988C9.99878 23.9695 14.0281 27.9988 18.9988 27.9988C23.9695 27.9988 27.9988 23.9695 27.9988 18.9988C27.9988 14.0281 23.9695 9.99878 18.9988 9.99878ZM18.9988 12.2488C22.7266 12.2488 25.7488 15.271 25.7488 18.9988C25.7488 22.7266 22.7266 25.7488 18.9988 25.7488C15.271 25.7488 12.2488 22.7266 12.2488 18.9988C12.2488 15.271 15.271 12.2488 18.9988 12.2488Z" fill="url(#paint1_linear_4767_2232)"/>
<path fill-rule="evenodd" clip-rule="evenodd" d="M18.998 14.498C17.8046 14.498 16.66 14.9722 15.8161 15.8161C14.9722 16.66 14.498 17.8046 14.498 18.998C14.498 20.1915 14.9722 21.3361 15.8161 22.18C16.66 23.0239 17.8046 23.498 18.998 23.498C20.1915 23.498 21.3361 23.0239 22.18 22.18C23.0239 21.3361 23.498 20.1915 23.498 18.998C23.498 17.8046 23.0239 16.66 22.18 15.8161C21.3361 14.9722 20.1915 14.498 18.998 14.498ZM18.998 16.748C19.5948 16.748 20.1671 16.9851 20.589 17.4071C21.011 17.829 21.248 18.4013 21.248 18.998C21.248 19.5948 21.011 20.1671 20.589 20.589C20.1671 21.011 19.5948 21.248 18.998 21.248C18.4013 21.248 17.829 21.011 17.4071 20.589C16.9851 20.1671 16.748 19.5948 16.748 18.998C16.748 18.4013 16.9851 17.829 17.4071 17.4071C17.829 16.9851 18.4013 16.748 18.998 16.748Z" fill="url(#paint2_linear_4767_2232)"/>
<path fill-rule="evenodd" clip-rule="evenodd" d="M19 1C14.2255 1 9.64765 2.8963 6.2722 6.2722C2.89675 9.6481 1 14.2255 1 19C1 23.7745 2.8963 28.3523 6.2722 31.7278C9.6481 35.1032 14.2255 37 19 37C23.7745 37 28.3523 35.1037 31.7278 31.7278C35.1032 28.3519 37 23.7745 37 19C37 14.2255 35.1037 9.64765 31.7278 6.2722C28.3519 2.89675 23.7745 1 19 1ZM19 3.25C27.6985 3.25 34.75 10.3015 34.75 19C34.75 27.6985 27.6985 34.75 19 34.75C10.3015 34.75 3.25 27.6985 3.25 19C3.25 10.3015 10.3015 3.25 19 3.25Z" fill="url(#paint3_linear_4767_2232)"/>
<path fill-rule="evenodd" clip-rule="evenodd" d="M18.9998 3.24976C10.3013 3.24976 3.24976 10.3013 3.24976 18.9998C3.24976 27.6983 10.3013 34.7498 18.9998 34.7498C27.6983 34.7498 34.7498 27.6983 34.7498 18.9998C34.7498 10.3013 27.6983 3.24976 18.9998 3.24976ZM18.9998 7.74976C21.9833 7.74976 24.8453 8.93505 26.9549 11.0447C29.0645 13.1543 30.2498 16.0163 30.2498 18.9998C30.2498 21.9833 29.0645 24.8453 26.9549 26.9549C24.8453 29.0645 21.9833 30.2498 18.9998 30.2498C16.0163 30.2498 13.1543 29.0645 11.0447 26.9549C8.93505 24.8453 7.74976 21.9833 7.74976 18.9998C7.74976 16.0163 8.93505 13.1543 11.0447 11.0447C13.1543 8.93505 16.0163 7.74976 18.9998 7.74976Z" fill="url(#paint4_linear_4767_2232)"/>
<path d="M18.9978 21.2478C20.2404 21.2478 21.2478 20.2404 21.2478 18.9978C21.2478 17.7552 20.2404 16.7478 18.9978 16.7478C17.7552 16.7478 16.7478 17.7552 16.7478 18.9978C16.7478 20.2404 17.7552 21.2478 18.9978 21.2478Z" fill="url(#paint5_linear_4767_2232)"/>
<path fill-rule="evenodd" clip-rule="evenodd" d="M18.9985 12.2485C17.2083 12.2485 15.4914 12.9597 14.2256 14.2256C12.9597 15.4914 12.2485 17.2083 12.2485 18.9985C12.2485 20.7887 12.9597 22.5056 14.2256 23.7715C15.4914 25.0374 17.2083 25.7485 18.9985 25.7485C20.7887 25.7485 22.5056 25.0374 23.7715 23.7715C25.0374 22.5056 25.7485 20.7887 25.7485 18.9985C25.7485 17.2083 25.0374 15.4914 23.7715 14.2256C22.5056 12.9597 20.7887 12.2485 18.9985 12.2485ZM18.9985 14.4985C20.192 14.4985 21.3366 14.9726 22.1805 15.8166C23.0244 16.6605 23.4985 17.8051 23.4985 18.9985C23.4985 20.192 23.0244 21.3366 22.1805 22.1805C21.3366 23.0244 20.192 23.4985 18.9985 23.4985C17.8051 23.4985 16.6605 23.0244 15.8166 22.1805C14.9726 21.3366 14.4985 20.192 14.4985 18.9985C14.4985 17.8051 14.9726 16.6605 15.8166 15.8166C16.6605 14.9726 17.8051 14.4985 18.9985 14.4985Z" fill="url(#paint6_linear_4767_2232)"/>
</g>
</g>
<defs>
<linearGradient id="paint0_linear_4767_2232" x1="18.999" y1="7.74902" x2="18.999" y2="30.2144" gradientUnits="userSpaceOnUse">
<stop stop-color="white" stop-opacity="0.1"/>
<stop offset="1" stop-opacity="0.098"/>
</linearGradient>
<linearGradient id="paint1_linear_4767_2232" x1="18.9988" y1="28.0339" x2="18.9988" y2="9.99878" gradientUnits="userSpaceOnUse">
<stop stop-color="white" stop-opacity="0.2"/>
<stop offset="1" stop-opacity="0.098"/>
</linearGradient>
<linearGradient id="paint2_linear_4767_2232" x1="18.998" y1="23.6344" x2="18.998" y2="14.498" gradientUnits="userSpaceOnUse">
<stop stop-color="white" stop-opacity="0.1"/>
<stop offset="1" stop-opacity="0.098"/>
</linearGradient>
<linearGradient id="paint3_linear_4767_2232" x1="19" y1="1" x2="18.8808" y2="37" gradientUnits="userSpaceOnUse">
<stop stop-color="white" stop-opacity="0.1"/>
<stop offset="1" stop-opacity="0.098"/>
</linearGradient>
<linearGradient id="paint4_linear_4767_2232" x1="18.9998" y1="34.6463" x2="18.9998" y2="3.24976" gradientUnits="userSpaceOnUse">
<stop stop-color="white" stop-opacity="0.1"/>
<stop offset="1" stop-opacity="0.098"/>
</linearGradient>
<linearGradient id="paint5_linear_4767_2232" x1="18.9978" y1="16.7177" x2="18.9978" y2="20.6871" gradientUnits="userSpaceOnUse">
<stop stop-color="white" stop-opacity="0.1"/>
<stop offset="1" stop-opacity="0.098"/>
</linearGradient>
<linearGradient id="paint6_linear_4767_2232" x1="18.9985" y1="12.2485" x2="18.9985" y2="25.5658" gradientUnits="userSpaceOnUse">
<stop stop-color="white" stop-opacity="0.1"/>
<stop offset="1" stop-opacity="0.098"/>
</linearGradient>
<clipPath id="clip0_4767_2232">
<rect width="36" height="36" fill="white" transform="translate(0.878906 0.878906)"/>
</clipPath>
</defs>
</svg>
