<svg width="109" height="108" viewBox="0 0 109 108" fill="none" xmlns="http://www.w3.org/2000/svg">
<circle cx="54.5" cy="54" r="54" fill="#AEAEB2" fill-opacity="0.1"/>
<path fill-rule="evenodd" clip-rule="evenodd" d="M22.2578 97.3242V49.4922C22.2578 43.9693 26.735 39.4922 32.2578 39.4922H76.7354C82.2583 39.4922 86.7354 43.9693 86.7354 49.4922V97.3242C77.7381 104.03 66.5809 108 54.4966 108C42.4123 108 31.2552 104.03 22.2578 97.3242Z" fill="white"/>
<path fill-rule="evenodd" clip-rule="evenodd" d="M21.5078 96.755V49.4922C21.5078 43.5551 26.3208 38.7422 32.2578 38.7422H76.7354C82.6725 38.7422 87.4854 43.5551 87.4854 49.4922V96.755C86.9921 97.1362 86.4921 97.509 85.9854 97.8733V49.4922C85.9854 44.3836 81.8441 40.2422 76.7354 40.2422H32.2578C27.1492 40.2422 23.0078 44.3836 23.0078 49.4922V97.8733C22.5012 97.509 22.0011 97.1362 21.5078 96.755Z" fill="black"/>
<g clip-path="url(#clip0_38324_165216)">
<path d="M58.2637 78.6328L48.1621 97.9355L43.8789 90.0352L43.7217 89.7451L43.3926 89.7764L34.5332 90.6064L44.6367 71.2969L58.2637 78.6328Z" fill="white" stroke="#2A2A2A"/>
<path d="M74.4648 90.6064L65.6055 89.7764L65.2764 89.7451L65.1191 90.0352L60.835 97.9355L50.7344 78.6328L64.3604 71.2969L74.4648 90.6064Z" fill="white" stroke="#2A2A2A"/>
<path d="M54.4951 49.5C64.1459 49.5003 71.9814 57.4382 71.9814 67.2451C71.9814 77.052 64.1459 84.99 54.4951 84.9902C44.8441 84.9902 37.0078 77.0522 37.0078 67.2451C37.0078 57.438 44.8441 49.5 54.4951 49.5Z" fill="white" stroke="#2A2A2A"/>
<path d="M54.4961 54.7227C61.293 54.7229 66.8348 60.3356 66.835 67.2461C66.835 74.1566 61.2931 79.7683 54.4961 79.7686C47.699 79.7686 42.1564 74.1558 42.1562 67.2451C42.1562 60.3344 47.6988 54.7227 54.4961 54.7227Z" fill="white" stroke="#2A2A2A"/>
<path d="M56.2695 65.1895L56.3818 65.5352H62.4707L57.8389 68.9004L57.5449 69.1143L57.6572 69.46L59.4258 74.9053L54.7939 71.54L54.5 71.3262L54.2061 71.54L49.5732 74.9053L51.3428 69.46L51.4551 69.1143L51.1611 68.9004L46.5293 65.5352H52.6182L52.7305 65.1895L54.5 59.7422L56.2695 65.1895Z" fill="white" stroke="#34C759"/>
</g>
<rect x="73" y="32.5" width="19" height="19" rx="9.5" fill="white"/>
<rect x="73" y="32.5" width="19" height="19" rx="9.5" stroke="#34C759"/>
<path d="M80.4729 38.3856V39.8757C80.4729 40.0153 80.5863 40.1301 80.7274 40.1301C80.867 40.1301 80.9819 40.0167 80.9819 39.8757V38.3856C80.9819 37.3505 81.8239 36.5088 82.8594 36.5088C83.2288 36.5088 83.5734 36.6164 83.8643 36.801C84.3893 37.1339 84.7383 37.7198 84.7383 38.3856V39.8757C84.7383 40.0153 84.8517 40.1301 84.9928 40.1301C85.1339 40.1301 85.2473 40.0167 85.2473 39.8757V38.3856C85.2473 37.5526 84.8183 36.8199 84.1697 36.3925C83.793 36.1454 83.3436 36 82.8608 36C81.5433 36 80.4729 37.07 80.4729 38.3856Z" fill="#34C759"/>
<path d="M85.9628 40.4267H79.7545C79.6149 40.4267 79.5 40.5401 79.5 40.6811V46.8858C79.5 47.0253 79.6134 47.1402 79.7545 47.1402H85.9628C86.1024 47.1402 86.2173 47.0268 86.2173 46.8858V40.6797C86.2173 40.5416 86.1024 40.4267 85.9628 40.4267ZM85.7083 46.6328H80.009V40.9356H85.7083V46.6328Z" fill="#34C759"/>
<path d="M82.6049 44.1484V45.2358C82.6049 45.3753 82.7183 45.4902 82.8594 45.4902C83.0005 45.4902 83.1139 45.3768 83.1139 45.2358V44.1484C83.6302 44.0321 84.017 43.5712 84.017 43.0202C84.017 42.382 83.4978 41.8631 82.8594 41.8631C82.221 41.8631 81.7018 42.382 81.7018 43.0202C81.7018 43.5712 82.0886 44.0321 82.6049 44.1484ZM82.8594 42.3704C83.2172 42.3704 83.5095 42.6612 83.5095 43.0202C83.5095 43.3779 83.2186 43.6701 82.8594 43.6701C82.5002 43.6701 82.2093 43.3793 82.2093 43.0202C82.2093 42.6626 82.5017 42.3704 82.8594 42.3704Z" fill="#34C759"/>
<defs>
<clipPath id="clip0_38324_165216">
<rect width="50" height="50" fill="white" transform="translate(29.5 49)"/>
</clipPath>
</defs>
</svg>
