<svg width="108" height="108" viewBox="0 0 108 108" fill="none" xmlns="http://www.w3.org/2000/svg">
<circle cx="54" cy="54" r="54" fill="#AEAEB2" fill-opacity="0.1"/>
<path fill-rule="evenodd" clip-rule="evenodd" d="M21.7612 97.3242V49.4922C21.7612 43.9693 26.2384 39.4922 31.7612 39.4922H76.2388C81.7617 39.4922 86.2388 43.9693 86.2388 49.4922V97.3242C77.2415 104.03 66.0843 108 54 108C41.9158 108 30.7586 104.03 21.7612 97.3242Z" fill="white"/>
<path fill-rule="evenodd" clip-rule="evenodd" d="M21.0112 96.755V49.4922C21.0112 43.5551 25.8242 38.7422 31.7612 38.7422H76.2388C82.1759 38.7422 86.9888 43.5551 86.9888 49.4922V96.755C86.4956 97.1362 85.9955 97.509 85.4888 97.8733V49.4922C85.4888 44.3836 81.3475 40.2422 76.2388 40.2422H31.7612C26.6526 40.2422 22.5112 44.3836 22.5112 49.4922V97.8733C22.0046 97.509 21.5045 97.1362 21.0112 96.755Z" fill="black"/>
<path fill-rule="evenodd" clip-rule="evenodd" d="M55.478 68.3945L64.4461 59.4481C64.7068 59.1881 65.1289 59.1886 65.389 59.4493C65.649 59.7099 65.6485 60.132 65.3878 60.3921L56.4208 69.3373L61.6177 74.5342C62.1384 75.0549 62.1384 75.8991 61.6177 76.4198L53.1324 84.9051L39.9331 71.7058L48.4184 63.2205C48.9391 62.6998 49.7833 62.6998 50.304 63.2205L55.478 68.3945ZM49.3612 64.1633L41.8187 71.7058L45.59 75.477L49.3612 71.7058L50.304 72.6486L46.5328 76.4198L48.4184 78.3054L52.1896 74.5342L53.1324 75.477L49.3612 79.2482L53.1324 83.0195L60.6749 75.477L49.3612 64.1633Z" fill="black"/>
<path fill-rule="evenodd" clip-rule="evenodd" d="M66.3332 82.0002C66.3332 82.3684 66.0347 82.6668 65.6665 82.6668H60.3332C59.965 82.6668 59.6665 82.3684 59.6665 82.0002C59.6665 81.632 59.965 81.3335 60.3332 81.3335H65.6665C66.0347 81.3335 66.3332 81.632 66.3332 82.0002Z" fill="#34C759"/>
<path fill-rule="evenodd" clip-rule="evenodd" d="M65.0002 84.6667C65.0002 85.0349 64.7017 85.3333 64.3335 85.3333H59.0002C58.632 85.3333 58.3335 85.0349 58.3335 84.6667C58.3335 84.2985 58.632 84 59.0002 84H64.3335C64.7017 84 65.0002 84.2985 65.0002 84.6667Z" fill="black"/>
</svg>
