<svg width="131" height="92" viewBox="0 0 131 92" fill="none" xmlns="http://www.w3.org/2000/svg">
<path d="M0.948578 28.8443C9.78902 14.6805 21.668 2.33312 45.0068 1.00006C73.9811 -0.654879 104.01 7.44848 118.26 34.6233C126.091 49.5561 120.913 61.7838 127.815 76.6523C136.839 96.0907 123.87 121.509 110.298 134.442C101.655 142.678 21.8356 152.864 -2.23651 137.594C-23.7764 123.931 -24 97.1414 -24 76.6523C-24 56.1631 -7.89186 43.0082 0.948578 28.8443Z" fill="#AEAEB2" fill-opacity="0.1"/>
<path d="M25.1714 70.9578L-1.11667 133.052C-1.39582 133.711 -0.911815 134.442 -0.195796 134.442H108.218C108.945 134.442 109.429 133.692 109.129 133.03L81.0651 70.9358C80.9033 70.5778 80.5468 70.3477 80.1539 70.3477H26.0923C25.6906 70.3477 25.328 70.5879 25.1714 70.9578Z" stroke="#34C759"/>
<path d="M31.1632 75.1594L10.5644 123.594C10.2839 124.254 10.7679 124.986 11.4846 124.986H96.5368C97.2639 124.986 97.748 124.234 97.4474 123.572L75.4567 75.1374C75.2946 74.7802 74.9385 74.5508 74.5462 74.5508H32.0834C31.6824 74.5508 31.3202 74.7904 31.1632 75.1594Z" stroke="white"/>
<path d="M28.0207 64.0435H20.563C20.1518 64.0435 19.7826 64.2951 19.6322 64.6777L17.4043 70.3478" stroke="#34C759" stroke-linecap="round"/>
<path d="M76.8562 64.0435H84.314C84.7251 64.0435 85.0944 64.2951 85.2447 64.6777L87.4727 70.3478" stroke="#34C759" stroke-linecap="round"/>
<path d="M61.7726 28.5324C62.3769 28.927 62.3769 29.8123 61.7726 30.2069L53.4542 35.6392C52.7891 36.0735 51.9074 35.5963 51.9074 34.8019L51.9074 23.9374C51.9074 23.143 52.7891 22.6658 53.4542 23.1001L61.7726 28.5324Z" fill="#34C759"/>
<path d="M53.576 44.0796L52.4385 46.181H57.7467L56.6092 44.0796" stroke="white" stroke-linecap="round" stroke-linejoin="round"/>
<rect x="31.7051" y="18.3115" width="46.774" height="22.1159" rx="2.5" stroke="white" stroke-linecap="round"/>
<path d="M49.2539 16.7611V14.4686C49.2539 14.182 49.4928 13.6089 50.4483 13.6089C51.4037 13.6089 51.6426 14.182 51.6426 14.4686V15.6148H59.6049V14.4686C59.6049 14.182 60.003 13.6089 60.7993 13.6089C61.5955 13.6089 61.9936 14.182 61.9936 14.4686V16.7611" stroke="white" stroke-linecap="round"/>
<path d="M49.2539 41.9783V45.0349C49.2539 45.417 49.4928 46.1812 50.4483 46.1812C51.4037 46.1812 51.6426 45.417 51.6426 45.0349V43.5066H59.6049V45.0349C59.6049 45.417 60.003 46.1812 60.7993 46.1812C61.5955 46.1812 61.9936 45.417 61.9936 45.0349V41.9783" stroke="white" stroke-linecap="round"/>
<path d="M36.5137 18.8623V39.8768" stroke="white" stroke-linecap="round"/>
<path d="M34.3906 27.2681V33.5724" stroke="white" stroke-linecap="round"/>
<ellipse cx="33.8599" cy="25.6919" rx="0.530823" ry="0.525363" fill="white"/>
<rect x="74.9978" y="26.4827" width="0.530819" height="5.77353" stroke="white" stroke-width="0.530819" stroke-linecap="round"/>
<rect x="52.9385" y="46.6812" width="4.30822" height="5.30435" rx="0.5" stroke="white" stroke-linecap="round" stroke-linejoin="round"/>
<path d="M53.5 53.5361V65.0941" stroke="white" stroke-linecap="round"/>
<path d="M56.6846 53.5361V65.0941" stroke="white" stroke-linecap="round"/>
<line x1="27.459" y1="83.5073" x2="75.2946" y2="83.5073" stroke="white" stroke-linecap="round"/>
<line x1="0.5" y1="-0.5" x2="46.5083" y2="-0.5" transform="matrix(-0.266986 0.9637 -0.965095 -0.261901 43.6953 75.0278)" stroke="white" stroke-linecap="round"/>
<line x1="56.123" y1="75.0508" x2="56.123" y2="101.37" stroke="white" stroke-linecap="round"/>
<line x1="0.5" y1="-0.5" x2="17.0822" y2="-0.5" transform="matrix(0.293927 0.955828 -0.957505 0.288417 66.5811 75.0278)" stroke="white" stroke-linecap="round"/>
</svg>
