<svg width="220" height="140" viewBox="0 0 220 140" fill="none" xmlns="http://www.w3.org/2000/svg">
    <path d="M71 48L71 69" stroke="#0F0F0F" stroke-linecap="round"/>
    <rect x="155.5" y="47.5" width="7" height="19" stroke="#0F0F0F" stroke-linecap="round"/>
    <path d="M96 21.6162C96 20.7236 96.7236 20 97.6162 20H134.384C135.276 20 136 20.7236 136 21.6162V58.3838C136 59.2764 135.276 60 134.384 60H97.6162C96.7236 60 96 59.2764 96 58.3838V21.6162Z" fill="#050505"/>
    <path fill-rule="evenodd" clip-rule="evenodd" d="M102.06 24.4443C101.39 24.4443 100.848 24.987 100.848 25.6565V30.3029H102.633V26.634C102.633 26.4108 102.814 26.2299 103.037 26.2299H106.706V24.4443H102.06Z" fill="white"/>
    <path fill-rule="evenodd" clip-rule="evenodd" d="M130.748 24.4443H126.102V26.2299H129.771C129.994 26.2299 130.175 26.4108 130.175 26.634V30.3029H131.96V25.6565C131.96 24.987 131.417 24.4443 130.748 24.4443Z" fill="white"/>
    <path fill-rule="evenodd" clip-rule="evenodd" d="M131.96 49.6973H130.175V53.3401C130.175 53.5632 129.994 53.7441 129.771 53.7441H126.102V55.5558H130.748C131.417 55.5558 131.96 55.0132 131.96 54.3437V49.6973Z" fill="white"/>
    <path fill-rule="evenodd" clip-rule="evenodd" d="M102.633 49.6973H100.848V54.3437C100.848 55.0132 101.39 55.5558 102.06 55.5558H106.706V53.7441H103.037C102.814 53.7441 102.633 53.5632 102.633 53.3401V49.6973Z" fill="white"/>
    <path fill-rule="evenodd" clip-rule="evenodd" d="M117.89 36.7537C118.856 36.1109 119.496 34.9896 119.496 33.7138C119.496 31.7186 117.931 30.1011 116 30.1011C114.069 30.1011 112.503 31.7186 112.503 33.7138C112.503 35.0005 113.154 36.13 114.134 36.7701C113.603 36.8741 113.202 37.3425 113.202 37.9046C113.202 38.3479 113.451 38.733 113.817 38.927L113.818 39.0465C113.82 39.7878 113.826 41.3988 113.279 42.7055C112.817 43.8078 112.074 44.5886 111.664 44.8412H111.664V45.0205C111.664 46.1082 112.243 47.0607 113.109 47.5868H111.545C110.993 47.5868 110.545 48.0345 110.545 48.5868V48.8989C110.545 49.4512 110.993 49.8989 111.545 49.8989H120.454C121.006 49.8989 121.454 49.4512 121.454 48.8989V48.5868C121.454 48.0345 121.006 47.5868 120.454 47.5868H118.89C119.756 47.0607 120.335 46.1082 120.335 45.0205V44.8412H120.334C119.924 44.5886 119.181 43.8078 118.719 42.7055C118.172 41.3988 118.178 39.7878 118.18 39.0465C118.18 39.0268 118.181 39.0078 118.181 38.9893C118.622 38.8264 118.936 38.4022 118.936 37.9046C118.936 37.3033 118.477 36.8092 117.89 36.7537Z" fill="white"/>
    <path d="M76.9825 94L52 106.325L116.281 139L180 106.325L157.263 94" stroke="#34C759"/>
    <path d="M89.1754 97L72 105.49L116.193 128L160 105.49L144.368 97" stroke="#2A2A2A"/>
    <path d="M96 117L134.5 96" stroke="#050505"/>
    <path d="M138.5 115.5L100 95" stroke="#050505"/>
    <path d="M88.5 26H70C65.5817 26 62 29.5817 62 34V79C62 83.4183 65.5817 87 70 87H163C167.418 87 171 83.4183 171 79V34C171 29.5817 167.418 26 163 26H142.5" stroke="#050505" stroke-linecap="round"/>
    <circle cx="71" cy="44" r="0.5" stroke="#050505"/>
    <path d="M37.7424 103.765L1.00008 124.978" stroke="#AEAEB2" stroke-linecap="round"/>
    <path d="M39.9149 118.84L19.0942 130.861" stroke="#AEAEB2" stroke-linecap="round"/>
    <path d="M182.173 31.4967L218.915 10.2835" stroke="#AEAEB2" stroke-linecap="round"/>
    <path d="M180 16.4209L200.821 4.40006" stroke="#AEAEB2" stroke-linecap="round"/>
    </svg>