<svg width="25" height="24" viewBox="0 0 25 24" fill="none" xmlns="http://www.w3.org/2000/svg">
<path d="M11.75 2V5H13.75V2H11.75Z" fill="white"/>
<path fill-rule="evenodd" clip-rule="evenodd" d="M12.75 6C9.44221 6 6.75 8.6664 6.75 11.9687C6.75 13.7273 7.51676 15.371 8.75 16.4786V22H16.75V16.4786C17.9832 15.371 18.75 13.7273 18.75 11.9687C18.75 8.6664 16.0578 6 12.75 6ZM8.75 11.9687C8.75 9.78277 10.5349 8 12.75 8C14.9651 8 16.75 9.78277 16.75 11.9687C16.75 13.2775 16.1144 14.4867 15.1518 15.2052L14.75 15.5052V20H10.75V15.5052L10.3482 15.2052C9.3856 14.4867 8.75 13.2775 8.75 11.9687Z" fill="white"/>
<path d="M17.0429 6.29289L19.0429 4.29289L20.4571 5.7071L18.4571 7.7071L17.0429 6.29289Z" fill="white"/>
<path d="M5.04289 5.7071L7.04289 7.7071L8.4571 6.29289L6.4571 4.29289L5.04289 5.7071Z" fill="white"/>
<path d="M19.75 11H22.75V13H19.75V11Z" fill="white"/>
<path d="M2.75 13H5.75V11H2.75V13Z" fill="white"/>
</svg>
