<svg width="24" height="24" viewBox="0 0 24 24" fill="none" xmlns="http://www.w3.org/2000/svg">
<path fill-rule="evenodd" clip-rule="evenodd" d="M12 22C17.5228 22 22 17.5228 22 12C22 6.47715 17.5228 2 12 2C6.47715 2 2 6.47715 2 12C2 17.5228 6.47715 22 12 22ZM11.1667 7.55542C11.1667 7.09518 11.5398 6.72209 12 6.72209H12.0111C12.4713 6.72209 12.8444 7.09518 12.8444 7.55542C12.8444 8.01566 12.4713 8.38875 12.0111 8.38875H12C11.5398 8.38875 11.1667 8.01566 11.1667 7.55542ZM10.8888 11.1667C10.4285 11.1667 10.0554 11.5398 10.0554 12C10.0554 12.4602 10.4285 12.8333 10.8888 12.8333H11.1665V16.4444C11.1665 16.9047 11.5396 17.2778 11.9999 17.2778H13.111C13.5712 17.2778 13.9443 16.9047 13.9443 16.4444C13.9443 15.9842 13.5712 15.6111 13.111 15.6111H12.8332V12C12.8332 11.5398 12.4601 11.1667 11.9999 11.1667H10.8888Z" fill="white"/>
</svg>
