<svg width="25" height="32" viewBox="0 0 25 32" fill="none" xmlns="http://www.w3.org/2000/svg">
<path d="M12.5 28.7992C7.24588 28.7992 4.57921 27.9303 4.5 26.1925C4.36799 23.8063 3.95875 22.0037 3.27228 20.7846C2.98185 20.2918 2.57261 19.6953 2.04456 18.995C1.14687 17.8278 0.645218 16.8422 0.539608 16.0381C0.513204 15.8306 0.5 15.6102 0.5 15.3767C0.5 13.7427 1.19967 12.4588 2.59901 11.5251C2.94225 11.3176 3.29868 11.149 3.66832 11.0193C5.06766 10.5265 6.45379 10.6043 7.82673 11.2527C8.32838 11.4861 8.83003 11.7974 9.33168 12.1865L9.37129 12.2254C9.37129 11.6807 9.39769 11.0971 9.4505 10.4746C9.4505 10.293 9.5429 10.0466 9.72772 9.73539C10.1502 9.06103 10.6518 8.52931 11.2327 8.14026C11.3383 8.08838 11.4439 8.02353 11.5495 7.94573V7.01199L9.92574 6.07825V4.67765H11.3911L11.9059 3.19922H13.0941L13.6089 4.67765H15.0743V6.07825L13.4505 7.01199V7.94573C14.8234 8.80165 15.5231 9.65758 15.5495 10.5135C15.6023 11.0323 15.6287 11.6029 15.6287 12.2254L15.6683 12.1865C17.3317 10.8118 19.0743 10.3709 20.896 10.8637C21.3713 10.9933 21.8201 11.1879 22.2426 11.4472C23.7211 12.3291 24.4736 13.6389 24.5 15.3767C24.5 16.4142 23.9719 17.6462 22.9158 19.0728C22.0446 20.2659 21.5033 21.1348 21.2921 21.6795C20.8432 22.8466 20.5792 24.351 20.5 26.1925C20.4472 27.9303 17.7805 28.7992 12.5 28.7992Z" fill="white"/>
<path d="M13.5082 19.0431C13.5082 19.5114 13.1787 19.7456 12.5198 19.7456C11.7817 19.7456 11.4127 19.5114 11.4127 19.0431C11.4127 16.8838 10.6878 15.1277 9.23806 13.7748C7.94646 12.6301 6.6944 12.0578 5.48188 12.0578C3.68946 12.0578 2.56919 12.7602 2.12109 14.1651L1.96293 15.2187V15.2968C1.96293 16.3374 2.74053 17.7813 4.29572 19.6285C4.71746 20.0968 5.07331 20.461 5.36326 20.7212C5.78501 21.0594 6.48353 21.2285 7.45882 21.2285C8.48682 21.2285 10.1474 21.0334 12.4407 20.6431C14.7603 21.0334 16.4341 21.2285 17.4621 21.2285C18.4638 21.2285 19.1623 21.0594 19.5577 20.7212C20.6647 19.7586 21.5873 18.5878 22.3254 17.209C22.7471 16.4285 22.958 15.7911 22.958 15.2968C22.958 13.6578 22.2067 12.6301 20.7043 12.2139C20.3089 12.1098 19.8871 12.0578 19.439 12.0578C18.2265 12.0578 16.9876 12.6431 15.7224 13.8139C14.2463 15.1147 13.5082 16.8578 13.5082 19.0431ZM22.0881 15.2968C22.0881 16.3374 21.3633 17.5602 19.9135 18.9651L18.8855 19.8236L18.4901 20.0578C17.9893 20.1358 17.4621 20.1748 16.9086 20.1748C15.2743 20.1748 14.4572 19.8496 14.4572 19.1992C14.5099 17.196 15.1161 15.635 16.2759 14.5163C17.2776 13.5277 18.3056 13.0334 19.36 13.0334C20.7043 13.0334 21.561 13.5147 21.93 14.4773L22.0881 15.2968ZM18.332 25.209C18.332 24.5326 16.3946 24.1943 12.5198 24.1943C11.4654 24.1943 10.5297 24.2334 9.71252 24.3114L8.76359 24.3895C7.3402 24.5716 6.6285 24.8317 6.6285 25.17C6.6285 25.5602 6.98435 25.7553 7.69605 25.7553L12.4802 25.3651L17.2249 25.7553C17.9629 25.7553 18.332 25.5732 18.332 25.209ZM20.5461 26.1456C20.4934 27.9147 17.8048 28.7992 12.4802 28.7992C7.2084 28.7992 4.53295 27.9147 4.45387 26.1456C4.42751 24.4805 4.1771 22.9976 3.70264 21.6968C3.41269 20.9943 2.85914 20.0968 2.04201 19.0041C1.014 17.6252 0.5 16.4025 0.5 15.3358C0.5 13.6708 1.22488 12.383 2.67463 11.4724C3.49176 10.9521 4.40115 10.6919 5.4028 10.6919C6.77348 10.6919 8.07825 11.1862 9.31713 12.1748C9.31713 10.9781 9.43575 10.1586 9.67298 9.7163C9.8575 9.22198 10.4638 8.62361 11.4918 7.92117V7.02361L9.87068 6.048V4.64312H11.3336L11.8081 3.19922H13.1524L13.6664 4.64312H15.0898V6.048L13.5082 7.02361V7.92117C14.5099 8.64962 15.1293 9.27401 15.3666 9.79434L15.6433 10.926C15.6697 11.2382 15.696 11.6545 15.7224 12.1748C16.9613 11.1862 18.2397 10.6919 19.5577 10.6919C21.3237 10.6919 22.6944 11.3553 23.6697 12.6821C24.2232 13.4626 24.5 14.3472 24.5 15.3358C24.5 16.4025 23.986 17.6382 22.958 19.0431L22.0486 20.2919C21.0733 21.7488 20.5725 23.7 20.5461 26.1456ZM2.87232 15.2968C2.87232 14.2041 3.42586 13.5017 4.53295 13.1895C4.84926 13.0854 5.17875 13.0334 5.52142 13.0334C6.6285 13.0334 7.68287 13.5277 8.68452 14.5163C9.81796 15.661 10.411 17.222 10.4638 19.1992C10.4901 19.7716 9.88385 20.0968 8.64497 20.1748C8.46046 20.1748 8.26277 20.1748 8.05189 20.1748C7.52471 20.1748 6.98435 20.1358 6.43081 20.0578C5.56096 19.6415 4.6911 18.822 3.82125 17.5992C3.18863 16.6887 2.87232 15.9212 2.87232 15.2968Z" fill="#050505"/>
</svg>
