<svg width="25" height="32" viewBox="0 0 25 32" fill="none" xmlns="http://www.w3.org/2000/svg">
<path d="M12.5 28.7992C7.24588 28.7992 4.57921 27.9303 4.5 26.1925C4.36799 23.8063 3.95875 22.0037 3.27228 20.7846C2.98185 20.2918 2.57261 19.6953 2.04456 18.995C1.14687 17.8278 0.645218 16.8422 0.539608 16.0381C0.513204 15.8306 0.5 15.6102 0.5 15.3767C0.5 13.7427 1.19967 12.4588 2.59901 11.5251C2.94225 11.3176 3.29868 11.149 3.66832 11.0193C5.06766 10.5265 6.45379 10.6043 7.82673 11.2527C8.32838 11.4861 8.83003 11.7974 9.33168 12.1865L9.37129 12.2254C9.37129 11.6807 9.39769 11.0971 9.4505 10.4746C9.4505 10.293 9.5429 10.0466 9.72772 9.73539C10.1502 9.06103 10.6518 8.52931 11.2327 8.14026C11.3383 8.08838 11.4439 8.02353 11.5495 7.94573V7.01199L9.92574 6.07825V4.67765H11.3911L11.9059 3.19922H13.0941L13.6089 4.67765H15.0743V6.07825L13.4505 7.01199V7.94573C14.8234 8.80165 15.5231 9.65758 15.5495 10.5135C15.6023 11.0323 15.6287 11.6029 15.6287 12.2254L15.6683 12.1865C17.3317 10.8118 19.0743 10.3709 20.896 10.8637C21.3713 10.9933 21.8201 11.1879 22.2426 11.4472C23.7211 12.3291 24.4736 13.6389 24.5 15.3767C24.5 16.4142 23.9719 17.6462 22.9158 19.0728C22.0446 20.2659 21.5033 21.1348 21.2921 21.6795C20.8432 22.8466 20.5792 24.351 20.5 26.1925C20.4472 27.9303 17.7805 28.7992 12.5 28.7992Z" fill="white"/>
<path d="M12.5 28.7992C7.24588 28.7992 4.57921 27.9303 4.5 26.1925C4.36799 23.8063 3.95875 22.0037 3.27228 20.7846C2.98185 20.2918 2.57261 19.6953 2.04456 18.995C1.14687 17.8278 0.645218 16.8422 0.539608 16.0381C0.513204 15.8306 0.5 15.6102 0.5 15.3767C0.5 13.7427 1.19967 12.4588 2.59901 11.5251C2.94225 11.3176 3.29868 11.149 3.66832 11.0193C5.06766 10.5265 6.45379 10.6043 7.82673 11.2527C8.32838 11.4861 8.83003 11.7974 9.33168 12.1865L9.37129 12.2254C9.37129 11.6807 9.39769 11.0971 9.4505 10.4746C9.4505 10.293 9.5429 10.0466 9.72772 9.73539C10.1502 9.06103 10.6518 8.52931 11.2327 8.14026C11.3383 8.08838 11.4439 8.02353 11.5495 7.94573V7.01199L9.92574 6.07825V4.67765H11.3911L11.9059 3.19922H13.0941L13.6089 4.67765H15.0743V6.07825L13.4505 7.01199V7.94573C14.8234 8.80165 15.5231 9.65758 15.5495 10.5135C15.6023 11.0323 15.6287 11.6029 15.6287 12.2254L15.6683 12.1865C17.3317 10.8118 19.0743 10.3709 20.896 10.8637C21.3713 10.9933 21.8201 11.1879 22.2426 11.4472C23.7211 12.3291 24.4736 13.6389 24.5 15.3767C24.5 16.4142 23.9719 17.6462 22.9158 19.0728C22.0446 20.2659 21.5033 21.1348 21.2921 21.6795C20.8432 22.8466 20.5792 24.351 20.5 26.1925C20.4472 27.9303 17.7805 28.7992 12.5 28.7992ZM12.5 15.688L13.6485 13.8983C13.8333 13.5093 13.9785 13.1461 14.0842 12.8089C14.137 12.6274 14.1634 12.2513 14.1634 11.6807C14.1634 10.1504 13.6221 9.38524 12.5396 9.38524C11.4043 9.38524 10.8366 10.1504 10.8366 11.6807C10.8366 12.2513 10.863 12.6274 10.9158 12.8089C11.1271 13.5093 11.5759 14.3392 12.2624 15.2989C12.4208 15.4805 12.5 15.6102 12.5 15.688ZM23.0743 15.6102C23.0743 14.443 22.6782 13.5482 21.8861 12.9257C21.2261 12.381 20.4472 12.1086 19.5495 12.1086C18.4142 12.1086 17.1865 12.6793 15.8663 13.8205C14.3086 15.1433 13.4241 16.933 13.2129 19.1895C13.2129 19.3711 13.7013 19.5785 14.6782 19.812C15.8135 20.0195 17.7409 20.1232 20.4604 20.1232L22.2426 17.7889C22.797 16.9589 23.0743 16.2327 23.0743 15.6102ZM12.5 20.8624C11.8399 21.1478 9.83333 21.3942 6.4802 21.6016C5.97855 21.6276 5.56931 21.6535 5.25247 21.6795C5.51651 22.6651 5.68812 23.7544 5.76733 24.9475C7.58911 24.3769 9.83333 24.0916 12.5 24.0916C15.2195 24.0916 17.4637 24.3769 19.2327 24.9475C19.3119 23.6507 19.4835 22.5613 19.7475 21.6795L13.8861 21.2126C13.3845 21.1348 12.9224 21.0181 12.5 20.8624ZM1.92574 15.6102C1.92574 16.4142 2.57261 17.6333 3.86634 19.2673C4.18317 19.6564 4.40759 19.9417 4.5396 20.1232H5.25247C7.97195 20.1232 9.95215 19.9417 11.1931 19.5785C11.5891 19.4748 11.7871 19.3451 11.7871 19.1895C11.5759 16.933 10.6914 15.1433 9.13366 13.8205C7.83993 12.6793 6.61221 12.1086 5.45049 12.1086C5.08086 12.1086 4.68482 12.1865 4.26238 12.3421C3.20627 12.6014 2.4934 13.2888 2.12376 14.4041L1.92574 15.4545V15.6102ZM12.5 27.3986C14.9818 27.3986 16.698 27.243 17.6485 26.9317C17.8861 26.8539 18.005 26.7631 18.005 26.6594C18.005 25.985 16.1832 25.6478 12.5396 25.6478C11.1403 25.6478 9.78053 25.7386 8.4604 25.9202C7.4835 26.0758 6.99505 26.3222 6.99505 26.6594C6.99505 27.0485 8.55281 27.2949 11.6683 27.3986C11.9852 27.3986 12.2624 27.3986 12.5 27.3986Z" fill="#050505"/>
</svg>
