<svg width="25" height="33" viewBox="0 0 25 33" fill="none" xmlns="http://www.w3.org/2000/svg">
<path d="M12.5 29.7992C7.24588 29.7992 4.57921 28.9303 4.5 27.1925C4.36799 24.8063 3.95875 23.0037 3.27228 21.7846C2.98185 21.2918 2.57261 20.6953 2.04456 19.995C1.14687 18.8278 0.645218 17.8422 0.539608 17.0381C0.513204 16.8306 0.5 16.6102 0.5 16.3767C0.5 14.7427 1.19967 13.4588 2.59901 12.5251C2.94225 12.3176 3.29868 12.149 3.66832 12.0193C5.06766 11.5265 6.45379 11.6043 7.82673 12.2527C8.32838 12.4861 8.83003 12.7974 9.33168 13.1865L9.37129 13.2254C9.37129 12.6807 9.39769 12.0971 9.4505 11.4746C9.4505 11.293 9.5429 11.0466 9.72772 10.7354C10.1502 10.061 10.6518 9.52931 11.2327 9.14026C11.3383 9.08838 11.4439 9.02353 11.5495 8.94573V8.01199L9.92574 7.07825V5.67765H11.3911L11.9059 4.19922H13.0941L13.6089 5.67765H15.0743V7.07825L13.4505 8.01199V8.94573C14.8234 9.80165 15.5231 10.6576 15.5495 11.5135C15.6023 12.0323 15.6287 12.6029 15.6287 13.2254L15.6683 13.1865C17.3317 11.8118 19.0743 11.3709 20.896 11.8637C21.3713 11.9933 21.8201 12.1879 22.2426 12.4472C23.7211 13.3291 24.4736 14.6389 24.5 16.3767C24.5 17.4142 23.9719 18.6462 22.9158 20.0728C22.0446 21.2659 21.5033 22.1348 21.2921 22.6795C20.8432 23.8466 20.5792 25.351 20.5 27.1925C20.4472 28.9303 17.7805 29.7992 12.5 29.7992Z" fill="white"/>
<path d="M13.5082 20.0431C13.5082 20.5114 13.1787 20.7456 12.5198 20.7456C11.7817 20.7456 11.4127 20.5114 11.4127 20.0431C11.4127 17.8838 10.6878 16.1277 9.23806 14.7748C7.94646 13.6301 6.6944 13.0578 5.48188 13.0578C3.68946 13.0578 2.56919 13.7602 2.12109 15.1651L1.96293 16.2187V16.2968C1.96293 17.3374 2.74053 18.7813 4.29572 20.6285C4.71746 21.0968 5.07331 21.461 5.36326 21.7212C5.78501 22.0594 6.48353 22.2285 7.45882 22.2285C8.48682 22.2285 10.1474 22.0334 12.4407 21.6431C14.7603 22.0334 16.4341 22.2285 17.4621 22.2285C18.4638 22.2285 19.1623 22.0594 19.5577 21.7212C20.6647 20.7586 21.5873 19.5878 22.3254 18.209C22.7471 17.4285 22.958 16.7911 22.958 16.2968C22.958 14.6578 22.2067 13.6301 20.7043 13.2139C20.3089 13.1098 19.8871 13.0578 19.439 13.0578C18.2265 13.0578 16.9876 13.6431 15.7224 14.8139C14.2463 16.1147 13.5082 17.8578 13.5082 20.0431ZM22.0881 16.2968C22.0881 17.3374 21.3633 18.5602 19.9135 19.9651L18.8855 20.8236L18.4901 21.0578C17.9893 21.1358 17.4621 21.1748 16.9086 21.1748C15.2743 21.1748 14.4572 20.8496 14.4572 20.1992C14.5099 18.196 15.1161 16.635 16.2759 15.5163C17.2776 14.5277 18.3056 14.0334 19.36 14.0334C20.7043 14.0334 21.561 14.5147 21.93 15.4773L22.0881 16.2968ZM18.332 26.209C18.332 25.5326 16.3946 25.1943 12.5198 25.1943C11.4654 25.1943 10.5297 25.2334 9.71252 25.3114L8.76359 25.3895C7.3402 25.5716 6.6285 25.8317 6.6285 26.17C6.6285 26.5602 6.98435 26.7553 7.69605 26.7553L12.4802 26.3651L17.2249 26.7553C17.9629 26.7553 18.332 26.5732 18.332 26.209ZM20.5461 27.1456C20.4934 28.9147 17.8048 29.7992 12.4802 29.7992C7.2084 29.7992 4.53295 28.9147 4.45387 27.1456C4.42751 25.4805 4.1771 23.9976 3.70264 22.6968C3.41269 21.9943 2.85914 21.0968 2.04201 20.0041C1.014 18.6252 0.5 17.4025 0.5 16.3358C0.5 14.6708 1.22488 13.383 2.67463 12.4724C3.49176 11.9521 4.40115 11.6919 5.4028 11.6919C6.77348 11.6919 8.07825 12.1862 9.31713 13.1748C9.31713 11.9781 9.43575 11.1586 9.67298 10.7163C9.8575 10.222 10.4638 9.62361 11.4918 8.92117V8.02361L9.87068 7.048V5.64312H11.3336L11.8081 4.19922H13.1524L13.6664 5.64312H15.0898V7.048L13.5082 8.02361V8.92117C14.5099 9.64962 15.1293 10.274 15.3666 10.7943L15.6433 11.926C15.6697 12.2382 15.696 12.6545 15.7224 13.1748C16.9613 12.1862 18.2397 11.6919 19.5577 11.6919C21.3237 11.6919 22.6944 12.3553 23.6697 13.6821C24.2232 14.4626 24.5 15.3472 24.5 16.3358C24.5 17.4025 23.986 18.6382 22.958 20.0431L22.0486 21.2919C21.0733 22.7488 20.5725 24.7 20.5461 27.1456ZM2.87232 16.2968C2.87232 15.2041 3.42586 14.5017 4.53295 14.1895C4.84926 14.0854 5.17875 14.0334 5.52142 14.0334C6.6285 14.0334 7.68287 14.5277 8.68452 15.5163C9.81796 16.661 10.411 18.222 10.4638 20.1992C10.4901 20.7716 9.88385 21.0968 8.64497 21.1748C8.46046 21.1748 8.26277 21.1748 8.05189 21.1748C7.52471 21.1748 6.98435 21.1358 6.43081 21.0578C5.56096 20.6415 4.6911 19.822 3.82125 18.5992C3.18863 17.6887 2.87232 16.9212 2.87232 16.2968Z" fill="#050505"/>
<path fill-rule="evenodd" clip-rule="evenodd" d="M4.5 27.1589C4.57921 28.8915 7.24588 29.7578 12.5 29.7578L12.5 4.23438H11.9059L11.3911 5.70838H9.92574V7.1048L11.5495 8.03574V8.96669C11.4439 9.04426 11.3383 9.10892 11.2327 9.16064C10.6518 9.54853 10.1502 10.0787 9.72772 10.751C9.5429 11.0613 9.45049 11.307 9.45049 11.488C9.39769 12.1086 9.37129 12.6905 9.37129 13.2335L9.33168 13.1947C8.83003 12.8068 8.32838 12.4965 7.82673 12.2638C6.45379 11.6173 5.06766 11.5397 3.66832 12.0311C3.29868 12.1603 2.94225 12.3284 2.59901 12.5353C1.19967 13.4663 0.5 14.7463 0.5 16.3755C0.5 16.6082 0.513204 16.828 0.539608 17.0349C0.645218 17.8365 1.14687 18.8192 2.04456 19.9829C2.57261 20.6811 2.98185 21.2759 3.27228 21.7672C3.95875 22.9826 4.36799 24.7798 4.5 27.1589Z" fill="white"/>
<path fill-rule="evenodd" clip-rule="evenodd" d="M4.5 27.1559C4.57921 28.8903 7.24588 29.7575 12.5 29.7575V28.3596H11.6683C8.55281 28.2561 6.99505 28.0102 6.99505 27.6219C6.99505 27.2853 7.4835 27.0394 8.4604 26.8841C9.78053 26.7029 11.1403 26.6123 12.5396 26.6123L12.5 25.059C9.83333 25.059 7.58911 25.3438 5.76733 25.9133C5.68812 24.7225 5.51651 23.6353 5.25247 22.6516C5.56931 22.6257 5.97855 22.5998 6.4802 22.5739C9.83333 22.3668 11.8399 22.1209 12.5 21.8361V16.6716C12.5 16.594 12.4208 16.4645 12.2624 16.2833C11.5759 15.3255 11.1271 14.4971 10.9158 13.7982C10.863 13.617 10.8366 13.2416 10.8366 12.6721C10.8366 11.1448 11.4043 10.3811 12.5396 10.3811L12.5 4.20703H11.9059L11.3911 5.6826H9.92574V7.0805L11.5495 8.01243V8.94436C11.4439 9.02202 11.3383 9.08674 11.2327 9.13852C10.6518 9.52682 10.1502 10.0575 9.72772 10.7306C9.5429 11.0412 9.4505 11.2871 9.4505 11.4684C9.39769 12.0896 9.37129 12.6721 9.37129 13.2157L9.33168 13.1769C8.83003 12.7886 8.32838 12.4779 7.82673 12.245C6.45379 11.5978 5.06766 11.5201 3.66832 12.012C3.29868 12.1414 2.94225 12.3097 2.59901 12.5168C1.19967 13.4487 0.5 14.7301 0.5 16.361C0.5 16.594 0.513204 16.814 0.539608 17.0211C0.645218 17.8236 1.14687 18.8073 2.04456 19.9722C2.57261 20.6712 2.98185 21.2666 3.27228 21.7584C3.95875 22.9751 4.36799 24.7743 4.5 27.1559ZM3.86634 20.2441C2.57261 18.6132 1.92574 17.3965 1.92574 16.594V16.4387L2.12376 15.3902C2.4934 14.2771 3.20627 13.5911 4.26238 13.3322C4.68482 13.1769 5.08086 13.0992 5.45049 13.0992C6.61221 13.0992 7.83993 13.6687 9.13366 14.8078C10.6914 16.128 11.5759 17.9142 11.7871 20.1664C11.7871 20.3217 11.5891 20.4512 11.1931 20.5547C9.95215 20.9171 7.97195 21.0983 5.25247 21.0983H4.5396C4.40759 20.9171 4.18317 20.6324 3.86634 20.2441Z" fill="#050505"/>
</svg>
