<svg xmlns="http://www.w3.org/2000/svg" width="40" height="40" xml:space="preserve"><path style="stroke:none;stroke-width:10;stroke-dasharray:none;stroke-linecap:butt;stroke-dashoffset:0;stroke-linejoin:miter;stroke-miterlimit:4;fill:#000;fill-rule:nonzero;opacity:1" vector-effect="non-scaling-stroke" transform="rotate(180 17.475 17.5)" d="m19.812 6.752-.767 1.865c-1.242.269-2.605.403-4.09.403-1.473 0-2.825-.134-4.054-.403l-.767-1.847c1.51.378 3.116.567 4.82.567 1.68 0 3.3-.195 4.858-.585zm-1.534 3.768-.53 1.28v.494a19.445 19.445 0 0 1-5.569 0l-.018-.494-.493-1.28a18.87 18.87 0 0 0 3.287.274c1.168 0 2.276-.091 3.323-.274zm-.64-6.914c-.486.365-.973.945-1.46 1.737h-.584c0-.597.14-1.177.42-1.737zm-3.76 0c.28.597.42 1.176.42 1.737h-.585c-.475-.78-.968-1.36-1.479-1.737zm1.077-.33c-.17-.695-.378-1.177-.621-1.445a6.388 6.388 0 0 0-.968-.841 6.596 6.596 0 0 0-1.552-.778c-.597-.213-1.26-.265-1.99-.155L4.693.77a2.126 2.126 0 0 1-.557 0A3.184 3.184 0 0 0 3.67.734c-.255 0-.581-.058-.977-.174C2.298.444 1.99.277 1.771.057L0 2.965c.22.244.414.415.584.513.17.097.372.2.603.31.706.33 1.46.531 2.264.604.34.025.676.03 1.004.019.33-.013.67 0 1.023.036.657-.11 1.318-.21 1.981-.302.663-.091 1.33-.186 2-.283.73 0 1.223.073 1.478.22.134.072.347.206.64.402.292.195.584.481.876.86-.645.072-1.302.197-1.972.374-.67.177-1.26.363-1.771.558l1.899 4.72c-.95.548-1.613.99-1.99 1.325a3.833 3.833 0 0 0-.895 1.162c-.317.56-.52 1.104-.612 1.628a7.08 7.08 0 0 0-.119 1.408c.013.732.186 1.54.52 2.424.336.884.966 1.674 1.89 2.369a54.017 54.017 0 0 1 2.247 1.81c.73.622 1.454 1.348 2.173 2.177-.901.464-1.352 1.201-1.352 2.214 0 .682.24 1.268.722 1.756a2.38 2.38 0 0 0 1.762.731c.681 0 1.266-.244 1.752-.731.487-.488.73-1.074.73-1.756 0-1-.45-1.738-1.35-2.214a19.64 19.64 0 0 1 2.145-2.176 40.071 40.071 0 0 1 2.273-1.811c.913-.695 1.534-1.485 1.863-2.369.329-.884.505-1.692.53-2.424 0-.414-.043-.884-.128-1.408-.086-.524-.28-1.067-.585-1.628a4.488 4.488 0 0 0-.922-1.162c-.371-.335-1.025-.777-1.963-1.326l1.9-4.719a20.888 20.888 0 0 0-1.808-.558 14.01 14.01 0 0 0-1.936-.375c.28-.378.566-.664.858-.86.293-.195.512-.329.658-.402.255-.146.748-.22 1.479-.22.657.098 1.317.193 1.98.284.664.092 1.33.192 2 .302.329-.036.66-.049.995-.036.335.012.679.006 1.032-.019a7.087 7.087 0 0 0 2.264-.603c.22-.11.417-.214.594-.311.176-.098.374-.269.593-.513L28.12.057c-.218.22-.526.387-.921.503-.396.116-.716.174-.959.174-.158 0-.32.012-.484.036-.164.025-.35.025-.557 0L20.086.057c-.73-.11-1.41-.061-2.036.146-.627.208-1.142.482-1.543.824-.402.329-.721.612-.959.85-.237.238-.435.704-.593 1.4zm-.676 13.61V15.33c0-.45.225-.676.676-.676.45 0 .675.225.675.676v1.573h1.644c.426 0 .639.22.639.659 0 .439-.213.658-.64.658H15.63v1.646c0 .452-.225.677-.675.677-.45 0-.676-.225-.676-.677V18.22h-1.607c-.426 0-.639-.22-.639-.658 0-.44.213-.659.64-.659z"/></svg>