<svg xmlns="http://www.w3.org/2000/svg" width="40" height="40" xml:space="preserve"><path style="stroke:none;stroke-width:10;stroke-dasharray:none;stroke-linecap:butt;stroke-dashoffset:0;stroke-linejoin:miter;stroke-miterlimit:4;fill:#000;fill-rule:nonzero;opacity:1" vector-effect="non-scaling-stroke" transform="rotate(180 17.6 17.5)" d="M17.127 12.204c0 .34.038.824.115 1.45.076.628.197 1.118.361 1.47.436.949 1.059 1.828 1.87 2.637.236.234.741.55 1.518.95a5.493 5.493 0 0 0 2.452.562c.658 0 1.314-.114 1.966-.343.653-.228 1.144-.577 1.473-1.046.294-.399.441-1.043.441-1.934 0-.704-.288-1.36-.864-1.97a25.934 25.934 0 0 0-1.217-1.17 9.933 9.933 0 0 1-1.253-1.38c-.682.235-1.631.417-2.849.546a45.146 45.146 0 0 1-4.013.228zm-1.288-1.372c2.023-.035 3.681-.134 4.975-.298a41.6 41.6 0 0 0 3.493-.58 19.452 19.452 0 0 0 2.152 1.81c.788.575 1.34 1.067 1.658 1.478.565.762.847 1.711.847 2.848 0 1.044-.253 1.917-.758 2.62-.906 1.325-2.288 1.988-4.146 1.988-1.082 0-2.211-.235-3.387-.704-1.07-.422-1.846-.879-2.329-1.371-1-.962-1.728-2.228-2.187-3.799-.176-.539-.273-1.225-.291-2.057a97.506 97.506 0 0 1-.027-1.934zm8.08-3.042c-2.164.598-5.045.897-8.644.897-3.622 0-6.539-.305-8.75-.914l.265-1.776c2.223.574 5.051.861 8.485.861 3.422 0 6.21-.281 8.362-.844zm.459-5.258-.53 2.075c-2.293.528-5.174.792-8.644.792-3.434 0-6.303-.264-8.608-.792L6.03 2.515c2.235.68 5.298 1.02 9.191 1.02 1.87 0 3.605-.094 5.204-.282 1.6-.187 2.917-.428 3.952-.72zm-19.07 3.64-.582 3.289c-.012 0-.03.023-.053.07-.059.082-.227.19-.503.325s-.597.367-.961.695c-.518.434-.92.785-1.209 1.055-.288.27-.55.563-.785.88-.717.984-1.117 2.174-1.2 3.57-.117 1.347.43 2.69 1.641 4.026 1.223 1.337 2.876 1.964 4.957 1.882.776-.047 1.688-.235 2.735-.563.34-.14.69-.278 1.05-.413.358-.135.714-.273 1.066-.413.189-.094.353-.188.494-.282a3.17 3.17 0 0 0-.088.739c0 .914.327 1.694.98 2.339a3.294 3.294 0 0 0 2.354.984c.918 0 1.7-.325 2.347-.976.646-.65.97-1.427.97-2.33a5.07 5.07 0 0 0-.07-.738c.164.105.323.193.476.264.54.234 1.252.51 2.134.826 1.012.34 1.923.533 2.735.58 2.081.094 3.728-.533 4.939-1.881 1.188-1.337 1.74-2.679 1.658-4.027-.094-1.395-.5-2.585-1.217-3.57a6.66 6.66 0 0 0-.794-.888 35.88 35.88 0 0 0-1.182-1.046c-.388-.329-.717-.56-.988-.695-.27-.135-.429-.243-.476-.325a.205.205 0 0 0-.035-.053c-.012-.012-.018-.023-.018-.035l-.564-3.306 1.164-4.344C25.695 1.284 24.378.85 22.33.51 20.285.17 17.921 0 15.24 0c-2.729 0-5.128.179-7.198.536-2.07.358-3.37.806-3.898 1.346zm9.261 4.678c0 .469-.011 1.117-.035 1.943-.023.827-.112 1.515-.265 2.066-.482 1.571-1.211 2.837-2.187 3.799-.506.492-1.282.95-2.329 1.371-1.2.47-2.334.704-3.404.704-1.858 0-3.234-.663-4.128-1.987-.506-.704-.759-1.583-.759-2.638 0-1.149.282-2.093.847-2.831.294-.422.858-.944 1.694-1.565a27.274 27.274 0 0 0 2.116-1.724c1.024.223 2.179.416 3.467.58 1.288.165 2.949.258 4.983.282zm.635 4.414c.083.328.153.557.212.686.118.457.253.844.406 1.16.07.2.173.431.308.695.136.264.28.566.433.905.094.2.194.443.3.73.105.287.211.572.317.853.094.235.141.487.141.756 0 .575-.206 1.064-.617 1.469a2.06 2.06 0 0 1-1.5.606c-1.4 0-2.099-.697-2.099-2.092 0-.27.047-.522.141-.756.259-.762.459-1.29.6-1.583.153-.34.294-.642.423-.906.13-.263.241-.495.335-.694.153-.387.283-.774.389-1.16.023-.071.094-.294.211-.669zm.618 9.144h-1.253v2.304h-1.464c-.4 0-.6.193-.6.58v.018c0 .387.2.58.6.58h1.464v1.495c0 .41.212.615.635.615.412 0 .618-.205.618-.615V27.89h1.517c.388 0 .582-.193.582-.58v-.018c0-.387-.194-.58-.582-.58l-1.5-.018zm-2.593-12.204c-1.47-.023-2.814-.1-4.031-.229-1.218-.128-2.161-.31-2.832-.545-.353.434-.761.87-1.226 1.31-.464.44-.873.853-1.226 1.24-.588.598-.882 1.255-.882 1.97 0 .879.147 1.524.441 1.934.318.469.806.818 1.464 1.046a6.042 6.042 0 0 0 1.994.343c.847 0 1.658-.187 2.434-.563.765-.398 1.27-.715 1.517-.95a9.505 9.505 0 0 0 1.87-2.637c.153-.351.268-.84.344-1.468.077-.627.12-1.11.132-1.45zm1.975 6.067a1.521 1.521 0 0 1-.088.299 4.727 4.727 0 0 1-.317.818 4.906 4.906 0 0 0-.441 1.1 1.046 1.046 0 0 0-.053.333c0 .621.3.932.9.932.623 0 .934-.305.934-.915 0-.152-.023-.264-.07-.334a75.034 75.034 0 0 1-.265-.72c-.176-.352-.288-.581-.335-.687a2.08 2.08 0 0 1-.159-.51.822.822 0 0 1-.07-.184 1.326 1.326 0 0 0-.036-.132z"/></svg>