<svg xmlns="http://www.w3.org/2000/svg" width="40" height="40" xml:space="preserve"><path style="stroke:none;stroke-width:10;stroke-dasharray:none;stroke-linecap:butt;stroke-dashoffset:0;stroke-linejoin:miter;stroke-miterlimit:4;fill:#000;fill-rule:nonzero;opacity:1" vector-effect="non-scaling-stroke" transform="matrix(1 0 0 -1 4.8 35.04)" d="M5.654 8.561c.048.107.125.268.232.482.202.5.303.797.303.892-.024.333-.196.5-.517.5-.238 0-.517-.34-.838-1.018a.708.708 0 0 0-.215-.25c-.32-.332-.273-.612.143-.838.38-.225.678-.148.892.232zm10.523 6.617c.832 1.094 1.243 2.313 1.23 3.657-.047.392-.273.588-.677.588-.547 0-.761-.202-.642-.606.036-.654-.03-1.195-.196-1.623-.274-.678-.577-1.183-.91-1.516-.178-.357-.071-.618.321-.785.38-.178.672-.083.874.285zm-4.655 8.704a4.6 4.6 0 0 0 .036 1.392c-.714-.143-1.386-.476-2.016-1-.38-.201-.47-.48-.267-.837.202-.37.481-.429.838-.179.25.13.479.253.687.366.208.113.449.199.722.258zM28.234 1.266c-.012 0 0 .324.036.973.036.648.053 1.346.053 2.095a297.65 297.65 0 0 1 0 4.61 19.177 19.177 0 0 1-.642 4.754c-.404 1.522-.85 2.821-1.337 3.897-.488 1.076-1.017 2.007-1.588 2.791-.856 1.285-2.021 2.373-3.496 3.264-1.474.892-3.014 1.475-4.62 1.748.048-.273.063-.553.045-.838a5.367 5.367 0 0 1 .01-.82 18.821 18.821 0 0 0 3.263-1.463c1.023-.582 1.772-1.213 2.248-1.89.57-.785 1.1-1.716 1.587-2.792.488-1.076.933-2.375 1.338-3.897.404-1.581.612-3.166.624-4.753.012-1.588.018-3.124.018-4.61 0-.75-.018-1.448-.054-2.096-.035-.648-.035-.973 0-.973zM16.16 26.646c1.867-.118 3.597-.6 5.19-1.444a13.626 13.626 0 0 0 4.067-3.246c.785-.927 1.525-2.045 2.22-3.353a21.152 21.152 0 0 0 1.668-4.156c.476-1.7.776-3.487.901-5.36.125-1.872.187-3.605.187-5.199V0H8.454c-.107 0-.157.291-.151.874.005.583.044 1.052.115 1.409.048.285.161.69.34 1.213.178.523.475 1.16.891 1.908.19.38.642.937 1.356 1.668.713.731 1.534 1.578 2.461 2.541.535.547.954 1.237 1.257 2.07.304.832.431 1.587.384 2.265a6.164 6.164 0 0 0-1.445-.874c-2.52-.904-4.346-2.212-5.475-3.924-.084-.107-.351-.589-.803-1.445-.238-.452-.44-.76-.606-.927-.226-.226-.553-.351-.981-.375-.666-.036-1.183.285-1.552.963-.5-.143-.945-.202-1.338-.178-.666.25-1.147.517-1.444.802C.856 8.597.46 9.203.276 9.81A6.716 6.716 0 0 0 0 11.772c0 .998.618 2.318 1.855 3.96 1.45 1.89 2.223 3.329 2.319 4.315 0 .429.041.91.124 1.445.072.369.22.725.446 1.07.155.238.259.402.312.49.054.09.152.224.295.402a4.4 4.4 0 0 0 .267.33c.072.077.16.181.268.312.13.155.297.333.5.535A13.096 13.096 0 0 0 5.617 30c2.366-.844 4.352-2.17 5.957-3.977.393 1.343 1.166 2.431 2.32 3.264.95-.666 1.705-1.546 2.264-2.64zM4.12 11.737c.345.238.38.523.107.856-.285.274-.6.297-.945.072-.726-.476-1.112-1.1-1.16-1.873.012-.393.244-.577.696-.553.428.036.636.255.624.66.095.38.321.66.678.838zm4.495 8.882.392.197c.357.142.47.404.339.784-.143.357-.416.476-.82.357-1.404-.511-2.373-1.45-2.908-2.818-.083-.392.06-.66.428-.803.369-.119.619.012.75.393.094.202.166.333.213.392.131-.107.304-.178.518-.214.725-.119 1.147.202 1.266.963.036.262-.024.512-.179.75z"/></svg>