<svg xmlns="http://www.w3.org/2000/svg" width="40" height="40" xml:space="preserve"><path style="stroke:none;stroke-width:10;stroke-dasharray:none;stroke-linecap:butt;stroke-dashoffset:0;stroke-linejoin:miter;stroke-miterlimit:4;fill:#000;fill-rule:nonzero;opacity:1" vector-effect="non-scaling-stroke" transform="rotate(180 18.105 17.525)" d="M26.075 10.707c-.97.35-2.334.64-4.092.867-1.758.228-3.7.342-5.826.342-2.08 0-3.984-.108-5.713-.324-1.73-.216-3.09-.5-4.083-.85l.876-1.595c.982.292 2.255.502 3.82.631 1.566.129 3.277.193 5.135.193a63.71 63.71 0 0 0 5.152-.193c1.577-.129 2.856-.345 3.837-.648zm3.96 11.705a2.33 2.33 0 0 0-1.7.693 2.286 2.286 0 0 0-.7 1.69c0 .655.233 1.218.7 1.692a2.3 2.3 0 0 0 1.7.71 2.28 2.28 0 0 0 1.682-.71c.468-.473.701-1.037.701-1.691 0-.666-.233-1.23-.7-1.691a2.309 2.309 0 0 0-1.683-.693zm-27.652 0a2.3 2.3 0 0 0-1.69.693A2.3 2.3 0 0 0 0 24.795c0 .655.23 1.218.692 1.692.462.473 1.025.71 1.691.71a2.3 2.3 0 0 0 1.7-.71c.467-.473.7-1.037.7-1.691 0-.666-.233-1.23-.7-1.691a2.33 2.33 0 0 0-1.7-.693zm21.168 1.928a2.3 2.3 0 0 0-1.69.692 2.3 2.3 0 0 0-.693 1.691c0 .654.23 1.215.692 1.682.462.468 1.026.701 1.691.701.666 0 1.233-.233 1.7-.7.468-.468.701-1.029.701-1.683 0-.666-.233-1.23-.7-1.69a2.33 2.33 0 0 0-1.7-.693zm-14.72 0a2.33 2.33 0 0 0-1.699.692 2.286 2.286 0 0 0-.7 1.691c0 .654.233 1.215.7 1.682.467.468 1.034.701 1.7.701.654 0 1.215-.233 1.682-.7.467-.468.7-1.029.7-1.683 0-.666-.233-1.23-.7-1.69a2.309 2.309 0 0 0-1.682-.693zM26.987 1.77c-.572-.502-1.857-.923-3.855-1.262C21.133.17 18.83 0 16.227 0c-2.652 0-4.983.175-6.992.526-2.01.35-3.277.788-3.803 1.314l1.104 4.206-.49 2.75-1.542 2.682-1.49 10.9.859.332 4.801-8.096.105 9.638 1.192.21 3.662-9.69L15.596 25.2h1.209l1.962-10.392 3.628 9.656 1.209-.21.105-9.639 4.819 8.114.823-.386-1.454-10.847-1.56-2.68-.49-2.787zm-1.682.56-.526 2.068c-2.278.526-5.14.789-8.586.789-3.412 0-6.262-.263-8.552-.789l-.56-2.085c2.22.678 5.262 1.017 9.13 1.017 1.857 0 3.58-.094 5.169-.28 1.588-.188 2.897-.427 3.925-.72zm-.456 5.24c-2.15.596-5.012.894-8.586.894-3.598 0-6.496-.304-8.692-.911l.263-1.77c2.208.572 5.018.858 8.429.858 3.4 0 6.168-.28 8.306-.84zm-8.656 17.646c-.666 0-1.23.234-1.691.701a2.33 2.33 0 0 0-.693 1.7c0 .654.231 1.215.693 1.682.461.467 1.025.7 1.69.7.655 0 1.219-.233 1.692-.7a2.28 2.28 0 0 0 .71-1.682 2.3 2.3 0 0 0-.71-1.7 2.323 2.323 0 0 0-1.691-.7z"/></svg>