<svg xmlns="http://www.w3.org/2000/svg" width="40" height="40" xml:space="preserve"><path style="stroke:none;stroke-width:10;stroke-dasharray:none;stroke-linecap:butt;stroke-dashoffset:0;stroke-linejoin:miter;stroke-miterlimit:4;fill:#000;fill-rule:nonzero;opacity:1" vector-effect="non-scaling-stroke" transform="rotate(180 16.25 17.535)" d="M15.018 27.49h3.114V30h5.018v-6.868L19.084 20v-8.755l3.114-3.113V4.377H25V0H0v4.377h2.802v3.755l3.132 3.113V20l-4.066 3.132V30h5v-2.51H10V30h5.018zM4.084 4.67V2.802h16.85V4.67zm8.425 20H3.132v-.842l1.337-1.007h16.099l1.3 1.007v.842zm0-3.095H6.1l1.099-.86V19.67H17.82v1.044l1.1.861zm0-10H7.198v-.842l-1.1-1.063H18.92l-1.099 1.063v.842zm0-3.15H4.927l-.843-.787V6.575h16.85v1.063l-.843.787z"/></svg>