<svg width="40" height="40" fill="none" xmlns="http://www.w3.org/2000/svg"><path d="m20.653 18.078 1.515-.018c.414 0 .621-.207.621-.622 0-.415-.207-.622-.62-.622h-1.516v-1.573c0-.427-.22-.64-.658-.64-.426 0-.639.213-.639.64v1.573h-1.57c-.402 0-.603.207-.603.622 0 .415.201.622.603.622h1.57v1.5c0 .439.213.658.64.658.438 0 .657-.22.657-.658v-1.482zm-.658 10.573c-.827 0-1.634-.07-2.419-.21a27.619 27.619 0 0 1-2.273-.504c1.424-.378 2.988-.567 4.692-.567 1.729 0 3.293.19 4.693.567-.706.196-1.455.363-2.246.503-.791.14-1.607.21-2.447.21zm0-19.92c-.827 0-1.241-.414-1.241-1.243 0-.83.414-1.244 1.241-1.244.828 0 1.242.415 1.242 1.244s-.414 1.243-1.242 1.243zm0 17.359c-1.424 0-2.793.14-4.108.42l.877-2.25a20.505 20.505 0 0 1 3.231-.255c1.108 0 2.191.085 3.25.256l.877 2.25a19.564 19.564 0 0 0-4.127-.421zm0-3.33c-1.18 0-2.313.092-3.396.275-1.193-.427-2.057-1.091-2.593-1.994a4.964 4.964 0 0 1-.694-2.579c0-.56.14-1.18.42-1.856.28-.677.737-1.29 1.37-1.838.718-.598 1.503-1.253 2.355-1.967a23.742 23.742 0 0 0 2.538-2.496 25.02 25.02 0 0 0 2.557 2.496c.852.714 1.631 1.369 2.337 1.967.645.548 1.105 1.161 1.379 1.838.273.677.41 1.295.41 1.856 0 .94-.225 1.8-.675 2.58-.524.902-1.394 1.566-2.611 1.993a20.17 20.17 0 0 0-3.397-.274zm.658 6.897h.584c.682 1.097 1.333 1.786 1.954 2.067.292.146.614.28.968.402.353.122.76.183 1.223.183.085 0 .736-.098 1.954-.293a11.1 11.1 0 0 0 1.388-.274c.34-.098.608-.159.803-.183.694-.085 1.503-.049 2.428.11.56.097 1.084.274 1.57.53l-.876 1.427a1.051 1.051 0 0 0-.575-.284 9.942 9.942 0 0 1-.648-.137 4.931 4.931 0 0 0-1.461-.036c-.158.036-.469.082-.931.137-.463.055-1.078.143-1.844.265-.913.134-1.534.201-1.863.201-1.278 0-2.258-.244-2.94-.731-.414-.317-.806-.76-1.177-1.326-.372-.567-.557-1.253-.557-2.058zm-.658 2.067c.17.695.378 1.177.621 1.445.244.268.566.549.968.841.438.305.956.564 1.552.778.597.213 1.26.265 1.99.155l5.131-.713a2.13 2.13 0 0 1 .557 0c.165.024.32.036.466.036.255 0 .581.058.977.174.395.116.703.284.922.503l1.771-2.908c-.22-.244-.414-.415-.584-.513a8.89 8.89 0 0 0-.603-.31 6.766 6.766 0 0 0-2.264-.604 9.303 9.303 0 0 0-1.004-.018c-.33.012-.67 0-1.023-.037-.657.11-1.318.21-1.981.302-.663.091-1.33.186-2 .283-.73 0-1.223-.073-1.479-.22a9.717 9.717 0 0 1-.639-.402c-.292-.195-.584-.481-.876-.86a13.828 13.828 0 0 0 1.972-.374c.67-.177 1.26-.363 1.771-.558l-1.899-4.72c.95-.548 1.613-.99 1.99-1.325.378-.336.676-.723.895-1.162.317-.56.52-1.104.612-1.628a7.08 7.08 0 0 0 .118-1.408c-.012-.732-.185-1.54-.52-2.424-.335-.884-.965-1.674-1.89-2.369a53.985 53.985 0 0 1-2.246-1.81A20.331 20.331 0 0 1 21.127 9.7c.901-.464 1.352-1.201 1.352-2.214 0-.682-.24-1.268-.722-1.756A2.38 2.38 0 0 0 19.995 5c-.681 0-1.266.244-1.753.731a2.397 2.397 0 0 0-.73 1.756c0 1 .45 1.738 1.351 2.214a19.632 19.632 0 0 1-2.145 2.176 40.058 40.058 0 0 1-2.274 1.811c-.913.695-1.533 1.485-1.862 2.369-.329.884-.505 1.692-.53 2.424 0 .414.043.884.128 1.408.085.524.28 1.067.585 1.628.243.439.55.826.922 1.162.371.335 1.025.777 1.963 1.326l-1.9 4.719c.536.195 1.139.38 1.808.558.67.177 1.315.302 1.936.375-.28.378-.566.664-.858.86a6.91 6.91 0 0 1-.658.402c-.255.146-.748.22-1.479.22-.657-.098-1.317-.193-1.98-.284a79.315 79.315 0 0 1-2-.302c-.329.037-.66.049-.995.037a9.79 9.79 0 0 0-1.032.018 7.086 7.086 0 0 0-2.264.604c-.22.11-.417.213-.594.31-.176.098-.374.269-.593.513l1.79 2.908c.218-.22.526-.387.921-.503.396-.116.716-.174.959-.174.158 0 .32-.012.484-.036a2.13 2.13 0 0 1 .557 0l5.112.713c.73.11 1.41.061 2.036-.146.627-.208 1.142-.482 1.543-.823.402-.33.721-.613.959-.851.237-.238.435-.704.593-1.4zm-.639-2.067c0 .805-.185 1.49-.557 2.058-.37.567-.77 1.009-1.196 1.326-.67.487-1.649.731-2.94.731-.316 0-.937-.067-1.862-.2a46.035 46.035 0 0 0-1.826-.266c-.462-.055-.773-.1-.931-.137a4.928 4.928 0 0 0-1.46.036c-.196.049-.412.095-.649.137a1.152 1.152 0 0 0-.593.284l-.877-1.427a5.544 5.544 0 0 1 1.589-.53c.925-.159 1.734-.195 2.428-.11.207.024.478.085.813.183.335.098.788.189 1.36.274 1.23.195 1.88.293 1.954.293.475 0 .888-.061 1.241-.183.353-.122.67-.256.95-.402.645-.293 1.302-.982 1.972-2.067h.584z" fill="#000"/><path d="M18.754 7.488c0 .829.414 1.243 1.241 1.243.828 0 1.242-.414 1.242-1.243 0-.83-.414-1.244-1.242-1.244-.827 0-1.241.414-1.241 1.244zM16.6 23.035a20.382 20.382 0 0 1 3.395-.274c1.193 0 2.325.091 3.397.274 1.217-.427 2.087-1.091 2.61-1.994.451-.78.676-1.64.676-2.579 0-.56-.137-1.18-.41-1.856-.274-.677-.734-1.29-1.379-1.838a569.507 569.507 0 0 0-2.337-1.967 25.02 25.02 0 0 1-2.556-2.496 23.742 23.742 0 0 1-2.539 2.496c-.852.714-1.637 1.369-2.355 1.967-.633.548-1.09 1.161-1.37 1.838s-.42 1.295-.42 1.856c0 .94.232 1.8.694 2.58.536.902 1.4 1.566 2.593 1.993z" fill="#fff"/><path d="m22.168 18.06-1.515.018v1.482c0 .439-.22.658-.658.658-.426 0-.639-.22-.639-.658v-1.5h-1.57c-.402 0-.603-.207-.603-.622 0-.415.201-.622.603-.622h1.57v-1.573c0-.427.213-.64.64-.64.438 0 .657.213.657.64v1.573h1.515c.414 0 .621.207.621.622 0 .415-.207.622-.62.622z" fill="#000"/><path d="M15.887 26.51c1.315-.28 2.684-.42 4.108-.42 1.449 0 2.825.14 4.127.42l-.876-2.25a20.395 20.395 0 0 0-3.25-.255c-1.084 0-2.161.085-3.232.256l-.877 2.25zM17.576 28.44c.785.14 1.592.21 2.42.21.84 0 1.655-.07 2.446-.21.791-.14 1.54-.307 2.246-.503-1.4-.378-2.964-.567-4.693-.567-1.704 0-3.268.19-4.692.567.73.195 1.488.363 2.273.503zM18.8 31.715c.37-.567.556-1.253.556-2.058h-.584c-.67 1.085-1.327 1.774-1.972 2.067-.28.146-.597.28-.95.402a3.807 3.807 0 0 1-1.241.183c-.073 0-.725-.098-1.954-.293a10.744 10.744 0 0 1-1.36-.274 5.245 5.245 0 0 0-.813-.183c-.694-.085-1.503-.049-2.428.11-.56.097-1.09.274-1.589.53l.877 1.427c.158-.146.356-.24.593-.284.237-.042.453-.088.648-.137a4.928 4.928 0 0 1 1.461-.036c.158.036.469.082.931.137.463.055 1.071.143 1.826.265.925.134 1.546.201 1.863.201 1.29 0 2.27-.244 2.94-.731.425-.317.824-.76 1.195-1.326zM21.237 29.657h-.584c0 .805.185 1.49.557 2.058.37.567.763 1.009 1.177 1.326.682.487 1.662.731 2.94.731.329 0 .95-.067 1.863-.2.766-.123 1.381-.211 1.844-.266.462-.055.773-.1.931-.137.463-.061.95-.05 1.46.036.196.049.412.095.649.137.237.043.43.138.575.284l.877-1.427a5.305 5.305 0 0 0-1.57-.53c-.926-.159-1.735-.195-2.43-.11a5.694 5.694 0 0 0-.802.183 11.1 11.1 0 0 1-1.388.274c-1.217.195-1.869.293-1.954.293-.463 0-.87-.061-1.223-.183a7.976 7.976 0 0 1-.968-.402c-.621-.28-1.272-.97-1.954-2.067z" fill="#fff"/></svg>