<svg width="40" height="40" fill="none" xmlns="http://www.w3.org/2000/svg"><path d="M28.816 27.755c-2.234-.563-5.198-.844-8.89-.844-3.623 0-6.545.27-8.768.809l-.441-2.585c2.364-.622 5.457-.932 9.279-.932 3.846 0 6.933.316 9.261.95l-.44 2.602zm1.076 1.073.582-3.289c.012 0 .03-.023.053-.07.059-.082.227-.19.503-.325s.597-.367.961-.695c.518-.434.92-.786 1.209-1.055.288-.27.55-.563.785-.88.717-.984 1.117-2.174 1.2-3.57.117-1.347-.43-2.69-1.641-4.026-1.223-1.337-2.876-1.964-4.957-1.882-.776.047-1.688.235-2.735.563-.34.14-.69.278-1.05.413-.358.135-.714.273-1.067.413a4.61 4.61 0 0 0-.493.282c.058-.246.088-.493.088-.739 0-.914-.327-1.694-.98-2.339a3.294 3.294 0 0 0-2.354-.984c-.918 0-1.7.325-2.347.976-.646.65-.97 1.427-.97 2.33 0 .187.024.433.07.738a3.946 3.946 0 0 0-.476-.264 36.92 36.92 0 0 0-2.134-.826c-1.012-.34-1.923-.534-2.735-.58-2.081-.094-3.728.533-4.939 1.881-1.188 1.337-1.74 2.679-1.658 4.027.094 1.395.5 2.585 1.217 3.57.235.317.5.613.794.888.294.275.688.624 1.182 1.046.388.329.717.56.988.695.27.135.429.243.476.325a.205.205 0 0 0 .035.053c.012.012.018.023.018.035l.565 3.306-1.165 4.344c.588.527 1.905.961 3.952 1.301 2.046.34 4.41.51 7.091.51 2.729 0 5.128-.179 7.198-.536 2.07-.358 3.37-.806 3.898-1.346l-1.164-4.29zm-19.07 2.057.53-2.022c2.328-.516 5.21-.774 8.644-.774 3.422 0 6.297.258 8.626.774l.564 2.04c-2.246-.657-5.315-.985-9.208-.985-3.87 0-6.921.322-9.156.967zm-.458 1.653c2.27-.914 5.457-1.372 9.561-1.372 4.257 0 7.48.47 9.667 1.407-2.07.82-5.274 1.231-9.614 1.231-2.07 0-3.957-.114-5.663-.343-1.705-.228-3.022-.536-3.951-.923zm10.25-9.531c.01-.457.028-.912.052-1.363.024-.451.112-.952.265-1.503.482-1.571 1.211-2.837 2.187-3.799.506-.492 1.282-.95 2.329-1.371 1.2-.47 2.334-.704 3.404-.704 1.859 0 3.235.663 4.128 1.987.506.704.759 1.583.759 2.638 0 1.149-.282 2.093-.847 2.831a8.524 8.524 0 0 1-1.305 1.302c-.53.433-1.023.826-1.482 1.178-2.058-.739-5.222-1.137-9.49-1.196zm-.618-3.27a4.54 4.54 0 0 0-.212-.687 6.298 6.298 0 0 0-.406-1.16c-.07-.2-.173-.431-.308-.695-.136-.264-.28-.566-.433-.905a9.168 9.168 0 0 1-.3-.73 130.4 130.4 0 0 0-.317-.853 2.011 2.011 0 0 1-.141-.756c0-.575.206-1.064.617-1.469a2.06 2.06 0 0 1 1.5-.606c1.4 0 2.099.697 2.099 2.092 0 .27-.047.522-.141.756-.259.762-.459 1.29-.6 1.583-.153.34-.294.642-.423.906-.13.263-.241.495-.335.694-.153.387-.283.774-.389 1.16-.023.071-.094.294-.211.67zm-.6 3.27c-2.023.023-3.875.143-5.557.36-1.682.217-2.999.49-3.951.818-.447-.352-.935-.741-1.465-1.17a8.468 8.468 0 0 1-1.323-1.31c-.564-.714-.847-1.658-.847-2.83 0-1.056.253-1.935.76-2.638.905-1.313 2.28-1.97 4.127-1.97 1.105 0 2.24.229 3.405.686 1.023.41 1.799.867 2.328 1.372.988.984 1.717 2.25 2.188 3.798.164.551.261 1.052.29 1.503.03.452.045.912.045 1.38zm-.018-12.415h1.253V8.288h1.464c.4 0 .6-.193.6-.58V7.69c0-.387-.2-.58-.6-.58H20.63V5.615c0-.41-.212-.615-.635-.615-.412 0-.618.205-.618.615V7.11h-1.517c-.388 0-.582.193-.582.58v.018c0 .387.194.58.582.58l1.5.018.017 2.286z" fill="#000"/><path d="M19.784 19.05c.059.13.13.358.212.686.117-.375.188-.598.211-.668.106-.387.236-.774.389-1.16.094-.2.205-.432.335-.695.129-.264.27-.566.423-.906.141-.293.341-.82.6-1.583.094-.234.141-.486.141-.756 0-1.395-.7-2.092-2.1-2.092a2.06 2.06 0 0 0-1.499.606 1.983 1.983 0 0 0-.617 1.469c0 .27.047.521.141.756.106.281.212.566.317.853.106.287.206.53.3.73.153.34.297.641.433.905.135.264.238.495.308.695.153.316.288.703.406 1.16zM20.666 21.644c-.024.451-.041.906-.053 1.363 4.27.058 7.433.457 9.49 1.196.46-.352.954-.745 1.483-1.178.529-.434.964-.868 1.305-1.302.565-.738.847-1.682.847-2.831 0-1.055-.253-1.934-.759-2.638-.893-1.324-2.27-1.987-4.128-1.987-1.07 0-2.205.235-3.404.704-1.047.422-1.823.879-2.329 1.371-.976.962-1.705 2.228-2.187 3.799a7.049 7.049 0 0 0-.265 1.503zM13.839 23.367c1.682-.216 3.534-.337 5.557-.36 0-.469-.015-.93-.044-1.38a6.867 6.867 0 0 0-.291-1.504c-.47-1.547-1.2-2.814-2.188-3.798-.529-.505-1.305-.962-2.328-1.372-1.165-.457-2.3-.686-3.405-.686-1.846 0-3.222.657-4.128 1.97-.506.703-.759 1.582-.759 2.637 0 1.173.283 2.117.847 2.832.353.445.794.882 1.323 1.31.53.428 1.018.817 1.465 1.17.952-.33 2.27-.602 3.951-.819zM19.925 26.91c3.693 0 6.657.282 8.891.845l.441-2.603c-2.328-.633-5.416-.95-9.261-.95-3.822 0-6.915.311-9.28.933l.442 2.585c2.223-.54 5.145-.81 8.767-.81zM11.352 28.863l-.53 2.022c2.235-.645 5.287-.967 9.156-.967 3.893 0 6.962.328 9.208.985l-.564-2.04c-2.329-.516-5.204-.774-8.626-.774-3.434 0-6.316.258-8.644.774zM19.925 31.166c-4.104 0-7.291.458-9.561 1.372.929.387 2.246.695 3.951.923 1.706.229 3.593.343 5.663.343 4.34 0 7.544-.41 9.614-1.23-2.187-.939-5.41-1.408-9.667-1.408z" fill="#fff"/></svg>