<svg width="40" height="40" fill="none" xmlns="http://www.w3.org/2000/svg"><path d="M20.96 8.353c1.866.119 3.596.6 5.19 1.445a13.626 13.626 0 0 1 4.066 3.246c.785.927 1.525 2.045 2.22 3.353a21.152 21.152 0 0 1 1.668 4.156c.476 1.7.776 3.487.901 5.36.125 1.872.187 3.605.187 5.199V35H13.254c-.107 0-.157-.291-.151-.874.005-.583.044-1.052.116-1.409.047-.285.16-.69.338-1.213.179-.523.476-1.16.892-1.908.19-.38.642-.937 1.356-1.668.713-.731 1.534-1.578 2.461-2.541.535-.547.954-1.237 1.258-2.07.303-.832.43-1.587.383-2.265-.44.357-.922.648-1.445.874-2.52.904-4.346 2.212-5.475 3.924-.084.107-.351.589-.803 1.445-.238.452-.44.76-.606.927-.226.226-.553.351-.981.375-.666.036-1.183-.285-1.552-.963-.5.143-.945.202-1.338.178-.666-.25-1.147-.517-1.444-.802-.607-.607-1.002-1.213-1.187-1.82a6.716 6.716 0 0 1-.276-1.962c0-.998.618-2.318 1.855-3.96 1.45-1.89 2.223-3.329 2.319-4.316 0-.428.041-.91.124-1.444.072-.369.22-.725.446-1.07.155-.238.259-.402.312-.49.054-.09.152-.224.295-.402a4.4 4.4 0 0 1 .267-.33c.072-.077.16-.181.268-.312.13-.155.297-.333.5-.535A13.096 13.096 0 0 1 10.417 5c2.367.844 4.352 2.17 5.957 3.977.393-1.343 1.166-2.431 2.32-3.264.95.666 1.705 1.546 2.264 2.64zm12.074 25.38c-.012 0 0-.323.036-.971.036-.648.053-1.347.053-2.096a297.65 297.65 0 0 0 0-4.61 19.177 19.177 0 0 0-.642-4.754c-.404-1.522-.85-2.821-1.337-3.897-.488-1.076-1.017-2.007-1.588-2.792-.856-1.284-2.021-2.372-3.496-3.263-1.474-.892-3.014-1.475-4.62-1.748.108.582.155 1.153.144 1.712-.024.428-.226.642-.607.642-.44 0-.636-.214-.588-.642.035-1.57-.524-2.913-1.677-4.031-.904.951-1.391 2.057-1.462 3.317-.024.417-.238.6-.643.553-.38-.012-.57-.232-.57-.66l.035-.142a9.182 9.182 0 0 0-1.533.66c-.345.237-.625.178-.839-.179-.214-.357-.119-.636.286-.838.51-.262.897-.458 1.159-.589a12.647 12.647 0 0 0-3.496-2.532 12.47 12.47 0 0 0 1.356 4.69c.202.31.154.583-.143.82-.333.263-.613.22-.838-.124a5.749 5.749 0 0 1-.357-.642c-.25.25-.416.434-.5.553a7.23 7.23 0 0 0-.437.713c-.208.369-.36.672-.454.91-.107.297-.152.538-.134.722.018.184.033.39.045.615a5.342 5.342 0 0 1-.723 1.98 81.197 81.197 0 0 1-1.436 2.265 88.092 88.092 0 0 1-1.284 1.927c-.297.428-.523.975-.678 1.64-.107.405-.107.895 0 1.472s.34 1.026.696 1.347c.547.559 1.076.814 1.587.767.167 0 .39-.066.67-.197.278-.13.495-.38.65-.749.31-.677.565-1.016.767-1.016.297 0 .458.166.482.5 0 .07-.095.368-.286.891-.107.238-.25.488-.428.75-.226.308-.327.44-.303.392.19.677.505.796.945.356.131-.13.28-.374.446-.731.167-.357.428-.838.785-1.445.416-.701.862-1.272 1.338-1.712.475-.44.897-.797 1.266-1.07.214-.155.476-.333.785-.535.309-.202.725-.41 1.248-.625.416-.166.877-.371 1.383-.615a5.106 5.106 0 0 0 1.346-.936c.547-.535.97-1.195 1.266-1.98.155-.44.215-.981.179-1.623-.107-.405.095-.607.606-.607.38 0 .595.197.642.589 0 1.344-.38 2.568-1.141 3.674.25.761.315 1.594.196 2.497-.107.726-.36 1.501-.758 2.328-.398.826-1.204 1.745-2.417 2.755-2.461 2.046-3.626 4.15-3.495 6.314H33.033z" fill="#000"/><path d="M33.07 32.761c-.036.649-.048.973-.036.973H14.52c-.13-2.165 1.035-4.27 3.496-6.315 1.213-1.01 2.019-1.929 2.417-2.755.398-.827.651-1.603.758-2.328.119-.903.054-1.736-.196-2.497a6.338 6.338 0 0 0 1.141-3.674c-.047-.392-.261-.589-.642-.589-.511 0-.713.202-.606.607.035.642-.024 1.183-.179 1.623-.297.785-.719 1.445-1.266 1.98-.392.38-.841.692-1.347.936-.505.244-.966.449-1.382.615-.523.215-.94.423-1.248.625-.31.202-.571.38-.785.535-.369.273-.79.63-1.266 1.07-.476.44-.922 1.01-1.338 1.712a18.428 18.428 0 0 0-.785 1.445c-.166.357-.315.6-.446.731-.44.44-.755.321-.945-.356-.024.047.077-.084.303-.393.178-.261.321-.511.428-.749.19-.523.286-.82.286-.892-.024-.333-.185-.5-.482-.5-.202 0-.458.34-.767 1.017-.155.369-.372.619-.65.75-.28.13-.503.196-.67.196-.511.047-1.04-.208-1.587-.767-.357-.321-.589-.77-.696-1.347-.107-.577-.107-1.067 0-1.471.155-.666.38-1.213.678-1.641.297-.428.725-1.07 1.284-1.927a81.197 81.197 0 0 0 1.436-2.265 5.342 5.342 0 0 0 .723-1.98 14.233 14.233 0 0 0-.045-.615c-.018-.184.027-.425.134-.722.095-.238.246-.541.454-.91a7.23 7.23 0 0 1 .438-.713c.083-.12.25-.303.499-.553.155.31.273.523.357.642.226.345.505.386.838.125.297-.238.345-.511.143-.82a12.47 12.47 0 0 1-1.356-4.691 12.647 12.647 0 0 1 3.496 2.532c-.262.131-.648.327-1.16.589-.404.202-.499.482-.285.838.214.357.494.416.839.179a9.182 9.182 0 0 1 1.533-.66l-.035.142c0 .428.19.648.57.66.405.048.619-.136.643-.553.07-1.26.558-2.366 1.462-3.317 1.153 1.118 1.712 2.461 1.677 4.03-.048.429.148.643.588.643.38 0 .583-.214.607-.642a8.465 8.465 0 0 0-.143-1.712c1.605.273 3.145.856 4.62 1.748 1.474.891 2.64 1.98 3.495 3.264.571.784 1.1 1.715 1.588 2.79.487 1.077.933 2.376 1.337 3.898.416 1.581.63 3.166.642 4.753a297.65 297.65 0 0 1 0 4.61c0 .75-.017 1.449-.053 2.096z" fill="#fff"/><path d="M14.324 15.13a1.073 1.073 0 0 0-.178-.748l.196-.098.196-.099c.357-.142.464-.404.321-.784-.13-.357-.398-.476-.802-.357-1.403.511-2.372 1.45-2.908 2.818-.083.392.06.66.429.803.368.119.618-.012.749-.393.095-.202.166-.333.214-.392.13.107.303.178.517.214.725.119 1.147-.202 1.266-.963zM8.224 23.745c.072-.356.28-.642.625-.856.32-.238.35-.517.089-.838-.262-.297-.547-.321-.856-.071-.654.463-1.005 1.088-1.053 1.872.012.405.226.583.642.535.381-.035.565-.25.553-.642z" fill="#000"/></svg>