<svg width="40" height="40" fill="none" xmlns="http://www.w3.org/2000/svg"><path d="M20.013 33.841h-9.004a8.658 8.658 0 0 1-.385-2.604c0-1.907.528-3.633 1.586-5.18 1.057-1.546 2.411-2.686 4.062-3.42.819-.085 1.228-.532 1.228-1.338 0-.648-.41-1.119-1.228-1.412-1.137-.82-1.706-1.87-1.706-3.154 0-.954.318-1.782.954-2.485.636-.703 1.406-1.115 2.31-1.238.722-.06 1.082-.47 1.082-1.228 0-.367-.134-.685-.403-.954-.66-.55-.99-1.228-.99-2.035 0-.673.244-1.253.733-1.742a2.4 2.4 0 0 1 1.76-.734 2.37 2.37 0 0 1 1.752.734c.483.489.724 1.07.724 1.742 0 .819-.33 1.497-.99 2.035-.27.293-.404.611-.404.954 0 .758.367 1.167 1.1 1.228.918.122 1.69.535 2.32 1.238.63.703.945 1.531.945 2.485 0 1.283-.569 2.335-1.706 3.154-.819.28-1.228.752-1.228 1.412 0 .806.403 1.253 1.21 1.338 1.675.734 3.038 1.874 4.09 3.42 1.05 1.547 1.576 3.273 1.576 5.18a9.27 9.27 0 0 1-.385 2.604h-9.003zm0 1.229h9.902c.477-1.21.715-2.488.715-3.832 0-2.25-.642-4.276-1.925-6.08-1.284-1.803-2.934-3.09-4.951-3.86a5 5 0 0 0 2.127-1.815c.55-.819.825-1.736.825-2.75 0-1.284-.428-2.397-1.284-3.338-.855-.941-1.907-1.485-3.154-1.632.99-.745 1.485-1.736 1.485-2.97 0-1.027-.366-1.904-1.1-2.632-.733-.727-1.613-1.091-2.64-1.091-1.027 0-1.907.364-2.64 1.091-.734.728-1.101 1.605-1.101 2.632 0 1.234.495 2.224 1.485 2.97-1.247.147-2.298.69-3.154 1.632-.855.941-1.283 2.054-1.283 3.338 0 1.014.275 1.931.825 2.75.55.82 1.253 1.424 2.109 1.816-2.005.77-3.653 2.056-4.942 3.86-1.29 1.803-1.935 3.83-1.935 6.079 0 1.356.245 2.634.734 3.832h9.902z" fill="#000"/><path d="M11.009 33.841H29.016a9.27 9.27 0 0 0 .385-2.604c0-1.907-.525-3.633-1.577-5.18-1.051-1.546-2.414-2.686-4.089-3.42-.807-.085-1.21-.532-1.21-1.338 0-.66.41-1.131 1.228-1.412 1.137-.82 1.706-1.87 1.706-3.154 0-.954-.315-1.782-.945-2.485-.63-.703-1.402-1.116-2.32-1.238-.733-.06-1.1-.47-1.1-1.228 0-.343.135-.66.404-.954.66-.538.99-1.216.99-2.035 0-.673-.241-1.253-.724-1.742a2.37 2.37 0 0 0-1.752-.734 2.4 2.4 0 0 0-1.76.734c-.489.489-.733 1.07-.733 1.742 0 .807.33 1.485.99 2.035.269.269.403.587.403.954 0 .758-.36 1.167-1.082 1.228-.904.123-1.674.535-2.31 1.238a3.583 3.583 0 0 0-.954 2.485c0 1.283.569 2.335 1.706 3.154.819.293 1.228.764 1.228 1.412 0 .806-.41 1.253-1.228 1.338-1.65.734-3.004 1.874-4.062 3.42-1.058 1.547-1.586 3.273-1.586 5.18 0 .917.128 1.785.385 2.604z" fill="#fff"/></svg>