<svg width="40" height="40" fill="none" xmlns="http://www.w3.org/2000/svg"><path d="M20.018 9.784c.666 0 1.23-.234 1.691-.701a2.33 2.33 0 0 0 .693-1.7c0-.654-.231-1.215-.693-1.682a2.286 2.286 0 0 0-1.69-.7c-.655 0-1.218.233-1.692.7a2.28 2.28 0 0 0-.71 1.682 2.3 2.3 0 0 0 .71 1.7c.473.467 1.037.7 1.691.7zm0-1.227c-.782 0-1.174-.391-1.174-1.174 0-.77.392-1.156 1.174-1.156.771 0 1.157.385 1.157 1.156 0 .783-.386 1.174-1.157 1.174zM11.1 26.203c2.255-.572 5.204-.858 8.85-.858 3.738 0 6.722.292 8.954.876l-.263 1.682c-2.278-.537-5.175-.806-8.692-.806-3.493 0-6.343.263-8.551.789l-.298-1.683zm-.438-1.051-1.139-2.015c.56.222 1.133.333 1.717.333 1.566 0 2.816-.637 3.75-1.91.701.584 1.484.876 2.348.876 1.122 0 2.016-.438 2.681-1.314.748.817 1.642 1.226 2.682 1.226.84 0 1.612-.286 2.313-.858.981 1.25 2.248 1.875 3.802 1.875a4.95 4.95 0 0 0 1.77-.333l-1.226 2.102c-2.267-.654-5.38-.98-9.34-.98-4.03 0-7.15.332-9.358.998zm7.85-4.188 1.49-8.57 1.49 8.465a10.585 10.585 0 0 1-.246-.176c-.269-.525-.678-.788-1.227-.788-.595 0-.98.263-1.156.788a2.98 2.98 0 0 1-.35.28zm-4.854.333v-8.114l2.892 7.956a1.847 1.847 0 0 1-.56-.315c-.235-.293-.55-.439-.947-.439-.467 0-.841.205-1.122.614a3.45 3.45 0 0 1-.263.298zm9.849-.246 2.873-7.868v8.009a1.747 1.747 0 0 0-.157-.176c-.234-.49-.62-.736-1.157-.736-.444 0-.806.187-1.086.561l-.473.21zm4.45.982 3.768-6.502-.964 5.923c-.666.468-1.314.701-1.945.701-.245 0-.531-.04-.859-.122zm-15.823.087a3.06 3.06 0 0 1-.894.123c-.712 0-1.378-.222-1.997-.666l-.964-6.063 3.855 6.606zm-1.051 8.867.525-1.98c2.29-.502 5.094-.754 8.411-.754 3.283 0 6.081.252 8.394.754l.543 1.998c-2.173-.654-5.157-.982-8.954-.982-3.703 0-6.677.322-8.92.964zM9.223 33.23c.572.502 1.857.923 3.855 1.262 1.998.339 4.3.508 6.904.508 2.652 0 4.983-.175 6.992-.526 2.01-.35 3.277-.788 3.803-1.314l-1.104-4.206.49-2.75 1.542-2.682 1.49-10.9-.859-.332-4.801 8.096-.105-9.638-1.192-.21-3.662 9.69L20.614 9.8h-1.209l-1.962 10.392-3.628-9.656-1.209.21-.105 9.639-4.819-8.114-.823.386 1.454 10.847 1.56 2.68.49 2.787-1.139 4.258zm1.42-.63c2.137-.889 5.239-1.333 9.304-1.333 4.148 0 7.284.456 9.41 1.367-2.044.806-5.163 1.21-9.357 1.21-2.01 0-3.847-.112-5.511-.334-1.665-.221-2.947-.525-3.847-.91zm16.734-21.94a2.33 2.33 0 0 0 1.7-.692c.467-.462.7-1.025.7-1.691 0-.654-.233-1.215-.7-1.682a2.315 2.315 0 0 0-1.7-.701c-.654 0-1.215.233-1.682.7a2.294 2.294 0 0 0-.7 1.683c0 .666.233 1.23.7 1.69a2.309 2.309 0 0 0 1.682.693zm0-1.227c-.77 0-1.156-.385-1.156-1.156 0-.771.385-1.157 1.156-1.157.783 0 1.174.386 1.174 1.157 0 .77-.391 1.156-1.174 1.156zm-14.72 0c-.782 0-1.173-.385-1.173-1.156 0-.771.39-1.157 1.174-1.157.77 0 1.156.386 1.156 1.157 0 .77-.385 1.156-1.156 1.156zm0 1.227a2.3 2.3 0 0 0 1.692-.692 2.3 2.3 0 0 0 .692-1.691c0-.654-.23-1.215-.692-1.682a2.286 2.286 0 0 0-1.691-.701c-.666 0-1.233.233-1.7.7a2.294 2.294 0 0 0-.701 1.683c0 .666.234 1.23.7 1.69a2.33 2.33 0 0 0 1.7.693zm21.169 1.928a2.3 2.3 0 0 0 1.69-.693 2.3 2.3 0 0 0 .693-1.69c0-.655-.23-1.219-.692-1.692a2.272 2.272 0 0 0-1.691-.71 2.3 2.3 0 0 0-1.7.71 2.323 2.323 0 0 0-.7 1.691c0 .666.233 1.23.7 1.691a2.33 2.33 0 0 0 1.7.693zm0-1.227c-.783 0-1.174-.386-1.174-1.157 0-.782.391-1.174 1.174-1.174.77 0 1.156.392 1.156 1.175 0 .77-.385 1.156-1.156 1.156zm-27.652 0c-.771 0-1.156-.386-1.156-1.157 0-.782.385-1.174 1.156-1.174.783 0 1.174.392 1.174 1.175 0 .77-.391 1.156-1.174 1.156zm0 1.227a2.33 2.33 0 0 0 1.7-.693c.467-.461.7-1.025.7-1.69 0-.655-.233-1.219-.7-1.692a2.3 2.3 0 0 0-1.7-.71 2.28 2.28 0 0 0-1.682.71 2.323 2.323 0 0 0-.701 1.691c0 .666.234 1.23.7 1.691a2.309 2.309 0 0 0 1.683.693z" fill="#000"/><path d="M5.019 10.204c0 .771.385 1.157 1.156 1.157.783 0 1.174-.386 1.174-1.157 0-.782-.391-1.174-1.174-1.174-.771 0-1.156.392-1.156 1.175zM11.485 8.277c0 .77.39 1.156 1.174 1.156.77 0 1.156-.385 1.156-1.156 0-.771-.385-1.157-1.156-1.157-.783 0-1.175.386-1.175 1.157zM18.844 7.383c0 .783.392 1.174 1.174 1.174.771 0 1.157-.391 1.157-1.174 0-.77-.386-1.156-1.157-1.156-.782 0-1.174.385-1.174 1.156zM26.222 8.277c0 .77.385 1.156 1.156 1.156.783 0 1.174-.385 1.174-1.156 0-.771-.391-1.157-1.174-1.157-.77 0-1.156.386-1.156 1.157zM32.653 10.204c0 .771.391 1.157 1.174 1.157.77 0 1.156-.386 1.156-1.157 0-.782-.385-1.174-1.156-1.174-.783 0-1.174.392-1.174 1.175zM31.724 15.531l-3.768 6.502c.328.081.614.122.86.122.63 0 1.278-.233 1.944-.7l.964-5.923zM26.38 13.183l-2.874 7.868.473-.21c.28-.374.642-.56 1.086-.56.537 0 .923.245 1.157.735.07.07.122.129.157.176v-8.009zM20 12.395l-1.489 8.569c.164-.117.28-.21.351-.28.175-.526.56-.79 1.157-.79.549 0 .957.264 1.226.79l.245.175L20 12.395zM13.657 13.183v8.114a3.45 3.45 0 0 0 .263-.298c.28-.41.655-.613 1.122-.613.397 0 .713.146.946.438.152.128.339.233.56.315l-2.89-7.956zM11.24 22.243c.326 0 .624-.04.893-.123l-3.855-6.606.964 6.063c.619.444 1.285.666 1.997.666zM9.522 23.137l1.139 2.015c2.208-.666 5.327-.999 9.358-.999 3.96 0 7.073.327 9.34.981l1.226-2.102a4.95 4.95 0 0 1-1.77.332c-1.553 0-2.821-.625-3.802-1.875-.701.573-1.472.86-2.313.86-1.04 0-1.934-.41-2.681-1.227-.666.876-1.56 1.314-2.682 1.314-.864 0-1.647-.292-2.348-.876-.934 1.273-2.184 1.91-3.75 1.91-.584 0-1.156-.111-1.717-.333zM19.948 25.345c-3.645 0-6.594.286-8.849.858l.298 1.683c2.208-.526 5.058-.789 8.551-.789 3.517 0 6.414.269 8.692.806l.263-1.682c-2.232-.584-5.216-.876-8.955-.876zM11.607 29.007l-.525 1.98c2.242-.642 5.216-.964 8.919-.964 3.797 0 6.781.328 8.954.982l-.543-1.998c-2.313-.502-5.11-.754-8.394-.754-3.317 0-6.121.252-8.41.754zM19.948 31.267c-4.065 0-7.167.444-9.305 1.332.9.386 2.182.69 3.847.912 1.664.221 3.501.332 5.51.332 4.195 0 7.314-.403 9.358-1.209-2.126-.91-5.262-1.367-9.41-1.367z" fill="#fff"/></svg>