<svg width="40" height="40" fill="none" xmlns="http://www.w3.org/2000/svg"><path d="M17.482 7.51h-3.114V5H9.35v6.868L13.416 15v8.755l-3.114 3.113v3.755H7.5V35h25v-4.377h-2.802v-3.755l-3.132-3.113V15l4.066-3.132V5h-5v2.51H22.5V5h-5.018v2.51zM8.727 31.867h22.528v1.886H8.727v-1.886zm2.839-3.736h16.85v2.49h-16.85v-2.49zM14.68 15h10.622v8.755H14.68V15zm-4.066-4.377V6.245h2.509v2.51h5.64v-2.51h2.473v2.51h5.623v-2.51h2.51v4.378H10.613zm1.41 16.245L13.91 25h12.143l1.923 1.868H12.024zm2.015-13.113-2.326-1.887h16.556l-2.344 1.886H14.04z" fill="#000"/><path d="M10.614 6.245v4.378h18.754V6.245H26.86v2.51h-5.623v-2.51h-2.472v2.51h-5.641v-2.51h-2.51zM11.713 11.868l2.326 1.886h11.886l2.344-1.886H11.713zM25.302 15H14.68v8.755h10.622V15zM13.91 25l-1.886 1.868h15.952L26.053 25H13.91zM28.416 28.132h-16.85v2.49h16.85v-2.49zM31.255 31.868H8.727v1.886h22.528v-1.886z" fill="#fff"/></svg>