<svg width="25" height="24" viewBox="0 0 25 24" fill="none" xmlns="http://www.w3.org/2000/svg">
<path fill-rule="evenodd" clip-rule="evenodd" d="M7.5 5C7.5 2.79086 9.29086 1 11.5 1C13.7091 1 15.5 2.79086 15.5 5H20.5C21.0523 5 21.5 5.44772 21.5 6V10.1707V11H19.5C18.3954 11 17.5 11.8954 17.5 13C17.5 14.1046 18.3954 15 19.5 15H21.5V15.8293V20V21H20.5H4.5H3.5V20V6V5H4.5H7.5ZM9.5 5C9.5 3.89543 10.3954 3 11.5 3C12.6046 3 13.5 3.89543 13.5 5V7H14.3293H19.5V9C17.2909 9 15.5 10.7909 15.5 13C15.5 15.2091 17.2909 17 19.5 17V19H5.5V7H9.5V5Z" fill="white"/>
</svg>
