<svg width="109" height="108" viewBox="0 0 109 108" fill="none" xmlns="http://www.w3.org/2000/svg">
<circle cx="54.5" cy="54" r="54" fill="#AEAEB2" fill-opacity="0.1"/>
<path fill-rule="evenodd" clip-rule="evenodd" d="M22.2578 97.3242V49.4922C22.2578 43.9693 26.735 39.4922 32.2578 39.4922H76.7354C82.2583 39.4922 86.7354 43.9693 86.7354 49.4922V97.3242C77.7381 104.03 66.5809 108 54.4966 108C42.4123 108 31.2552 104.03 22.2578 97.3242Z" fill="white"/>
<path fill-rule="evenodd" clip-rule="evenodd" d="M21.5078 96.755V49.4922C21.5078 43.5551 26.3208 38.7422 32.2578 38.7422H76.7354C82.6725 38.7422 87.4854 43.5551 87.4854 49.4922V96.755C86.9921 97.1362 86.4921 97.509 85.9854 97.8733V49.4922C85.9854 44.3836 81.8441 40.2422 76.7354 40.2422H32.2578C27.1492 40.2422 23.0078 44.3836 23.0078 49.4922V97.8733C22.5012 97.509 22.0011 97.1362 21.5078 96.755Z" fill="black"/>
<path fill-rule="evenodd" clip-rule="evenodd" d="M60.8842 74.3634L48.8634 86.3842L48.1562 85.6771L60.1771 73.6562L60.8842 74.3634Z" fill="#E33F45"/>
<path fill-rule="evenodd" clip-rule="evenodd" d="M60.1771 86.3842L48.1562 74.3634L48.8634 73.6562L60.8842 85.6771L60.1771 86.3842Z" fill="#E33F45"/>
</svg>
