<svg width="108" height="108" viewBox="0 0 108 108" fill="none" xmlns="http://www.w3.org/2000/svg">
<circle cx="54" cy="54" r="54" fill="#AEAEB2" fill-opacity="0.1"/>
<path fill-rule="evenodd" clip-rule="evenodd" d="M21.75 97.582V49.75C21.75 44.2272 26.2272 39.75 31.75 39.75H76.2276C81.7505 39.75 86.2276 44.2272 86.2276 49.75V97.582C77.2303 104.288 66.0731 108.257 53.9888 108.257C41.9045 108.257 30.7474 104.288 21.75 97.582Z" fill="white"/>
<path fill-rule="evenodd" clip-rule="evenodd" d="M21 97.0128V49.75C21 43.8129 25.8129 39 31.75 39H76.2276C82.1647 39 86.9776 43.8129 86.9776 49.75V97.0128C86.4843 97.394 85.9843 97.7668 85.4776 98.1311V49.75C85.4776 44.6414 81.3363 40.5 76.2276 40.5H31.75C26.6414 40.5 22.5 44.6414 22.5 49.75V98.1311C21.9934 97.7668 21.4933 97.394 21 97.0128Z" fill="black"/>
<path d="M45.55 76.97L43.65 72.41H42L45.55 79.82L49.1 72.41H47.44L45.55 76.97Z" fill="#34C759"/>
<path d="M51.9333 77.82H55.6333L55.4633 76.69H52.1033L51.9333 77.82ZM53.7633 74.68L54.8133 77.11L54.7933 77.47L55.6933 79.41H57.3133L53.7633 72L50.2133 79.41H51.8233L52.7433 77.41L52.7133 77.09L53.7633 74.68Z" fill="#34C759"/>
<path d="M61.7627 76.15L63.8627 79.41H65.5527L63.2727 76.15H61.7627ZM60.1727 72.41V79.41H61.6027V72.41H60.1727ZM61.0427 73.63H62.4327C62.686 73.63 62.9027 73.6733 63.0827 73.76C63.2693 73.84 63.4127 73.96 63.5127 74.12C63.6127 74.2733 63.6627 74.46 63.6627 74.68C63.6627 74.9 63.6127 75.09 63.5127 75.25C63.4127 75.4033 63.2693 75.5233 63.0827 75.61C62.9027 75.69 62.686 75.73 62.4327 75.73H61.0427V76.87H62.5227C63.076 76.87 63.546 76.7767 63.9327 76.59C64.3193 76.4033 64.616 76.1433 64.8227 75.81C65.0293 75.47 65.1327 75.08 65.1327 74.64C65.1327 74.1933 65.0293 73.8033 64.8227 73.47C64.616 73.1367 64.3193 72.8767 63.9327 72.69C63.546 72.5033 63.076 72.41 62.5227 72.41H61.0427V73.63Z" fill="#34C759"/>
</svg>
