<svg xmlns="http://www.w3.org/2000/svg" width="40" height="40" xml:space="preserve"><g><path style="stroke:#000;stroke-width:1.5;stroke-dasharray:none;stroke-linecap:butt;stroke-dashoffset:0;stroke-linejoin:round;stroke-miterlimit:4;fill:#000;fill-rule:evenodd;opacity:1" vector-effect="non-scaling-stroke" transform="matrix(.89 0 0 .89 -.025 .509)" d="M9 36c3.39-.97 10.11.43 13.5-2 3.39 2.43 10.11 1.03 13.5 2 0 0 1.65.54 3 2-.68.97-1.65.99-3 .5-3.39-.97-10.11.46-13.5-1-3.39 1.46-10.11.03-13.5 1-1.35.49-2.32.47-3-.5 1.35-1.46 3-2 3-2z"/><path style="stroke:#000;stroke-width:1.5;stroke-dasharray:none;stroke-linecap:butt;stroke-dashoffset:0;stroke-linejoin:round;stroke-miterlimit:4;fill:#000;fill-rule:evenodd;opacity:1" vector-effect="non-scaling-stroke" transform="matrix(.89 0 0 .89 -.025 .509)" d="M15 32c2.5 2.5 12.5 2.5 15 0 .5-1.5 0-2 0-2 0-2.5-2.5-4-2.5-4 5.5-1.5 6-11.5-5-15.5-11 4-10.5 14-5 15.5 0 0-2.5 1.5-2.5 4 0 0-.5.5 0 2z"/><path style="stroke:#000;stroke-width:1.5;stroke-dasharray:none;stroke-linecap:butt;stroke-dashoffset:0;stroke-linejoin:round;stroke-miterlimit:4;fill:#000;fill-rule:evenodd;opacity:1" vector-effect="non-scaling-stroke" transform="matrix(.89 0 0 .89 -.025 .509)" d="M25 8a2.5 2.5 0 1 1-5 0 2.5 2.5 0 0 1 5 0z"/><path style="stroke:#fff;stroke-width:1.5;stroke-dasharray:none;stroke-linecap:round;stroke-dashoffset:0;stroke-linejoin:miter;stroke-miterlimit:4;fill:none;fill-rule:evenodd;opacity:1" vector-effect="non-scaling-stroke" transform="matrix(.89 0 0 .89 -.025 .509)" d="M17.5 26h10M15 30h15m-7.5-14.5v5M20 18h5"/></g></svg>