<svg xmlns="http://www.w3.org/2000/svg" width="40" height="40" xml:space="preserve"><path style="stroke:#000;stroke-width:1.5;stroke-dasharray:none;stroke-linecap:round;stroke-dashoffset:0;stroke-linejoin:miter;stroke-miterlimit:4;fill:#000;fill-rule:nonzero;opacity:1" vector-effect="non-scaling-stroke" transform="translate(8.69 5)" d="M11.311 0a3.933 3.933 0 0 0-3.934 3.934c0 .876.285 1.682.767 2.341-1.918 1.102-3.226 3.158-3.226 5.528a6.35 6.35 0 0 0 2.37 4.948C4.338 17.793 0 22.21 0 30h22.623c0-7.79-4.338-12.207-7.289-13.25a6.35 6.35 0 0 0 2.371-4.947c0-2.37-1.308-4.426-3.226-5.528a3.948 3.948 0 0 0 .767-2.34A3.933 3.933 0 0 0 11.312 0z"/></svg>