<svg xmlns="http://www.w3.org/2000/svg" width="40" height="40" xml:space="preserve"><g><path style="stroke:#000;stroke-width:1.5;stroke-dasharray:none;stroke-linecap:butt;stroke-dashoffset:0;stroke-linejoin:round;stroke-miterlimit:4;fill:#000;fill-rule:nonzero;opacity:1" vector-effect="non-scaling-stroke" transform="matrix(.83 0 0 .83 1.325 .757)" d="M9 26c8.5-1.5 21-1.5 27 0l2.5-12.5L31 25l-.3-14.1-5.2 13.6-3-14.5-3 14.5-5.2-13.6L14 25 6.5 13.5 9 26z"/><path style="stroke:#000;stroke-width:1.5;stroke-dasharray:none;stroke-linecap:round;stroke-dashoffset:0;stroke-linejoin:round;stroke-miterlimit:4;fill:#000;fill-rule:nonzero;opacity:1" vector-effect="non-scaling-stroke" transform="matrix(.83 0 0 .83 1.325 .757)" d="M9 26c0 2 1.5 2 2.5 4 1 1.5 1 1 .5 3.5-1.5 1-1 2.5-1 2.5-1.5 1.5 0 2.5 0 2.5 6.5 1 16.5 1 23 0 0 0 1.5-1 0-2.5 0 0 .5-1.5-1-2.5-.5-2.5-.5-2 .5-3.5 1-2 2.5-2 2.5-4-8.5-1.5-18.5-1.5-27 0z"/><path style="stroke:#000;stroke-width:1.5;stroke-dasharray:none;stroke-linecap:round;stroke-dashoffset:0;stroke-linejoin:round;stroke-miterlimit:4;fill:#000;fill-rule:nonzero;opacity:1" vector-effect="non-scaling-stroke" transform="matrix(.83 0 0 .83 1.325 .75)" d="M11.5 30c3.5-1 18.5-1 22 0M12 33.5c6-1 15-1 21 0"/><path style="stroke:#000;stroke-width:1.5;stroke-dasharray:none;stroke-linecap:butt;stroke-dashoffset:0;stroke-linejoin:miter;stroke-miterlimit:4;fill:#000;fill-rule:nonzero;opacity:1" vector-effect="non-scaling-stroke" transform="matrix(.83 0 0 .83 4.645 9.057)" d="M0 2a2 2 0 1 1 4 0 2 2 0 0 1-4 0z"/><path style="stroke:#000;stroke-width:1.5;stroke-dasharray:none;stroke-linecap:butt;stroke-dashoffset:0;stroke-linejoin:miter;stroke-miterlimit:4;fill:#000;fill-rule:nonzero;opacity:1" vector-effect="non-scaling-stroke" transform="matrix(.83 0 0 .83 11.285 6.567)" d="M0 2a2 2 0 1 1 4 0 2 2 0 0 1-4 0z"/><path style="stroke:#000;stroke-width:1.5;stroke-dasharray:none;stroke-linecap:butt;stroke-dashoffset:0;stroke-linejoin:miter;stroke-miterlimit:4;fill:#000;fill-rule:nonzero;opacity:1" vector-effect="non-scaling-stroke" transform="matrix(.83 0 0 .83 18.34 5.737)" d="M0 2a2 2 0 1 1 4 0 2 2 0 0 1-4 0z"/><path style="stroke:#000;stroke-width:1.5;stroke-dasharray:none;stroke-linecap:butt;stroke-dashoffset:0;stroke-linejoin:miter;stroke-miterlimit:4;fill:#000;fill-rule:nonzero;opacity:1" vector-effect="non-scaling-stroke" transform="matrix(.83 0 0 .83 25.395 6.567)" d="M0 2a2 2 0 1 1 4 0 2 2 0 0 1-4 0z"/><path style="stroke:#000;stroke-width:1.5;stroke-dasharray:none;stroke-linecap:butt;stroke-dashoffset:0;stroke-linejoin:miter;stroke-miterlimit:4;fill:#000;fill-rule:nonzero;opacity:1" vector-effect="non-scaling-stroke" transform="matrix(.83 0 0 .83 32.035 9.057)" d="M0 2a2 2 0 1 1 4 0 2 2 0 0 1-4 0z"/><path style="stroke:#000;stroke-width:1.5;stroke-dasharray:none;stroke-linecap:butt;stroke-dashoffset:0;stroke-linejoin:round;stroke-miterlimit:4;fill:none;fill-rule:nonzero;opacity:1" vector-effect="non-scaling-stroke" transform="matrix(.83 0 0 .83 1.325 .757)" d="M11 38.5a35 35 0 0 0 23 0"/><path style="stroke:#fff;stroke-width:1.5;stroke-dasharray:none;stroke-linecap:round;stroke-dashoffset:0;stroke-linejoin:round;stroke-miterlimit:4;fill:none;fill-rule:nonzero;opacity:1" vector-effect="non-scaling-stroke" transform="matrix(.83 0 0 .83 1.325 .757)" d="M11 29a35 35 0 0 1 23 0M12.5 31.5h20M11.5 34.5a35 35 0 0 0 22 0M10.5 37.5a35 35 0 0 0 24 0"/></g></svg>