<svg xmlns="http://www.w3.org/2000/svg" width="40" height="40" xml:space="preserve"><g><path style="stroke:#000;stroke-width:1.5;stroke-dasharray:none;stroke-linecap:butt;stroke-dashoffset:0;stroke-linejoin:round;stroke-miterlimit:4;fill:#000;fill-rule:evenodd;opacity:1" vector-effect="non-scaling-stroke" transform="matrix(.89 0 0 .89 -.025 .242)" d="M9 39h27v-3H9v3zM12.5 32l1.5-2.5h17l1.5 2.5h-20zM12 36v-4h21v4H12z"/><path style="stroke:#000;stroke-width:1.5;stroke-dasharray:none;stroke-linecap:butt;stroke-dashoffset:0;stroke-linejoin:miter;stroke-miterlimit:4;fill:#000;fill-rule:evenodd;opacity:1" vector-effect="non-scaling-stroke" transform="matrix(.89 0 0 .89 -.025 .242)" d="M14 29.5v-13h17v13H14z"/><path style="stroke:#000;stroke-width:1.5;stroke-dasharray:none;stroke-linecap:butt;stroke-dashoffset:0;stroke-linejoin:round;stroke-miterlimit:4;fill:#000;fill-rule:evenodd;opacity:1" vector-effect="non-scaling-stroke" transform="matrix(.89 0 0 .89 -.025 .242)" d="M14 16.5 11 14h23l-3 2.5H14zM11 14V9h4v2h5V9h5v2h5V9h4v5H11z"/><path style="stroke:#fff;stroke-width:1;stroke-dasharray:none;stroke-linecap:round;stroke-dashoffset:0;stroke-linejoin:miter;stroke-miterlimit:4;fill:none;fill-rule:evenodd;opacity:1" vector-effect="non-scaling-stroke" transform="matrix(.89 0 0 .89 -.025 .242)" d="M12 35.5h21M13 31.5h19M14 29.5h17M14 16.5h17M11 14h23"/></g></svg>