<svg xmlns="http://www.w3.org/2000/svg" width="40" height="40" xml:space="preserve"><g><path style="stroke:#000;stroke-width:1.5;stroke-dasharray:none;stroke-linecap:round;stroke-dashoffset:0;stroke-linejoin:round;stroke-miterlimit:4;fill:#fff;fill-rule:evenodd;opacity:1" vector-effect="non-scaling-stroke" transform="matrix(.89 0 0 .89 -.025 .242)" d="M22 10c10.5 1 16.5 8 16 29H15c0-9 10-6.5 8-21"/><path style="stroke:#000;stroke-width:1.5;stroke-dasharray:none;stroke-linecap:round;stroke-dashoffset:0;stroke-linejoin:round;stroke-miterlimit:4;fill:#fff;fill-rule:evenodd;opacity:1" vector-effect="non-scaling-stroke" transform="matrix(.89 0 0 .89 -.025 .242)" d="M24 18c.38 2.91-5.55 7.37-8 9-3 2-2.82 4.34-5 4-1.042-.94 1.41-3.04 0-3-1 0 .19 1.23-1 2-1 0-4.003 1-4-4 0-2 6-12 6-12s1.89-1.9 2-3.5c-.73-.994-.5-2-.5-3 1-1 3 2.5 3 2.5h2s.78-1.992 2.5-3c1 0 1 3 1 3"/><path style="stroke:#000;stroke-width:1.5;stroke-dasharray:none;stroke-linecap:round;stroke-dashoffset:0;stroke-linejoin:round;stroke-miterlimit:4;fill:#000;fill-rule:evenodd;opacity:1" vector-effect="non-scaling-stroke" transform="matrix(.89 0 0 .89 -.025 .242)" d="M9.5 25.5a.5.5 0 1 1-1 0 .5.5 0 0 1 1 0z"/><path style="stroke:#000;stroke-width:1.5;stroke-dasharray:none;stroke-linecap:round;stroke-dashoffset:0;stroke-linejoin:round;stroke-miterlimit:4;fill:#000;fill-rule:evenodd;opacity:1" vector-effect="non-scaling-stroke" transform="matrix(.77 .45 -.45 .77 8.55 -4.417)" d="M15 15.5c0 .828-.224 1.5-.5 1.5s-.5-.672-.5-1.5.224-1.5.5-1.5.5.672.5 1.5z"/></g></svg>