<svg xmlns="http://www.w3.org/2000/svg" width="40" height="40" xml:space="preserve"><g><path style="stroke:#000;stroke-width:1.5;stroke-dasharray:none;stroke-linecap:butt;stroke-dashoffset:0;stroke-linejoin:round;stroke-miterlimit:4;fill:#fff;fill-rule:nonzero;opacity:1" vector-effect="non-scaling-stroke" transform="matrix(.86 0 0 .86 .65 .538)" d="M9 26c8.5-1.5 21-1.5 27 0l2.5-12.5L31 25l-.3-14.1-5.2 13.6-3-14.5-3 14.5-5.2-13.6L14 25 6.5 13.5 9 26z"/><path style="stroke:#000;stroke-width:1.5;stroke-dasharray:none;stroke-linecap:butt;stroke-dashoffset:0;stroke-linejoin:round;stroke-miterlimit:4;fill:#fff;fill-rule:nonzero;opacity:1" vector-effect="non-scaling-stroke" transform="matrix(.86 0 0 .86 .65 .547)" d="M9 26c0 2 1.5 2 2.5 4 1 1.5 1 1 .5 3.5-1.5 1-1 2.5-1 2.5-1.5 1.5 0 2.5 0 2.5 6.5 1 16.5 1 23 0 0 0 1.5-1 0-2.5 0 0 .5-1.5-1-2.5-.5-2.5-.5-2 .5-3.5 1-2 2.5-2 2.5-4-8.5-1.5-18.5-1.5-27 0z"/><path style="stroke:#000;stroke-width:1.5;stroke-dasharray:none;stroke-linecap:butt;stroke-dashoffset:0;stroke-linejoin:round;stroke-miterlimit:4;fill:none;fill-rule:nonzero;opacity:1" vector-effect="non-scaling-stroke" transform="matrix(.86 0 0 .86 .65 .538)" d="M11.5 30c3.5-1 18.5-1 22 0M12 33.5c6-1 15-1 21 0"/><path style="stroke:#000;stroke-width:1.5;stroke-dasharray:none;stroke-linecap:butt;stroke-dashoffset:0;stroke-linejoin:miter;stroke-miterlimit:4;fill:#fff;fill-rule:nonzero;opacity:1" vector-effect="non-scaling-stroke" transform="matrix(.86 0 0 .86 4.09 9.138)" d="M0 2a2 2 0 1 1 4 0 2 2 0 0 1-4 0z"/><path style="stroke:#000;stroke-width:1.5;stroke-dasharray:none;stroke-linecap:butt;stroke-dashoffset:0;stroke-linejoin:miter;stroke-miterlimit:4;fill:#fff;fill-rule:nonzero;opacity:1" vector-effect="non-scaling-stroke" transform="matrix(.86 0 0 .86 10.97 6.558)" d="M0 2a2 2 0 1 1 4 0 2 2 0 0 1-4 0z"/><path style="stroke:#000;stroke-width:1.5;stroke-dasharray:none;stroke-linecap:butt;stroke-dashoffset:0;stroke-linejoin:miter;stroke-miterlimit:4;fill:#fff;fill-rule:nonzero;opacity:1" vector-effect="non-scaling-stroke" transform="matrix(.86 0 0 .86 18.28 5.698)" d="M0 2a2 2 0 1 1 4 0 2 2 0 0 1-4 0z"/><path style="stroke:#000;stroke-width:1.5;stroke-dasharray:none;stroke-linecap:butt;stroke-dashoffset:0;stroke-linejoin:miter;stroke-miterlimit:4;fill:#fff;fill-rule:nonzero;opacity:1" vector-effect="non-scaling-stroke" transform="matrix(.86 0 0 .86 25.59 6.558)" d="M0 2a2 2 0 1 1 4 0 2 2 0 0 1-4 0z"/><path style="stroke:#000;stroke-width:1.5;stroke-dasharray:none;stroke-linecap:butt;stroke-dashoffset:0;stroke-linejoin:miter;stroke-miterlimit:4;fill:#fff;fill-rule:nonzero;opacity:1" vector-effect="non-scaling-stroke" transform="matrix(.86 0 0 .86 32.47 9.138)" d="M0 2a2 2 0 1 1 4 0 2 2 0 0 1-4 0z"/></g></svg>