<svg width="40" height="40" viewBox="0 0 40 40" fill="none" xmlns="http://www.w3.org/2000/svg">
<g clip-path="url(#clip0_4622_3920)">
<path d="M20 39.6319C30.8424 39.6319 39.6319 30.8424 39.6319 20C39.6319 9.1576 30.8424 0.368098 20 0.368098C9.1576 0.368098 0.368098 9.1576 0.368098 20C0.368098 30.8424 9.1576 39.6319 20 39.6319Z" fill="#050505"/>
<path fill-rule="evenodd" clip-rule="evenodd" d="M20 0.736196C9.3609 0.736196 0.736196 9.3609 0.736196 20C0.736196 30.6391 9.3609 39.2638 20 39.2638C30.6391 39.2638 39.2638 30.6391 39.2638 20C39.2638 9.3609 30.6391 0.736196 20 0.736196ZM0 20C0 8.9543 8.9543 0 20 0C31.0457 0 40 8.9543 40 20C40 31.0457 31.0457 40 20 40C8.9543 40 0 31.0457 0 20Z" fill="white"/>
<path fill-rule="evenodd" clip-rule="evenodd" d="M19.4294 10.5038C19.6338 9.98637 20.3662 9.98638 20.5706 10.5038L24.0901 19.4125L28.3999 16.1288C28.8294 15.8016 29.4417 16.1488 29.3813 16.6854L28.3658 25.7128C28.3309 26.0231 28.0684 26.2577 27.7561 26.2577H12.2439C11.9316 26.2577 11.6691 26.0231 11.6342 25.7128L10.6187 16.6854C10.5583 16.1488 11.1706 15.8016 11.6001 16.1288L15.9099 19.4125L19.4294 10.5038Z" fill="white"/>
</g>
<defs>
<clipPath id="clip0_4622_3920">
<rect width="40" height="40" fill="white"/>
</clipPath>
</defs>
</svg>
