<svg width="40" height="40" viewBox="0 0 40 40" fill="none" xmlns="http://www.w3.org/2000/svg">
<g clip-path="url(#clip0_4622_3916)">
<path d="M20 39.6319C30.8424 39.6319 39.6319 30.8424 39.6319 20C39.6319 9.1576 30.8424 0.368098 20 0.368098C9.1576 0.368098 0.368098 9.1576 0.368098 20C0.368098 30.8424 9.1576 39.6319 20 39.6319Z" fill="white"/>
<path fill-rule="evenodd" clip-rule="evenodd" d="M20 0.736196C9.3609 0.736196 0.736196 9.3609 0.736196 20C0.736196 30.6391 9.3609 39.2638 20 39.2638C30.6391 39.2638 39.2638 30.6391 39.2638 20C39.2638 9.3609 30.6391 0.736196 20 0.736196ZM0 20C0 8.95431 8.95431 0 20 0C31.0457 0 40 8.95431 40 20C40 31.0457 31.0457 40 20 40C8.95431 40 0 31.0457 0 20Z" fill="#050505"/>
<path fill-rule="evenodd" clip-rule="evenodd" d="M19.4598 10.2538C19.6643 9.73639 20.3966 9.7364 20.601 10.2538L24.1205 19.1625L28.4303 15.8789C28.8598 15.5516 29.4721 15.8988 29.4118 16.4354L28.3962 25.4628C28.3613 25.7731 28.0988 26.0077 27.7865 26.0077H12.2743C11.962 26.0077 11.6996 25.7731 11.6646 25.4628L10.6491 16.4354C10.5887 15.8988 11.201 15.5516 11.6305 15.8789L15.9403 19.1625L19.4598 10.2538Z" fill="#050505"/>
</g>
<defs>
<clipPath id="clip0_4622_3916">
<rect width="40" height="40" fill="white"/>
</clipPath>
</defs>
</svg>
