<svg width="40" height="40" viewBox="0 0 40 40" fill="none" xmlns="http://www.w3.org/2000/svg">
<g clip-path="url(#clip0_4622_3913)">
<path d="M20 39.6319C30.8424 39.6319 39.6319 30.8424 39.6319 20C39.6319 9.1576 30.8424 0.368098 20 0.368098C9.1576 0.368098 0.368098 9.1576 0.368098 20C0.368098 30.8424 9.1576 39.6319 20 39.6319Z" fill="white"/>
<path fill-rule="evenodd" clip-rule="evenodd" d="M20 0.736196C9.3609 0.736196 0.736196 9.3609 0.736196 20C0.736196 30.6391 9.3609 39.2638 20 39.2638C30.6391 39.2638 39.2638 30.6391 39.2638 20C39.2638 9.3609 30.6391 0.736196 20 0.736196ZM0 20C0 8.95431 8.95431 0 20 0C31.0457 0 40 8.95431 40 20C40 31.0457 31.0457 40 20 40C8.95431 40 0 31.0457 0 20Z" fill="#050505"/>
<path fill-rule="evenodd" clip-rule="evenodd" d="M20 4.66258C18.5453 4.66258 17.1385 4.86499 15.806 5.24296C9.37379 7.06738 4.66258 12.984 4.66258 20C4.66258 28.4706 11.5294 35.3374 20 35.3374C28.4706 35.3374 35.3374 28.4706 35.3374 20C35.3374 12.984 30.6262 7.06738 24.194 5.24296C22.8615 4.86499 21.4547 4.66258 20 4.66258ZM15.6051 4.5347C17.0024 4.13838 18.4767 3.92638 20 3.92638C21.5233 3.92638 22.9976 4.13838 24.3949 4.5347C31.1354 6.44658 36.0736 12.6461 36.0736 20C36.0736 28.8772 28.8772 36.0736 20 36.0736C11.1228 36.0736 3.92638 28.8772 3.92638 20C3.92638 12.6461 8.86456 6.44658 15.6051 4.5347Z" fill="#050505"/>
</g>
<defs>
<clipPath id="clip0_4622_3913">
<rect width="40" height="40" fill="white"/>
</clipPath>
</defs>
</svg>
