<svg xmlns="http://www.w3.org/2000/svg" width="40" height="40" xml:space="preserve"><path style="stroke:none;stroke-width:10;stroke-dasharray:none;stroke-linecap:butt;stroke-dashoffset:0;stroke-linejoin:miter;stroke-miterlimit:4;fill:#000;fill-rule:nonzero;opacity:1" vector-effect="non-scaling-stroke" transform="matrix(1 0 0 -1 4.33 35)" d="M17.886 2.44c-.18.113-.435.35-.764.712-.056.056-.113.11-.17.16a1.74 1.74 0 0 0-.17.178.51.51 0 0 1-.271.085c-.59 0-.81-.22-.663-.66.068-.102.097-.147.085-.136.08-.08.351-.333.815-.763.215-.203.42-.35.612-.44a.55.55 0 0 1 .305-.102c.34 0 .51.17.51.509 0 .135-.096.288-.289.457zm1.291 8.622-.305 1.169c-.895.248-1.965.372-3.21.372-1.144 0-2.17-.113-3.075-.338l-.34-1.17c.986.26 2.124.39 3.414.39 1.382 0 2.554-.14 3.516-.423zm-1.851-1.846-1.648-.678-1.63.678 1.63.677zm1.92.88c-.963.26-2.141.39-3.534.39-1.302 0-2.452-.119-3.448-.356l-.238-.66 1.444-.322-1.495-.949-.322.068-.408-1.22c.238.249.776.458 1.614.627.838.17 1.806.254 2.904.254 1.076 0 2.03-.084 2.862-.254.833-.17 1.373-.372 1.622-.61l-.425 1.22-.424-.085-1.495.949 1.529.322zm-.561 8.86v1.897h-2.039v2.642h-1.885v-2.642h-2.073v-1.898h2.073v-3.777h1.885v3.777zM13.402 2.44a.583.583 0 0 1-.187-.423c0-.34.17-.509.51-.509.102 0 .192.029.272.085.192.102.379.243.56.424.408.384.69.643.85.779.022.022.033.062.033.118 0 .44-.22.66-.662.66a.308.308 0 0 1-.221-.101 3.885 3.885 0 0 0-.374-.322 2.128 2.128 0 0 1-.365-.347 1.905 1.905 0 0 0-.416-.364zm8.646 15.448c.158.61-.017 1.745-.526 3.405-.51 1.66-1.303 3.049-2.378 4.167a.617.617 0 0 1-.425.135.903.903 0 0 1-.544-.237c-.17-.147-.192-.322-.068-.525 1.325-.87 2.316-2.075 2.973-3.616.656-1.542.98-2.651.968-3.329zM15.66 1.813C14.823.605 13.691.001 12.264.001c-.147 0-.291.008-.433.025-.142.017-.28.032-.416.043-.328.011-.81.07-1.444.178C9.337.354 8.63.605 7.848 1c-.69.599-1.568.898-2.633.898-.815 0-1.523-.192-2.123-.576-.17-.079-.38-.242-.628-.49C2.01.345 1.643.08 1.36.034c-.227.113-.346.305-.357.576-.057.53.334 1.214 1.172 2.05a8.816 8.816 0 0 1-.833-.204c-.34-.101-.566-.152-.68-.152-.373-.057-.57-.062-.593-.017-.125.124-.08.378.136.762.18.328.532.616 1.053.864.068.034.283.13.645.288a7.025 7.025 0 0 0 3.313.83c1.687 0 3.21-.57 4.569-1.71a5.196 5.196 0 0 1 1.647-.271c1.699 0 2.577.7 2.633 2.1-1.098.102-2.013.288-2.743.56-.73.27-1.096.586-1.096.948l1.36 4.505a23.318 23.318 0 0 0-1.971 3.795c-.521 1.287-.781 2.507-.781 3.658 0 3.456 1.88 6.11 5.639 7.962 0 .146.017.367.05.66a1.49 1.49 0 0 0-.577 1.203c0 1.039.526 1.558 1.58 1.558 1.041 0 1.562-.52 1.562-1.558 0-.452-.164-.83-.492-1.135 0-.35.045-.587.136-.712a.94.94 0 0 1 .764-.423c.329.011.6.158.816.44.045.068.09.277.136.627-.295.305-.442.683-.442 1.135 0 1.061.532 1.592 1.597 1.592 1.064 0 1.596-.53 1.596-1.592 0-.599-.26-1.062-.78-1.39a1.568 1.568 0 0 1-.035-.541c1.914-2.259 2.746-4.867 2.497-7.826-.08-.847-.21-1.68-.39-2.499a7.29 7.29 0 0 0-.952-2.312c-.17-.384-.433-.816-.79-1.296-.357-.48-.665-.929-.925-1.346l1.341-4.506c-.01-.362-.385-.678-1.12-.949-.737-.27-1.665-.457-2.786-.559.056-1.4.94-2.1 2.65-2.1.555 0 1.104.09 1.647.27 1.348 1.141 2.871 1.711 4.57 1.711a6.925 6.925 0 0 0 3.295-.83c.136-.067.254-.124.356-.17.102-.044.204-.084.306-.118.51-.26.86-.547 1.053-.864.034-.101.085-.231.153-.39.068-.157.062-.282-.017-.372-.034-.045-.232-.04-.594.017-.113 0-.34.05-.68.152a9.88 9.88 0 0 1-.849.204c.838-.847 1.234-1.53 1.19-2.05a.688.688 0 0 0-.375-.576c-.283.045-.65.31-1.104.796-.226.226-.43.39-.611.491a4.019 4.019 0 0 1-2.123.576c-1.088 0-1.97-.299-2.65-.897-.781-.396-1.49-.647-2.123-.754-.635-.108-1.11-.167-1.427-.178A14.342 14.342 0 0 1 19.5.025 3.75 3.75 0 0 0 19.076 0c-1.46 0-2.599.604-3.414 1.812z"/></svg>