<svg xmlns="http://www.w3.org/2000/svg" width="40" height="40" xml:space="preserve"><path style="stroke:none;stroke-width:10;stroke-dasharray:none;stroke-linecap:butt;stroke-dashoffset:0;stroke-linejoin:miter;stroke-miterlimit:4;fill:#000;fill-rule:nonzero;opacity:1" vector-effect="non-scaling-stroke" transform="rotate(180 17.695 17.5)" d="m20.962 7.865 1.515-1.172 1.895.649-1.498 1.173zm4.456.307c.084-.253.126-.493.126-.722 0-.71-.258-1.256-.775-1.641a5.452 5.452 0 0 1-.109-.614c.445-.625.668-1.13.668-1.515 0-1.01-.974-1.876-2.923-2.598C20.457.361 18.118 0 15.388 0c-2.742 0-5.084.36-7.026 1.082-1.943.722-2.914 1.588-2.914 2.598 0 .397.235.914.704 1.552-.024.132-.06.318-.109.559-.529.385-.793.938-.793 1.66 0 .228.036.462.108.703.12.3.096.535-.072.703-.169.169-.361.403-.578.704-.192.601-.288 1.016-.288 1.245.012.108.033.228.063.36.03.133.045.289.045.47-.53.529-1.08 1.03-1.65 1.506a5.088 5.088 0 0 0-1.345 1.722 33.999 33.999 0 0 0-1.055 2.409C.16 18.085 0 18.88 0 19.663c0 1.48.39 2.73 1.173 3.752.781 1.023 1.84 1.822 3.175 2.4 1.78.12 2.531.18 2.255.18 2.092 0 3.992-.776 5.7-2.327V30h6.152v-6.35c1.707 1.563 3.62 2.345 5.736 2.345-.3 0 .451-.06 2.255-.18 1.311-.578 2.36-1.377 3.148-2.4.788-1.022 1.182-2.273 1.182-3.752 0-.782-.16-1.575-.478-2.381a41.861 41.861 0 0 0-1.038-2.4 5.451 5.451 0 0 0-1.353-1.785 40.743 40.743 0 0 1-1.641-1.516 1.354 1.354 0 0 1 .027-.415c.03-.132.05-.252.063-.36.012-.169-.084-.584-.289-1.245a6.553 6.553 0 0 0-.568-.704c-.162-.168-.19-.396-.081-.685zm-2.49-5.178a4.852 4.852 0 0 1-.252.866c-.132.289-.268.485-.406.587a1.514 1.514 0 0 0-.37.406c-1.215.77-3.373 1.112-6.476 1.028-3.151.084-5.328-.259-6.53-1.028a4.698 4.698 0 0 0-.424-.38c-.139-.107-.256-.306-.352-.595a3.173 3.173 0 0 1-.253-.883c-.024-.385.145-.578.505-.578.35 0 .517.187.505.56.109 1.202 2.267 1.804 6.477 1.804 4.245 0 6.428-.602 6.548-1.804-.024-.373.144-.56.505-.56.349 0 .523.193.523.578zm-5.556 10.644c.157 0 .313-.01.47-.027.156-.018.306-.027.45-.027-.096 1.094-.048 1.99.145 2.688.072.264.204.409.396.433.277.048.475-.103.596-.451.096-.578 0-1.498-.289-2.76.481-.085.836-.127 1.064-.127.073 1.852.355 3.325.848 4.42.145.288.385.433.722.433.409 0 .601-.198.577-.595.024-.025.036-.21.036-.56 0-.613-.342-1.918-1.028-3.914.349-.12.65-.169.902-.145.132.35.268.72.406 1.11.138.39.316.809.532 1.254.096.228.235.342.415.342.204 0 .33-.198.379-.595.012-.337-.343-1.106-1.064-2.309.3-.144.6-.222.902-.234l.405.811.406.974c.265.77.373 1.504.325 2.201-.096.421-.33.632-.703.632-.18 0-.403-.145-.668-.433.06.384.09.625.09.721 0 .505-.123.983-.37 1.434-.246.451-.664.761-1.253.93-.433-.025-.884-.29-1.353-.794a3.829 3.829 0 0 1-.938-1.786c-.133.42-.307.661-.524.721-.216.06-.36.09-.433.09a.761.761 0 0 1-.415-.126c-.48-.553-.775-1.395-.883-2.525-.037-.253-.06-.5-.073-.74a39.15 39.15 0 0 0-.072-1.046zm-4.023-.018c-.036.445-.06.788-.072 1.028-.012.24-.03.487-.054.74-.144 1.154-.439 1.996-.884 2.525a.736.736 0 0 1-.433.127c-.072 0-.22-.03-.442-.09s-.388-.295-.496-.704a4.015 4.015 0 0 1-.947 1.786c-.463.505-.911.77-1.344.794-.601-.18-1.022-.496-1.263-.947a3.004 3.004 0 0 1-.27-2.156c-.289.3-.512.45-.668.45-.385 0-.62-.216-.703-.649a4.861 4.861 0 0 1 .324-2.182 8.18 8.18 0 0 1 .388-.984c.126-.258.268-.532.424-.82.289.012.59.09.902.234-.734 1.19-1.088 1.96-1.064 2.31.012.396.132.594.36.594.181 0 .325-.114.434-.342.204-.433.375-.848.514-1.245.138-.397.28-.77.424-1.119.288 0 .589.049.902.145-.698 2.032-1.047 3.343-1.047 3.932 0 .325.012.506.036.542 0 .409.193.613.578.613a.78.78 0 0 0 .74-.451c.48-1.095.763-2.568.847-4.42.24.012.59.054 1.046.127-.288 1.286-.378 2.206-.27 2.76.108.36.3.517.577.469.205-.048.337-.193.397-.433.192-.758.24-1.66.144-2.706.193.024.5.048.92.072zm2.039 10.12c-.59 0-1.094-.21-1.515-.631a2.067 2.067 0 0 1-.632-1.516c0-.6.21-1.109.632-1.524.42-.415.926-.622 1.515-.622 1.431 0 2.147.715 2.147 2.146s-.716 2.147-2.147 2.147zm.216 3.879a.48.48 0 0 1-.216.054c-.132 0-.229-.024-.289-.072l-1.154 1.172h-.415v-.505l1.136-1.136a.517.517 0 0 1-.054-.235.48.48 0 0 1 .054-.216l-1.136-1.155v-.469h.415l1.136 1.137a.777.777 0 0 1 .307-.054.64.64 0 0 1 .234.036l1.137-1.119h.487v.415l-1.154 1.119a.777.777 0 0 1 .054.306.571.571 0 0 1-.073.289l1.173 1.154v.433h-.505zm2.183-19.195L15.352 9.58l-2.345-1.155 2.435-1.172zm-7.83-.559-1.911.65-1.498-1.173 1.895-.65zm14.018 1.678c.54.06.812.36.812.902 0 .349-.157.613-.47.794-1.01.408-2.293.742-3.851 1-1.557.26-3.256.389-5.096.389-3.86 0-6.855-.475-8.984-1.425-.265-.205-.397-.457-.397-.758 0-.613.307-.908.92-.884 2.14.806 4.961 1.209 8.46 1.209 3.549 0 6.417-.41 8.606-1.227zm-11.78 12.339c-1.395 1.48-2.977 2.219-4.745 2.219-1.623 0-2.856-.541-3.698-1.624-.54-.685-.811-1.617-.811-2.796 0-.926.132-1.81.396-2.652.012-.24.163-.36.451-.36.289 0 .445.144.47.433-.097.613-.145 1.16-.145 1.641 0 .998.235 1.786.704 2.363.673.914 1.72 1.371 3.139 1.371 1.395 0 2.7-.553 3.914-1.66.24 0 .36.223.36.668 0 .096-.011.229-.035.397zm6.296 0a2.977 2.977 0 0 1-.036-.397c0-.445.12-.667.36-.667 1.203 1.106 2.514 1.66 3.933 1.66 1.395 0 2.436-.458 3.121-1.372.469-.577.704-1.365.704-2.363 0-.481-.049-1.028-.145-1.641.012-.29.169-.433.47-.433.3 0 .45.12.45.36.265.842.397 1.726.397 2.652 0 1.179-.27 2.11-.812 2.796-.854 1.083-2.086 1.624-3.698 1.624-1.78 0-3.361-.74-4.744-2.219z"/></svg>