<svg xmlns="http://www.w3.org/2000/svg" width="40" height="40" xml:space="preserve"><path style="stroke:none;stroke-width:10;stroke-dasharray:none;stroke-linecap:butt;stroke-dashoffset:0;stroke-linejoin:miter;stroke-miterlimit:4;fill:#000;fill-rule:nonzero;opacity:1" vector-effect="non-scaling-stroke" transform="matrix(1 0 0 -1 5.06 35)" d="M17.226 12.714c.303.06.648.127 1.036.2.375.085.78.2 1.217.344.387.121.514.339.381.653a.406.406 0 0 1-.363.2 14.183 14.183 0 0 0-2.434-.345c.29.11.593.224.908.345.315.109.624.236.926.38.945.448 1.569 1.428 1.871 2.94.06.35-.054.55-.345.598-.254.024-.454-.079-.6-.309-.29-1.076-.75-1.801-1.38-2.176a6.29 6.29 0 0 0-.635-.327c-.218-.096-.436-.2-.654-.308.242.254.466.562.672.925.375.629.63 1.741.763 3.337-.085.424-.297.58-.636.472a.715.715 0 0 1-.218-.163c-.218-1.717-.515-2.848-.89-3.392a1.443 1.443 0 0 1-.272-.345 6.978 6.978 0 0 1-.31-.253l-.253-.218a1.443 1.443 0 0 1-.31-.907c0-.411.116-.786.346-1.125.242-.338.636-.513 1.18-.526zm-1.29 12.225c3.355-1.644 5.831-3.663 7.43-6.058.98-1.487 1.634-3.252 1.961-5.296.327-2.043.49-4.335.49-6.874-.06-.98.219-1.838.836-2.576.605-.737 1.29-1.027 2.052-.87.23 7.352-1.077 12.956-3.923 16.813-.872 1.161-2.089 2.286-3.65 3.374-1.563 1.088-3.306 2.062-5.231 2.92 0-.254.006-.508.018-.762.012-.266.018-.49.018-.67zM5.258 9.758c.133.218.29.435.472.653a4.5 4.5 0 0 1 .473.707c.266.545.133.865-.4.962a.53.53 0 0 1-.327-.037c-.351-.471-.733-.949-1.144-1.432-.06-.049-.2-.17-.418-.363-.109-.363-.115-.641-.018-.835.157-.362.454-.387.89-.072.218.17.375.308.472.417zm6.393 4.661c.037.146.085.29.146.436.048.145.09.29.127.435.109.472-.024.707-.4.707-.133 0-.296-.108-.49-.326l-.254-.58a3.965 3.965 0 0 1-.2-.508c-.036-.121-.09-.29-.163-.508-.025-.182.048-.315.218-.4.254-.144.514-.03.78.345.085.085.164.218.237.4zm-8.482-1.45c.121.169.26.344.418.525.157.17.297.363.418.58.242.448.127.708-.345.78a.961.961 0 0 1-.31-.017c-.29-.375-.629-.768-1.016-1.18a6.298 6.298 0 0 1-.364-.29c-.097-.302-.103-.526-.018-.67.146-.303.412-.327.8-.073.193.145.332.26.417.344zm5.358 8.053c.085-.52.224-.817.418-.89.194-.072.466-.096.817-.072.473.037.836.133 1.09.29.509.327.957 1.034 1.344 2.123a3.668 3.668 0 0 0-1.09-.182c-.339 0-.744-.018-1.216-.054-.666-.06-1.12-.466-1.363-1.215zm-.236-10.52a2.632 2.632 0 0 0-.417-.381 5.252 5.252 0 0 1-.255-.236l-1.18-1.197a1.877 1.877 0 0 0-1-.58c-.254-.073-.61-.043-1.07.09-1.514.4-2.707 1.197-3.579 2.394-.339.448-.578.989-.717 1.624-.14.635-.076 1.442.19 2.421.267.992 1.23 2.122 2.888 3.392 1.805 1.378 2.864 2.473 3.179 3.283.266.471.575.991.926 1.56.34.568.745 1.118 1.217 1.65.29.206.563.448.817.726.267.266.527.544.782.834v2.231c.666-.133 1.156-.326 1.47-.58.146-.158.303-.303.473-.436a3.41 3.41 0 0 0 .49-.435c.303.544.497.998.582 1.36.012.085.054.254.127.508.072.254.145.671.218 1.252.181.048.339 0 .472-.145a17.043 17.043 0 0 0 1.58-2.104c2.216-.883 4.244-1.929 6.085-3.138 1.828-1.21 3.233-2.467 4.214-3.773 2.772-3.76 4.159-9.298 4.159-16.614 0-1.536-.079-2.938-.236-4.208H4.912c-.157 1.572.678 3.24 2.507 5.006a52.095 52.095 0 0 0 2.56 2.322c.897.75 1.769 1.511 2.616 2.285 1.574 1.451 2.446 2.612 2.616 3.482a.497.497 0 0 1-.345.29 3.684 3.684 0 0 0-1.272-.49c-.423-.072-.841-.12-1.253-.144a17.596 17.596 0 0 0-.8-.018c-.253-.012-.556.042-.907.163-.472-.532-.872-.986-1.199-1.36a6.654 6.654 0 0 0-1.144-1.034z"/></svg>