<svg xmlns="http://www.w3.org/2000/svg" width="40" height="40" xml:space="preserve"><path style="stroke:none;stroke-width:10;stroke-dasharray:none;stroke-linecap:butt;stroke-dashoffset:0;stroke-linejoin:miter;stroke-miterlimit:4;fill:#000;fill-rule:nonzero;opacity:1" vector-effect="non-scaling-stroke" transform="rotate(180 14.6 17.5)" d="M9.211 0H0c.214 2.422 1.245 4.468 3.093 6.135.304.282.473.434.507.457.958.788 1.775 1.73 2.45 2.822-1.734 1.138-2.602 2.744-2.602 4.817a5.59 5.59 0 0 0 1.166 3.465c.26.326.538.698.837 1.115.298.417.538.823.718 1.217a81.7 81.7 0 0 1-1.225-.321 12.5 12.5 0 0 1-1.209-.372 16.579 16.579 0 0 1 2.223 2.57c.704.99 1.118 2.044 1.242 3.16-.574.586-.862 1.273-.862 2.062 0 .788.279 1.465.837 2.028A2.758 2.758 0 0 0 9.21 30c.778 0 1.448-.282 2.012-.845.563-.563.845-1.24.845-2.028 0-.8-.288-1.488-.862-2.062.124-1.116.543-2.17 1.259-3.16a17.278 17.278 0 0 1 2.24-2.57c-.26.102-.668.226-1.226.372-.558.146-.972.253-1.242.321.18-.394.42-.8.718-1.217.299-.417.583-.788.854-1.115a5.59 5.59 0 0 0 1.166-3.465c0-2.073-.868-3.679-2.603-4.817a10.607 10.607 0 0 1 2.434-2.823c.169-.135.338-.287.507-.456 1.859-1.667 2.89-3.713 3.093-6.135z"/></svg>