<svg xmlns="http://www.w3.org/2000/svg" width="40" height="40" xml:space="preserve"><path style="stroke:none;stroke-width:10;stroke-dasharray:none;stroke-linecap:butt;stroke-dashoffset:0;stroke-linejoin:miter;stroke-miterlimit:4;fill:#000;fill-rule:nonzero;opacity:1" vector-effect="non-scaling-stroke" transform="rotate(180 15.495 17.5)" d="M11.003 30h2.332V27.7h3.499V30h4.022v-6.034l-2.72-3.144c.585-.743.596-1.526.033-2.349a.787.787 0 0 1-.135-.405c0-.147.045-.288.135-.423.237-.35.352-.842.347-1.479-.006-.636-.127-1.135-.364-1.496a.61.61 0 0 1-.118-.355c0-.157.05-.304.152-.439.53-.8.518-1.589-.034-2.366a.773.773 0 0 1-.118-.389c0-.124.04-.253.118-.389.248-.371.372-.887.372-1.546 0-.66-.135-1.147-.406-1.462l2.738-1.37V4.902h1.133V0H0v4.885h1.15v1.453l2.72 1.386c-.27.315-.405.8-.405 1.453 0 .654.124 1.167.372 1.538.09.124.135.254.135.39a.767.767 0 0 1-.135.388c-.553.789-.558 1.577-.017 2.366.101.18.152.327.152.44a.75.75 0 0 1-.119.371c-.247.36-.374.86-.38 1.496-.005.637.11 1.13.347 1.479a.695.695 0 0 1 .152.422.705.705 0 0 1-.135.39c-.575.822-.564 1.61.033 2.365L1.15 23.95v6.034h4.022V27.7l3.482-.017v2.299zm-8.654-4.293v-1.47c1.443.067 2.882.138 4.319.21a85.18 85.18 0 0 0 4.335.11c1.42 0 2.853-.044 4.301-.134 1.448-.09 2.899-.153 4.352-.186v1.47zm.727-19.91c-.484-.045-.727-.287-.727-.727 0-.484.243-.726.727-.726l7.927.27 7.927-.27c.484 0 .726.242.726.726 0 .44-.242.682-.726.727-1.319.079-2.64.15-3.964.211a84.715 84.715 0 0 1-7.927 0 305.768 305.768 0 0 1-3.963-.21zm8.789 4.58c.327.26.808.39 1.445.39s1.124-.13 1.462-.39c.338-.27.51-.676.515-1.217.006-.54-.166-.895-.515-1.064-.36-.192-.85-.288-1.47-.288s-1.1.096-1.437.288c-.36.169-.535.524-.524 1.064.011.541.186.947.524 1.217zm-4.631 0c.338.26.822.39 1.453.39.631 0 1.116-.13 1.454-.39.338-.27.493-.676.465-1.217-.029-.54-.183-.895-.465-1.064-.293-.192-.786-.28-1.48-.262-.692.017-1.168.104-1.427.262-.27.146-.423.495-.457 1.048-.033.552.119.963.457 1.233zm3.769 12.186c-1.07 0-2.31-.07-3.718-.211-1.409-.14-2.293-.268-2.654-.38-.372-.136-.54-.35-.507-.643.034-.293.203-.484.507-.574.304-.102.907-.09 1.808.034.902.123 1.46.112 1.674-.034.202-.158.304-.527.304-1.107s-.102-.978-.304-1.192c-.214-.214-.792-.242-1.733-.084-.94.158-1.524.186-1.75.084-.224-.101-.315-.284-.27-.549.046-.265.136-.46.27-.583.136-.135.336-.107.6.084.266.192.466.164.6-.084.136-.27.204-.66.204-1.166 0-.507-.068-.885-.203-1.133-.135-.259-.335-.29-.6-.093-.265.198-.465.229-.6.093-.147-.146-.223-.363-.228-.65-.006-.288.07-.47.228-.55.146-.101.71-.076 1.69.076.98.153 1.578.127 1.792-.076.202-.214.304-.591.304-1.132 0-.54-.102-.93-.304-1.166-.215-.248-.815-.285-1.8-.11-.986.174-1.547.211-1.682.11-.44-.36-.44-.744 0-1.15.135-.135.335-.107.6.085.265.191.465.163.6-.085.135-.259.203-.642.203-1.149s-.068-.884-.203-1.132c-.135-.27-.335-.307-.6-.11-.265.197-.465.234-.6.11-.135-.136-.242-.336-.321-.6-.08-.265.028-.448.32-.55.226-.09.97-.073 2.232.051 1.262.124 2.642.186 4.14.186 1.488 0 2.88-.048 4.175-.144 1.296-.095 2.028-.127 2.197-.093.237.034.33.2.28.499-.051.298-.144.515-.28.65-.146.124-.352.088-.616-.11-.265-.197-.46-.16-.584.11-.135.248-.202.626-.202 1.133s.067.89.202 1.15c.124.247.322.275.592.084.27-.192.473-.22.608-.085.417.417.417.8 0 1.15-.135.101-.715.073-1.74-.085-1.026-.158-1.612-.13-1.758.085-.147.202-.228.56-.245 1.073-.017.513.065.92.245 1.225.18.304.769.36 1.766.17.997-.192 1.575-.249 1.732-.17.136.068.203.248.203.541 0 .293-.067.513-.203.66-.146.134-.352.103-.616-.094-.265-.197-.46-.166-.584.093-.135.248-.202.626-.202 1.133s.067.895.202 1.166c.124.248.319.276.584.084.264-.191.47-.22.616-.084.136.124.212.318.229.583.017.265-.06.448-.229.55-.191.1-.777.072-1.757-.085-.98-.158-1.56-.13-1.741.084-.18.214-.27.597-.27 1.15 0 .552.09.935.27 1.149.18.203.732.214 1.656.034.924-.18 1.538-.192 1.843-.034.293.146.453.352.481.617.028.265-.132.465-.481.6-.372.112-1.265.24-2.68.38-1.413.14-2.644.211-3.692.211zM9.6 20.755c.316.259.78.389 1.394.389.615 0 1.085-.13 1.412-.39.327-.27.49-.653.49-1.149 0-.495-.164-.878-.49-1.149-.327-.27-.797-.405-1.412-.405-.614 0-1.078.135-1.394.405-.327.27-.49.654-.49 1.15 0 .495.163.878.49 1.149zm2.265-3.431c.327.259.808.388 1.445.388s1.124-.13 1.462-.388c.338-.27.507-.657.507-1.158 0-.501-.17-.882-.507-1.14-.338-.271-.825-.406-1.462-.406s-1.118.135-1.445.405c-.338.26-.507.64-.507 1.141 0 .502.169.887.507 1.158zm-4.631 0c.338.259.822.388 1.453.388.631 0 1.116-.13 1.454-.388.338-.27.507-.657.507-1.158 0-.501-.17-.882-.507-1.14-.338-.271-.823-.406-1.454-.406-.63 0-1.115.135-1.453.405-.338.26-.507.64-.507 1.141 0 .502.169.887.507 1.158zM9.6 13.825c.316.26.78.389 1.394.389.615 0 1.085-.13 1.412-.389.327-.27.49-.656.49-1.157 0-.502-.164-.882-.49-1.141-.327-.27-.797-.406-1.412-.406-.614 0-1.078.135-1.394.406-.327.259-.49.64-.49 1.14 0 .502.163.888.49 1.158zM1.2 3.195v-1.15h19.623v1.15z"/></svg>