<svg width="40" height="40" fill="none" xmlns="http://www.w3.org/2000/svg"><path d="M20.1 27.266c-1.328 0-2.46.119-3.4.355-.94.237-1.409.511-1.409.823 0 .335.47.614 1.409.84.94.225 2.072.337 3.4.337 1.326 0 2.462-.112 3.407-.337.945-.226 1.418-.505 1.418-.84 0-.312-.473-.586-1.418-.823-.945-.236-2.081-.355-3.408-.355zm3.98-21.33c-.505 0-.758.247-.758.744 0 .496.253.744.758.744.504 0 .757-.248.757-.744 0-.497-.253-.745-.758-.745zM19.852 5.9c-.482 0-.723.237-.723.71 0 .462.241.693.723.693.48 0 .722-.23.722-.693 0-.473-.241-.71-.723-.71zm7.01 10.718c.128-.623-.068-1.775-.59-3.454-.523-1.68-1.295-3.073-2.317-4.182a.637.637 0 0 0-.405-.138.807.807 0 0 0-.484.268c-.147.156-.168.338-.062.546 1.245.83 2.196 2.025 2.853 3.584.658 1.558.993 2.683 1.004 3.376zm-10.78 6.631c1.069-.369 2.378-.554 3.928-.554 1.55 0 2.87.185 3.963.554 1.432-2.84 2.149-5.067 2.149-6.683 0-2.736-2.014-5.396-6.041-7.982-4.016 2.586-6.024 5.246-6.024 7.982 0 1.743.675 3.97 2.026 6.683zm5.32 7.22c-.036.554.088 1.028.37 1.42.281.393.601.75.96 1.074.357.323 1.065.502 2.121.536.376.035.77.026 1.18-.026.412-.051.916-.28 1.515-.684 1.68-1.639 3.34-2.458 4.984-2.458.728 0 1.433.138 2.114.415 1.338.162 1.735.37 1.189.624s-.86.485-.943.692c-.105.208.05.531.467.97.417.439.203.38-.643-.173-.258-.15-.405-.26-.44-.33-.035-.068-.14-.12-.317-.155-.41-.15-.886-.225-1.427-.225-.728 0-1.394.159-1.998.476-.605.318-1.242.77-1.911 1.36-.74.368-1.371.614-1.894.735a12.99 12.99 0 0 1-1.664.268 3.15 3.15 0 0 1-.423.01 13.484 13.484 0 0 0-.422-.01c-1.151 0-2.114-.456-2.889-1.367-.857-1.05-1.303-1.576-1.338-1.576-.036 0-.476.525-1.321 1.576-.787.911-1.75 1.367-2.889 1.367-.106 0-.247.003-.423.01a2.793 2.793 0 0 1-.405-.01 12.963 12.963 0 0 1-1.682-.268c-.522-.121-1.153-.367-1.893-.736-1.397-1.223-2.695-1.835-3.892-1.835-.552 0-1.028.075-1.427.225-.188.035-.3.087-.334.156-.036.07-.176.179-.423.329-.857.554-1.08.611-.67.173.412-.439.576-.762.494-.97-.094-.207-.417-.438-.969-.692-.552-.254-.152-.462 1.198-.624a5.517 5.517 0 0 1 2.13-.415c1.61 0 3.27.82 4.985 2.458.587.404 1.083.632 1.488.684.405.052.802.061 1.19.026 1.044-.046 1.749-.228 2.113-.545.364-.317.687-.672.968-1.065.27-.37.388-.842.353-1.42-1.268-.138-2.29-.349-3.065-.632-.775-.282-1.162-.603-1.162-.96l1.409-4.623a23.088 23.088 0 0 1-2.043-3.862c-.54-1.315-.81-2.562-.81-3.74 0-3.543 1.948-6.256 5.847-8.137 0-.173.017-.398.052-.675a1.532 1.532 0 0 1-.58-1.23c0-1.073.54-1.61 1.62-1.61s1.62.537 1.62 1.61c0 .462-.17.849-.51 1.16 0 .358.046.6.14.728.188.265.452.41.793.432.352-.023.634-.173.845-.45.047-.07.094-.288.141-.658-.305-.3-.458-.68-.458-1.142 0-1.085.552-1.628 1.656-1.628 1.103 0 1.655.543 1.655 1.628 0 .611-.27 1.085-.81 1.42a1.53 1.53 0 0 0-.035.553c1.984 2.297 2.847 4.964 2.589 8a20.177 20.177 0 0 1-.405 2.545 7.404 7.404 0 0 1-.987 2.355c-.176.404-.449.85-.819 1.341-.37.49-.69.944-.96 1.36l1.392 4.605c-.012.381-.41.713-1.198.996-.786.283-1.82.488-3.1.614zm-5.46-3.67c.904-.393 2.29-.589 4.156-.589 1.808 0 3.17.185 4.086.554l-.898-2.84c-.927-.23-2.025-.346-3.293-.346-1.245 0-2.302.11-3.17.33l-.881 2.89z" fill="#000"/><path d="M20.011 22.695c-1.55 0-2.859.185-3.927.554-1.35-2.712-2.026-4.94-2.026-6.683 0-2.736 2.008-5.396 6.024-7.982 4.027 2.586 6.04 5.246 6.04 7.982 0 1.616-.716 3.844-2.148 6.683-1.092-.369-2.413-.554-3.963-.554z" fill="#fff"/><path d="M20.557 15.718h2.712v-1.056h-2.712v-3.55h-1.092v3.55H16.77v1.056h2.695v4.969h1.092v-4.97z" fill="#000"/><path d="M19.13 6.61c0-.473.241-.71.723-.71.48 0 .722.237.722.71 0 .462-.241.693-.723.693-.48 0-.721-.23-.721-.693zM23.322 6.68c0-.497.253-.745.758-.745.504 0 .757.248.757.745 0 .496-.253.744-.758.744-.504 0-.757-.248-.757-.744zM26.272 13.164c.523 1.68.72 2.83.59 3.454-.011-.693-.346-1.818-1.004-3.376-.657-1.559-1.608-2.753-2.853-3.584-.105-.208-.085-.39.062-.546a.807.807 0 0 1 .484-.268c.153 0 .288.046.405.138 1.022 1.109 1.794 2.502 2.316 4.182zM20.1 26.21c-1.868 0-3.253.196-4.157.589l.88-2.892c.87-.22 1.926-.329 3.17-.329 1.269 0 2.367.116 3.294.347l.898 2.84c-.916-.37-2.278-.555-4.086-.555zM16.7 27.621c.94-.236 2.072-.355 3.4-.355 1.326 0 2.462.119 3.407.355.945.237 1.418.511 1.418.823 0 .335-.473.614-1.418.84-.945.225-2.081.337-3.408.337s-2.46-.112-3.4-.337c-.938-.226-1.408-.505-1.408-.84 0-.312.47-.586 1.409-.823z" fill="#fff"/></svg>