<svg width="40" height="40" fill="none" xmlns="http://www.w3.org/2000/svg"><path d="M12.277 28.34c-.493-.06-.74-.344-.74-.849 0-.349.144-.602.433-.758 1.986-.879 4.663-1.318 8.033-1.318 3.441 0 6.143.451 8.104 1.354a.906.906 0 0 1 .343.722c0 .578-.276.854-.83.83-1.937-.758-4.476-1.137-7.617-1.137-3.165 0-5.74.385-7.726 1.155zM9.95 26.84a2.274 2.274 0 0 0-.109.722c0 .722.259 1.27.777 1.643.011.06.042.265.09.614-.433.613-.65 1.119-.65 1.516 0 1.01.972 1.874 2.915 2.59 1.944.716 4.287 1.074 7.03 1.074 2.745 0 5.085-.358 7.023-1.074 1.937-.716 2.906-1.58 2.906-2.59 0-.421-.235-.939-.704-1.553l.072-.28c.024-.09.042-.177.054-.261.53-.397.794-.957.794-1.679 0-.216-.036-.451-.108-.704-.12-.3-.096-.535.072-.704.169-.168.355-.403.56-.704.204-.65.307-1.065.307-1.245a3.267 3.267 0 0 0-.064-.361 2.14 2.14 0 0 1-.045-.47 20.56 20.56 0 0 1 1.643-1.507 4.852 4.852 0 0 0 1.336-1.724c.397-.794.755-1.594 1.074-2.4a6.49 6.49 0 0 0 .478-2.401c0-1.48-.394-2.732-1.182-3.755-.789-1.022-1.845-1.823-3.168-2.4-1.781-.12-2.533-.18-2.256-.18-2.106 0-4.014.776-5.723 2.328V5h-6.155v6.354c-1.684-1.564-3.592-2.347-5.722-2.347.29 0-.463.06-2.256.18-1.312.578-2.362 1.379-3.15 2.402C5 12.61 4.606 13.863 4.606 15.342c0 .794.156 1.591.47 2.392.312.8.655 1.597 1.028 2.391a5.455 5.455 0 0 0 1.354 1.787 51.86 51.86 0 0 1 1.66 1.517c0 .144-.015.282-.045.415a3.29 3.29 0 0 0-.063.36c-.012.17.084.584.289 1.246.217.301.41.536.578.704.168.169.192.397.072.686zm10.054-16.029c1.24 0 1.859.62 1.859 1.86 0 1.239-.62 1.859-1.86 1.859-1.239 0-1.858-.62-1.858-1.86 0-1.239.62-1.859 1.859-1.859zm.722-2.888 1.281-1.245V9.44l-1.281-1.028a.737.737 0 0 0 .036-.235.702.702 0 0 0-.036-.253zm-.415.957 1.083 1.173h-2.78L19.75 8.9c.06.024.144.036.253.036a.972.972 0 0 0 .307-.054zm-1.03-.415L18 9.44V6.68l1.299 1.191a.61.61 0 0 0-.072.307c0 .012.018.108.054.289zm.506-1.03-1.173-1.39h2.78L20.29 7.456a.727.727 0 0 0-.505-.018zm1.372 14.08c.012-1.552.144-3.116.397-4.693.253-1.576.505-2.533.758-2.87 1.565-1.72 3.333-2.581 5.307-2.581 1.709 0 2.996.566 3.863 1.697.577.722.866 1.696.866 2.924 0 2.527-.938 4.892-2.816 7.094a12.849 12.849 0 0 0-.632-.262l-.631-.244c.12-.24.234-.475.343-.704.108-.228.222-.53.343-.902a4.438 4.438 0 0 0 .288-1.986c-.084-.397-.3-.595-.65-.595-.144 0-.342.132-.595.397.06-.361.09-.578.09-.65 0-1.155-.5-1.877-1.498-2.166-.397.024-.81.264-1.236.722a3.483 3.483 0 0 0-.858 1.624c-.108-.373-.262-.586-.46-.64a1.902 1.902 0 0 0-.406-.082.6.6 0 0 0-.38.127c-.42.481-.691 1.245-.812 2.292a8.66 8.66 0 0 0-.045.668c-.006.217-.027.517-.063.902a4.846 4.846 0 0 0-1.173-.072zm5.668.415c.096-.276.201-.583.316-.92.114-.337.261-.698.442-1.083.108-.193.235-.289.379-.289.192 0 .295.175.307.524.024.288-.265.944-.866 1.967a14.01 14.01 0 0 1-.578-.199zm-1.805-.27c.024-1.529.258-2.804.704-3.827.144-.253.355-.38.631-.38.337 0 .506.175.506.524.024.024.036.18.036.47 0 .541-.3 1.672-.902 3.393-.47-.096-.795-.156-.975-.18zm-1.697-.18c-.06-.964-.018-1.746.126-2.348.073-.216.187-.336.343-.36.241-.049.416.084.524.397.096.53.006 1.33-.27 2.4a2.695 2.695 0 0 0-.723-.09zm-11.39 8.952c.12-.866 1.324-1.528 3.61-1.985a13.386 13.386 0 0 1 2.193-.253c.74-.024 1.496-.054 2.266-.09.758.072 1.468.126 2.13.162.662.036 1.263.108 1.805.217 2.647.53 4.013 1.179 4.097 1.95.084.12.127.27.127.45 0 .542-.434 1.084-1.3 1.625 0-.541-.09-.957-.27-1.245-.181-.217-.41-.494-.687-.83-1.095-.65-3.08-.94-5.956-.867-2.816-.072-4.778.216-5.885.866-.265.337-.493.614-.686.83-.18.29-.27.704-.27 1.246-.867-.541-1.3-1.083-1.3-1.625 0-.144.042-.294.126-.45zm2.094 1.679c0-1.083 1.998-1.625 5.993-1.625 3.947 0 5.92.542 5.92 1.625-.264 1.07-2.262 1.606-5.992 1.606-3.67 0-5.644-.535-5.921-1.606zm-3.556-9.043c-1.805-2.239-2.708-4.597-2.708-7.076 0-1.204.29-2.178.867-2.924.878-1.132 2.166-1.697 3.863-1.697 1.985 0 3.754.86 5.306 2.581.265.337.524 1.294.777 2.87.252 1.576.385 3.14.397 4.693a3.875 3.875 0 0 0-1.21.072 283.45 283.45 0 0 1-.027-.902 5.209 5.209 0 0 0-.063-.668c-.108-1.047-.379-1.811-.812-2.293a.555.555 0 0 0-.38-.126 2.1 2.1 0 0 0-.396.081c-.205.055-.361.268-.47.641a3.482 3.482 0 0 0-.857-1.624c-.427-.458-.84-.698-1.237-.722-.998.288-1.498 1.01-1.498 2.166 0 .072.03.289.09.65-.24-.265-.439-.398-.595-.398-.337 0-.554.199-.65.596-.048.65.048 1.312.289 1.986.132.373.256.674.37.902.114.229.225.457.334.686-.229.084-.464.166-.704.244a7.07 7.07 0 0 0-.686.262zm2.816-1.138c-.024.012-.217.079-.578.199-.59-1.023-.878-1.679-.866-1.967.024-.35.126-.524.307-.524.156 0 .283.096.379.289.18.385.33.746.451 1.083.12.337.223.644.307.92zm1.805-.27c-.168.024-.493.084-.975.18-.601-1.72-.902-2.852-.902-3.393 0-.29-.024-.455 0-.48 0-.348.204-.513.541-.513.29 0 .5.126.632.379.457 1.023.692 2.298.704 3.827zm1.697-.18c-.241 0-.482.03-.722.09-.265-1.072-.355-1.872-.271-2.401.12-.313.295-.446.523-.397.169.024.283.144.343.36.157.602.199 1.384.127 2.347zm-5.38 3.988c-.54-.06-.812-.36-.812-.902 0-.35.157-.614.47-.794 1.01-.41 2.295-.744 3.853-1.002 1.559-.259 3.253-.388 5.082-.388 3.85 0 6.853.475 9.007 1.426.252.204.379.457.379.758 0 .613-.3.908-.903.884-2.142-.806-4.97-1.21-8.483-1.21-3.538 0-6.402.41-8.592 1.228z" fill="#000"/><path d="m18.613 6.047 1.173 1.39a.727.727 0 0 1 .505.018l1.102-1.408h-2.78zM22.006 6.679l-1.281 1.245c.024.06.036.144.036.253a.737.737 0 0 1-.036.235l1.281 1.028V6.68zM21.393 10.054 20.31 8.881a.972.972 0 0 1-.307.054.702.702 0 0 1-.253-.036l-1.137 1.155h2.78zM18 9.44l1.28-.974a5.277 5.277 0 0 1-.053-.29.61.61 0 0 1 .072-.306l-1.3-1.191V9.44zM21.862 12.671c0-1.239-.62-1.859-1.86-1.859-1.239 0-1.858.62-1.858 1.86 0 1.239.62 1.859 1.859 1.859 1.24 0 1.859-.62 1.859-1.86zM7.764 15.993c0 2.479.903 4.837 2.708 7.076a7.07 7.07 0 0 1 .686-.262c.24-.078.475-.16.704-.244-.109-.229-.22-.457-.334-.686a8.25 8.25 0 0 1-.37-.902 4.804 4.804 0 0 1-.289-1.986c.096-.397.313-.596.65-.596.156 0 .355.133.595.398a6.406 6.406 0 0 1-.09-.65c0-1.156.5-1.878 1.498-2.166.398.024.81.264 1.237.722.427.457.713.998.857 1.624.109-.373.265-.587.47-.64a2.1 2.1 0 0 1 .397-.082c.156 0 .282.042.379.127.433.48.704 1.245.812 2.292.036.229.057.451.063.668l.027.902a3.875 3.875 0 0 1 1.21-.072 31.136 31.136 0 0 0-.397-4.693c-.253-1.576-.512-2.533-.777-2.87-1.552-1.72-3.32-2.581-5.306-2.581-1.697 0-2.985.565-3.863 1.697-.578.746-.867 1.72-.867 2.924z" fill="#fff"/><path d="M14.118 21.841c.482-.096.806-.156.975-.18-.012-1.529-.247-2.804-.704-3.827a.665.665 0 0 0-.632-.38c-.337 0-.541.166-.541.515-.024.024 0 .19 0 .479 0 .541.3 1.672.902 3.393zM16.068 21.57c.24-.06.481-.09.722-.09.072-.963.03-1.745-.127-2.346-.06-.217-.174-.337-.343-.361-.228-.049-.403.084-.523.397-.084.53.006 1.33.27 2.4zM12.71 22.13c.361-.12.554-.187.578-.199a20.65 20.65 0 0 0-.307-.92c-.12-.337-.27-.698-.451-1.083-.096-.193-.223-.289-.38-.289-.18 0-.282.175-.306.524-.012.288.277.944.866 1.967zM10.598 24.567c0 .541.271.842.813.902 2.19-.818 5.054-1.227 8.592-1.227 3.514 0 6.341.403 8.483 1.21.602.023.903-.272.903-.885 0-.301-.127-.554-.38-.758-2.153-.951-5.156-1.426-9.006-1.426-1.83 0-3.523.13-5.082.388-1.558.258-2.843.592-3.853 1.002-.313.18-.47.445-.47.794z" fill="#fff"/><path d="M11.537 27.491c0 .505.247.788.74.848 1.986-.77 4.56-1.155 7.726-1.155 3.14 0 5.68.38 7.617 1.137.554.024.83-.252.83-.83a.906.906 0 0 0-.343-.722c-1.961-.902-4.663-1.354-8.104-1.354-3.37 0-6.047.44-8.033 1.318-.289.156-.433.409-.433.758z" fill="#fff"/><path d="M15.544 28.448c-2.286.457-3.49 1.119-3.61 1.985a.951.951 0 0 0-.126.451c0 .542.433 1.084 1.3 1.625 0-.541.09-.957.27-1.245.193-.217.421-.494.686-.83 1.107-.65 3.069-.94 5.885-.867 2.876-.072 4.861.216 5.956.866.277.337.506.614.686.83.18.29.271.704.271 1.246.866-.541 1.3-1.083 1.3-1.625a.768.768 0 0 0-.127-.45c-.084-.771-1.45-1.42-4.097-1.95a12.798 12.798 0 0 0-1.805-.217 52.983 52.983 0 0 1-2.13-.162c-.77.036-1.526.066-2.266.09-.74.024-1.47.108-2.193.253z" fill="#fff"/><path d="M20.02 30.487c-3.994 0-5.992.542-5.992 1.625.277 1.07 2.25 1.606 5.92 1.606 3.731 0 5.729-.535 5.993-1.606 0-1.083-1.973-1.625-5.92-1.625zM21.555 16.823a31.136 31.136 0 0 0-.397 4.693c.385-.024.776 0 1.173.073.036-.386.057-.686.063-.903a8.66 8.66 0 0 1 .045-.668c.12-1.047.392-1.811.813-2.292a.6.6 0 0 1 .379-.127c.072 0 .207.027.406.081.198.055.352.268.46.641.145-.625.43-1.167.858-1.624.427-.457.839-.698 1.236-.722.999.289 1.498 1.01 1.498 2.166 0 .072-.03.289-.09.65.253-.265.451-.397.596-.397.349 0 .565.198.65.595.06.65-.037 1.312-.29 1.986-.12.373-.234.674-.342.902-.109.23-.223.464-.343.704.216.085.427.166.631.244.205.078.416.166.632.262 1.878-2.202 2.816-4.567 2.816-7.094 0-1.228-.289-2.202-.866-2.924-.867-1.132-2.154-1.697-3.863-1.697-1.974 0-3.742.86-5.307 2.581-.253.337-.505 1.294-.758 2.87z" fill="#fff"/><path d="M27.142 21.01c-.115.338-.22.645-.316.921.024.012.216.079.578.199.601-1.023.89-1.679.866-1.967-.012-.35-.114-.524-.307-.524-.144 0-.27.096-.38.289-.18.385-.327.746-.441 1.083zM25.725 17.834c-.446 1.023-.68 2.298-.704 3.827.18.024.505.084.974.18.602-1.72.903-2.852.903-3.393 0-.29-.012-.446-.036-.47 0-.349-.169-.523-.505-.523-.277 0-.488.126-.632.379zM23.45 19.134c-.144.601-.186 1.383-.126 2.346.265 0 .505.03.722.09.277-1.07.367-1.87.27-2.4-.107-.313-.282-.446-.523-.398-.156.025-.27.145-.343.362z" fill="#fff"/></svg>