<svg width="40" height="40" fill="none" xmlns="http://www.w3.org/2000/svg"><path d="M13.355 24.552a3.696 3.696 0 0 1-.427.381c-.103.073-.19.145-.263.218-.146.145-.533.55-1.164 1.215a2.25 2.25 0 0 1-1 .581c-.254.06-.618.024-1.09-.109-1.527-.399-2.72-1.191-3.581-2.377-.34-.447-.579-.989-.718-1.624-.14-.635-.076-1.442.19-2.422.267-.992 1.23-2.13 2.89-3.411 1.819-1.38 2.885-2.468 3.2-3.267.267-.483.57-1.007.91-1.57.338-.562.744-1.115 1.217-1.66.29-.205.567-.44.827-.707.26-.266.524-.544.79-.835V6.733c.692.133 1.176.327 1.455.581.145.145.306.284.482.417.175.134.342.279.5.436.315-.58.503-1.034.563-1.36.024-.073.07-.237.137-.49.066-.255.136-.678.209-1.271a.538.538 0 0 1 .472.145 14.99 14.99 0 0 1 1.6 2.123c2.218.883 4.241 1.93 6.071 3.14 1.83 1.209 3.236 2.467 4.218 3.773 2.775 3.738 4.162 9.279 4.162 16.622 0 .665-.015 1.348-.045 2.05a29.37 29.37 0 0 1-.173 2.141H9.975c-.182-1.56.654-3.23 2.508-5.008a59.434 59.434 0 0 1 2.572-2.314c.89-.756 1.76-1.52 2.609-2.295 1.575-1.452 2.448-2.613 2.617-3.484a.5.5 0 0 0-.363-.272 3.384 3.384 0 0 1-1.264.48c-.43.067-.85.113-1.263.137a8.252 8.252 0 0 1-.781.036c-.267 0-.576-.054-.928-.163-.472.532-.872.986-1.2 1.36a7.11 7.11 0 0 1-1.127 1.035z" fill="#000"/><path d="M14 22.365c-.248.454-.663.893-1.244 1.316a4.088 4.088 0 0 1-.428.344c-.14.097-.27.206-.39.327-1.043 1.016-1.752 1.47-2.128 1.36-.29-.072-.412-.187-.363-.344.036-.109.218-.357.545-.744.327-.363.521-.653.582-.87.085-.364-.018-.594-.31-.69-.193-.037-.544.26-1.053.889-.485.653-.91.907-1.273.762-.57-.194-1.012-.66-1.327-1.397-.351-.774-.375-1.59-.072-2.45.242-.713 1.23-1.845 2.963-3.393.8-.714 1.539-1.421 2.217-2.123.679-.702 1.127-1.41 1.346-2.123.181-.375.393-.68.636-.916.242-.236.454-.445.636-.626.29-.254.548-.542.773-.862.224-.32.439-.578.645-.771.388-.363.454-1.016.2-1.96l.59.263.319.318c.109.145.242.32.4.526.157.206.297.381.418.526.145-.217.27-.417.372-.599.103-.181.215-.368.337-.562.084-.145.172-.308.263-.49.091-.181.191-.526.3-1.034.582.847.927 1.566 1.036 2.159.025.12.037.218.037.29a4.961 4.961 0 0 1-.073.49c.012.194.14.357.382.49.254.121.442-.006.563-.38a8.75 8.75 0 0 0 .164-.854c3.466 1.706 6.005 3.768 7.616 6.188.982 1.488 1.636 3.254 1.964 5.298.327 2.044.49 4.337.49 6.877-.06.98.203 1.848.791 2.604.588.756 1.209 1.098 1.863 1.025.061.52.103 1.083.128 1.688.024.605-.043.907-.2.907-.703 0-2.606.003-5.708.01l-4.654.008h-5.071c-1.842 0-4.15-.006-6.926-.018.376-1.343 1.357-2.722 2.945-4.137a99.344 99.344 0 0 1 2.227-1.905 39.745 39.745 0 0 0 2.19-1.96c1.273-1.234 2.072-2.37 2.4-3.411.339.048.772.009 1.3-.118.526-.127 1.172-.3 1.935-.517.351-.194.473-.405.364-.635a.362.362 0 0 0-.346-.218c-.787.194-1.557.315-2.308.363.266-.109.551-.224.854-.345.303-.12.6-.254.89-.399.91-.436 1.504-1.415 1.782-2.94.06-.338-.048-.532-.327-.58-.218-.06-.406.036-.564.29-.29 1.1-.733 1.833-1.326 2.196-.194.12-.397.23-.61.326a8.19 8.19 0 0 0-.608.309 5.54 5.54 0 0 0 .636-.926c.351-.677.594-1.79.727-3.338-.097-.436-.303-.593-.618-.472-.049.012-.115.06-.2.145-.194 1.706-.479 2.837-.854 3.393a1.607 1.607 0 0 1-.137.182.783.783 0 0 0-.118.163c-1.442 1.367-3.054 2.026-4.835 1.978-.46-.097-.733-.188-.818-.273a1.233 1.233 0 0 1 0-.299c.012-.115.018-.239.018-.372-.049-.448-.248-.599-.6-.454-.048.013-.115.061-.2.146-.085.52-.127.877-.127 1.07-.436.4-.779.826-1.027 1.28z" fill="#fff"/><path d="M14.582 13.075c-.272.151-.481.463-.627.935.085.52.224.82.418.898.194.079.467.1.818.063.46-.012.824-.103 1.091-.272.509-.314.957-1.022 1.345-2.123a3.671 3.671 0 0 1-1.09.182c-.34 0-.746.018-1.218.054-.219.024-.464.112-.737.263zM8.193 22.41c.121-.084.248-.193.382-.326.109-.181.236-.36.381-.535.146-.175.273-.372.382-.59.218-.423.115-.683-.309-.78-.048 0-.14.012-.273.036-.181.242-.354.46-.518.654-.163.193-.3.363-.409.508a3.969 3.969 0 0 1-.145.136c-.06.054-.127.105-.2.154-.097.314-.103.544-.018.69.133.29.375.308.727.054z" fill="#000"/></svg>