<svg width="40" height="40" fill="none" xmlns="http://www.w3.org/2000/svg"><path d="M19.987 33.878H11.76c.356-1.317 1.045-2.51 2.066-3.578a7.695 7.695 0 0 1 1.086-1.05 11.604 11.604 0 0 0 2.795-3.116c.783.273 1.543.41 2.279.41a6.85 6.85 0 0 0 2.296-.41 12.57 12.57 0 0 0 2.778 3.115c.439.345.807.695 1.104 1.05 1.02 1.057 1.703 2.25 2.047 3.58h-8.225zm0-8.474c-1.33 0-2.472-.451-3.428-1.354-.955-.902-1.433-1.994-1.433-3.276 0-1.044.344-1.988 1.033-2.83a11.714 11.714 0 0 0 1.834-3.063 12.687 12.687 0 0 1 1.994-.142c.76 0 1.424.047 1.994.142.463 1.08 1.08 2.101 1.851 3.063.689.842 1.033 1.786 1.033 2.83 0 1.282-.475 2.374-1.424 3.276-.95.903-2.101 1.354-3.454 1.354zm0-15.81c-1.2 0-1.798-.576-1.798-1.727 0-1.152.599-1.728 1.798-1.728 1.21 0 1.816.576 1.816 1.728 0 1.15-.606 1.727-1.816 1.727zm0 3.988c-.902 0-1.704.112-2.404.338.273-.475.555-1.006.846-1.594.29-.587.478-1.166.56-1.736a3.612 3.612 0 0 0 2.012 0c.095.57.285 1.149.57 1.736.285.588.558 1.12.82 1.594-.855-.226-1.656-.338-2.404-.338zm0 21.418h9.703c-.202-2.41-1.288-4.451-3.258-6.125a13.488 13.488 0 0 0-.534-.462 11.117 11.117 0 0 1-2.564-2.814c1.828-1.163 2.742-2.771 2.742-4.825 0-1.27-.41-2.42-1.229-3.454-.285-.332-.584-.709-.899-1.13a7.611 7.611 0 0 1-.757-1.22c.285.06.716.166 1.291.32.576.155 1 .28 1.273.375a17.055 17.055 0 0 1-2.341-2.573c-.742-.991-1.178-2.045-1.309-3.16.606-.582.908-1.27.908-2.066 0-.783-.293-1.456-.88-2.02C21.544 5.282 20.828 5 19.986 5a2.97 2.97 0 0 0-2.119.846c-.593.564-.89 1.237-.89 2.02 0 .82.302 1.508.908 2.066-.13 1.115-.573 2.169-1.327 3.16a17.792 17.792 0 0 1-2.359 2.573c.273-.095.704-.22 1.291-.374a29.04 29.04 0 0 1 1.309-.32c-.19.391-.442.797-.757 1.219-.314.421-.614.798-.899 1.13-.819 1.033-1.229 2.184-1.229 3.454 0 2.054.914 3.662 2.742 4.825a10.699 10.699 0 0 1-2.563 2.814c-.12.095-.297.249-.535.462-1.946 1.662-3.032 3.704-3.258 6.125h9.686z" fill="#000"/><path d="M18.189 7.867c0 1.15.599 1.727 1.798 1.727 1.21 0 1.816-.576 1.816-1.727 0-1.152-.606-1.728-1.816-1.728-1.2 0-1.798.576-1.798 1.728zM17.583 13.92c.7-.226 1.502-.338 2.404-.338.748 0 1.549.112 2.403.338a35.185 35.185 0 0 1-.819-1.594 6.392 6.392 0 0 1-.57-1.736 3.612 3.612 0 0 1-2.012 0 5.802 5.802 0 0 1-.56 1.736c-.291.588-.573 1.12-.846 1.594zM16.56 24.05c.955.903 2.097 1.354 3.427 1.354 1.353 0 2.504-.451 3.454-1.354.95-.902 1.424-1.994 1.424-3.276 0-1.044-.344-1.988-1.033-2.83a13.174 13.174 0 0 1-1.851-3.063 12.278 12.278 0 0 0-1.994-.142c-.736 0-1.4.047-1.994.142a11.714 11.714 0 0 1-1.834 3.063c-.689.842-1.033 1.786-1.033 2.83 0 1.282.478 2.374 1.433 3.276zM11.761 33.878h16.451c-.344-1.329-1.026-2.522-2.047-3.578a7.257 7.257 0 0 0-1.104-1.05 12.57 12.57 0 0 1-2.778-3.116 6.85 6.85 0 0 1-2.296.41 6.908 6.908 0 0 1-2.28-.41 11.604 11.604 0 0 1-2.794 3.115c-.44.356-.802.707-1.087 1.05-1.02 1.069-1.709 2.262-2.065 3.58z" fill="#fff"/></svg>