<svg width="40" height="40" fill="none" xmlns="http://www.w3.org/2000/svg"><path d="M27.813 26.762c-.124.452-.235.86-.33 1.22-.096.362-.178.758-.246 1.187a.383.383 0 0 1-.271.034c-1.831-.61-4.164-.915-7-.915-2.893 0-5.272.31-7.136.932a.486.486 0 0 1-.22-.051 13.313 13.313 0 0 0-.238-1.136c-.09-.35-.203-.757-.339-1.22a42.617 42.617 0 0 1 3.738-.729 27.797 27.797 0 0 1 4.178-.305c1.446 0 2.827.1 4.144.297 1.316.197 2.556.427 3.72.686zm-7.864 2.678c2.146 0 3.968.164 5.466.492 1.497.328 2.245.802 2.245 1.424 0 .621-.748 1.124-2.245 1.508-1.497.384-3.32.576-5.466.576-2.136 0-3.975-.192-5.517-.576-1.543-.384-2.314-.887-2.314-1.508 0-.622.771-1.097 2.314-1.424 1.542-.328 3.381-.492 5.517-.492zM13.067 9.22c.757 0 1.136.384 1.136 1.152 0 .758-.379 1.136-1.136 1.136-.768 0-1.152-.378-1.152-1.136 0-.768.384-1.152 1.152-1.152zM20 5.83c.769 0 1.153.384 1.153 1.153 0 .757-.384 1.135-1.153 1.135-.757 0-1.135-.378-1.135-1.135 0-.769.378-1.153 1.135-1.153zm6.95 3.39c.757 0 1.135.384 1.135 1.152 0 .758-.378 1.136-1.136 1.136-.757 0-1.135-.378-1.135-1.136 0-.768.378-1.152 1.136-1.152zm-19.78 3.83c.757 0 1.136.379 1.136 1.136 0 .768-.379 1.152-1.136 1.152-.768 0-1.153-.384-1.153-1.152 0-.757.385-1.136 1.153-1.136zm21.695 10.017c-.136.532-.254 1.006-.356 1.424-.102.418-.198.881-.288 1.39a.96.96 0 0 1-.305.05c-2.023-.723-4.673-1.084-7.95-1.084-3.333 0-6.028.367-8.084 1.102a1.622 1.622 0 0 1-.254-.085 11.648 11.648 0 0 0-.263-1.322c-.107-.407-.235-.876-.381-1.407 1.299-.339 2.709-.624 4.228-.856a31.42 31.42 0 0 1 4.738-.347c1.638 0 3.203.113 4.695.339a56.3 56.3 0 0 1 4.22.796zM19.135 8.881a858.34 858.34 0 0 1-.525 5.483l-.543 5.466c-.011.26-.141.39-.39.39a.392.392 0 0 1-.372-.237c-.984-2.373-1.71-4.212-2.178-5.517-.47-1.305-.755-2.11-.856-2.415.52-.498.78-1.057.78-1.678 0-.543-.196-1.009-.585-1.399a1.908 1.908 0 0 0-1.399-.585c-1.322 0-1.983.662-1.983 1.984 0 .994.503 1.66 1.509 2l1.254 7.39c.056.338-.068.508-.373.508-.237 0-.418-.062-.542-.187-1.356-1.355-2.328-2.406-2.916-3.152-.587-.746-1-1.265-1.237-1.56a2.05 2.05 0 0 0 .373-1.186c0-.542-.195-1.008-.585-1.398a1.908 1.908 0 0 0-1.398-.585c-.542 0-1.011.195-1.407.585-.395.39-.593.856-.593 1.398 0 .554.198 1.023.593 1.407a1.95 1.95 0 0 0 1.407.576c.158 0 .305-.017.44-.05.87 1.841 1.6 3.841 2.187 6 .452 1.695.735 3.276.848 4.745-.08.305-.119.464-.119.475.034-.136.011-.006-.068.39-.045.18-.068.356-.068.525.068.181.21.384.424.61.192.192.333.616.424 1.272-.418.587-.627 1.062-.627 1.423 0 .95.915 1.76 2.745 2.433C15.186 34.663 17.384 35 19.95 35c2.576 0 4.776-.336 6.601-1.008 1.825-.673 2.738-1.484 2.738-2.433 0-.395-.22-.881-.661-1.457.135-.644.288-1.057.457-1.238.226-.226.367-.429.424-.61 0-.147-.017-.316-.05-.508a2.74 2.74 0 0 1-.052-.246 1.076 1.076 0 0 0-.034-.161c0-.023-.045-.198-.135-.525.113-1.424.39-2.99.83-4.695a40.587 40.587 0 0 1 2.187-6.034c.192.056.39.084.593.084 1.322 0 1.983-.66 1.983-1.983 0-.542-.192-1.008-.576-1.398a1.9 1.9 0 0 0-1.407-.585c-.543 0-1.009.195-1.398.585-.39.39-.585.856-.585 1.398 0 .407.102.774.305 1.102a41.696 41.696 0 0 1-2 2.364 745.68 745.68 0 0 1-2.22 2.416.632.632 0 0 1-.458.203c-.328 0-.474-.17-.44-.508.033-.102.177-.91.432-2.424.254-1.514.534-3.164.839-4.95 1.073-.282 1.61-.954 1.61-2.016 0-1.322-.661-1.983-1.983-1.983s-1.983.66-1.983 1.983c0 .576.231 1.113.695 1.61-.068.237-.215.709-.441 1.415-.226.707-.576 1.636-1.05 2.788a1016.508 1016.508 0 0 1-1.576 3.797c-.08.17-.204.243-.374.22-.226-.011-.356-.135-.39-.373-.045-.26-.395-3.904-1.05-10.932.802-.43 1.203-1.068 1.203-1.915C21.983 5.66 21.322 5 20 5c-.543 0-1.009.195-1.398.585-.39.39-.585.855-.585 1.398 0 .768.372 1.4 1.118 1.898zm13.712 4.17c.768 0 1.152.378 1.152 1.135 0 .768-.384 1.152-1.152 1.152-.757 0-1.136-.384-1.136-1.152 0-.757.379-1.136 1.136-1.136zM10.71 21.744a33.232 33.232 0 0 0-.745-2.474c-.362-.667-.543-1.074-.543-1.22 0-.159.062-.238.187-.238.169 0 .802.639 1.898 1.916l.864 1.008.61.653c-.79.101-1.547.22-2.27.355zm4.068-.559c.08-.136.119-.373.119-.712 0-.576-.141-1.491-.424-2.746-.271-1.288-.407-2.068-.407-2.339 0-.361.006-.548.017-.559.17-.034.458.582.864 1.847.486 1.458.882 2.492 1.187 3.102.271.576.548.995.83 1.254-.757.034-1.485.085-2.186.153zm3.78-.22c.327-.35.542-.978.644-1.882.045-.35.104-.856.178-1.517.073-.66.127-1.483.16-2.466.046-.712.105-1.327.179-1.847.073-.52.15-.791.229-.814.101.023.183.294.245.814.063.52.11 1.135.145 1.847.045.983.107 1.805.186 2.466.079.661.136 1.167.17 1.517.101.927.316 1.554.643 1.882-.214 0-.44-.02-.678-.06a4.329 4.329 0 0 0-1.415 0c-.231.04-.46.06-.686.06zm4.356.05c.294-.248.576-.66.847-1.237.305-.61.7-1.644 1.187-3.102.18-.542.35-1.008.508-1.398.158-.39.271-.579.34-.568.033.012.047.102.041.272-.005.17-.008.305-.008.406 0 .272-.136 1.051-.407 2.34-.26 1.163-.4 2.079-.423 2.745 0 .373.033.616.101.729a28.528 28.528 0 0 0-2.186-.186zm4 .34c.282-.238.774-.775 1.474-1.61 1.119-1.289 1.752-1.933 1.899-1.933.124 0 .186.08.186.237 0 .181-.186.594-.56 1.238a34.953 34.953 0 0 0-.779 2.457 67.63 67.63 0 0 0-2.22-.39z" fill="#000"/><path d="M21.152 6.983c0-.769-.384-1.153-1.153-1.153-.757 0-1.135.384-1.135 1.153 0 .757.378 1.135 1.135 1.135.769 0 1.153-.378 1.153-1.135zM14.203 10.372c0-.768-.379-1.152-1.136-1.152-.768 0-1.152.384-1.152 1.152 0 .758.384 1.136 1.152 1.136.757 0 1.136-.378 1.136-1.136zM8.305 14.186c0-.757-.379-1.136-1.136-1.136-.768 0-1.153.379-1.153 1.136 0 .768.385 1.152 1.153 1.152.757 0 1.136-.384 1.136-1.152zM28.084 10.372c0-.768-.378-1.152-1.136-1.152-.757 0-1.135.384-1.135 1.152 0 .758.378 1.136 1.136 1.136.757 0 1.135-.378 1.135-1.136zM34 14.186c0-.757-.385-1.136-1.153-1.136-.757 0-1.136.379-1.136 1.136 0 .768.379 1.152 1.136 1.152.768 0 1.152-.384 1.152-1.152zM28.39 19.745c-.701.836-1.193 1.373-1.475 1.61a67.63 67.63 0 0 1 2.22.39c.203-.745.463-1.565.78-2.457.373-.644.559-1.057.559-1.238 0-.158-.062-.237-.186-.237-.147 0-.78.644-1.899 1.932zM23.762 19.78c-.271.575-.553.988-.847 1.236.858.046 1.587.108 2.186.187-.068-.113-.101-.356-.101-.729.022-.666.163-1.582.423-2.746.271-1.288.407-2.067.407-2.339 0-.101.003-.237.009-.406.005-.17-.009-.26-.043-.272-.068-.01-.18.178-.339.568-.158.39-.328.856-.508 1.398-.486 1.458-.882 2.492-1.187 3.102zM19.203 19.084c-.102.904-.317 1.531-.644 1.882.226 0 .455-.02.686-.06a4.177 4.177 0 0 1 1.415 0c.238.04.464.06.678.06-.327-.328-.542-.955-.644-1.882-.034-.35-.09-.856-.17-1.517a34.786 34.786 0 0 1-.186-2.466 26.44 26.44 0 0 0-.144-1.847c-.062-.52-.144-.791-.245-.814-.08.023-.156.294-.23.814-.073.52-.132 1.135-.177 1.847a33.406 33.406 0 0 1-.161 2.466 93.706 93.706 0 0 1-.178 1.517zM14.898 20.474c0 .34-.04.576-.119.712.7-.068 1.43-.119 2.186-.153-.282-.26-.559-.678-.83-1.254-.305-.61-.7-1.644-1.187-3.102-.406-1.265-.694-1.88-.864-1.847-.011.011-.017.198-.017.56 0 .27.136 1.05.407 2.338.283 1.255.424 2.17.424 2.746zM9.966 19.27c.293.86.542 1.684.745 2.475.723-.135 1.48-.254 2.271-.355l-.61-.653-.864-1.008c-1.096-1.277-1.729-1.916-1.898-1.916-.125 0-.187.08-.187.238 0 .146.18.553.543 1.22zM28.508 24.491c.102-.418.22-.892.356-1.424a56.3 56.3 0 0 0-4.22-.796 31.327 31.327 0 0 0-4.695-.34 31.42 31.42 0 0 0-4.738.348c-1.52.232-2.929.517-4.228.856.146.531.274 1 .381 1.407.107.407.195.847.263 1.322.113.045.197.073.254.085 2.056-.735 4.751-1.102 8.085-1.102 3.276 0 5.926.361 7.949 1.085a.96.96 0 0 0 .305-.051c.09-.509.186-.972.288-1.39z" fill="#fff"/><path d="M27.483 27.983c.095-.362.206-.769.33-1.22a53.723 53.723 0 0 0-3.72-.687 27.894 27.894 0 0 0-4.144-.297c-1.447 0-2.84.102-4.178.305a42.617 42.617 0 0 0-3.738.73c.136.462.249.87.34 1.22.09.35.169.728.237 1.135.067.034.14.05.22.05 1.864-.62 4.243-.931 7.135-.931 2.837 0 5.17.305 7 .915.09.023.181.011.272-.034.068-.43.15-.825.246-1.186zM25.415 29.932c-1.497-.328-3.32-.492-5.466-.492-2.136 0-3.975.164-5.517.492-1.543.328-2.314.802-2.314 1.424 0 .621.771 1.124 2.314 1.508 1.542.384 3.381.576 5.517.576 2.146 0 3.968-.192 5.466-.576 1.497-.384 2.245-.887 2.245-1.508 0-.622-.748-1.097-2.245-1.424z" fill="#fff"/></svg>