<svg width="40" height="40" fill="none" xmlns="http://www.w3.org/2000/svg"><path d="M26.113 21.234c.35.26.524.629.524 1.108 0 .48-.175.837-.524 1.074-.339.26-.832.389-1.48.389s-1.147-.13-1.497-.39c-.338-.236-.507-.594-.507-1.073s.17-.848.507-1.108c.35-.236.849-.355 1.497-.355.648 0 1.141.119 1.48.355zm-4.634-.05c.35.27.524.656.524 1.158 0 .502-.174.882-.524 1.142-.338.27-.831.405-1.48.405-.648 0-1.147-.135-1.496-.405-.338-.26-.508-.64-.508-1.142 0-.502.17-.888.508-1.158.35-.26.848-.39 1.496-.39.649 0 1.142.13 1.48.39zm-4.617.05c.339.26.508.629.508 1.108 0 .48-.17.837-.508 1.074-.338.26-.834.389-1.488.389s-1.155-.13-1.505-.39c-.338-.236-.507-.594-.507-1.073s.169-.848.507-1.108c.35-.236.851-.355 1.505-.355.654 0 1.15.119 1.488.355zm1.979 3.4c.428.27.64.676.634 1.217-.005.541-.217.896-.634 1.066-.406.191-1.02.287-1.843.287s-1.438-.096-1.844-.288c-.405-.169-.611-.524-.617-1.065-.005-.541.2-.947.617-1.217.429-.271 1.046-.406 1.852-.406s1.418.135 1.835.405zm6.003 0c.429.27.637.676.626 1.217-.011.541-.22.896-.626 1.066-.406.191-1.037.287-1.894.287s-1.454-.096-1.792-.288c-.327-.169-.513-.524-.558-1.065-.046-.541.14-.947.558-1.217.428-.271 1.045-.406 1.851-.406s1.418.135 1.835.405zm0-6.95c.429.27.643.653.643 1.149s-.214.88-.643 1.15c-.417.27-1.028.406-1.835.406-.806 0-1.423-.136-1.851-.406a1.294 1.294 0 0 1-.626-1.15c0-.496.209-.88.626-1.15.428-.26 1.045-.389 1.851-.389.807 0 1.418.13 1.835.39zm-6.003 0c.428.27.643.653.643 1.149s-.215.88-.643 1.15c-.417.27-1.029.406-1.835.406s-1.423-.136-1.851-.406a1.294 1.294 0 0 1-.626-1.15c0-.496.208-.88.626-1.15.428-.26 1.045-.389 1.851-.389s1.418.13 1.835.39zm7.272-3.383c.35.26.524.626.524 1.1 0 .473-.175.833-.524 1.081-.339.26-.832.39-1.48.39s-1.147-.13-1.497-.39c-.338-.248-.507-.608-.507-1.082 0-.473.17-.84.507-1.1.35-.247.849-.371 1.497-.371.648 0 1.141.124 1.48.372zm-4.634-.068c.35.27.524.657.524 1.159 0 .501-.174.882-.524 1.141-.338.27-.831.406-1.48.406-.648 0-1.147-.135-1.496-.406-.338-.26-.508-.64-.508-1.141 0-.502.17-.888.508-1.159.35-.259.848-.389 1.496-.389.649 0 1.142.13 1.48.39zm-4.617.068c.339.26.508.626.508 1.1 0 .473-.17.833-.508 1.081-.338.26-.834.39-1.488.39s-1.155-.13-1.505-.39c-.338-.248-.507-.608-.507-1.082 0-.473.169-.84.507-1.1.35-.247.851-.371 1.505-.371.654 0 1.15.124 1.488.372zm-5.53-8.151h1.76V8.5h5.766V6.15h2.283V8.5h5.766V6.15h1.742v4.296c-1.443-.091-2.883-.176-4.32-.255a79.129 79.129 0 0 0-4.338-.118c-2.943 0-5.829.124-8.659.372V6.15zm8.659 21.68c1.07 0 2.148.017 3.23.05 1.082.034 2.13.096 3.145.186l2.283 1.201v.846H11.332v-.846c.395-.203.781-.403 1.159-.6a71.49 71.49 0 0 0 1.125-.6 62.781 62.781 0 0 1 3.213-.186c1.06-.034 2.113-.051 3.162-.051zm9.808 3.433v2.604H10.2v-2.604h19.6zm-3.551-17.91c-1.905-.315-3.991-.473-6.257-.473-2.3 0-4.397.158-6.291.474l-.98-1.235c2.265-.417 4.69-.625 7.27-.625 2.571 0 5 .203 7.29.608l-1.032 1.252zM19.99 5h-2.334v2.3l-3.5-.017V5h-4.025v6.037l2.723 3.145c-.587.745-.598 1.528-.034 2.351.101.17.152.304.152.406 0 .135-.05.27-.152.406-.237.35-.353.843-.347 1.48.006.637.133 1.136.38 1.496.08.158.119.282.119.372 0 .124-.057.27-.17.44-.53.8-.518 1.59.035 2.367a.774.774 0 0 1 .118.39c0 .123-.04.253-.118.388-.248.372-.372.888-.372 1.548s.135 1.147.405 1.463l-2.74 1.37v1.454H9V35H31v-4.887h-1.15v-1.455l-2.723-1.37c.271-.315.41-.803.415-1.462.005-.66-.122-1.175-.38-1.548a.652.652 0 0 1-.136-.389c0-.112.045-.242.135-.389.553-.789.558-1.578.017-2.367a.826.826 0 0 1-.152-.44.61.61 0 0 1 .118-.355c.248-.36.375-.86.38-1.497.006-.637-.11-1.13-.346-1.48-.101-.157-.152-.298-.152-.422s.045-.26.135-.406c.586-.812.575-1.595-.034-2.35l2.723-3.146V5h-4.025v2.3h-3.483V5H19.99z" fill="#000"/><path d="M13.091 6.15h-1.758v4.295a99.147 99.147 0 0 1 8.658-.372c1.454 0 2.9.04 4.337.118 1.438.08 2.878.164 4.321.254V6.15h-1.742V8.5h-5.766V6.15h-2.283V8.5H13.09V6.15zM19.99 12.88c2.267 0 4.353.158 6.258.474l1.031-1.252c-2.288-.405-4.718-.608-7.288-.608-2.582 0-5.006.208-7.272.625l.981 1.235c1.894-.316 3.991-.474 6.29-.474zM17.37 15.4c0-.473-.17-.84-.508-1.1-.338-.247-.834-.371-1.488-.371s-1.155.124-1.505.372c-.338.26-.507.626-.507 1.1 0 .473.169.833.507 1.081.35.26.851.39 1.505.39.654 0 1.15-.13 1.488-.39.339-.248.508-.608.508-1.082zM22.003 15.392c0-.502-.174-.888-.524-1.159-.338-.259-.831-.389-1.48-.389-.648 0-1.147.13-1.496.39-.338.27-.508.656-.508 1.158 0 .501.17.882.508 1.141.35.27.848.406 1.496.406.649 0 1.142-.135 1.48-.406.35-.26.524-.64.524-1.141zM26.637 15.4c0-.473-.175-.84-.524-1.1-.339-.247-.832-.371-1.48-.371s-1.147.124-1.497.372c-.338.26-.507.626-.507 1.1 0 .473.17.833.507 1.081.35.26.849.39 1.497.39.648 0 1.141-.13 1.48-.39.35-.248.524-.608.524-1.082zM25.487 18.833c0-.496-.214-.88-.643-1.15-.417-.26-1.028-.389-1.835-.389-.806 0-1.423.13-1.851.39-.417.27-.626.653-.626 1.149s.209.88.626 1.15c.428.27 1.045.406 1.851.406.807 0 1.418-.136 1.835-.406.429-.27.643-.654.643-1.15zM19.484 18.833c0-.496-.215-.88-.643-1.15-.417-.26-1.029-.389-1.835-.389s-1.423.13-1.851.39c-.418.27-.626.653-.626 1.149s.208.88.626 1.15c.428.27 1.045.406 1.851.406s1.418-.136 1.835-.406c.428-.27.643-.654.643-1.15zM17.37 22.342c0-.48-.17-.848-.508-1.108-.338-.236-.834-.355-1.488-.355s-1.155.119-1.505.355c-.338.26-.507.629-.507 1.108 0 .48.169.837.507 1.074.35.26.851.389 1.505.389.654 0 1.15-.13 1.488-.39.339-.236.508-.594.508-1.073zM22.003 22.342c0-.502-.174-.888-.524-1.158-.338-.26-.831-.39-1.48-.39-.648 0-1.147.13-1.496.39-.338.27-.508.656-.508 1.158 0 .502.17.882.508 1.142.35.27.848.405 1.496.405.649 0 1.142-.135 1.48-.405.35-.26.524-.64.524-1.142zM26.637 22.342c0-.48-.175-.848-.524-1.108-.339-.236-.832-.355-1.48-.355s-1.147.119-1.497.355c-.338.26-.507.629-.507 1.108 0 .48.17.837.507 1.074.35.26.849.389 1.497.389.648 0 1.141-.13 1.48-.39.35-.236.524-.594.524-1.073zM25.47 25.851c.011-.541-.197-.947-.626-1.217-.417-.271-1.029-.406-1.835-.406s-1.423.135-1.851.405c-.418.271-.604.677-.558 1.218.045.541.23.896.558 1.066.338.191.935.287 1.792.287s1.488-.096 1.894-.288c.406-.169.615-.524.626-1.065zM19.475 25.851c.006-.541-.206-.947-.634-1.217-.417-.271-1.029-.406-1.835-.406s-1.423.135-1.852.405c-.417.271-.622.677-.617 1.218.006.541.211.896.617 1.066.406.191 1.02.287 1.844.287.823 0 1.437-.096 1.843-.288.417-.169.629-.524.634-1.065zM23.22 27.88a99.202 99.202 0 0 0-6.392 0c-1.06.034-2.13.096-3.212.187a71.49 71.49 0 0 1-1.125.6c-.378.197-.764.397-1.159.6v.846H28.65v-.846l-2.283-1.2a54.882 54.882 0 0 0-3.145-.187zM29.8 33.867v-2.604H10.2v2.604h19.6z" fill="#fff"/></svg>