<svg xmlns="http://www.w3.org/2000/svg" width="40" height="40" xml:space="preserve"><path style="stroke:none;stroke-width:10;stroke-dasharray:none;stroke-linecap:butt;stroke-dashoffset:0;stroke-linejoin:miter;stroke-miterlimit:4;fill:#000;fill-rule:nonzero;opacity:1" vector-effect="non-scaling-stroke" transform="matrix(1 0 0 -1 7.29 35)" d="M13.009 17.885c-.472-.46-.478-.916-.017-1.366.427-.462.911-.445 1.451.05l3.307 3.73c.225-.215.383-.412.473-.591.09-.18.219-.405.388-.675.315-.507.618-1.069.91-1.688a11.6 11.6 0 0 0 .676-1.805c-.101-1.193-.473-2.362-1.114-3.51-.641-1.147-1.468-2.075-2.48-2.784l3.037-.033c.641 0 1.187-.228 1.637-.684.45-.455.675-.998.675-1.628v-.017c0-.292-.102-.664-.304-1.114h.894c.788 0 1.465-.284 2.033-.852.568-.568.852-1.245.852-2.033 0-.799-.284-1.479-.852-2.041A2.79 2.79 0 0 0 22.542 0H2.902C2.092 0 1.406.281.844.844A2.781 2.781 0 0 0 0 2.885c0 .788.281 1.465.844 2.033a2.787 2.787 0 0 0 2.058.852h.945c-.236.282-.354.653-.354 1.114v.017c0 .63.225 1.173.675 1.628.45.456.995.684 1.636.684h2.953c-1.057.64-1.906 1.518-2.548 2.632-.64 1.113-.956 2.345-.945 3.695.664 2.104 1.505 3.929 2.523 5.475 1.018 1.547 1.724 2.573 2.117 3.08.147.45.411.793.793 1.029-.584.495-.877 1.153-.877 1.974 0 .799.281 1.482.844 2.05a2.787 2.787 0 0 0 2.058.852c.788 0 1.465-.284 2.033-.852a2.795 2.795 0 0 0 .852-2.05c0-.731-.275-1.451-.826-2.16.225-.45.36-.714.405-.793.348-.495.804-1.282 1.366-2.362zm1.265 6.108-.59 1.181c-.236-.202-.557-.303-.962-.303-.326 0-.619.084-.877.253l-.743-1.13a3.155 3.155 0 0 1 1.62-.456c.585 0 1.102.152 1.552.455zM9.82 9.871c-.383 0-.574-.209-.574-.625 0-.427.191-.64.574-.64h5.804c.383 0 .574.213.574.64 0 .416-.191.625-.574.625zM5.247 6.024c-.37 0-.556-.208-.556-.625 0-.416.185-.624.556-.624H20.18c.382 0 .574.208.574.624 0 .417-.192.625-.574.625z"/></svg>