<svg xmlns="http://www.w3.org/2000/svg" width="40" height="40" xml:space="preserve"><path style="stroke:none;stroke-width:10;stroke-dasharray:none;stroke-linecap:butt;stroke-dashoffset:0;stroke-linejoin:miter;stroke-miterlimit:4;fill:#000;fill-rule:nonzero;opacity:1" vector-effect="non-scaling-stroke" transform="rotate(180 16.37 17.525)" d="m15.457 11.55-2.639 1.336-2.705-1.336 2.705-1.319zm-8.963-1.2 2.384 1.2-2.638 1.336-.524-.27zm12.683-.034.727 2.215-.507.355-2.706-1.336zM6.95 9.183c-.383 0-.575-.192-.575-.575 0-.384.192-.575.575-.575h11.601c.384 0 .575.191.575.575 0 .383-.191.575-.575.575zM4.667 5.767c-.383 0-.575-.203-.575-.61 0-.416.192-.625.575-.625h16.167c.384 0 .575.209.575.626 0 .406-.191.609-.575.609zm5.767 16.15c-.383 0-.575-.192-.575-.575 0-.384.192-.575.575-.575h4.634c.372 0 .558.191.558.575 0 .383-.186.575-.558.575zm-.575 4.008v2.316l2.012-.287-.27 2.046h2.283l-.27-2.046 2.012.287v-2.316l-2.013.304v-2.08h-1.742v2.08zM3.79 5.784c-.204.35-.305.715-.305 1.099 0 .62.225 1.153.676 1.598.451.445.998.651 1.64.617-.62 2.063-1.121 3.512-1.505 4.346-.383.835-1.014 1.725-1.894 2.672-.721.812-1.302 1.43-1.741 1.852-.44.423-.66.95-.66 1.581v.017c0 .62.223 1.155.668 1.606.445.451.99.677 1.632.677h7.255c-.192.225-.288.428-.288.609 0 1.127.564 1.69 1.691 1.69h3.585c1.128 0 1.692-.563 1.692-1.69 0-.192-.102-.395-.305-.61h7.272c.62 0 1.155-.225 1.606-.676.451-.45.677-.986.677-1.606v-.017c0-.631-.234-1.147-.702-1.547-.468-.4-1.074-1.007-1.818-1.818-.812-1.004-1.42-1.945-1.826-2.824-.406-.88-.88-2.3-1.42-4.262a2.039 2.039 0 0 0 1.606-.617c.45-.446.676-.978.676-1.598 0-.384-.085-.75-.254-1.1h.846c.79 0 1.468-.284 2.038-.854.569-.569.854-1.248.854-2.037 0-.8-.285-1.483-.854-2.047A2.795 2.795 0 0 0 22.593 0H2.909c-.812 0-1.5.282-2.063.845A2.787 2.787 0 0 0 0 2.892C0 3.68.282 4.36.846 4.929c.563.57 1.25.854 2.063.854zm1.47 9.182c-.372 0-.558-.191-.558-.575 0-.383.186-.575.558-.575h14.966c.384 0 .575.192.575.575 0 .384-.191.575-.575.575z"/></svg>