<svg xmlns="http://www.w3.org/2000/svg" width="40" height="40" xml:space="preserve"><path style="stroke:none;stroke-width:10;stroke-dasharray:none;stroke-linecap:butt;stroke-dashoffset:0;stroke-linejoin:miter;stroke-miterlimit:4;fill:#000;fill-rule:nonzero;opacity:1" vector-effect="non-scaling-stroke" transform="matrix(1 0 0 -1 7.35 35.05)" d="M9.432 11.474c.292-.102.621-.175.987-.22.365-.045.65.085.852.388-.27.574-.41 1.252-.422 2.034-.011.781.236 1.56.743 2.336.112.203.28.47.506.802.225.332.399.565.523.7 0 .54-.186.743-.557.608-.371-.135-.444-.124-.22.033-.517-.438-1.023-1.046-1.518-1.822-.675-1.035-1.105-1.938-1.29-2.708-.186-.77-.054-1.488.396-2.151zm-.085 14.173c-.843-.473-1.141-.911-.894-1.316.225-.405.754-.366 1.586.118.821.483 1.125.928.911 1.333-.247.405-.782.36-1.603-.135zm-2.48-15.49c-.382 0-.574-.208-.574-.624 0-.416.192-.624.574-.624h11.575c.382 0 .574.208.574.624 0 .416-.192.625-.574.625zM4.623 6.04c-.405 0-.607-.224-.607-.674 0-.44.202-.658.607-.658h16.063c.405 0 .607.219.607.658 0 .45-.202.675-.607.675zm15.101 3.105c.529-.079 1.021-.323 1.477-.734.455-.41.683-.925.683-1.544 0-.382-.084-.748-.253-1.097h.776c.799 0 1.482-.284 2.05-.852.568-.568.852-1.245.852-2.033 0-.799-.284-1.479-.852-2.041A2.81 2.81 0 0 0 22.407 0H2.885C2.087 0 1.406.281.844.844A2.781 2.781 0 0 0 0 2.885c0 .788.281 1.465.844 2.033a2.767 2.767 0 0 0 2.041.852h.793a2.5 2.5 0 0 0-.27 1.097c0 .619.228 1.159.684 1.62.455.461 1.02.726 1.695.793a41.748 41.748 0 0 0-.05 3.138c.022 1.046.197 2.059.523 3.037.641 1.362 1.31 2.351 2.008 2.97a6.864 6.864 0 0 0 2.412 1.384c-.753.033-1.178.056-1.273.067-.096.011-.414.169-.954.473-.54.146-.9.225-1.08.236-.18.011-.658-.101-1.434-.338-.843-.135-1.468-.18-1.873-.135-.405.045-.618.45-.64 1.215-.338.473-.69.982-1.056 1.527-.365.546-.216 1.2.448 1.966 1.788.562 3.084.872 3.889.928.804.056 1.645.506 2.522 1.35 1.114.236 1.901.537 2.363.902.46.366.691 1.032.691 2a3.385 3.385 0 0 0 1.603-.802c.461-.41.692-.948.692-1.611 1.249-.304 2.084-.672 2.506-1.105.421-.433.942-.909 1.56-1.426.777-1.024 1.179-1.918 1.207-2.683a12.816 12.816 0 0 0-.127-2.312 31.65 31.65 0 0 0-1.063-2.1c-.36-.647-.63-1.477-.81-2.49 0-.978.152-1.86.456-2.648a8.778 8.778 0 0 1 1.198-2.16zm-8.15 10.31c.136 0 .26-.009.372-.026.112-.017.287-.008.523.025.81.113 1.482.44 2.016.979.535.54.723.967.565 1.282-.067.416-.354.625-.86.625-.191-1.103-.844-1.744-1.957-1.924-.18-.034-.321-.062-.422-.084a6.294 6.294 0 0 1-.473-.135c-.506-.338-.427-.585.237-.743z"/></svg>