<svg xmlns="http://www.w3.org/2000/svg" width="40" height="40" xml:space="preserve"><path style="stroke:none;stroke-width:10;stroke-dasharray:none;stroke-linecap:butt;stroke-dashoffset:0;stroke-linejoin:miter;stroke-miterlimit:4;fill:#000;fill-rule:nonzero;opacity:1" vector-effect="non-scaling-stroke" transform="rotate(180 16.355 17.53)" d="M12.62 20.956c-.9 0-1.664-.065-2.294-.194-.63-.13-.945-.284-.945-.464 0-.191.315-.349.945-.472.63-.124 1.395-.186 2.295-.186.877 0 1.637.062 2.278.186.64.123.961.28.961.472 0 .18-.32.335-.961.464-.642.13-1.4.194-2.278.194zm4.725-4.809c.079-2.902.585-5.357 1.519-7.365.933-2.008 2.013-3.011 3.24-3.011h.438c.788 0 1.465-.284 2.033-.853.568-.568.852-1.245.852-2.033 0-.798-.284-1.479-.852-2.041A2.79 2.79 0 0 0 22.542 0H2.902C2.092 0 1.406.281.844.844A2.781 2.781 0 0 0 0 2.885c0 .788.281 1.465.844 2.033a2.787 2.787 0 0 0 2.058.853h.49c1.192 0 2.258 1.003 3.197 3.011.94 2.008 1.465 4.463 1.577 7.365H5.771a2.23 2.23 0 0 0-1.629.658 2.187 2.187 0 0 0-.666 1.62c0 .63.222 1.17.666 1.62.445.45.987.675 1.629.675h3.627c-1.282 1.035-1.923 2.379-1.923 4.032 0 1.44.512 2.675 1.535 3.704C10.034 29.486 11.271 30 12.722 30c1.44 0 2.672-.515 3.695-1.544 1.024-1.03 1.536-2.264 1.536-3.704 0-1.642-.63-2.986-1.89-4.032h3.61a2.19 2.19 0 0 0 1.604-.675c.45-.45.675-.99.675-1.62 0-.641-.225-1.181-.675-1.62a2.218 2.218 0 0 0-1.603-.658zM9.28 16.4c-.382 0-.574-.213-.574-.64 0-.417.192-.625.574-.625h6.884c.383 0 .574.208.574.624 0 .428-.191.641-.574.641zM5.821 6.378c-.394 0-.59-.22-.59-.658 0-.439.196-.658.59-.658h13.802c.394 0 .59.22.59.658 0 .439-.196.658-.59.658z"/></svg>