<svg xmlns="http://www.w3.org/2000/svg" width="40" height="40" xml:space="preserve"><path style="stroke:none;stroke-width:10;stroke-dasharray:none;stroke-linecap:butt;stroke-dashoffset:0;stroke-linejoin:miter;stroke-miterlimit:4;fill:#000;fill-rule:nonzero;opacity:1" vector-effect="non-scaling-stroke" transform="rotate(180 17.18 17.525)" d="m9.744 21.49-.233-1.395c.49-.06.924-.089 1.305-.089 1.55 0 2.73.512 3.54 1.537.358-.464.847-.813 1.466-1.045a9.118 9.118 0 0 1 2.056-.492c.477-.072.93-.054 1.36.053l-.305 1.43c-.894-.226-1.782-.11-2.664.35-.882.458-1.52 1.04-1.913 1.742-.417-.667-1.03-1.23-1.841-1.689-.81-.459-1.734-.593-2.771-.402zm1.966-4.47 2.646-1.394 2.718 1.394-2.718 1.395zm0-3.36 2.646-1.395 2.718 1.394-2.718 1.395zm5.257 1.519 2.646-1.377 2.735 1.377-2.735 1.412zm-10.602 0 2.664-1.377 2.717 1.377L9.03 16.59zM16.43 25.602a5.573 5.573 0 0 0 2.396-1.806 4.48 4.48 0 0 0 .948-2.735 3.45 3.45 0 0 1 1.394.84c.381.381.751.823 1.109 1.323.405-1.573 1.299-2.36 2.681-2.36.644 0 1.323.203 2.038.608a4.785 4.785 0 0 1 1.717 1.627l-6.99-13.391c.631-.048 1.191-.301 1.68-.76.489-.459.733-1.016.733-1.671 0-.37-.107-.757-.322-1.162h.948c.834 0 1.552-.301 2.154-.903.602-.602.903-1.32.903-2.155 0-.846-.301-1.567-.903-2.163C26.314.298 25.596 0 24.762 0H3.952C3.092 0 2.365.298 1.77.894a2.947 2.947 0 0 0-.894 2.163c0 .835.298 1.553.894 2.155.596.602 1.323.903 2.181.903h.876c-.179.238-.268.625-.268 1.162 0 .655.244 1.212.733 1.671a2.63 2.63 0 0 0 1.699.742L0 23.1c1.013-1.49 2.247-2.235 3.7-2.235 1.407 0 2.319.78 2.736 2.342a5.171 5.171 0 0 1 2.575-2.127 4.243 4.243 0 0 0 .876 2.717c.608.81 1.4 1.413 2.378 1.806a2.8 2.8 0 0 0-.59 1.716c0 .74.259 1.371.777 1.895a2.575 2.575 0 0 0 1.904.787c.74 0 1.371-.262 1.895-.787a2.583 2.583 0 0 0 .787-1.895c0-.631-.202-1.204-.608-1.716zm-.09-.626-.59.966a2.047 2.047 0 0 0-1.394-.537c-.488 0-.911.161-1.269.483l-.769-.912c.56-.524 1.24-.787 2.038-.787.799 0 1.46.263 1.985.787zM7.92 10.763c-.417 0-.626-.22-.626-.662 0-.44.21-.661.626-.661h12.873c.417 0 .625.22.625.661 0 .441-.208.662-.625.662zM5.864 6.4c-.44 0-.661-.245-.661-.733 0-.501.22-.751.661-.751h16.967c.453 0 .68.25.68.75 0 .49-.227.734-.68.734z"/></svg>