<svg xmlns="http://www.w3.org/2000/svg" width="40" height="40" xml:space="preserve"><path style="stroke:none;stroke-width:10;stroke-dasharray:none;stroke-linecap:butt;stroke-dashoffset:0;stroke-linejoin:miter;stroke-miterlimit:4;fill:#000;fill-rule:nonzero;opacity:1" vector-effect="non-scaling-stroke" transform="rotate(180 16.38 17.52)" d="m21.14 6.352 1.491-.559c.79 0 1.471-.285 2.041-.855.57-.57.856-1.25.856-2.041 0-.802-.285-1.485-.856-2.05A2.8 2.8 0 0 0 22.632 0H2.913C2.1 0 1.412.282.847.847A2.792 2.792 0 0 0 0 2.897c0 .79.282 1.47.847 2.04.565.571 1.254.856 2.067.856l1.558.56c.474 2.62.782 5.075.923 7.368.141 2.293.291 4.653.45 7.08v2.305H3.505V30h4.625v-3.388h2.354V30h4.574v-3.388h2.355V30h4.624v-6.894h-2.337v-2.304c.135-2.541.282-4.93.44-7.166.158-2.236.491-4.664 1-7.284zM11.029 9.215h3.49V6.522h-3.49zm0 7.504h3.49v-2.608h-3.49zm2.337-3.743h3.44v-2.609h-3.44zm-4.624 0h3.422v-2.609H8.74zm4.624 7.52h3.44v-2.59h-3.44zm-4.624 0h3.422v-2.59H8.74zm9.876 0v1.153H6.996l-.034-1.152h.627v-2.592h-.864l-.034-1.186h3.185v-2.608H6.505l-.085-1.135h1.169v-2.61H6.183l-.068-1.151h3.76V6.522H5.184V5.2h15.178v1.322h-4.709v2.693h3.896l-.119 1.152h-1.473v2.609h1.22l-.085 1.135h-3.439v2.608h3.202v1.186h-.898v2.592z"/></svg>