<svg width="40" height="40" fill="none" xmlns="http://www.w3.org/2000/svg"><path d="M19.995 9.572c1.125 0 1.687-.562 1.687-1.687s-.562-1.687-1.687-1.687-1.687.562-1.687 1.687.562 1.688 1.687 1.688zm-6.884 17.346c-.765 0-1.148.382-1.148 1.147s.383 1.148 1.148 1.148h13.785c.765 0 1.147-.383 1.147-1.148 0-.765-.382-1.147-1.147-1.147H13.111zm-2.936 3.492c-1.125 0-1.687.563-1.687 1.688s.562 1.687 1.687 1.687h19.657c1.125 0 1.687-.562 1.687-1.687s-.562-1.688-1.687-1.688H10.175zm11.339-12.215 3.273-3.73c.371.383.742.878 1.114 1.485.314.552.613 1.114.894 1.688.281.618.512 1.22.692 1.805-.102 1.204-.476 2.376-1.122 3.518-.647 1.142-1.477 2.073-2.49 2.793l3.038.016c.641 0 1.19.228 1.645.684.456.456.683 1.004.683 1.645 0 .293-.1.664-.303 1.114h.877c.799 0 1.482.284 2.05.852.568.568.852 1.245.852 2.033 0 .81-.284 1.496-.852 2.058a2.81 2.81 0 0 1-2.05.844h-19.64c-.798 0-1.479-.281-2.041-.844-.563-.562-.844-1.248-.844-2.058 0-.787.281-1.465.844-2.033a2.767 2.767 0 0 1 2.041-.852h.945c-.236-.304-.354-.675-.354-1.114 0-.641.225-1.19.675-1.645.45-.456.995-.684 1.636-.684h2.97c-1.057-.64-1.907-1.518-2.548-2.632-.641-1.113-.962-2.345-.962-3.695.675-2.092 1.519-3.912 2.531-5.458 1.013-1.547 1.716-2.573 2.11-3.08.157-.472.427-.815.81-1.029-.586-.495-.878-1.158-.878-1.99 0-.788.281-1.466.843-2.034A2.767 2.767 0 0 1 19.995 5c.799 0 1.482.284 2.05.852.568.568.852 1.246.852 2.033 0 .743-.28 1.463-.843 2.16.078.169.154.315.228.439.073.123.132.241.177.354.348.484.81 1.271 1.383 2.362l-3.577 3.965c-.382.405-.348.776.101 1.114.417.371.799.343 1.148-.084zm.624.776c-.326.337-.757.506-1.29.506-.535 0-.92-.118-1.157-.354-.236-.225-.405-.569-.506-1.03-.101-.46 0-.894.304-1.299l3.206-3.796c.033-.034-.031-.121-.194-.262a1.96 1.96 0 0 1-.346-.363 22.65 22.65 0 0 1-.498-.852 6.8 6.8 0 0 0-.599-.902c-.326.1-.68.152-1.063.152a2.61 2.61 0 0 1-1.08-.22c-.54.349-1.04.985-1.502 1.907a25.248 25.248 0 0 0-2.168 3.35 17.24 17.24 0 0 0-1.476 3.686c-.293 1.552.3 2.992 1.78 4.32 1.48 1.327 2.961 1.99 4.446 1.99 1.485 0 2.941-.705 4.37-2.117 1.429-1.412 2.087-2.849 1.974-4.311a13.919 13.919 0 0 0-.708-1.662 81.722 81.722 0 0 0-.827-1.628l-2.666 2.885z" fill="#000"/><path d="M21.682 7.885c0 1.125-.562 1.688-1.687 1.688s-1.687-.563-1.687-1.688.562-1.687 1.687-1.687 1.687.562 1.687 1.687zM20.847 19.477c.534 0 .965-.169 1.29-.506l2.667-2.885c.247.472.523 1.015.827 1.628.303.613.54 1.167.708 1.662.113 1.462-.545 2.9-1.974 4.31-1.428 1.413-2.885 2.118-4.37 2.118-1.485 0-2.967-.663-4.446-1.99-1.48-1.328-2.073-2.768-1.78-4.32a17.24 17.24 0 0 1 1.476-3.687 25.248 25.248 0 0 1 2.168-3.35c.462-.921.962-1.557 1.502-1.906.326.146.686.22 1.08.22.383 0 .737-.051 1.063-.152.214.27.413.57.599.902.186.332.352.616.498.852.067.102.182.223.346.363.163.14.227.228.194.262l-3.206 3.796c-.304.405-.405.838-.304 1.3.101.46.27.804.506 1.029.236.236.622.354 1.156.354zM11.963 28.065c0-.765.383-1.147 1.148-1.147h13.785c.765 0 1.147.382 1.147 1.147s-.382 1.148-1.147 1.148H13.111c-.765 0-1.148-.383-1.148-1.148zM8.488 32.098c0-1.125.562-1.688 1.687-1.688h19.657c1.125 0 1.687.563 1.687 1.688s-.562 1.687-1.687 1.687H10.175c-1.125 0-1.687-.562-1.687-1.687z" fill="#fff"/></svg>