<svg width="40" height="40" fill="none" xmlns="http://www.w3.org/2000/svg"><path d="M28.97 29.203a2.1 2.1 0 0 0 .288-1.082c0-.63-.225-1.169-.676-1.614a2.08 2.08 0 0 0-1.64-.617c.62-2.05 1.125-3.496 1.513-4.335.39-.84 1.017-1.732 1.885-2.679.721-.811 1.301-1.425 1.74-1.842.44-.417.66-.947.66-1.589 0-.631-.223-1.172-.668-1.623a2.185 2.185 0 0 0-1.614-.676h-7.267c.202-.202.304-.405.304-.608 0-1.116-.564-1.673-1.69-1.673h-3.6c-1.116 0-1.673.557-1.673 1.673 0 .203.095.405.287.608h-7.25c-.632 0-1.173.226-1.623.676-.451.451-.677.992-.677 1.623 0 .642.237 1.163.71 1.563.474.4 1.082 1.006 1.826 1.817.811 1.003 1.417 1.941 1.817 2.814.4.874.87 2.29 1.411 4.251a2.038 2.038 0 0 0-1.606.617c-.45.445-.676.983-.676 1.614 0 .383.09.744.27 1.082h-.844a2.8 2.8 0 0 0-2.054.853c-.569.57-.853 1.248-.853 2.037 0 .811.284 1.498.853 2.062a2.814 2.814 0 0 0 2.054.845H29.85c.8 0 1.481-.282 2.045-.845.563-.563.845-1.25.845-2.062 0-.789-.282-1.468-.845-2.037a2.772 2.772 0 0 0-2.045-.853h-.88zm.83 1.2c1.16 0 1.74.586 1.74 1.758 0 1.16-.58 1.74-1.74 1.74H10.226c-1.172 0-1.757-.58-1.757-1.74 0-1.172.585-1.758 1.757-1.758H29.8zm-2.857-3.431c.743 0 1.115.372 1.115 1.115 0 .744-.372 1.116-1.115 1.116H13.067c-.744 0-1.116-.372-1.116-1.116 0-.743.372-1.115 1.116-1.115h13.876zM22.886 9.073V6.758l-2.01.304.27-2.062h-2.282l.27 2.062-2.011-.304v2.315l2.011-.287v2.079h1.741v-2.08l2.011.288zm-2.839 2.873c.642 0 1.186.065 1.631.195.445.13.668.279.668.448 0 .169-.223.315-.668.44-.445.123-.989.185-1.631.185s-1.189-.062-1.64-.186c-.45-.124-.675-.27-.675-.44 0-.168.225-.317.676-.447.45-.13.997-.194 1.639-.194zM11.85 20.01a9.483 9.483 0 0 0-1.073-1.538 70.048 70.048 0 0 0-1.158-1.285c-.27-.327-.53-.622-.778-.887s-.371-.56-.371-.888c0-.788.394-1.183 1.183-1.183h20.72c.778 0 1.167.395 1.167 1.183 0 .327-.116.623-.346.888-.232.265-.516.56-.854.887-.406.44-.803.865-1.192 1.276-.388.411-.752.933-1.09 1.564l-16.208-.017zm1.52 3.464a62.588 62.588 0 0 0-.844-2.315l14.805.017c-.045.202-.112.453-.202.752-.09.298-.27.82-.541 1.563-.248.755-.42 1.282-.516 1.58-.095.299-.177.561-.245.786l-11.696-.034c-.056-.202-.13-.453-.22-.752-.09-.298-.27-.83-.54-1.597z" fill="#000"/><path d="M21.678 12.14c-.445-.129-.989-.194-1.631-.194s-1.189.065-1.64.195c-.45.13-.675.279-.675.448 0 .169.225.315.676.44.45.123.997.185 1.639.185s1.186-.062 1.631-.186c.445-.124.668-.27.668-.44 0-.168-.223-.317-.668-.447zM10.777 18.47c.366.417.724.93 1.073 1.539l16.208.017c.338-.631.702-1.153 1.09-1.564.39-.411.786-.837 1.192-1.276.338-.327.622-.622.854-.887.23-.265.346-.56.346-.888 0-.788-.389-1.183-1.166-1.183H9.653c-.789 0-1.183.395-1.183 1.183 0 .327.123.623.371.888s.507.56.778.887c.405.44.791.868 1.158 1.285zM12.796 21.868c.113.293.305.828.575 1.605.27.766.45 1.299.54 1.597.09.299.164.55.22.753l11.696.033c.068-.225.15-.487.245-.786.096-.298.268-.825.516-1.58.27-.744.45-1.265.54-1.563.09-.299.158-.55.203-.752l-14.805-.017.27.71zM28.058 28.087c0-.743-.372-1.115-1.115-1.115H13.067c-.744 0-1.116.372-1.116 1.115 0 .744.372 1.116 1.116 1.116h13.876c.743 0 1.115-.372 1.115-1.116zM31.54 32.16c0-1.171-.58-1.757-1.74-1.757H10.226c-1.172 0-1.757.586-1.757 1.758 0 1.16.585 1.74 1.757 1.74H29.8c1.16 0 1.74-.58 1.74-1.74z" fill="#fff"/></svg>