<svg width="40" height="40" fill="none" xmlns="http://www.w3.org/2000/svg"><path d="M27.074 25.838c.529.079 1.021.323 1.477.734.455.41.683.93.683 1.56 0 .372-.084.732-.253 1.08h.776c.799 0 1.482.285 2.05.853.568.568.852 1.245.852 2.033 0 .81-.284 1.496-.852 2.058a2.81 2.81 0 0 1-2.05.844H10.235c-.798 0-1.479-.281-2.041-.844-.563-.562-.844-1.248-.844-2.058 0-.787.281-1.465.844-2.033a2.767 2.767 0 0 1 2.041-.852h.793a2.26 2.26 0 0 1-.27-1.08c0-.63.228-1.173.684-1.628.455-.456 1.02-.718 1.695-.785a42.294 42.294 0 0 1-.05-3.155c.022-1.046.197-2.059.523-3.037.641-1.361 1.31-2.351 2.008-2.97a6.864 6.864 0 0 1 2.412-1.384c-.753-.022-1.178-.042-1.273-.059-.096-.017-.414-.177-.954-.48-.54-.147-.9-.223-1.08-.228-.18-.006-.658.11-1.434.345-.843.124-1.468.164-1.873.119-.405-.045-.618-.445-.64-1.198a53.984 53.984 0 0 1-1.055-1.536c-.366-.551-.217-1.203.447-1.957 1.788-.574 3.085-.889 3.889-.945.804-.056 1.645-.506 2.522-1.35 1.114-.236 1.901-.534 2.363-.894.46-.36.691-1.024.691-1.991.608.124 1.142.39 1.603.801.461.411.692.942.692 1.595 1.249.304 2.084.672 2.506 1.105.421.433.942.908 1.56 1.426.776 1.035 1.179 1.935 1.207 2.7.028.764-.014 1.535-.127 2.311-.349.743-.703 1.44-1.063 2.092-.36.653-.63 1.485-.81 2.498 0 .978.152 1.858.456 2.64a9.164 9.164 0 0 0 1.181 2.152l.236 1.518zm-4.758-12.537c.158.304-.017.723-.523 1.258-.506.534-1.164.857-1.974.97a1.752 1.752 0 0 0-.549.152c-.129.067-.267.112-.413.135-.09.067-.222.135-.396.202-.175.068-.38.169-.616.304a5.972 5.972 0 0 0-1.68 1.333c-.5.562-.936 1.164-1.307 1.805-.259.799-.441 1.859-.548 3.18-.107 1.322-.127 2.388-.06 3.198h11.508a40.684 40.684 0 0 1-.236-1.502c-.484-.54-.88-1.29-1.19-2.252-.31-.962-.458-1.842-.447-2.64.135-.822.453-1.778.953-2.869.501-1.091.886-1.94 1.156-2.548.034-.438.034-.92 0-1.442-.034-.524-.275-1.027-.725-1.51-.236-.44-.734-.993-1.493-1.662-.76-.67-1.68-1.038-2.76-1.106.158-.753-.039-1.338-.59-1.755-.078.495-.472.968-1.18 1.418-.71.45-1.435.703-2.177.76-.642.753-1.516 1.265-2.624 1.534l-3.316.81c-.337.574-.329.979.026 1.215.354.236.565.534.632.895.293.213.414.396.363.548-.05.152.408.149 1.375-.008.641-.293 1.13-.405 1.468-.338.338.068.866.163 1.586.287.191.146.377.247.557.303.585.495 1.378.653 2.379.473 1.215-.203 1.907-.787 2.075-1.755.428.023.67.225.726.607z" fill="#000"/><path d="M21.793 14.559c.506-.535.68-.954.523-1.257-.056-.383-.298-.585-.726-.608-.168.967-.86 1.552-2.075 1.755-1.001.18-1.794.022-2.38-.473a1.827 1.827 0 0 1-.556-.303c-.72-.124-1.248-.22-1.586-.287-.337-.067-.827.045-1.468.338-.967.157-1.425.16-1.375.008.05-.152-.07-.335-.363-.548-.067-.36-.278-.659-.632-.895-.355-.236-.363-.64-.026-1.215l3.316-.81c1.108-.27 1.982-.781 2.623-1.535.743-.056 1.468-.31 2.177-.76.709-.45 1.102-.922 1.181-1.417.551.417.748 1.002.59 1.755 1.08.068 2 .436 2.76 1.105.759.67 1.256 1.224 1.493 1.662.45.484.692.988.725 1.51.034.524.034 1.005 0 1.443-.27.608-.655 1.457-1.156 2.548-.5 1.091-.818 2.047-.953 2.868-.011.799.138 1.68.447 2.641.31.962.706 1.713 1.19 2.253a40.684 40.684 0 0 0 .236 1.501H14.25c-.068-.81-.048-1.876.059-3.197.107-1.322.29-2.382.548-3.18.371-.642.807-1.244 1.308-1.806a5.972 5.972 0 0 1 1.679-1.333c.236-.135.441-.236.616-.304.174-.067.306-.135.396-.202.146-.023.284-.068.413-.135.13-.068.313-.119.549-.152.81-.113 1.468-.436 1.974-.97z" fill="#fff"/><path d="M18.047 19.73c-1.18 2.036-1.44 3.61-.776 4.724.259.102.546.17.86.203.316.034.563-.09.743-.371-.236-.552-.357-1.21-.363-1.975-.005-.764.211-1.524.65-2.277.101-.18.247-.433.438-.76.192-.326.344-.55.456-.675 0-.517-.163-.711-.49-.582-.19.076-.291.105-.3.086.038-.039.077-.076.115-.11-.083.06-.122.096-.115.11-.392.388-.798.93-1.218 1.627zM18.874 9.91c-.236-.394-.765-.349-1.586.135-.855.473-1.153.911-.894 1.316.213.394.742.354 1.586-.118.832-.484 1.13-.928.894-1.333z" fill="#000"/><path d="M11.973 28.065c0-.765.377-1.147 1.13-1.147H26.89c.765 0 1.147.382 1.147 1.147s-.383 1.148-1.147 1.148H13.103c-.753 0-1.13-.383-1.13-1.148zM15.415 30.41h14.359c1.159 0 1.738.585 1.738 1.755 0 1.159-.58 1.738-1.738 1.738H10.235c-1.17 0-1.755-.579-1.755-1.738 0-1.17.585-1.754 1.755-1.754h5.18z" fill="#fff"/></svg>