<svg width="40" height="40" fill="none" xmlns="http://www.w3.org/2000/svg"><path d="M15.382 18.853c-.09 2.902-.6 5.354-1.527 7.356-.928 2.002-2.005 3.004-3.232 3.004h-.438c-.799 0-1.482.284-2.05.852-.568.568-.852 1.245-.852 2.033 0 .81.284 1.496.852 2.058a2.81 2.81 0 0 0 2.05.844h19.64c.798 0 1.479-.281 2.041-.844.563-.562.844-1.248.844-2.058a2.79 2.79 0 0 0-.844-2.033 2.767 2.767 0 0 0-2.041-.852h-.506c-1.193 0-2.256-1.002-3.19-3.004-.933-2.002-1.456-4.454-1.569-7.356h2.396c.63 0 1.167-.223 1.612-.667.444-.444.666-.987.666-1.628 0-.63-.222-1.17-.666-1.62a2.182 2.182 0 0 0-1.612-.675l-3.644.017c1.282-1.035 1.923-2.385 1.923-4.05 0-1.44-.509-2.67-1.527-3.695C22.69 5.512 21.456 5 20.005 5c-1.44 0-2.675.512-3.704 1.535-1.03 1.024-1.544 2.256-1.544 3.696 0 1.653.636 3.003 1.907 4.05l-3.611-.018c-.63 0-1.17.225-1.62.675-.45.45-.675.99-.675 1.62 0 .641.225 1.184.675 1.628.45.444.99.667 1.62.667h2.329z" fill="#000"/><path d="M23.48 18.853h-6.833c-.169 2.373-.585 4.485-1.249 6.335-.663 1.85-1.428 3.198-2.294 4.041h13.751c-.81-.832-1.521-2.176-2.134-4.032-.613-1.856-1.027-3.97-1.24-6.344zM28.036 16.625c0-.764-.382-1.147-1.147-1.147H13.104c-.765 0-1.148.383-1.148 1.147 0 .754.383 1.131 1.148 1.131h13.785c.765 0 1.147-.377 1.147-1.13zM22.856 7.38a3.885 3.885 0 0 0-2.851-1.182 3.885 3.885 0 0 0-2.852 1.181 3.885 3.885 0 0 0-1.18 2.852c0 1.113.393 2.064 1.18 2.851a3.885 3.885 0 0 0 2.852 1.181 3.885 3.885 0 0 0 2.851-1.18 3.885 3.885 0 0 0 1.181-2.852 3.885 3.885 0 0 0-1.18-2.852zM31.512 32.165c0-1.17-.58-1.754-1.738-1.754H10.235c-1.17 0-1.754.584-1.754 1.754 0 1.159.584 1.738 1.754 1.738h19.54c1.158 0 1.737-.579 1.737-1.738z" fill="#fff"/></svg>