<svg width="40" height="40" fill="none" xmlns="http://www.w3.org/2000/svg"><path d="M27.298 26.436c.81 0 1.216.405 1.216 1.216 0 .81-.405 1.215-1.216 1.215H12.691c-.798 0-1.198-.405-1.198-1.215s.4-1.216 1.198-1.216h14.607zm-13.39-1.144L8.435 15.03c.417.19.852.298 1.305.321.882.072 1.657-.447 2.325-1.555.286.465.876.87 1.77 1.216.893.345 1.775.459 2.646.34a10.394 10.394 0 0 0 2.047-.501c.625-.227 1.117-.572 1.475-1.037.834 1.025 2.008 1.537 3.522 1.537 2.24-.012 3.695-.572 4.362-1.68.596.99 1.389 1.55 2.378 1.68.298.036.733-.071 1.305-.321L26.1 25.292H13.906zm16.447 4.845c1.228 0 1.842.62 1.842 1.86 0 1.227-.614 1.84-1.842 1.84H9.652c-1.24 0-1.86-.613-1.86-1.84 0-1.24.62-1.86 1.86-1.86h20.703zM17.912 9.38a5.626 5.626 0 0 0-2.387 1.815c-.626.816-.945 1.725-.957 2.726a3.516 3.516 0 0 1-1.376-.831 9.966 9.966 0 0 1-1.109-1.314c-.429 1.573-1.323 2.36-2.681 2.36-.644 0-1.323-.206-2.038-.617a4.86 4.86 0 0 1-1.717-1.636l6.99 13.409c-.631.036-1.191.283-1.68.742a2.228 2.228 0 0 0-.733 1.69c0 .345.101.727.304 1.144h-.93c-.846 0-1.57.3-2.172.902-.602.602-.903 1.32-.903 2.155 0 .858.301 1.585.903 2.181A2.976 2.976 0 0 0 9.598 35h20.81c.847 0 1.568-.298 2.164-.894.596-.596.894-1.323.894-2.181 0-.834-.298-1.553-.894-2.155a2.932 2.932 0 0 0-2.163-.902h-.876c.167-.215.25-.596.25-1.145 0-.667-.241-1.227-.724-1.68a2.697 2.697 0 0 0-1.69-.751l6.991-13.409c-1.037 1.502-2.27 2.253-3.7 2.253-1.395 0-2.307-.787-2.736-2.36-.656 1.037-1.52 1.746-2.593 2.127a4.159 4.159 0 0 0-.858-2.717 5.451 5.451 0 0 0-2.378-1.806c.394-.5.59-1.067.59-1.698 0-.74-.259-1.371-.777-1.896A2.575 2.575 0 0 0 20.004 5c-.74 0-1.371.262-1.896.787a2.583 2.583 0 0 0-.786 1.895c0 .631.197 1.197.59 1.698z" fill="#000"/><path d="M17.215 11.41c-.787.708-1.216 1.575-1.288 2.6.894.072 1.699-.107 2.414-.536a4.544 4.544 0 0 0 1.663-1.698 6.38 6.38 0 0 0 1.439 1.645c.542.429 1.314.625 2.315.59.095-1.025-.235-1.893-.992-2.602-.757-.709-1.678-1.064-2.762-1.064-1.073 0-2.003.355-2.79 1.064zM21.398 7.682c0-.942-.465-1.413-1.394-1.413-.93 0-1.395.471-1.395 1.413 0 .93.465 1.394 1.395 1.394.93 0 1.394-.465 1.394-1.394z" fill="#fff"/><path d="m8.436 15.03 5.471 10.262H26.1l5.47-10.262c-.571.25-1.006.357-1.304.321-.99-.13-1.782-.69-2.378-1.68-.667 1.108-2.121 1.668-4.362 1.68-1.514 0-2.688-.512-3.522-1.537-.358.465-.85.81-1.475 1.037-.626.226-1.308.393-2.047.5-.87.12-1.752.006-2.646-.34-.894-.345-1.484-.75-1.77-1.215-.668 1.108-1.443 1.627-2.325 1.555a3.562 3.562 0 0 1-1.305-.321zM28.514 27.652c0-.81-.405-1.216-1.216-1.216H12.691c-.798 0-1.198.405-1.198 1.216 0 .81.4 1.215 1.198 1.215h14.607c.81 0 1.216-.405 1.216-1.215zM32.197 31.996c0-1.24-.614-1.86-1.842-1.86H9.652c-1.24 0-1.86.62-1.86 1.86 0 1.228.62 1.842 1.86 1.842h20.703c1.228 0 1.842-.614 1.842-1.842z" fill="#fff"/></svg>