<svg width="40" height="40" fill="none" xmlns="http://www.w3.org/2000/svg"><path d="M14.228 13.64v-2.83h-2.304V6.084h2.304v3.507h4.625V6.084h2.286v3.507h4.642V6.084h2.287v4.726H25.78v2.83l1.152 15.55H13.076l.348-4.699.804-10.852z" fill="#fff"/><path d="M25.78 13.64H14.229v-2.83h-2.304V6.084h2.304v3.507h4.625V6.084h2.286v3.507h4.642V6.084h2.287v4.726H25.78v2.83zm-4.03 12.975v2.575h-3.49v-2.575h3.49zm0-7.81v2.643h-3.49v-2.642h3.49zm-6.523 6.523h-1.88l.237-2.575 1.644-.017h3.828v2.591h-3.829zm9.554 0h-3.828v-2.592H26.374l.22 2.591H24.78zM15.228 17.5h-1.22l.203-2.575H19.056v2.575h-3.829zm9.553 0h-3.828v-2.575H25.781l.186 2.592-1.186-.017zM13.076 29.19l.204-2.575h3.828v2.575h-4.032zm.576-7.742.237-2.642h3.219v2.642h-3.456zm13.28 7.742h-4.048v-2.575h3.829l.22 2.575zm-.643-7.725-3.405-.017v-2.642h3.202l.203 2.66zm-14.687 7.183-1.456.542c-.802 0-1.488.285-2.059.855-.57.57-.855 1.25-.855 2.041 0 .814.285 1.502.855 2.067a2.82 2.82 0 0 0 2.059.847h19.717c.802 0 1.485-.282 2.05-.847.565-.565.847-1.254.847-2.067a2.8 2.8 0 0 0-.847-2.04 2.778 2.778 0 0 0-2.05-.856l-1.524-.542c-.497-2.632-.82-5.094-.966-7.386-.147-2.293-.294-4.653-.44-7.08v-2.288h2.337V5H24.63v3.388h-2.338V5h-4.573v3.388h-2.355V5h-4.641v6.894h2.354v2.287c-.09 2.541-.226 4.93-.406 7.166-.181 2.236-.537 4.67-1.068 7.3zm18.21 1.744c1.164 0 1.745.588 1.745 1.762 0 1.163-.581 1.745-1.744 1.745H10.197c-1.175 0-1.762-.582-1.762-1.745 0-1.174.587-1.762 1.762-1.762h19.616z" fill="#000"/><path d="M31.557 32.154c0-1.174-.581-1.762-1.744-1.762H10.197c-1.175 0-1.762.588-1.762 1.762 0 1.163.587 1.745 1.762 1.745h19.616c1.163 0 1.744-.582 1.744-1.745z" fill="#fff"/></svg>