<svg width="40" height="40" viewBox="0 0 40 40" fill="none" xmlns="http://www.w3.org/2000/svg">
<g clip-path="url(#clip0_2749_4033)">
<path d="M7.37109 22.6313V15.6998C5.52293 15.7545 4.03125 17.2931 4.03125 19.1655C4.03125 21.038 5.52293 22.5765 7.37109 22.6313Z" stroke="#6F6F6F" stroke-width="1.5"/>
<path d="M32.6367 15.7007V22.6323C34.4849 22.5775 35.9766 21.039 35.9766 19.1665C35.9766 17.294 34.4849 15.7555 32.6367 15.7007Z" stroke="#6F6F6F" stroke-width="1.5"/>
<path d="M25.8434 30.6992C27.7442 30.6992 29.2852 32.2402 29.2852 34.141L29.2852 43.3281L29.2852 52.5152C29.2852 54.4161 27.7442 55.957 25.8434 55.957L14.1349 55.957C12.2341 55.957 10.6931 54.4161 10.6931 52.5152L10.6931 34.141C10.6931 32.2402 12.2341 30.6992 14.1349 30.6992L25.8434 30.6992Z" stroke="#34C759" stroke-width="1.5"/>
<path d="M21.6703 2.34619C21.6703 3.26348 20.926 4.00717 20.0078 4.00717C19.0896 4.00717 18.3454 3.26348 18.3454 2.34619C18.3454 1.4289 19.0896 0.68521 20.0078 0.68521C20.926 0.68521 21.6703 1.4289 21.6703 2.34619Z" fill="#34C759" stroke="#34C759" stroke-width="0.104795"/>
<path d="M20.0078 8.36719L20.0078 3.63281" stroke="#34C759" stroke-width="1.5"/>
<path fill-rule="evenodd" clip-rule="evenodd" d="M31.8828 23.1959V11.4731C31.8828 9.98641 30.6777 8.78125 29.191 8.78125H20.0039H10.8168C9.33016 8.78125 8.125 9.98641 8.125 11.4731V23.1959C8.125 24.6825 9.33016 25.8877 10.8168 25.8877H29.191C30.6777 25.8877 31.8828 24.6825 31.8828 23.1959ZM10.8168 7.28125C8.50173 7.28125 6.625 9.15799 6.625 11.4731V23.1959C6.625 25.511 8.50173 27.3877 10.8168 27.3877H29.191C31.5061 27.3877 33.3828 25.511 33.3828 23.1959V11.4731C33.3828 9.15798 31.5061 7.28125 29.191 7.28125H20.0039H10.8168ZM28.5674 19.8668V16.5121C28.5674 15.0255 27.3622 13.8203 25.8756 13.8203H20.0103H14.1449C12.6583 13.8203 11.4531 15.0255 11.4531 16.5121V19.8668C11.4531 21.3534 12.6583 22.5586 14.1449 22.5586H25.8756C27.3622 22.5586 28.5674 21.3534 28.5674 19.8668ZM14.1449 12.3203C11.8299 12.3203 9.95312 14.197 9.95312 16.5121V19.8668C9.95312 22.1819 11.8299 24.0586 14.1449 24.0586H25.8756C28.1906 24.0586 30.0674 22.1819 30.0674 19.8668V16.5121C30.0674 14.197 28.1906 12.3203 25.8756 12.3203H20.0103H14.1449ZM14.8109 18.6328C15.64 18.6328 16.3121 17.9612 16.3121 17.1328C16.3121 16.3044 15.64 15.6328 14.8109 15.6328C13.9817 15.6328 13.3096 16.3044 13.3096 17.1328C13.3096 17.9612 13.9817 18.6328 14.8109 18.6328ZM26.6989 17.1328C26.6989 17.9612 26.0267 18.6328 25.1976 18.6328C24.3684 18.6328 23.6963 17.9612 23.6963 17.1328C23.6963 16.3044 24.3684 15.6328 25.1976 15.6328C26.0267 15.6328 26.6989 16.3044 26.6989 17.1328ZM21.8147 20.7135C21.9738 20.5135 21.8802 20.2308 21.6525 20.1146C21.4248 19.9984 21.15 20.097 20.9657 20.2742C20.8937 20.3434 20.8142 20.4049 20.7283 20.4575C20.5099 20.5911 20.2588 20.6618 20.0027 20.6616C19.7466 20.6615 19.4956 20.5905 19.2774 20.4566C19.1915 20.4039 19.1121 20.3423 19.0402 20.273C18.8561 20.0957 18.5814 19.9967 18.3536 20.1126C18.1257 20.2285 18.0318 20.5111 18.1906 20.7113C18.358 20.9223 18.5617 21.1034 18.7932 21.2455C19.157 21.4687 19.5754 21.587 20.0021 21.5872C20.4289 21.5875 20.8474 21.4697 21.2114 21.247C21.4432 21.1052 21.6471 20.9243 21.8147 20.7135Z" fill="#6F6F6F"/>
</g>
<defs>
<clipPath id="clip0_2749_4033">
<rect width="40" height="40" fill="#6F6F6F"/>
</clipPath>
</defs>
</svg>
