<svg width="103" height="109" viewBox="0 0 103 109" fill="none" xmlns="http://www.w3.org/2000/svg">
<path d="M19.4857 9.22347C15.0374 11.2472 5.87921 15.9339 4.22014 24.5613C2.56107 33.1888 -0.127001 51.7009 1.08615 64.3972C2.6026 80.2676 19.4857 87.5105 26.0569 89.7472C32.6282 91.984 67.2031 92.8361 81.5588 89.7472C95.9145 86.6584 98.6441 71.427 101.576 56.8348C104.508 42.2425 96.7232 33.615 91.6684 24.5613C86.6136 15.5076 64.6757 0.915467 51.331 0.0633642C37.9863 -0.788738 23.9339 7.19972 19.4857 9.22347Z" fill="#F7F7F8"/>
<path d="M99.2573 81.6231C100.224 81.4273 101.206 81.2286 102.204 81.0265L95.5065 48.3101L88.8086 15.5938L64.2086 20.6836M31.176 95.5885L65.2166 88.6058M33.5022 26.8869L0.780254 33.5659L7.52612 66.2831" stroke="black" stroke-width="0.38716" stroke-linecap="round" stroke-linejoin="round"/>
<line x1="49.5007" y1="83.6923" x2="71.876" y2="78.9362" stroke="#565656" stroke-width="0.38716" stroke-linecap="round"/>
<line x1="48.5358" y1="79.1454" x2="70.9112" y2="74.3894" stroke="#565656" stroke-width="0.38716" stroke-linecap="round"/>
<line x1="43.0163" y1="75.5595" x2="69.9425" y2="69.8361" stroke="#565656" stroke-width="0.38716" stroke-linecap="round"/>
<line x1="67.6298" y1="79.8431" x2="63.7766" y2="61.7152" stroke="#565656" stroke-width="0.38716" stroke-linecap="round"/>
<line x1="63.079" y1="80.804" x2="59.2258" y2="62.6761" stroke="#565656" stroke-width="0.38716" stroke-linecap="round"/>
<line x1="58.5282" y1="81.7728" x2="53.7722" y2="59.3974" stroke="#565656" stroke-width="0.38716" stroke-linecap="round"/>
<line x1="48.4579" y1="79.1556" x2="44.9916" y2="62.848" stroke="#565656" stroke-width="0.38716" stroke-linecap="round"/>
<line x1="42.9423" y1="75.5775" x2="41.0237" y2="66.5511" stroke="#565656" stroke-width="0.38716" stroke-linecap="round"/>
<line x1="53.9774" y1="82.7415" x2="48.9635" y2="59.1526" stroke="#565656" stroke-width="0.38716" stroke-linecap="round"/>
<line x1="34.7663" y1="72.5517" x2="68.9738" y2="65.2806" stroke="#565656" stroke-width="0.38716" stroke-linecap="round"/>
<line x1="33.8014" y1="68.0048" x2="68.0089" y2="60.7338" stroke="#565656" stroke-width="0.38716" stroke-linecap="round"/>
<path d="M40.3051 25.1986C42.0894 22.3851 40.8686 16.918 38.0512 17.4145C36.7364 17.9772 37.8821 19.5152 37.206 21.1658C36.3607 23.2291 35.3277 24.7296 35.2338 28.9499C35.1399 33.1702 36.2668 33.9205 36.2668 36.5465C36.2668 39.8289 30.006 45.6553 26.5938 51.4582C29.7492 56.9352 37.0494 55.8035 40.3051 54.5531L40.3051 25.1986Z" fill="white"/>
<path d="M36.2668 36.5465C36.2668 39.8289 30.006 45.6553 26.5938 51.4582C29.7492 56.9352 37.0494 55.8035 40.3051 54.5531C40.3051 46.5814 40.3051 29.5502 40.3051 25.1986C42.0894 22.3851 40.8686 16.918 38.0512 17.4145C36.7364 17.9772 37.8821 19.5152 37.206 21.1658C36.3607 23.2291 35.3277 24.7296 35.2338 28.9499C35.1399 33.1702 36.2668 33.9205 36.2668 36.5465ZM36.2668 36.5465C36.2668 39.3976 35.8286 41.5484 35.6094 42.2674" stroke="black" stroke-width="0.38716" stroke-linecap="round" stroke-linejoin="round"/>
<path d="M58.2428 10.8537C56.6462 10.3848 51.3871 10.1034 50.1662 11.3226C49.4521 12.0357 48.4938 13.4523 47.7976 14.4814L47.7773 14.5113L56.7401 14.5113C58.8914 15.4661 60.4216 15.1425 61.4034 14.4829C62.2333 13.9252 61.9478 12.7705 61.0911 12.2549C60.1409 11.6831 59.0292 11.0847 58.2428 10.8537Z" fill="white"/>
<path d="M56.7401 14.5113C58.8914 15.4661 60.4216 15.1425 61.4034 14.4829C62.2333 13.9252 61.9478 12.7705 61.0911 12.2549C60.1409 11.6831 59.0292 11.0847 58.2428 10.8537C56.6462 10.3848 51.3871 10.1034 50.1662 11.3226C49.4452 12.0426 48.4751 13.4799 47.7773 14.5113C50.1075 14.5113 55.1624 14.5113 56.7401 14.5113ZM56.7401 14.5113C55.9879 14.2381 55.0623 13.6716 54.6936 13.4225" stroke="black" stroke-width="0.38716" stroke-linecap="round" stroke-linejoin="round"/>
<path d="M30.0437 44.9487L31.694 44.7084C33.141 44.4977 34.6138 44.5429 36.0452 44.8418L48.9833 47.544L22.8013 107.697L13.9616 99.6325L4.19141 77.6107L8.53372 70.632L21.3577 50.5315C23.3086 47.504 26.4763 45.468 30.0437 44.9487Z" fill="white"/>
<path d="M4.19141 77.2996L21.3365 50.43C23.2874 47.4025 26.4551 45.3665 30.0225 44.8471L31.6728 44.6068C33.1198 44.3961 34.5926 44.4413 36.024 44.7402L39.3946 45.5076M22.6462 108.006L44.6674 57.9142" stroke="black" stroke-width="0.38716" stroke-linecap="round" stroke-linejoin="round"/>
<path fill-rule="evenodd" clip-rule="evenodd" d="M44.5247 14.4844L58.1509 14.4844C60.5549 14.4844 62.5038 16.4175 62.5038 18.8022L62.5038 52.9694C62.5038 55.354 60.5549 57.2872 58.1509 57.2872L44.5247 57.2872C42.1207 57.2872 40.1719 55.354 40.1719 52.9694L40.1719 18.8022C40.1719 16.4175 42.1207 14.4844 44.5247 14.4844Z" fill="white"/>
<path d="M62.4682 30.2996L62.4682 18.8219C62.4682 16.4393 60.5341 14.5078 58.1482 14.5078L44.6247 14.5078C42.2388 14.5078 40.3047 16.4393 40.3047 18.8219L40.3047 52.9594C40.3047 55.342 42.2388 57.2735 44.6247 57.2735L58.1482 57.2735C59.3241 57.2735 60.3902 56.8044 61.1691 56.0433" stroke="black" stroke-width="0.38716" stroke-linecap="round" stroke-linejoin="round"/>
<path d="M42.3633 20.18C42.3633 18.0865 44.059 16.3886 46.1525 16.3858L56.6431 16.3721C58.7405 16.3694 60.4422 18.0689 60.4422 20.1663L60.4422 51.7753C60.4422 53.8689 58.7465 55.5668 56.653 55.5695L46.1624 55.5832C44.065 55.5859 42.3633 53.8864 42.3633 51.789L42.3633 20.18Z" fill="white"/>
<path d="M45.6875 19.7509C45.6875 19.3232 46.0342 18.9766 46.4618 18.9766H56.5511C56.9696 18.9766 57.3124 19.3091 57.3251 19.7274L57.459 24.1477C57.4693 24.4876 57.0248 24.6244 56.8422 24.3375L56.7903 24.2559C56.4086 23.6561 55.6677 23.393 54.9932 23.6179C54.6118 23.745 54.2948 24.0154 54.1091 24.3719L54.0108 24.5607C53.9393 24.6979 53.7974 24.784 53.6426 24.784H46.4618C46.0342 24.784 45.6875 24.4373 45.6875 24.0096V19.7509Z" fill="#34C759"/>
<path d="M62.3004 33.574L56.5508 24.4696C56.3201 24.1043 55.9182 23.8828 55.4861 23.8828C54.7907 23.8828 54.227 24.4466 54.227 25.142V25.2851C54.227 26.4898 54.4856 27.6804 54.9855 28.7765L62.0949 44.3653C62.2272 44.6553 62.2474 44.9839 62.1516 45.2879C61.8977 46.0944 60.9495 46.4425 60.234 45.9919L57.3945 44.2038C55.732 43.1569 53.8856 42.4358 51.9536 42.0792L51.1294 41.927C50.0034 41.7191 48.8604 42.192 48.2105 43.1347C47.8915 43.5973 48.0873 44.2364 48.6106 44.441L51.1117 45.4187C51.6201 45.6174 52.0801 45.9225 52.461 46.3135L54.7834 48.6975C57.8718 51.8678 61.359 54.6235 65.1574 56.8954C67.5725 58.3399 69.2851 60.7162 69.8916 63.4642L73.2062 78.4834C73.2062 78.4834 77.7864 68.0493 85.3723 67.0488L79.0745 52.3266L76.1865 35.4289C75.8835 33.6561 73.9695 32.6648 72.3468 33.4401L72.0666 33.574L70.5336 31.6182C69.8652 30.7654 68.6387 30.6012 67.7694 31.2481C66.3512 29.7184 63.8311 30.1363 62.9825 32.0419L62.3004 33.574Z" fill="white"/>
<path d="M62.3004 33.574L56.5508 24.4696C56.3201 24.1043 55.9182 23.8828 55.4861 23.8828V23.8828C54.7907 23.8828 54.227 24.4466 54.227 25.142V25.2851C54.227 26.4898 54.4856 27.6804 54.9855 28.7765L62.0949 44.3653C62.2272 44.6553 62.2474 44.9839 62.1516 45.2879V45.2879C61.8977 46.0944 60.9495 46.4425 60.234 45.9919L57.3945 44.2038C55.732 43.1569 53.8856 42.4358 51.9536 42.0792L51.1294 41.927C50.0034 41.7191 48.8604 42.192 48.2105 43.1347V43.1347C47.8915 43.5973 48.0873 44.2364 48.6106 44.441L51.1117 45.4187C51.6201 45.6174 52.0801 45.9225 52.461 46.3135L54.7834 48.6975C57.8718 51.8678 61.359 54.6235 65.1574 56.8954V56.8954C67.5725 58.3399 69.2851 60.7162 69.8916 63.4642L73.2062 78.4834C73.2062 78.4834 77.7864 68.0493 85.3723 67.0488L79.0745 52.3266L76.1865 35.4289C75.8835 33.6561 73.9695 32.6648 72.3468 33.4401L72.0666 33.574M62.3004 33.574L62.9825 32.0419C63.8311 30.1363 66.3512 29.7184 67.7694 31.2481V31.2481M62.3004 33.574L64.7745 37.3212M67.7694 31.2481V31.2481C68.6387 30.6012 69.8652 30.7654 70.5336 31.6182L72.0666 33.574M67.7694 31.2481L70.6342 36.5459M72.0666 33.574C72.0666 33.574 73.4121 36.0549 74.9747 37.192" stroke="black" stroke-width="0.38716" stroke-linecap="round" stroke-linejoin="round"/>
<path d="M67.2423 68.137C68.0475 58.1334 79.4601 52.1713 84.4152 59.1083C87.4789 62.4168 91.7204 72.8328 95.9981 82.2497L97.5488 85.6623L72.2703 92.9512L70.4093 87.3682C70.4093 87.3682 66.4371 78.1407 67.2423 68.137Z" fill="white"/>
<path d="M72.1145 92.797C72.1145 92.797 66.4366 78.1407 67.2419 68.1371C68.0471 58.1334 79.4597 52.1714 84.4148 59.1083C87.4785 62.4168 93.2709 76.0912 97.5486 85.5081" stroke="black" stroke-width="0.38716" stroke-linecap="round" stroke-linejoin="round"/>
<ellipse cx="57.8597" cy="66.5486" rx="0.893634" ry="0.926547" transform="rotate(-12 57.8597 66.5486)" fill="#AEAEB2"/>
<rect x="57.3203" y="67.4609" width="1.46556" height="0.59299" rx="0.296495" transform="rotate(-12 57.3203 67.4609)" fill="#AEAEB2"/>
<rect x="57.2344" y="70.3203" width="2.78814" height="0.59299" rx="0.296495" transform="rotate(-12 57.2344 70.3203)" fill="#AEAEB2"/>
<path d="M57.3672 69.5703L59.535 69.1095C59.6286 69.55 59.3474 69.983 58.9069 70.0766L58.3343 70.1983C57.8938 70.292 57.4608 70.0108 57.3672 69.5703Z" fill="#AEAEB2"/>
<path d="M58.5191 69.3223L58.1647 67.8441L57.5878 67.9667C57.6233 68.1338 57.7265 68.5664 57.6552 68.9459C57.5986 69.247 57.4543 69.4823 57.3652 69.5675L58.5191 69.3223Z" fill="#AEAEB2"/>
<path d="M58.3823 69.3535L58.1049 67.859L58.6818 67.7364C58.7173 67.9035 58.7989 68.3407 59.0184 68.6583C59.1926 68.9103 59.4201 69.0667 59.5362 69.1083L58.3823 69.3535Z" fill="#AEAEB2"/>
<ellipse cx="47.9339" cy="64.6893" rx="0.893634" ry="0.926547" transform="rotate(-12 47.9339 64.6893)" fill="#AEAEB2"/>
<rect x="47.3945" y="65.6016" width="1.46556" height="0.59299" rx="0.296495" transform="rotate(-12 47.3945 65.6016)" fill="#AEAEB2"/>
<rect x="47.3086" y="68.4609" width="2.78814" height="0.59299" rx="0.296495" transform="rotate(-12 47.3086 68.4609)" fill="#AEAEB2"/>
<path d="M47.4414 67.7109L49.6092 67.2502C49.7028 67.6906 49.4216 68.1236 48.9812 68.2172L48.4085 68.339C47.968 68.4326 47.535 68.1514 47.4414 67.7109Z" fill="#AEAEB2"/>
<path d="M48.5972 67.4629L48.2428 65.9847L47.6659 66.1074C47.7014 66.2744 47.8047 66.707 47.7333 67.0865C47.6767 67.3876 47.5325 67.623 47.4434 67.7081L48.5972 67.4629Z" fill="#AEAEB2"/>
<path d="M48.4566 67.4941L48.1791 65.9996L48.756 65.877C48.7915 66.0441 48.8731 66.4813 49.0927 66.799C49.2668 67.051 49.4943 67.2073 49.6104 67.2489L48.4566 67.4941Z" fill="#AEAEB2"/>
</svg>
