<svg width="109" height="108" viewBox="0 0 109 108" fill="none" xmlns="http://www.w3.org/2000/svg">
<g clip-path="url(#clip0_22835_119047)">
<circle cx="54.5" cy="54" r="54" fill="#AEAEB2" fill-opacity="0.1"/>
<mask id="mask0_22835_119047" style="mask-type:alpha" maskUnits="userSpaceOnUse" x="0" y="0" width="109" height="108">
<circle cx="54.5" cy="54" r="54" fill="#AEAEB2"/>
</mask>
<g mask="url(#mask0_22835_119047)">
<path d="M27.6914 97.0039L32.3438 79.9961L57.5 79.9922V97.0039H27.6914Z" fill="#34C759"/>
<path d="M37.0684 62.0459L40.3423 49.4951L58.0449 49.4922V62.0459H37.0684Z" fill="#34C759"/>
<path d="M12.6783 43.6166L-25.9258 136.617C-26.1991 137.275 -25.7152 138 -25.0022 138H133.963C134.686 138 135.17 137.256 134.877 136.595L93.6649 43.5949C93.5047 43.2332 93.1463 43 92.7507 43H13.6018C13.1977 43 12.8332 43.2433 12.6783 43.6166Z" stroke="#34C759"/>
<path d="M21.6443 49.6138L-8.91962 122.614C-9.19549 123.273 -8.71152 124 -7.99721 124H117.958C118.682 124 119.166 123.253 118.871 122.592L86.2416 49.5919C86.0806 49.2318 85.723 49 85.3286 49H22.5667C22.1637 49 21.8 49.242 21.6443 49.6138Z" stroke="#0F0F0F"/>
<line x1="16.4337" y1="62.4767" x2="91.7945" y2="62.4934" stroke="black" stroke-linecap="round"/>
<line x1="9.33402" y1="79.4961" x2="99.334" y2="79.5018" stroke="black" stroke-linecap="round"/>
<line x1="2" y1="97.5" x2="79" y2="97.5" stroke="black" stroke-linecap="round"/>
<line x1="0.5" y1="-0.5" x2="68.5525" y2="-0.5" transform="matrix(-0.263591 0.964635 -0.964172 -0.265278 39.8906 48.5781)" stroke="black" stroke-linecap="round"/>
<line x1="58" y1="49.5" x2="58" y2="108.5" stroke="black" stroke-linecap="round"/>
<line x1="0.5" y1="-0.5" x2="39.5" y2="-0.5" transform="matrix(0.290249 0.956951 -0.956395 0.292077 72.4941 49.1797)" stroke="black" stroke-linecap="round"/>
<path d="M37.5326 90C37.5109 89.7415 37.5 89.2353 37.5 88.4813C37.5 85.767 38.3485 83.7528 40.0455 82.4388C40.5459 82.0295 41.155 81.6525 41.873 81.3078C41.0245 81.0493 40.4479 80.4138 40.1434 79.4014C40.0563 79.0782 40.0128 78.7443 40.0128 78.3997C40.0128 76.9563 40.7634 75.9331 42.2646 75.3299C41.8729 74.6837 41.6771 74.0697 41.6772 73.4881C41.6771 72.5187 42.1558 71.7971 43.1131 71.3231C43.5481 71.1077 44.0159 71 44.5163 71C45.6041 71 46.4091 71.4201 46.9312 72.2602C47.1705 72.6264 47.2902 73.0357 47.2902 73.4881C47.2902 74.1128 47.1053 74.7268 46.7354 75.3299C47.5404 75.6531 48.1169 76.0839 48.465 76.6224C48.8131 77.2041 48.9871 77.7965 48.9872 78.3997C48.9871 79.5198 48.5955 80.3707 47.8124 80.9524C47.6165 81.1247 47.399 81.2432 47.1597 81.3078C49.1612 82.3203 50.4557 83.6451 51.0431 85.2823C51.3477 86.1871 51.5 87.2534 51.5 88.4813C51.5 89.2353 51.4891 89.7415 51.4674 90H37.5326Z" fill="black"/>
</g>
</g>
<defs>
<clipPath id="clip0_22835_119047">
<rect width="108" height="108" fill="white" transform="translate(0.5)"/>
</clipPath>
</defs>
</svg>
