<svg width="121" height="120" viewBox="0 0 121 120" fill="none" xmlns="http://www.w3.org/2000/svg">
<path d="M60.5 0L79.2438 21.0781L107.41 22.5906L102.617 50.3871L118.996 73.3513L94.2751 86.9348L86.533 114.058L60.5 103.2L34.467 114.058L26.7249 86.9348L2.00433 73.3513L18.3831 50.3871L13.5901 22.5906L41.7562 21.0781L60.5 0Z" fill="#F7F7F8"/>
<path fill-rule="evenodd" clip-rule="evenodd" d="M15.192 8.52344C13.1692 8.52344 11.5293 10.1633 11.5293 12.1862V26.2267H16.925V15.14C16.925 14.4657 17.4716 13.9191 18.1459 13.9191H29.2326V8.52344H15.192Z" fill="#34C759"/>
<path fill-rule="evenodd" clip-rule="evenodd" d="M103.968 8.52344H89.9277V13.9191H101.014C101.689 13.9191 102.235 14.4657 102.235 15.14V26.2267H107.631V12.1862C107.631 10.1633 105.991 8.52344 103.968 8.52344Z" fill="#34C759"/>
<path fill-rule="evenodd" clip-rule="evenodd" d="M107.631 86.9297H102.235V97.9375C102.235 98.6118 101.689 99.1584 101.014 99.1584H89.9277V104.633H103.968C105.991 104.633 107.631 102.993 107.631 100.97V86.9297Z" fill="#34C759"/>
<path fill-rule="evenodd" clip-rule="evenodd" d="M16.925 86.9297H11.5293V100.97C11.5293 102.993 13.1692 104.633 15.192 104.633H29.2326V99.1584H18.1459C17.4716 99.1584 16.925 98.6118 16.925 97.9375V86.9297Z" fill="#34C759"/>
<g clip-path="url(#clip0_30843_176385)">
<path d="M47.6129 76.1535L47.5077 75.9595L47.288 75.9801L36.4582 76.9949L48.6166 53.7592L65.0084 62.5841L52.8519 85.8161L47.6129 76.1535Z" fill="white" stroke="#2A2A2A" stroke-width="0.668276"/>
<path d="M71.9073 53.7592L84.0657 76.9949L73.2359 75.9801L73.0162 75.9595L72.911 76.1535L67.672 85.8161L55.5156 62.5841L71.9073 53.7592Z" fill="white" stroke="#2A2A2A" stroke-width="0.668276"/>
<path d="M80.9798 49.3557C80.9798 60.9701 71.699 70.3773 60.2605 70.3773C48.822 70.3773 39.5412 60.9701 39.5412 49.3557C39.5412 37.7413 48.822 28.3341 60.2605 28.3341C71.699 28.3341 80.9798 37.7413 80.9798 49.3557Z" fill="white" stroke="#2A2A2A" stroke-width="0.668276"/>
<path d="M60.2628 64.2539C52.1646 64.2539 45.5685 57.5682 45.5685 49.3439C45.5685 41.1196 52.1646 34.4357 60.2628 34.4357C68.3609 34.4357 74.957 41.1214 74.957 49.3457C74.957 57.57 68.361 64.2539 60.2628 64.2539Z" fill="white" stroke="#2A2A2A" stroke-width="0.668276"/>
<path fill-rule="evenodd" clip-rule="evenodd" d="M63.871 44.6859L60.259 37.3672L56.647 44.6859L48.5703 45.8595L54.4146 51.5563L53.035 59.6003L60.259 55.8025L67.483 59.6003L66.1033 51.5563L71.9476 45.8595L63.871 44.6859Z" fill="#34C759"/>
</g>
<defs>
<clipPath id="clip0_30843_176385">
<rect width="58.5247" height="58.5247" fill="white" transform="translate(31 28)"/>
</clipPath>
</defs>
</svg>
