<svg width="109" height="108" viewBox="0 0 109 108" fill="none" xmlns="http://www.w3.org/2000/svg">
<g clip-path="url(#clip0_22835_134796)">
<circle cx="54.5" cy="54" r="54" fill="#AEAEB2" fill-opacity="0.1"/>
<mask id="mask0_22835_134796" style="mask-type:alpha" maskUnits="userSpaceOnUse" x="0" y="0" width="109" height="108">
<circle cx="54.5" cy="54" r="54" fill="#AEAEB2"/>
</mask>
<g mask="url(#mask0_22835_134796)">
<path d="M12.6783 43.6166L-25.9258 136.617C-26.1991 137.275 -25.7152 138 -25.0022 138H133.963C134.686 138 135.17 137.256 134.877 136.595L93.6649 43.5949C93.5047 43.2332 93.1463 43 92.7507 43H13.6018C13.1977 43 12.8332 43.2433 12.6783 43.6166Z" stroke="#34C759"/>
<path d="M21.6443 49.6138L-8.91962 122.614C-9.19549 123.273 -8.71152 124 -7.99721 124H117.958C118.682 124 119.166 123.253 118.871 122.592L86.2416 49.5919C86.0806 49.2318 85.723 49 85.3286 49H22.5667C22.1637 49 21.8 49.242 21.6443 49.6138Z" stroke="#0F0F0F"/>
<line x1="16.4337" y1="62.4767" x2="91.7945" y2="62.4934" stroke="black" stroke-linecap="round"/>
<line x1="9.33402" y1="79.4961" x2="99.334" y2="79.5018" stroke="black" stroke-linecap="round"/>
<line x1="2" y1="97.5" x2="79" y2="97.5" stroke="black" stroke-linecap="round"/>
<line x1="0.5" y1="-0.5" x2="68.5525" y2="-0.5" transform="matrix(-0.263591 0.964635 -0.964172 -0.265278 39.8906 48.5781)" stroke="black" stroke-linecap="round"/>
<line x1="58" y1="49.5" x2="58" y2="108.5" stroke="black" stroke-linecap="round"/>
<line x1="0.5" y1="-0.5" x2="39.5" y2="-0.5" transform="matrix(0.290249 0.956951 -0.956395 0.292077 72.4941 49.1797)" stroke="black" stroke-linecap="round"/>
<path d="M34.4008 111.68C34.379 111.421 34.3682 110.915 34.3682 110.161C34.3682 107.447 35.2167 105.433 36.9136 104.118C37.414 103.709 38.0232 103.332 38.7411 102.988C37.8927 102.729 37.3161 102.094 37.0115 101.081C36.9245 100.758 36.881 100.424 36.881 100.079C36.881 98.636 37.6316 97.6128 39.1327 97.0096C38.7411 96.3634 38.5453 95.7494 38.5453 95.1678C38.5453 94.1984 39.0239 93.4767 39.9812 93.0028C40.4163 92.7874 40.8841 92.6797 41.3845 92.6797C42.4723 92.6797 43.2772 93.0998 43.7994 93.9399C44.0387 94.3061 44.1584 94.7154 44.1584 95.1678C44.1584 95.7925 43.9734 96.4064 43.6036 97.0096C44.4085 97.3327 44.9851 97.7636 45.3332 98.3021C45.6813 98.8838 45.8553 99.4762 45.8553 100.079C45.8553 101.2 45.4637 102.05 44.6805 102.632C44.4847 102.804 44.2671 102.923 44.0278 102.988C46.0294 104 47.3239 105.325 47.9113 106.962C48.2158 107.867 48.3681 108.933 48.3682 110.161C48.3681 110.915 48.3573 111.421 48.3355 111.68H34.4008Z" fill="black"/>
<path d="M78.7286 57.9205L78.6947 57.457C78.6827 57.2933 78.6777 56.996 78.6777 56.5826C78.6777 55.0009 79.1083 53.7315 80.0598 52.88C80.1643 52.782 80.2763 52.6879 80.3954 52.5976C80.1927 52.3519 80.0509 52.0443 79.9608 51.6993L79.9575 51.6868L79.9577 51.6867C79.9069 51.4697 79.882 51.2472 79.882 51.0202C79.882 50.5451 79.9901 50.1075 80.2301 49.7308C80.3849 49.4879 80.5857 49.2842 80.8241 49.1168C80.7304 48.8498 80.6796 48.5804 80.6796 48.3103L78.7286 57.9205ZM78.7286 57.9205H79.1934H85.8714H86.3363L86.3701 57.4569C86.3821 57.2933 86.3871 56.996 86.3871 56.5826V56.5826C86.3871 55.8711 86.3106 55.2334 86.148 54.6773L86.1481 54.6773L86.1455 54.6688C85.8871 53.8397 85.3825 53.1493 84.6602 52.5946M78.7286 57.9205L84.6602 52.5946M84.238 49.1138C84.3246 48.853 84.3696 48.5847 84.3696 48.3103V48.3103C84.3696 47.9826 84.2938 47.6723 84.1351 47.3907C83.9749 47.0957 83.7586 46.8513 83.478 46.6827C83.1958 46.5131 82.877 46.4375 82.5402 46.4375C82.2135 46.4375 81.904 46.5196 81.6201 46.6814L84.238 49.1138ZM84.238 49.1138C84.5001 49.2962 84.7151 49.5214 84.8686 49.7948L84.8725 49.8019L84.8763 49.809C85.0768 50.1948 85.1828 50.6003 85.1828 51.0202V51.0202C85.1828 51.6339 85.0217 52.1762 84.6602 52.5946M84.238 49.1138L84.6602 52.5946M81.6201 46.6814C81.0028 47.0332 80.6796 47.5987 80.6796 48.3103L81.6201 46.6814Z" fill="white" stroke="black"/>
<path d="M63.0743 57.9205L63.0404 57.457C63.0284 57.2933 63.0234 56.996 63.0234 56.5826C63.0234 55.0009 63.454 53.7315 64.4055 52.88C64.51 52.782 64.622 52.6879 64.7411 52.5976C64.5384 52.3519 64.3966 52.0443 64.3065 51.6993L64.3032 51.6868L64.3034 51.6867C64.2526 51.4697 64.2277 51.2472 64.2277 51.0202C64.2277 50.5451 64.3358 50.1075 64.5758 49.7308C64.7306 49.4879 64.9314 49.2842 65.1698 49.1168C65.0761 48.8498 65.0253 48.5804 65.0253 48.3103L63.0743 57.9205ZM63.0743 57.9205H63.5391H70.2171H70.682L70.7158 57.4569C70.7278 57.2933 70.7328 56.996 70.7328 56.5826V56.5826C70.7328 55.8711 70.6563 55.2334 70.4937 54.6773L70.4938 54.6773L70.4912 54.6688C70.2328 53.8397 69.7282 53.1493 69.0059 52.5946M63.0743 57.9205L69.0059 52.5946M68.5837 49.1138C68.6703 48.853 68.7153 48.5847 68.7153 48.3103V48.3103C68.7153 47.9826 68.6395 47.6723 68.4808 47.3907C68.3206 47.0957 68.1043 46.8513 67.8237 46.6827C67.5415 46.5131 67.2227 46.4375 66.8859 46.4375C66.5592 46.4375 66.2497 46.5196 65.9658 46.6814L68.5837 49.1138ZM68.5837 49.1138C68.8458 49.2962 69.0608 49.5214 69.2143 49.7948L69.2182 49.8019L69.222 49.809C69.4225 50.1948 69.5285 50.6003 69.5285 51.0202V51.0202C69.5285 51.6339 69.3674 52.1762 69.0059 52.5946M68.5837 49.1138L69.0059 52.5946M65.9658 46.6814C65.3485 47.0332 65.0253 47.5987 65.0253 48.3103L65.9658 46.6814Z" fill="white" stroke="black"/>
<path d="M44.2891 57.9205L44.2552 57.457C44.2433 57.2933 44.2383 56.996 44.2383 56.5826C44.2383 55.0009 44.6688 53.7315 45.6203 52.88C45.7249 52.782 45.8368 52.6879 45.9559 52.5976C45.7532 52.3519 45.6115 52.0443 45.5213 51.6993L45.5181 51.6868L45.5182 51.6867C45.4675 51.4697 45.4425 51.2472 45.4425 51.0202C45.4425 50.5451 45.5506 50.1075 45.7906 49.7308C45.9454 49.4879 46.1462 49.2842 46.3847 49.1168C46.291 48.8498 46.2401 48.5804 46.2401 48.3103L44.2891 57.9205ZM44.2891 57.9205H44.7539H51.432H51.8968L51.9307 57.4569C51.9426 57.2933 51.9476 56.996 51.9476 56.5826V56.5826C51.9476 55.8711 51.8712 55.2334 51.7086 54.6773L51.7087 54.6773L51.706 54.6688C51.4476 53.8397 50.943 53.1493 50.2207 52.5946M44.2891 57.9205L50.2207 52.5946M49.7986 49.1138C49.8852 48.853 49.9301 48.5847 49.9301 48.3103V48.3103C49.9301 47.9826 49.8543 47.6723 49.6956 47.3907C49.5355 47.0957 49.3191 46.8513 49.0386 46.6827C48.7563 46.5131 48.4376 46.4375 48.1008 46.4375C47.7741 46.4375 47.4646 46.5196 47.1807 46.6814L49.7986 49.1138ZM49.7986 49.1138C50.0607 49.2962 50.2756 49.5214 50.4291 49.7948L50.4331 49.8019L50.4368 49.809C50.6374 50.1948 50.7434 50.6003 50.7434 51.0202V51.0202C50.7434 51.6339 50.5822 52.1762 50.2207 52.5946M49.7986 49.1138L50.2207 52.5946M47.1807 46.6814C46.5634 47.0332 46.2401 47.5987 46.2401 48.3103L47.1807 46.6814Z" fill="white" stroke="black"/>
<path d="M23.6505 57.9205L23.6166 57.457C23.6046 57.2933 23.5996 56.996 23.5996 56.5826C23.5996 55.0009 24.0301 53.7315 24.9817 52.88C25.0862 52.782 25.1981 52.6879 25.3173 52.5976C25.1145 52.3519 24.9728 52.0443 24.8827 51.6993L24.8794 51.6868L24.8796 51.6867C24.8288 51.4697 24.8039 51.2472 24.8039 51.0202C24.8039 50.5451 24.9119 50.1075 25.152 49.7308C25.3068 49.4879 25.5075 49.2842 25.746 49.1168C25.6523 48.8498 25.6015 48.5804 25.6015 48.3103L23.6505 57.9205ZM23.6505 57.9205H24.1152H30.7933H31.2582L31.292 57.4569C31.3039 57.2933 31.3089 56.996 31.309 56.5826V56.5826C31.3089 55.8711 31.2325 55.2334 31.0699 54.6773L31.07 54.6773L31.0674 54.6688C30.8089 53.8397 30.3044 53.1493 29.582 52.5946M23.6505 57.9205L29.582 52.5946M29.1599 49.1138C29.2465 48.853 29.2915 48.5847 29.2915 48.3103V48.3103C29.2914 47.9826 29.2157 47.6723 29.0569 47.3907C28.8968 47.0957 28.6805 46.8513 28.3999 46.6827C28.1176 46.5131 27.7989 46.4375 27.4621 46.4375C27.1354 46.4375 26.8259 46.5196 26.542 46.6814L29.1599 49.1138ZM29.1599 49.1138C29.422 49.2962 29.637 49.5214 29.7905 49.7948L29.7944 49.8019L29.7981 49.809C29.9987 50.1948 30.1047 50.6003 30.1047 51.0202V51.0202C30.1047 51.6339 29.9435 52.1762 29.582 52.5946M29.1599 49.1138L29.582 52.5946M26.542 46.6814C25.9247 47.0332 25.6015 47.5987 25.6015 48.3103L26.542 46.6814Z" fill="white" stroke="black"/>
<path d="M64.3022 111.684C64.2804 111.425 64.2695 110.919 64.2695 110.165C64.2695 107.451 65.118 105.436 66.815 104.122C67.3154 103.713 67.9245 103.336 68.6425 102.991C67.794 102.733 67.2175 102.097 66.9129 101.085C66.8259 100.762 66.7824 100.428 66.7824 100.083C66.7824 98.6399 67.5329 97.6167 69.0341 97.0135C68.6425 96.3673 68.4467 95.7533 68.4467 95.1717C68.4467 94.2023 68.9253 93.4806 69.8826 93.0067C70.3177 92.7913 70.7854 92.6836 71.2859 92.6836C72.3736 92.6836 73.1786 93.1037 73.7008 93.9438C73.9401 94.31 74.0597 94.7193 74.0597 95.1717C74.0597 95.7964 73.8748 96.4104 73.505 97.0135C74.3099 97.3367 74.8864 97.7675 75.2346 98.306C75.5826 98.8877 75.7567 99.4801 75.7567 100.083C75.7567 101.203 75.3651 102.054 74.5819 102.636C74.3861 102.808 74.1685 102.927 73.9292 102.991C75.9307 104.004 77.2252 105.329 77.8127 106.966C78.1172 107.871 78.2695 108.937 78.2695 110.165C78.2695 110.919 78.2586 111.425 78.2369 111.684H64.3022Z" fill="black"/>
</g>
</g>
<defs>
<clipPath id="clip0_22835_134796">
<rect width="108" height="108" fill="white" transform="translate(0.5)"/>
</clipPath>
</defs>
</svg>
