<svg fill="none" height="24" viewBox="0 0 24 24" width="24" xmlns="http://www.w3.org/2000/svg">
    <path clip-rule="evenodd"
        d="M8.29512 2C7.5227 2 6.93515 2.69358 7.06213 3.4555L7.15288 4H4.75001C3.9997 4 3.31252 4.41994 2.97024 5.08763C2.62796 5.75531 2.68818 6.5584 3.12619 7.16758L9.36321 15.8417L10.3243 17.2543C8.90582 17.6951 7.68943 18.6817 6.86597 20C6.86396 20.0032 6.86195 20.0064 6.85994 20.0097C6.4856 20.6111 6.19294 21.2813 6.00001 22H18C17.8061 21.2774 17.5113 20.6039 17.1341 20C17.0653 19.8899 16.9938 19.7821 16.9196 19.6767C16.1182 18.538 15.0096 17.6842 13.7341 17.2728L14.7448 15.6916L20.8738 7.16758C21.3119 6.5584 21.3721 5.75531 21.0298 5.08763C20.6875 4.41994 20.0003 4 19.25 4H16.8471L16.9379 3.4555C17.0649 2.69358 16.4773 2 15.7049 2H8.29512ZM19.25 6L15.6882 10.9536L16.5138 6H19.25ZM7.48621 6L8.31181 10.9536L4.75001 6H7.48621Z"
        fill="#34C759" fill-rule="evenodd" />
</svg>
