<svg fill="none" height="24" viewBox="0 0 24 24" width="24" xmlns="http://www.w3.org/2000/svg">
    <path clip-rule="evenodd"
        d="M7.06029 3.4555C6.9333 2.69358 7.52085 2 8.29328 2H15.703C16.4755 2 17.063 2.69358 16.936 3.4555L14.993 15.114C14.9652 15.2804 14.9041 15.4395 14.8132 15.5817L13.1074 18.2505C12.6242 19.0065 11.5254 19.0222 11.0207 18.2804L9.20228 15.6079C9.10055 15.4584 9.03247 15.2886 9.00274 15.1102L7.06029 3.4555ZM9.17862 4L10.9485 14.619L12.0346 16.2153L13.0454 14.6338L14.8177 4H9.17862Z"
        fill="#AEAEB2" fill-rule="evenodd" />
    <path clip-rule="evenodd"
        d="M19.0933 6H15.4706V4H19.0933C20.7066 4 21.656 5.81196 20.7377 7.13842L13.9491 16.9442L12.3047 15.8058L19.0933 6Z"
        fill="#AEAEB2" fill-rule="evenodd" />
    <path clip-rule="evenodd"
        d="M4.96919 6H8.59187V4H4.96919C3.35586 4 2.40648 5.81196 3.3248 7.13842L10.1134 16.9442L11.7578 15.8058L4.96919 6Z"
        fill="#AEAEB2" fill-rule="evenodd" />
    <path clip-rule="evenodd"
        d="M6 22H18C17.806 21.2774 17.5113 20.6039 17.134 20C16.001 18.186 14.1239 17 12 17C9.8761 17 7.99904 18.186 6.86595 20C6.48873 20.6039 6.19396 21.2774 6 22ZM9.45376 20H14.5462C13.8103 19.3559 12.9124 19 12 19C11.0876 19 10.1897 19.3559 9.45376 20Z"
        fill="#AEAEB2" fill-rule="evenodd" />
</svg>
