<svg width="100" height="100" viewBox="0 0 100 100" fill="none" xmlns="http://www.w3.org/2000/svg">
<circle cx="50" cy="50" r="40" fill="#E7E7E8"/>
<path d="M25.092 81.3004C29.2519 71.7785 38.8385 65.1143 50 65.1143C61.1616 65.1143 70.7481 71.7785 74.908 81.3004C68.0743 86.7457 59.4172 90 50 90C40.5829 90 31.9258 86.7457 25.092 81.3004Z" fill="#AEAEB2"/>
<path d="M69.3699 42.1429C69.3699 52.7152 60.6978 61.2857 50.0001 61.2857C39.3024 61.2857 30.6302 52.7152 30.6302 42.1429C30.6302 31.5705 39.3024 23 50.0001 23C60.6978 23 69.3699 31.5705 69.3699 42.1429Z" fill="#AEAEB2"/>
<circle cx="50" cy="50" r="49.5" stroke="#E7E7E8"/>
</svg>
