<svg width="109" height="108" viewBox="0 0 109 108" fill="none" xmlns="http://www.w3.org/2000/svg">
<g clip-path="url(#clip0_22835_133325)">
<circle cx="54.5" cy="54" r="54" fill="#AEAEB2" fill-opacity="0.1"/>
<mask id="mask0_22835_133325" style="mask-type:alpha" maskUnits="userSpaceOnUse" x="0" y="0" width="109" height="108">
<circle cx="54.5" cy="54" r="54" fill="#AEAEB2"/>
</mask>
<g mask="url(#mask0_22835_133325)">
<path d="M12.6783 43.6166L-25.9258 136.617C-26.1991 137.275 -25.7152 138 -25.0022 138H133.963C134.686 138 135.17 137.256 134.877 136.595L93.6649 43.5949C93.5047 43.2332 93.1463 43 92.7507 43H13.6018C13.1977 43 12.8332 43.2433 12.6783 43.6166Z" stroke="#34C759"/>
<path d="M21.6443 49.6138L-8.91962 122.614C-9.19549 123.273 -8.71152 124 -7.99721 124H117.958C118.682 124 119.166 123.253 118.871 122.592L86.2416 49.5919C86.0806 49.2318 85.723 49 85.3286 49H22.5667C22.1637 49 21.8 49.242 21.6443 49.6138Z" stroke="#0F0F0F"/>
<line x1="16.4337" y1="62.4767" x2="91.7945" y2="62.4934" stroke="black" stroke-linecap="round"/>
<line x1="9.33402" y1="79.4961" x2="99.334" y2="79.5018" stroke="black" stroke-linecap="round"/>
<line x1="2" y1="97.5" x2="79" y2="97.5" stroke="black" stroke-linecap="round"/>
<line x1="0.5" y1="-0.5" x2="68.5525" y2="-0.5" transform="matrix(-0.263591 0.964635 -0.964172 -0.265278 39.8906 48.5781)" stroke="black" stroke-linecap="round"/>
<line x1="58" y1="49.5" x2="58" y2="108.5" stroke="black" stroke-linecap="round"/>
<line x1="0.5" y1="-0.5" x2="39.5" y2="-0.5" transform="matrix(0.290249 0.956951 -0.956395 0.292077 72.4941 49.1797)" stroke="black" stroke-linecap="round"/>
<path d="M37.5326 90C37.5109 89.7415 37.5 89.2353 37.5 88.4813C37.5 85.767 38.3485 83.7528 40.0455 82.4388C40.5459 82.0295 41.155 81.6525 41.873 81.3078C41.0245 81.0493 40.4479 80.4138 40.1434 79.4014C40.0563 79.0782 40.0128 78.7443 40.0128 78.3997C40.0128 76.9563 40.7634 75.9331 42.2646 75.3299C41.8729 74.6837 41.6771 74.0697 41.6772 73.4881C41.6771 72.5187 42.1558 71.7971 43.1131 71.3231C43.5481 71.1077 44.0159 71 44.5163 71C45.6041 71 46.4091 71.4201 46.9312 72.2602C47.1705 72.6264 47.2902 73.0357 47.2902 73.4881C47.2902 74.1128 47.1053 74.7268 46.7354 75.3299C47.5404 75.6531 48.1169 76.0839 48.465 76.6224C48.8131 77.2041 48.9871 77.7965 48.9872 78.3997C48.9871 79.5198 48.5955 80.3707 47.8124 80.9524C47.6165 81.1247 47.399 81.2432 47.1597 81.3078C49.1612 82.3203 50.4557 83.6451 51.0431 85.2823C51.3477 86.1871 51.5 87.2534 51.5 88.4813C51.5 89.2353 51.4891 89.7415 51.4674 90H37.5326Z" fill="black"/>
<path d="M61.4494 67.6113C61.7021 67.6113 61.8284 67.7828 61.8284 68.1257C61.8284 68.5769 61.6028 68.8025 61.1516 68.8025C60.9711 68.8025 60.8809 68.6581 60.8809 68.3693C60.8809 67.864 61.0704 67.6113 61.4494 67.6113ZM63.6152 59.2188C63.6874 59.4714 63.7235 59.6429 63.7235 59.7331C63.7235 59.7873 63.6964 59.9317 63.6423 60.1663C63.9311 60.1663 64.3281 60.0219 64.8335 59.7331C64.3462 59.4805 63.9401 59.309 63.6152 59.2188ZM60.3936 68.5318C60.5018 68.9649 60.7906 69.2808 61.2599 69.4793C61.4404 69.5515 61.6118 69.5876 61.7743 69.5876H61.8284C61.8645 69.5876 62.063 69.4793 62.424 69.2627C62.5323 69.1906 62.6225 69.1545 62.6947 69.1545H62.803C62.8933 69.1545 62.9384 69.2086 62.9384 69.3169L62.776 69.8313C62.776 69.9937 62.9023 70.0749 63.155 70.0749C63.1911 70.0749 63.4167 69.7591 63.8318 69.1274C64.6259 67.9001 65.754 66.9706 67.2159 66.3389C67.3603 65.3643 67.7212 64.507 68.2988 63.767C68.4432 63.5684 68.5876 63.4692 68.732 63.4692C68.8944 63.4692 68.9756 63.5865 68.9756 63.8211C68.9756 63.8753 68.8132 64.3896 68.4883 65.3643C68.362 65.7794 68.2988 66.0862 68.2988 66.2847C68.2988 66.3389 68.3168 66.4562 68.3529 66.6367C68.3529 67.9181 67.8115 69.2627 66.7286 70.6705C66.0066 71.6452 65.6096 72.4212 65.5374 72.9988H74.4714C74.5436 72.1686 74.5797 71.5549 74.5797 71.1578C74.5797 67.4398 73.4156 64.4709 71.0873 62.2509C70.3834 61.6012 69.8149 61.2763 69.3817 61.2763H67.7573C67.613 61.2041 67.4686 60.8431 67.3242 60.1934C67.2159 59.67 67.0805 59.3451 66.9181 59.2188C66.7015 59.8685 66.0337 60.3739 64.9147 60.7348C64.3191 60.9153 63.904 61.0958 63.6694 61.2763C63.4708 61.908 62.8842 63.1894 61.9096 65.1206C60.9531 67.0338 60.4477 68.1708 60.3936 68.5318Z" fill="white"/>
<path d="M61.4492 67.6108C61.7019 67.6108 61.8283 67.7823 61.8283 68.1252C61.8283 68.5764 61.6026 68.802 61.1514 68.802C60.9709 68.802 60.8807 68.6576 60.8807 68.3689C60.8807 67.8635 61.0702 67.6108 61.4492 67.6108ZM63.3985 64.308C63.1458 64.308 63.0195 64.1545 63.0195 63.8477C63.0195 63.3604 63.3082 62.9633 63.8858 62.6565C64.1385 62.5302 64.3731 62.467 64.5897 62.467C64.9687 62.467 65.1763 62.5933 65.2124 62.846C65.2124 63.2611 64.8875 63.6582 64.2377 64.0372C63.9129 64.2177 63.6331 64.308 63.3985 64.308ZM63.6151 59.2183C63.6872 59.471 63.7234 59.6424 63.7234 59.7327C63.7234 59.7868 63.6963 59.9312 63.6421 60.1658C63.9309 60.1658 64.328 60.0214 64.8333 59.7327C64.346 59.48 63.9399 59.3085 63.6151 59.2183ZM60.3934 68.5313C60.5017 68.9645 60.7905 69.2803 61.2597 69.4788C61.4402 69.551 61.6117 69.5871 61.7741 69.5871H61.8283C61.8644 69.5871 62.0629 69.4789 62.4239 69.2623C62.5322 69.1901 62.6224 69.154 62.6946 69.154H62.8029C62.8931 69.154 62.9382 69.2081 62.9382 69.3164L62.7758 69.8308C62.7758 69.9932 62.9021 70.0745 63.1548 70.0745C63.1909 70.0745 63.4165 69.7586 63.8316 69.1269C64.6258 67.8996 65.7538 66.9701 67.2157 66.3384C67.3601 65.3638 67.7211 64.5065 68.2986 63.7665C68.443 63.568 68.5874 63.4687 68.7318 63.4687C68.8943 63.4687 68.9755 63.586 68.9755 63.8206C68.9755 63.8748 68.813 64.3892 68.4882 65.3638C68.3618 65.7789 68.2986 66.0857 68.2986 66.2843C68.2986 66.3384 68.3167 66.4557 68.3528 66.6362C68.3528 67.9177 67.8113 69.2623 66.7284 70.6701C66.0065 71.6447 65.6094 72.4208 65.5372 72.9983H74.4712C74.5434 72.1681 74.5795 71.5544 74.5795 71.1574C74.5795 67.4394 73.4154 64.4704 71.0871 62.2504C70.3832 61.6007 69.8147 61.2758 69.3816 61.2758H67.7572C67.6128 61.2036 67.4684 60.8426 67.324 60.1929C67.2157 59.6695 67.0804 59.3446 66.9179 59.2183C66.7013 59.868 66.0336 60.3734 64.9146 60.7343C64.319 60.9148 63.9038 61.0953 63.6692 61.2758C63.4707 61.9075 62.8841 63.1889 61.9095 65.1201C60.9529 67.0333 60.4475 68.1703 60.3934 68.5313ZM75.5542 74H64.2107C64.2829 72.7547 64.7521 71.5635 65.6184 70.4264C66.2862 69.524 66.6833 68.9735 66.8096 68.775C67.0623 68.3779 67.2157 67.8996 67.2699 67.3401C66.0967 67.8455 65.1853 68.5674 64.5355 69.5059L64.1565 70.1286C63.8858 70.5618 63.7143 70.8054 63.6421 70.8596C63.5338 70.9498 63.4165 70.9949 63.2902 70.9949C62.7307 70.9949 62.3517 70.8054 62.1531 70.4264C62.117 70.3723 62.099 70.3091 62.099 70.2369C61.9185 70.3271 61.738 70.3723 61.5575 70.3723C60.6912 70.3723 60.0054 69.8308 59.5 68.7479C59.6444 67.9538 60.4024 66.1218 61.7741 63.2521C61.9185 62.9814 62.0268 62.7648 62.099 62.6024C62.6404 61.3931 62.9112 60.4817 62.9112 59.868C62.9112 59.7778 62.857 59.2724 62.7487 58.3519H62.9653C63.9399 58.3519 64.8694 58.6588 65.7538 59.2724C66.2411 58.4241 66.6472 58 66.9721 58C67.5496 58.3068 67.9467 58.74 68.1633 59.2995L68.4611 60.1929C68.6416 60.1568 68.795 60.1387 68.9213 60.1387C70.3652 60.1387 71.791 61.0592 73.1988 62.9002C74.8412 65.0479 75.6624 67.9898 75.6624 71.7259C75.6624 72.5742 75.6263 73.3322 75.5542 74Z" fill="black"/>
</g>
</g>
<defs>
<clipPath id="clip0_22835_133325">
<rect width="108" height="108" fill="white" transform="translate(0.5)"/>
</clipPath>
</defs>
</svg>
