<svg width="16" height="17" fill="none" xmlns="http://www.w3.org/2000/svg"><path d="M7.278 4.571c-.57-.495-.527-1.262-.112-1.693a1.166 1.166 0 0 1 1.597-.085c.458.394.602 1.246-.021 1.778.101.053.208.106.309.16.57.309 1.08.692 1.501 1.192.415.495.708 1.054.815 1.699.112.67.016 1.31-.373 1.89a1.95 1.95 0 0 1-.612.585c-.021.011-.043.027-.07.043.043.048.086.09.123.133.256.282.426.607.49.985.021.139.064.277.085.42a1.13 1.13 0 0 1-.106.634.564.564 0 0 1-.192.197 2.41 2.41 0 0 1-.884.4c-.24.063-.479.106-.719.16.123.02.256.042.384.058.5.064 1.006.064 1.512.074.293.006.585.006.878.022.352.016.703.037 1.033.154.437.16.815.42 1.134.756.107.112.112.24.021.362a.879.879 0 0 1-.734.389 1.4 1.4 0 0 1-.474-.075 2.433 2.433 0 0 0-.756-.138c-.346-.01-.692-.027-1.038-.021-.517 0-1.028.026-1.544.02-.474-.005-.943-.037-1.395-.185a.397.397 0 0 0-.261 0 3.515 3.515 0 0 1-.964.16c-.42.015-.836.02-1.256.02-.447 0-.89-.02-1.337-.015-.33.005-.66.02-.98.1-.159.043-.319.097-.478.123-.384.059-.698-.064-.927-.383a.257.257 0 0 1 .016-.33c.453-.469.97-.804 1.63-.884.372-.043.74-.064 1.112-.064.304-.005.607-.005.91-.016a8.43 8.43 0 0 0 1.268-.117c.016-.005.032-.005.042-.01-.17-.033-.34-.06-.51-.102-.171-.043-.342-.09-.507-.144-.255-.09-.5-.207-.702-.394a.588.588 0 0 1-.118-.18c-.074-.224-.111-.453-.058-.688.042-.18.074-.367.128-.548.09-.32.282-.585.51-.82.011-.01.022-.026.038-.042l-.027-.027c-.543-.325-.857-.81-.99-1.416-.149-.655-.048-1.283.224-1.885.314-.697.814-1.24 1.427-1.688a6.58 6.58 0 0 1 .915-.543l.043-.021z" fill="#050505"/><path fill-rule="evenodd" clip-rule="evenodd" d="M5.065 12.248c-.074-.223-.112-.452-.058-.686l.041-.189c.026-.12.051-.241.086-.36.031-.11.074-.213.126-.31a2.13 2.13 0 0 1 .385-.51.23.23 0 0 0 .015-.017c.007-.008.014-.017.023-.025l-.027-.027a2.209 2.209 0 0 1-.483-.392 1.955 1.955 0 0 1-.026-.03l-.001-.001a2.203 2.203 0 0 1-.48-.993c-.15-.655-.048-1.283.223-1.885.315-.697.815-1.24 1.427-1.688.104-.075.21-.145.319-.213.193-.119.393-.228.597-.33l.043-.021a1.195 1.195 0 0 1-.383-.591 1.15 1.15 0 0 1 .27-1.102 1.166 1.166 0 0 1 1.598-.085c.31.266.476.742.358 1.186-.056.213-.177.42-.38.592l.155.08.155.08c.112.06.223.125.331.193.437.272.833.598 1.17 1 .415.494.708 1.053.815 1.698.111.67.015 1.31-.373 1.89a1.931 1.931 0 0 1-.652.61.913.913 0 0 1-.03.018l.062.066c.02.023.042.045.06.067a2.023 2.023 0 0 1 .302.428c.091.172.155.357.189.557.01.067.025.135.04.203.017.071.034.144.045.218a1.13 1.13 0 0 1-.107.633.528.528 0 0 1-.191.197 2.41 2.41 0 0 1-.884.4 6.492 6.492 0 0 1-.317.074l-.162.034-.24.051a7.087 7.087 0 0 0 .784.098h.003c.297.02.594.026.892.031l.154.003.063.001.22.004c.219.003.438.006.658.018.351.016.703.037 1.033.154.436.16.814.42 1.134.756.106.112.112.24.021.362a.879.879 0 0 1-.735.389c-.165 0-.324-.021-.473-.075a2.432 2.432 0 0 0-.756-.138l-.208-.007c-.277-.01-.554-.019-.83-.014-.236 0-.47.005-.703.01-.28.007-.56.014-.842.01-.473-.005-.942-.037-1.395-.185a.397.397 0 0 0-.26 0 3.515 3.515 0 0 1-.964.16 33.115 33.115 0 0 1-1.851.012c-.247-.005-.494-.01-.742-.008-.33.006-.66.022-.98.102l-.136.038c-.115.033-.229.065-.343.084-.383.059-.697-.064-.926-.383a.257.257 0 0 1 .016-.33c.452-.469.969-.804 1.629-.884.373-.043.74-.064 1.113-.064l.303-.004.072-.001a22.72 22.72 0 0 0 .71-.018c.193-.008.386-.02.578-.038a5.734 5.734 0 0 0 .536-.077c.008-.002.015-.003.02-.006l-.045-.008h-.003c-.026-.006-.053-.01-.079-.015-.128-.023-.255-.046-.383-.078-.17-.043-.34-.09-.506-.144a2.766 2.766 0 0 1-.31-.13h-.002a1.761 1.761 0 0 1-.39-.264.59.59 0 0 1-.118-.18zm-.647.267-.009-.021-.008-.024a1.953 1.953 0 0 1-.077-1.064l.001-.005a7.81 7.81 0 0 0 .03-.133c.028-.132.065-.306.107-.45.059-.206.145-.392.246-.559a2.874 2.874 0 0 1-.725-1.399c-.188-.828-.054-1.611.268-2.324.376-.834.968-1.466 1.652-1.966l.003-.002a6.1 6.1 0 0 1 .363-.242 1.857 1.857 0 0 1 .388-1.932 1.866 1.866 0 0 1 2.557-.134l.003.002c.533.459.809 1.307.528 2.065.491.305.947.678 1.34 1.146.48.572.838 1.243.97 2.034.135.817.021 1.642-.483 2.394a2.63 2.63 0 0 1-.284.356c.157.265.269.56.324.884l.002.01c.006.04.015.084.033.16v.003c.016.067.037.161.052.262v.001c.05.345-.014.666-.122.934.112.003.226.006.338.013.343.015.792.037 1.232.193l.006.003c.548.2 1.015.525 1.4.93.143.15.263.36.277.622a.982.982 0 0 1-.197.636 1.577 1.577 0 0 1-1.288.676h-.012c-.222 0-.464-.029-.706-.114a1.733 1.733 0 0 0-.538-.1h-.007l-.218-.007c-.275-.009-.53-.018-.788-.014h-.01c-.227 0-.452.006-.687.011l-.07.002c-.256.006-.524.012-.795.009-.468-.005-.991-.035-1.519-.194a4.249 4.249 0 0 1-1.068.167 33.58 33.58 0 0 1-1.282.022c-.206 0-.412-.005-.609-.01h-.073a20.017 20.017 0 0 0-.644-.007c-.32.006-.58.021-.815.08l-.081.022c-.12.035-.3.086-.458.113l-.009.001a1.67 1.67 0 0 1-.891-.094 1.63 1.63 0 0 1-.71-.573l-.005-.007a.957.957 0 0 1 .08-1.211l.006-.007c.524-.541 1.18-.987 2.049-1.092h.005c.31-.036.618-.058.928-.066z" fill="#fff"/></svg>