<svg width="16" height="17" fill="none" xmlns="http://www.w3.org/2000/svg"><mask id="a" maskUnits="userSpaceOnUse" x="1.039" y="1.757" width="14" height="14" fill="#000"><path fill="#fff" d="M1.039 1.757h14v14h-14z"/><path d="M5.08 3.267a.183.183 0 0 1 .186.043c.111.1.233.207.329.324.122.154.228.323.34.488.037.053.074.08.138.08.212-.006.424-.006.636 0 .08 0 .123-.032.154-.101a2.16 2.16 0 0 1 .733-.913c.069-.048.095-.048.127.026.053.133.096.276.122.414.027.149.027.298.037.446.006.085.027.117.112.128a8.22 8.22 0 0 1 1.29.233c.727.207 1.385.536 1.953 1.04.467.414.828.903 1.125 1.45.404.758.658 1.57.833 2.404.128.61.213 1.226.266 1.847.074.833.1 1.666.1 2.5v.573H5.617c.016-.138.021-.276.043-.409.08-.61.328-1.146.747-1.586.292-.303.543-.613.924-.866a4.036 4.036 0 0 0 1.163-2.356 7.155 7.155 0 0 0 .016-1.651c-.01-.138-.032-.27-.043-.409-.005-.026-.005-.048-.01-.074-.016-.059-.064-.09-.122-.08-.059.01-.09.053-.085.112.032.318-.085.6-.24.865-.227.414-.535.764-.864 1.104-.43.435-.892.828-1.402 1.173-.366.25-.647.578-.907.934a2.298 2.298 0 0 1-.234.276.485.485 0 0 1-.382.149c-.074-.006-.1-.027-.1-.101a.55.55 0 0 1 .036-.207c.043-.112.096-.218.144-.33.026-.058.048-.116.063-.18.032-.132-.037-.233-.175-.255-.053-.01-.106-.005-.159 0-.122.022-.186.107-.191.24 0 .084.01.175 0 .26-.016.143-.09.206-.228.212-.154.005-.308.021-.462.005-.297-.032-.488-.212-.584-.483-.143-.43-.19-.854-.01-1.29.196-.467.408-.923.652-1.37.43-.774.866-1.549 1.306-2.319.064-.111.17-.201.25-.307.19-.245.366-.5.456-.802a.824.824 0 0 0 .042-.191.206.206 0 0 0-.026-.127c-.085-.133-.106-.28-.149-.425-.042-.145-.085-.466-.005-.494z"/><path fill-rule="evenodd" clip-rule="evenodd" d="m5.53 3.013.038.034c.098.089.229.206.334.335l.002.002.002.003a5.91 5.91 0 0 1 .292.415c.123-.002.246-.002.368 0 .185-.364.443-.689.802-.94h.002a.668.668 0 0 1 .111-.065.44.44 0 0 1 .524.121c.045.054.07.109.083.14l.002.004.002.005c.062.155.112.323.143.486l.001.005c.017.09.025.188.03.276.373.048.748.115 1.123.218h.003c.775.221 1.489.576 2.109 1.126.508.45.896.978 1.21 1.557l.002.003c.426.801.691 1.651.871 2.51.131.627.219 1.259.273 1.893.075.848.102 1.694.102 2.535v.97H5.17l.051-.443c.004-.029.007-.07.012-.118.008-.095.018-.212.032-.302.094-.707.427-1.295.891-1.782l.002-.002c.198-.205.4-.405.6-.603.098-.096.195-.192.29-.288.589-.598.94-1.3 1.051-2.129.03-.218.046-.437.05-.656-.217.316-.468.594-.719.852l-.003.003a9.671 9.671 0 0 1-1.46 1.223c-.31.211-.56.497-.81.839-.079.109-.17.22-.27.32a.882.882 0 0 1-.681.268h-.007l-.007-.001a.513.513 0 0 1-.325-.134.463.463 0 0 1-.132-.238.778.778 0 0 1-.11.012h-.002a5.4 5.4 0 0 0-.086.004c-.119.006-.28.015-.43 0h-.001c-.473-.052-.778-.355-.917-.747v-.003l-.002-.003c-.16-.48-.231-1.011 0-1.568v-.002c.2-.476.418-.945.67-1.406l.002-.002c.43-.776.867-1.552 1.308-2.324m0 0a1.328 1.328 0 0 1 .203-.263c.033-.036.054-.06.074-.086.184-.235.325-.448.393-.676l.002-.007.002-.006a.673.673 0 0 0 .015-.052 1.271 1.271 0 0 1-.093-.235c-.013-.043-.024-.086-.033-.12v-.002a2.842 2.842 0 0 0-.026-.096 1.84 1.84 0 0 1-.064-.38.984.984 0 0 1 .01-.228.546.546 0 0 1 .057-.166.442.442 0 0 1 .245-.208.584.584 0 0 1 .578.122"/></mask><path d="M5.08 3.267a.183.183 0 0 1 .186.043c.111.1.233.207.329.324.122.154.228.323.34.488.037.053.074.08.138.08.212-.006.424-.006.636 0 .08 0 .123-.032.154-.101a2.16 2.16 0 0 1 .733-.913c.069-.048.095-.048.127.026.053.133.096.276.122.414.027.149.027.298.037.446.006.085.027.117.112.128a8.22 8.22 0 0 1 1.29.233c.727.207 1.385.536 1.953 1.04.467.414.828.903 1.125 1.45.404.758.658 1.57.833 2.404.128.61.213 1.226.266 1.847.074.833.1 1.666.1 2.5v.573H5.617c.016-.138.021-.276.043-.409.08-.61.328-1.146.747-1.586.292-.303.543-.613.924-.866a4.036 4.036 0 0 0 1.163-2.356 7.155 7.155 0 0 0 .016-1.651c-.01-.138-.032-.27-.043-.409-.005-.026-.005-.048-.01-.074-.016-.059-.064-.09-.122-.08-.059.01-.09.053-.085.112.032.318-.085.6-.24.865-.227.414-.535.764-.864 1.104-.43.435-.892.828-1.402 1.173-.366.25-.647.578-.907.934a2.298 2.298 0 0 1-.234.276.485.485 0 0 1-.382.149c-.074-.006-.1-.027-.1-.101a.55.55 0 0 1 .036-.207c.043-.112.096-.218.144-.33.026-.058.048-.116.063-.18.032-.132-.037-.233-.175-.255-.053-.01-.106-.005-.159 0-.122.022-.186.107-.191.24 0 .084.01.175 0 .26-.016.143-.09.206-.228.212-.154.005-.308.021-.462.005-.297-.032-.488-.212-.584-.483-.143-.43-.19-.854-.01-1.29.196-.467.408-.923.652-1.37.43-.774.866-1.549 1.306-2.319.064-.111.17-.201.25-.307.19-.245.366-.5.456-.802a.824.824 0 0 0 .042-.191.206.206 0 0 0-.026-.127c-.085-.133-.106-.28-.149-.425-.042-.145-.085-.466-.005-.494z" fill="#050505"/><path fill-rule="evenodd" clip-rule="evenodd" d="m5.53 3.013.038.034c.098.089.229.206.334.335l.002.002.002.003a5.91 5.91 0 0 1 .292.415c.123-.002.246-.002.368 0 .185-.364.443-.689.802-.94h.002a.668.668 0 0 1 .111-.065.44.44 0 0 1 .524.121c.045.054.07.109.083.14l.002.004.002.005c.062.155.112.323.143.486l.001.005c.017.09.025.188.03.276.373.048.748.115 1.123.218h.003c.775.221 1.489.576 2.109 1.126.508.45.896.978 1.21 1.557l.002.003c.426.801.691 1.651.871 2.51.131.627.219 1.259.273 1.893.075.848.102 1.694.102 2.535v.97H5.17l.051-.443c.004-.029.007-.07.012-.118.008-.095.018-.212.032-.302.094-.707.427-1.295.891-1.782l.002-.002c.198-.205.4-.405.6-.603.098-.096.195-.192.29-.288.589-.598.94-1.3 1.051-2.129.03-.218.046-.437.05-.656-.217.316-.468.594-.719.852l-.003.003a9.671 9.671 0 0 1-1.46 1.223c-.31.211-.56.497-.81.839-.079.109-.17.22-.27.32a.882.882 0 0 1-.681.268h-.007l-.007-.001a.513.513 0 0 1-.325-.134.463.463 0 0 1-.132-.238.778.778 0 0 1-.11.012h-.002a5.4 5.4 0 0 0-.086.004c-.119.006-.28.015-.43 0h-.001c-.473-.052-.778-.355-.917-.747v-.003l-.002-.003c-.16-.48-.231-1.011 0-1.568v-.002c.2-.476.418-.945.67-1.406l.002-.002c.43-.776.867-1.552 1.308-2.324m0 0a1.328 1.328 0 0 1 .203-.263c.033-.036.054-.06.074-.086.184-.235.325-.448.393-.676l.002-.007.002-.006a.673.673 0 0 0 .015-.052 1.271 1.271 0 0 1-.093-.235c-.013-.043-.024-.086-.033-.12v-.002a2.842 2.842 0 0 0-.026-.096 1.84 1.84 0 0 1-.064-.38.984.984 0 0 1 .01-.228.546.546 0 0 1 .057-.166.442.442 0 0 1 .245-.208.584.584 0 0 1 .578.122" fill="#050505"/><path d="m5.595 3.634.274-.218-.003-.004-.271.222zm2.25-.006.345-.061-.001-.005-.344.066zm5.717 10.621v.35h.35v-.35h-.35zm-7.946 0-.348-.04-.045.39h.393v-.35zM8.51 7.381l-.35.027.001.006.349-.033zm-.043-.409.35-.027-.002-.02-.004-.021-.344.068zm-4.31 4.15.324.136.004-.01-.328-.125zm-.318-.265-.348-.04v.002l.348.038zm-.228.213.012.35h.001l-.013-.35zM5.085 3.76l.336-.099-.336.099zm-1.29 7.224-.287-.198.288.198zm-.021.027.244.25-.244-.25zm.028-.037.3.18-.3-.18zm.037-.123.347.04-.347-.04zm.001-.169-.35.014.35-.014zm.405.233-.319-.144.319.144zm-.022.048.32.144-.32-.144zm-.09.23.342.079-.341-.078zm3.994-3.623-.32-.145.32.145zm.062-.16.332.111-.332-.11zm.003-.006.332.11-.332-.11zm.05-.214.347.05-.346-.05zm.012-.176.35-.007-.35.007zm-.001-.026-.35.015.35-.015zm-.002-.035-.35.027.35-.027zm-.001-.015-.349.032.349-.032zm.208-.03.345-.054v-.001l-.345.055zm0 .002.346-.053v-.001l-.346.054zm.003.024.348-.039-.348.039zm.027.242-.348.04.348-.04zm0 .002.347-.04-.347.04zm.042.458-.35.024.35-.024zm-2.873 6.215.346.053-.346-.053zm-.025.235-.35-.03.35.03zm2.243-10.14.35-.018-.35.018zm-.055-.431.34-.085-.34.085zm0-.006.339-.085-.34.085zm-.002-.004.34-.086-.34.086zM7.4 3.344l-.235-.26.235.26zm-.019.017-.238-.257.238.257zm-.019.018-.241-.254.241.254zm-1.51.619-.292.193.292-.193zm-.417-.534-.242.254.242-.254zm-.016-.014.24-.256-.24.256zm-.116-.107.234-.26-.234.26zm-.258.211-.348.044.348-.044zm0 .008.348-.045-.348.045zm.013.078.344-.062-.344.062zm.003.02.344-.066-.344.067zm.053.209-.339.087.34-.087zm-.456 1.558.26.235-.26-.235zm-1.164 5.648-.018-.35.018.35zm.014-.288a.177.177 0 0 1 .021-.026l.49.501a.523.523 0 0 0 .065-.078l-.576-.397zm-.006.008a.161.161 0 0 1 .006-.008l.576.397a.549.549 0 0 0 .018-.028l-.6-.361zm-.012.024v.002a.12.12 0 0 1 .012-.026l.6.36a.636.636 0 0 0 .084-.259l-.696-.077zm0-.007v.005l.696.08v-.005l-.695-.08zm0-.115a.812.812 0 0 1 0 .115l.696.08c.01-.087.006-.172.004-.223l-.7.028zm-.002-.1c0 .037.001.072.003.1l.699-.028a1.825 1.825 0 0 1-.002-.072h-.7zm1.076.464c.018-.04.038-.084.057-.13l-.643-.275-.052.116.638.29zm-.021.047a8.16 8.16 0 0 1 .02-.047l-.637-.29-.022.05.639.287zm-.06.14c.017-.044.037-.09.06-.14l-.639-.287a3.24 3.24 0 0 0-.075.177l.655.25zm-.008.025a.098.098 0 0 1 .005-.016l-.647-.269a.793.793 0 0 0-.04.129l.682.155zm-.006.057c0-.023.003-.043.006-.057l-.682-.156a.963.963 0 0 0-.024.213h.7zm3.339-3.904a2.171 2.171 0 0 1-.1.193l.605.351a2.87 2.87 0 0 0 .132-.255l-.637-.289zm.05-.125c-.014.04-.03.083-.05.125l.637.29c.028-.062.054-.127.076-.194l-.664-.221zm.001-.005a.673.673 0 0 1-.002.005l.664.221.003-.007-.665-.22zm.037-.155a.911.911 0 0 1-.037.155l.665.219c.029-.087.051-.178.065-.274l-.693-.1zm.008-.12c0 .04-.002.08-.008.12l.693.1c.01-.075.016-.153.015-.233l-.7.013zm0-.017v.017l.7-.013-.001-.035-.7.031zm-.002-.023.001.023.7-.03-.003-.047-.698.054zM7.9 6.97v.01l.699-.054-.002-.02-.697.064zm0-.006v.006l.697-.064-.001-.012-.697.07zm.902-.111a.638.638 0 0 0-.004-.025l-.686.138-.001-.003.691-.11zm0 .003v-.002l-.691.108v.002l.692-.108zm.006.04-.005-.04-.692.107v.001l.001.009.696-.078zm0 .007v-.008l-.696.078c.001.011.004.037.01.067l.687-.137zm.026.232a4.736 4.736 0 0 1-.02-.19l-.698.053c.006.077.015.152.023.218l.695-.081zm0 .002v-.002l-.695.081v.003l.695-.082zm.023.216c-.006-.076-.015-.15-.023-.216l-.695.082c.008.068.015.128.02.188l.698-.054zm.021.26a9.568 9.568 0 0 0-.022-.267l-.697.067c.008.083.015.165.02.247l.7-.047zm-.04 1.464c.067-.494.073-.98.04-1.464l-.698.047c.03.447.024.885-.035 1.324l.694.093zm-2.836 4.827.001-.01-.691-.11-.002.014.692.106zm-.023.211c.007-.081.013-.148.023-.211l-.692-.106c-.014.09-.022.18-.028.258l.697.06zm-.016.173c.007-.06.012-.12.016-.173l-.697-.06-.015.153.696.08zM7.526 3.965l.007.134.699-.05a5.912 5.912 0 0 1-.007-.12l-.7.036zM7.5 3.69c.014.08.019.165.025.275l.699-.036c-.006-.103-.012-.23-.035-.362l-.69.123zm-.02-.09a1.8 1.8 0 0 1 .02.094l.688-.132a2.499 2.499 0 0 0-.029-.13l-.68.168zm-.001-.005V3.6l.68-.17-.001-.005-.68.17zm-.001-.004v.005l.68-.172-.002-.004-.678.171zm-.08-.247c.031.08.058.164.08.248l.678-.172a2.69 2.69 0 0 0-.109-.336l-.65.26zm.236.26c.05-.046.104-.09.161-.13l-.4-.573a2.348 2.348 0 0 0-.23.183l.469.52zm-.016.014.016-.015-.47-.52a2.42 2.42 0 0 0-.022.021l.476.514zm-.016.014.016-.014-.476-.514a2.238 2.238 0 0 0-.022.021l.482.507zm-.42.612c.107-.24.245-.445.42-.612l-.483-.506c-.251.24-.438.524-.576.831l.639.287zM5.56 4.191l.085.127.58-.392a15.91 15.91 0 0 1-.082-.122l-.583.387zm-.24-.34c.081.102.156.214.24.34l.583-.387c-.08-.122-.172-.259-.274-.388l-.548.435zm-.127-.133c.052.049.096.094.131.137l.542-.443a2.234 2.234 0 0 0-.19-.201l-.483.507zm-.014-.013.014.013.483-.507a3.047 3.047 0 0 0-.017-.017l-.48.51zm-.11-.102c.038.035.075.068.11.102l.48-.51c-.042-.04-.084-.078-.122-.112l-.468.52zM5.03 3.57l.038.034.468-.52a23.156 23.156 0 0 1-.036-.033l-.47.52zm.36-.058a.63.63 0 0 1-.005-.113c0-.011 0 .005-.011.034a.3.3 0 0 1-.182.167l-.226-.663a.401.401 0 0 0-.24.233.581.581 0 0 0-.039.168c-.007.088 0 .183.01.26l.694-.086zm.002.006-.001-.006-.695.087.001.009.695-.09zm.009.06a1.239 1.239 0 0 1-.01-.06l-.694.09.015.095.689-.124zm.003.017a1.143 1.143 0 0 1-.003-.016l-.689.124.005.026.687-.134zm.016.068a.784.784 0 0 1-.016-.068l-.687.134c.009.045.02.091.032.132l.671-.198zm.032.12-.032-.12-.671.198.025.096.678-.174zm.076.215a.732.732 0 0 1-.076-.215l-.678.174c.026.102.065.264.164.418l.59-.377zm-.611 1.665c.033-.037.08-.09.124-.146l-.56-.42a1.45 1.45 0 0 1-.084.097l.52.47zm-.102.125a.816.816 0 0 1 .102-.125l-.52-.47c-.049.055-.13.142-.19.248l.608.347zm-1.34 4.939c-.12.006-.208.01-.292 0l-.072.697c.147.015.29.007.4.002l-.036-.7zm.122-.006-.122.005.036.7.11-.006-.024-.7zm-.069.04a.165.165 0 0 1 .06-.037c.013-.005.017-.003.007-.003l.027.7a.585.585 0 0 0 .395-.158l-.489-.501zm10.033 3.14H5.616v.7h7.946v-.7zm-.35-.224v.573h.7v-.573h-.7zM5.266 3.31l.47-.52-.01-.007-.46.527zm.329.324.548-.435-.006-.009-.542.444zm.34.488-.58.393.006.008.574-.401zm.138.08v.7h.017l-.017-.7zm.636 0-.017.7h.017v-.7zm.154-.101.636.293.003-.006-.639-.287zm.733-.913-.399-.576-.002.002.4.574zm.127.026.65-.26-.003-.008-.003-.007-.644.275zm.122.414.69-.123-.002-.009-.688.132zm.037.446.7-.044-.001-.006-.699.05zm.112.128-.087.694.01.001.077-.695zm1.29.233.191-.673-.006-.002-.185.675zm1.953 1.04L10.772 6l.465-.524zm1.125 1.45.618-.33-.003-.005-.615.334zm.833 2.404.686-.143v-.001l-.686.144zm.266 1.847-.698.06v.002l.698-.062zm.1 3.073v.7h.7v-.7h-.7zm-7.945 0-.695-.08-.09.78h.785v-.7zm.043-.409.69.111.002-.01.002-.01-.694-.09zm.747-1.586-.503-.486-.004.003.507.483zm.924-.866.387.584.061-.04.051-.053-.499-.49zm1.163-2.356-.694-.094v.001l.694.093zm.016-1.651-.698.054.001.013.697-.067zm-.043-.409.698-.054-.003-.042-.008-.041-.687.137zm-.01-.074.686-.137-.005-.024-.006-.023-.675.184zm-.207.032-.697.063V7l.697-.07zm-.24.865-.605-.351-.003.006-.004.007.613.338zm-.864 1.104.498.492.004-.005-.502-.487zm-1.402 1.173-.392-.58-.002.001.394.579zm-.907.934-.565-.413-.003.003.568.41zm-.234.276-.495-.495-.006.006-.006.007.507.482zm-.382.149-.05.698h.013l.012.001.025-.7zm-.064-.308.647.269.004-.01.004-.01-.655-.25zm.144-.33-.637-.289-.004.007-.003.007.644.276zm.063-.18.68.17.001-.006-.68-.164zm-.175-.255-.137.687.015.003.016.002.106-.692zm-.159 0-.07-.696-.025.003-.025.004.12.69zm-.191.24-.7-.029v.028h.7zm0 .26-.695-.087v.01l.695.076zm-.228.212.024.7h.003l-.027-.7zm-.462.005-.075.696h.003l.072-.696zm-.584-.483-.664.221.004.012.66-.233zm-.01-1.29-.646-.271-.001.003.647.268zm.652-1.37-.612-.339-.002.004.614.336zm1.306-2.319.608.348-.608-.348zm.25-.307-.552-.432-.004.006-.004.006.56.42zm.456-.802-.664-.221-.004.01-.003.011.671.2zm.042-.191-.694-.087-.002.014-.001.015.697.058zm-.026-.127-.59.377.007.01.583-.387zm.296-1.173.47-.52-.01-.007-.46.527zm.038.034-.468.521.468-.52zm.334.335-.541.443.541-.443zm.002.002.549-.435-.007-.008-.542.443zm.002.003-.548.435.548-.435zm.284.402-.583.387.583-.387zm.008.013-.583.387.212.318.382-.005-.01-.7zm.368 0-.01.7.437.005.197-.388-.624-.318zm.802-.94.401.574-.4-.574zm.002 0-.399-.576-.002.001.4.574zm.111-.065.28.642-.28-.642zm.26-.033.119-.69-.119.69zm.264.155-.538.446.538-.447zm.083.139.644-.276-.644.276zm.002.004.65-.26-.003-.008-.003-.007-.644.275zm.002.005.65-.26-.65.26zm.143.486-.687.132.687-.132zm.001.005.69-.123-.002-.009-.688.132zm.03.276-.698.045.037.576.573.073.089-.694zm1.123.218.186-.675-.186.675zm.003 0 .192-.672-.006-.002-.186.675zm2.109 1.126-.465.524.465-.524zm1.21 1.557-.615.334.615-.334zm.002.003.618-.329-.003-.005-.615.334zm.871 2.51.686-.144-.686.143zm.273 1.893-.698.06v.002l.698-.062zm.102 3.505v.7h.7v-.7h-.7zm-8.789 0-.695-.08-.09.78h.785v-.7zm.051-.443-.695-.08.695.08zm.012-.118-.698-.062.698.062zm.032-.302.692.108.001-.008.001-.008-.694-.091zm.891-1.782.507.482-.507-.482zm.002-.002-.504-.486-.003.003.507.483zm.6-.603.492.498-.492-.498zm.29-.288.495.495.005-.004-.5-.49zM8.1 8.98l-.694-.093v.001l.694.092zm.05-.656.7.016.054-2.348-1.33 1.935.577.397zm-.719.852.503.487-.503-.487zm-.003.003.498.492.005-.005-.503-.487zm-1.46 1.223-.393-.58-.002.001.395.579zm-.81.839-.565-.414-.002.004.567.41zm-.27.32-.497-.494-.008.008.504.486zm-.681.268-.025.7.025-.7zm-.007 0-.05.698h.012l.013.001.025-.7zm-.007-.001-.05.698.05-.698zm-.325-.134-.484.505.484-.505zm-.132-.238.684-.15-.146-.66-.664.121.126.689zm-.11.012-.027-.7.027.7zm-.002 0 .024.7h.003l-.027-.7zm-.086.004-.037-.7.037.7zm-.43 0 .072-.697-.072.696zm-.001 0-.075.695h.003l.072-.696zm-.917-.747-.66.233.66-.233zm0-.003-.665.221.004.012.66-.233zm-.002-.003.664-.222-.664.222zm0-1.568-.647-.268.646.268zm0-.002-.645-.271-.001.003.646.268zm.67-1.406-.613-.336.614.336zm.002-.002-.612-.34-.002.004.614.336zm1.308-2.324.608.348-.608-.348zm.168-.223.522.466-.522-.466zm.035-.04.52.47-.52-.47zm.074-.086-.552-.431-.004.005-.004.006.56.42zm.393-.676-.67-.2.67.2zm.002-.007-.664-.22-.004.01-.003.01.671.2zm.002-.006-.664-.22.664.22zm.015-.052.68.167.064-.259L5.475 4l-.619.327zm-.093-.235-.671.199.67-.2zm-.033-.12.678-.175-.678.174zm0-.002.678-.174-.678.174zm-.026-.096.672-.198-.672.198zm-.064-.38.699-.04-.699.04zm.01-.228.689.125-.689-.125zm.057-.166.614.337-.614-.337zm.245-.208.225.663-.225-.663zm.353 1.04a.529.529 0 0 1-.5-.094l.922-1.054a.882.882 0 0 0-.872-.178l.45 1.325zm-.509-.102c.13.118.203.182.257.248l1.084-.887c-.138-.167-.31-.316-.402-.4L4.796 3.83zm.25.24c.1.126.178.252.309.446l1.16-.786c-.093-.135-.228-.349-.372-.53l-1.097.87zm.315.454a.846.846 0 0 0 .711.378v-1.4a.555.555 0 0 1 .436.22l-1.147.802zm.729.378c.2-.005.401-.005.602 0l.035-1.4a13.439 13.439 0 0 0-.672 0l.035 1.4zm.62 0a.861.861 0 0 0 .486-.144.874.874 0 0 0 .303-.363l-1.271-.587a.529.529 0 0 1 .184-.21.54.54 0 0 1 .297-.095v1.4zm.792-.513c.123-.274.283-.478.495-.626l-.802-1.148c-.457.319-.764.74-.97 1.2l1.277.574zm.492-.625-.003.003a.368.368 0 0 1-.07.037.657.657 0 0 1-.76-.184c-.056-.067-.08-.126-.081-.129l1.287-.551a.868.868 0 0 0-.129-.214.743.743 0 0 0-.878-.205.969.969 0 0 0-.163.092l.797 1.151zm-.92-.289c.037.093.066.194.084.286l1.375-.264a3.009 3.009 0 0 0-.16-.542l-1.3.52zm.082.277c.018.101.013.158.028.373l1.397-.1c-.006-.082-.011-.322-.047-.519l-1.378.246zm.028.367c.003.058.015.29.187.496.19.228.439.27.536.282l.174-1.39c.012.002.209.024.365.212a.606.606 0 0 1 .135.312l-1.397.088zm.734.78c.413.045.803.108 1.18.212l.371-1.35a8.912 8.912 0 0 0-1.399-.254l-.152 1.391zm1.174.21c.644.184 1.204.468 1.68.89l.93-1.046c-.66-.586-1.416-.96-2.227-1.19l-.383 1.346zm1.68.891c.395.35.709.77.975 1.26l1.23-.669a5.945 5.945 0 0 0-1.276-1.638l-.928 1.047zm.972 1.254c.364.684.6 1.43.767 2.22l1.37-.288c-.185-.876-.458-1.755-.9-2.59l-1.237.658zm.766 2.219c.121.579.202 1.167.253 1.764l1.395-.12a16.192 16.192 0 0 0-.277-1.93l-1.37.286zm.254 1.766c.072.807.098 1.619.098 2.438h1.4c0-.848-.027-1.703-.104-2.562l-1.394.124zm.098 2.438V14.249h1.4V13.676h-1.4zm.7-.127H5.616v1.4H13.562v-1.4zm-7.25.78c.026-.226.017-.25.038-.378l-1.383-.221c-.022.136-.04.389-.046.439l1.39.16zm.04-.398c.062-.47.248-.866.561-1.194L5.9 11.77a3.471 3.471 0 0 0-.935 1.979l1.389.18zm.558-1.191c.341-.354.51-.572.807-.768l-.773-1.167c-.465.308-.799.712-1.041.963l1.007.972zm.92-.86a4.735 4.735 0 0 0 1.357-2.756l-1.388-.185a3.337 3.337 0 0 1-.968 1.958l.998.982zm1.357-2.755c.083-.618.075-1.22.019-1.811l-1.394.134c.05.513.053 1.004-.013 1.49l1.388.187zm.02-1.798c-.007-.085-.017-.167-.024-.232a4.431 4.431 0 0 1-.019-.177l-1.396.108c.007.085.017.167.024.232.009.07.015.124.019.177l1.396-.108zm-.054-.492c.004.02.005.037.004.023-.001-.01-.005-.05-.015-.097l-1.373.274c-.004-.02-.005-.037-.004-.023.001.01.006.05.015.097l1.373-.274zm-.022-.121a.804.804 0 0 0-.923-.584l.25 1.377a.596.596 0 0 1-.678-.425l1.351-.368zm-.923-.584a.803.803 0 0 0-.498.303.803.803 0 0 0-.158.56l1.394-.127a.597.597 0 0 1-.121.413.597.597 0 0 1-.366.228l-.25-1.377zM7.552 7c.01.098-.018.221-.148.444l1.211.702c.18-.308.384-.747.33-1.286L7.552 7zm-.155.457c-.182.33-.437.627-.755.955l1.005.974c.34-.351.702-.756.976-1.253l-1.226-.676zm-.75.95A8.577 8.577 0 0 1 5.35 9.492l.785 1.16A9.972 9.972 0 0 0 7.643 9.39l-.996-.984zM5.349 9.493c-.464.316-.8.72-1.078 1.1l1.13.826c.243-.332.468-.586.737-.769l-.789-1.157zm-1.08 1.103c-.05.07-.106.136-.162.191l.99.99c.115-.115.218-.24.306-.361l-1.135-.82zm-.174.204a.235.235 0 0 1 .085-.056.175.175 0 0 1 .065-.013l-.05 1.4c.325.01.66-.098.915-.367L4.095 10.8zm.175-.068a.625.625 0 0 1 .356.168c.197.19.193.415.193.43h-1.4c0 .09.01.362.239.582.207.198.457.213.512.217l.1-1.397zm.55.598-.002.011a.234.234 0 0 1-.015.051l-1.293-.538a1.247 1.247 0 0 0-.09.476h1.4zm-.01.042c.04-.101.06-.133.133-.303l-1.287-.551c-.023.054-.107.234-.154.356l1.309.498zm.127-.289a1.74 1.74 0 0 0 .106-.3l-1.359-.34a.343.343 0 0 1-.021.061l1.274.58zm.107-.306a.905.905 0 0 0-.127-.73.914.914 0 0 0-.622-.38l-.213 1.383a.487.487 0 0 1-.32-.21.496.496 0 0 1-.08-.39l1.362.327zm-.718-1.105c-.173-.034-.33-.014-.367-.01l.14 1.393.027-.002c.005 0 .004 0 0 0-.007 0-.036 0-.075-.008l.275-1.373zm-.417-.003a.916.916 0 0 0-.77.9l1.398.056a.485.485 0 0 1-.388.423l-.24-1.38zm-.771.928.002.092.002.06c.001.033 0 .034.001.022l1.39.173c.012-.097.01-.184.009-.238-.003-.074-.004-.078-.004-.109h-1.4zm.004.183a.47.47 0 0 1 .156-.282.468.468 0 0 1 .285-.128l.054 1.4a.938.938 0 0 0 .604-.237.936.936 0 0 0 .293-.598l-1.392-.155zm.444-.41c-.219.008-.276.018-.366.009l-.144 1.392c.218.023.468.001.558-.002l-.048-1.399zm-.363.009c-.013-.001-.014-.003-.008 0a.084.084 0 0 1 .02.012c.007.006.008.009.006.005a.183.183 0 0 1-.017-.037l-1.32.466c.17.483.563.881 1.17.946l.149-1.392zm.005-.008c-.114-.342-.12-.58-.028-.8l-1.293-.537c-.27.65-.18 1.261-.007 1.78l1.328-.443zm-.03-.797c.19-.452.393-.886.622-1.305l-1.228-.672c-.258.472-.48.951-.684 1.434l1.29.543zm.62-1.302c.43-.772.863-1.545 1.302-2.31l-1.215-.696c-.443.773-.88 1.55-1.31 2.327l1.223.68zM5.12 5.961c-.007.012-.008.008.033-.037l.07-.078c.028-.032.063-.073.099-.12l-1.12-.84c-.017.021-.03.035-.093.105-.048.054-.134.15-.205.275l1.216.695zm.193-.224c.203-.26.446-.6.576-1.033l-1.342-.4c-.05.171-.157.341-.337.57l1.103.863zm.57-1.012c.03-.094.064-.215.075-.354l-1.395-.116v-.003a.343.343 0 0 1-.01.03l1.33.443zm.072-.325a.903.903 0 0 0-.139-.603l-1.165.777a.488.488 0 0 1-.086-.348l1.39.174zm-.131-.592c.007.011.003.01-.01-.03a2.367 2.367 0 0 1-.021-.082c-.01-.034-.021-.083-.036-.133l-1.343.396.023.085c.008.034.02.083.036.133.03.103.08.242.171.386l1.18-.755zm-.067-.245-.001-.004a.488.488 0 0 1-.01-.05.755.755 0 0 1-.01-.08c-.002-.029.002-.012-.006.032a.554.554 0 0 1-.06.166.655.655 0 0 1-.365.303l-.45-1.325a.745.745 0 0 0-.413.349.848.848 0 0 0-.09.256 1.283 1.283 0 0 0-.014.301c.009.153.039.322.076.448l1.343-.396zm.279-1.036A14.017 14.017 0 0 1 6 2.494l-.94 1.038.04.036.936-1.041zm.408.412c-.145-.178-.315-.329-.408-.412L5.1 3.568c.104.093.194.176.26.257l1.084-.886zm.002.002-.002-.002-1.083.886.001.003 1.084-.887zm.009.01-.002-.002-1.097.87.002.003 1.097-.87zm.318.45c-.082-.122-.194-.292-.318-.45l-1.097.87c.081.104.161.223.249.355l1.166-.774zm.009.013-.009-.012-1.166.774.008.013 1.167-.775zm-.206-.313h-.388l.02 1.4h.349l.019-1.4zm.392-.813a3.209 3.209 0 0 0-1.026 1.196l1.248.635a1.81 1.81 0 0 1 .58-.683l-.802-1.148zm0 0 .801 1.148.002-.001-.802-1.148zm.232-.132a1.363 1.363 0 0 0-.229.13l.797 1.15.007-.004-.003.002a.15.15 0 0 1-.01.005L7.2 2.156zm.66-.082a1.154 1.154 0 0 0-.66.082l.562 1.283a.247.247 0 0 1-.14.015l.238-1.38zm.684.398a1.14 1.14 0 0 0-.684-.398l-.238 1.38a.26.26 0 0 1-.155-.089l1.077-.893zm.188.31a1.265 1.265 0 0 0-.188-.31l-1.077.893a.184.184 0 0 1-.02-.027l-.002-.004 1.287-.552zm.002.005-.002-.005-1.287.552.002.004 1.287-.551zm.008.02-.002-.005-1.3.52.002.005 1.3-.52zm.18.614c-.04-.209-.102-.42-.18-.614l-1.3.52c.046.115.083.24.106.358l1.375-.264zm.002.005-.001-.005-1.375.264.001.006 1.375-.265zm.041.363a3.21 3.21 0 0 0-.04-.354l-1.378.247c.01.051.016.118.021.197l1.397-.09zm.61-.412a8.824 8.824 0 0 0-1.219-.237l-.178 1.388c.35.045.69.107 1.025.199l.372-1.35zm.003.001-.003-.001-.372 1.35h.004l.371-1.349zm2.388 1.277c-.712-.632-1.524-1.031-2.382-1.275l-.383 1.346c.691.197 1.307.507 1.835.976l.93-1.047zm1.36 1.745a6.339 6.339 0 0 0-1.36-1.746l-.93 1.048c.436.386.776.845 1.06 1.367l1.23-.669zm.002.004-.002-.004-1.23.669.002.003 1.23-.668zm.941 2.7c-.189-.901-.472-1.818-.938-2.695l-1.236.657c.386.727.633 1.51.804 2.325l1.37-.288zm.285 1.978a16.594 16.594 0 0 0-.284-1.978l-1.37.286c.124.597.207 1.2.26 1.811l1.394-.12zm.105 2.594c0-.856-.027-1.723-.105-2.597l-1.395.124c.074.822.1 1.646.1 2.473h1.4zm-10.133.447-.051.443 1.39.16.052-.442-1.391-.16zm.01-.1a4.808 4.808 0 0 1-.01.1l1.39.16.014-.137-1.395-.123zm.038-.347c-.019.117-.031.26-.039.347l1.395.123c.009-.101.017-.193.027-.255l-1.383-.215zm1.075-2.158c-.544.572-.96 1.29-1.078 2.174l1.388.183c.07-.532.32-.989.704-1.392l-1.014-.965zm.002-.002-.002.002 1.014.965.002-.002-1.014-.965zm.615-.618c-.198.197-.407.403-.612.615l1.008.972c.19-.198.388-.393.588-.59l-.984-.997zm.287-.285c-.093.094-.189.188-.287.285l.984.996.293-.29-.99-.99zm.852-1.726a2.939 2.939 0 0 1-.856 1.73l.999.982a4.338 4.338 0 0 0 1.245-2.528l-1.388-.184zm.045-.58a5.23 5.23 0 0 1-.045.579l1.388.187a6.63 6.63 0 0 0 .056-.734l-1.4-.032zm.483 1.355c.26-.268.543-.578.793-.943l-1.153-.793a5.97 5.97 0 0 1-.646.762l1.006.974zm-.003.003.003-.003-1.006-.974-.002.003 1.005.974zM6.36 10.98c.575-.39 1.091-.83 1.565-1.31l-.996-.984a8.974 8.974 0 0 1-1.355 1.135l.785 1.16zm-.638.673c.233-.318.426-.53.639-.674l-.789-1.157c-.407.278-.713.64-.98 1.004l1.13.827zm-.34.4c.13-.13.245-.268.343-.403l-1.135-.82a2 2 0 0 1-.2.236l.992.988zm-1.201.474c.42.015.868-.126 1.21-.482l-1.01-.97a.16.16 0 0 1-.06.04.233.233 0 0 1-.09.013l-.05 1.4zm-.007 0h.007l.05-1.399h-.007l-.05 1.4zm-.032-.002h.007l.1-1.396h-.007l-.1 1.396zm-.76-.327c.316.303.692.322.76.327l.1-1.396c-.012-.001.002 0 .02.005.019.005.054.02.09.054l-.97 1.01zm-.33-.593c.037.173.127.398.33.593l.97-1.01a.239.239 0 0 1 .067.117l-1.368.3zm.6.561c.063-.002.133-.009.209-.023l-.252-1.377-.01.001.053 1.4zm-.002 0h.002l-.054-1.399h-.002l.054 1.4zm-.076.004.073-.004-.048-1.399a5.293 5.293 0 0 0-.099.005l.074 1.398zm-.539-.003c.213.022.429.009.54.003L3.5 10.772a2.197 2.197 0 0 1-.32.002l-.145 1.393zm-.001 0h.001l.144-1.393h-.002l-.143 1.392zm-1.505-1.21c.213.602.718 1.125 1.502 1.21l.15-1.393a.351.351 0 0 1-.203-.08.467.467 0 0 1-.128-.203l-1.32.466zm0-.003v.003l1.32-.466v-.003l-1.32.466zm-.006-.015.001.003 1.328-.442v-.004l-1.329.443zm.017-2.057c-.32.77-.206 1.49-.017 2.057l1.328-.443c-.13-.392-.16-.735-.018-1.078L1.54 8.882zm0-.002v.002l1.293.536v-.002L1.542 8.88zm.704-1.474c-.267.487-.495.98-.702 1.471l1.29.543c.194-.46.402-.907.64-1.342l-1.228-.672zm0-.002v.002l1.228.672v-.002l-1.227-.672zM3.56 5.069c-.444.774-.881 1.553-1.313 2.332l1.224.679c.43-.774.864-1.548 1.304-2.316L3.56 5.069zm.252-.343c-.05.058-.16.18-.253.343l1.216.695a1.167 1.167 0 0 1 .082-.105l-1.045-.933zm.038-.042-.038.042 1.045.933.033-.037-1.04-.938zm.034-.037-.002.002a1.023 1.023 0 0 1-.011.013l-.02.022 1.039.938c.027-.03.071-.078.114-.135l-1.12-.84zm.282-.457c-.028.096-.1.223-.274.446l1.103.863c.194-.249.405-.548.513-.908l-1.342-.4zm.002-.006-.002.006 1.342.4.002-.005-1.342-.4zm.009-.027-.002.006 1.328.443.002-.006-1.328-.443zm0 .003c.001-.007.002-.008 0-.003l1.328.443c.012-.035.022-.071.031-.107l-1.36-.333zm-.085.13c.028.094.071.223.145.363L5.475 4a.581.581 0 0 1-.041-.107l-1.342.398zm-.04-.146c.009.034.023.089.04.146l1.342-.398a2.678 2.678 0 0 1-.026-.096l-1.356.348zm0-.001v.001l1.356-.348v-.001l-1.356.348zm-.02-.072c.005.014.01.032.02.072l1.356-.348-.032-.12-1.343.396zm-.09-.537c.01.182.045.381.09.537l1.344-.396a1.153 1.153 0 0 1-.037-.223l-1.398.082zm.02-.395c-.03.162-.026.31-.02.395l1.397-.082a.53.53 0 0 1-.001-.046V3.39l-1.377-.25zm.131-.376a1.245 1.245 0 0 0-.132.376l1.378.25-.003.013a.19.19 0 0 1-.015.034l-1.228-.673zm.634-.535a1.142 1.142 0 0 0-.634.535l1.228.673a.258.258 0 0 1-.144.118l-.45-1.326zm1.264.258c-.195-.17-.664-.462-1.264-.258l.45 1.326a.146.146 0 0 1-.083 0 .081.081 0 0 1-.017-.008.054.054 0 0 1-.008-.006l.922-1.054zm8.668 12.16v-.97h-1.4v.97h1.4zm-9.489.7h8.79v-1.4H5.17v1.4z" fill="#fff" mask="url(#a)"/></svg>