<svg width="16" height="17" fill="none" xmlns="http://www.w3.org/2000/svg"><path d="M4.39 12.441c2.065-.344 5.16-.344 7.225 0" stroke="#000" stroke-width="1.29" stroke-linecap="round" stroke-linejoin="round"/><path fill-rule="evenodd" clip-rule="evenodd" d="M2.321 4.615a.43.43 0 1 0 0 .86.43.43 0 0 0 0-.86zm-.946.43a.946.946 0 1 1 1.892 0 .946.946 0 0 1-1.892 0zM5.079 3.583a.43.43 0 1 0 0 .86.43.43 0 0 0 0-.86zm-.946.43a.946.946 0 1 1 1.892 0 .946.946 0 0 1-1.892 0zM8 3.24a.43.43 0 1 0 0 .86.43.43 0 0 0 0-.86zm-.945.43a.946.946 0 1 1 1.892 0 .946.946 0 0 1-1.892 0zM10.923 3.583a.43.43 0 1 0 0 .86.43.43 0 0 0 0-.86zm-.946.43a.946.946 0 1 1 1.892 0 .946.946 0 0 1-1.892 0zM13.673 4.615a.43.43 0 1 0 0 .86.43.43 0 0 0 0-.86zm-.946.43a.946.946 0 1 1 1.892 0 .946.946 0 0 1-1.892 0z" fill="#000"/><path d="M4.182 11.361c-.344-.688-.861-.688-.861-1.376l-.86-4.3 2.58 3.956.103-4.85 1.789 4.678 1.032-4.988L8.997 9.47l1.789-4.678.103 4.85 2.58-3.956-.86 4.3c0 .688-.515.688-.86 1.376-.343.516-.343.344-.171 1.204.516.344.344.86.344.86.516.516 0 .86 0 .86-2.236.344-5.676.344-7.912 0 0 0-.516-.344 0-.86 0 0-.172-.516.344-.86.172-.86.172-.688-.172-1.204z" fill="#050505"/><path fill-rule="evenodd" clip-rule="evenodd" d="M11.538 12.087a38.219 38.219 0 0 0-7.154 0c-.013.077-.032.17-.056.286v.004l-.016.079a.2.2 0 0 1-.071.116.99.99 0 0 0-.063.055l.15-.016a37.532 37.532 0 0 1 7.287.002l.13.014a1.012 1.012 0 0 0-.064-.055.2.2 0 0 1-.07-.116l-.017-.08v-.003a9.657 9.657 0 0 1-.056-.286z" fill="#fff"/><path d="M1.602 5.166a.688.688 0 1 1 1.376 0 .688.688 0 0 1-1.376 0zM4.352 4.134a.688.688 0 1 1 1.376 0 .688.688 0 0 1-1.376 0zM7.273 3.79a.688.688 0 1 1 1.376 0 .688.688 0 0 1-1.376 0zM10.203 4.134a.688.688 0 1 1 1.376 0 .688.688 0 0 1-1.376 0zM12.953 5.166a.688.688 0 1 1 1.376 0 .688.688 0 0 1-1.376 0z" fill="#050505"/><path fill-rule="evenodd" clip-rule="evenodd" d="M12.648 9.607c.143 0 .258.116.258.258 0 .207-.039.376-.113.524-.072.145-.17.254-.263.347a6.326 6.326 0 0 1-.096.093c-.151.146-.292.282-.415.528a8.564 8.564 0 0 1-.133.198l-.006.009-.072.104c-.038.058-.043.076-.045.089a.558.558 0 0 0 .014.168c.012.075.031.168.057.293l.016.079a1.014 1.014 0 0 1 .388.931c.099.121.162.245.191.372a.688.688 0 0 1-.038.43.826.826 0 0 1-.274.34l-.008.006-.003.003h-.002v.001a.258.258 0 0 1-.104.04c-2.262.348-5.729.348-7.99 0a.258.258 0 0 1-.105-.04l-.002-.001-.003-.003-.009-.005a.935.935 0 0 1-.098-.085.825.825 0 0 1-.175-.255.688.688 0 0 1-.039-.431.916.916 0 0 1 .191-.372 1.014 1.014 0 0 1 .389-.932l.016-.078c.025-.125.044-.218.057-.293a.562.562 0 0 0 .013-.168c-.002-.013-.006-.031-.044-.09l-.072-.103a8.112 8.112 0 0 1-.14-.207c-.122-.246-.263-.382-.415-.528a7.236 7.236 0 0 1-.095-.093 1.332 1.332 0 0 1-.264-.347 1.142 1.142 0 0 1-.113-.524.258.258 0 1 1 .516 0 .63.63 0 0 0 .058.293c.036.07.088.133.167.213l.078.076c.153.146.358.342.523.664l.1.147.009.011.08.116a.73.73 0 0 1 .121.287c.018.109.006.22-.013.337-.014.086-.036.192-.062.322l-.034.165a.258.258 0 0 1-.11.164c-.187.125-.239.269-.252.377a.538.538 0 0 0 .01.183l.001.007a.258.258 0 0 1-.063.26.499.499 0 0 0-.149.229.172.172 0 0 0 .01.111c.015.036.04.069.066.094 2.188.326 5.505.326 7.692 0a.313.313 0 0 0 .067-.094.172.172 0 0 0 .01-.111.499.499 0 0 0-.15-.228.258.258 0 0 1-.062-.261v-.002.002l.001-.007a.538.538 0 0 0 .01-.184c-.014-.107-.065-.25-.253-.376a.258.258 0 0 1-.11-.164 61.592 61.592 0 0 0-.033-.165c-.027-.13-.048-.236-.062-.322a1.022 1.022 0 0 1-.014-.337.73.73 0 0 1 .122-.287l.08-.116.008-.011.101-.147-.008.015.017-.028a2.366 2.366 0 0 1 .513-.651l.078-.076a.828.828 0 0 0 .167-.212.631.631 0 0 0 .058-.294c0-.142.116-.258.258-.258z" fill="#050505"/><path fill-rule="evenodd" clip-rule="evenodd" d="M8.013 4.306c.122 0 .228-.12.253 0l.852 4.124 1.473-3.855c.044-.115.12.03.242.052.122.021.254-.088.257.035l.085 4.015 2.122-3.256c.068-.103.114.054.228.1.115.047.265-.03.241.092l-.86 4.3a.258.258 0 1 1-.505-.102l.597-2.986L11.15 9.66a.258.258 0 0 1-.474-.135l-.075-3.533-1.317 3.447a.258.258 0 0 1-.493-.04l-.779-3.767-.779 3.767a.258.258 0 0 1-.493.04L5.424 5.991 5.35 9.524a.258.258 0 0 1-.474.135L3.03 6.825l.596 2.986a.258.258 0 1 1-.505.102l-.86-4.3c-.024-.122.126-.056.24-.102.114-.047.162-.193.23-.09L4.85 8.677l.086-4.015c.002-.123.133-.035.255-.056.121-.021.2-.146.243-.03L6.908 8.43l.853-4.124c.025-.12.13 0 .252 0z" fill="#050505"/></svg>