<svg width="16" height="17" fill="none" xmlns="http://www.w3.org/2000/svg"><path d="M12.095 5.783 11.027 6.85v4.195l1.334.89v2.224H3.64v-2.224l1.334-.89V6.85L3.907 5.783v-1.78H5.33v.712h1.78v-.712h1.78v.712h1.78v-.712h1.424v1.78z" fill="#050505"/><path d="M3.907 3.395a.608.608 0 0 0-.608.608v1.78c0 .16.064.316.178.43l.89.89v3.618l-1.064.71a.608.608 0 0 0-.27.505v2.224a.608.608 0 0 0 .608.608h8.72a.608.608 0 0 0 .608-.608v-2.224a.608.608 0 0 0-.27-.506l-1.064-.71V7.104l.89-.89a.608.608 0 0 0 .178-.43v-1.78a.608.608 0 0 0-.608-.608H10.67a.608.608 0 0 0-.608.608v.104h-.564v-.104a.608.608 0 0 0-.608-.608H7.11a.608.608 0 0 0-.608.608v.104h-.564v-.104a.608.608 0 0 0-.608-.608H3.907z" fill="#050505" stroke="#fff" stroke-width=".7" stroke-linecap="round" stroke-linejoin="round"/><path fill-rule="evenodd" clip-rule="evenodd" d="M11.287 6.593H4.719l.258.258v.258h6.052V6.85l.258-.258zm-.258 4.195H4.977v.258l-.258.172v.086h6.568v-.086l-.258-.172v-.258z" fill="#fff"/></svg>