<svg width="16" height="17" fill="none" xmlns="http://www.w3.org/2000/svg"><path fill-rule="evenodd" clip-rule="evenodd" d="M3.193 13.222c1.207-.346 3.6.152 4.806-.713 1.207.865 3.6.367 4.806.713 0 0 .588.192 1.068.712-.242.345-.587.352-1.068.178-1.207-.346-3.599.163-4.806-.357-1.207.52-3.599.011-4.806.356-.48.175-.826.168-1.068-.178.48-.52 1.068-.711 1.068-.711z" fill="#fff"/><path fill-rule="evenodd" clip-rule="evenodd" d="M7.849 12.3a.258.258 0 0 1 .3 0c.532.38 1.354.476 2.26.502.196.006.405.01.612.012.244.003.487.006.703.014.416.016.819.05 1.152.145l.01.003-.08.245.08-.245.003.002.008.002a1.828 1.828 0 0 1 .107.042 3.077 3.077 0 0 1 1.059.737c.082.088.091.223.021.323a.88.88 0 0 1-.622.391c-.235.031-.485-.026-.736-.116-.268-.075-.614-.107-1.017-.116-.327-.007-.678.001-1.04.01l-.261.006a14.3 14.3 0 0 1-1.338-.018c-.382-.028-.752-.087-1.07-.206-.32.12-.69.178-1.072.206a14.3 14.3 0 0 1-1.337.018l-.26-.006a23.481 23.481 0 0 0-1.042-.01c-.403.009-.749.04-1.017.116-.25.09-.5.147-.736.116a.88.88 0 0 1-.622-.391.258.258 0 0 1 .022-.324 3.078 3.078 0 0 1 1.166-.778l.007-.002.002-.001h.001l.081.245-.08-.246a.31.31 0 0 1 .01-.003c.333-.095.735-.13 1.151-.145.217-.008.46-.01.703-.014.208-.003.416-.006.612-.011.906-.027 1.729-.122 2.26-.503zM3.27 13.468c-.003 0-.007.002-.014.005a2.468 2.468 0 0 0-.293.136 2.65 2.65 0 0 0-.465.322.353.353 0 0 0 .105.03c.116.016.275-.01.502-.092a.332.332 0 0 1 .017-.006c.335-.095.737-.129 1.156-.138.34-.007.706.002 1.07.01l.254.006c.45.01.888.013 1.288-.016.401-.03.744-.093 1.007-.207a.258.258 0 0 1 .204 0c.263.114.606.177 1.008.207.4.03.838.026 1.288.016l.254-.006c.363-.008.729-.017 1.07-.01.418.01.82.043 1.155.138a.337.337 0 0 1 .017.006c.227.082.387.108.502.093a.353.353 0 0 0 .106-.03 2.647 2.647 0 0 0-.759-.46l-.014-.004c-.269-.076-.616-.109-1.023-.124-.225-.008-.447-.011-.676-.014a36.024 36.024 0 0 1-.634-.012c-.829-.024-1.73-.102-2.396-.5-.665.398-1.567.476-2.395.5-.223.007-.432.01-.635.012-.229.003-.45.006-.676.014-.407.015-.754.048-1.023.124z" fill="#000"/><path fill-rule="evenodd" clip-rule="evenodd" d="M5.33 11.797c.89.89 4.45.89 5.34 0 .177-.534 0-.712 0-.712 0-.89-.89-1.424-.89-1.424 1.957-.534 2.135-4.094-1.78-5.518C4.082 5.567 4.26 9.127 6.22 9.661c0 0-.89.534-.89 1.425 0 0-.179.178 0 .711z" fill="#fff"/><path fill-rule="evenodd" clip-rule="evenodd" d="M7.911 3.901c.057-.02.12-.02.176 0 2.026.736 3.04 2.046 3.259 3.29.187 1.062-.216 2.083-1.06 2.543.042.04.086.084.13.132.232.256.485.644.51 1.14a.677.677 0 0 1 .063.185c.033.164.025.389-.075.688a.258.258 0 0 1-.062.1c-.275.275-.722.456-1.208.57a7.367 7.367 0 0 1-1.645.174 7.367 7.367 0 0 1-1.644-.174c-.487-.114-.934-.295-1.208-.57a.258.258 0 0 1-.063-.1c-.1-.3-.107-.524-.075-.688a.678.678 0 0 1 .064-.185c.025-.496.277-.884.51-1.14a2.53 2.53 0 0 1 .13-.132c-.845-.46-1.248-1.481-1.06-2.543.219-1.244 1.233-2.554 3.258-3.29zM6.352 9.883l-.005.003a1.008 1.008 0 0 0-.11.078 2.1 2.1 0 0 0-.272.25c-.2.22-.378.516-.378.871 0 .06-.02.118-.059.164a.181.181 0 0 0-.013.043c-.01.052-.018.166.04.363.18.155.495.292.918.392.45.106.985.16 1.526.16a6.86 6.86 0 0 0 1.526-.16c.423-.1.738-.238.918-.392.058-.197.05-.31.04-.363a.188.188 0 0 0-.013-.043.258.258 0 0 1-.059-.164c0-.355-.178-.652-.378-.872a2.1 2.1 0 0 0-.382-.327l-.005-.003a.258.258 0 0 1 .065-.47c.82-.224 1.31-1.094 1.127-2.132-.178-1.01-1.01-2.17-2.839-2.862C6.17 5.11 5.34 6.272 5.161 7.28c-.184 1.038.307 1.908 1.126 2.132a.258.258 0 0 1 .066.47h-.001zm4.133 1.384h.001" fill="#000"/><path fill-rule="evenodd" clip-rule="evenodd" d="M8.89 3.253a.89.89 0 1 1-1.78 0 .89.89 0 0 1 1.78 0z" fill="#fff"/><path fill-rule="evenodd" clip-rule="evenodd" d="M8 2.621a.632.632 0 1 0 0 1.264.632.632 0 0 0 0-1.264zm-1.149.632a1.148 1.148 0 1 1 2.296 0 1.148 1.148 0 0 1-2.296 0z" fill="#000"/></svg>