<svg width="16" height="17" fill="none" xmlns="http://www.w3.org/2000/svg"><path d="M5.702 9.648c.872-.58 2.628-2.169 2.493-3.205.712 5.163-2.85 4.273-2.85 7.478h8.192c.178-7.478-1.96-9.971-5.698-10.327 0 0 0-1.069-.357-1.069-.612.36-.89 1.069-.89 1.069H5.88s-.712-1.247-1.068-.89c0 .355-.082.714.178 1.068-.04.57-.713 1.246-.713 1.246S2.141 8.58 2.141 9.292c-.001 1.78 1.068 1.424 1.424 1.424.424-.274 0-.712.356-.712.502-.014-.37.734 0 1.068.777.121.712-.712 1.78-1.424z" fill="#fff"/><path fill-rule="evenodd" clip-rule="evenodd" d="M7.327 2.283a.258.258 0 0 1 .13-.035c.242 0 .375.185.437.31.067.134.106.298.13.44.02.123.032.245.038.343 1.825.22 3.297.969 4.288 2.59 1.018 1.666 1.507 4.22 1.417 7.973a.258.258 0 0 1-.258.252H5.321a.258.258 0 0 1-.258-.258c0-1.479.727-2.178 1.418-2.843.118-.113.234-.226.346-.34.387-.398.737-.839.953-1.48.137-.406.224-.902.225-1.528a5.833 5.833 0 0 1-.51.659A9.443 9.443 0 0 1 5.82 9.84c-.432.288-.657.591-.856.858l-.08.107c-.108.142-.232.293-.398.394a.9.9 0 0 1-.628.105.257.257 0 0 1-.133-.064.526.526 0 0 1-.168-.29h-.016c-.028 0-.07.005-.138.011-.062.007-.14.014-.225.018a1.347 1.347 0 0 1-.584-.094c-.45-.192-.735-.681-.735-1.616 0-.137.048-.307.107-.474a7.25 7.25 0 0 1 .25-.602c.205-.442.475-.96.743-1.45a57.499 57.499 0 0 1 1.049-1.838l.018-.03.006-.01.221.132.198.172-.087-.106-.11-.066.197.172a38.11 38.11 0 0 0-.308.525c-.2.343-.466.809-.731 1.295-.266.488-.53.994-.727 1.42a6.756 6.756 0 0 0-.233.558c-.057.164-.077.26-.077.302 0 .845.25 1.068.422 1.142a.841.841 0 0 0 .362.052 3.17 3.17 0 0 0 .194-.015l.009-.001.086-.008a.124.124 0 0 0 .032-.051.39.39 0 0 0 .007-.139v-.017c-.003-.028-.005-.065-.005-.098 0-.041.003-.105.027-.17a.354.354 0 0 1 .166-.191.463.463 0 0 1 .219-.05H3.89h.007-.003a.446.446 0 0 1 .293.084.35.35 0 0 1 .127.307.698.698 0 0 1-.055.208c-.022.053-.05.11-.074.16l-.006.014a1.298 1.298 0 0 0-.117.306s.118-.022.158-.045c.073-.045.145-.123.253-.264l.075-.1c.2-.27.476-.643.986-.983a8.934 8.934 0 0 0 1.574-1.387c.258-.29.477-.587.623-.866.149-.283.206-.52.183-.703a.258.258 0 0 1 .511-.068c.182 1.317.094 2.272-.156 3.013-.25.743-.657 1.248-1.072 1.674-.127.131-.254.254-.377.373-.63.61-1.35 1.232-1.423 2.3h7.994c.06-3.581-.563-6.044-1.481-7.547-.927-1.516-2.312-2.197-4.121-2.37a.258.258 0 0 1-.234-.256V3.565a2.325 2.325 0 0 0-.005-.144 3.204 3.204 0 0 0-.036-.339 1.288 1.288 0 0 0-.066-.26c-.191.145-.34.329-.45.494a2.431 2.431 0 0 0-.189.348l-.001.004a.258.258 0 0 1-.24.164h-.713a.258.258 0 0 1-.224-.13L5.63 3.7l-.005-.01a3.38 3.38 0 0 0-.103-.165 3.941 3.941 0 0 0-.265-.364 1.545 1.545 0 0 0-.218-.221c-.01.27-.017.453.134.66.036.048.054.109.05.17-.025.362-.242.724-.419.97a4.174 4.174 0 0 1-.334.405c-.017.018-.019.025-.019.025l-.087-.106-.11-.066-.184-.182h.001l.005-.005a1.96 1.96 0 0 0 .09-.098c.06-.068.139-.164.22-.275.148-.206.273-.432.311-.624-.022-.03.018.03 0 0-.002.026.005-.027 0 0-.206-.341-.187-.7-.174-.966.004-.06.006-.115.006-.164 0-.069.028-.134.076-.183a.46.46 0 0 1 .33-.14c.115 0 .217.042.297.088.159.09.305.242.421.381a4.453 4.453 0 0 1 .348.486h.402c.039-.077.093-.175.164-.283.158-.24.407-.543.76-.75zM4.07 4.816l.183.182-.221-.133a.262.262 0 0 1 .038-.05zM7.41 2.75l-.004-.003s.002 0 .004.003z" fill="#050505"/></svg>