<svg width="16" height="17" fill="none" xmlns="http://www.w3.org/2000/svg"><path d="M8.004 2.689A1.446 1.446 0 0 0 6.84 4.995a2.344 2.344 0 0 0-1.186 2.032c0 .734.34 1.388.871 1.818-1.084.384-2.679 2.007-2.679 4.87h8.315c0-2.863-1.594-4.486-2.679-4.87.532-.43.872-1.084.872-1.818 0-.871-.481-1.627-1.186-2.032A1.446 1.446 0 0 0 8.004 2.69z" fill="#fff"/><path fill-rule="evenodd" clip-rule="evenodd" d="M6.32 4.135a1.683 1.683 0 1 1 3.173.787 2.574 2.574 0 0 1 1.098 2.105c0 .674-.26 1.287-.686 1.747 1.14.6 2.493 2.266 2.493 4.94v.238H3.61v-.237c0-2.675 1.353-4.34 2.493-4.941a2.563 2.563 0 0 1-.685-1.747c0-.873.438-1.639 1.098-2.105a1.683 1.683 0 0 1-.194-.787zm1.684-1.209a1.209 1.209 0 0 0-.973 1.93l.156.213-.23.132a2.106 2.106 0 0 0-1.066 1.826c0 .659.305 1.247.783 1.634l.33.267-.4.14c-.95.336-2.432 1.784-2.517 4.41h7.833c-.085-2.626-1.567-4.074-2.517-4.41l-.4-.14.33-.267c.479-.387.784-.975.784-1.634 0-.781-.431-1.46-1.067-1.826l-.23-.132.156-.214a1.209 1.209 0 0 0-.973-1.93z" fill="#000"/></svg>