<svg width="16" height="17" fill="none" xmlns="http://www.w3.org/2000/svg"><path d="M4.213 10.74c-.344-.687-.86-.687-.86-1.375l-.86-4.3 2.58 3.956.102-4.85 1.79 4.678L7.995 3.86l1.032 4.988 1.789-4.679.103 4.85 2.58-3.955-.86 4.3c0 .688-.515.688-.86 1.376-.343.516-.343.344-.171 1.204.516.344.344.86.344.86.516.516 0 .86 0 .86-2.236.344-5.676.344-7.912 0 0 0-.516-.344 0-.86 0 0-.172-.516.344-.86.172-.86.172-.688-.172-1.204z" fill="#fff"/><path fill-rule="evenodd" clip-rule="evenodd" d="M7.996 3.603c.123 0 .228.086.253.205l.853 4.125 1.474-3.855a.258.258 0 0 1 .5.087l.085 4.015 2.123-3.256a.258.258 0 0 1 .47.191l-.855 4.276a1.128 1.128 0 0 1-.113.497c-.072.145-.171.255-.263.347a7.459 7.459 0 0 1-.096.094c-.152.146-.292.281-.415.527a.273.273 0 0 1-.016.028l-.117.17-.007.009c-.03.043-.053.075-.071.104-.038.058-.043.076-.045.089a.564.564 0 0 0 .014.168c.012.075.03.168.056.293l.016.079a1.013 1.013 0 0 1 .39.931.916.916 0 0 1 .19.372.688.688 0 0 1-.038.43.824.824 0 0 1-.274.34l-.008.007-.003.002h-.002l-.144-.213.143.214a.258.258 0 0 1-.104.04c-2.262.349-5.728.349-7.99 0a.258.258 0 0 1-.104-.04l.143-.214-.143.214h-.001l-.001-.001-.003-.002-.009-.006a.767.767 0 0 1-.098-.085.825.825 0 0 1-.176-.255.688.688 0 0 1-.038-.431.916.916 0 0 1 .191-.372 1.013 1.013 0 0 1 .389-.932l.016-.078c.025-.125.044-.218.057-.293a.562.562 0 0 0 .013-.168c-.002-.013-.006-.03-.045-.09-.018-.028-.04-.06-.071-.103l-.007-.01a8.155 8.155 0 0 1-.133-.197c-.122-.246-.263-.381-.415-.527a7.236 7.236 0 0 1-.096-.094 1.331 1.331 0 0 1-.263-.346 1.128 1.128 0 0 1-.113-.498l-.856-4.276a.258.258 0 0 1 .47-.191L4.832 8.18l.086-4.015a.258.258 0 0 1 .499-.087L6.89 7.933l.854-4.125a.258.258 0 0 1 .252-.205zm-3.71 9.12v.003s.001 0 0 0v-.002zm.15-2.113.101.147.008.011c.029.04.057.08.08.116a.73.73 0 0 1 .122.287c.018.11.006.22-.013.338-.014.085-.036.19-.063.321l-.033.165a.258.258 0 0 1-.11.164c-.188.125-.239.27-.252.377a.537.537 0 0 0 .01.19.258.258 0 0 1-.062.261.499.499 0 0 0-.15.228.172.172 0 0 0 .01.111c.016.036.041.069.067.094 2.188.326 5.504.326 7.692 0a.311.311 0 0 0 .066-.094.172.172 0 0 0 .01-.111.499.499 0 0 0-.148-.228.258.258 0 0 1-.064-.261m.001-.002v.002-.004l.001-.003a.538.538 0 0 0 .01-.184c-.014-.107-.065-.25-.253-.376a.259.259 0 0 1-.11-.164l-.033-.165c-.027-.13-.048-.236-.062-.321a1.022 1.022 0 0 1-.014-.338.73.73 0 0 1 .122-.287l.08-.116.008-.011a7.313 7.313 0 0 0 .093-.132l.231.116-.215-.143-.008.012c.164-.322.369-.518.521-.664l.079-.076a.832.832 0 0 0 .166-.212.631.631 0 0 0 .06-.293.26.26 0 0 1 .004-.051l.597-2.987.732-1.121-.217-.141-.253-.051-.262 1.313-1.848 2.835a.258.258 0 0 1-.475-.136l-.075-3.532.471-1.232-.24-.092-.259.006.028 1.318L9.27 8.94a.258.258 0 0 1-.493-.04l-.78-3.767.253-1.221-.253-.052-.252.052.252 1.221-.779 3.767a.258.258 0 0 1-.494.04L5.406 5.494l.028-1.318-.258-.006-.241.092.47 1.232-.075 3.532a.258.258 0 0 1-.474.136L3.008 6.328l-.263-1.314-.253.05-.216.142.732 1.122.597 2.986a.258.258 0 0 1 .005.05.63.63 0 0 0 .06.294.83.83 0 0 0 .166.212l.078.076c.153.146.358.342.522.664l-.008-.012-.215.143.23-.116a1.475 1.475 0 0 0-.007-.015m7.272 2.114z" fill="#fff"/><path fill-rule="evenodd" clip-rule="evenodd" d="M12.64 9.107c.143 0 .258.115.258.258 0 .206-.039.375-.113.523-.072.145-.17.255-.263.347l-.096.094c-.151.146-.292.281-.415.527a7.783 7.783 0 0 1-.133.198l-.006.009-.072.104c-.038.058-.042.076-.045.089a.558.558 0 0 0 .014.168c.012.075.031.168.057.293l.016.079a1.014 1.014 0 0 1 .388.931.917.917 0 0 1 .192.372.687.687 0 0 1-.039.43.826.826 0 0 1-.249.322l-.024.019-.009.006-.003.002h-.001l-.001.001a.258.258 0 0 1-.104.04c-2.262.349-5.729.349-7.99 0a.258.258 0 0 1-.105-.04l-.002-.001-.003-.002-.009-.006a.767.767 0 0 1-.098-.085.825.825 0 0 1-.175-.255.688.688 0 0 1-.039-.431.916.916 0 0 1 .192-.372 1.013 1.013 0 0 1 .389-.932l.015-.078c.026-.125.044-.218.057-.293a.562.562 0 0 0 .013-.168c-.002-.013-.006-.03-.044-.09l-.072-.103-.006-.01a8.116 8.116 0 0 1-.133-.197c-.123-.246-.264-.381-.416-.527a7.236 7.236 0 0 1-.095-.094 1.331 1.331 0 0 1-.264-.346 1.142 1.142 0 0 1-.113-.524.258.258 0 1 1 .516 0 .63.63 0 0 0 .059.293.83.83 0 0 0 .166.212c.024.024.05.05.079.076.152.146.357.342.522.664l.1.147.009.011.08.116a.73.73 0 0 1 .121.287c.019.11.007.22-.013.338-.014.085-.036.19-.062.321l-.034.165a.258.258 0 0 1-.11.164c-.187.125-.239.27-.252.377a.537.537 0 0 0 .011.19.258.258 0 0 1-.063.261.499.499 0 0 0-.149.228.172.172 0 0 0 .01.111c.015.036.04.069.066.094 2.188.326 5.505.326 7.693 0a.313.313 0 0 0 .066-.094.172.172 0 0 0 .01-.111.498.498 0 0 0-.149-.228.258.258 0 0 1-.063-.261v-.002.002l.002-.007a.534.534 0 0 0 .01-.184c-.014-.107-.066-.25-.254-.376a.258.258 0 0 1-.11-.164 61.592 61.592 0 0 0-.033-.165c-.026-.13-.048-.236-.062-.321a1.022 1.022 0 0 1-.014-.338.73.73 0 0 1 .122-.287l.08-.116.008-.011a7.757 7.757 0 0 0 .094-.132l.016-.027a2.365 2.365 0 0 1 .513-.651l.078-.077a.828.828 0 0 0 .167-.212.631.631 0 0 0 .059-.293c0-.143.115-.258.258-.258z" fill="#050505"/><path fill-rule="evenodd" clip-rule="evenodd" d="M11.572 12.196c-2.035-.34-5.103-.34-7.139 0a.258.258 0 1 1-.085-.51c2.093-.348 5.217-.348 7.31 0a.258.258 0 1 1-.086.51z" fill="#000"/><path d="M1.633 4.545a.688.688 0 1 1 1.376 0 .688.688 0 0 1-1.376 0z" fill="#fff"/><path fill-rule="evenodd" clip-rule="evenodd" d="M2.321 4.115a.43.43 0 1 0 0 .86.43.43 0 0 0 0-.86zm-.946.43a.946.946 0 1 1 1.892 0 .946.946 0 0 1-1.892 0z" fill="#000"/><path d="M4.39 3.513a.688.688 0 1 1 1.377 0 .688.688 0 0 1-1.376 0z" fill="#fff"/><path fill-rule="evenodd" clip-rule="evenodd" d="M5.079 3.083a.43.43 0 1 0 0 .86.43.43 0 0 0 0-.86zm-.946.43a.946.946 0 1 1 1.892 0 .946.946 0 0 1-1.892 0z" fill="#000"/><path d="M7.313 3.17a.688.688 0 1 1 1.375 0 .688.688 0 0 1-1.376 0z" fill="#fff"/><path fill-rule="evenodd" clip-rule="evenodd" d="M8 2.74a.43.43 0 1 0 0 .86.43.43 0 0 0 0-.86zm-.945.43a.946.946 0 1 1 1.892 0 .946.946 0 0 1-1.892 0z" fill="#000"/><path d="M10.234 3.513a.688.688 0 1 1 1.376 0 .688.688 0 0 1-1.376 0z" fill="#fff"/><path fill-rule="evenodd" clip-rule="evenodd" d="M10.923 3.083a.43.43 0 1 0 0 .86.43.43 0 0 0 0-.86zm-.946.43a.946.946 0 1 1 1.892 0 .946.946 0 0 1-1.892 0z" fill="#000"/><path d="M12.984 4.545a.688.688 0 1 1 1.376 0 .688.688 0 0 1-1.376 0z" fill="#fff"/><path fill-rule="evenodd" clip-rule="evenodd" d="M13.673 4.115a.43.43 0 1 0 0 .86.43.43 0 0 0 0-.86zm-.946.43a.946.946 0 1 1 1.892 0 .946.946 0 0 1-1.892 0z" fill="#000"/><path fill-rule="evenodd" clip-rule="evenodd" d="M8.005 3.805c.123 0 .228-.12.253 0l.853 4.124 1.472-3.854c.044-.116.12.03.242.051.122.021.254-.088.257.035l.085 4.016L13.29 4.92c.068-.103.114.054.229.1.114.047.264-.03.24.092l-.86 4.3a.258.258 0 1 1-.505-.101l.597-2.987-1.847 2.834a.258.258 0 0 1-.474-.135l-.075-3.533-1.317 3.447a.258.258 0 0 1-.493-.04l-.779-3.766-.778 3.766a.258.258 0 0 1-.494.04L5.416 5.49l-.075 3.533a.258.258 0 0 1-.473.135L3.02 6.324l.597 2.987a.258.258 0 1 1-.506.1l-.86-4.3c-.024-.12.126-.055.24-.101.115-.047.162-.193.23-.09l2.122 3.257.085-4.016c.003-.123.134-.035.255-.056.122-.021.2-.146.243-.03L6.9 7.929l.853-4.124c.025-.12.13 0 .252 0z" fill="#050505"/></svg>