<svg width="16" height="17" fill="none" xmlns="http://www.w3.org/2000/svg"><path d="M12.095 5.283 11.027 6.35v4.195l1.334.89v2.224H3.64v-2.224l1.334-.89V6.35L3.907 5.283v-1.78H5.33v.712h1.78v-.712h1.78v.712h1.78v-.712h1.424v1.78z" fill="#fff"/><path fill-rule="evenodd" clip-rule="evenodd" d="M3.649 3.503c0-.143.115-.258.258-.258H5.33c.142 0 .258.115.258.258v.454h1.264v-.454c0-.143.115-.258.258-.258h1.78c.142 0 .258.115.258.258v.454h1.264v-.454c0-.143.115-.258.258-.258h1.424c.142 0 .258.115.258.258v1.78a.258.258 0 0 1-.076.182l-.992.993v3.95l1.219.813a.258.258 0 0 1 .115.215v2.224a.258.258 0 0 1-.258.258H3.64a.258.258 0 0 1-.258-.258v-2.224c0-.086.043-.167.115-.215l1.219-.813v-3.95l-.993-.993a.258.258 0 0 1-.075-.182v-1.78zm1.584 3.106v3.679h5.536v-3.68H5.233zm5.687-.516.917-.917V3.76h-.908v.454a.258.258 0 0 1-.258.258H8.89a.258.258 0 0 1-.258-.258V3.76H7.369v.454a.258.258 0 0 1-.258.258H5.33a.258.258 0 0 1-.258-.258V3.76h-.908v1.415l.917.917h5.838zm.029 4.71H5.053l-1.154.77v1.829h8.204v-1.828l-1.154-.77z" fill="#000"/></svg>