<svg width="108" height="108" viewBox="0 0 108 108" fill="none" xmlns="http://www.w3.org/2000/svg">
<g clip-path="url(#clip0_11524_140040)">
<circle cx="54" cy="54" r="54" fill="#AEAEB2" fill-opacity="0.1"/>
<mask id="mask0_11524_140040" style="mask-type:alpha" maskUnits="userSpaceOnUse" x="0" y="0" width="108" height="108">
<circle cx="54" cy="54" r="54" fill="#AEAEB2"/>
</mask>
<g mask="url(#mask0_11524_140040)">
<path d="M14.1783 25.6166L-24.4258 118.617C-24.6991 119.275 -24.2152 120 -23.5022 120H135.463C136.186 120 136.67 119.256 136.377 118.595L95.1649 25.5949C95.0047 25.2332 94.6463 25 94.2507 25H15.1018C14.6977 25 14.3332 25.2433 14.1783 25.6166Z" stroke="#34C759"/>
<path d="M23.1443 31.6138L-7.41962 104.614C-7.69549 105.273 -7.21152 106 -6.49721 106H119.458C120.182 106 120.666 105.253 120.371 104.592L87.7416 31.5919C87.5806 31.2318 87.223 31 86.8286 31H24.0667C23.6637 31 23.3 31.242 23.1443 31.6138Z" stroke="#0F0F0F"/>
<line x1="17.9337" y1="44.4767" x2="93.2945" y2="44.4934" stroke="black" stroke-linecap="round"/>
<line x1="10.834" y1="61.4942" x2="100.834" y2="61.4999" stroke="black" stroke-linecap="round"/>
<line x1="3.5" y1="79.5" x2="80.5" y2="79.5" stroke="black" stroke-linecap="round"/>
<line x1="0.5" y1="-0.5" x2="68.5525" y2="-0.5" transform="matrix(-0.263591 0.964635 -0.964172 -0.265278 41.3906 30.5781)" stroke="black" stroke-linecap="round"/>
<line x1="59.5" y1="31.5" x2="59.5" y2="90.5" stroke="black" stroke-linecap="round"/>
<line x1="0.5" y1="-0.5" x2="39.5" y2="-0.5" transform="matrix(0.290249 0.956951 -0.956395 0.292077 73.9941 31.1816)" stroke="black" stroke-linecap="round"/>
<path d="M11.0326 74C11.0109 73.7415 11 73.2353 11 72.4813C11 69.767 11.8485 67.7528 13.5455 66.4388C14.0459 66.0295 14.655 65.6525 15.373 65.3078C14.5245 65.0493 13.9479 64.4138 13.6434 63.4014C13.5563 63.0782 13.5128 62.7443 13.5128 62.3997C13.5128 60.9563 14.2634 59.9331 15.7646 59.3299C15.3729 58.6837 15.1771 58.0697 15.1772 57.4881C15.1771 56.5187 15.6558 55.7971 16.6131 55.3231C17.0481 55.1077 17.5159 55 18.0163 55C19.1041 55 19.9091 55.4201 20.4312 56.2602C20.6705 56.6264 20.7902 57.0357 20.7902 57.4881C20.7902 58.1128 20.6053 58.7268 20.2354 59.3299C21.0404 59.6531 21.6169 60.0839 21.965 60.6224C22.3131 61.2041 22.4871 61.7965 22.4872 62.3997C22.4871 63.5198 22.0955 64.3707 21.3124 64.9524C21.1165 65.1247 20.899 65.2432 20.6597 65.3078C22.6612 66.3203 23.9557 67.6451 24.5431 69.2823C24.8477 70.1871 25 71.2534 25 72.4813C25 73.2353 24.9891 73.7415 24.9674 74H11.0326Z" fill="black"/>
<path d="M62.9504 49.6113C63.203 49.6113 63.3294 49.7828 63.3294 50.1257C63.3294 50.5769 63.1038 50.8025 62.6526 50.8025C62.4721 50.8025 62.3818 50.6581 62.3818 50.3693C62.3818 49.864 62.5713 49.6113 62.9504 49.6113ZM65.1162 41.2188C65.1884 41.4714 65.2245 41.6429 65.2245 41.7331C65.2245 41.7873 65.1974 41.9317 65.1433 42.1663C65.432 42.1663 65.8291 42.0219 66.3345 41.7331C65.8472 41.4805 65.4411 41.309 65.1162 41.2188ZM61.8945 50.5318C62.0028 50.9649 62.2916 51.2808 62.7609 51.4793C62.9413 51.5515 63.1128 51.5876 63.2752 51.5876H63.3294C63.3655 51.5876 63.564 51.4793 63.925 51.2627C64.0333 51.1906 64.1235 51.1545 64.1957 51.1545H64.304C64.3942 51.1545 64.4394 51.2086 64.4394 51.3169L64.2769 51.8313C64.2769 51.9937 64.4033 52.0749 64.6559 52.0749C64.692 52.0749 64.9177 51.7591 65.3328 51.1274C66.1269 49.9001 67.2549 48.9706 68.7169 48.3389C68.8612 47.3643 69.2222 46.507 69.7998 45.767C69.9442 45.5684 70.0886 45.4692 70.2329 45.4692C70.3954 45.4692 70.4766 45.5865 70.4766 45.8211C70.4766 45.8753 70.3142 46.3896 69.9893 47.3643C69.8629 47.7794 69.7998 48.0862 69.7998 48.2847C69.7998 48.3389 69.8178 48.4562 69.8539 48.6367C69.8539 49.9181 69.3125 51.2627 68.2296 52.6705C67.5076 53.6452 67.1106 54.4212 67.0384 54.9988H75.9724C76.0446 54.1686 76.0807 53.5549 76.0807 53.1578C76.0807 49.4398 74.9165 46.4709 72.5883 44.2509C71.8844 43.6012 71.3158 43.2763 70.8827 43.2763H69.2583C69.1139 43.2041 68.9695 42.8431 68.8252 42.1934C68.7169 41.67 68.5815 41.3451 68.4191 41.2188C68.2025 41.8685 67.5347 42.3739 66.4157 42.7348C65.8201 42.9153 65.405 43.0958 65.1703 43.2763C64.9718 43.908 64.3852 45.1894 63.4106 47.1206C62.454 49.0338 61.9487 50.1708 61.8945 50.5318Z" fill="white"/>
<path d="M62.9492 49.6108C63.2019 49.6108 63.3283 49.7823 63.3283 50.1252C63.3283 50.5764 63.1026 50.802 62.6514 50.802C62.4709 50.802 62.3807 50.6576 62.3807 50.3689C62.3807 49.8635 62.5702 49.6108 62.9492 49.6108ZM64.8985 46.308C64.6458 46.308 64.5195 46.1545 64.5195 45.8477C64.5195 45.3604 64.8082 44.9633 65.3858 44.6565C65.6385 44.5302 65.8731 44.467 66.0897 44.467C66.4687 44.467 66.6763 44.5933 66.7124 44.846C66.7124 45.2611 66.3875 45.6582 65.7377 46.0372C65.4129 46.2177 65.1331 46.308 64.8985 46.308ZM65.1151 41.2183C65.1872 41.471 65.2234 41.6424 65.2234 41.7327C65.2234 41.7868 65.1963 41.9312 65.1421 42.1658C65.4309 42.1658 65.828 42.0214 66.3333 41.7327C65.846 41.48 65.4399 41.3085 65.1151 41.2183ZM61.8934 50.5313C62.0017 50.9645 62.2905 51.2803 62.7597 51.4788C62.9402 51.551 63.1117 51.5871 63.2741 51.5871H63.3283C63.3644 51.5871 63.5629 51.4789 63.9239 51.2623C64.0322 51.1901 64.1224 51.154 64.1946 51.154H64.3029C64.3931 51.154 64.4382 51.2081 64.4382 51.3164L64.2758 51.8308C64.2758 51.9932 64.4021 52.0745 64.6548 52.0745C64.6909 52.0745 64.9165 51.7586 65.3316 51.1269C66.1258 49.8996 67.2538 48.9701 68.7157 48.3384C68.8601 47.3638 69.2211 46.5065 69.7986 45.7665C69.943 45.568 70.0874 45.4687 70.2318 45.4687C70.3943 45.4687 70.4755 45.586 70.4755 45.8206C70.4755 45.8748 70.313 46.3892 69.9882 47.3638C69.8618 47.7789 69.7986 48.0857 69.7986 48.2843C69.7986 48.3384 69.8167 48.4557 69.8528 48.6362C69.8528 49.9177 69.3113 51.2623 68.2284 52.6701C67.5065 53.6447 67.1094 54.4208 67.0372 54.9983H75.9712C76.0434 54.1681 76.0795 53.5544 76.0795 53.1574C76.0795 49.4394 74.9154 46.4704 72.5871 44.2504C71.8832 43.6007 71.3147 43.2758 70.8816 43.2758H69.2572C69.1128 43.2036 68.9684 42.8426 68.824 42.1929C68.7157 41.6695 68.5804 41.3446 68.4179 41.2183C68.2013 41.868 67.5336 42.3734 66.4146 42.7343C65.819 42.9148 65.4038 43.0953 65.1692 43.2758C64.9707 43.9075 64.3841 45.1889 63.4095 47.1201C62.4529 49.0333 61.9475 50.1703 61.8934 50.5313ZM77.0542 56H65.7107C65.7829 54.7547 66.2521 53.5635 67.1184 52.4264C67.7862 51.524 68.1833 50.9735 68.3096 50.775C68.5623 50.3779 68.7157 49.8996 68.7699 49.3401C67.5967 49.8455 66.6853 50.5674 66.0355 51.5059L65.6565 52.1286C65.3858 52.5618 65.2143 52.8054 65.1421 52.8596C65.0338 52.9498 64.9165 52.9949 64.7902 52.9949C64.2307 52.9949 63.8517 52.8054 63.6531 52.4264C63.617 52.3723 63.599 52.3091 63.599 52.2369C63.4185 52.3271 63.238 52.3723 63.0575 52.3723C62.1912 52.3723 61.5054 51.8308 61 50.7479C61.1444 49.9538 61.9024 48.1218 63.2741 45.2521C63.4185 44.9814 63.5268 44.7648 63.599 44.6024C64.1404 43.3931 64.4112 42.4817 64.4112 41.868C64.4112 41.7778 64.357 41.2724 64.2487 40.3519H64.4653C65.4399 40.3519 66.3694 40.6588 67.2538 41.2724C67.7411 40.4241 68.1472 40 68.4721 40C69.0496 40.3068 69.4467 40.74 69.6633 41.2995L69.9611 42.1929C70.1416 42.1568 70.295 42.1387 70.4213 42.1387C71.8652 42.1387 73.291 43.0592 74.6988 44.9002C76.3412 47.0479 77.1624 49.9898 77.1624 53.7259C77.1624 54.5742 77.1263 55.3322 77.0542 56Z" fill="black"/>
</g>
</g>
<defs>
<clipPath id="clip0_11524_140040">
<rect width="108" height="108" fill="white"/>
</clipPath>
</defs>
</svg>
