<svg width="207" height="48" viewBox="0 0 207 48" fill="none" xmlns="http://www.w3.org/2000/svg">
    <path
        d="M62.3367 17.0785C63.4413 17.0785 64.4231 16.6691 65.2413 15.8503C66.1004 14.9907 66.5095 14.0082 66.5095 12.9029C66.5095 11.7976 66.1004 10.8151 65.2413 9.99635C64.4231 9.13667 63.4413 8.72729 62.3367 8.72729C61.1912 8.72729 60.2094 9.13667 59.3503 9.99635C58.5321 10.8151 58.123 11.7976 58.123 12.9029C58.123 14.0082 58.5321 14.9907 59.3503 15.8503C60.2094 16.6691 61.1912 17.0785 62.3367 17.0785ZM66.1004 39.1026V18.6341H58.5321V39.1026H66.1004Z"
        fill="#050505" />
    <path
        d="M83.0244 20.4762C81.7153 18.8797 79.8743 18.0609 77.5425 18.0609C74.8016 18.0609 72.5516 19.0844 70.7925 21.1312C69.0334 23.1781 68.1743 25.7571 68.1743 28.8683C68.1743 31.9796 69.0334 34.5586 70.7925 36.6054C72.5516 38.6523 74.8016 39.6757 77.5425 39.6757C79.8743 39.6757 81.7153 38.857 83.0244 37.2604V39.1026H90.5926V10.4467H83.0244V20.4762ZM76.7243 31.6111C75.4152 30.1374 75.4152 27.5993 76.7243 26.1256C77.4198 25.3887 78.2789 25.0203 79.3834 25.0203C80.488 25.0203 81.3471 25.3887 82.0016 26.1256C83.3516 27.5993 83.3516 30.1374 82.0016 31.6111C81.3471 32.348 80.488 32.7164 79.3834 32.7164C78.2789 32.7164 77.4198 32.348 76.7243 31.6111Z"
        fill="#050505" />
    <path
        d="M108.038 39.7576C113.315 39.7576 118.102 37.0558 120.597 32.7574L113.479 28.6637C112.538 30.5877 110.493 31.7339 108.038 31.7339C106.034 31.7339 104.397 31.0789 103.129 29.769C101.861 28.459 101.247 26.7805 101.247 24.7746C101.247 22.7687 101.861 21.0903 103.129 19.7803C104.397 18.4703 106.034 17.8153 108.038 17.8153C110.452 17.8153 112.538 19.0025 113.479 20.8447L120.597 16.751C118.102 12.4935 113.315 9.79166 108.038 9.79166C103.743 9.79166 100.143 11.2245 97.3199 14.0901C94.4972 16.9556 93.0653 20.5172 93.0653 24.7746C93.0653 29.0321 94.4972 32.5936 97.3199 35.4592C100.143 38.3248 103.743 39.7576 108.038 39.7576Z"
        fill="#050505" />
    <path
        d="M135.489 18.0609C133.075 18.0609 131.275 18.9206 130.007 20.64V10.4467H122.439V39.1026H130.007V28.5818C130.007 26.5759 130.989 25.3477 132.789 25.3477C134.466 25.3477 135.325 26.2484 135.325 28.0905V39.1026H142.893V27.2718C142.893 21.1722 139.948 18.0609 135.489 18.0609Z"
        fill="#050505" />
    <path
        d="M166.017 31.4474C166.221 30.5877 166.344 29.6871 166.344 28.7865C166.344 25.7162 165.321 23.1371 163.317 21.1312C161.312 19.0844 158.776 18.0609 155.667 18.0609C152.517 18.0609 149.94 19.0844 147.853 21.1722C145.808 23.26 144.785 25.839 144.785 28.9502C144.785 32.0205 145.849 34.5995 147.935 36.6464C150.062 38.6523 152.885 39.6757 156.362 39.6757C160.085 39.6757 162.99 38.5704 165.035 36.3598L160.085 32.1842C159.021 33.0439 157.876 33.4942 156.608 33.4942C154.48 33.4942 153.09 32.7983 152.435 31.4474H166.017ZM152.312 26.5759C152.926 24.9384 154.112 24.1196 155.871 24.1196C157.63 24.1196 158.735 24.9384 159.185 26.5759H152.312Z"
        fill="#050505" />
    <path
        d="M175.695 24.6518C175.695 24.0787 176.104 23.7921 176.963 23.7921C177.986 23.7921 178.763 24.3653 179.254 25.5115L185.513 23.26C184.081 19.7803 181.095 18.0609 176.636 18.0609C174.386 18.0609 172.422 18.675 170.704 19.9031C169.027 21.1312 168.167 22.8506 168.167 25.1021C168.127 29.4824 171.808 30.9152 174.549 31.5292C176.472 31.9796 178.027 32.348 178.027 33.0439C178.027 33.658 177.577 33.9445 176.636 33.9445C175.204 33.9445 174.263 33.2486 173.731 31.8567L167.145 34.8042C168.577 38.0382 171.768 39.6757 176.718 39.6757C178.845 39.6757 180.808 39.2254 182.731 38.2429C184.654 37.2604 185.922 35.2136 185.922 32.5936C185.922 24.5699 175.695 26.7805 175.695 24.6518Z"
        fill="#050505" />
    <path
        d="M196.317 24.6518C196.317 24.0787 196.726 23.7921 197.585 23.7921C198.608 23.7921 199.385 24.3653 199.876 25.5115L206.135 23.26C204.704 19.7803 201.717 18.0609 197.258 18.0609C195.008 18.0609 193.045 18.675 191.326 19.9031C189.649 21.1312 188.79 22.8506 188.79 25.1021C188.749 29.4824 192.431 30.9152 195.172 31.5292C197.095 31.9796 198.649 32.348 198.649 33.0439C198.649 33.658 198.199 33.9445 197.258 33.9445C195.826 33.9445 194.885 33.2486 194.354 31.8567L187.767 34.8042C189.199 38.0382 192.39 39.6757 197.34 39.6757C199.467 39.6757 201.431 39.2254 203.354 38.2429C205.276 37.2604 206.545 35.2136 206.545 32.5936C206.545 24.5699 196.317 26.7805 196.317 24.6518Z"
        fill="#050505" />
    <path fill-rule="evenodd" clip-rule="evenodd"
        d="M1.93939 0C0.868296 0 0 0.868295 0 1.93939V46.0606C0 47.1317 0.868295 48 1.93939 48H46.0606C47.1317 48 48 47.1317 48 46.0606V1.93939C48 0.868296 47.1317 0 46.0606 0H1.93939ZM5.81836 6.78786C5.81836 5.98454 6.46958 5.33331 7.2729 5.33331H12.8487V7.47603H8.44592C8.17815 7.47603 7.96108 7.6931 7.96108 7.96088V12.3636H5.81836V6.78786ZM41.6969 5.33331H36.1211V7.47603H40.5238C40.7916 7.47603 41.0087 7.6931 41.0087 7.96088V12.3636H43.1514V6.78786C43.1514 5.98454 42.5002 5.33331 41.6969 5.33331ZM41.0087 35.6364H43.1514V41.2121C43.1514 42.0154 42.5002 42.6667 41.6969 42.6667H36.1211V40.4926H40.5238C40.7916 40.4926 41.0087 40.2755 41.0087 40.0078V35.6364ZM7.96108 35.6364H5.81836V41.2121C5.81836 42.0154 6.46958 42.6667 7.2729 42.6667H12.8487V40.4926H8.44592C8.17815 40.4926 7.96108 40.2755 7.96108 40.0078V35.6364ZM28.1963 16.4565C28.1963 17.9874 27.4284 19.333 26.2688 20.1044C26.9735 20.1704 27.525 20.7636 27.525 21.4855C27.525 22.0827 27.1477 22.5917 26.6186 22.7872L26.6183 22.8557V22.8564C26.6152 23.7461 26.6085 25.6788 27.2649 27.2465C27.8187 28.5692 28.711 29.5062 29.2033 29.8093V30.6245C29.2033 31.6549 28.6838 32.5641 27.8923 33.1042H29.546C30.0983 33.1042 30.546 33.5519 30.546 34.1042V34.8788C30.546 35.4311 30.0983 35.8788 29.546 35.8788H18.4551C17.9028 35.8788 17.4551 35.4311 17.4551 34.8788V34.1042C17.4551 33.5519 17.9028 33.1042 18.4551 33.1042H20.1088C19.3173 32.5641 18.7977 31.6549 18.7977 30.6245V29.8093C19.29 29.5062 20.1823 28.5692 20.7362 27.2465C21.3927 25.6784 21.3859 23.7452 21.3827 22.8557L21.3823 22.7121C20.9431 22.4792 20.6439 22.0173 20.6439 21.4855C20.6439 20.8113 21.1249 20.2494 21.7624 20.1243C20.586 19.3562 19.8047 18.0007 19.8047 16.4565C19.8047 14.0622 21.6833 12.1212 24.0005 12.1212C26.3178 12.1212 28.1963 14.0622 28.1963 16.4565Z"
        fill="#050505" />
</svg>
