<svg width="99" height="99" viewBox="0 0 99 99" fill="none" xmlns="http://www.w3.org/2000/svg">
<path d="M0 4C0 1.79086 1.79086 0 4 0H95C97.2091 0 99 1.79086 99 4V95C99 97.2091 97.2091 99 95 99H4C1.79086 99 0 97.2091 0 95V4Z" fill="#050505"/>
<path fill-rule="evenodd" clip-rule="evenodd" d="M15 11C13.3431 11 12 12.3431 12 14V25.5H16.4194V16.4194C16.4194 15.8671 16.8671 15.4194 17.4194 15.4194H26.5V11H15Z" fill="white"/>
<path fill-rule="evenodd" clip-rule="evenodd" d="M86 11H74.5V15.4194H83.5806C84.1329 15.4194 84.5806 15.8671 84.5806 16.4194V25.5H89V14C89 12.3431 87.6569 11 86 11Z" fill="white"/>
<path fill-rule="evenodd" clip-rule="evenodd" d="M89 73.5H84.5806V82.516C84.5806 83.0683 84.1329 83.516 83.5806 83.516H74.5V88H86C87.6569 88 89 86.6569 89 85V73.5Z" fill="white"/>
<path fill-rule="evenodd" clip-rule="evenodd" d="M16.4194 73.5H12V85C12 86.6569 13.3431 88 15 88H26.5V83.516H17.4194C16.8671 83.516 16.4194 83.0683 16.4194 82.516V73.5Z" fill="white"/>
<path fill-rule="evenodd" clip-rule="evenodd" d="M54.1784 41.4652C56.57 39.8742 58.1538 37.099 58.1538 33.9416C58.1538 29.0033 54.2794 25 49.5 25C44.7206 25 40.8462 29.0033 40.8462 33.9416C40.8462 37.1263 42.4575 39.9222 44.8838 41.5062C43.5689 41.7644 42.5769 42.9233 42.5769 44.3139C42.5769 45.4107 43.194 46.3634 44.1 46.8436C44.1001 46.9345 44.1004 47.0331 44.1008 47.1389L44.1008 47.1398C44.1073 48.9745 44.1214 52.9617 42.7673 56.1958C41.625 58.924 39.7846 60.8565 38.7692 61.4818V66.3504C38.7692 67.084 39.0326 67.7561 39.4699 68.2774H37C36.4477 68.2774 36 68.7251 36 69.2774V73C36 73.5523 36.4477 74 37 74H62C62.5523 74 63 73.5523 63 73V69.2774C63 68.7251 62.5523 68.2774 62 68.2774H59.5301C59.9674 67.7561 60.2308 67.084 60.2308 66.3504V61.4818C59.2154 60.8565 57.375 58.924 56.2327 56.1958C54.8786 52.9617 54.8927 48.9745 54.8992 47.1398C54.8994 47.0912 54.8995 47.0441 54.8997 46.9986C55.9911 46.5953 56.7692 45.5455 56.7692 44.3139C56.7692 42.8248 55.6318 41.6015 54.1784 41.4652Z" fill="white"/>
</svg>
