<svg width="118" height="109" viewBox="0 0 118 109" fill="none" xmlns="http://www.w3.org/2000/svg">
<circle cx="59" cy="54" r="54" fill="#AEAEB2" fill-opacity="0.1"/>
<path fill-rule="evenodd" clip-rule="evenodd" d="M115.979 111.581C99.8763 113.735 80.2193 115 59.0003 115C37.781 115 18.1237 113.735 2.02111 111.581C0.752523 109.904 0 107.816 0 105.552V93C0 87.4772 4.47715 83 10 83H108C113.523 83 118 87.4772 118 93V105.552C118 107.816 117.247 109.904 115.979 111.581Z" fill="white"/>
<path d="M25 55.5L25.2711 54.8007L24.8768 54.6478L24.5419 54.9062L25 55.5ZM49.5 65L49.2289 65.6993L49.6236 65.8523L49.9586 65.5935L49.5 65ZM112.5 5.5L105.437 10.511L113.308 14.1225L112.5 5.5ZM71.5 48V47.25H71.244L71.0414 47.4065L71.5 48ZM93 48V48.75H93.4811L93.6817 48.3128L93 48ZM7.9581 69.5938L25.4581 56.0938L24.5419 54.9062L7.0419 68.4062L7.9581 69.5938ZM24.7289 56.1993L49.2289 65.6993L49.7711 64.3007L25.2711 54.8007L24.7289 56.1993ZM49.9586 65.5935L71.9586 48.5935L71.0414 47.4065L49.0414 64.4065L49.9586 65.5935ZM71.5 48.75H93V47.25H71.5V48.75ZM93.6817 48.3128L110.367 11.9478L109.003 11.3223L92.3183 47.6872L93.6817 48.3128Z" fill="#34C759"/>
<path fill-rule="evenodd" clip-rule="evenodd" d="M12 80.6807H23.8574V73.5557H26.2324V68.8057H28.7535L33.0087 49.6572H29.7949V42.6807H32.9002L30.6849 35.2592C30.3649 34.1924 30.5626 33.0867 31.2275 32.1931C31.8923 31.2995 32.9124 30.8057 34.0261 30.8057H35.8954C35.743 30.3604 35.6584 29.9517 35.6584 29.5068C35.6584 27.5834 37.2232 26 39.1466 26C41.0701 26 42.6348 27.5926 42.6348 29.516C42.6348 29.9609 42.5502 30.3604 42.3977 30.8057H44.267C45.3807 30.8057 46.4008 31.2811 47.0655 32.1746C47.7303 33.0681 47.928 34.211 47.608 35.2778L45.3927 42.6807H48.6465V49.6572H45.2844L49.5396 68.8057H52.209V73.5557H54.584V80.6807H59.4824V73.5557H61.8574V68.8057H64.4162L68.5724 53.2197H65.4199V48.4697H63.0449V36.7432H70.0215V41.4932H71.3574V36.7432H78.334V41.4932H79.6699V36.7432H86.6465V48.4697H84.2715V53.2197H80.9705L85.1268 68.8057H87.834V73.5557H90.209V80.6807H105.918C105.489 81.4344 105.042 82.1768 104.578 82.9072H13.3398C12.8759 82.1768 12.4292 81.4344 12 80.6807ZM39.1465 28.208C39.8422 28.208 40.4082 28.774 40.4082 29.4697C40.4082 30.1653 39.8422 30.7314 39.1465 30.7314C38.4508 30.7314 37.8848 30.1655 37.8848 29.4697C37.8848 28.774 38.4508 28.208 39.1465 28.208ZM45.2792 33.5222C45.5196 33.8454 45.5912 34.2335 45.4754 34.6193L43.0683 42.6807H35.2249L32.8177 34.6379C32.7019 34.2521 32.7735 33.8268 33.0139 33.5037C33.2544 33.1804 33.6233 33.0322 34.0261 33.0322H44.267C44.6698 33.0322 45.0387 33.1989 45.2792 33.5222ZM32.0215 44.9072H46.4199V47.4307H32.0215V44.9072ZM35.2895 49.6572H43.0035L47.2587 68.8057H31.0342L35.2895 49.6572ZM28.459 71.0322H49.9824V73.5557H28.459V71.0322ZM26.084 75.7822H52.3574V80.6807H26.084V75.7822ZM84.4199 38.9697V46.2432H82.0215V48.4697H82.0449V50.9932H67.6465V46.2432H65.2715V38.9697H67.7949V43.7197H73.584V38.9697H76.1074V43.7197H81.8965V38.9697H84.4199ZM70.8768 53.2197H78.6662L82.8224 68.8057H66.7205L70.8768 53.2197ZM64.084 71.0322H85.6074V73.5557H64.084V71.0322ZM61.709 75.7822H87.9824V80.6807H61.709V75.7822Z" fill="black"/>
</svg>
