<svg width="40" height="40" viewBox="0 0 40 40" fill="none" xmlns="http://www.w3.org/2000/svg">
    <path fill-rule="evenodd" clip-rule="evenodd" d="M9.2635 31.9512C9.72508 31.9512 10.0993 32.3243 10.0993 32.7845V35.528C10.0993 36.0346 10.3011 36.5205 10.6604 36.8787C11.0196 37.2369 11.5069 37.4381 12.015 37.4381H28.5239C29.032 37.4381 29.5192 37.2369 29.8785 36.8787C30.2378 36.5205 30.4396 36.0346 30.4396 35.528V32.7845C30.4396 32.3243 30.8138 31.9512 31.2754 31.9512C31.7369 31.9512 32.1111 32.3243 32.1111 32.7845V35.528C32.1111 36.4766 31.7332 37.3864 31.0604 38.0572C30.3877 38.728 29.4753 39.1048 28.5239 39.1048H12.015C11.0636 39.1048 10.1512 38.728 9.47841 38.0572C8.80568 37.3864 8.42773 36.4766 8.42773 35.528V32.7845C8.42773 32.3243 8.80192 31.9512 9.2635 31.9512Z" fill="#34C759"/>
    <path fill-rule="evenodd" clip-rule="evenodd" d="M20.2699 32.2461C20.0482 32.2461 19.8357 32.1583 19.6789 32.002L12.8002 25.1433C12.4738 24.8179 12.4738 24.2902 12.8002 23.9648C13.1266 23.6393 13.6558 23.6393 13.9822 23.9648L20.2699 30.2342L26.5576 23.9648C26.884 23.6393 27.4132 23.6393 27.7396 23.9648C28.066 24.2902 28.066 24.8179 27.7396 25.1433L20.8609 32.002C20.7041 32.1583 20.4916 32.2461 20.2699 32.2461Z" fill="#6F6F6F"/>
    <path fill-rule="evenodd" clip-rule="evenodd" d="M20.2697 32.2461C19.8081 32.2461 19.4339 31.873 19.4339 31.4128L19.4339 14.9519C19.4339 14.4916 19.8081 14.1185 20.2697 14.1185C20.7313 14.1185 21.1055 14.4916 21.1055 14.9519L21.1055 31.4128C21.1055 31.873 20.7313 32.2461 20.2697 32.2461Z" fill="#6F6F6F"/>
    <path fill-rule="evenodd" clip-rule="evenodd" d="M5.76172 1.23438C4.65715 1.23438 3.76172 2.12981 3.76172 3.23438V15.6953C3.76172 16.7998 4.65715 17.6953 5.76172 17.6953H34.7795C35.8841 17.6953 36.7795 16.7998 36.7795 15.6953V3.23438C36.7795 2.12981 35.8841 1.23438 34.7795 1.23438H5.76172ZM32.6715 5.2763H30.6134V9.17205L25.4516 4.89221V12.9581H27.4987V9.06231L32.6715 13.3421V5.2763ZM20.255 10.2585V8.65627H24.2391C24.2831 9.28544 24.2244 9.87803 24.063 10.434C23.9089 10.9901 23.6595 11.4802 23.3146 11.9046C22.9697 12.3216 22.5368 12.6508 22.0159 12.8922C21.5023 13.1263 20.908 13.2434 20.2329 13.2434C19.3965 13.2434 18.6518 13.0714 17.9987 12.7276C17.3531 12.3837 16.8431 11.9046 16.4689 11.29C16.102 10.6682 15.9186 9.94388 15.9186 9.11718C15.9186 8.49532 16.0287 7.93565 16.2488 7.43816C16.4689 6.94068 16.7771 6.51635 17.1733 6.16519C17.5768 5.81402 18.0464 5.54699 18.5821 5.36409C19.1177 5.17388 19.6973 5.07877 20.321 5.07877C20.886 5.07877 21.3886 5.1629 21.8288 5.33117C22.269 5.49212 22.6579 5.71526 22.9954 6.00058C23.3329 6.27859 23.6264 6.59683 23.8759 6.95531L21.9168 7.88809C21.7628 7.61009 21.561 7.37598 21.3115 7.18576C21.0621 6.99555 20.7319 6.90044 20.321 6.90044C19.9248 6.90044 19.5616 6.98823 19.2314 7.16382C18.9086 7.33208 18.6481 7.58082 18.45 7.91004C18.2592 8.23926 18.1638 8.64164 18.1638 9.11718C18.1638 9.82682 18.3619 10.3902 18.7581 10.8072C19.1617 11.2169 19.6826 11.4217 20.321 11.4217C20.8273 11.4217 21.2235 11.312 21.5096 11.0925C21.8031 10.873 22.0122 10.595 22.137 10.2585H20.255ZM9.26519 5.2763H12.1157C13.1723 5.2763 13.9537 5.50309 14.46 5.95668C14.9736 6.41027 15.2304 7.03944 15.2304 7.8442C15.2304 8.64164 14.9736 9.27081 14.46 9.73172C13.9537 10.1926 13.1723 10.4231 12.1157 10.4231H11.4003V12.9581H9.26519V5.2763ZM12.1157 6.99921H11.4003V8.70017H12.1157C12.4606 8.70017 12.721 8.62701 12.8971 8.48069C13.0806 8.32705 13.1723 8.11489 13.1723 7.8442C13.1723 7.28087 12.8201 6.99921 12.1157 6.99921Z" fill="#34C759"/>
</svg>