<svg width="108" height="108" viewBox="0 0 108 108" fill="none" xmlns="http://www.w3.org/2000/svg">
    <path
        d="M32.1111 79.8889V85.4445C32.1111 86.9179 32.6964 88.331 33.7383 89.3728C34.7801 90.4147 36.1932 91 37.6666 91H71C72.4734 91 73.8865 90.4147 74.9283 89.3728C75.9702 88.331 76.5555 86.9179 76.5555 85.4445V79.8889"
        stroke="#34C759" stroke-width="2" stroke-linecap="round" stroke-linejoin="round" />
    <path d="M68.2222 63.2222L54.3333 77.1111L40.4444 63.2222" stroke="#6F6F6F"
        stroke-linecap="round" stroke-linejoin="round" />
    <path d="M54.3333 77.1111L54.3333 43.7778" stroke="#6F6F6F" stroke-linecap="round"
        stroke-linejoin="round" />
    <path fill-rule="evenodd" clip-rule="evenodd"
        d="M23 16C21.8954 16 21 16.8954 21 18V47.3333C21 48.4379 21.8954 49.3333 23 49.3333H85.6667C86.7712 49.3333 87.6667 48.4379 87.6667 47.3333V18C87.6667 16.8954 86.7712 16 85.6667 16H23ZM79.3718 24.1851H75.2162V32.074L64.794 23.4073V39.7406H68.9273V31.8517L79.3718 40.5184V24.1851ZM54.3013 34.274V31.0295H62.3457C62.4346 32.3036 62.3161 33.5036 61.9902 34.6295C61.6791 35.7554 61.1754 36.748 60.4791 37.6073C59.7828 38.4517 58.9087 39.1184 57.8568 39.6073C56.8198 40.0814 55.6198 40.3184 54.2568 40.3184C52.568 40.3184 51.0643 39.9703 49.7457 39.274C48.442 38.5777 47.4124 37.6073 46.6568 36.3629C45.9161 35.1036 45.5457 33.6369 45.5457 31.9628C45.5457 30.7036 45.768 29.5703 46.2124 28.5628C46.6568 27.5554 47.2791 26.6962 48.0791 25.9851C48.8939 25.274 49.842 24.7332 50.9235 24.3628C52.005 23.9777 53.1754 23.7851 54.4346 23.7851C55.5754 23.7851 56.5902 23.9554 57.4791 24.2962C58.368 24.6221 59.1531 25.074 59.8346 25.6517C60.5161 26.2147 61.1087 26.8591 61.6124 27.5851L57.6568 29.474C57.3457 28.911 56.9383 28.4369 56.4346 28.0517C55.9309 27.6666 55.2643 27.474 54.4346 27.474C53.6346 27.474 52.9013 27.6517 52.2346 28.0073C51.5828 28.348 51.0568 28.8517 50.6568 29.5184C50.2717 30.1851 50.0791 30.9999 50.0791 31.9628C50.0791 33.3999 50.4791 34.5406 51.2791 35.3851C52.0939 36.2147 53.1457 36.6295 54.4346 36.6295C55.4568 36.6295 56.2568 36.4073 56.8346 35.9628C57.4272 35.5184 57.8494 34.9554 58.1013 34.274H54.3013ZM32.1117 24.1851H37.8673C40.0006 24.1851 41.5784 24.6443 42.6006 25.5628C43.6376 26.4814 44.1562 27.7554 44.1562 29.3851C44.1562 30.9999 43.6376 32.274 42.6006 33.2073C41.5784 34.1406 40.0006 34.6073 37.8673 34.6073H36.4228V39.7406H32.1117V24.1851ZM37.8673 27.674H36.4228V31.1184H37.8673C38.5636 31.1184 39.0895 30.9703 39.445 30.674C39.8154 30.3628 40.0006 29.9332 40.0006 29.3851C40.0006 28.2443 39.2895 27.674 37.8673 27.674Z"
        fill="#34C759" />
</svg>