<svg width="84" height="84" viewBox="0 0 84 84" fill="none" xmlns="http://www.w3.org/2000/svg">
<g clip-path="url(#clip0_25357_238410)">
<rect width="84" height="84" rx="4"/>
<path d="M21.178 52.7229L2.13659 98.1674C1.8605 98.8263 2.34446 99.5538 3.0589 99.5538H81.6795C82.4042 99.5538 82.8883 98.807 82.5924 98.1455L62.2644 52.701C62.1034 52.3411 61.7459 52.1094 61.3516 52.1094H22.1003C21.6973 52.1094 21.3337 52.3513 21.178 52.7229Z" stroke="#34C759"/>
<path d="M25.5679 55.8347L10.6955 91.168C10.4181 91.8272 10.9021 92.556 11.6172 92.556H73.1212C73.8466 92.556 74.3307 91.8078 74.0333 91.1461L58.1561 55.8128C57.9947 55.4537 57.6377 55.2227 57.244 55.2227H26.4896C26.0872 55.2227 25.724 55.4638 25.5679 55.8347Z" stroke="#6F6F6F"/>
<path d="M23.3334 47.4453H18.0545C17.6421 47.4453 17.272 47.6985 17.1225 48.0829L15.5557 52.112" stroke="#34C759" stroke-linecap="round"/>
<path d="M59.1109 47.4453H64.3898C64.8022 47.4453 65.1723 47.6985 65.3218 48.0829L66.8887 52.112" stroke="#34C759" stroke-linecap="round"/>
<path d="M47.735 20.9422C48.334 21.3375 48.334 22.2163 47.735 22.6116L42.3841 26.1423C41.7192 26.581 40.8333 26.1042 40.8333 25.3076L40.8333 18.2462C40.8333 17.4497 41.7192 16.9728 42.3841 17.4115L47.735 20.9422Z" fill="#34C759"/>
<path d="M42.0555 32.668L41.2222 34.2235H45.1111L44.2777 32.668" stroke="#6F6F6F" stroke-linecap="round" stroke-linejoin="round"/>
<rect x="26.1665" y="13.7227" width="34" height="16.1111" rx="2.5" stroke="#6F6F6F" stroke-linecap="round"/>
<path d="M38.8887 12.4427V10.7457C38.8887 10.5336 39.0637 10.1094 39.7637 10.1094C40.4637 10.1094 40.6387 10.5336 40.6387 10.7457V11.5942H46.472V10.7457C46.472 10.5336 46.7637 10.1094 47.347 10.1094C47.9303 10.1094 48.222 10.5336 48.222 10.7457V12.4427" stroke="#6F6F6F" stroke-linecap="round"/>
<path d="M38.8887 31.1115V33.3742C38.8887 33.657 39.0637 34.2227 39.7637 34.2227C40.4637 34.2227 40.6387 33.657 40.6387 33.3742V32.2429H46.472V33.3742C46.472 33.657 46.7637 34.2227 47.347 34.2227C47.9303 34.2227 48.222 33.657 48.222 33.3742V31.1115" stroke="#6F6F6F" stroke-linecap="round"/>
<path d="M29.5557 14V29.5556" stroke="#6F6F6F" stroke-linecap="round"/>
<path d="M28 20.2227V24.8893" stroke="#6F6F6F" stroke-linecap="round"/>
<circle cx="27.6111" cy="19.0569" r="0.388889" fill="#050505"/>
<rect x="57.7501" y="19.6398" width="0.388889" height="4.27778" stroke="#6F6F6F" stroke-width="0.388889" stroke-linecap="round"/>
<rect x="41.7222" y="34.7227" width="2.88889" height="3.66667" rx="0.5" stroke="#6F6F6F" stroke-linecap="round" stroke-linejoin="round"/>
<path d="M42 39.668V48.2235" stroke="#6F6F6F" stroke-linecap="round"/>
<path d="M44.3335 39.668V48.2235" stroke="#6F6F6F" stroke-linecap="round"/>
<line x1="23.0557" y1="61.7227" x2="57.8334" y2="61.7227" stroke="#6F6F6F" stroke-linecap="round"/>
<line x1="19.9443" y1="70.2773" x2="50.0554" y2="70.2773" stroke="#6F6F6F" stroke-linecap="round"/>
<line x1="16.0557" y1="78.832" x2="40.7223" y2="78.832" stroke="#6F6F6F" stroke-linecap="round"/>
<line x1="35.1669" y1="56.1886" x2="26.2365" y2="88.7581" stroke="#6F6F6F" stroke-linecap="round"/>
<line x1="44.0557" y1="55.7227" x2="44.0557" y2="74.9449" stroke="#6F6F6F" stroke-linecap="round"/>
<line x1="52.2079" y1="55.907" x2="55.7028" y2="67.3903" stroke="#6F6F6F" stroke-linecap="round"/>
</g>
<defs>
<clipPath id="clip0_25357_238410">
<rect width="84" height="84" fill="white"/>
</clipPath>
</defs>
</svg>
