<svg width="108" height="108" viewBox="0 0 108 108" fill="none" xmlns="http://www.w3.org/2000/svg">
    <circle cx="54" cy="54" r="54" fill="#AEAEB2" fill-opacity="0.1"/>
    <path fill-rule="evenodd" clip-rule="evenodd" d="M21.7617 97.3242V49.4922C21.7617 43.9693 26.2389 39.4922 31.7617 39.4922H76.2393C81.7622 39.4922 86.2393 43.9693 86.2393 49.4922V97.3242C77.242 104.03 66.0848 108 54.0005 108C41.9163 108 30.7591 104.03 21.7617 97.3242Z" fill="white"/>
    <path fill-rule="evenodd" clip-rule="evenodd" d="M21.0117 96.755V49.4922C21.0117 43.5551 25.8247 38.7422 31.7617 38.7422H76.2393C82.1764 38.7422 86.9893 43.5551 86.9893 49.4922V96.755C86.496 97.1362 85.996 97.509 85.4893 97.8733V49.4922C85.4893 44.3836 81.348 40.2422 76.2393 40.2422H31.7617C26.6531 40.2422 22.5117 44.3836 22.5117 49.4922V97.8733C22.0051 97.509 21.505 97.1362 21.0117 96.755Z" fill="black"/>
    <path d="M46 77.303L53.1163 84L63 71" stroke="#34C759"/>
    </svg>
    
