<svg width="109" height="108" viewBox="0 0 109 108" fill="none" xmlns="http://www.w3.org/2000/svg">
<circle cx="54.5" cy="54" r="54" fill="#AEAEB2" fill-opacity="0.1"/>
<path fill-rule="evenodd" clip-rule="evenodd" d="M22.2612 97.3242V49.4922C22.2612 43.9693 26.7384 39.4922 32.2612 39.4922H76.7388C82.2617 39.4922 86.7388 43.9693 86.7388 49.4922V97.3242C77.7415 104.03 66.5843 108 54.5 108C42.4158 108 31.2586 104.03 22.2612 97.3242Z" fill="white"/>
<circle cx="54.5" cy="54" r="54" fill="#AEAEB2" fill-opacity="0.1"/>
<path fill-rule="evenodd" clip-rule="evenodd" d="M22.2612 97.3242V49.4922C22.2612 43.9693 26.7384 39.4922 32.2612 39.4922H76.7388C82.2617 39.4922 86.7388 43.9693 86.7388 49.4922V97.3242C77.7415 104.03 66.5843 108 54.5 108C42.4158 108 31.2586 104.03 22.2612 97.3242Z" fill="white"/>
<path fill-rule="evenodd" clip-rule="evenodd" d="M21.5112 96.755V49.4922C21.5112 43.5551 26.3242 38.7422 32.2612 38.7422H76.7388C82.6759 38.7422 87.4888 43.5551 87.4888 49.4922V96.755C86.9956 97.1362 86.4955 97.509 85.9888 97.8733V49.4922C85.9888 44.3836 81.8475 40.2422 76.7388 40.2422H32.2612C27.1526 40.2422 23.0112 44.3836 23.0112 49.4922V97.8733C22.5046 97.509 22.0045 97.1362 21.5112 96.755Z" fill="black"/>
<path fill-rule="evenodd" clip-rule="evenodd" d="M21.5112 96.755V49.4922C21.5112 43.5551 26.3242 38.7422 32.2612 38.7422H76.7388C82.6759 38.7422 87.4888 43.5551 87.4888 49.4922V96.755C86.9956 97.1362 86.4955 97.509 85.9888 97.8733V49.4922C85.9888 44.3836 81.8475 40.2422 76.7388 40.2422H32.2612C27.1526 40.2422 23.0112 44.3836 23.0112 49.4922V97.8733C22.5046 97.509 22.0045 97.1362 21.5112 96.755Z" fill="black"/>
<path d="M63.1667 75.6648L71.8717 81.4682C71.9972 81.5517 72.143 81.5996 72.2936 81.6068C72.4442 81.614 72.5939 81.5802 72.7267 81.5091C72.8596 81.4379 72.9707 81.3321 73.0482 81.2028C73.1257 81.0735 73.1667 80.9256 73.1667 80.7748V67.1148C73.1668 66.9682 73.1281 66.8242 73.0547 66.6972C72.9813 66.5703 72.8757 66.465 72.7485 66.392C72.6214 66.319 72.4772 66.2808 72.3306 66.2813C72.184 66.2818 72.0401 66.3209 71.9134 66.3948L63.1667 71.4982" stroke="#34C759" stroke-width="1.5" stroke-linecap="round" stroke-linejoin="round"/>
<path d="M59.8333 64H43.1666C41.3256 64 39.8333 65.4924 39.8333 67.3333V80.6667C39.8333 82.5076 41.3256 84 43.1666 84H59.8333C61.6742 84 63.1666 82.5076 63.1666 80.6667V67.3333C63.1666 65.4924 61.6742 64 59.8333 64Z" stroke="black" stroke-width="1.5" stroke-linecap="round" stroke-linejoin="round"/>
</svg>
