<svg width="109" height="108" viewBox="0 0 109 108" fill="none" xmlns="http://www.w3.org/2000/svg">
<circle cx="54.5" cy="54" r="54" fill="#AEAEB2" fill-opacity="0.1"/>
<path fill-rule="evenodd" clip-rule="evenodd" d="M22.2578 97.3242V49.4922C22.2578 43.9693 26.735 39.4922 32.2578 39.4922H76.7354C82.2583 39.4922 86.7354 43.9693 86.7354 49.4922V97.3242C77.7381 104.03 66.5809 108 54.4966 108C42.4123 108 31.2552 104.03 22.2578 97.3242Z" fill="white"/>
<path fill-rule="evenodd" clip-rule="evenodd" d="M21.5078 96.755V49.4922C21.5078 43.5551 26.3208 38.7422 32.2578 38.7422H76.7354C82.6725 38.7422 87.4854 43.5551 87.4854 49.4922V96.755C86.9921 97.1362 86.4921 97.509 85.9854 97.8733V49.4922C85.9854 44.3836 81.8441 40.2422 76.7354 40.2422H32.2578C27.1492 40.2422 23.0078 44.3836 23.0078 49.4922V97.8733C22.5012 97.509 22.0011 97.1362 21.5078 96.755Z" fill="black"/>
<path fill-rule="evenodd" clip-rule="evenodd" d="M55.9746 68.395L64.9427 59.4486C65.2034 59.1886 65.6255 59.1891 65.8855 59.4497C66.1456 59.7104 66.1451 60.1325 65.8844 60.3926L56.9174 69.3378L62.1143 74.5347C62.635 75.0554 62.635 75.8996 62.1143 76.4203L53.629 84.9056L40.4297 71.7063L48.915 63.221C49.4357 62.7003 50.2799 62.7003 50.8006 63.221L55.9746 68.395ZM49.8578 64.1638L42.3153 71.7063L46.0865 75.4775L49.8578 71.7063L50.8006 72.6491L47.0294 76.4203L48.915 78.3059L52.6862 74.5347L53.629 75.4775L49.8578 79.2487L53.629 83.02L61.1715 75.4775L49.8578 64.1638Z" fill="black"/>
<path fill-rule="evenodd" clip-rule="evenodd" d="M66.8307 81.9987C66.8307 82.3669 66.5323 82.6654 66.1641 82.6654H60.8307C60.4625 82.6654 60.1641 82.3669 60.1641 81.9987C60.1641 81.6305 60.4625 81.332 60.8307 81.332H66.1641C66.5323 81.332 66.8307 81.6305 66.8307 81.9987Z" fill="#34C759"/>
<path fill-rule="evenodd" clip-rule="evenodd" d="M65.5026 84.6667C65.5026 85.0349 65.2041 85.3333 64.8359 85.3333H59.5026C59.1344 85.3333 58.8359 85.0349 58.8359 84.6667C58.8359 84.2985 59.1344 84 59.5026 84H64.8359C65.2041 84 65.5026 84.2985 65.5026 84.6667Z" fill="black"/>
</svg>
