<svg width="109" height="108" viewBox="0 0 109 108" fill="none" xmlns="http://www.w3.org/2000/svg">
<g clip-path="url(#clip0_27301_139144)">
<circle cx="54.5" cy="54" r="54" fill="#AEAEB2" fill-opacity="0.1"/>
<mask id="mask0_27301_139144" style="mask-type:alpha" maskUnits="userSpaceOnUse" x="0" y="0" width="109" height="108">
<circle cx="54.5" cy="54" r="54" fill="#AEAEB2"/>
</mask>
<g mask="url(#mask0_27301_139144)">
<path d="M29.5 38.3594V66.9965H79.615V38.3594H29.5Z" stroke="black"/>
<path d="M42.0171 38.3609V34.7812M42.0171 34.7812H38.4375M42.0171 34.7812H45.5968" stroke="black"/>
<path d="M67.0836 38.3695V33M67.0836 33H63.5039M67.0836 33H70.6632" stroke="black"/>
<rect x="33" y="42.5" width="19" height="15" stroke="black"/>
<path d="M36.0227 54V53.28L38.5427 51.06C38.7667 50.868 39.0067 50.66 39.2627 50.436C39.5267 50.204 39.7747 49.956 40.0067 49.692C40.2387 49.428 40.4307 49.148 40.5827 48.852C40.7347 48.556 40.8107 48.244 40.8107 47.916C40.8107 47.356 40.6427 46.932 40.3067 46.644C39.9707 46.348 39.5307 46.2 38.9867 46.2C38.5787 46.2 38.2107 46.284 37.8827 46.452C37.5547 46.612 37.3307 46.864 37.2107 47.208H36.2747C36.3707 46.8 36.5547 46.468 36.8267 46.212C37.0987 45.948 37.4267 45.752 37.8107 45.624C38.1947 45.488 38.6027 45.42 39.0347 45.42C39.5547 45.42 40.0147 45.516 40.4147 45.708C40.8147 45.892 41.1267 46.164 41.3507 46.524C41.5747 46.876 41.6867 47.316 41.6867 47.844C41.6867 48.356 41.5867 48.808 41.3867 49.2C41.1867 49.592 40.9267 49.948 40.6067 50.268C40.2867 50.588 39.9467 50.908 39.5867 51.228L37.2827 53.22H41.7827V54H36.0227ZM42.9719 54V53.28L45.4919 51.06C45.7159 50.868 45.9559 50.66 46.2119 50.436C46.4759 50.204 46.7239 49.956 46.9559 49.692C47.1879 49.428 47.3799 49.148 47.5319 48.852C47.6839 48.556 47.7599 48.244 47.7599 47.916C47.7599 47.356 47.5919 46.932 47.2559 46.644C46.9199 46.348 46.4799 46.2 45.9359 46.2C45.5279 46.2 45.1599 46.284 44.8319 46.452C44.5039 46.612 44.2799 46.864 44.1599 47.208H43.2239C43.3199 46.8 43.5039 46.468 43.7759 46.212C44.0479 45.948 44.3759 45.752 44.7599 45.624C45.1439 45.488 45.5519 45.42 45.9839 45.42C46.5039 45.42 46.9639 45.516 47.3639 45.708C47.7639 45.892 48.0759 46.164 48.2999 46.524C48.5239 46.876 48.6359 47.316 48.6359 47.844C48.6359 48.356 48.5359 48.808 48.3359 49.2C48.1359 49.592 47.8759 49.948 47.5559 50.268C47.2359 50.588 46.8959 50.908 46.5359 51.228L44.2319 53.22H48.7319V54H42.9719Z" fill="black"/>
<path d="M62.7334 54V47.052H61.0054V46.464C61.3494 46.448 61.6454 46.42 61.8934 46.38C62.1494 46.332 62.3654 46.244 62.5414 46.116C62.7254 45.98 62.8734 45.78 62.9854 45.516H63.5974V54H62.7334ZM68.5964 54.096C68.2124 54.096 67.8404 54.056 67.4804 53.976C67.1284 53.888 66.8084 53.752 66.5204 53.568C66.2404 53.376 66.0164 53.124 65.8484 52.812C65.6804 52.5 65.5964 52.12 65.5964 51.672C65.5964 51.352 65.6564 51.052 65.7764 50.772C65.9044 50.492 66.0844 50.252 66.3164 50.052C66.5564 49.852 66.8364 49.708 67.1564 49.62C66.8284 49.492 66.5724 49.32 66.3884 49.104C66.2044 48.888 66.0724 48.652 65.9924 48.396C65.9204 48.132 65.8844 47.88 65.8844 47.64C65.8844 47.248 65.9604 46.912 66.1124 46.632C66.2644 46.352 66.4684 46.124 66.7244 45.948C66.9884 45.764 67.2804 45.632 67.6004 45.552C67.9284 45.464 68.2644 45.42 68.6084 45.42C68.9524 45.42 69.2844 45.464 69.6044 45.552C69.9324 45.632 70.2244 45.764 70.4804 45.948C70.7444 46.132 70.9524 46.364 71.1044 46.644C71.2564 46.916 71.3324 47.248 71.3324 47.64C71.3324 47.888 71.2924 48.136 71.2124 48.384C71.1324 48.632 70.9964 48.864 70.8044 49.08C70.6204 49.288 70.3604 49.46 70.0244 49.596C70.3684 49.684 70.6564 49.832 70.8884 50.04C71.1284 50.24 71.3084 50.484 71.4284 50.772C71.5484 51.052 71.6084 51.352 71.6084 51.672C71.6084 52.12 71.5244 52.5 71.3564 52.812C71.1884 53.116 70.9604 53.364 70.6724 53.556C70.3844 53.748 70.0604 53.888 69.7004 53.976C69.3484 54.056 68.9804 54.096 68.5964 54.096ZM68.6084 53.316C68.8324 53.316 69.0644 53.292 69.3044 53.244C69.5524 53.196 69.7844 53.112 70.0004 52.992C70.2164 52.872 70.3884 52.708 70.5164 52.5C70.6524 52.284 70.7204 52.016 70.7204 51.696C70.7204 51.296 70.6164 50.976 70.4084 50.736C70.2084 50.496 69.9444 50.324 69.6164 50.22C69.2964 50.108 68.9604 50.052 68.6084 50.052C68.2644 50.052 67.9284 50.108 67.6004 50.22C67.2724 50.324 67.0004 50.496 66.7844 50.736C66.5764 50.976 66.4724 51.296 66.4724 51.696C66.4724 52.016 66.5404 52.284 66.6764 52.5C66.8124 52.708 66.9884 52.872 67.2044 52.992C67.4204 53.112 67.6524 53.196 67.9004 53.244C68.1484 53.292 68.3844 53.316 68.6084 53.316ZM68.6084 49.296C68.9204 49.296 69.2124 49.244 69.4844 49.14C69.7644 49.028 69.9964 48.86 70.1804 48.636C70.3644 48.412 70.4564 48.132 70.4564 47.796C70.4644 47.404 70.3804 47.092 70.2044 46.86C70.0284 46.628 69.8004 46.46 69.5204 46.356C69.2404 46.252 68.9364 46.2 68.6084 46.2C68.2804 46.2 67.9724 46.252 67.6844 46.356C67.4044 46.46 67.1804 46.628 67.0124 46.86C66.8444 47.084 66.7604 47.38 66.7604 47.748C66.7604 48.108 66.8484 48.404 67.0244 48.636C67.2004 48.868 67.4284 49.036 67.7084 49.14C67.9964 49.244 68.2964 49.296 68.6084 49.296Z" fill="#34C759"/>
<rect x="57" y="42.5" width="19" height="15" stroke="black"/>
<path d="M71.5 30H82.5C83.0523 30 83.5 30.4477 83.5 31V42" stroke="#34C759" stroke-linecap="round"/>
<path d="M83.5 58L83.5 69C83.5 69.5523 83.0523 70 82.5 70L71.5 70" stroke="#34C759" stroke-linecap="round"/>
<path d="M37.5 70L26.5 70C25.9477 70 25.5 69.5523 25.5 69L25.5 58" stroke="#34C759" stroke-linecap="round"/>
<path d="M26.5 41L26.5 30C26.5 29.4477 26.9477 29 27.5 29L38.5 29" stroke="#34C759" stroke-linecap="round"/>
<path d="M12.6783 76.6166L-25.9258 169.617C-26.1991 170.275 -25.7152 171 -25.0022 171H133.963C134.686 171 135.17 170.256 134.877 169.595L93.6649 76.5949C93.5047 76.2332 93.1463 76 92.7507 76H13.6018C13.1977 76 12.8332 76.2433 12.6783 76.6166Z" stroke="#34C759"/>
<path d="M21.6443 82.6138L-8.91962 155.614C-9.19549 156.273 -8.71152 157 -7.99721 157H117.958C118.682 157 119.166 156.253 118.871 155.592L86.2416 82.5919C86.0806 82.2318 85.723 82 85.3286 82H22.5667C22.1637 82 21.8 82.242 21.6443 82.6138Z" stroke="#0F0F0F"/>
<line x1="16.4337" y1="95.4767" x2="91.7945" y2="95.4934" stroke="black" stroke-linecap="round"/>
<line x1="0.5" y1="-0.5" x2="68.5525" y2="-0.5" transform="matrix(-0.263591 0.964635 -0.964172 -0.265278 39.8906 81.5781)" stroke="black" stroke-linecap="round"/>
<line x1="58" y1="82.5" x2="58" y2="141.5" stroke="black" stroke-linecap="round"/>
<line x1="0.5" y1="-0.5" x2="39.5" y2="-0.5" transform="matrix(0.290249 0.956951 -0.956395 0.292077 72.4961 82.1797)" stroke="black" stroke-linecap="round"/>
<path d="M78.7305 90.9205L78.6967 90.457C78.6847 90.2933 78.6797 89.996 78.6797 89.5826C78.6797 88.0009 79.1102 86.7315 80.0618 85.88C80.1663 85.782 80.2782 85.6879 80.3973 85.5976C80.1946 85.3519 80.0529 85.0443 79.9627 84.6993L79.9595 84.6868L79.9596 84.6867C79.9089 84.4697 79.8839 84.2472 79.8839 84.0202C79.8839 83.5451 79.992 83.1075 80.232 82.7308C80.3868 82.4879 80.5876 82.2842 80.8261 82.1168C80.7324 81.8498 80.6815 81.5804 80.6815 81.3103L78.7305 90.9205ZM78.7305 90.9205H79.1953H85.8734H86.3382L86.3721 90.4569C86.384 90.2933 86.389 89.996 86.389 89.5826V89.5826C86.389 88.8711 86.3126 88.2334 86.15 87.6773L86.1501 87.6773L86.1474 87.6688C85.889 86.8397 85.3844 86.1493 84.6621 85.5946M78.7305 90.9205L84.6621 85.5946M84.24 82.1138C84.3266 81.853 84.3715 81.5847 84.3715 81.3103V81.3103C84.3715 80.9826 84.2957 80.6723 84.137 80.3907C83.9769 80.0957 83.7605 79.8513 83.48 79.6827C83.1977 79.5131 82.879 79.4375 82.5422 79.4375C82.2155 79.4375 81.906 79.5196 81.6221 79.6814L84.24 82.1138ZM84.24 82.1138C84.5021 82.2962 84.717 82.5214 84.8705 82.7948L84.8745 82.8019L84.8782 82.809C85.0788 83.1948 85.1848 83.6003 85.1848 84.0202V84.0202C85.1848 84.6339 85.0236 85.1762 84.6621 85.5946M84.24 82.1138L84.6621 85.5946M81.6221 79.6814C81.0048 80.0332 80.6815 80.5987 80.6815 81.3103L81.6221 79.6814Z" fill="white" stroke="black"/>
<path d="M63.0508 103.983L63.017 103.519C63.005 103.356 63 103.058 63 102.645C63 101.063 63.4305 99.794 64.3821 98.9425C64.4866 98.8445 64.5985 98.7504 64.7176 98.6601C64.5149 98.4144 64.3732 98.1068 64.283 97.7618L64.2798 97.7493L64.2799 97.7492C64.2292 97.5322 64.2042 97.3097 64.2042 97.0827C64.2042 96.6076 64.3123 96.17 64.5523 95.7933C64.7072 95.5504 64.9079 95.3467 65.1464 95.1793C65.0527 94.9123 65.0018 94.6429 65.0019 94.3728L63.0508 103.983ZM63.0508 103.983H63.5156H70.1937H70.6585L70.6924 103.519C70.7043 103.356 70.7093 103.058 70.7094 102.645V102.645C70.7093 101.934 70.6329 101.296 70.4703 100.74L70.4704 100.74L70.4678 100.731C70.2093 99.9022 69.7047 99.2118 68.9824 98.6571M63.0508 103.983L68.9824 98.6571M68.5603 95.1763C68.6469 94.9155 68.6918 94.6472 68.6919 94.3728V94.3728C68.6918 94.0451 68.616 93.7348 68.4573 93.4532C68.2972 93.1582 68.0809 92.9138 67.8003 92.7452C67.518 92.5756 67.1993 92.5 66.8625 92.5C66.5358 92.5 66.2263 92.5821 65.9424 92.7439L68.5603 95.1763ZM68.5603 95.1763C68.8224 95.3587 69.0374 95.5839 69.1909 95.8573L69.1948 95.8644L69.1985 95.8715C69.3991 96.2573 69.5051 96.6628 69.5051 97.0827V97.0827C69.5051 97.6964 69.3439 98.2387 68.9824 98.6571M68.5603 95.1763L68.9824 98.6571M65.9424 92.7439C65.3251 93.0957 65.0018 93.6612 65.0019 94.3728L65.9424 92.7439Z" fill="white" stroke="black"/>
<path d="M23.6485 90.9205L23.6146 90.457C23.6027 90.2933 23.5977 89.996 23.5977 89.5826C23.5977 88.0009 24.0282 86.7315 24.9797 85.88C25.0842 85.782 25.1962 85.6879 25.3153 85.5976C25.1126 85.3519 24.9709 85.0443 24.8807 84.6993L24.8774 84.6868L24.8776 84.6867C24.8268 84.4697 24.8019 84.2472 24.8019 84.0202C24.8019 83.5451 24.91 83.1075 25.15 82.7308C25.3048 82.4879 25.5056 82.2842 25.7441 82.1168C25.6504 81.8498 25.5995 81.5804 25.5995 81.3103L23.6485 90.9205ZM23.6485 90.9205H24.1133H30.7914H31.2562L31.29 90.4569C31.302 90.2933 31.307 89.996 31.307 89.5826V89.5826C31.307 88.8711 31.2306 88.2334 31.068 87.6773L31.068 87.6773L31.0654 87.6688C30.807 86.8397 30.3024 86.1493 29.5801 85.5946M23.6485 90.9205L29.5801 85.5946M29.158 82.1138C29.2446 81.853 29.2895 81.5847 29.2895 81.3103V81.3103C29.2895 80.9826 29.2137 80.6723 29.055 80.3907C28.8948 80.0957 28.6785 79.8513 28.398 79.6827C28.1157 79.5131 27.7969 79.4375 27.4602 79.4375C27.1334 79.4375 26.824 79.5196 26.5401 79.6814L29.158 82.1138ZM29.158 82.1138C29.42 82.2962 29.635 82.5214 29.7885 82.7948L29.7925 82.8019L29.7962 82.809C29.9967 83.1948 30.1027 83.6003 30.1028 84.0202V84.0202C30.1027 84.6339 29.9416 85.1762 29.5801 85.5946M29.158 82.1138L29.5801 85.5946M26.54 79.6814C25.9228 80.0332 25.5995 80.5987 25.5995 81.3103L26.54 79.6814Z" fill="#050505" stroke="black"/>
</g>
</g>
<defs>
<clipPath id="clip0_27301_139144">
<rect width="108" height="108" fill="white" transform="translate(0.5)"/>
</clipPath>
</defs>
</svg>
