<svg width="108" height="108" viewBox="0 0 108 108" fill="none" xmlns="http://www.w3.org/2000/svg">
<circle cx="54" cy="54" r="54" fill="#AEAEB2" fill-opacity="0.1"/>
<path fill-rule="evenodd" clip-rule="evenodd" d="M21.7617 97.3242V49.4922C21.7617 43.9693 26.2389 39.4922 31.7617 39.4922H76.2393C81.7622 39.4922 86.2393 43.9693 86.2393 49.4922V97.3242C77.242 104.03 66.0848 108 54.0005 108C41.9163 108 30.7591 104.03 21.7617 97.3242Z" fill="white"/>
<path fill-rule="evenodd" clip-rule="evenodd" d="M21.0117 96.755V49.4922C21.0117 43.5551 25.8247 38.7422 31.7617 38.7422H76.2393C82.1764 38.7422 86.9893 43.5551 86.9893 49.4922V96.755C86.496 97.1362 85.996 97.509 85.4893 97.8733V49.4922C85.4893 44.3836 81.348 40.2422 76.2393 40.2422H31.7617C26.6531 40.2422 22.5117 44.3836 22.5117 49.4922V97.8733C22.0051 97.509 21.505 97.1362 21.0117 96.755Z" fill="#34C759"/>
<path d="M50.6338 69.0337C51.6203 68.3649 52.7917 68 54.0008 68C55.592 68 57.1182 68.6321 58.2434 69.7574C59.3686 70.8826 60.0007 72.4087 60.0007 74C60.0007 76.1008 60.2709 77.7512 60.6492 79.0324M48.2594 72.2572C48.0894 72.8173 48.0008 73.4041 48.0008 74C48.0008 77.0902 47.2212 79.206 46.3504 80.6054C45.6159 81.7859 45.2486 82.3761 45.2621 82.5408C45.277 82.7231 45.3156 82.7926 45.4625 82.9016C45.5952 83 46.1933 83 47.3896 83H59.0007M51.3549 87C52.0601 87.6224 52.9863 88 54.0008 88C55.0152 88 55.9414 87.6224 56.6466 87" stroke="#34C759" stroke-linecap="round" stroke-linejoin="round"/>
<path d="M46.668 67.7344L63.7346 84.801" stroke="black" stroke-linecap="round"/>
</svg>
