<svg width="108" height="108" viewBox="0 0 108 108" fill="none" xmlns="http://www.w3.org/2000/svg">
<circle cx="54" cy="54" r="54" fill="#AEAEB2" fill-opacity="0.1"/>
<rect x="30.5" y="18.5" width="40" height="71" rx="5.5" stroke="#050505"/>
<path d="M46 23.5C45.7239 23.5 45.5 23.7239 45.5 24C45.5 24.2761 45.7239 24.5 46 24.5V23.5ZM55 24.5C55.2761 24.5 55.5 24.2761 55.5 24C55.5 23.7239 55.2761 23.5 55 23.5V24.5ZM46 24.5H55V23.5H46V24.5Z" fill="#050505"/>
<path d="M30.5 81.5H70" stroke="#050505"/>
<circle cx="72.5" cy="78.5" r="15.5" fill="#34C759"/>
<path d="M72 77.586L76.95 72.636L78.364 74.05L73.414 79L78.364 83.95L76.95 85.364L72 80.414L67.05 85.364L65.636 83.95L70.586 79L65.636 74.05L67.05 72.636L72 77.586Z" fill="white" stroke="#34C759"/>
<path d="M48 49.22L44.603 52H41V56H44.603L48 58.78V49.22ZM43.889 58H40C39.7348 58 39.4804 57.8946 39.2929 57.7071C39.1054 57.5196 39 57.2652 39 57V51C39 50.7348 39.1054 50.4804 39.2929 50.2929C39.4804 50.1053 39.7348 50 40 50H43.889L49.183 45.668C49.2563 45.6079 49.3451 45.5699 49.4391 45.5584C49.5331 45.5468 49.6284 45.5622 49.714 45.6028C49.7996 45.6433 49.872 45.7074 49.9226 45.7874C49.9732 45.8675 50.0001 45.9603 50 46.055V61.945C50.0001 62.0397 49.9732 62.1325 49.9226 62.2126C49.872 62.2926 49.7996 62.3566 49.714 62.3972C49.6284 62.4377 49.5331 62.4531 49.4391 62.4416C49.3451 62.4301 49.2563 62.392 49.183 62.332L43.89 58H43.889ZM57.406 62.134L55.99 60.718C56.938 59.8745 57.6964 58.8397 58.2152 57.6817C58.734 56.5237 59.0015 55.2689 59 54C59.0012 52.6661 58.7054 51.3486 58.1339 50.1434C57.5624 48.9381 56.7296 47.8752 55.696 47.032L57.116 45.612C58.3345 46.6435 59.3132 47.9285 59.9841 49.3772C60.6549 50.8259 61.0016 52.4035 61 54C61 57.223 59.614 60.122 57.406 62.134ZM53.863 58.591L52.441 57.169C52.9265 56.7957 53.3196 56.3157 53.5899 55.7662C53.8602 55.2167 54.0006 54.6124 54 54C54 52.57 53.25 51.315 52.12 50.608L53.559 49.169C54.3165 49.7262 54.9321 50.4538 55.3562 51.2931C55.7802 52.1324 56.0008 53.0597 56 54C56 55.842 55.17 57.49 53.863 58.591Z" fill="#050505" stroke="#F7F7F8"/>
</svg>
