<svg width="109" height="109" viewBox="0 0 109 109" fill="none" xmlns="http://www.w3.org/2000/svg">
<path d="M17.9035 20.6385C24.0709 10.2169 32.3581 1.13179 48.6399 0.150941C68.8533 -1.06675 89.8021 4.89562 99.7438 24.8906C105.207 35.878 101.594 44.875 106.41 55.8151C112.705 70.1177 103.657 88.8202 94.189 98.3363C88.1597 104.396 32.475 111.891 15.6815 100.656C0.654602 90.6022 0.498596 70.8908 0.498596 55.8151C0.498596 40.7394 11.7362 31.0601 17.9035 20.6385Z" fill="#AEAEB2" fill-opacity="0.1"/>
<path d="M23.5972 54.1981C24.0742 54.4493 24.1477 55.123 23.7368 55.4778L18.4663 60.0292C18.0103 60.423 17.3139 60.1341 17.2473 59.5235L16.3993 51.7501C16.3327 51.1395 16.9493 50.6973 17.4787 50.9761L23.5972 54.1981Z" fill="#34C759"/>
<ellipse cx="1.43298" cy="1.52998" rx="1.43298" ry="1.52998" transform="matrix(0.96395 -0.266084 0.2498 0.968297 81.5391 46.5664)" fill="#050505"/>
<rect width="2.35009" height="0.979184" rx="0.489592" transform="matrix(0.96395 -0.266084 0.2498 0.968297 82.5156 49.2188)" fill="#050505"/>
<rect width="4.4709" height="0.979185" rx="0.489592" transform="matrix(0.96395 -0.266084 0.2498 0.968297 82.6172 53.9531)" fill="#050505"/>
<path d="M82.7656 52.7031L86.1913 51.7575C86.3771 52.4775 85.9466 53.2216 85.2298 53.4195L84.3998 53.6486C83.683 53.8464 82.9514 53.4231 82.7656 52.7031Z" fill="#050505"/>
<path d="M84.5877 52.1991L83.9002 49.7863L82.9885 50.038C83.0589 50.3111 83.2595 51.0173 83.1766 51.6505C83.1109 52.1529 82.8997 52.5541 82.7644 52.7025L84.5877 52.1991Z" fill="#050505"/>
<path d="M84.369 52.2616L83.803 49.8153L84.7146 49.5636C84.7851 49.8367 84.9514 50.5523 85.3282 51.0587C85.6272 51.4604 86.0035 51.6995 86.1923 51.7583L84.369 52.2616Z" fill="#050505"/>
<rect x="-0.289356" y="0.653945" width="8.21773" height="7.98982" rx="1.5" transform="matrix(0.349882 0.936794 -0.928595 0.371096 87.5754 40.7956)" stroke="#34C759"/>
<path d="M17.7544 57.1548C18.4653 56.7294 19.3694 56.9707 19.7737 57.6937L27.1294 70.8465C27.5338 71.5696 27.2853 72.5005 26.5744 72.9259L20.9747 76.2767C20.2639 76.7021 19.3598 76.4608 18.9554 75.7378L11.5998 62.585C11.1954 61.8619 11.4439 60.9309 12.1547 60.5056L17.7544 57.1548Z" stroke="#050505" stroke-linecap="round"/>
<path d="M23.7266 71.6328L21.1044 73.2019" stroke="#050505" stroke-linecap="round"/>
<path d="M43.2131 32.418C43.2131 34.7294 41.4228 36.5664 39.2589 36.5664C37.0949 36.5664 35.3047 34.7294 35.3047 32.418C35.3047 30.1065 37.0949 28.2695 39.2589 28.2695C41.4228 28.2695 43.2131 30.1065 43.2131 32.418Z" stroke="#050505"/>
<ellipse cx="93.4992" cy="71.5273" rx="1.27263" ry="1.32812" fill="#34C759"/>
<g clip-path="url(#clip0_37867_218474)">
<rect width="4.10912" height="4.2357" transform="matrix(0.972152 0.234351 -0.219785 0.975548 56.0547 22.3711)" fill="#050505"/>
<rect width="4.10912" height="4.2357" transform="matrix(0.972152 0.234351 -0.219785 0.975548 59.1172 27.4648)" fill="#34C759"/>
<rect width="4.10912" height="4.2357" transform="matrix(0.972152 0.234351 -0.219785 0.975548 60.0469 23.3359)" fill="white"/>
<rect width="4.10912" height="4.2357" transform="matrix(0.972152 0.234351 -0.219785 0.975548 55.125 26.5039)" fill="white"/>
</g>
<rect x="0.376183" y="0.604949" width="7.21824" height="7.4714" transform="matrix(0.972152 0.234351 -0.219785 0.975548 56.1981 22.2977)" stroke="black"/>
<path d="M47.3565 78.0295C46.331 78.0295 45.2928 77.35 44.5526 76.7348C43.9344 76.221 44.2411 74.2687 44.2411 73.5268C44.2411 72.3431 44.2944 71.1172 43.3064 70.3189C42.9614 70.04 42.5013 69.4862 42.2472 69.1249C41.8567 68.5697 41.3467 68.0841 41.001 67.5137C39.8376 65.594 43.4936 63.6798 43.8949 62.1048C44.2483 60.7177 44.4881 59.3292 44.8642 57.9618C45.2432 56.5835 46.2096 56.4081 47.4742 56.4081C48.6454 56.4081 49.8071 56.4436 50.9704 56.3074C51.8859 56.2003 52.5781 56.1651 53.3659 55.5882C54.2312 54.9544 55.0227 53.9416 55.9552 53.4303C57.643 52.5048 58.7369 55.0508 59.8114 55.8183C61.6875 57.1583 65.5533 56.0737 66.2708 59.0551C66.5545 60.2342 66.2984 61.5256 66.2984 62.7377C66.2984 64.2283 67.7643 65.4063 68.5346 66.5067C68.9999 67.1713 69.3281 67.8228 68.9431 68.5782C68.8326 68.795 68.4519 68.9373 68.2646 69.1249C67.934 69.4562 67.5284 69.7016 67.1985 70.0312C66.4915 70.7374 66.1827 71.7834 65.8692 72.7141C65.409 74.08 66.1399 75.7198 65.62 77.1088C65.4103 77.6688 64.9044 77.8527 64.3738 78.0295C62.9318 78.51 61.3809 78.3054 59.9152 78.5761C58.2996 78.8745 57.2051 80.2305 55.4567 80.2305" stroke="#050505" stroke-linecap="round"/>
<path d="M43.7529 91.8008C42.3526 95.8547 41.7673 100.055 41.5156 106.458" stroke="#050505"/>
<path d="M54.1953 78.6875L54.9312 83.1441C70.0592 83.1441 63.4948 85.2378 75.3927 99.0352C79.686 94.6064 81.9571 92.903 84.0084 84.8197C85.7484 85.3157 89.0684 88.4432 92.8977 88.1645C93.855 92.3455 85.7647 105.544 79.6239 107.512C70.1736 110.54 61.8537 98.7564 58.7083 93.4605" stroke="#050505"/>
<path d="M48.9766 77.9141L48.2361 82.466C33.0147 82.466 40.5046 84.8891 30.1251 98.6967C25.8053 94.1733 23.5202 92.4335 21.4561 84.1773C19.7054 84.6839 16.3649 87.8784 12.512 87.5937C11.8896 90.3529 15.0679 96.9575 19.0618 101.828" stroke="#050505"/>
<path d="M89.6008 86.4251C89.4165 86.6331 89.4328 86.9499 89.6373 87.1327C89.8419 87.3156 90.1571 87.2952 90.3415 87.0872L89.6008 86.4251ZM92.1694 84.0772L92.6234 84.2789L92.1694 84.0772ZM91.3442 81.9625L90.8684 81.8186C90.7936 82.0594 90.9071 82.3164 91.1337 82.4197C91.3604 82.5229 91.6301 82.4405 91.7645 82.2268L91.3442 81.9625ZM91.1658 80.4218L90.6826 80.3042C90.6176 80.5618 90.7626 80.8233 91.0135 80.9011C91.2645 80.9789 91.5347 80.8461 91.6304 80.598L91.1658 80.4218ZM89.9849 81.5112L89.4982 81.4086C89.4405 81.6704 89.5967 81.929 89.8532 81.9964C90.1097 82.0638 90.3762 81.9162 90.4588 81.6611L89.9849 81.5112ZM88.6188 83.6822L88.247 84.0209C88.3689 84.1566 88.5557 84.2133 88.7338 84.1686C88.9119 84.1239 89.0525 83.9851 89.1002 83.8068L88.6188 83.6822ZM88.0132 82.7169L87.5543 82.9189L87.5624 82.9378L87.572 82.956L88.0132 82.7169ZM87.9484 86.2906C88.0975 86.5215 88.4061 86.5848 88.6376 86.432C88.8691 86.2791 88.9359 85.968 88.7868 85.7371L87.9484 86.2906ZM90.3415 87.0872C90.4091 87.011 90.531 86.8959 90.7193 86.7161C90.8977 86.5459 91.1158 86.3356 91.3428 86.0948C91.7928 85.6174 92.3012 84.9959 92.6234 84.2789L91.7155 83.8755C91.4616 84.4406 91.0424 84.965 90.6231 85.4098C90.4155 85.6301 90.2135 85.825 90.0375 85.993C89.8715 86.1515 89.7049 86.3078 89.6008 86.4251L90.3415 87.0872ZM92.6234 84.2789C92.9798 83.4859 93.289 82.5507 93.5001 81.7703C93.6058 81.3794 93.689 81.0198 93.7413 80.7297C93.7674 80.5851 93.787 80.4514 93.7974 80.3363C93.8064 80.2361 93.8136 80.1006 93.7887 79.9787L92.8118 80.1924C92.8052 80.16 92.8123 80.1689 92.8042 80.2586C92.7975 80.3334 92.7832 80.4352 92.7602 80.5626C92.7144 80.8165 92.6386 81.1467 92.5381 81.5185C92.3366 82.2634 92.0438 83.1449 91.7155 83.8755L92.6234 84.2789ZM93.7887 79.9787C93.7588 79.8323 93.6612 79.6651 93.4666 79.5857C93.3097 79.5216 93.1671 79.5488 93.1021 79.5655C92.9672 79.6002 92.8447 79.677 92.7639 79.7322C92.5813 79.8568 92.3612 80.0492 92.1447 80.2588C91.7114 80.6782 91.2049 81.2514 90.9238 81.6983L91.7645 82.2268C91.9843 81.8776 92.4266 81.369 92.8315 80.9771C93.034 80.7811 93.2054 80.6357 93.3168 80.5596C93.383 80.5145 93.3831 80.5252 93.3378 80.5369C93.3175 80.5421 93.2115 80.5685 93.0817 80.5155C92.9142 80.4471 92.8344 80.3029 92.8118 80.1924L93.7887 79.9787ZM91.8199 82.1065C91.9534 81.6767 92.2483 81.0832 92.5338 80.4452C92.6697 80.1415 92.8012 79.8308 92.8911 79.5529C92.9723 79.302 93.0554 78.9769 92.9971 78.692L92.0202 78.9056C92.0178 78.8937 92.0238 78.9145 92.0121 78.9867C92.0012 79.0542 91.979 79.1428 91.9431 79.2536C91.8711 79.4762 91.7588 79.7449 91.6252 80.0433C91.3719 80.6094 91.0259 81.3111 90.8684 81.8186L91.8199 82.1065ZM92.9971 78.692C92.9701 78.5595 92.8749 78.2784 92.5613 78.1942C92.2982 78.1236 92.0838 78.2573 92.0055 78.311C91.8139 78.4422 91.628 78.6703 91.4809 78.8726C91.1705 79.2993 90.8394 79.8875 90.7013 80.2456L91.6304 80.598C91.7289 80.3427 92.0106 79.8326 92.2832 79.4579C92.4276 79.2594 92.5257 79.1609 92.5599 79.1374C92.5945 79.1137 92.4784 79.2131 92.2928 79.1633C92.1854 79.1344 92.1102 79.0685 92.0671 79.0066C92.0297 78.9527 92.0211 78.9096 92.0202 78.9056L92.9971 78.692ZM91.6491 80.5394C91.7092 80.3009 91.7885 79.7479 91.8322 79.2567C91.8544 79.0074 91.8693 78.7538 91.8663 78.5481C91.8648 78.4475 91.8588 78.34 91.8417 78.2435C91.8333 78.196 91.8192 78.1334 91.7927 78.0691C91.7704 78.015 91.7141 77.8959 91.5855 77.8093L91.0235 78.6447C90.9158 78.5722 90.8776 78.4795 90.8707 78.4628C90.8596 78.4358 90.8581 78.4214 90.8599 78.4315C90.8633 78.4504 90.868 78.4962 90.8692 78.5757C90.8715 78.7303 90.86 78.944 90.839 79.1797C90.7964 79.6586 90.7225 80.1464 90.6826 80.3042L91.6491 80.5394ZM91.5855 77.8093C91.3228 77.6324 91.0679 77.7638 90.9835 77.8232C90.8978 77.8835 90.8407 77.9584 90.8119 77.9984C90.7466 78.0893 90.6852 78.2058 90.6312 78.3181C90.5186 78.552 90.3873 78.8757 90.2549 79.225C89.9881 79.9282 89.6973 80.7862 89.511 81.3613L90.4588 81.6611C90.6424 81.0944 90.9275 80.2537 91.186 79.5721C91.3162 79.2288 91.435 78.9386 91.5278 78.7457C91.5764 78.6446 91.6065 78.5946 91.6175 78.5793C91.627 78.5661 91.6042 78.6031 91.5486 78.6423C91.4943 78.6805 91.2652 78.8075 91.0235 78.6447L91.5855 77.8093ZM90.4717 81.6137C90.5769 81.136 90.6267 80.4221 90.6279 79.8093C90.6285 79.4992 90.6168 79.1993 90.5902 78.9533C90.577 78.8311 90.5592 78.712 90.5342 78.6073C90.5137 78.5216 90.4735 78.3756 90.3808 78.255L89.5891 78.8747C89.5456 78.8182 89.5483 78.7857 89.5643 78.8529C89.5758 78.9011 89.5881 78.9744 89.5988 79.0738C89.6201 79.2711 89.6312 79.5319 89.6307 79.8198C89.6295 80.403 89.5807 81.034 89.4982 81.4086L90.4717 81.6137ZM90.3808 78.255C90.3245 78.1819 90.207 78.0709 90.0187 78.0528C89.8361 78.0352 89.7023 78.1165 89.638 78.1671C89.5259 78.2554 89.4663 78.3733 89.4448 78.416C89.385 78.535 89.3296 78.6973 89.279 78.8632C89.1738 79.2085 89.0508 79.7029 88.9224 80.2461C88.6616 81.35 88.3744 82.6719 88.1374 83.5577L89.1002 83.8068C89.342 82.9028 89.6393 81.5379 89.8925 80.4664C90.0211 79.9219 90.1375 79.4565 90.2322 79.146C90.2815 78.9839 90.3161 78.8943 90.3337 78.8594C90.3509 78.8252 90.3267 78.8907 90.2467 78.9537C90.1984 78.9918 90.0797 79.0672 89.9113 79.051C89.7372 79.0342 89.633 78.9318 89.5891 78.8747L90.3808 78.255ZM88.9907 83.3436C88.9118 83.2557 88.7835 83.0569 88.6587 82.8435C88.6005 82.7441 88.5491 82.652 88.5121 82.5846C88.4937 82.5511 88.479 82.5239 88.4691 82.5053C88.4641 82.496 88.4603 82.4889 88.4578 82.4842C88.4565 82.4819 88.4556 82.4801 88.4551 82.479C88.4548 82.4785 88.4546 82.4781 88.4545 82.4779C88.4544 82.4778 88.4544 82.4777 88.4543 82.4777C88.4543 82.4777 88.4543 82.4777 88.4543 82.4777C88.4543 82.4777 88.4544 82.4777 88.4544 82.4777C88.4544 82.4778 88.4544 82.4778 88.0132 82.7169C87.572 82.956 87.572 82.956 87.572 82.956C87.572 82.956 87.572 82.9561 87.572 82.9561C87.572 82.9561 87.5721 82.9562 87.5721 82.9563C87.5722 82.9564 87.5723 82.9566 87.5724 82.9568C87.5727 82.9573 87.573 82.9579 87.5734 82.9587C87.5743 82.9603 87.5755 82.9626 87.577 82.9655C87.5801 82.9712 87.5845 82.9795 87.5901 82.99C87.6013 83.011 87.6175 83.0409 87.6376 83.0774C87.6776 83.1503 87.7336 83.2507 87.7975 83.36C87.917 83.5641 88.0915 83.8479 88.247 84.0209L88.9907 83.3436ZM88.0132 82.7169C88.472 82.5148 88.4719 82.5147 88.4719 82.5146C88.4719 82.5146 88.4718 82.5145 88.4718 82.5144C88.4717 82.5143 88.4717 82.5141 88.4716 82.5139C88.4714 82.5135 88.4713 82.5131 88.471 82.5126C88.4706 82.5116 88.4701 82.5104 88.4695 82.5089C88.4682 82.506 88.4665 82.5021 88.4644 82.4974C88.4602 82.4879 88.4544 82.475 88.4472 82.4594C88.4328 82.4283 88.4123 82.3853 88.3872 82.3371C88.3419 82.25 88.2635 82.1093 88.1639 81.9959C88.1177 81.9432 88.0308 81.8537 87.904 81.7981C87.7475 81.7295 87.5197 81.7141 87.3187 81.8676C87.1647 81.9853 87.1015 82.1499 87.0721 82.2468C87.0383 82.3586 87.0189 82.4866 87.0077 82.6235L88.0015 82.6936C88.0055 82.6448 88.0103 82.607 88.015 82.5785C88.0198 82.5495 88.024 82.5338 88.0258 82.528C88.0266 82.5253 88.0263 82.5265 88.0246 82.5307C88.0229 82.5348 88.0192 82.5433 88.0126 82.5549C88.006 82.5664 87.9957 82.5827 87.9804 82.6012C87.965 82.6199 87.9438 82.6418 87.9155 82.6634C87.8869 82.6852 87.8523 82.7058 87.8117 82.7216C87.771 82.7374 87.7286 82.7468 87.6865 82.7498C87.6022 82.7558 87.536 82.7357 87.4959 82.7181C87.4756 82.7092 87.4598 82.7001 87.4486 82.6928C87.4373 82.6856 87.4291 82.6791 87.4238 82.6748C87.4184 82.6703 87.415 82.667 87.4135 82.6656C87.412 82.664 87.4117 82.6636 87.4126 82.6646C87.4146 82.6669 87.4192 82.6725 87.4263 82.6823C87.4332 82.6919 87.4411 82.7038 87.4499 82.7178C87.4676 82.7462 87.4856 82.7783 87.5022 82.8104C87.5187 82.842 87.5324 82.8707 87.5419 82.8912C87.5465 82.9013 87.5501 82.9092 87.5522 82.9141C87.5533 82.9165 87.554 82.9182 87.5544 82.919C87.5546 82.9195 87.5547 82.9197 87.5547 82.9196C87.5547 82.9196 87.5546 82.9196 87.5546 82.9194C87.5546 82.9194 87.5545 82.9193 87.5545 82.9192C87.5545 82.9192 87.5544 82.9191 87.5544 82.9191C87.5544 82.919 87.5543 82.9189 88.0132 82.7169ZM87.0077 82.6235C86.9614 83.188 87.0894 83.9299 87.2666 84.5849C87.4441 85.2406 87.6955 85.8989 87.9484 86.2906L88.7868 85.7371C88.616 85.4726 88.3968 84.9299 88.2291 84.3103C88.0612 83.69 87.9696 83.0823 88.0015 82.6936L87.0077 82.6235Z" fill="#050505"/>
<path d="M16.6713 85.2766C16.8557 85.4846 16.8394 85.8014 16.6348 85.9842C16.4303 86.167 16.115 86.1466 15.9306 85.9386L16.6713 85.2766ZM14.1027 82.9287L13.6488 83.1303L14.1027 82.9287ZM14.928 80.814L15.4038 80.67C15.4786 80.9109 15.3651 81.1679 15.1384 81.2711C14.9118 81.3744 14.642 81.2919 14.5076 81.0783L14.928 80.814ZM15.4372 79.2283L15.9204 79.1107C15.9854 79.3684 15.8404 79.6298 15.5895 79.7076C15.3385 79.7854 15.0683 79.6526 14.9726 79.4045L15.4372 79.2283ZM16.2872 80.3626L16.774 80.2601C16.8316 80.5218 16.6754 80.7804 16.4189 80.8478C16.1624 80.9152 15.896 80.7677 15.8133 80.5125L16.2872 80.3626ZM17.6533 82.5337L18.0252 82.8724C17.9137 82.9964 17.747 83.0552 17.5814 83.0289C17.4158 83.0025 17.2734 82.8946 17.2022 82.7414L17.6533 82.5337ZM18.259 81.5683L18.7178 81.7703L18.7098 81.7893L18.7002 81.8074L18.259 81.5683ZM18.3237 85.1421C18.1746 85.373 17.8661 85.4363 17.6346 85.2834C17.4031 85.1306 17.3362 84.8195 17.4854 84.5886L18.3237 85.1421ZM15.9306 85.9386C15.8631 85.8624 15.7411 85.7473 15.5528 85.5676C15.3745 85.3973 15.1564 85.1871 14.9294 84.9463C14.4793 84.4689 13.971 83.8474 13.6488 83.1303L14.5566 82.727C14.8106 83.292 15.2297 83.8165 15.649 84.2612C15.8567 84.4815 16.0586 84.6764 16.2346 84.8445C16.4007 85.003 16.5673 85.1593 16.6713 85.2766L15.9306 85.9386ZM13.6488 83.1303C13.2629 82.2717 13.1493 81.1552 13.1308 80.2531C13.1122 79.347 13.1891 78.5658 13.2359 78.3366L14.2128 78.5502C14.1864 78.6794 14.1101 79.379 14.1278 80.245C14.1456 81.115 14.2578 82.0619 14.5566 82.727L13.6488 83.1303ZM13.2359 78.3366C13.2435 78.2996 13.2608 78.2306 13.3051 78.1575C13.3524 78.0796 13.451 77.9667 13.6212 77.9261C13.7854 77.8869 13.9191 77.9387 13.988 77.976C14.0563 78.0131 14.1031 78.0576 14.1276 78.0829C14.2109 78.169 14.2735 78.2868 14.3077 78.3524C14.3942 78.5182 14.5037 78.7675 14.6165 79.0259C14.8552 79.5727 15.1236 80.1924 15.3484 80.5497L14.5076 81.0783C14.2315 80.6395 13.9274 79.9305 13.7042 79.4194C13.586 79.1488 13.4922 78.9368 13.4258 78.8093C13.3835 78.7284 13.3823 78.7416 13.4172 78.7776C13.4296 78.7904 13.4652 78.8259 13.5235 78.8574C13.5822 78.8893 13.7068 78.9392 13.863 78.9019C14.025 78.8632 14.1166 78.7561 14.158 78.6879C14.1965 78.6245 14.2089 78.5693 14.2128 78.5502L13.2359 78.3366ZM14.4522 80.9579C14.2788 80.3996 14.2548 79.5447 14.2765 78.8145C14.2986 78.0698 14.3726 77.3507 14.4395 77.0234L15.4164 77.2371C15.3661 77.4833 15.2946 78.1374 15.2733 78.8569C15.2515 79.5908 15.2861 80.291 15.4038 80.67L14.4522 80.9579ZM14.4395 77.0234C14.4489 76.9778 14.4656 76.9052 14.499 76.8341C14.5147 76.8006 14.5509 76.7301 14.6212 76.6647C14.7014 76.5903 14.8512 76.5038 15.0475 76.5357C15.2174 76.5633 15.3194 76.6653 15.3591 76.7109C15.4038 76.7621 15.4306 76.8122 15.4445 76.8403C15.4731 76.8985 15.4915 76.9573 15.5029 76.9973C15.5479 77.1552 15.5905 77.4129 15.6301 77.6607C15.6725 77.9259 15.7163 78.2133 15.7646 78.4759C15.8147 78.7487 15.8619 78.9487 15.9018 79.0521L14.9726 79.4045C14.8942 79.2012 14.8332 78.9139 14.784 78.6462C14.733 78.3683 14.6862 78.0621 14.6456 77.8078C14.6021 77.536 14.5691 77.3484 14.5446 77.2625C14.5386 77.2415 14.54 77.252 14.552 77.2764C14.5576 77.2877 14.5762 77.3245 14.6127 77.3664C14.6443 77.4026 14.7382 77.4992 14.9002 77.5255C15.0885 77.5562 15.2304 77.4725 15.3028 77.4053C15.3653 77.3472 15.3938 77.2883 15.4019 77.2711C15.42 77.2326 15.4218 77.2111 15.4164 77.2371L14.4395 77.0234ZM14.954 79.3459C14.9165 79.1973 14.93 79.0508 14.9464 78.9484C14.9643 78.8359 14.9957 78.7189 15.0319 78.6068C15.1044 78.3819 15.2099 78.1348 15.319 77.9072C15.4288 77.6783 15.5483 77.4569 15.6538 77.2817C15.7063 77.1947 15.7586 77.1134 15.8073 77.0462C15.8315 77.0128 15.8584 76.9779 15.887 76.9454C15.9101 76.9191 15.9563 76.8685 16.02 76.8256L16.582 77.661C16.6247 77.6322 16.6451 77.6064 16.6381 77.6144C16.6366 77.6161 16.6293 77.6248 16.6158 77.6433C16.5892 77.6801 16.5527 77.7358 16.5085 77.8091C16.4207 77.9548 16.3159 78.1484 16.2183 78.352C16.1199 78.557 16.0347 78.7601 15.9808 78.927C15.9538 79.0107 15.9381 79.0749 15.9311 79.1193C15.9223 79.1739 15.9329 79.1603 15.9204 79.1107L14.954 79.3459ZM16.02 76.8256C16.0721 76.7905 16.208 76.7128 16.3934 76.745C16.5988 76.7806 16.7111 76.9215 16.7578 77.0046C16.8014 77.0822 16.816 77.1538 16.8217 77.1866C16.8285 77.2258 16.8308 77.261 16.8317 77.2866C16.8349 77.3778 16.8238 77.4902 16.8131 77.5851C16.8014 77.6891 16.7846 77.8162 16.7674 77.9499C16.7499 78.0862 16.7312 78.2352 16.714 78.3929C16.6425 79.0525 16.6139 79.7582 16.7611 80.2127L15.8133 80.5125C15.5907 79.8252 15.6529 78.9147 15.7227 78.2718C15.7409 78.104 15.7607 77.947 15.7784 77.8091C15.7964 77.6688 15.8116 77.5537 15.8222 77.4598C15.8274 77.4134 15.831 77.3767 15.8331 77.3482C15.8354 77.3174 15.8351 77.307 15.8351 77.3095C15.8352 77.3108 15.8356 77.3253 15.8395 77.3475C15.8422 77.3632 15.8528 77.4215 15.8911 77.4897C15.9326 77.5634 16.0383 77.6989 16.2359 77.7331C16.4135 77.7639 16.5403 77.689 16.582 77.661L16.02 76.8256ZM15.8005 80.4652C15.7207 80.1031 15.813 79.7591 15.9412 79.4821C16.0708 79.2021 16.2591 78.9424 16.4428 78.7229C16.6283 78.5012 16.824 78.3033 16.9789 78.1505C17.0604 78.0701 17.1217 78.0109 17.1767 77.9559C17.2029 77.9298 17.223 77.9092 17.2383 77.8929C17.2548 77.8752 17.2593 77.8693 17.2575 77.8716L18.0492 78.4913C18.002 78.5527 17.9366 78.6192 17.8839 78.6718C17.8277 78.7279 17.7522 78.8012 17.6817 78.8707C17.5326 79.0177 17.3638 79.1893 17.2091 79.3742C17.0524 79.5615 16.9244 79.7457 16.8463 79.9145C16.7668 80.0863 16.7599 80.196 16.774 80.2601L15.8005 80.4652ZM17.2575 77.8716C17.2656 77.8611 17.3187 77.7886 17.4093 77.7344C17.4548 77.7071 17.5846 77.6389 17.7596 77.6721C17.9636 77.7109 18.0746 77.854 18.1208 77.946C18.1618 78.0276 18.1709 78.1002 18.1739 78.1287C18.1776 78.1643 18.1771 78.1941 18.1763 78.2125C18.1748 78.2492 18.1702 78.282 18.1669 78.303C18.1546 78.3804 18.1265 78.4984 18.1 78.6116C18.0418 78.8603 17.9584 79.2208 17.8951 79.6429C17.7652 80.5084 17.7366 81.5349 18.1045 82.326L17.2022 82.7414C16.7026 81.6674 16.7727 80.3896 16.909 79.4812C16.9787 79.0163 17.0702 78.6224 17.1291 78.3705C17.1612 78.2334 17.177 78.1646 17.1819 78.1337C17.1829 78.1277 17.1808 78.1384 17.18 78.158C17.1796 78.1679 17.179 78.1905 17.1821 78.2202C17.1844 78.2428 17.1925 78.3108 17.2318 78.3892C17.2764 78.478 17.3853 78.6192 17.5865 78.6574C17.7589 78.6901 17.8854 78.6228 17.9272 78.5978C17.9772 78.5678 18.0091 78.536 18.0209 78.5239C18.0355 78.5088 18.0452 78.4965 18.0492 78.4913L17.2575 77.8716ZM17.2815 82.195C17.3604 82.1072 17.4886 81.9083 17.6134 81.695C17.6716 81.5955 17.7231 81.5034 17.76 81.4361C17.7784 81.4025 17.7931 81.3753 17.8031 81.3567C17.8081 81.3475 17.8119 81.3403 17.8144 81.3356C17.8156 81.3333 17.8165 81.3316 17.8171 81.3305C17.8174 81.33 17.8176 81.3296 17.8177 81.3294C17.8178 81.3293 17.8178 81.3292 17.8178 81.3292C17.8178 81.3292 17.8178 81.3291 17.8178 81.3292C17.8178 81.3292 17.8178 81.3292 17.8178 81.3292C17.8178 81.3292 17.8178 81.3292 18.259 81.5683C18.7002 81.8074 18.7002 81.8074 18.7002 81.8075C18.7002 81.8075 18.7001 81.8075 18.7001 81.8075C18.7001 81.8076 18.7001 81.8076 18.7 81.8077C18.6999 81.8079 18.6998 81.8081 18.6997 81.8083C18.6995 81.8088 18.6991 81.8094 18.6987 81.8102C18.6979 81.8118 18.6967 81.814 18.6951 81.8169C18.6921 81.8227 18.6877 81.831 18.682 81.8414C18.6708 81.8624 18.6546 81.8923 18.6346 81.9289C18.5946 82.0018 18.5385 82.1021 18.4746 82.2114C18.3552 82.4156 18.1806 82.6994 18.0252 82.8724L17.2815 82.195ZM18.259 81.5683C17.8002 81.3663 17.8002 81.3662 17.8002 81.3661C17.8003 81.366 17.8003 81.3659 17.8003 81.3659C17.8004 81.3657 17.8005 81.3655 17.8005 81.3654C17.8007 81.365 17.8009 81.3646 17.8011 81.3641C17.8015 81.3631 17.8021 81.3619 17.8027 81.3604C17.804 81.3575 17.8057 81.3536 17.8077 81.3488C17.8119 81.3394 17.8177 81.3265 17.825 81.3108C17.8393 81.2797 17.8598 81.2368 17.8849 81.1885C17.9302 81.1015 18.0086 80.9608 18.1082 80.8473C18.1545 80.7946 18.2413 80.7051 18.3682 80.6495C18.5247 80.5809 18.7525 80.5656 18.9535 80.7191C19.1075 80.8367 19.1707 81.0014 19.2 81.0982C19.2339 81.21 19.2532 81.338 19.2644 81.475L18.2706 81.545C18.2666 81.4963 18.2618 81.4585 18.2571 81.4299C18.2523 81.401 18.2481 81.3852 18.2464 81.3794C18.2456 81.3768 18.2458 81.3779 18.2475 81.3821C18.2492 81.3862 18.253 81.3948 18.2596 81.4064C18.2661 81.4179 18.2765 81.4341 18.2918 81.4527C18.3071 81.4713 18.3284 81.4933 18.3566 81.5148C18.3852 81.5367 18.4199 81.5572 18.4604 81.573C18.5012 81.5889 18.5435 81.5982 18.5857 81.6012C18.67 81.6073 18.7362 81.5871 18.7763 81.5696C18.7965 81.5607 18.8123 81.5515 18.8235 81.5443C18.8348 81.537 18.8431 81.5306 18.8484 81.5262C18.8537 81.5218 18.8571 81.5185 18.8586 81.517C18.8602 81.5155 18.8605 81.515 18.8596 81.5161C18.8576 81.5184 18.8529 81.524 18.8459 81.5338C18.839 81.5434 18.831 81.5552 18.8223 81.5692C18.8045 81.5976 18.7866 81.6298 18.7699 81.6618C18.7535 81.6934 18.7398 81.7221 18.7303 81.7426C18.7256 81.7528 18.7221 81.7606 18.7199 81.7655C18.7188 81.768 18.7181 81.7697 18.7177 81.7705C18.7176 81.7709 18.7175 81.7711 18.7175 81.7711C18.7175 81.7711 18.7175 81.771 18.7176 81.7709C18.7176 81.7708 18.7176 81.7708 18.7177 81.7707C18.7177 81.7706 18.7177 81.7705 18.7177 81.7705C18.7178 81.7704 18.7178 81.7703 18.259 81.5683ZM19.2644 81.475C19.3108 82.0394 19.1828 82.7814 19.0055 83.4363C18.8281 84.0921 18.5767 84.7504 18.3237 85.1421L17.4854 84.5886C17.6562 84.3241 17.8754 83.7813 18.0431 83.1618C18.2109 82.5414 18.3025 81.9338 18.2706 81.545L19.2644 81.475Z" fill="#050505"/>
<path d="M56.6589 72.5994C56.4294 75.3116 54.2316 77.4152 51.5855 77.4152C48.7883 77.4152 46.4922 75.0648 46.4922 72.1295C46.4922 71.7238 46.5361 71.3294 46.6192 70.9509C47.0953 68.7804 48.8523 67.1324 51.0036 66.8779C50.8754 68.3924 51.424 69.7414 52.428 70.7495C53.4602 71.7859 54.9554 72.4472 56.6589 72.5994Z" stroke="#050505"/>
<defs>
<clipPath id="clip0_37867_218474">
<rect width="8.21824" height="8.4714" transform="matrix(0.972152 0.234351 -0.219785 0.975548 56.0547 22.3711)" fill="white"/>
</clipPath>
</defs>
</svg>
