<svg width="108" height="108" viewBox="0 0 108 108" fill="none" xmlns="http://www.w3.org/2000/svg">
<circle cx="54" cy="54" r="54" fill="#AEAEB2" fill-opacity="0.1"/>
<path fill-rule="evenodd" clip-rule="evenodd" d="M21.7578 97.3245V49.4924C21.7578 43.9696 26.235 39.4924 31.7578 39.4924H76.2354C81.7583 39.4924 86.2354 43.9696 86.2354 49.4924V97.3245C77.2381 104.031 66.0809 108 53.9966 108C41.9123 108 30.7552 104.031 21.7578 97.3245Z" fill="white"/>
<path fill-rule="evenodd" clip-rule="evenodd" d="M21.0078 96.7553V49.4924C21.0078 43.5554 25.8208 38.7424 31.7578 38.7424H76.2354C82.1725 38.7424 86.9854 43.5554 86.9854 49.4924V96.7553C86.4921 97.1364 85.9921 97.5092 85.4854 97.8735V49.4924C85.4854 44.3838 81.3441 40.2424 76.2354 40.2424H31.7578C26.6492 40.2424 22.5078 44.3838 22.5078 49.4924V97.8735C22.0012 97.5093 21.5011 97.1364 21.0078 96.7553Z" fill="black"/>
<path d="M51 100H35C33.8954 100 33 99.1046 33 98V82C33 80.8954 33.8954 80 35 80H51C52.1046 80 53 80.8954 53 82V98C53 99.1046 52.1046 100 51 100Z" stroke="#2A2A2A"/>
<path d="M62.5264 83.3563L48.7224 75.2663C47.7694 74.7078 47.4496 73.4825 48.0081 72.5295L56.0981 58.7255C56.6566 57.7725 57.8819 57.4528 58.8349 58.0113L72.6389 66.1013C73.5919 66.6598 73.9117 67.8851 73.3532 68.838L65.2632 82.6421C64.7047 83.595 63.4794 83.9148 62.5264 83.3563Z" stroke="#2A2A2A"/>
<circle cx="38" cy="85" r="1" fill="#34C759"/>
<circle cx="43" cy="90" r="1" fill="#34C759"/>
<circle cx="60.6853" cy="70.6838" r="1" transform="rotate(30.3729 60.6853 70.6838)" fill="#34C759"/>
<circle cx="48" cy="95" r="1" fill="#34C759"/>
</svg>
