<svg width="84" height="83" viewBox="0 0 84 83" fill="none" xmlns="http://www.w3.org/2000/svg">
<g clip-path="url(#clip0_25309_219399)">
<rect width="84" height="83" rx="4"/>
<path fill-rule="evenodd" clip-rule="evenodd" d="M9.75781 83.322V35.4922C9.75781 29.9693 14.235 25.4922 19.7578 25.4922H64.2354C69.7583 25.4922 74.2354 29.9693 74.2354 35.4922V83.3271C65.2387 90.0316 54.0828 94 42 94C29.9142 94 18.7558 90.0296 9.75781 83.322Z"/>
<path d="M21.5002 70.5625H60.2479" stroke="#6F6F6F" stroke-linecap="round"/>
<line x1="17.3047" y1="81.7578" x2="50.2478" y2="81.7578" stroke="#6F6F6F" stroke-linecap="round"/>
<line x1="31.8708" y1="63.1544" x2="25.0143" y2="89.0116" stroke="#6F6F6F" stroke-linecap="round"/>
<line x1="42.25" y1="62.5898" x2="42.25" y2="87.5898" stroke="#6F6F6F" stroke-linecap="round"/>
<line x1="52.6942" y1="62.8757" x2="57.2709" y2="77.9133" stroke="#6F6F6F" stroke-linecap="round"/>
<path d="M25 54H20.3587C19.926 54 19.5424 54.2782 19.4081 54.6895L18 59" stroke="#34C759" stroke-linecap="round"/>
<path d="M58.5 54H63.1413C63.574 54 63.9576 54.2782 64.0919 54.6895L65.5 59" stroke="#34C759" stroke-linecap="round"/>
<path fill-rule="evenodd" clip-rule="evenodd" d="M9.25781 82.9448V35.4922C9.25781 29.6932 13.9588 24.9922 19.7578 24.9922H64.2354C70.0344 24.9922 74.7354 29.6932 74.7354 35.4922V82.95C74.4051 83.2021 74.0717 83.4506 73.7354 83.6953V35.4922C73.7354 30.2455 69.4821 25.9922 64.2354 25.9922H19.7578C14.5111 25.9922 10.2578 30.2455 10.2578 35.4922V83.6903C9.92152 83.4456 9.58817 83.1971 9.25781 82.9448Z" fill="#6F6F6F"/>
<path fill-rule="evenodd" clip-rule="evenodd" d="M23.4581 59.8046C23.5365 59.6199 23.7177 59.5 23.9183 59.5H59.8651C60.0614 59.5 60.2395 59.6148 60.3205 59.7936L78.9041 100.794C79.0541 101.125 78.8121 101.5 78.4487 101.5H78.4565C78.8199 101.5 79.062 101.125 78.9119 100.794L71.7798 85.0584C72.0599 84.873 72.3381 84.6851 72.6144 84.4946L61.2313 59.3808C60.9882 58.8445 60.4539 58.5 59.8651 58.5H23.9183C23.3164 58.5 22.7728 58.8598 22.5376 59.4138L5.13016 100.414C4.71017 101.403 5.43618 102.5 6.51087 102.5H6.51869C5.44399 102.5 4.71798 101.403 5.13798 100.414L11.7854 84.7571C12.0641 84.9456 12.3446 85.1317 12.627 85.3151L23.4581 59.8046Z" fill="#34C759"/>
<path d="M33.55 38.97L31.65 34.41H30L33.55 41.82L37.1 34.41H35.44L33.55 38.97Z" fill="#34C759"/>
<path d="M39.9333 39.82H43.6333L43.4633 38.69H40.1033L39.9333 39.82ZM41.7633 36.68L42.8133 39.11L42.7933 39.47L43.6933 41.41H45.3133L41.7633 34L38.2133 41.41H39.8233L40.7433 39.41L40.7133 39.09L41.7633 36.68Z" fill="#34C759"/>
<path d="M49.7627 38.15L51.8627 41.41H53.5527L51.2727 38.15H49.7627ZM48.1727 34.41V41.41H49.6027V34.41H48.1727ZM49.0427 35.63H50.4327C50.686 35.63 50.9027 35.6733 51.0827 35.76C51.2693 35.84 51.4127 35.96 51.5127 36.12C51.6127 36.2733 51.6627 36.46 51.6627 36.68C51.6627 36.9 51.6127 37.09 51.5127 37.25C51.4127 37.4033 51.2693 37.5233 51.0827 37.61C50.9027 37.69 50.686 37.73 50.4327 37.73H49.0427V38.87H50.5227C51.076 38.87 51.546 38.7767 51.9327 38.59C52.3193 38.4033 52.616 38.1433 52.8227 37.81C53.0293 37.47 53.1327 37.08 53.1327 36.64C53.1327 36.1933 53.0293 35.8033 52.8227 35.47C52.616 35.1367 52.3193 34.8767 51.9327 34.69C51.546 34.5033 51.076 34.41 50.5227 34.41H49.0427V35.63Z" fill="#34C759"/>
</g>
<defs>
<clipPath id="clip0_25309_219399">
<rect width="84" height="83" fill="white"/>
</clipPath>
</defs>
</svg>
