<svg width="108" height="108" viewBox="0 0 108 108" fill="none" xmlns="http://www.w3.org/2000/svg">
    <circle cx="54" cy="54" r="54" fill="#AEAEB2" fill-opacity="0.1"/>
    <path fill-rule="evenodd" clip-rule="evenodd"
          d="M21.7617 97.3242V49.4922C21.7617 43.9693 26.2389 39.4922 31.7617 39.4922H76.2393C81.7622 39.4922 86.2393 43.9693 86.2393 49.4922V97.3242C77.242 104.03 66.0848 108 54.0005 108C41.9163 108 30.7591 104.03 21.7617 97.3242Z"
          fill="white"/>
    <path fill-rule="evenodd" clip-rule="evenodd"
          d="M21.0117 96.755V49.4922C21.0117 43.5551 25.8247 38.7422 31.7617 38.7422H76.2393C82.1764 38.7422 86.9893 43.5551 86.9893 49.4922V96.755C86.496 97.1362 85.996 97.509 85.4893 97.8733V49.4922C85.4893 44.3836 81.348 40.2422 76.2393 40.2422H31.7617C26.6531 40.2422 22.5117 44.3836 22.5117 49.4922V97.8733C22.0051 97.509 21.505 97.1362 21.0117 96.755Z"
          fill="black"/>
    <path d="M59 60H47C46.2044 60 45.4413 59.6839 44.8787 59.1213C44.3161 58.5587 44 57.7956 44 57V50" stroke="#34C759"
          stroke-linecap="round" stroke-linejoin="round"/>
    <path d="M36 53C36 52.2044 36.3161 51.4413 36.8787 50.8787C37.4413 50.3161 38.2044 50 39 50H60.336C60.7301 50 61.1204 50.0776 61.4845 50.2284C61.8486 50.3792 62.1794 50.6003 62.458 50.879L66.316 54.737L71.121 59.542C71.3997 59.8206 71.6208 60.1514 71.7716 60.5155C71.9224 60.8796 72 61.2699 72 61.664V83C72 83.7956 71.6839 84.5587 71.1213 85.1213C70.5587 85.6839 69.7956 86 69 86H39C38.2044 86 37.4413 85.6839 36.8787 85.1213C36.3161 84.5587 36 83.7956 36 83V53Z"
          stroke="#050505" stroke-linejoin="round"/>
    <path d="M61 70H47C46.2044 70 45.4413 70.3161 44.8787 70.8787C44.3161 71.4413 44 72.2044 44 73V86H64V73C64 72.2044 63.6839 71.4413 63.1213 70.8787C62.5587 70.3161 61.7956 70 61 70Z"
          stroke="#050505" stroke-linejoin="round"/>
    <circle cx="69" cy="80" r="9.5" fill="white" stroke="#34C759"/>
    <path d="M68.07 75L68.35 82H69.19L69.47 75H68.07ZM68 84.24C68 84.4453 68.0747 84.6273 68.224 84.786C68.3827 84.9353 68.5647 85.01 68.77 85.01C68.9847 85.01 69.1667 84.9353 69.316 84.786C69.4653 84.6273 69.54 84.4453 69.54 84.24C69.54 84.0253 69.4653 83.8433 69.316 83.694C69.1667 83.5447 68.9847 83.47 68.77 83.47C68.5647 83.47 68.3827 83.5447 68.224 83.694C68.0747 83.8433 68 84.0253 68 84.24Z"
          fill="#34C759"/>
</svg>
