<svg width="108" height="109" viewBox="0 0 108 109" fill="none" xmlns="http://www.w3.org/2000/svg">
    <circle cx="54" cy="54" r="54" fill="#AEAEB2" fill-opacity="0.1"/>
    <path fill-rule="evenodd" clip-rule="evenodd"
          d="M21.7578 97.3242V49.4922C21.7578 43.9693 26.235 39.4922 31.7578 39.4922H76.2354C81.7583 39.4922 86.2354 43.9693 86.2354 49.4922V97.3242C77.2381 104.03 66.0809 108 53.9966 108C41.9123 108 30.7552 104.03 21.7578 97.3242Z"
          fill="white"/>
    <path d="M33.5002 84.5645H72.2479" stroke="black" stroke-linecap="round"/>
    <line x1="29.3047" y1="95.7578" x2="62.2478" y2="95.7578" stroke="black" stroke-linecap="round"/>
    <line x1="43.8708" y1="77.1544" x2="37.0143" y2="103.012" stroke="black" stroke-linecap="round"/>
    <line x1="54.25" y1="76.5898" x2="54.25" y2="101.59" stroke="black" stroke-linecap="round"/>
    <line x1="64.6942" y1="76.8757" x2="69.2709" y2="91.9133" stroke="black" stroke-linecap="round"/>
    <path d="M37 68H32.3587C31.926 68 31.5424 68.2782 31.4081 68.6895L30 73" stroke="#34C759" stroke-linecap="round"/>
    <path d="M70.5 68H75.1413C75.574 68 75.9576 68.2782 76.0919 68.6895L77.5 73" stroke="#34C759"
          stroke-linecap="round"/>
    <path fill-rule="evenodd" clip-rule="evenodd"
          d="M21.0078 96.755V49.4922C21.0078 43.5551 25.8208 38.7422 31.7578 38.7422H76.2354C82.1725 38.7422 86.9854 43.5551 86.9854 49.4922V96.755C86.4921 97.1362 85.9921 97.509 85.4854 97.8733V49.4922C85.4854 44.3836 81.3441 40.2422 76.2354 40.2422H31.7578C26.6492 40.2422 22.5078 44.3836 22.5078 49.4922V97.8733C22.0012 97.509 21.5011 97.1362 21.0078 96.755Z"
          fill="black"/>
    <path fill-rule="evenodd" clip-rule="evenodd"
          d="M35.4566 73.8046C35.535 73.6199 35.7162 73.5 35.9168 73.5H71.8636C72.0599 73.5 72.238 73.6148 72.319 73.7936L90.9027 114.794C91.0527 115.125 90.8107 115.5 90.4473 115.5H18.5094C18.3674 115.5 18.2437 115.443 18.1548 115.353C18.2439 115.444 18.3688 115.503 18.5122 115.503H90.4501C90.8135 115.503 91.0555 115.127 90.9055 114.796L83.7734 99.0613C84.055 98.8748 84.3348 98.6858 84.6127 98.4942L73.2299 73.3808C72.9868 72.8445 72.4524 72.5 71.8636 72.5H35.9168C35.315 72.5 34.7714 72.8598 34.5361 73.4138L17.1287 114.414C16.8758 115.01 17.0385 115.644 17.4427 116.055C17.0406 115.644 16.8792 115.011 17.1315 114.417L23.7789 98.76C24.0586 98.9492 24.3401 99.1359 24.6235 99.3199L35.4566 73.8046Z"
          fill="#34C759"/>
    <path d="M74.269 46.5234H78.4167V48.3449V49.8925V51.7139H74.269H69.6214H64.75V46.5234H69.6214H74.269Z"
          stroke="#34C759"/>
    <rect x="78" y="48" width="2" height="2" fill="#34C759"/>
</svg>
