<svg width="108" height="108" viewBox="0 0 108 108" fill="none" xmlns="http://www.w3.org/2000/svg">
    <circle cx="54" cy="54" r="54" fill="#AEAEB2" fill-opacity="0.1"/>
    <path fill-rule="evenodd" clip-rule="evenodd"
          d="M21.7617 97.3242V49.4922C21.7617 43.9693 26.2389 39.4922 31.7617 39.4922H76.2393C81.7622 39.4922 86.2393 43.9693 86.2393 49.4922V97.3242C77.242 104.03 66.0848 108 54.0005 108C41.9163 108 30.7591 104.03 21.7617 97.3242Z"
          fill="white"/>
    <path fill-rule="evenodd" clip-rule="evenodd"
          d="M21.0117 96.755V49.4922C21.0117 43.5551 25.8247 38.7422 31.7617 38.7422H76.2393C82.1764 38.7422 86.9893 43.5551 86.9893 49.4922V96.755C86.496 97.1362 85.996 97.509 85.4893 97.8733V49.4922C85.4893 44.3836 81.348 40.2422 76.2393 40.2422H31.7617C26.6531 40.2422 22.5117 44.3836 22.5117 49.4922V97.8733C22.0051 97.509 21.505 97.1362 21.0117 96.755Z"
          fill="black"/>
    <path fill-rule="evenodd" clip-rule="evenodd"
          d="M55.4785 68.395L64.4466 59.4486C64.7073 59.1886 65.1294 59.1891 65.3894 59.4497C65.6495 59.7104 65.649 60.1325 65.3883 60.3926L56.4213 69.3378L61.6182 74.5347C62.1389 75.0554 62.1389 75.8996 61.6182 76.4203L53.1329 84.9056L39.9336 71.7063L48.4189 63.221C48.9396 62.7003 49.7838 62.7003 50.3045 63.221L55.4785 68.395ZM49.3617 64.1638L41.8192 71.7063L45.5904 75.4775L49.3617 71.7063L50.3045 72.6491L46.5333 76.4203L48.4189 78.3059L52.1901 74.5347L53.1329 75.4775L49.3617 79.2487L53.1329 83.02L60.6754 75.4775L49.3617 64.1638Z"
          fill="black"/>
    <path fill-rule="evenodd" clip-rule="evenodd"
          d="M66.3346 82.0007C66.3346 82.3688 66.0362 82.6673 65.668 82.6673H60.3346C59.9664 82.6673 59.668 82.3688 59.668 82.0007C59.668 81.6325 59.9664 81.334 60.3346 81.334H65.668C66.0362 81.334 66.3346 81.6325 66.3346 82.0007Z"
          fill="#34C759"/>
    <path fill-rule="evenodd" clip-rule="evenodd"
          d="M64.9987 84.6667C64.9987 85.0349 64.7002 85.3333 64.332 85.3333H58.9987C58.6305 85.3333 58.332 85.0349 58.332 84.6667C58.332 84.2985 58.6305 84 58.9987 84H64.332C64.7002 84 64.9987 84.2985 64.9987 84.6667Z"
          fill="black"/>
</svg>
