<svg width="261" height="246" viewBox="0 0 261 246" fill="none" xmlns="http://www.w3.org/2000/svg">
    <rect x="0.633592" y="-0.633592" width="243.132" height="121.528" rx="14.3332"
        transform="matrix(1 -1.02525e-07 -7.61986e-08 -1 8.38672 180.346)" stroke="#6F6F6F"
        stroke-width="1.26718" stroke-linecap="round" />
    <path d="M31.6504 176.445L31.6504 65.2832" stroke="#6F6F6F" stroke-width="1.26718"
        stroke-linecap="round" />
    <ellipse cx="0.748337" cy="0.748337" rx="0.748337" ry="0.748337"
        transform="matrix(3.24872e-08 1 1 -5.88134e-08 20.4961 137.395)" fill="#6F6F6F" />
    <path d="M21.2441 131.395L21.2441 100.506" stroke="#6F6F6F" stroke-width="1.26718"
        stroke-linecap="round" />
    <path
        d="M106.582 84.9404L74.0429 151.778C73.2976 153.309 74.4124 155.091 76.1151 155.091L211.528 155.091C213.257 155.091 214.371 153.258 213.573 151.724L178.835 84.8864C178.439 84.1233 177.65 83.6445 176.79 83.6445L108.654 83.6445C107.773 83.6445 106.968 84.1476 106.582 84.9404Z"
        stroke="#34C759" stroke-width="1.26718" />
    <path
        d="M106.582 84.9404L74.0429 151.778C73.2976 153.309 74.4124 155.091 76.1151 155.091L211.528 155.091C213.257 155.091 214.371 153.258 213.573 151.724L178.835 84.8864C178.439 84.1233 177.65 83.6445 176.79 83.6445L108.654 83.6445C107.773 83.6445 106.968 84.1476 106.582 84.9404Z"
        stroke="#34C759" stroke-width="1.26718" />
    <path
        d="M109.305 76.7305L100.171 76.7305C99.2756 76.7305 98.4612 77.2491 98.0825 78.0606L95.4766 83.6447"
        stroke="#34C759" stroke-width="1.26718" stroke-linecap="round" />
    <path
        d="M171.533 76.7305L180.667 76.7305C181.562 76.7305 182.377 77.2491 182.755 78.0606L185.361 83.6447"
        stroke="#34C759" stroke-width="1.26718" stroke-linecap="round" />
    <path
        d="M64.1329 155.09L61.9794 161.243C61.4549 162.741 62.5671 164.309 64.1547 164.309L72.4299 164.309"
        stroke="#34C759" stroke-width="1.26718" stroke-linecap="round" />
    <path
        d="M221.316 155.09L223.47 161.243C223.994 162.741 222.882 164.309 221.294 164.309L213.019 164.309"
        stroke="#34C759" stroke-width="1.26718" stroke-linecap="round" />
    <path
        d="M144.893 94.2852C144.893 93.6488 145.409 93.1328 146.045 93.1328L166.449 93.1328C166.959 93.1328 167.408 93.468 167.553 93.9568L168.658 93.6284L167.553 93.9568L174.326 116.737C174.545 117.476 173.992 118.218 173.221 118.218L144.893 118.218L144.893 94.2852Z"
        fill="#34C759" stroke="#34C759" stroke-width="2.30474" />
    <path
        d="M117.397 121.196C117.607 120.487 118.259 120.001 118.999 120.001L143.155 120.001L144.963 144.328C145.035 145.297 144.268 146.123 143.296 146.123L112.226 146.123C111.109 146.123 110.306 145.047 110.624 143.976L117.397 121.196Z"
        stroke="#6F6F6F" stroke-width="1.26718" />
</svg>
