<svg width="108" height="108" viewBox="0 0 108 108" fill="none" xmlns="http://www.w3.org/2000/svg">
    <circle cx="54" cy="54" r="54" fill="#AEAEB2" fill-opacity="0.1" />
    <rect x="40.5" y="32.5" width="27" height="27" rx="1.5" stroke="#34C759" />
    <rect x="44.5" y="36.5" width="19" height="19" rx="1.5" stroke="#6F6F6F" />
    <line x1="63" y1="46.5" x2="44" y2="46.5" stroke="#6F6F6F" />
    <line x1="54.5" y1="36" x2="54.5" y2="55" stroke="#6F6F6F" />
    <rect x="36" y="71" width="35" height="6" rx="3" fill="#34C759" />
    <ellipse cx="49.7054" cy="39.0949" rx="0.961538" ry="1.09489" fill="#6F6F6F" />
    <rect x="48.9362" y="40.0146" width="1.57692" height="0.70073" rx="0.350365" fill="#6F6F6F" />
    <rect x="48.2055" y="43.2993" width="3" height="0.70073" rx="0.350365" fill="#6F6F6F" />
    <path
        d="M48.5132 42.4672H50.8978C50.8978 42.9993 50.4664 43.4307 49.9343 43.4307H49.4767C48.9446 43.4307 48.5132 42.9993 48.5132 42.4672Z"
        fill="#6F6F6F" />
    <path
        d="M49.7825 42.4672L49.7402 40.6715H49.1055C49.1055 40.8734 49.1175 41.3988 48.9575 41.8199C48.8305 42.154 48.6261 42.3906 48.5132 42.4672H49.7825Z"
        fill="#6F6F6F" />
    <path
        d="M49.6286 42.4672L49.6709 40.6715H50.3055C50.3055 40.8734 50.2936 41.3988 50.4536 41.8199C50.5805 42.154 50.785 42.3906 50.8978 42.4672H49.6286Z"
        fill="#6F6F6F" />
    <ellipse cx="58.7054" cy="49.0949" rx="0.961538" ry="1.09489" fill="#6F6F6F" />
    <rect x="57.9362" y="50.0146" width="1.57692" height="0.70073" rx="0.350365" fill="#6F6F6F" />
    <rect x="57.2055" y="53.2993" width="3" height="0.70073" rx="0.350365" fill="#6F6F6F" />
    <path
        d="M57.5132 52.4672H59.8978C59.8978 52.9993 59.4664 53.4307 58.9343 53.4307H58.4767C57.9446 53.4307 57.5132 52.9993 57.5132 52.4672Z"
        fill="#6F6F6F" />
    <path
        d="M58.7825 52.4672L58.7402 50.6715H58.1055C58.1055 50.8734 58.1175 51.3988 57.9575 51.8199C57.8305 52.154 57.6261 52.3906 57.5132 52.4672H58.7825Z"
        fill="#6F6F6F" />
    <path
        d="M58.6286 52.4672L58.6709 50.6715H59.3055C59.3055 50.8734 59.2936 51.3988 59.4536 51.8199C59.5805 52.154 59.785 52.3906 59.8978 52.4672H58.6286Z"
        fill="#6F6F6F" />
    <rect x="32.5" y="16.5" width="43" height="76" rx="5.5" stroke="#6F6F6F" />
    <path
        d="M49 21.5C48.7239 21.5 48.5 21.7239 48.5 22C48.5 22.2761 48.7239 22.5 49 22.5V21.5ZM59 22.5C59.2761 22.5 59.5 22.2761 59.5 22C59.5 21.7239 59.2761 21.5 59 21.5V22.5ZM49 22.5H59V21.5H49V22.5Z"
        fill="#6F6F6F" />
    <path d="M33 84H75" stroke="#6F6F6F" />
</svg>
