<svg width="261" height="246" viewBox="0 0 261 246" fill="none" xmlns="http://www.w3.org/2000/svg">
    <rect x="0.635" y="-0.635" width="243.672" height="121.798" rx="14.365"
        transform="matrix(1 -1.02525e-07 -7.61986e-08 -1 8.38477 180.484)" stroke="#6F6F6F"
        stroke-width="1.27" stroke-linecap="round" />
    <path d="M31.7012 176.574L31.7012 65.1651" stroke="#6F6F6F" stroke-width="1.27"
        stroke-linecap="round" />
    <path d="M21.2734 131.781L21.2734 100.824" stroke="#6F6F6F" stroke-width="1.27"
        stroke-linecap="round" />
    <ellipse cx="0.75" cy="0.75" rx="0.75" ry="0.75"
        transform="matrix(3.24872e-08 1 1 -5.88134e-08 20.5234 137.781)" fill="#6F6F6F" />
    <rect x="207" y="167" width="95" height="18" rx="9" transform="rotate(-90 207 167)"
        fill="#34C759" />
    <path
        d="M216.009 167C211.034 167 207 163.144 207 158.387L207 80.8719C207 76.1151 211.034 72.259 216.009 72.259C220.985 72.259 225.019 76.1151 225.019 80.8719L225.019 158.387C225.019 163.144 220.985 167 216.009 167Z"
        fill="#34C759" />
    <g clip-path="url(#clip0_22024_207859)">
        <path
            d="M226.968 89.5783L225.25 82.6979L217.551 96.4057L230.79 104.885L229.051 97.9204C241.633 95.8256 253.298 100.145 257.926 108.369C257.96 106.93 257.807 105.486 257.45 104.058C254.758 93.2747 241.471 87.1631 226.968 89.5783Z"
            fill="#6F6F6F" />
    </g>
    <ellipse cx="111.5" cy="97.2439" rx="2.88462" ry="2.91971" fill="#6F6F6F" />
    <rect x="109.193" y="99.6914" width="4.73077" height="1.86861" rx="0.934306" fill="#6F6F6F" />
    <rect x="107" y="108.453" width="9" height="1.86862" rx="0.934309" fill="#6F6F6F" />
    <path
        d="M107.924 106.234L115.078 106.234C115.078 107.653 113.927 108.804 112.508 108.804H110.493C109.074 108.804 107.924 107.653 107.924 106.234Z"
        fill="#6F6F6F" />
    <path
        d="M111.73 106.238L111.604 101.449L109.7 101.449C109.7 101.987 109.735 103.389 109.255 104.512C108.875 105.402 108.261 106.033 107.923 106.238L111.73 106.238Z"
        fill="#6F6F6F" />
    <path
        d="M111.27 106.238L111.396 101.449L113.3 101.449C113.3 101.987 113.265 103.389 113.745 104.512C114.125 105.402 114.739 106.033 115.077 106.238L111.27 106.238Z"
        fill="#6F6F6F" />
    <ellipse cx="144.5" cy="129.92" rx="2.88462" ry="2.91971" fill="#6F6F6F" />
    <rect x="142.193" y="132.367" width="4.73077" height="1.86861" rx="0.934306" fill="#6F6F6F" />
    <rect x="140" y="141.129" width="9" height="1.86862" rx="0.934309" fill="#6F6F6F" />
    <path
        d="M140.924 138.91L148.078 138.91C148.078 140.329 146.927 141.48 145.508 141.48L143.493 141.48C142.074 141.48 140.924 140.329 140.924 138.91Z"
        fill="#6F6F6F" />
    <path
        d="M144.73 138.913L144.604 134.125H142.7C142.7 134.663 142.735 136.064 142.255 137.187C141.875 138.078 141.261 138.709 140.923 138.913H144.73Z"
        fill="#6F6F6F" />
    <path
        d="M144.27 138.913L144.396 134.125H146.3C146.3 134.663 146.265 136.064 146.745 137.187C147.125 138.078 147.739 138.709 148.077 138.913H144.27Z"
        fill="#6F6F6F" />
    <rect x="81.312" y="165.118" width="92.2572" height="93.9047" rx="2.47118"
        transform="rotate(-90 81.312 165.118)" stroke="#34C759" stroke-width="1.64745" />
    <rect x="96.1401" y="151.942" width="64.2506" height="64.2506" rx="2.47118"
        transform="rotate(-90 96.1401 151.942)" stroke="#565656" stroke-width="1.64745" />
    <line x1="129.089" y1="88.5156" x2="129.089" y2="152.766" stroke="#565656"
        stroke-width="1.64745" />
    <line x1="95.3164" y1="118.993" x2="159.567" y2="118.993" stroke="#565656"
        stroke-width="1.64745" />
    <defs>
        <clipPath id="clip0_22024_207859">
            <rect width="36.857" height="36.857" fill="white"
                transform="translate(223.445 120.012) rotate(-104.019)" />
        </clipPath>
    </defs>
</svg>
