<svg width="261" height="258" viewBox="0 0 261 258" fill="none" xmlns="http://www.w3.org/2000/svg">
    <ellipse cx="139.724" cy="49.167" rx="27.06" ry="25.6358" fill="#34C759" />
    <path d="M91.0109 224.793L74.5336 253.435H153.209" stroke="#6F6F6F" stroke-width="0.987672"
        stroke-linecap="round" stroke-linejoin="round" />
    <path d="M96.2638 213.927L105.098 198.105L192 198.105" stroke="#6F6F6F" stroke-width="0.987672"
        stroke-linecap="round" stroke-linejoin="round" />
    <path d="M132.809 54.1082L128.886 47.9961L126.598 49.6045L130.521 55.7166L132.809 54.1082Z"
        fill="#6F6F6F" />
    <path
        d="M104.044 67.6191C109.547 60.4284 122.992 54.4707 126.152 52.4334L127.382 54.2784C127.382 54.2784 110.777 62.8884 106.986 67.6191C101.552 74.4007 101.552 78.2634 97.8335 92.0675C93.3649 108.658 92.9417 121.313 91.9499 140.321C91.2504 153.724 90.6424 177.278 90.6424 188.631H86.7199C86.7199 184.658 88.1582 170.431 88.6812 140.321C89.0089 121.451 91.9169 103.171 95.5454 90.459C98.4873 78.8782 100.709 71.977 104.044 67.6191Z"
        fill="#6F6F6F" />
    <path
        d="M85.7393 191.148H91.9499L93.2573 216.239C96.526 216.239 103.39 215.918 104.371 216.883C105.352 217.848 105.256 220.421 103.063 220.421H85.7393C85.7393 220.421 84.9766 200.262 85.7393 191.148Z"
        fill="#6F6F6F" />
    <path
        d="M128.886 47.9961L128.532 47.493C128.67 47.3966 128.84 47.3603 129.005 47.3926C129.169 47.4249 129.313 47.5229 129.404 47.6639L128.886 47.9961ZM132.809 54.1082L133.326 53.776C133.504 54.0534 133.432 54.4218 133.162 54.6113L132.809 54.1082ZM130.521 55.7166L130.874 56.2198C130.737 56.3161 130.567 56.3524 130.402 56.3201C130.238 56.2878 130.093 56.1898 130.003 56.0488L130.521 55.7166ZM126.598 49.6045L126.08 49.9367C125.902 49.6593 125.975 49.2909 126.244 49.1014L126.598 49.6045ZM126.152 52.4334L125.818 51.9165C126.101 51.7344 126.477 51.8127 126.663 52.0922L126.152 52.4334ZM104.044 67.6191L104.532 67.9929L104.532 67.9929L104.044 67.6191ZM88.6812 140.321L88.0663 140.31L88.0663 140.31L88.6812 140.321ZM86.7199 188.631V189.246C86.3803 189.246 86.1049 188.971 86.1049 188.631H86.7199ZM90.6424 188.631H91.2574C91.2574 188.971 90.982 189.246 90.6424 189.246V188.631ZM91.9499 140.321L91.3357 140.289L91.9499 140.321ZM97.8335 92.0675L97.2397 91.9075L97.8335 92.0675ZM106.986 67.6191L106.506 67.2345L106.506 67.2345L106.986 67.6191ZM127.382 54.2784L127.893 53.9372C127.99 54.0827 128.021 54.2626 127.977 54.4318C127.934 54.6011 127.82 54.7439 127.665 54.8243L127.382 54.2784ZM91.9499 191.148V190.533C92.2771 190.533 92.547 190.789 92.564 191.116L91.9499 191.148ZM85.7393 191.148L85.1265 191.096C85.1531 190.778 85.4196 190.533 85.7393 190.533V191.148ZM85.7393 220.421V221.036C85.4087 221.036 85.1373 220.775 85.1248 220.445L85.7393 220.421ZM104.371 216.883L104.802 216.444L104.802 216.444L104.371 216.883ZM93.2573 216.239V216.854H92.6735L92.6432 216.271L93.2573 216.239ZM89.9886 222.058C90.3283 222.058 90.6036 222.333 90.6036 222.673C90.6036 223.013 90.3283 223.288 89.9886 223.288V222.058ZM85.7393 222.673H85.1243C85.1243 222.333 85.3997 222.058 85.7393 222.058V222.673ZM86.3543 230.715C86.3543 231.055 86.079 231.33 85.7393 231.33C85.3997 231.33 85.1243 231.055 85.1243 230.715H86.3543ZM95.5454 90.459L96.1415 90.6104L96.1393 90.6192L96.1368 90.6278L95.5454 90.459ZM129.404 47.6639L133.326 53.776L132.291 54.4403L128.369 48.3283L129.404 47.6639ZM133.162 54.6113L130.874 56.2198L130.167 55.2135L132.455 53.6051L133.162 54.6113ZM130.003 56.0488L126.08 49.9367L127.116 49.2724L131.038 55.3845L130.003 56.0488ZM126.244 49.1014L128.532 47.493L129.24 48.4992L126.952 50.1077L126.244 49.1014ZM126.485 52.9502C125.668 53.4773 124.202 54.2486 122.428 55.1968C120.639 56.1536 118.5 57.3085 116.291 58.6223C111.853 61.2615 107.207 64.4984 104.532 67.9929L103.556 67.2454C106.384 63.5491 111.212 60.2118 115.662 57.5651C117.897 56.2361 120.056 55.0701 121.848 54.1121C123.656 53.1455 125.056 52.4081 125.818 51.9165L126.485 52.9502ZM89.2961 140.331C89.0344 155.395 88.5438 166.487 88.1185 174.311C87.6918 182.161 87.3349 186.666 87.3349 188.631H86.1049C86.1049 186.623 86.4672 182.028 86.8903 174.244C87.3149 166.433 87.8049 155.357 88.0663 140.31L89.2961 140.331ZM86.7199 188.016H90.6424V189.246H86.7199V188.016ZM90.0274 188.631C90.0274 177.267 90.6357 153.702 91.3357 140.289L92.564 140.353C91.8651 153.746 91.2574 177.29 91.2574 188.631H90.0274ZM91.3357 140.289C92.3269 121.294 92.7511 108.572 97.2397 91.9075L98.4274 92.2274C93.9786 108.744 93.5565 121.332 92.564 140.353L91.3357 140.289ZM97.2397 91.9075C100.933 78.195 100.968 74.146 106.506 67.2345L107.466 68.0037C102.136 74.6553 102.17 78.3317 98.4274 92.2274L97.2397 91.9075ZM106.506 67.2345C107.513 65.9784 109.325 64.5109 111.418 63.0361C113.526 61.5507 115.972 60.0218 118.292 58.6458C120.612 57.269 122.813 56.0411 124.434 55.1577C125.244 54.7158 125.909 54.3599 126.373 54.1142C126.604 53.9914 126.785 53.8961 126.909 53.8315C126.971 53.7992 127.018 53.7745 127.05 53.7578C127.066 53.7495 127.078 53.7432 127.086 53.739C127.09 53.7368 127.093 53.7352 127.095 53.7341C127.096 53.7336 127.097 53.7332 127.098 53.7329C127.098 53.7327 127.098 53.7326 127.098 53.7325C127.099 53.7325 127.099 53.7324 127.382 54.2784C127.665 54.8243 127.665 54.8244 127.665 54.8244C127.665 54.8245 127.664 54.8245 127.664 54.8247C127.664 54.8249 127.663 54.8253 127.662 54.8258C127.66 54.8268 127.657 54.8283 127.653 54.8303C127.646 54.8344 127.634 54.8405 127.618 54.8486C127.587 54.8648 127.541 54.8891 127.48 54.921C127.358 54.9847 127.179 55.0791 126.949 55.2009C126.489 55.4446 125.828 55.7983 125.022 56.2376C123.411 57.1163 121.223 58.3366 118.919 59.7036C116.614 61.0715 114.198 62.5821 112.126 64.0416C110.04 65.5117 108.355 66.8945 107.466 68.0037L106.506 67.2345ZM91.9499 191.763H85.7393V190.533H91.9499V191.763ZM86.3522 191.199C85.9737 195.722 85.9729 203.011 86.0682 209.193C86.1159 212.279 86.1873 215.081 86.2468 217.111C86.2766 218.126 86.3034 218.948 86.3227 219.516C86.3324 219.8 86.3402 220.021 86.3456 220.171C86.3482 220.245 86.3503 220.302 86.3517 220.34C86.3525 220.36 86.353 220.374 86.3534 220.384C86.3535 220.388 86.3537 220.392 86.3538 220.395C86.3538 220.396 86.3538 220.397 86.3539 220.397C86.3539 220.398 86.3539 220.398 86.3539 220.398C86.3539 220.398 86.3539 220.398 85.7393 220.421C85.1248 220.445 85.1248 220.444 85.1248 220.444C85.1248 220.444 85.1247 220.444 85.1247 220.444C85.1247 220.443 85.1247 220.442 85.1246 220.441C85.1245 220.438 85.1244 220.435 85.1242 220.43C85.1238 220.42 85.1233 220.405 85.1226 220.386C85.1212 220.347 85.1191 220.29 85.1163 220.215C85.1109 220.065 85.1031 219.843 85.0934 219.558C85.074 218.988 85.0472 218.164 85.0173 217.147C84.9577 215.113 84.8861 212.305 84.8384 209.212C84.7431 203.035 84.7422 195.688 85.1265 191.096L86.3522 191.199ZM85.7393 219.806H103.063V221.036H85.7393V219.806ZM103.063 219.806C103.485 219.806 103.756 219.686 103.933 219.535C104.115 219.38 104.244 219.155 104.308 218.876C104.444 218.285 104.253 217.63 103.94 217.321L104.802 216.444C105.469 217.101 105.722 218.215 105.507 219.152C105.395 219.637 105.15 220.115 104.729 220.473C104.302 220.835 103.738 221.036 103.063 221.036V219.806ZM103.94 217.321C103.942 217.323 103.921 217.303 103.853 217.27C103.788 217.239 103.696 217.204 103.574 217.169C103.33 217.098 103.003 217.036 102.603 216.985C101.804 216.884 100.778 216.834 99.6612 216.814C97.4129 216.774 94.9295 216.854 93.2573 216.854V215.624C94.8539 215.624 97.4369 215.544 99.6832 215.584C100.814 215.604 101.892 215.655 102.758 215.765C103.19 215.82 103.586 215.891 103.917 215.987C104.228 216.077 104.566 216.212 104.802 216.444L103.94 217.321ZM92.6432 216.271L91.3357 191.18L92.564 191.116L93.8715 216.207L92.6432 216.271ZM89.9886 223.288H85.7393V222.058H89.9886V223.288ZM86.3543 222.673V230.715H85.1243V222.673H86.3543ZM104.532 67.9929C101.288 72.2329 99.09 79.0034 96.1415 90.6104L94.9494 90.3076C97.8845 78.753 100.131 71.7212 103.556 67.2454L104.532 67.9929ZM96.1368 90.6278C92.5241 103.284 89.623 121.511 89.2961 140.331L88.0663 140.31C88.3949 121.391 91.3097 103.058 94.954 90.2902L96.1368 90.6278ZM126.87 54.6195L125.64 52.7745L126.663 52.0922L127.893 53.9372L126.87 54.6195Z"
        fill="#6F6F6F" />
    <path
        d="M130.454 37.0625C131.123 37.0625 131.438 38.6492 131.438 39.1112H129.098C129.224 38.2925 129.786 37.0625 130.454 37.0625Z"
        fill="#6F6F6F" />
    <path
        d="M148.852 42.1696C148.852 41.13 148.183 40.7835 147.514 40.7835H130.455C129.767 40.7835 129.098 41.13 129.098 42.1696C129.098 43.2092 129.767 43.5557 130.455 43.5557H147.514C148.183 43.5557 148.852 43.2785 148.852 42.1696Z"
        fill="#6F6F6F" />
    <path
        d="M131.438 39.1112H131.932C131.932 39.3839 131.711 39.605 131.438 39.605V39.1112ZM129.098 39.1112V39.605C128.954 39.605 128.817 39.5421 128.723 39.4327C128.629 39.3233 128.588 39.1784 128.61 39.0359L129.098 39.1112ZM147.514 40.7835L147.514 41.2773H147.514V40.7835ZM130.944 39.1112C130.944 38.9454 130.878 38.4896 130.732 38.0797C130.659 37.8763 130.579 37.7202 130.503 37.6243C130.425 37.5252 130.407 37.5563 130.454 37.5563L130.454 36.5687C130.836 36.5687 131.109 36.7981 131.277 37.011C131.448 37.227 131.572 37.4964 131.662 37.7474C131.84 38.2464 131.932 38.8149 131.932 39.1112H130.944ZM130.454 37.5563C130.445 37.5563 130.395 37.5604 130.301 37.6416C130.207 37.7223 130.102 37.8527 129.999 38.0292C129.792 38.3832 129.64 38.836 129.586 39.1865L128.61 39.0359C128.682 38.5677 128.874 37.9961 129.147 37.5305C129.283 37.2971 129.452 37.0689 129.656 36.8934C129.859 36.7184 130.13 36.5687 130.454 36.5687L130.454 37.5563ZM129.098 38.6174H131.438V39.605H129.098V38.6174ZM147.514 40.2897C147.926 40.2896 148.389 40.3956 148.757 40.713C149.137 41.0418 149.345 41.5371 149.345 42.1696H148.358C148.358 41.7625 148.232 41.5648 148.111 41.4604C147.977 41.3446 147.771 41.2773 147.514 41.2773L147.514 40.2897ZM149.345 42.1696C149.345 42.827 149.143 43.332 148.749 43.6586C148.373 43.9706 147.905 44.0496 147.514 44.0496V43.0619C147.793 43.0619 147.993 43.0023 148.118 42.8984C148.226 42.8092 148.358 42.6211 148.358 42.1696H149.345ZM147.514 44.0496H130.455V43.0619H147.514V44.0496ZM130.455 44.0496C130.036 44.0496 129.568 43.945 129.197 43.6278C128.813 43.2987 128.604 42.8022 128.604 42.1696H129.592C129.592 42.5766 129.718 42.7732 129.839 42.8773C129.975 42.9932 130.185 43.0619 130.455 43.0619V44.0496ZM128.604 42.1696C128.604 41.537 128.813 41.0406 129.197 40.7114C129.568 40.3943 130.036 40.2897 130.455 40.2897V41.2773C130.185 41.2773 129.975 41.346 129.839 41.462C129.718 41.566 129.592 41.7626 129.592 42.1696H128.604ZM130.455 40.2897H147.514V41.2773H130.455V40.2897Z"
        fill="#6F6F6F" />
    <path
        d="M143.16 52.128C145.063 50.5297 149.373 45.7211 150.134 44.4425C150.562 43.7241 150.891 43.067 150.749 41.9825C150.529 40.3138 149.291 38.2106 149.099 37.694C148.782 37.0546 149.941 36.8701 150.749 37.6775C151.979 38.9075 153.955 41.7579 151.364 45.6725C150.73 46.6315 147.674 49.9775 143.16 54.3414V55.9639L145.063 61.3981L142.05 59.1605L139.037 56.9229L132.377 61.0784L135.231 55.9639V53.7263C134.576 52.7673 133.772 51.5526 133.011 50.5297C132.25 49.5068 130.685 46.6558 129.839 45.0575H131.742C132.165 46.1231 133.333 47.9799 133.963 48.9315C135.231 50.8494 136.649 52.1608 137.451 52.7673C138.72 53.7263 140.896 54.0299 143.16 52.128Z"
        fill="#6F6F6F" />
    <path
        d="M150.134 44.4425L150.558 44.6951L150.558 44.6951L150.134 44.4425ZM143.16 52.128L143.478 52.5062L143.478 52.5062L143.16 52.128ZM137.451 52.7673L137.749 52.3734L137.749 52.3734L137.451 52.7673ZM133.963 48.9315L133.551 49.2039L133.551 49.2039L133.963 48.9315ZM131.742 45.0575V44.5637C131.945 44.5637 132.126 44.6872 132.201 44.8754L131.742 45.0575ZM129.839 45.0575L129.402 45.2885C129.321 45.1355 129.327 44.9511 129.416 44.8028C129.505 44.6544 129.666 44.5637 129.839 44.5637V45.0575ZM133.011 50.5297L133.407 50.2349L133.407 50.2349L133.011 50.5297ZM135.231 53.7263L135.639 53.4477C135.695 53.5298 135.725 53.6269 135.725 53.7263H135.231ZM135.231 55.9639H135.725C135.725 56.0482 135.703 56.131 135.662 56.2046L135.231 55.9639ZM132.377 61.0784L132.638 61.4974C132.447 61.6167 132.199 61.5914 132.036 61.436C131.873 61.2806 131.836 61.0345 131.945 60.8378L132.377 61.0784ZM139.037 56.9229L138.776 56.5039C138.948 56.3964 139.168 56.4053 139.331 56.5264L139.037 56.9229ZM145.063 61.3981L145.529 61.2349C145.601 61.4396 145.531 61.6672 145.356 61.7958C145.181 61.9244 144.943 61.9239 144.769 61.7946L145.063 61.3981ZM143.16 55.9639L142.694 56.1271C142.676 56.0747 142.666 56.0195 142.666 55.9639H143.16ZM143.16 54.3414H142.666C142.666 54.2075 142.721 54.0794 142.817 53.9863L143.16 54.3414ZM151.364 45.6725L150.953 45.4L150.953 45.4L151.364 45.6725ZM150.749 37.6775L150.4 38.0267L150.4 38.0267L150.749 37.6775ZM149.099 37.694L149.541 37.4746L149.553 37.4976L149.562 37.5217L149.099 37.694ZM142.05 59.1605L141.756 59.557L141.756 59.557L142.05 59.1605ZM150.749 41.9825L150.259 42.0469L150.259 42.0469L150.749 41.9825ZM150.558 44.6951C150.148 45.3847 148.843 46.9442 147.442 48.4964C146.03 50.0594 144.458 51.6833 143.478 52.5062L142.843 51.7499C143.766 50.9745 145.299 49.395 146.709 47.8344C148.128 46.2631 149.359 44.7789 149.709 44.1899L150.558 44.6951ZM137.154 53.1613C136.311 52.5241 134.853 51.1726 133.551 49.2039L134.374 48.659C135.61 50.5262 136.987 51.7976 137.749 52.3734L137.154 53.1613ZM133.551 49.2039C132.927 48.2606 131.728 46.3611 131.283 45.2397L132.201 44.8754C132.602 45.885 133.739 47.6993 134.374 48.659L133.551 49.2039ZM131.742 45.5514H129.839V44.5637H131.742V45.5514ZM130.275 44.8266C131.128 46.4373 132.674 49.2493 133.407 50.2349L132.615 50.8246C131.826 49.7644 130.242 46.8744 129.402 45.2885L130.275 44.8266ZM133.407 50.2349C134.176 51.2684 134.99 52.4981 135.639 53.4477L134.823 54.005C134.161 53.0365 133.368 51.8369 132.615 50.8246L133.407 50.2349ZM135.725 53.7263V55.9639H134.737V53.7263H135.725ZM135.662 56.2046L132.808 61.3191L131.945 60.8378L134.8 55.7232L135.662 56.2046ZM132.115 60.6595L138.776 56.5039L139.298 57.3419L132.638 61.4974L132.115 60.6595ZM144.597 61.5613L142.694 56.1271L143.626 55.8007L145.529 61.2349L144.597 61.5613ZM142.666 55.9639V54.3414H143.654V55.9639H142.666ZM142.817 53.9863C145.069 51.8092 146.956 49.8875 148.357 48.3924C149.77 46.8844 150.662 45.8386 150.953 45.4L151.776 45.9451C151.432 46.4655 150.479 47.5721 149.077 49.0678C147.664 50.5764 145.765 52.5097 143.503 54.6964L142.817 53.9863ZM150.953 45.4C152.178 43.5484 152.299 41.9963 152.009 40.7831C151.714 39.5492 150.979 38.6064 150.4 38.0267L151.098 37.3283C151.748 37.9787 152.617 39.0761 152.97 40.5535C153.328 42.0516 153.142 43.8821 151.776 45.9451L150.953 45.4ZM150.4 38.0267C150.086 37.7133 149.731 37.622 149.538 37.6358C149.432 37.6434 149.449 37.6732 149.493 37.6192C149.569 37.5262 149.524 37.4399 149.541 37.4746L148.657 37.9133C148.515 37.6283 148.497 37.2792 148.726 36.997C148.923 36.7539 149.222 36.6682 149.467 36.6506C149.976 36.6142 150.604 36.8343 151.098 37.3283L150.4 38.0267ZM143.478 52.5062C141.048 54.547 138.617 54.2676 137.154 53.1613L137.749 52.3734C138.823 53.185 140.744 53.5129 142.843 51.7499L143.478 52.5062ZM139.331 56.5264L142.345 58.764L141.756 59.557L138.743 57.3194L139.331 56.5264ZM142.345 58.764L145.358 61.0016L144.769 61.7946L141.756 59.557L142.345 58.764ZM149.562 37.5217C149.598 37.6201 149.696 37.817 149.85 38.1282C149.996 38.424 150.179 38.7945 150.364 39.2029C150.728 40.0098 151.119 41.0079 151.238 41.9181L150.259 42.0469C150.159 41.2883 149.821 40.4006 149.464 39.6095C149.287 39.2189 149.111 38.8625 148.965 38.5665C148.826 38.2859 148.696 38.0262 148.636 37.8662L149.562 37.5217ZM151.238 41.9181C151.403 43.1673 151.006 43.943 150.558 44.6951L149.709 44.1899C150.117 43.5051 150.38 42.9668 150.259 42.0469L151.238 41.9181Z"
        fill="#6F6F6F" />
    <g clip-path="url(#clip0_22024_207813)">
        <path
            d="M169.093 88.1411L175.663 86.5007L162.425 78.5527L154.477 91.7906L161.128 90.13C163.303 102.846 159.321 114.553 151.503 119.11C152.882 119.163 154.263 119.028 155.627 118.688C165.923 116.117 171.602 102.8 169.093 88.1411Z"
            fill="#6F6F6F" />
    </g>
    <g clip-path="url(#clip1_22024_207813)">
        <path
            d="M103.779 19.9316L106.575 13.7643L112.011 28.2166L97.5587 33.6521L100.389 27.409C88.2722 22.9801 76.04 24.7903 70.1503 31.6608C70.3461 30.2945 70.7275 28.9601 71.3079 27.68C75.6899 18.0143 89.8118 14.8258 103.779 19.9316Z"
            fill="#6F6F6F" />
    </g>
    <path d="M137.252 198.191L110.818 252.926" stroke="#6F6F6F" stroke-width="1.23"
        stroke-linecap="round" stroke-linejoin="round" />
    <path d="M157.352 198.191L139.111 250.466" stroke="#6F6F6F" stroke-width="1.23"
        stroke-linecap="round" stroke-linejoin="round" />
    <path d="M177.221 198.77L167.592 234.867" stroke="#6F6F6F" stroke-width="1.23"
        stroke-linecap="round" stroke-linejoin="round" />
    <path d="M132.344 210.488H185.234" stroke="#6F6F6F" stroke-width="1.23" stroke-linecap="round"
        stroke-linejoin="round" />
    <path d="M124.964 224.02H179.084" stroke="#6F6F6F" stroke-width="1.23" stroke-linecap="round"
        stroke-linejoin="round" />
    <path d="M117.585 238.781H161.865" stroke="#6F6F6F" stroke-width="1.23" stroke-linecap="round"
        stroke-linejoin="round" />
    <ellipse cx="133.574" cy="218.552" rx="3.15385" ry="3.14234" fill="#6F6F6F" />
    <rect x="131.051" y="221.191" width="5.17231" height="2.01109" rx="1.00555" fill="#6F6F6F" />
    <rect x="128.654" y="230.617" width="9.84" height="2.0111" rx="1.00555" fill="#6F6F6F" />
    <path
        d="M129.664 228.23H137.486V228.23C137.486 229.758 136.248 230.996 134.72 230.996H132.429C130.902 230.996 129.664 229.758 129.664 228.23V228.23Z"
        fill="#6F6F6F" />
    <path
        d="M133.826 228.232L133.687 223.078H131.606C131.606 223.657 131.645 225.165 131.12 226.374C130.704 227.333 130.033 228.012 129.663 228.232H133.826Z"
        fill="#6F6F6F" />
    <path
        d="M133.322 228.232L133.461 223.078H135.543C135.543 223.657 135.503 225.165 136.028 226.374C136.445 227.333 137.115 228.012 137.485 228.232H133.322Z"
        fill="#6F6F6F" />
    <ellipse cx="161.865" cy="203.791" rx="3.15385" ry="3.14234" fill="#6F6F6F" />
    <rect x="159.34" y="206.43" width="5.17231" height="2.01109" rx="1.00555" fill="#6F6F6F" />
    <rect x="156.945" y="215.855" width="9.84" height="2.0111" rx="1.00555" fill="#6F6F6F" />
    <path
        d="M157.953 213.469H165.775V213.469C165.775 214.996 164.537 216.234 163.009 216.234H160.718C159.191 216.234 157.953 214.996 157.953 213.469V213.469Z"
        fill="#6F6F6F" />
    <path
        d="M162.117 213.47L161.978 208.316H159.897C159.897 208.896 159.936 210.404 159.411 211.612C158.995 212.571 158.324 213.25 157.954 213.47H162.117Z"
        fill="#6F6F6F" />
    <path
        d="M161.613 213.47L161.752 208.316H163.834C163.834 208.896 163.794 210.404 164.319 211.612C164.736 212.571 165.406 213.25 165.776 213.47H161.613Z"
        fill="#6F6F6F" />
    <defs>
        <clipPath id="clip0_22024_207813">
            <rect width="37.2927" height="37.2927" fill="white"
                transform="translate(139.725 84.2227) rotate(-14.0195)" />
        </clipPath>
        <clipPath id="clip1_22024_207813">
            <rect width="37.2927" height="37.2927" fill="white"
                transform="matrix(0.412925 -0.910765 -0.910765 -0.412925 102.35 49.5234)" />
        </clipPath>
    </defs>
</svg>
