<svg width="261" height="246" viewBox="0 0 261 246" fill="none" xmlns="http://www.w3.org/2000/svg">
    <path
        d="M65.2222 65.3446L3.73697 210.768C3.3817 211.608 3.99854 212.538 4.91082 212.538H258.03C258.955 212.538 259.572 211.583 259.192 210.74L193.552 65.3166C193.346 64.8599 192.891 64.5664 192.39 64.5664H66.3961C65.884 64.5664 65.4216 64.8729 65.2222 65.3446Z"
        stroke="#6F6F6F" stroke-width="1.27447" />
    <line x1="61.4048" y1="91.7339" x2="193.619" y2="91.7339" stroke="#6F6F6F"
        stroke-width="1.27447" stroke-linecap="round" />
    <line x1="58.4146" y1="125.499" x2="167.716" y2="125.499" stroke="#6F6F6F"
        stroke-width="1.27447" stroke-linecap="round" />
    <line x1="36.5005" y1="159.265" x2="211.55" y2="159.265" stroke="#6F6F6F" stroke-width="1.27447"
        stroke-linecap="round" />
    <line x1="0.637235" y1="-0.637235" x2="124.947" y2="-0.637235"
        transform="matrix(-0.261113 0.965308 -0.965714 -0.259609 97.625 77.4766)" stroke="#6F6F6F"
        stroke-width="1.27447" stroke-linecap="round" />
    <line x1="138.11" y1="71.1607" x2="138.11" y2="191.044" stroke="#6F6F6F" stroke-width="1.27447"
        stroke-linecap="round" />
    <line x1="0.637235" y1="-0.637235" x2="121.072" y2="-0.637235"
        transform="matrix(0.270102 0.962832 -0.963265 0.268554 171.344 84.4258)" stroke="#6F6F6F"
        stroke-width="1.27447" stroke-linecap="round" />
    <ellipse cx="41.2707" cy="159.206" rx="7.29805" ry="7.24891" fill="#6F6F6F" />
    <rect x="35.4375" y="165.297" width="11.9688" height="4.6393" rx="2.31965" fill="#6F6F6F" />
    <rect x="29.8867" y="187.035" width="22.7699" height="4.63931" rx="2.31966" fill="#6F6F6F" />
    <path
        d="M32.2227 181.535H50.3218C50.3218 185.058 47.4658 187.914 43.9428 187.914H38.6017C35.0787 187.914 32.2227 185.058 32.2227 181.535Z"
        fill="#6F6F6F" />
    <path
        d="M41.8555 181.537L41.5344 169.648H36.7176C36.7176 170.985 36.8081 174.463 35.5937 177.251C34.6304 179.463 33.0784 181.03 32.222 181.537H41.8555Z"
        fill="#6F6F6F" />
    <path
        d="M40.6875 181.537L41.0086 169.648H45.8253C45.8253 170.985 45.7349 174.463 46.9492 177.251C47.9126 179.463 49.4646 181.03 50.3209 181.537H40.6875Z"
        fill="#6F6F6F" />
    <ellipse cx="106.021" cy="163.179" rx="7.29805" ry="7.24891" fill="#6F6F6F" />
    <rect x="100.188" y="169.27" width="11.9688" height="4.6393" rx="2.31965" fill="#6F6F6F" />
    <rect x="94.6367" y="191.008" width="22.7699" height="4.63931" rx="2.31966" fill="#6F6F6F" />
    <path
        d="M96.9727 185.508H115.072C115.072 189.031 112.216 191.887 108.693 191.887H103.352C99.8287 191.887 96.9727 189.031 96.9727 185.508Z"
        fill="#6F6F6F" />
    <path
        d="M106.605 185.509L106.284 173.621H101.468C101.468 174.957 101.558 178.436 100.344 181.224C99.3804 183.436 97.8284 185.002 96.972 185.509H106.605Z"
        fill="#6F6F6F" />
    <path
        d="M105.438 185.509L105.759 173.621H110.575C110.575 174.957 110.485 178.436 111.699 181.224C112.663 183.436 114.215 185.002 115.071 185.509H105.438Z"
        fill="#6F6F6F" />
    <ellipse cx="171.771" cy="158.214" rx="7.29805" ry="7.24891" fill="#6F6F6F" />
    <rect x="165.938" y="164.305" width="11.9688" height="4.6393" rx="2.31965" fill="#6F6F6F" />
    <rect x="160.387" y="186.043" width="22.7699" height="4.63931" rx="2.31966" fill="#6F6F6F" />
    <path
        d="M162.723 180.543H180.822C180.822 184.066 177.966 186.922 174.443 186.922H169.102C165.579 186.922 162.723 184.066 162.723 180.543Z"
        fill="#6F6F6F" />
    <path
        d="M172.355 180.544L172.034 168.656H167.218C167.218 169.993 167.308 173.471 166.094 176.259C165.13 178.471 163.578 180.038 162.722 180.544H172.355Z"
        fill="#6F6F6F" />
    <path
        d="M171.188 180.544L171.509 168.656H176.325C176.325 169.993 176.235 173.471 177.449 176.259C178.413 178.471 179.965 180.038 180.821 180.544H171.188Z"
        fill="#6F6F6F" />
    <ellipse cx="223.571" cy="163.179" rx="7.29805" ry="7.24891" fill="#6F6F6F" />
    <rect x="217.738" y="169.27" width="11.9688" height="4.6393" rx="2.31965" fill="#6F6F6F" />
    <rect x="212.188" y="191.008" width="22.7699" height="4.63931" rx="2.31966" fill="#6F6F6F" />
    <path
        d="M214.523 185.508H232.623C232.623 189.031 229.767 191.887 226.244 191.887H220.902C217.379 191.887 214.523 189.031 214.523 185.508Z"
        fill="#6F6F6F" />
    <path
        d="M224.156 185.509L223.835 173.621H219.018C219.018 174.957 219.109 178.436 217.895 181.224C216.931 183.436 215.379 185.002 214.523 185.509H224.156Z"
        fill="#6F6F6F" />
    <path
        d="M222.988 185.509L223.309 173.621H228.126C228.126 174.957 228.036 178.436 229.25 181.224C230.213 183.436 231.765 185.002 232.622 185.509H222.988Z"
        fill="#6F6F6F" />
    <path
        d="M189.526 62.9548C189.526 65.3569 187.565 67.3042 185.147 67.3042C182.728 67.3042 180.768 65.3569 180.768 62.9548C180.768 60.5527 182.728 58.6055 185.147 58.6055C187.565 58.6055 189.526 60.5527 189.526 62.9548Z"
        fill="#6F6F6F" />
    <path
        d="M181.646 68.0018C181.646 67.2331 182.271 66.61 183.042 66.61H187.431C188.202 66.61 188.827 67.2331 188.827 68.0018C188.827 68.7705 188.202 69.3936 187.431 69.3936H183.042C182.271 69.3936 181.646 68.7705 181.646 68.0018Z"
        fill="#6F6F6F" />
    <path
        d="M178.316 81.0456C178.316 80.2769 178.941 79.6538 179.713 79.6538H190.582C191.353 79.6538 191.978 80.2769 191.978 81.0456C191.978 81.8142 191.353 82.4374 190.582 82.4374H179.713C178.941 82.4374 178.316 81.8142 178.316 81.0456Z"
        fill="#6F6F6F" />
    <path
        d="M179.718 76.3509H190.578C190.578 78.4648 188.859 80.1784 186.739 80.1784H183.558C181.437 80.1784 179.718 78.4648 179.718 76.3509Z"
        fill="#6F6F6F" />
    <path
        d="M185.497 76.3521L185.304 69.2192H182.414C182.414 70.021 182.469 72.1081 181.74 73.781C181.162 75.108 180.231 76.048 179.717 76.3521H185.497Z"
        fill="#6F6F6F" />
    <path
        d="M184.797 76.3521L184.989 69.2192H187.879C187.879 70.021 187.825 72.1081 188.554 73.781C189.132 75.108 190.063 76.048 190.577 76.3521H184.797Z"
        fill="#6F6F6F" />
    <path
        d="M189.526 62.9548C189.526 65.3569 187.565 67.3042 185.147 67.3042C182.728 67.3042 180.768 65.3569 180.768 62.9548C180.768 60.5527 182.728 58.6055 185.147 58.6055C187.565 58.6055 189.526 60.5527 189.526 62.9548Z"
        fill="#F7F7F8" />
    <path
        d="M181.646 68.0018C181.646 67.2331 182.271 66.61 183.042 66.61H187.431C188.202 66.61 188.827 67.2331 188.827 68.0018C188.827 68.7705 188.202 69.3936 187.431 69.3936H183.042C182.271 69.3936 181.646 68.7705 181.646 68.0018Z"
        fill="#F7F7F8" />
    <path
        d="M178.316 81.0456C178.316 80.2769 178.941 79.6538 179.713 79.6538H190.582C191.353 79.6538 191.978 80.2769 191.978 81.0456C191.978 81.8142 191.353 82.4374 190.582 82.4374H179.713C178.941 82.4374 178.316 81.8142 178.316 81.0456Z"
        fill="#F7F7F8" />
    <path
        d="M179.718 76.3509H190.578C190.578 78.4648 188.859 80.1784 186.739 80.1784H183.558C181.437 80.1784 179.718 78.4648 179.718 76.3509Z"
        fill="#F7F7F8" />
    <path
        d="M185.497 76.3521L185.304 69.2192H182.414C182.414 70.021 182.469 72.1081 181.74 73.781C181.162 75.108 180.231 76.048 179.717 76.3521H185.497Z"
        fill="#F7F7F8" />
    <path
        d="M184.797 76.3521L184.989 69.2192H187.879C187.879 70.021 187.825 72.1081 188.554 73.781C189.132 75.108 190.063 76.048 190.577 76.3521H184.797Z"
        fill="#F7F7F8" />
    <path
        d="M181.646 69.9862C181.646 69.2983 182.146 68.727 182.804 68.6145C182.881 68.6013 182.961 68.5944 183.042 68.5944H187.431C187.46 68.5944 187.488 68.5953 187.517 68.597C188.248 68.6412 188.827 69.2463 188.827 69.9862C188.827 70.7548 188.202 71.378 187.431 71.378H183.042C182.271 71.378 181.646 70.7548 181.646 69.9862Z"
        fill="#F7F7F8" />
    <path
        d="M178.316 83.0299C178.316 82.2613 178.941 81.6381 179.713 81.6381H190.582C191.353 81.6381 191.978 82.2613 191.978 83.0299C191.978 83.7986 191.353 84.4217 190.582 84.4217H179.713C178.941 84.4217 178.316 83.7986 178.316 83.0299Z"
        fill="#F7F7F8" />
    <path
        d="M179.718 78.3353L190.577 78.3365C190.577 80.4504 188.904 81.6381 186.784 81.6381H183.571C181.45 81.6381 179.718 80.4491 179.718 78.3353Z"
        fill="#F7F7F8" />
    <path
        d="M183.042 71.378H187.431M183.042 71.378C182.271 71.378 181.646 70.7548 181.646 69.9862C181.646 69.2983 182.146 68.727 182.804 68.6145M183.042 71.378C183.042 72.1797 182.469 74.0925 181.74 75.7654C181.162 77.0924 180.232 78.0312 179.718 78.3353M183.042 71.378H185.29M187.431 71.378C188.202 71.378 188.827 70.7548 188.827 69.9862C188.827 69.2463 188.248 68.6412 187.517 68.597M187.431 71.378C187.431 72.1797 187.825 74.0925 188.554 75.7654C189.132 77.0924 190.063 78.0324 190.577 78.3365M187.431 71.378H184.972M179.718 78.3353L190.577 78.3365M179.718 78.3353C179.718 80.4491 181.45 81.6381 183.571 81.6381H186.784C188.904 81.6381 190.577 80.4504 190.577 78.3365M179.718 78.3353L185.497 78.3365M190.577 78.3365H184.797M182.804 68.6145C182.881 68.6013 182.961 68.5944 183.042 68.5944H187.431C187.46 68.5944 187.488 68.5953 187.517 68.597M182.804 68.6145C181.58 67.8432 180.768 66.4854 180.768 64.9392C180.768 62.5371 182.728 60.5898 185.147 60.5898C187.565 60.5898 189.526 62.5371 189.526 64.9392C189.526 66.4738 188.725 67.8228 187.517 68.597M179.713 84.4217H190.582C191.353 84.4217 191.978 83.7986 191.978 83.0299C191.978 82.2613 191.353 81.6381 190.582 81.6381H179.713C178.941 81.6381 178.316 82.2613 178.316 83.0299C178.316 83.7986 178.941 84.4217 179.713 84.4217Z"
        stroke="#6F6F6F" />
    <path
        d="M149.767 68.0018C149.767 67.3139 150.268 66.7426 150.925 66.6301C151.003 66.6169 151.082 66.61 151.163 66.61H155.552C155.581 66.61 155.61 66.6109 155.638 66.6126C156.369 66.6568 156.948 67.2619 156.948 68.0018C156.948 68.7705 156.323 69.3936 155.552 69.3936H151.163C150.392 69.3936 149.767 68.7705 149.767 68.0018Z"
        fill="#F7F7F8" />
    <path
        d="M146.438 81.0456C146.438 80.2769 147.063 79.6538 147.834 79.6538H158.703C159.474 79.6538 160.099 80.2769 160.099 81.0456C160.099 81.8142 159.474 82.4374 158.703 82.4374H147.834C147.063 82.4374 146.438 81.8142 146.438 81.0456Z"
        fill="#F7F7F8" />
    <path
        d="M147.84 76.3509L158.698 76.3522C158.698 78.466 157.025 79.6538 154.905 79.6538H151.692C149.571 79.6538 147.84 78.4648 147.84 76.3509Z"
        fill="#F7F7F8" />
    <path
        d="M153.268 58.6055C150.85 58.6055 148.889 60.5527 148.889 62.9548C148.889 64.5011 149.701 65.8589 150.925 66.6301C151.003 66.6169 151.082 66.61 151.163 66.61H155.552C155.581 66.61 155.61 66.6109 155.638 66.6126C156.847 65.8384 157.647 64.4894 157.647 62.9548C157.647 60.5527 155.686 58.6055 153.268 58.6055Z"
        fill="#F7F7F8" />
    <path
        d="M155.552 69.3936H153.411H153.093H151.163C151.163 70.1954 150.59 72.1081 149.861 73.781C149.283 75.108 148.353 76.0468 147.84 76.3509L158.698 76.3522C158.184 76.048 157.253 75.108 156.675 73.781C155.946 72.1081 155.552 70.1954 155.552 69.3936Z"
        fill="#F7F7F8" />
    <path
        d="M151.163 69.3936H155.552M151.163 69.3936C150.392 69.3936 149.767 68.7705 149.767 68.0018C149.767 67.3139 150.268 66.7426 150.925 66.6301M151.163 69.3936C151.163 70.1954 150.59 72.1081 149.861 73.781C149.283 75.108 148.353 76.0468 147.84 76.3509M151.163 69.3936H153.411M151.163 69.3936H153.093M155.552 69.3936C156.323 69.3936 156.948 68.7705 156.948 68.0018C156.948 67.2619 156.369 66.6568 155.638 66.6126M155.552 69.3936C155.552 70.1954 155.946 72.1081 156.675 73.781C157.253 75.108 158.184 76.048 158.698 76.3522M155.552 69.3936H153.093M155.552 69.3936H153.411M147.84 76.3509L158.698 76.3522M147.84 76.3509C147.84 78.4648 149.571 79.6538 151.692 79.6538H154.905C157.025 79.6538 158.698 78.466 158.698 76.3522M147.84 76.3509L153.618 76.3522M158.698 76.3522H152.918M153.411 69.3936H153.093M150.925 66.6301C151.003 66.6169 151.082 66.61 151.163 66.61H155.552C155.581 66.61 155.61 66.6109 155.638 66.6126M150.925 66.6301C149.701 65.8589 148.889 64.5011 148.889 62.9548C148.889 60.5527 150.85 58.6055 153.268 58.6055C155.686 58.6055 157.647 60.5527 157.647 62.9548C157.647 64.4894 156.847 65.8384 155.638 66.6126M147.834 82.4374H158.703C159.474 82.4374 160.099 81.8142 160.099 81.0456C160.099 80.2769 159.474 79.6538 158.703 79.6538H147.834C147.063 79.6538 146.438 80.2769 146.438 81.0456C146.438 81.8142 147.063 82.4374 147.834 82.4374Z"
        stroke="#6F6F6F" />
    <path
        d="M113.906 71.9745C113.906 71.2866 114.406 70.7153 115.064 70.6028C115.141 70.5896 115.221 70.5827 115.302 70.5827H119.691C119.72 70.5827 119.748 70.5835 119.777 70.5853C120.508 70.6295 121.087 71.2345 121.087 71.9745C121.087 72.7431 120.462 73.3662 119.691 73.3662H115.302C114.531 73.3662 113.906 72.7431 113.906 71.9745Z"
        fill="#F7F7F8" />
    <path
        d="M110.576 85.0182C110.576 84.2495 111.201 83.6264 111.972 83.6264H122.842C123.613 83.6264 124.238 84.2495 124.238 85.0182C124.238 85.7869 123.613 86.41 122.842 86.41H111.972C111.201 86.41 110.576 85.7869 110.576 85.0182Z"
        fill="#F7F7F8" />
    <path
        d="M111.978 80.3236L122.836 80.3248C122.836 82.4386 121.164 83.6264 119.044 83.6264H115.83C113.71 83.6264 111.978 82.4374 111.978 80.3236Z"
        fill="#F7F7F8" />
    <path
        d="M117.407 62.5781C114.988 62.5781 113.028 64.5254 113.028 66.9275C113.028 68.4737 113.84 69.8315 115.064 70.6028C115.141 70.5896 115.221 70.5827 115.302 70.5827H119.691C119.72 70.5827 119.748 70.5835 119.777 70.5853C120.985 69.8111 121.785 68.4621 121.785 66.9275C121.785 64.5254 119.825 62.5781 117.407 62.5781Z"
        fill="#F7F7F8" />
    <path
        d="M119.691 73.3662H117.549H117.231H115.302C115.302 74.168 114.728 76.0808 114 77.7536C113.422 79.0807 112.492 80.0195 111.978 80.3236L122.836 80.3248C122.323 80.0207 121.391 79.0807 120.813 77.7536C120.085 76.0808 119.691 74.168 119.691 73.3662Z"
        fill="#F7F7F8" />
    <path
        d="M115.302 73.3662H119.691M115.302 73.3662C114.531 73.3662 113.906 72.7431 113.906 71.9745C113.906 71.2866 114.406 70.7153 115.064 70.6028M115.302 73.3662C115.302 74.168 114.728 76.0808 114 77.7536C113.422 79.0807 112.492 80.0195 111.978 80.3236M115.302 73.3662H117.549M115.302 73.3662H117.231M119.691 73.3662C120.462 73.3662 121.087 72.7431 121.087 71.9745C121.087 71.2345 120.508 70.6295 119.777 70.5853M119.691 73.3662C119.691 74.168 120.085 76.0808 120.813 77.7536C121.391 79.0807 122.323 80.0207 122.836 80.3248M119.691 73.3662H117.231M119.691 73.3662H117.549M111.978 80.3236L122.836 80.3248M111.978 80.3236C111.978 82.4374 113.71 83.6264 115.83 83.6264H119.044C121.164 83.6264 122.836 82.4386 122.836 80.3248M111.978 80.3236L117.757 80.3248M122.836 80.3248H117.056M117.549 73.3662H117.231M115.064 70.6028C115.141 70.5896 115.221 70.5827 115.302 70.5827H119.691C119.72 70.5827 119.748 70.5835 119.777 70.5853M115.064 70.6028C113.84 69.8315 113.028 68.4737 113.028 66.9275C113.028 64.5254 114.988 62.5781 117.407 62.5781C119.825 62.5781 121.785 64.5254 121.785 66.9275C121.785 68.4621 120.985 69.8111 119.777 70.5853M111.972 86.41H122.842C123.613 86.41 124.238 85.7869 124.238 85.0182C124.238 84.2496 123.613 83.6264 122.842 83.6264H111.972C111.201 83.6264 110.576 84.2496 110.576 85.0182C110.576 85.7869 111.201 86.41 111.972 86.41Z"
        stroke="#6F6F6F" />
    <path
        d="M76.0521 65.0252C76.0521 64.3374 76.5527 63.766 77.2105 63.6535C77.2877 63.6403 77.3672 63.6335 77.4482 63.6335H81.8373C81.8661 63.6335 81.8947 63.6343 81.9231 63.636C82.6542 63.6803 83.2334 64.2853 83.2334 65.0252C83.2334 65.7939 82.6083 66.417 81.8373 66.417H77.4482C76.6771 66.417 76.0521 65.7939 76.0521 65.0252Z"
        fill="#F7F7F8" />
    <path
        d="M72.7227 78.069C72.7227 77.3003 73.3477 76.6772 74.1188 76.6772H84.9885C85.7595 76.6772 86.3846 77.3003 86.3846 78.069C86.3846 78.8377 85.7595 79.4608 84.9885 79.4608H74.1188C73.3477 79.4608 72.7227 78.8377 72.7227 78.069Z"
        fill="#F7F7F8" />
    <path
        d="M74.1247 73.3744L84.983 73.3756C84.983 75.4894 83.3106 76.6772 81.1902 76.6772H77.9768C75.8565 76.6772 74.1247 75.4882 74.1247 73.3744Z"
        fill="#F7F7F8" />
    <path
        d="M79.553 55.6289C77.1347 55.6289 75.1742 57.5762 75.1742 59.9783C75.1742 61.5245 75.9866 62.8823 77.2105 63.6535C77.2877 63.6403 77.3672 63.6335 77.4482 63.6335H81.8373C81.8661 63.6335 81.8947 63.6343 81.9231 63.636C83.1317 62.8619 83.9319 61.5129 83.9319 59.9783C83.9319 57.5762 81.9714 55.6289 79.553 55.6289Z"
        fill="#F7F7F8" />
    <path
        d="M81.8373 66.417H79.6959H79.3779H77.4482C77.4482 67.2188 76.8749 69.1316 76.1463 70.8044C75.5683 72.1315 74.6385 73.0703 74.1247 73.3744L84.983 73.3756C84.4692 73.0715 83.5379 72.1315 82.9599 70.8044C82.2313 69.1316 81.8373 67.2188 81.8373 66.417Z"
        fill="#F7F7F8" />
    <path
        d="M77.4482 66.417H81.8373M77.4482 66.417C76.6771 66.417 76.0521 65.7939 76.0521 65.0252C76.0521 64.3374 76.5527 63.766 77.2105 63.6535M77.4482 66.417C77.4482 67.2188 76.8749 69.1316 76.1463 70.8044C75.5683 72.1315 74.6385 73.0703 74.1247 73.3744M77.4482 66.417H79.6959M77.4482 66.417H79.3779M81.8373 66.417C82.6083 66.417 83.2334 65.7939 83.2334 65.0252C83.2334 64.2853 82.6542 63.6803 81.9231 63.636M81.8373 66.417C81.8373 67.2188 82.2313 69.1316 82.9599 70.8044C83.5379 72.1315 84.4692 73.0715 84.983 73.3756M81.8373 66.417H79.3779M81.8373 66.417H79.6959M74.1247 73.3744L84.983 73.3756M74.1247 73.3744C74.1247 75.4882 75.8565 76.6772 77.9768 76.6772H81.1902C83.3106 76.6772 84.983 75.4894 84.983 73.3756M74.1247 73.3744L79.9033 73.3756M84.983 73.3756H79.2029M79.6959 66.417H79.3779M77.2105 63.6535C77.2877 63.6403 77.3672 63.6335 77.4482 63.6335H81.8373C81.8661 63.6335 81.8947 63.6343 81.9231 63.636M77.2105 63.6535C75.9866 62.8823 75.1742 61.5245 75.1742 59.9783C75.1742 57.5762 77.1347 55.6289 79.553 55.6289C81.9714 55.6289 83.9319 57.5762 83.9319 59.9783C83.9319 61.5129 83.1317 62.8619 81.9231 63.636M74.1188 79.4608H84.9885C85.7595 79.4608 86.3846 78.8377 86.3846 78.069C86.3846 77.3003 85.7595 76.6772 84.9885 76.6772H74.1188C73.3477 76.6772 72.7227 77.3003 72.7227 78.069C72.7227 78.8377 73.3477 79.4608 74.1188 79.4608Z"
        stroke="#6F6F6F" />
</svg>
