<svg width="169" height="137" viewBox="0 0 169 137" fill="none" xmlns="http://www.w3.org/2000/svg">
<path d="M136.679 12.0106C144.601 15.2646 157.613 21.4175 165.588 36.7656C173.562 52.1137 165.588 63.501 161.6 79.8394C156.967 98.8256 171.569 99.6434 140.168 129.845C131.367 138.31 65.0538 138.772 39.4857 133.805C13.9177 128.839 6.32849 109.244 1.10684 85.7806C-4.11479 62.3171 10.3429 39.8384 19.3458 25.2806C28.3486 10.7228 58.5829 1.49826 82.3504 0.128125C106.118 -1.24201 128.756 8.75648 136.679 12.0106Z" fill="#AEAEB2" fill-opacity="0.1"/>
<path d="M101.292 54.6089C101.292 53.7805 101.964 53.1089 102.792 53.1089H124.217V74.3737C124.217 75.2022 123.545 75.8737 122.717 75.8737H101.292V54.6089Z" fill="#34C759" stroke="#34C759"/>
<path d="M28.022 62.3752V47.7165C28.022 44.4028 30.7083 41.7166 34.022 41.7166H131.676C134.99 41.7166 137.676 44.4028 137.676 47.7166V106.021C137.676 109.335 134.99 112.021 131.676 112.021H76.7418" stroke="black" stroke-linecap="round"/>
<path d="M27.0249 91.2363C29.0811 91.1719 36.5863 91.2362 42.1638 98.023C47.5126 104.532 46.9445 109.703 46.9445 112.021" stroke="black" stroke-linecap="round"/>
<path d="M27.0249 74.4107C30.7261 74.2942 44.2355 74.4105 54.275 86.6915C63.9027 98.4687 62.8803 107.827 62.8803 112.021" stroke="black" stroke-linecap="round"/>
<ellipse cx="31.511" cy="108.555" rx="3.48899" ry="3.46571" fill="#34C759"/>
<path d="M77.3677 76.8737H100.292V98.1385C100.292 98.9669 99.6206 99.6385 98.7922 99.6385H78.8677C78.0392 99.6385 77.3677 98.9669 77.3677 98.1385V76.8737Z" stroke="black"/>
<ellipse cx="88.8299" cy="84.3026" rx="1.91702" ry="1.98763" fill="#050505"/>
<rect x="87.2961" y="85.9722" width="3.14392" height="1.27208" rx="0.636041" fill="#050505"/>
<rect x="85.8394" y="91.9351" width="5.98112" height="1.27208" rx="0.636041" fill="#050505"/>
<path d="M86.4526 90.4244H91.2069C91.2069 91.3904 90.4238 92.1736 89.4577 92.1736H88.2018C87.2357 92.1736 86.4526 91.3904 86.4526 90.4244Z" fill="#050505"/>
<path d="M88.9834 90.4245L88.899 87.1648H87.6338C87.6338 87.5312 87.6576 88.485 87.3386 89.2495C87.0855 89.8559 86.6779 90.2855 86.4529 90.4245H88.9834Z" fill="#050505"/>
<path d="M88.6765 90.4245L88.7609 87.1648H90.0261C90.0261 87.5312 90.0023 88.485 90.3213 89.2495C90.5744 89.8559 90.9821 90.2855 91.207 90.4245H88.6765Z" fill="#050505"/>
<g clip-path="url(#clip0)">
<path d="M152.492 51.3438C150.794 51.3438 149.25 52.0162 148.113 53.1086L141.345 48.9156C141.731 48.0207 141.945 47.035 141.945 46C141.945 44.965 141.731 43.9793 141.345 43.0844L148.112 38.8915C149.25 39.9838 150.794 40.6562 152.492 40.6562C155.982 40.6562 158.82 37.8175 158.82 34.3281C158.82 30.8388 155.982 28 152.492 28C149.003 28 146.164 30.8388 146.164 34.3281C146.164 35.3583 146.412 36.3317 146.85 37.1921L140.241 41.287C138.885 39.6568 136.843 38.6172 134.562 38.6172C130.492 38.6172 127.18 41.9291 127.18 46C127.18 50.0709 130.492 53.3828 134.562 53.3828C136.843 53.3828 138.885 52.3432 140.241 50.713L146.85 54.8079C146.412 55.6683 146.164 56.6417 146.164 57.6719C146.164 61.1612 149.003 64 152.492 64C155.982 64 158.82 61.1612 158.82 57.6719C158.82 54.1825 155.982 51.3438 152.492 51.3438ZM152.492 30.1094C154.818 30.1094 156.711 32.0019 156.711 34.3281C156.711 36.6543 154.818 38.5469 152.492 38.5469C150.166 38.5469 148.273 36.6543 148.273 34.3281C148.273 32.0019 150.166 30.1094 152.492 30.1094ZM134.562 51.2734C131.655 51.2734 129.289 48.9078 129.289 46C129.289 43.0922 131.655 40.7266 134.562 40.7266C137.47 40.7266 139.836 43.0922 139.836 46C139.836 48.9078 137.47 51.2734 134.562 51.2734ZM152.492 61.8906C150.166 61.8906 148.273 59.9981 148.273 57.6719C148.273 55.3457 150.166 53.4531 152.492 53.4531C154.818 53.4531 156.711 55.3457 156.711 57.6719C156.711 59.9981 154.818 61.8906 152.492 61.8906Z" fill="#050505" stroke="#F7F7F8"/>
</g>
<defs>
<clipPath id="clip0">
<rect width="36" height="36" fill="white" transform="translate(125 28)"/>
</clipPath>
</defs>
</svg>
