<svg width="108" height="108" viewBox="0 0 108 108" fill="none" xmlns="http://www.w3.org/2000/svg">
<circle cx="54" cy="54" r="54" fill="#AEAEB2" fill-opacity="0.1"/>
<path d="M60.7297 37.8368L60.73 37.8371C60.9095 38.0136 61.1543 38.1138 61.4108 38.1139L60.7297 37.8368ZM60.7297 37.8368C58.9423 36.0847 56.5221 35.1019 54.0001 35.1019C51.4791 35.1019 49.0598 36.0839 47.2727 37.8346C47.0922 38.005 46.8498 38.1002 46.597 38.0981C46.3434 38.0959 46.102 37.9959 45.9244 37.8214C45.7471 37.6471 45.6476 37.4127 45.6454 37.1689C45.6433 36.9261 45.7378 36.6909 45.9106 36.514C48.0575 34.4112 50.9663 33.2294 54.0001 33.2294C57.035 33.2294 59.9448 34.4121 62.0919 36.5163C62.2256 36.6477 62.3159 36.8144 62.3524 36.995C62.3889 37.1755 62.3702 37.3628 62.2984 37.5333C62.2265 37.7038 62.1043 37.8506 61.9464 37.9543C61.7884 38.0581 61.6021 38.1138 61.4109 38.1139L60.7297 37.8368Z" fill="#34C759" stroke="#F7F7F8" stroke-width="0.7"/>
<path d="M66.0424 33.5633H66.0418C65.9147 33.5632 65.789 33.5386 65.6719 33.4908C65.5548 33.443 65.4489 33.3732 65.36 33.2855L65.3593 33.2849C62.3428 30.3277 58.2571 28.6681 53.9988 28.6681C49.7415 28.6681 45.6568 30.3269 42.6405 33.2827C42.46 33.4531 42.2176 33.5483 41.9648 33.5461C41.7112 33.544 41.4698 33.4439 41.2922 33.2695C41.1149 33.0952 41.0154 32.8607 41.0132 32.6169C41.0111 32.3741 41.1057 32.1389 41.2786 31.9619C42.9484 30.3214 44.9309 29.0198 47.1131 28.1315C49.2964 27.2427 51.6366 26.7852 54.0001 26.7852C56.3636 26.7852 58.7038 27.2427 60.8871 28.1315C63.0703 29.0202 65.0536 30.3226 66.7239 31.9642L66.7243 31.9645C66.8584 32.096 66.9491 32.2629 66.9858 32.4438C67.0225 32.6246 67.0038 32.8121 66.9318 32.9829C66.8597 33.1537 66.7373 33.3006 66.579 33.4043C66.4206 33.508 66.2339 33.5636 66.0424 33.5633Z" fill="#34C759" stroke="#F7F7F8" stroke-width="0.7"/>
<path d="M38.007 28.7345L38.0069 28.7344L38.0027 28.7388C37.9144 28.8286 37.8085 28.9005 37.691 28.9501C37.5734 28.9998 37.4467 29.026 37.3184 29.0271C37.1901 29.0282 37.063 29.0041 36.9445 28.9565C36.8261 28.9089 36.7189 28.8387 36.629 28.7504C36.5392 28.6621 36.4684 28.5575 36.4207 28.4427C36.3729 28.328 36.3489 28.2053 36.35 28.0817C36.3511 27.9581 36.3773 27.8358 36.4271 27.7219C36.4769 27.6079 36.5494 27.5045 36.6409 27.4177L36.6409 27.4177L36.6452 27.4135C41.247 22.8915 47.4896 20.35 54 20.35C60.5104 20.35 66.753 22.8915 71.3548 27.4135L71.3547 27.4135L71.3591 27.4177C71.4506 27.5045 71.5231 27.6079 71.5729 27.7219C71.6227 27.8358 71.6489 27.9581 71.65 28.0817C71.6511 28.2053 71.6271 28.328 71.5793 28.4427C71.5316 28.5575 71.4608 28.6621 71.371 28.7504C71.2811 28.8387 71.1739 28.9089 71.0555 28.9565C70.937 29.0041 70.8099 29.0282 70.6816 29.0271C70.5533 29.026 70.4266 28.9998 70.309 28.9501C70.1915 28.9005 70.0856 28.8286 69.9973 28.7388L69.9974 28.7387L69.993 28.7345C67.8923 26.67 65.3986 25.0328 62.6546 23.9158C59.9106 22.7989 56.9698 22.2241 54 22.2241C51.0302 22.2241 48.0894 22.7989 45.3454 23.9158C42.6014 25.0328 40.1077 26.67 38.007 28.7345Z" fill="#34C759" stroke="#F7F7F8" stroke-width="0.7"/>
<rect x="91.5" y="81.5" width="74" height="37" rx="7.5" transform="rotate(-180 91.5 81.5)" stroke="#050505" stroke-linecap="round"/>
<path d="M85 79L85 47" stroke="#050505" stroke-linecap="round"/>
<path d="M88 68L88 60" stroke="#050505" stroke-linecap="round"/>
<rect x="66.5" y="50.5" width="25" height="25" rx="3.5" transform="rotate(90 66.5 50.5)" stroke="#34C759"/>
<path d="M24.5 64.0018C24.5 64.8316 23.828 65.5036 23 65.5036C22.172 65.5036 21.5 64.8316 21.5 64.0018C21.5 63.172 22.172 62.5 23 62.5C23.828 62.5 24.5 63.172 24.5 64.0018Z" stroke="black"/>
<rect x="44.5" y="53.5" width="19" height="19" rx="1.5" stroke="#2A2A2A"/>
<line x1="63" y1="63.5" x2="44" y2="63.5" stroke="#2A2A2A"/>
<line x1="54.5" y1="53" x2="54.5" y2="72" stroke="#2A2A2A"/>
<ellipse cx="49.7054" cy="56.0949" rx="0.961538" ry="1.09489" fill="#050505"/>
<rect x="48.9363" y="57.0146" width="1.57692" height="0.70073" rx="0.350365" fill="#050505"/>
<rect x="48.2056" y="60.2993" width="3" height="0.70073" rx="0.350365" fill="#050505"/>
<path d="M48.5132 59.4672H50.8978C50.8978 59.9993 50.4664 60.4307 49.9343 60.4307H49.4767C48.9446 60.4307 48.5132 59.9993 48.5132 59.4672Z" fill="#050505"/>
<path d="M49.7825 59.4672L49.7402 57.6715H49.1055C49.1055 57.8734 49.1175 58.3988 48.9575 58.8199C48.8305 59.154 48.6261 59.3906 48.5132 59.4672H49.7825Z" fill="#050505"/>
<path d="M49.6287 59.4672L49.671 57.6715H50.3056C50.3056 57.8734 50.2937 58.3988 50.4537 58.8199C50.5806 59.154 50.7851 59.3906 50.8979 59.4672H49.6287Z" fill="#050505"/>
<ellipse cx="58.7054" cy="66.0949" rx="0.961538" ry="1.09489" fill="#050505"/>
<rect x="57.9363" y="67.0146" width="1.57692" height="0.70073" rx="0.350365" fill="#050505"/>
<rect x="57.2056" y="70.2993" width="3" height="0.70073" rx="0.350365" fill="#050505"/>
<path d="M57.5132 69.4672H59.8978C59.8978 69.9993 59.4664 70.4307 58.9343 70.4307H58.4767C57.9446 70.4307 57.5132 69.9993 57.5132 69.4672Z" fill="#050505"/>
<path d="M58.7825 69.4672L58.7402 67.6715H58.1055C58.1055 67.8734 58.1175 68.3988 57.9575 68.8199C57.8305 69.154 57.6261 69.3906 57.5132 69.4672H58.7825Z" fill="#050505"/>
<path d="M58.6287 69.4672L58.671 67.6715H59.3056C59.3056 67.8734 59.2937 68.3988 59.4537 68.8199C59.5806 69.154 59.7851 69.3906 59.8979 69.4672H58.6287Z" fill="#050505"/>
</svg>
