<svg width="261" height="246" viewBox="0 0 261 246" fill="none" xmlns="http://www.w3.org/2000/svg">
    <path
        d="M82.9751 118.265L38.124 225.004C37.8471 225.663 38.331 226.391 39.0459 226.391H223.702C224.427 226.391 224.911 225.644 224.614 224.982L176.733 118.243C176.572 117.884 176.214 117.652 175.82 117.652H83.897C83.4944 117.652 83.131 117.894 82.9751 118.265Z"
        stroke="#34C759" />
    <path
        d="M93.0651 125.392L57.7913 208.958C57.5131 209.617 57.9971 210.346 58.7126 210.346H204.034C204.76 210.346 205.244 209.597 204.946 208.936L167.289 125.37C167.127 125.012 166.77 124.781 166.377 124.781H93.9864C93.5844 124.781 93.2215 125.022 93.0651 125.392Z"
        stroke="#6F6F6F" />
    <path
        d="M87.5955 106.957H74.5733C74.1613 106.957 73.7914 107.21 73.6417 107.594L69.7188 117.653"
        stroke="#34C759" stroke-linecap="round" />
    <path d="M169.828 106.957H182.85C183.263 106.957 183.632 107.21 183.782 107.594L187.705 117.653"
        stroke="#34C759" stroke-linecap="round" />
    <path
        d="M144.322 47.2966C144.923 47.6917 144.923 48.5723 144.322 48.9674L128.371 59.4626C127.706 59.9001 126.821 59.4232 126.821 58.6272L126.821 37.6367C126.821 36.8407 127.706 36.3638 128.371 36.8013L144.322 47.2966Z"
        fill="#34C759" />
    <path
        d="M27.7452 222.824L23.7238 233.963C23.4885 234.615 23.9714 235.302 24.6644 235.302H39.3293"
        stroke="#34C759" stroke-linecap="round" />
    <path
        d="M235.044 222.824L239.065 233.963C239.301 234.615 238.818 235.302 238.125 235.302H223.46"
        stroke="#34C759" stroke-linecap="round" />
    <path d="M130.628 73.0859L128.713 76.6512H137.651L135.736 73.0859" stroke="#6F6F6F"
        stroke-linecap="round" stroke-linejoin="round" />
    <rect x="93.459" y="29.0234" width="79.4452" height="38.2174" rx="7.5" stroke="#6F6F6F"
        stroke-linecap="round" />
    <path
        d="M123.35 26.7385V22.8491C123.35 22.363 123.752 21.3906 125.361 21.3906C126.97 21.3906 127.372 22.363 127.372 22.8491V24.7938H140.779V22.8491C140.779 22.363 141.45 21.3906 142.791 21.3906C144.131 21.3906 144.802 22.363 144.802 22.8491V26.7385"
        stroke="#6F6F6F" stroke-linecap="round" />
    <path
        d="M123.35 69.5219V74.7077C123.35 75.3559 123.752 76.6523 125.361 76.6523C126.97 76.6523 127.372 75.3559 127.372 74.7077V72.1148H140.779V74.7077C140.779 75.3559 141.45 76.6523 142.791 76.6523C144.131 76.6523 144.802 75.3559 144.802 74.7077V69.5219"
        stroke="#6F6F6F" stroke-linecap="round" />
    <rect x="129.213" y="77.1523" width="7.93836" height="9.69565" rx="0.5" stroke="#6F6F6F"
        stroke-linecap="round" stroke-linejoin="round" />
    <path d="M130.5 89.1289V108.738" stroke="#6F6F6F" stroke-linecap="round" />
    <path d="M135.863 89.1289V108.738" stroke="#6F6F6F" stroke-linecap="round" />
    <line x1="86.3086" y1="140.324" x2="167.541" y2="140.324" stroke="#6F6F6F"
        stroke-linecap="round" />
    <line x1="79.1582" y1="159.934" x2="149.665" y2="159.934" stroke="#6F6F6F"
        stroke-linecap="round" />
    <line x1="70.2188" y1="179.543" x2="128.212" y2="179.543" stroke="#6F6F6F"
        stroke-linecap="round" />
    <line x1="0.5" y1="-0.5" x2="79.2097" y2="-0.5"
        transform="matrix(-0.265132 0.964212 -0.964595 -0.263737 113.99 125.594)" stroke="#6F6F6F"
        stroke-linecap="round" />
    <line x1="134.576" y1="125.281" x2="134.576" y2="170.629" stroke="#6F6F6F"
        stroke-linecap="round" />
    <line x1="0.5" y1="-0.5" x2="29.3099" y2="-0.5"
        transform="matrix(0.291918 0.956443 -0.956903 0.290407 152.527 125.594)" stroke="#6F6F6F"
        stroke-linecap="round" />
    <path d="M103 29L103 67" stroke="#6F6F6F" stroke-linecap="round" />
    <circle cx="98.5" cy="53.5078" r="0.5" transform="rotate(-90 98.5 53.5078)" fill="#6F6F6F" />
    <path d="M98.5 43L98.5 51" stroke="#6F6F6F" stroke-linecap="round" />
</svg>
