<svg width="261" height="246" viewBox="0 0 261 246" fill="none" xmlns="http://www.w3.org/2000/svg">
    <path fill-rule="evenodd" clip-rule="evenodd"
        d="M59.4883 211.065V56.6328C59.4883 50.8338 64.1893 46.1328 69.9883 46.1328H191.011C196.81 46.1328 201.511 50.8338 201.511 56.6328V211.068C201.179 211.394 200.845 211.718 200.511 212.039V56.6328C200.511 51.3861 196.257 47.1328 191.011 47.1328H69.9883C64.7416 47.1328 60.4883 51.3861 60.4883 56.6328V212.037C60.1536 211.715 59.8203 211.391 59.4883 211.065Z"
        fill="#6F6F6F" />
    <path
        d="M81.414 137.013L78.3951 129.79H75.7734L81.414 141.527L87.0545 129.79H84.417L81.414 137.013Z"
        fill="#34C759" />
    <path
        d="M91.5562 138.359H97.4351L97.165 136.569H91.8264L91.5562 138.359ZM94.4639 133.386L96.1322 137.235L96.1004 137.805L97.5304 140.878H100.104L94.4639 129.141L88.8234 140.878H91.3815L92.8432 137.71L92.7956 137.203L94.4639 133.386Z"
        fill="#34C759" />
    <path
        d="M107.174 135.714L110.511 140.878H113.196L109.573 135.714H107.174ZM104.648 129.79V140.878H106.92V129.79H104.648ZM106.03 131.722H108.239C108.641 131.722 108.985 131.791 109.271 131.928C109.568 132.055 109.796 132.245 109.954 132.499C110.113 132.742 110.193 133.037 110.193 133.386C110.193 133.734 110.113 134.035 109.954 134.289C109.796 134.531 109.568 134.721 109.271 134.859C108.985 134.985 108.641 135.049 108.239 135.049H106.03V136.855H108.382C109.261 136.855 110.007 136.707 110.622 136.411C111.236 136.115 111.708 135.704 112.036 135.176C112.364 134.637 112.528 134.019 112.528 133.322C112.528 132.615 112.364 131.997 112.036 131.469C111.708 130.941 111.236 130.529 110.622 130.234C110.007 129.938 109.261 129.79 108.382 129.79H106.03V131.722Z"
        fill="#34C759" />
    <rect x="140.24" y="124.355" width="49.0128" height="23.8359" rx="11.918" fill="#34C759"
        stroke="#6F6F6F" />
    <rect x="166.252" y="124.355" width="23" height="23" rx="11.5" fill="white" stroke="#6F6F6F" />
    <path d="M197.348 74.0273L64.648 74.0273" stroke="#6F6F6F" stroke-linecap="round" />
    <path d="M152.527 61.6836L115.654 61.6836" stroke="#6F6F6F" stroke-linecap="round" />
    <ellipse cx="108.016" cy="61.6082" rx="0.893327" ry="0.893327" fill="#6F6F6F" />
</svg>
