<svg width="146" height="139" viewBox="0 0 146 139" fill="none" xmlns="http://www.w3.org/2000/svg">
    <path
        d="M23.5 27.5C31.8271 14.0199 43.0164 2.26863 65 0.999925C92.2919 -0.575123 120.577 7.13704 134 33C141.376 47.2119 136.498 58.8493 143 73C151.5 91.5 139.284 115.691 126.5 128C118.359 135.838 43.1742 145.533 20.4998 131C0.210632 117.996 0 92.5 0 73C0 53.5 15.1729 40.9801 23.5 27.5Z"
        fill="#AEAEB2" fill-opacity="0.1" />
    <path
        d="M46.3021 67.6135L21.5809 126.614C21.3048 127.272 21.7888 128 22.5032 128H124.457C125.182 128 125.666 127.253 125.37 126.592L98.9785 67.5917C98.8175 67.2317 98.46 67 98.0656 67H47.2244C46.8215 67 46.4579 67.2419 46.3021 67.6135Z"
        stroke="#34C759" />
    <path
        d="M51.9463 71.6121L32.5842 117.612C32.3068 118.271 32.7908 119 33.5059 119H113.454C114.18 119 114.664 118.252 114.366 117.59L93.6961 71.5901C93.5347 71.231 93.1777 71 92.784 71H52.868C52.4656 71 52.1024 71.2412 51.9463 71.6121Z"
        stroke="#6F6F6F" />
    <path d="M49 61H42.0174C41.605 61 41.2349 61.2532 41.0854 61.6376L39 67" stroke="#34C759"
        stroke-linecap="round" />
    <path d="M95 61H101.983C102.395 61 102.765 61.2532 102.915 61.6376L105 67" stroke="#34C759"
        stroke-linecap="round" />
    <path
        d="M80.735 27.1653C81.334 27.5606 81.334 28.4394 80.735 28.8347L73.0507 33.905C72.3859 34.3437 71.5 33.8668 71.5 33.0703L71.5 22.9297C71.5 22.1331 72.3859 21.6563 73.0507 22.095L80.735 27.1653Z"
        fill="#34C759" />
    <path d="M15.52 126L13.4819 131.661C13.2473 132.313 13.7302 133 14.4228 133H22" stroke="#34C759"
        stroke-linecap="round" />
    <path d="M131.48 126L133.518 131.661C133.753 132.313 133.27 133 132.577 133H125"
        stroke="#34C759" stroke-linecap="round" />
    <path d="M73.0714 42L72 44H77L75.9286 42" stroke="#6F6F6F" stroke-linecap="round"
        stroke-linejoin="round" />
    <rect x="52.5" y="17.5" width="44" height="21" rx="2.5" stroke="#6F6F6F"
        stroke-linecap="round" />
    <path
        d="M69 16V13.8182C69 13.5455 69.225 13 70.125 13C71.025 13 71.25 13.5455 71.25 13.8182V14.9091H78.75V13.8182C78.75 13.5455 79.125 13 79.875 13C80.625 13 81 13.5455 81 13.8182V16"
        stroke="#6F6F6F" stroke-linecap="round" />
    <path
        d="M69 40V42.9091C69 43.2727 69.225 44 70.125 44C71.025 44 71.25 43.2727 71.25 42.9091V41.4545H78.75V42.9091C78.75 43.2727 79.125 44 79.875 44C80.625 44 81 43.2727 81 42.9091V40"
        stroke="#6F6F6F" stroke-linecap="round" />
    <path d="M57 18V38" stroke="#6F6F6F" stroke-linecap="round" />
    <path d="M55 26V32" stroke="#6F6F6F" stroke-linecap="round" />
    <circle cx="54.5" cy="24.5" r="0.5" fill="#6F6F6F" />
    <rect x="93.25" y="25.25" width="0.5" height="5.5" stroke="#6F6F6F" stroke-width="0.5"
        stroke-linecap="round" />
    <rect x="72.5" y="44.5" width="4" height="5" rx="0.5" stroke="#6F6F6F" stroke-linecap="round"
        stroke-linejoin="round" />
    <path d="M73 51V62" stroke="#6F6F6F" stroke-linecap="round" />
    <path d="M76 51V62" stroke="#6F6F6F" stroke-linecap="round" />
    <line x1="48.5" y1="79.5" x2="93.5" y2="79.5" stroke="#6F6F6F" stroke-linecap="round" />
    <line x1="44.5" y1="90.5" x2="83.5" y2="90.5" stroke="#6F6F6F" stroke-linecap="round" />
    <line x1="39.5" y1="101.5" x2="71.5" y2="101.5" stroke="#6F6F6F" stroke-linecap="round" />
    <line x1="64.1144" y1="72.0684" x2="52.557" y2="114.219" stroke="#6F6F6F"
        stroke-linecap="round" />
    <line x1="75.5" y1="71.5" x2="75.5" y2="96.5" stroke="#6F6F6F" stroke-linecap="round" />
    <line x1="85.9457" y1="71.7867" x2="90.5223" y2="86.8243" stroke="#6F6F6F"
        stroke-linecap="round" />
</svg>
