<svg width="262" height="247" viewBox="0 0 262 247" fill="none" xmlns="http://www.w3.org/2000/svg">
<path d="M227.583 214.817C230.071 214.315 258.904 208.126 261.472 207.609L244.238 123.787L227.004 39.9648L163.707 53.0055M78.7123 244.918L166.301 227.028M84.6978 68.8988L0.502447 86.011L17.8599 169.835" stroke="#0F0F0F" stroke-linecap="round" stroke-linejoin="round"/>
<line x1="0.5" y1="-0.5" x2="59.3443" y2="-0.5" transform="matrix(0.978328 -0.207063 0.208763 0.977966 125.482 215.02)" stroke="#565656" stroke-linecap="round"/>
<line x1="0.5" y1="-0.5" x2="59.3443" y2="-0.5" transform="matrix(0.978328 -0.207063 0.208763 0.977966 122.996 203.363)" stroke="#565656" stroke-linecap="round"/>
<line x1="0.5" y1="-0.5" x2="71.3132" y2="-0.5" transform="matrix(0.978328 -0.207063 0.208763 0.977966 108.797 194.184)" stroke="#565656" stroke-linecap="round"/>
<line x1="0.5" y1="-0.5" x2="47.9838" y2="-0.5" transform="matrix(-0.208763 -0.977966 0.978328 -0.207063 173.102 204.938)" stroke="#565656" stroke-linecap="round"/>
<line x1="0.5" y1="-0.5" x2="47.9838" y2="-0.5" transform="matrix(-0.208763 -0.977966 0.978328 -0.207063 161.393 207.418)" stroke="#565656" stroke-linecap="round"/>
<line x1="0.5" y1="-0.5" x2="59.1112" y2="-0.5" transform="matrix(-0.208763 -0.977966 0.978328 -0.207063 149.684 209.898)" stroke="#565656" stroke-linecap="round"/>
<line x1="0.5" y1="-0.5" x2="43.2149" y2="-0.5" transform="matrix(-0.208763 -0.977966 0.978328 -0.207063 123.775 203.195)" stroke="#565656" stroke-linecap="round"/>
<line x1="0.5" y1="-0.5" x2="24.1393" y2="-0.5" transform="matrix(-0.208763 -0.977966 0.978328 -0.207063 109.576 194.012)" stroke="#565656" stroke-linecap="round"/>
<line x1="0.5" y1="-0.5" x2="62.2904" y2="-0.5" transform="matrix(-0.208763 -0.977966 0.978328 -0.207063 137.973 212.379)" stroke="#565656" stroke-linecap="round"/>
<line x1="0.5" y1="-0.5" x2="90.4634" y2="-0.5" transform="matrix(0.978328 -0.207063 0.208763 0.977966 87.5723 186.488)" stroke="#565656" stroke-linecap="round"/>
<line x1="0.5" y1="-0.5" x2="90.4634" y2="-0.5" transform="matrix(0.978328 -0.207063 0.208763 0.977966 85.084 174.824)" stroke="#565656" stroke-linecap="round"/>
<path d="M102.194 64.5715C106.785 57.3631 103.644 43.3561 96.3946 44.6279C93.0116 46.0698 95.9596 50.0103 94.2198 54.2393C92.045 59.5255 89.3869 63.37 89.1453 74.1828C88.9036 84.9955 91.8034 86.9178 91.8034 93.6457C91.8034 102.056 75.6938 116.983 66.9141 131.851C75.0333 145.883 93.8171 142.984 102.194 139.78L102.194 64.5715Z" fill="white"/>
<path d="M91.8034 93.6457C91.8034 102.056 75.6938 116.983 66.9141 131.851C75.0333 145.883 93.8171 142.984 102.194 139.78C102.194 119.356 102.194 75.7206 102.194 64.5715C106.785 57.3631 103.644 43.3561 96.3946 44.6279C93.0116 46.0698 95.9596 50.0103 94.2198 54.2393C92.045 59.5255 89.3869 63.37 89.1453 74.1828C88.9036 84.9955 91.8034 86.9178 91.8034 93.6457ZM91.8034 93.6457C91.8034 100.95 90.6757 106.461 90.1119 108.303" stroke="#0F0F0F" stroke-linecap="round" stroke-linejoin="round"/>
<path d="M148.348 27.8075C144.24 26.6061 130.708 25.8853 127.567 29.0089C125.729 30.8359 123.263 34.4654 121.472 37.1021L121.42 37.1787L144.482 37.1787C149.99 39.6129 153.915 38.804 156.443 37.1307C158.603 35.701 157.865 32.7073 155.643 31.3772C153.205 29.9184 150.362 28.3966 148.348 27.8075Z" fill="white"/>
<path d="M144.482 37.1787C149.99 39.6129 153.915 38.804 156.443 37.1307C158.603 35.701 157.865 32.7073 155.643 31.3772C153.205 29.9184 150.362 28.3966 148.348 27.8075C144.24 26.6061 130.708 25.8853 127.567 29.0089C125.711 30.8537 123.215 34.5362 121.42 37.1787C127.416 37.1787 140.422 37.1787 144.482 37.1787ZM144.482 37.1787C142.546 36.4786 140.165 35.0271 139.216 34.3889" stroke="#0F0F0F" stroke-linecap="round" stroke-linejoin="round"/>
<path d="M75.7986 115.141L80.045 114.525C83.7682 113.985 87.5578 114.101 91.2406 114.867L124.531 121.79L67.1132 244.802L32.6902 244.802L9.2793 198.824L20.4523 180.944L53.4489 129.444C58.4688 121.688 66.6194 116.471 75.7986 115.141Z" fill="white"/>
<path d="M9.28125 198.033L53.3963 129.191C58.4162 121.434 66.5668 116.218 75.746 114.887L79.9924 114.271C83.7156 113.731 87.5052 113.847 91.188 114.613L99.8608 116.579M65.8177 245.541L113.428 148.366" stroke="#0F0F0F" stroke-linecap="round" stroke-linejoin="round"/>
<path fill-rule="evenodd" clip-rule="evenodd" d="M113.057 37.1094L148.119 37.1094C154.304 37.1094 159.319 42.0623 159.319 48.172L159.319 135.711C159.319 141.821 154.304 146.774 148.119 146.774L113.057 146.774C106.872 146.774 101.857 141.821 101.857 135.711L101.857 48.172C101.857 42.0623 106.872 37.1094 113.057 37.1094Z" fill="white"/>
<path d="M159.221 128.864L159.221 48.2327C159.221 42.1283 154.245 37.1797 148.106 37.1797L113.309 37.1797C107.17 37.1797 102.193 42.1283 102.193 48.2327L102.193 135.696C102.193 141.8 107.17 146.749 113.309 146.749L148.106 146.749C151.131 146.749 153.874 145.547 155.879 143.597" stroke="#0F0F0F" stroke-linecap="round" stroke-linejoin="round"/>
<path d="M107.492 51.7813C107.492 46.3739 111.872 41.9884 117.279 41.9813L144.197 41.9463C149.615 41.9393 154.01 46.329 154.01 51.7463L154.01 132.573C154.01 137.981 149.63 142.366 144.223 142.373L117.305 142.408C111.888 142.415 107.492 138.025 107.492 132.608L107.492 51.7813Z" fill="white"/>
<ellipse cx="2.29894" cy="2.37433" rx="2.29894" ry="2.37433" transform="matrix(0.978328 -0.207063 0.208763 0.977966 133.633 173.852)" fill="#AEAEB2"/>
<rect width="3.77027" height="1.51957" rx="0.759784" transform="matrix(0.978328 -0.207063 0.208763 0.977966 134.994 178.027)" fill="#AEAEB2"/>
<rect width="7.17271" height="1.51957" rx="0.759785" transform="matrix(0.978328 -0.207063 0.208763 0.977966 134.771 185.355)" fill="#AEAEB2"/>
<path d="M135.117 183.438L140.695 182.257C140.936 183.385 140.216 184.494 139.087 184.733L137.598 185.048C136.469 185.287 135.358 184.566 135.117 183.438Z" fill="#AEAEB2"/>
<path d="M138.082 182.808L137.171 179.021L135.686 179.335C135.778 179.763 136.043 180.872 135.86 181.844C135.714 182.615 135.343 183.218 135.114 183.436L138.082 182.808Z" fill="#AEAEB2"/>
<path d="M137.725 182.886L137.011 179.057L138.495 178.743C138.587 179.171 138.797 180.291 139.362 181.105C139.81 181.751 140.395 182.151 140.694 182.258L137.725 182.886Z" fill="#AEAEB2"/>
<ellipse cx="2.29894" cy="2.37433" rx="2.29894" ry="2.37433" transform="matrix(0.978328 -0.207063 0.208763 0.977966 119.076 163.887)" fill="#AEAEB2"/>
<rect width="3.77027" height="1.51957" rx="0.759784" transform="matrix(0.978328 -0.207063 0.208763 0.977966 120.438 168.062)" fill="#AEAEB2"/>
<rect width="7.17271" height="1.51957" rx="0.759785" transform="matrix(0.978328 -0.207063 0.208763 0.977966 120.215 175.391)" fill="#AEAEB2"/>
<path d="M120.561 173.473L126.138 172.292C126.379 173.421 125.659 174.529 124.53 174.768L123.041 175.083C121.912 175.322 120.801 174.601 120.561 173.473Z" fill="#AEAEB2"/>
<path d="M123.526 172.843L122.614 169.056L121.13 169.37C121.221 169.798 121.487 170.907 121.303 171.879C121.157 172.65 120.786 173.253 120.557 173.472L123.526 172.843Z" fill="#AEAEB2"/>
<path d="M123.168 172.921L122.454 169.092L123.939 168.778C124.03 169.206 124.24 170.326 124.805 171.14C125.253 171.786 125.839 172.187 126.137 172.293L123.168 172.921Z" fill="#AEAEB2"/>
<path d="M158.8 133.197L144.008 109.873C143.413 108.935 142.38 108.367 141.27 108.367C139.479 108.367 138.027 109.819 138.027 111.61V111.952C138.027 115.044 138.693 118.099 139.981 120.909L158.269 160.839C158.611 161.585 158.663 162.433 158.416 163.216C157.762 165.281 155.335 166.173 153.5 165.023L146.184 160.435C141.902 157.75 137.149 155.902 132.178 154.988L130.032 154.593C127.149 154.063 124.222 155.272 122.553 157.682C121.73 158.871 122.234 160.516 123.581 161.041L130.016 163.546C131.321 164.054 132.503 164.834 133.482 165.835L139.063 171.54C147.272 179.931 156.536 187.222 166.622 193.228C172.573 196.772 176.943 202.458 178.838 209.12L186.938 237.606C186.938 237.606 198.647 221.525 218.166 218.962L201.961 181.242L194.539 137.999C193.754 133.428 188.821 130.87 184.632 132.862L183.929 133.197L179.989 128.19C178.265 126 175.112 125.578 172.873 127.238C169.217 123.311 162.74 124.387 160.55 129.285L158.8 133.197Z" fill="white"/>
<path d="M158.8 133.197L144.008 109.873C143.413 108.935 142.38 108.367 141.27 108.367V108.367C139.479 108.367 138.027 109.819 138.027 111.61V111.952C138.027 115.044 138.693 118.099 139.981 120.909L158.269 160.839C158.611 161.585 158.663 162.433 158.416 163.216V163.216C157.762 165.281 155.335 166.173 153.5 165.023L146.184 160.435C141.902 157.75 137.149 155.902 132.178 154.988L130.032 154.593C127.149 154.063 124.222 155.272 122.553 157.682V157.682C121.73 158.871 122.234 160.516 123.581 161.041L130.016 163.546C131.321 164.054 132.503 164.834 133.482 165.835L139.063 171.54C147.272 179.931 156.536 187.222 166.622 193.228V193.228C172.573 196.772 176.943 202.458 178.838 209.12L186.938 237.606C186.938 237.606 198.647 221.525 218.166 218.962L201.961 181.242L194.539 137.999C193.754 133.428 188.821 130.87 184.632 132.862L183.929 133.197M158.8 133.197L160.55 129.285C162.74 124.387 169.217 123.311 172.873 127.238V127.238M158.8 133.197L165.166 142.797M172.873 127.238V127.238C175.112 125.578 178.265 126 179.989 128.19L183.929 133.197M172.873 127.238L180.244 140.811M183.929 133.197C183.929 133.197 187.392 139.553 191.412 142.466" stroke="#0F0F0F" stroke-linecap="round" stroke-linejoin="round"/>
<path d="M171.52 221.751C173.591 196.12 202.957 180.845 215.706 198.618C223.589 207.095 224.945 212.373 235.952 236.5L239.902 245.446L173.201 245.446L171.52 236.501C171.52 236.501 169.448 247.381 171.52 221.751Z" fill="white"/>
<path d="M171.521 246.195C171.521 246.195 169.449 247.377 171.521 221.747C173.593 196.116 202.958 180.841 215.708 198.614C223.591 207.091 227.831 222.07 238.837 246.197" stroke="#0F0F0F" stroke-linecap="round" stroke-linejoin="round"/>
<path d="M115.426 74.1152V72.7615L118.798 72V80.5938H117.396V73.5713L115.426 74.1152ZM120.486 80.5938L124.402 76.4721C124.604 76.2546 124.777 76.0451 124.922 75.8436C125.067 75.6422 125.176 75.4407 125.248 75.2393C125.321 75.0378 125.357 74.8243 125.357 74.5987C125.357 74.4375 125.325 74.2804 125.26 74.1273C125.204 73.9661 125.111 73.8211 124.982 73.6922C124.861 73.5632 124.712 73.4625 124.535 73.39C124.358 73.3094 124.152 73.2691 123.919 73.2691C123.596 73.2691 123.318 73.3457 123.085 73.4988C122.851 73.6438 122.67 73.8574 122.541 74.1394C122.42 74.4214 122.359 74.7478 122.359 75.1184H120.945C120.945 74.5141 121.058 73.9782 121.284 73.5109C121.517 73.0355 121.86 72.6648 122.311 72.3989C122.762 72.1249 123.306 71.9879 123.943 71.9879C124.434 71.9879 124.861 72.0685 125.224 72.2297C125.587 72.3828 125.885 72.5842 126.118 72.834C126.36 73.0838 126.542 73.3578 126.662 73.6559C126.783 73.9541 126.844 74.2441 126.844 74.5262C126.844 74.9693 126.735 75.3964 126.517 75.8074C126.3 76.2183 126.018 76.585 125.671 76.9073L123.278 79.2642H126.94V80.5938H120.486ZM130.706 76.448V75.6865C130.963 75.6865 131.193 75.6543 131.395 75.5898C131.596 75.5173 131.765 75.4206 131.902 75.2997C132.047 75.1708 132.156 75.0258 132.229 74.8646C132.309 74.7034 132.349 74.5342 132.349 74.3569C132.349 74.1313 132.305 73.9339 132.216 73.7647C132.136 73.5874 132.011 73.4504 131.842 73.3537C131.673 73.257 131.459 73.2087 131.201 73.2087C130.839 73.2087 130.532 73.3215 130.283 73.5471C130.033 73.7647 129.908 74.0427 129.908 74.3811H128.566C128.566 73.9138 128.675 73.5028 128.893 73.1483C129.118 72.7937 129.428 72.5157 129.823 72.3143C130.218 72.1048 130.673 72 131.189 72C131.737 72 132.204 72.1048 132.591 72.3143C132.978 72.5238 133.272 72.8018 133.473 73.1483C133.683 73.4867 133.788 73.8654 133.788 74.2844C133.788 74.7115 133.655 75.0902 133.389 75.4206C133.123 75.751 132.756 76.0048 132.289 76.1821C131.83 76.3593 131.302 76.448 130.706 76.448ZM131.129 80.7388C130.677 80.7388 130.27 80.6743 129.908 80.5454C129.553 80.4084 129.247 80.2231 128.989 79.9894C128.739 79.7477 128.546 79.4737 128.409 79.1675C128.272 78.8532 128.204 78.5229 128.204 78.1764H129.642C129.642 78.4423 129.706 78.676 129.835 78.8774C129.972 79.0789 130.154 79.236 130.379 79.3488C130.613 79.4536 130.871 79.5059 131.153 79.5059C131.443 79.5059 131.697 79.4536 131.914 79.3488C132.132 79.2441 132.297 79.095 132.41 78.9016C132.531 78.7001 132.591 78.4584 132.591 78.1764C132.591 77.9508 132.547 77.7493 132.458 77.572C132.37 77.3948 132.241 77.2457 132.071 77.1248C131.91 77.004 131.713 76.9113 131.479 76.8468C131.254 76.7824 130.996 76.7501 130.706 76.7501V75.9403C131.173 75.9403 131.608 75.9846 132.011 76.0733C132.414 76.1619 132.764 76.3029 133.063 76.4963C133.369 76.6897 133.606 76.9395 133.776 77.2457C133.945 77.5438 134.029 77.9024 134.029 78.3214C134.029 78.8049 133.909 79.2279 133.667 79.5905C133.425 79.9531 133.087 80.2352 132.652 80.4366C132.216 80.6381 131.709 80.7388 131.129 80.7388ZM134.721 78.9741L139.495 72.133H140.353V80.5938H138.89V78.4665L138.987 78.3335V74.6833L136.812 77.838H139.749L139.954 77.7413H141.683V78.9741H134.721ZM148.837 77.838C148.837 78.3295 148.748 78.7566 148.571 79.1192C148.402 79.4818 148.168 79.7839 147.87 80.0257C147.572 80.2593 147.237 80.4366 146.867 80.5575C146.496 80.6703 146.105 80.7267 145.694 80.7267C145.179 80.7267 144.719 80.6582 144.316 80.5212C143.921 80.3842 143.579 80.2029 143.289 79.9773C142.999 79.7436 142.745 79.4938 142.527 79.2279L143.374 78.1885C143.543 78.4141 143.74 78.6196 143.966 78.8049C144.191 78.9822 144.437 79.1272 144.703 79.24C144.977 79.3448 145.247 79.3972 145.513 79.3972C145.892 79.3972 146.214 79.3327 146.48 79.2038C146.746 79.0668 146.947 78.8774 147.084 78.6357C147.229 78.3859 147.302 78.0918 147.302 77.7533C147.302 77.4069 147.221 77.1127 147.06 76.871C146.899 76.6293 146.681 76.4439 146.407 76.315C146.133 76.1861 145.835 76.1216 145.513 76.1216C145.263 76.1216 145.017 76.1418 144.776 76.1821C144.542 76.2143 144.3 76.2788 144.05 76.3754C143.809 76.4721 143.543 76.6091 143.253 76.7864L144.401 72.133H148.752V73.39H145.477L144.945 75.3239C145.154 75.2191 145.372 75.1426 145.598 75.0942C145.823 75.0459 146.053 75.0217 146.286 75.0217C146.754 75.0217 147.181 75.1386 147.568 75.3722C147.954 75.6059 148.261 75.9323 148.486 76.3513C148.72 76.7703 148.837 77.2658 148.837 77.838Z" fill="#050505"/>
<path d="M157.262 47.4961L105.236 47.4961" stroke="#0F0F0F" stroke-linecap="round"/>
<path d="M157.262 105.691L105.236 105.691" stroke="#0F0F0F" stroke-linecap="round"/>
<path d="M120.672 108.43L120.672 146.297" stroke="#0F0F0F" stroke-linecap="round"/>
<path d="M144.008 133.789H112.151" stroke="#0F0F0F" stroke-linecap="round"/>
<path d="M134.141 120.391H109.211" stroke="#0F0F0F" stroke-linecap="round"/>
<path d="M141.227 124L141.227 143.58" stroke="#0F0F0F" stroke-linecap="round"/>
<path d="M139.689 42.6602L125.233 42.6602" stroke="#0F0F0F" stroke-linecap="round"/>
<ellipse cx="122.239" cy="42.6276" rx="0.350233" ry="0.350233" fill="#0F0F0F"/>
</svg>
