<svg width="262" height="247" viewBox="0 0 262 247" fill="none" xmlns="http://www.w3.org/2000/svg">
    <path d="M122.692 202.914C122.75 203.184 123.016 203.356 123.286 203.299C123.556 203.241 123.728 202.975 123.67 202.705L122.692 202.914ZM114.753 160.931C114.696 160.661 114.43 160.489 114.16 160.547C113.89 160.605 113.718 160.87 113.775 161.14L114.753 160.931ZM108.493 193.731C108.551 194.001 108.817 194.173 109.087 194.116C109.357 194.058 109.529 193.792 109.471 193.522L108.493 193.731ZM104.536 170.404C104.479 170.134 104.213 169.961 103.943 170.019C103.673 170.077 103.501 170.342 103.558 170.612L104.536 170.404ZM137.272 156.542C137.329 156.812 137.595 156.984 137.865 156.926C138.135 156.869 138.307 156.603 138.25 156.333L137.272 156.542ZM137.344 152.088C137.286 151.818 137.02 151.646 136.75 151.704C136.48 151.761 136.308 152.027 136.366 152.297L137.344 152.088ZM124.787 155.399C124.845 155.669 125.11 155.841 125.38 155.784C125.651 155.726 125.823 155.46 125.765 155.19L124.787 155.399ZM124.969 151.46C124.911 151.19 124.646 151.018 124.376 151.076C124.105 151.133 123.933 151.399 123.991 151.669L124.969 151.46ZM131.865 164.923C132.135 164.866 132.307 164.6 132.25 164.33C132.193 164.06 131.928 163.887 131.657 163.945L131.865 164.923ZM149.09 209.513L149.194 210.002L149.194 210.002L149.09 209.513ZM141.624 174.537L142.113 174.432C142.056 174.163 141.791 173.991 141.521 174.048L141.624 174.537ZM109.078 193.102C108.808 193.16 108.635 193.425 108.693 193.695C108.75 193.965 109.015 194.138 109.285 194.081L109.078 193.102ZM153.477 184.728C153.747 184.67 153.92 184.405 153.862 184.135C153.805 183.865 153.54 183.692 153.27 183.749L153.477 184.728ZM160.31 207.137C160.368 207.407 160.634 207.579 160.904 207.522C161.174 207.464 161.346 207.198 161.288 206.928L160.31 207.137ZM156.908 186.407C156.85 186.137 156.585 185.965 156.315 186.023C156.045 186.08 155.872 186.346 155.93 186.616L156.908 186.407ZM123.277 202.281C123.007 202.339 122.834 202.604 122.892 202.874C122.949 203.144 123.214 203.317 123.484 203.26L123.277 202.281ZM167.201 194.007C167.471 193.95 167.644 193.684 167.587 193.414C167.53 193.144 167.264 192.971 166.994 193.029L167.201 194.007ZM172.019 204.657C172.077 204.927 172.343 205.099 172.613 205.042C172.883 204.984 173.055 204.718 172.997 204.448L172.019 204.657ZM171.221 196.127C171.163 195.857 170.898 195.685 170.628 195.742C170.358 195.8 170.186 196.066 170.243 196.336L171.221 196.127ZM125.763 213.938C125.493 213.996 125.32 214.261 125.378 214.531C125.435 214.801 125.7 214.974 125.97 214.917L125.763 213.938ZM176.736 204.172C177.006 204.115 177.179 203.85 177.122 203.579C177.064 203.309 176.799 203.137 176.529 203.194L176.736 204.172ZM151.085 163.919C151.143 164.189 151.408 164.362 151.678 164.304C151.948 164.246 152.121 163.981 152.063 163.711L151.085 163.919ZM151.376 160.491C151.318 160.221 151.052 160.048 150.782 160.106C150.512 160.164 150.34 160.429 150.398 160.699L151.376 160.491ZM127.257 162.177C127.199 161.907 126.933 161.735 126.663 161.792C126.393 161.85 126.221 162.116 126.279 162.386L127.257 162.177ZM102.657 170.082C102.387 170.14 102.214 170.405 102.272 170.675C102.329 170.945 102.594 171.118 102.864 171.061L102.657 170.082ZM95.9505 183.693C95.6803 183.75 95.5077 184.015 95.5649 184.285C95.622 184.555 95.8874 184.728 96.1576 184.671L95.9505 183.693ZM123.67 202.705L121.183 191.051L120.205 191.259L122.692 202.914L123.67 202.705ZM121.183 191.051L118.693 179.389L117.715 179.598L120.205 191.259L121.183 191.051ZM118.693 179.389L116.203 167.726L115.226 167.934L117.715 179.598L118.693 179.389ZM116.203 167.726L114.753 160.931L113.775 161.14L115.226 167.934L116.203 167.726ZM109.471 193.522L106.984 181.868L106.006 182.076L108.493 193.731L109.471 193.522ZM106.984 181.868L104.536 170.404L103.558 170.612L106.006 182.076L106.984 181.868ZM138.25 156.333L137.344 152.088L136.366 152.297L137.272 156.542L138.25 156.333ZM125.765 155.19L124.969 151.46L123.991 151.669L124.787 155.399L125.765 155.19ZM115.818 168.319L127.527 165.841L127.319 164.863L115.611 167.341L115.818 168.319ZM127.527 165.841L131.865 164.923L131.657 163.945L127.319 164.863L127.527 165.841ZM149.579 209.408L147.091 197.751L146.113 197.96L148.601 209.617L149.579 209.408ZM147.091 197.751L144.603 186.094L143.625 186.303L146.113 197.96L147.091 197.751ZM144.603 186.094L142.113 174.432L141.135 174.641L143.625 186.303L144.603 186.094ZM106.598 182.461L118.308 179.983L118.101 179.005L106.391 181.483L106.598 182.461ZM118.308 179.983L130.016 177.505L129.809 176.526L118.101 179.005L118.308 179.983ZM130.016 177.505L141.728 175.026L141.521 174.048L129.809 176.526L130.016 177.505ZM109.285 194.081L120.797 191.644L120.59 190.666L109.078 193.102L109.285 194.081ZM120.797 191.644L132.506 189.166L132.299 188.188L120.59 190.666L120.797 191.644ZM132.506 189.166L144.217 186.687L144.01 185.709L132.299 188.188L132.506 189.166ZM144.217 186.687L153.477 184.728L153.27 183.749L144.01 185.709L144.217 186.687ZM161.288 206.928L158.8 195.273L157.822 195.482L160.31 207.137L161.288 206.928ZM158.8 195.273L156.908 186.407L155.93 186.616L157.822 195.482L158.8 195.273ZM123.484 203.26L134.994 200.824L134.787 199.845L123.277 202.281L123.484 203.26ZM134.994 200.824L146.706 198.345L146.499 197.367L134.787 199.845L134.994 200.824ZM146.706 198.345L158.415 195.867L158.208 194.888L146.499 197.367L146.706 198.345ZM158.415 195.867L167.201 194.007L166.994 193.029L158.208 194.888L158.415 195.867ZM172.997 204.448L171.221 196.127L170.243 196.336L172.019 204.657L172.997 204.448ZM125.97 214.917L137.482 212.48L137.275 211.502L125.763 213.938L125.97 214.917ZM137.482 212.48L149.194 210.002L148.987 209.023L137.275 211.502L137.482 212.48ZM149.194 210.002L176.736 204.172L176.529 203.194L148.987 209.023L149.194 210.002ZM152.063 163.711L151.376 160.491L150.398 160.699L151.085 163.919L152.063 163.711ZM137.868 211.887L135.38 200.23L134.402 200.439L136.89 212.095L137.868 211.887ZM135.38 200.23L132.891 188.573L131.913 188.781L134.402 200.439L135.38 200.23ZM132.891 188.573L130.402 176.911L129.424 177.12L131.913 188.781L132.891 188.573ZM130.402 176.911L127.912 165.248L126.934 165.456L129.424 177.12L130.402 176.911ZM127.912 165.248L127.257 162.177L126.279 162.386L126.934 165.456L127.912 165.248ZM102.864 171.061L115.818 168.319L115.611 167.341L102.657 170.082L102.864 171.061ZM96.1576 184.671L106.598 182.461L106.391 181.483L95.9505 183.693L96.1576 184.671Z" fill="#565656"/>
    <path d="M228.965 214.873C231.453 214.372 258.904 208.126 261.472 207.609L244.238 123.787L227.004 39.9648L163.707 53.0055M78.7123 244.918L166.301 227.028M84.6978 68.8988L0.502441 86.011L17.8599 169.835" stroke="#6F6F6F" stroke-linecap="round" stroke-linejoin="round"/>
    <path d="M123.181 202.81L114.264 161.036" stroke="#565656" stroke-linecap="round"/>
    <path d="M108.982 193.627L104.047 170.508" stroke="#565656" stroke-linecap="round"/>
    <path d="M136.873 178.02C138.116 177.757 138.901 176.504 138.627 175.222C138.353 173.94 137.124 173.113 135.882 173.376C134.64 173.639 133.855 174.892 134.129 176.174C134.402 177.456 135.631 178.283 136.873 178.02Z" fill="#AEAEB2"/>
    <path d="M137.939 177.404L135.737 177.87C135.327 177.957 135.065 178.36 135.153 178.77L135.153 178.77C135.24 179.18 135.644 179.443 136.055 179.356L138.256 178.89C138.667 178.803 138.929 178.4 138.841 177.989L138.841 177.989C138.754 177.579 138.35 177.317 137.939 177.404Z" fill="#AEAEB2"/>
    <path d="M141.045 184.027L135.514 185.198C135.104 185.285 134.842 185.688 134.93 186.098C135.017 186.508 135.421 186.771 135.832 186.684L141.362 185.513C141.773 185.426 142.034 185.023 141.947 184.613C141.859 184.202 141.455 183.94 141.045 184.027Z" fill="#AEAEB2"/>
    <path d="M135.117 183.438L140.695 182.257C140.936 183.385 140.216 184.494 139.087 184.733L137.598 185.048C136.469 185.287 135.358 184.566 135.117 183.438Z" fill="#AEAEB2"/>
    <path d="M138.082 182.808L137.171 179.021L135.686 179.335C135.778 179.763 136.043 180.872 135.86 181.844C135.714 182.615 135.343 183.218 135.114 183.436L138.082 182.808Z" fill="#AEAEB2"/>
    <path d="M137.725 182.886L137.011 179.057L138.495 178.743C138.587 179.171 138.797 180.291 139.362 181.105C139.81 181.751 140.395 182.151 140.694 182.258L137.725 182.886Z" fill="#AEAEB2"/>
    <path d="M122.316 168.055C123.559 167.792 124.344 166.539 124.07 165.257C123.796 163.975 122.567 163.148 121.325 163.411C120.083 163.674 119.298 164.927 119.572 166.209C119.845 167.491 121.074 168.318 122.316 168.055Z" fill="#AEAEB2"/>
    <path d="M123.383 167.439L121.181 167.905C120.771 167.992 120.509 168.395 120.597 168.805L120.597 168.805C120.684 169.215 121.088 169.478 121.499 169.391L123.7 168.925C124.111 168.838 124.373 168.435 124.285 168.024L124.285 168.024C124.198 167.614 123.794 167.352 123.383 167.439Z" fill="#AEAEB2"/>
    <path d="M126.489 174.063L120.958 175.234C120.548 175.321 120.286 175.724 120.374 176.134C120.461 176.544 120.865 176.807 121.276 176.72L126.806 175.549C127.217 175.462 127.478 175.059 127.391 174.649C127.303 174.238 126.899 173.976 126.489 174.063Z" fill="#AEAEB2"/>
    <path d="M120.561 173.473L126.138 172.292C126.379 173.421 125.659 174.529 124.53 174.768L123.041 175.083C121.912 175.322 120.801 174.601 120.561 173.473Z" fill="#AEAEB2"/>
    <path d="M123.526 172.843L122.614 169.056L121.13 169.37C121.221 169.798 121.487 170.907 121.303 171.879C121.157 172.65 120.786 173.253 120.557 173.472L123.526 172.843Z" fill="#AEAEB2"/>
    <path d="M123.168 172.921L122.454 169.092L123.939 168.778C124.03 169.206 124.24 170.326 124.805 171.14C125.253 171.786 125.839 172.187 126.137 172.293L123.168 172.921Z" fill="#AEAEB2"/>
    <path d="M149.698 105H110.613C108.065 105 106 107.065 106 109.613C106 112.16 108.065 114.226 110.613 114.226H138.335C138.257 113.484 138.218 112.736 138.218 111.987V111.645C138.218 109.854 139.67 108.402 141.461 108.402C142.571 108.402 143.604 108.97 144.199 109.908L146.937 114.226H149.698C152.246 114.226 154.311 112.16 154.311 109.613C154.311 107.065 152.246 105 149.698 105Z" fill="#34C759"/>
    <path d="M156.262 49.4961H104.236" stroke="#6F6F6F" stroke-linecap="round"/>
    <path d="M138.689 44.6602H124.233" stroke="#6F6F6F" stroke-linecap="round"/>
    <path d="M121.239 44.9778C121.432 44.9778 121.589 44.821 121.589 44.6276C121.589 44.4342 121.432 44.2773 121.239 44.2773C121.046 44.2773 120.889 44.4342 120.889 44.6276C120.889 44.821 121.046 44.9778 121.239 44.9778Z" fill="#6F6F6F"/>
    <path d="M9.28125 198.033L53.3963 129.191C58.4162 121.434 66.5668 116.218 75.746 114.887L79.5166 114.34M99.8608 116.579L91.188 114.613C87.5052 113.847 83.7156 113.731 79.9924 114.271L79.5166 114.34M65.8177 245.541L113.309 149M91.8034 93.6457C91.8034 86.9178 88.9036 84.9955 89.1453 74.1828C89.3869 63.37 92.045 59.5255 94.2198 54.2393C95.9596 50.0103 93.0116 46.0698 96.3946 44.6279C98.8489 44.1973 100.832 45.518 102.204 47.7331M91.8034 93.6457C91.8034 100.95 90.6757 106.461 90.1119 108.303M91.8034 93.6457C91.8034 98.6794 86.0327 106.047 79.5166 114.34M102.194 64.5715C102.194 72.4406 102.193 96.4931 102.193 117.145M139.216 34.3889C140.165 35.0271 142.546 36.4786 144.482 37.1787C140.422 37.1787 127.416 37.1787 121.42 37.1787C123.215 34.5362 125.711 30.8537 127.567 29.0089C130.708 25.8853 144.24 26.6061 148.348 27.8075C150.362 28.3966 153.205 29.9184 155.643 31.3772C157.865 32.7073 158.603 35.701 156.443 37.1307C155.567 37.7106 154.523 38.1867 153.303 38.46M159.221 128.864V48.2327C159.221 43.9954 156.823 40.3149 153.303 38.46M102.204 47.7331C102.467 41.8606 107.338 37.1797 113.309 37.1797H148.106C149.984 37.1797 151.752 37.6426 153.303 38.46M102.204 47.7331C102.197 47.8987 102.193 48.0653 102.193 48.2327V117.145M102.193 117.145V135.696C102.193 141.8 107.17 146.749 113.309 146.749H148.106C149.314 146.749 150.477 146.557 151.566 146.203M183.929 133.197L184.632 132.862C188.821 130.87 193.754 133.428 194.539 137.999L201.961 181.242L206.477 191.754M183.929 133.197L179.989 128.19C178.265 126 175.112 125.578 172.873 127.238M183.929 133.197C183.929 133.197 187.392 139.553 191.412 142.466M158.8 133.197L160.55 129.285C162.74 124.387 169.217 123.311 172.873 127.238M158.8 133.197L165.166 142.797M158.8 133.197L144.008 109.873C143.413 108.935 142.38 108.367 141.27 108.367C139.479 108.367 138.027 109.819 138.027 111.61V111.952C138.027 112.701 138.066 113.449 138.144 114.191C138.387 116.51 139.005 118.78 139.981 120.909L151.566 146.203M172.873 127.238L180.244 140.811M171.521 246.195C171.521 246.195 169.449 247.377 171.521 221.747C172.03 215.454 174.184 209.786 177.332 205.078M238.838 246.197C227.832 222.07 223.591 207.091 215.708 198.614C213.173 195.08 209.981 192.853 206.477 191.754M206.477 191.754C196.686 188.682 184.46 194.421 177.332 205.078M177.332 205.078C177.112 204.606 176.879 204.141 176.633 203.683C175.12 200.873 173.123 198.35 170.732 196.231C169.605 195.233 168.39 194.324 167.098 193.518C166.94 193.42 166.782 193.323 166.622 193.228C163.119 191.142 159.714 188.9 156.419 186.512C155.393 185.768 154.378 185.01 153.373 184.238C149.409 181.192 145.613 177.926 142.005 174.456C141.837 174.295 141.67 174.134 141.504 173.972C140.68 173.172 139.867 172.361 139.063 171.54L133.482 165.835C132.962 165.303 132.384 164.833 131.761 164.434C131.212 164.082 130.628 163.784 130.016 163.546L123.581 161.041C122.234 160.516 121.73 158.871 122.553 157.682C123.265 156.654 124.207 155.844 125.276 155.295C126.712 154.557 128.38 154.289 130.032 154.593L132.178 154.988C134.075 155.337 135.941 155.822 137.761 156.437C140.709 157.435 143.537 158.775 146.184 160.435L153.5 165.023C155.335 166.173 157.762 165.281 158.416 163.216C158.663 162.433 158.611 161.585 158.269 160.839L151.566 146.203" stroke="#6F6F6F" stroke-linecap="round" stroke-linejoin="round"/>
</svg>
