<svg width="108" height="108" viewBox="0 0 108 108" fill="none" xmlns="http://www.w3.org/2000/svg">
    <circle cx="54" cy="54" r="54" fill="#AEAEB2" fill-opacity="0.1" />
    <rect x="17.5" y="29.5" width="77.6383" height="43.3571" stroke="#6F6F6F"/>
    <path fill-rule="evenodd" clip-rule="evenodd"
        d="M77.6153 75.0003H35.0195V73.3574H77.6153V75.0003Z" fill="#6F6F6F" />
    <path d="M47.55 51.97L45.65 47.41H44L47.55 54.82L51.1 47.41H49.44L47.55 51.97Z"
        fill="#34C759" />
    <path
        d="M53.9333 52.82H57.6333L57.4633 51.69H54.1033L53.9333 52.82ZM55.7633 49.68L56.8133 52.11L56.7933 52.47L57.6933 54.41H59.3133L55.7633 47L52.2133 54.41H53.8233L54.7433 52.41L54.7133 52.09L55.7633 49.68Z"
        fill="#34C759" />
    <path
        d="M63.7627 51.15L65.8627 54.41H67.5527L65.2727 51.15H63.7627ZM62.1727 47.41V54.41H63.6027V47.41H62.1727ZM63.0427 48.63H64.4327C64.686 48.63 64.9027 48.6733 65.0827 48.76C65.2693 48.84 65.4127 48.96 65.5127 49.12C65.6127 49.2733 65.6627 49.46 65.6627 49.68C65.6627 49.9 65.6127 50.09 65.5127 50.25C65.4127 50.4033 65.2693 50.5233 65.0827 50.61C64.9027 50.69 64.686 50.73 64.4327 50.73H63.0427V51.87H64.5227C65.076 51.87 65.546 51.7767 65.9327 51.59C66.3193 51.4033 66.616 51.1433 66.8227 50.81C67.0293 50.47 67.1327 50.08 67.1327 49.64C67.1327 49.1933 67.0293 48.8033 66.8227 48.47C66.616 48.1367 66.3193 47.8767 65.9327 47.69C65.546 47.5033 65.076 47.41 64.5227 47.41H63.0427V48.63Z"
        fill="#34C759" />
</svg>
