<svg width="17" height="16" viewBox="0 0 17 16" fill="none" xmlns="http://www.w3.org/2000/svg">
<path fill-rule="evenodd" clip-rule="evenodd" d="M4.83635 1.33203H4.16969L4.16969 1.9987L4.83635 1.9987C4.6507 1.9987 4.51675 1.99871 4.4201 1.99874L2.79173 1.9987L2.15386 1.99868L2.1257 2.63593L2.79172 2.66536C2.1257 2.63593 2.12569 2.63618 2.12568 2.63644L2.12565 2.63704L2.12559 2.63849L2.12543 2.64245C2.12531 2.64555 2.12517 2.64956 2.12501 2.65445C2.12469 2.66424 2.12431 2.67757 2.12397 2.69421C2.1233 2.72748 2.12278 2.77408 2.12319 2.83213C2.12402 2.94803 2.12856 3.11067 2.14322 3.30475C2.17225 3.68921 2.24221 4.21492 2.41104 4.75103C2.57858 5.28305 2.85686 5.86806 3.33001 6.32603C3.79815 6.77915 4.42563 7.07616 5.22342 7.10115C5.27207 7.20173 5.32305 7.30104 5.37648 7.39871C5.72634 8.0383 6.19839 8.63852 6.83637 9.05303V10.9791C6.83637 11.348 6.63326 11.687 6.30794 11.861L5.16285 12.4733L4.81057 12.6617V13.0612V13.9779V14.6445H5.47723H12.1439H12.8106V13.9779V13.0612V12.6646L12.462 12.4753L11.3383 11.8651C11.0161 11.6902 10.8155 11.353 10.8155 10.9864V9.04147C11.4514 8.60885 11.923 7.99944 12.2737 7.35256C12.3185 7.27008 12.3615 7.18654 12.4028 7.10215C13.219 7.08565 13.8591 6.78643 14.3348 6.32603C14.8079 5.86806 15.0862 5.28305 15.2537 4.75103C15.4226 4.21492 15.4925 3.68921 15.5216 3.30475C15.5362 3.11067 15.5408 2.94803 15.5416 2.83213C15.542 2.77408 15.5415 2.72748 15.5408 2.69421C15.5405 2.67757 15.5401 2.66424 15.5398 2.65445C15.5396 2.64956 15.5395 2.64555 15.5393 2.64245L15.5392 2.63849L15.5391 2.63704L15.5391 2.63644C15.5391 2.63618 15.5391 2.63593 14.8731 2.66536L15.5391 2.63593L15.5109 1.99868L14.873 1.9987L13.2259 1.99874C13.1293 1.99871 12.9956 1.9987 12.8106 1.9987H13.4772V1.33203H12.8106H4.83635ZM13.3925 3.33207C13.3417 3.8025 13.26 4.36396 13.1285 4.95368C13.0768 5.18557 13.017 5.42388 12.9475 5.66432C13.1329 5.5927 13.2823 5.48911 13.4074 5.36798C13.6648 5.11892 13.8526 4.76122 13.982 4.35053C14.0937 3.99574 14.1518 3.63303 14.181 3.33205L13.3925 3.33207ZM4.68402 5.65099C4.62122 5.42823 4.56652 5.20734 4.51879 4.9918C4.38524 4.38876 4.30305 3.81295 4.25234 3.33207L3.48377 3.33205C3.51295 3.63303 3.57107 3.99574 3.6828 4.35053C3.81214 4.76122 4.00001 5.11892 4.25733 5.36798C4.37491 5.48179 4.51394 5.58012 4.68402 5.65099ZM5.54259 2.80589C5.53872 2.75728 5.53524 2.7104 5.53209 2.66536H12.114C12.1111 2.70563 12.1079 2.74737 12.1045 2.79051C12.0646 3.28567 11.9849 3.95599 11.8272 4.66351C11.6687 5.37434 11.4363 6.09961 11.1016 6.7171C10.7664 7.33542 10.3497 7.80725 9.83924 8.07496L9.48219 8.2622V8.66536V10.9864C9.48219 11.8418 9.9503 12.6287 10.7021 13.0369L11.2072 13.3112H6.42345L6.93671 13.0367C7.69578 12.6308 8.16971 11.8399 8.16971 10.9791V8.66536V8.24752L7.79366 8.06538C7.29331 7.82302 6.88088 7.3706 6.54624 6.75884C6.21213 6.14805 5.97951 5.42114 5.82058 4.70351C5.66248 3.98957 5.58263 3.30949 5.54259 2.80589Z" fill="#2A2A2A"/>
</svg>
