<svg width="24" height="24" viewBox="0 0 24 24" fill="none" xmlns="http://www.w3.org/2000/svg">
<path fill-rule="evenodd" clip-rule="evenodd" d="M22 2H2V11H11V15.2034L8.45711 12.6605L7.0429 14.0747L11.9926 19.0245L16.9424 14.0747L15.5282 12.6605L13 15.1887V11H22V2ZM3 22V18H5V20H19V18H21V22H3ZM15.9453 3.96777H15V9.03027H16V5.547L19.0547 9.03108H20.0312V3.96852H19.0312V7.4875L15.9453 3.96777ZM5.96875 4.00049H4V8.96924H5V7.98718H5.96875C6.26991 7.98718 6.77067 7.92803 7.21194 7.63827C7.68705 7.3263 8.03125 6.78619 8.03125 5.96909C8.03125 5.1566 7.69786 4.62154 7.21464 4.31886C6.77147 4.04127 6.26725 4.00049 5.96875 4.00049ZM5.96875 6.98718H5V5.00049H5.96875C6.2015 5.00049 6.47853 5.03776 6.6838 5.16633C6.84902 5.26983 7.03125 5.46908 7.03125 5.96909C7.03125 6.46448 6.8442 6.68342 6.66306 6.80237C6.44808 6.94353 6.16759 6.98718 5.96875 6.98718ZM9 6.49998C9 4.93706 10.3983 4 11.9687 4H14L14 4.5L14 5H11.9687C10.7266 5 10 5.68941 10 6.49998C10 7.32694 10.8406 8.03123 11.8125 8.03123H13V6.99998H11.9687V5.99998H14V9.03123H11.8125C10.4719 9.03123 9 8.04652 9 6.49998Z" fill="#2A2A2A"/>
</svg>
