<svg width="35" height="35" viewBox="0 0 35 35" fill="none" xmlns="http://www.w3.org/2000/svg">
<path d="M10.4065 25.8899V27.6903C10.4065 28.1678 10.5962 28.6257 10.9338 28.9634C11.2715 29.301 11.7294 29.4907 12.2069 29.4907H23.0094C23.4869 29.4907 23.9448 29.301 24.2825 28.9634C24.6201 28.6257 24.8098 28.1678 24.8098 27.6903V25.8899" stroke="white" stroke-width="2" stroke-linecap="round" stroke-linejoin="round"/>
<path d="M22.1091 20.4887L17.6081 24.9897L13.1071 20.4887" stroke="white" stroke-linecap="round" stroke-linejoin="round"/>
<path d="M17.6082 24.9897L17.6082 14.1873" stroke="white" stroke-linecap="round" stroke-linejoin="round"/>
<path fill-rule="evenodd" clip-rule="evenodd" d="M8.80566 5.18518C7.70109 5.18518 6.80566 6.08061 6.80566 7.18518V13.9876C6.80566 15.0922 7.7011 15.9876 8.80567 15.9876H26.4106C27.5152 15.9876 28.4106 15.0922 28.4106 13.9876V7.18518C28.4106 6.08061 27.5152 5.18518 26.4106 5.18518H8.80566ZM25.7224 7.83775H24.3757V10.3943L20.9982 7.58569V12.8789H22.3377V10.3223L25.7224 13.131V7.83775ZM17.5978 11.1073V10.0559H20.2047C20.2336 10.4688 20.1951 10.8576 20.0895 11.2225C19.9887 11.5874 19.8255 11.9091 19.5998 12.1875C19.3742 12.4612 19.0909 12.6773 18.75 12.8357C18.4139 12.9893 18.025 13.0661 17.5833 13.0661C17.036 13.0661 16.5487 12.9533 16.1214 12.7277C15.6989 12.502 15.3652 12.1875 15.1204 11.7843C14.8803 11.3762 14.7603 10.9008 14.7603 10.3583C14.7603 9.95023 14.8323 9.58295 14.9764 9.25647C15.1204 8.93 15.322 8.65154 15.5813 8.42108C15.8454 8.19063 16.1526 8.01539 16.5031 7.89536C16.8536 7.77053 17.2329 7.70812 17.641 7.70812C18.0106 7.70812 18.3395 7.76333 18.6276 7.87376C18.9157 7.97938 19.1701 8.12582 19.391 8.31306C19.6118 8.4955 19.8039 8.70435 19.9671 8.9396L18.6852 9.55174C18.5844 9.3693 18.4523 9.21566 18.2891 9.09084C18.1259 8.96601 17.9098 8.90359 17.641 8.90359C17.3817 8.90359 17.144 8.96121 16.928 9.07643C16.7167 9.18686 16.5463 9.3501 16.4167 9.56614C16.2919 9.78219 16.2294 10.0463 16.2294 10.3583C16.2294 10.824 16.3591 11.1937 16.6183 11.4674C16.8824 11.7362 17.2233 11.8707 17.641 11.8707C17.9722 11.8707 18.2315 11.7987 18.4187 11.6546C18.6108 11.5106 18.7476 11.3281 18.8292 11.1073H17.5978ZM10.4067 7.83775H12.2719C12.9633 7.83775 13.4746 7.98658 13.8059 8.28425C14.1419 8.58192 14.31 8.99481 14.31 9.52294C14.31 10.0463 14.1419 10.4591 13.8059 10.7616C13.4746 11.0641 12.9633 11.2153 12.2719 11.2153H11.8038V12.8789H10.4067V7.83775ZM12.2719 8.96841H11.8038V10.0847H12.2719C12.4976 10.0847 12.668 10.0367 12.7832 9.94063C12.9033 9.83981 12.9633 9.70058 12.9633 9.52294C12.9633 9.15325 12.7328 8.96841 12.2719 8.96841Z" fill="white"/>
</svg>
