<svg width="25" height="24" viewBox="0 0 25 24" fill="none" xmlns="http://www.w3.org/2000/svg">
<path fill-rule="evenodd" clip-rule="evenodd" d="M22.0117 6H2.01172V17H22.0117V6ZM4.01172 9.0314H5.98047C6.27897 9.0314 6.78319 9.07218 7.22636 9.34978C7.70957 9.65246 8.04297 10.1875 8.04297 11C8.04297 11.8171 7.69876 12.3572 7.22366 12.6692C6.78239 12.9589 6.28163 13.0181 5.98047 13.0181H5.01172V14.0002H4.01172V9.0314ZM5.01172 12.0181H5.98047C6.1793 12.0181 6.4598 11.9744 6.67478 11.8333C6.85592 11.7143 7.04297 11.4954 7.04297 11C7.04297 10.5 6.86074 10.3007 6.69552 10.1972C6.49025 10.0687 6.21321 10.0314 5.98047 10.0314H5.01172V12.0181ZM15.0117 8.99925H15.9571L19.043 12.519V9H20.043V14.0626H19.0664L16.0117 10.5785V14.0618H15.0117V8.99925ZM9.01172 11.5312C9.01172 9.96831 10.41 9.03125 11.9804 9.03125H14.0117C14.0117 9.03125 14.0117 9.03125 14.0117 9.53125C14.0117 10.0312 14.0117 10.0312 14.0117 10.0312H11.9804C10.7383 10.0312 10.0117 10.7207 10.0117 11.5312C10.0117 12.3582 10.8523 13.0625 11.8242 13.0625H13.0117V12.0312H11.9805V11.0312H14.0117V14.0625H11.8242C10.4837 14.0625 9.01172 13.0778 9.01172 11.5312Z" fill="#2A2A2A"/>
</svg>
