<svg fill="none" height="48" viewBox="0 0 48 48" width="48" xmlns="http://www.w3.org/2000/svg">
    <path
        d="M0 1.93939C0 0.868295 0.868296 0 1.93939 0H46.0606C47.1317 0 48 0.868296 48 1.93939V46.0606C48 47.1317 47.1317 48 46.0606 48H1.93939C0.868295 48 0 47.1317 0 46.0606V1.93939Z"
        fill="#050505" />
    <path clip-rule="evenodd"
        d="M7.2729 5.33331C6.46958 5.33331 5.81836 5.98454 5.81836 6.78786V12.3636H7.96108V7.96088C7.96108 7.6931 8.17815 7.47603 8.44592 7.47603H12.8487V5.33331H7.2729Z"
        fill="white" fill-rule="evenodd" />
    <path clip-rule="evenodd"
        d="M41.6969 5.33331H36.1211V7.47603H40.5238C40.7916 7.47603 41.0087 7.6931 41.0087 7.96088V12.3636H43.1514V6.78786C43.1514 5.98454 42.5002 5.33331 41.6969 5.33331Z"
        fill="white" fill-rule="evenodd" />
    <path clip-rule="evenodd"
        d="M43.1514 35.6364H41.0087V40.0078C41.0087 40.2755 40.7916 40.4926 40.5238 40.4926H36.1211V42.6667H41.6969C42.5002 42.6667 43.1514 42.0154 43.1514 41.2121V35.6364Z"
        fill="white" fill-rule="evenodd" />
    <path clip-rule="evenodd"
        d="M7.96108 35.6364H5.81836V41.2121C5.81836 42.0154 6.46958 42.6667 7.2729 42.6667H12.8487V40.4926H8.44592C8.17815 40.4926 7.96108 40.2755 7.96108 40.0078V35.6364Z"
        fill="white" fill-rule="evenodd" />
    <path clip-rule="evenodd"
        d="M26.2689 20.1043C27.4284 19.3329 28.1963 17.9874 28.1963 16.4565C28.1963 14.0622 26.3178 12.1212 24.0005 12.1212C21.6833 12.1212 19.8047 14.0622 19.8047 16.4565C19.8047 18.0007 20.586 19.3562 21.7624 20.1242C21.1249 20.2494 20.6439 20.8113 20.6439 21.4855C20.6439 22.0173 20.9431 22.4792 21.3824 22.7121L21.3827 22.8557C21.3859 23.7452 21.3927 25.6784 20.7362 27.2465C20.1824 28.5692 19.29 29.5062 18.7977 29.8093V30.6244C18.7977 31.6549 19.3173 32.5641 20.1088 33.1042H18.4551C17.9028 33.1042 17.4551 33.5519 17.4551 34.1042V34.8788C17.4551 35.4311 17.9028 35.8788 18.4551 35.8788H29.546C30.0983 35.8788 30.546 35.4311 30.546 34.8788V34.1042C30.546 33.5519 30.0983 33.1042 29.546 33.1042H27.8923C28.6838 32.5641 29.2033 31.6549 29.2033 30.6244V29.8093C28.711 29.5062 27.8187 28.5692 27.2649 27.2465C26.6083 25.6784 26.6152 23.7452 26.6183 22.8557C26.6184 22.8321 26.6185 22.8093 26.6186 22.7872C27.1477 22.5917 27.525 22.0826 27.525 21.4855C27.525 20.7636 26.9735 20.1704 26.2689 20.1043Z"
        fill="white" fill-rule="evenodd" />
</svg>
